G04 #@! TF.GenerationSoftware,KiCad,Pcbnew,5.0.0-fee4fd1~66~ubuntu18.04.1*
G04 #@! TF.CreationDate,2018-10-11T22:40:23+02:00*
G04 #@! TF.ProjectId,midi-v2-circuit,6D6964692D76322D636972637569742E,rev?*
G04 #@! TF.SameCoordinates,Original*
G04 #@! TF.FileFunction,Soldermask,Top*
G04 #@! TF.FilePolarity,Negative*
%FSLAX46Y46*%
G04 Gerber Fmt 4.6, Leading zero omitted, Abs format (unit mm)*
G04 Created by KiCad (PCBNEW 5.0.0-fee4fd1~66~ubuntu18.04.1) date Thu Oct 11 22:40:23 2018*
%MOMM*%
%LPD*%
G01*
G04 APERTURE LIST*
%ADD10C,3.100000*%
%ADD11C,4.600000*%
%ADD12C,3.000000*%
%ADD13C,1.997000*%
%ADD14R,2.327200X2.327200*%
%ADD15O,2.327200X2.327200*%
%ADD16O,2.598980X2.598980*%
%ADD17R,2.598980X2.598980*%
%ADD18R,2.300000X2.300000*%
%ADD19O,2.300000X2.300000*%
%ADD20C,2.100000*%
%ADD21R,2.400000X2.400000*%
%ADD22C,2.400000*%
%ADD23C,2.120000*%
%ADD24C,3.300000*%
%ADD25C,2.900000*%
%ADD26R,1.160000X2.200000*%
%ADD27R,2.200000X1.160000*%
G04 APERTURE END LIST*
D10*
G04 #@! TO.C,REF\002A\002A*
X179006500Y-81295500D03*
G04 #@! TD*
G04 #@! TO.C,REF\002A\002A*
X178943000Y-98313500D03*
G04 #@! TD*
D11*
G04 #@! TO.C,REF\002A\002A*
X193167000Y-107569000D03*
G04 #@! TD*
D12*
G04 #@! TO.C,REF\002A\002A*
X87503000Y-81788000D03*
G04 #@! TD*
G04 #@! TO.C,REF\002A\002A*
X106553000Y-81788000D03*
G04 #@! TD*
G04 #@! TO.C,REF\002A\002A*
X87503000Y-107188000D03*
G04 #@! TD*
D13*
G04 #@! TO.C,SW2*
X183896000Y-58420000D03*
X183896000Y-63500000D03*
X176276000Y-58420000D03*
X176276000Y-63500000D03*
G04 #@! TD*
D11*
G04 #@! TO.C,REF\002A\002A*
X123571000Y-107772200D03*
G04 #@! TD*
G04 #@! TO.C,REF\002A\002A*
X81661000Y-58039000D03*
G04 #@! TD*
G04 #@! TO.C,REF\002A\002A*
X193167000Y-58039000D03*
G04 #@! TD*
D14*
G04 #@! TO.C,CON1*
X84074000Y-87376000D03*
D15*
X81534000Y-87376000D03*
X84074000Y-89916000D03*
X81534000Y-89916000D03*
X84074000Y-92456000D03*
X81534000Y-92456000D03*
X84074000Y-94996000D03*
X81534000Y-94996000D03*
X84074000Y-97536000D03*
X81534000Y-97536000D03*
X84074000Y-100076000D03*
X81534000Y-100076000D03*
X84074000Y-102616000D03*
X81534000Y-102616000D03*
G04 #@! TD*
D16*
G04 #@! TO.C,J1*
X113411000Y-88646000D03*
D17*
X113411000Y-81026000D03*
D16*
X113411000Y-83566000D03*
X113411000Y-86106000D03*
X113411000Y-91186000D03*
X113411000Y-93726000D03*
X113411000Y-96266000D03*
X113411000Y-98806000D03*
X113411000Y-101346000D03*
X113411000Y-103886000D03*
X113411000Y-106426000D03*
X113411000Y-108966000D03*
G04 #@! TD*
D18*
G04 #@! TO.C,J7*
X122174000Y-99568000D03*
D19*
X122174000Y-97028000D03*
X122174000Y-94488000D03*
X122174000Y-91948000D03*
G04 #@! TD*
D20*
G04 #@! TO.C,Y1*
X147701000Y-89001600D03*
X142801000Y-89001600D03*
G04 #@! TD*
D18*
G04 #@! TO.C,J8*
X122174000Y-85852000D03*
D19*
X122174000Y-83312000D03*
X122174000Y-80772000D03*
G04 #@! TD*
D18*
G04 #@! TO.C,J9*
X98425000Y-65913000D03*
D19*
X95885000Y-65913000D03*
G04 #@! TD*
D21*
G04 #@! TO.C,D1*
X106934000Y-58420000D03*
D22*
X104394000Y-58420000D03*
G04 #@! TD*
D21*
G04 #@! TO.C,D2*
X99314000Y-58420000D03*
D22*
X96774000Y-58420000D03*
G04 #@! TD*
D23*
G04 #@! TO.C,J6*
X118522000Y-68962000D03*
X115982000Y-68962000D03*
X115982000Y-66962000D03*
X118522000Y-66962000D03*
D24*
X123252000Y-64262000D03*
X111252000Y-64262000D03*
G04 #@! TD*
D25*
G04 #@! TO.C,J3*
X136398000Y-71755000D03*
X141478000Y-66675000D03*
X136398000Y-66675000D03*
X138938000Y-69215000D03*
X144018000Y-69215000D03*
X131318000Y-66675000D03*
X133858000Y-69215000D03*
X128778000Y-69215000D03*
G04 #@! TD*
D14*
G04 #@! TO.C,CON2*
X156210000Y-65151000D03*
D15*
X156210000Y-62611000D03*
X158750000Y-65151000D03*
X158750000Y-62611000D03*
X161290000Y-65151000D03*
X161290000Y-62611000D03*
X163830000Y-65151000D03*
X163830000Y-62611000D03*
X166370000Y-65151000D03*
X166370000Y-62611000D03*
G04 #@! TD*
D18*
G04 #@! TO.C,J2*
X83820000Y-66802000D03*
D19*
X83820000Y-69342000D03*
X83820000Y-71882000D03*
X83820000Y-74422000D03*
G04 #@! TD*
D14*
G04 #@! TO.C,CON3*
X192151000Y-87249000D03*
D15*
X189611000Y-87249000D03*
X192151000Y-84709000D03*
X189611000Y-84709000D03*
X192151000Y-82169000D03*
X189611000Y-82169000D03*
X192151000Y-79629000D03*
X189611000Y-79629000D03*
X192151000Y-77089000D03*
X189611000Y-77089000D03*
X192151000Y-74549000D03*
X189611000Y-74549000D03*
X192151000Y-72009000D03*
X189611000Y-72009000D03*
G04 #@! TD*
D26*
G04 #@! TO.C,U1*
X171267000Y-72369000D03*
X170467000Y-72369000D03*
X169667000Y-72369000D03*
X168867000Y-72369000D03*
X168067000Y-72369000D03*
X167267000Y-72369000D03*
X166467000Y-72369000D03*
X165667000Y-72369000D03*
X164867000Y-72369000D03*
X164067000Y-72369000D03*
X163267000Y-72369000D03*
D27*
X161417000Y-74219000D03*
X161417000Y-75019000D03*
X161417000Y-75819000D03*
X161417000Y-76619000D03*
X161417000Y-77419000D03*
X161417000Y-78219000D03*
X161417000Y-79019000D03*
X161417000Y-79819000D03*
X161417000Y-80619000D03*
X161417000Y-81419000D03*
X161417000Y-82219000D03*
D26*
X163267000Y-84069000D03*
X164067000Y-84069000D03*
X164867000Y-84069000D03*
X165667000Y-84069000D03*
X166467000Y-84069000D03*
X167267000Y-84069000D03*
X168067000Y-84069000D03*
X168867000Y-84069000D03*
X169667000Y-84069000D03*
X170467000Y-84069000D03*
X171267000Y-84069000D03*
D27*
X173117000Y-82219000D03*
X173117000Y-81419000D03*
X173117000Y-80619000D03*
X173117000Y-79819000D03*
X173117000Y-79019000D03*
X173117000Y-78219000D03*
X173117000Y-77419000D03*
X173117000Y-76619000D03*
X173117000Y-75819000D03*
X173117000Y-75019000D03*
X173117000Y-74219000D03*
G04 #@! TD*
D14*
G04 #@! TO.C,J4*
X174371000Y-105886000D03*
D15*
X174371000Y-108426000D03*
X171831000Y-105886000D03*
X171831000Y-108426000D03*
X169291000Y-105886000D03*
X169291000Y-108426000D03*
X166751000Y-105886000D03*
X166751000Y-108426000D03*
X164211000Y-105886000D03*
X164211000Y-108426000D03*
X161671000Y-105886000D03*
X161671000Y-108426000D03*
X159131000Y-105886000D03*
X159131000Y-108426000D03*
X156591000Y-105886000D03*
X156591000Y-108426000D03*
X154051000Y-105886000D03*
X154051000Y-108426000D03*
X151511000Y-105886000D03*
X151511000Y-108426000D03*
G04 #@! TD*
D10*
G04 #@! TO.C,REF\002A\002A*
X135953500Y-81232000D03*
G04 #@! TD*
G04 #@! TO.C,REF\002A\002A*
X135953500Y-98313500D03*
G04 #@! TD*
D12*
G04 #@! TO.C,REF\002A\002A*
X106553000Y-107188000D03*
G04 #@! TD*
M02*
