M48
;DRILL file {KiCad 5.0.0-fee4fd1~66~ubuntu18.04.1} date Fri Oct 12 23:09:17 2018
;FORMAT={-:-/ absolute / inch / decimal}
FMAT,2
INCH,TZ
T1C0.0157
T2C0.0315
T3C0.0319
T4C0.0320
T5C0.0350
T6C0.0354
T7C0.0354
T8C0.0394
T9C0.0400
T10C0.0432
T11C0.0512
T12C0.0550
T13C0.0866
T14C0.0906
T15C0.1220
T16C0.1260
%
G90
G05
M72
T1
X4.217Y-4.307
X5.076Y-3.984
X6.49Y-2.965
X6.495Y-3.155
X6.54Y-3.08
X6.545Y-3.235
X6.555Y-3.454
X6.567Y-3.181
X6.6005Y-2.9605
X6.665Y-2.96
X6.692Y-3.219
X6.715Y-3.04
X6.715Y-3.15
X6.74Y-2.96
X6.865Y-2.805
X6.911Y-2.758
X6.926Y-2.857
T2
X5.925Y-3.727
X6.1179Y-3.727
T3
X5.432Y-2.3143
X5.432Y-2.393
X5.532Y-2.3143
X5.532Y-2.393
T4
X7.395Y-3.813
X7.395Y-4.013
X7.695Y-3.813
X7.695Y-4.013
T5
X4.803Y-4.114
X4.903Y-4.114
X5.003Y-4.114
X5.303Y-3.614
X5.303Y-3.714
X5.303Y-3.814
T6
X4.778Y-3.214
X4.778Y-3.414
X5.028Y-3.214
X5.028Y-3.414
T7
X4.756Y-1.979
X4.856Y-1.979
X4.456Y-1.979
X4.556Y-1.979
T8
X6.196Y-3.942
X6.196Y-4.042
X6.196Y-4.142
X6.196Y-4.242
X5.065Y-2.775
X5.165Y-2.775
X5.265Y-2.775
X5.365Y-2.775
X4.575Y-2.777
X4.675Y-2.777
X4.775Y-2.777
X5.664Y-2.67
X5.664Y-2.77
T9
X6.919Y-2.227
X6.919Y-2.327
X7.019Y-2.227
X7.019Y-2.327
X7.119Y-2.227
X7.119Y-2.327
X7.219Y-2.227
X7.219Y-2.327
X7.319Y-2.227
X7.319Y-2.327
X6.443Y-4.2087
X6.443Y-4.3087
X6.543Y-4.2087
X6.543Y-4.3087
X6.643Y-4.2087
X6.643Y-4.3087
X6.743Y-4.2087
X6.743Y-4.3087
X6.843Y-4.2087
X6.843Y-4.3087
X6.943Y-4.2087
X6.943Y-4.3087
X7.043Y-4.2087
X7.043Y-4.3087
X7.143Y-4.2087
X7.143Y-4.3087
X7.243Y-4.2087
X7.243Y-4.3087
X7.343Y-4.2087
X7.343Y-4.3087
X4.293Y-3.434
X4.293Y-3.534
X4.293Y-3.634
X4.293Y-3.734
X4.293Y-3.834
X4.293Y-3.934
X4.293Y-4.034
X4.393Y-3.434
X4.393Y-3.534
X4.393Y-3.634
X4.393Y-3.734
X4.393Y-3.834
X4.393Y-3.934
X4.393Y-4.034
X7.465Y-2.835
X7.465Y-2.935
X7.465Y-3.035
X7.465Y-3.135
X7.465Y-3.235
X7.465Y-3.335
X7.465Y-3.435
X7.565Y-2.835
X7.565Y-2.935
X7.565Y-3.035
X7.565Y-3.135
X7.565Y-3.235
X7.565Y-3.335
X7.565Y-3.435
T10
X5.548Y-3.184
X5.548Y-3.284
X5.548Y-3.384
X5.548Y-3.484
X5.548Y-3.584
X5.548Y-3.684
X5.548Y-3.784
X5.548Y-3.884
X5.548Y-3.984
X5.548Y-4.084
X5.548Y-4.184
X5.548Y-4.284
T11
X5.956Y-2.408
X6.056Y-2.308
X6.156Y-1.908
X6.156Y-2.408
X6.256Y-2.308
X6.256Y-2.508
X6.356Y-1.908
X6.356Y-2.408
X6.456Y-2.308
X6.556Y-2.408
T12
X4.603Y-3.4515
X4.603Y-3.9765
X5.203Y-3.4515
X5.203Y-3.9765
T13
X5.8215Y-3.9799
X4.528Y-3.214
X5.278Y-3.214
X5.8215Y-3.3074
X4.528Y-4.214
X5.278Y-4.214
T14
X5.2458Y-2.208
X5.7182Y-2.208
T15
X7.673Y-4.303
T16
X4.239Y-2.938
X7.674Y-1.941
X5.83Y-4.299
X4.24Y-1.941
T0
M30
