G04 #@! TF.GenerationSoftware,KiCad,Pcbnew,5.0.0-fee4fd1~66~ubuntu18.04.1*
G04 #@! TF.CreationDate,2018-10-12T23:09:15+02:00*
G04 #@! TF.ProjectId,midi-v2-circuit,6D6964692D76322D636972637569742E,rev?*
G04 #@! TF.SameCoordinates,Original*
G04 #@! TF.FileFunction,Copper,L1,Top,Signal*
G04 #@! TF.FilePolarity,Positive*
%FSLAX46Y46*%
G04 Gerber Fmt 4.6, Leading zero omitted, Abs format (unit mm)*
G04 Created by KiCad (PCBNEW 5.0.0-fee4fd1~66~ubuntu18.04.1) date Fri Oct 12 23:09:15 2018*
%MOMM*%
%LPD*%
G01*
G04 APERTURE LIST*
G04 #@! TA.AperFunction,ComponentPad*
%ADD10C,4.000000*%
G04 #@! TD*
G04 #@! TA.AperFunction,ComponentPad*
%ADD11C,2.500000*%
G04 #@! TD*
G04 #@! TA.AperFunction,ComponentPad*
%ADD12R,1.727200X1.727200*%
G04 #@! TD*
G04 #@! TA.AperFunction,ComponentPad*
%ADD13O,1.727200X1.727200*%
G04 #@! TD*
G04 #@! TA.AperFunction,ComponentPad*
%ADD14R,1.700000X1.700000*%
G04 #@! TD*
G04 #@! TA.AperFunction,ComponentPad*
%ADD15O,1.700000X1.700000*%
G04 #@! TD*
G04 #@! TA.AperFunction,ComponentPad*
%ADD16C,1.778000*%
G04 #@! TD*
G04 #@! TA.AperFunction,ComponentPad*
%ADD17C,2.286000*%
G04 #@! TD*
G04 #@! TA.AperFunction,ComponentPad*
%ADD18C,2.400000*%
G04 #@! TD*
G04 #@! TA.AperFunction,ComponentPad*
%ADD19C,1.397000*%
G04 #@! TD*
G04 #@! TA.AperFunction,ComponentPad*
%ADD20O,1.998980X1.998980*%
G04 #@! TD*
G04 #@! TA.AperFunction,ComponentPad*
%ADD21R,1.998980X1.998980*%
G04 #@! TD*
G04 #@! TA.AperFunction,ComponentPad*
%ADD22C,1.500000*%
G04 #@! TD*
G04 #@! TA.AperFunction,ComponentPad*
%ADD23R,1.800000X1.800000*%
G04 #@! TD*
G04 #@! TA.AperFunction,ComponentPad*
%ADD24C,1.800000*%
G04 #@! TD*
G04 #@! TA.AperFunction,ComponentPad*
%ADD25C,1.520000*%
G04 #@! TD*
G04 #@! TA.AperFunction,ComponentPad*
%ADD26C,2.700000*%
G04 #@! TD*
G04 #@! TA.AperFunction,ComponentPad*
%ADD27C,2.300000*%
G04 #@! TD*
G04 #@! TA.AperFunction,ComponentPad*
%ADD28C,2.000000*%
G04 #@! TD*
G04 #@! TA.AperFunction,SMDPad,CuDef*
%ADD29R,0.560000X1.600000*%
G04 #@! TD*
G04 #@! TA.AperFunction,SMDPad,CuDef*
%ADD30R,1.600000X0.560000*%
G04 #@! TD*
G04 #@! TA.AperFunction,ViaPad*
%ADD31C,1.200000*%
G04 #@! TD*
G04 #@! TA.AperFunction,Conductor*
%ADD32C,0.400000*%
G04 #@! TD*
G04 #@! TA.AperFunction,Conductor*
%ADD33C,0.500000*%
G04 #@! TD*
G04 #@! TA.AperFunction,Conductor*
%ADD34C,0.200000*%
G04 #@! TD*
G04 #@! TA.AperFunction,Conductor*
%ADD35C,0.300000*%
G04 #@! TD*
G04 #@! TA.AperFunction,Conductor*
%ADD36C,0.150000*%
G04 #@! TD*
G04 #@! TA.AperFunction,Conductor*
%ADD37C,0.800000*%
G04 #@! TD*
G04 #@! TA.AperFunction,Conductor*
%ADD38C,0.254000*%
G04 #@! TD*
G04 APERTURE END LIST*
D10*
G04 #@! TO.P,REF\002A\002A,1*
G04 #@! TO.N,N/C*
X107670600Y-74625200D03*
G04 #@! TD*
D11*
G04 #@! TO.P,REF\002A\002A,1*
G04 #@! TO.N,N/C*
X147866100Y-84007700D03*
G04 #@! TD*
G04 #@! TO.P,REF\002A\002A,1*
G04 #@! TO.N,N/C*
X147866100Y-101089200D03*
G04 #@! TD*
D12*
G04 #@! TO.P,J4,1*
G04 #@! TO.N,note-13*
X186512200Y-106902000D03*
D13*
G04 #@! TO.P,J4,2*
G04 #@! TO.N,note-12*
X186512200Y-109442000D03*
G04 #@! TO.P,J4,3*
G04 #@! TO.N,note-11*
X183972200Y-106902000D03*
G04 #@! TO.P,J4,4*
G04 #@! TO.N,note-10*
X183972200Y-109442000D03*
G04 #@! TO.P,J4,5*
G04 #@! TO.N,note-9*
X181432200Y-106902000D03*
G04 #@! TO.P,J4,6*
G04 #@! TO.N,note-8*
X181432200Y-109442000D03*
G04 #@! TO.P,J4,7*
G04 #@! TO.N,note-7*
X178892200Y-106902000D03*
G04 #@! TO.P,J4,8*
G04 #@! TO.N,note-6*
X178892200Y-109442000D03*
G04 #@! TO.P,J4,9*
G04 #@! TO.N,note-5*
X176352200Y-106902000D03*
G04 #@! TO.P,J4,10*
G04 #@! TO.N,note-4*
X176352200Y-109442000D03*
G04 #@! TO.P,J4,11*
G04 #@! TO.N,note-3*
X173812200Y-106902000D03*
G04 #@! TO.P,J4,12*
G04 #@! TO.N,note-2*
X173812200Y-109442000D03*
G04 #@! TO.P,J4,13*
G04 #@! TO.N,note-1*
X171272200Y-106902000D03*
G04 #@! TO.P,J4,14*
G04 #@! TO.N,SCK*
X171272200Y-109442000D03*
G04 #@! TO.P,J4,15*
G04 #@! TO.N,MISO*
X168732200Y-106902000D03*
G04 #@! TO.P,J4,16*
G04 #@! TO.N,MOSI*
X168732200Y-109442000D03*
G04 #@! TO.P,J4,17*
G04 #@! TO.N,octave-1*
X166192200Y-106902000D03*
G04 #@! TO.P,J4,18*
G04 #@! TO.N,N/C*
X166192200Y-109442000D03*
G04 #@! TO.P,J4,19*
X163652200Y-106902000D03*
G04 #@! TO.P,J4,20*
X163652200Y-109442000D03*
G04 #@! TD*
D14*
G04 #@! TO.P,J2,1*
G04 #@! TO.N,SDA*
X157378400Y-100126800D03*
D15*
G04 #@! TO.P,J2,2*
G04 #@! TO.N,SCL*
X157378400Y-102666800D03*
G04 #@! TO.P,J2,3*
G04 #@! TO.N,+5V*
X157378400Y-105206800D03*
G04 #@! TO.P,J2,4*
G04 #@! TO.N,GND*
X157378400Y-107746800D03*
G04 #@! TD*
D16*
G04 #@! TO.P,RV1,B1A*
G04 #@! TO.N,Net-(RV1-PadB1A)*
X127711200Y-81635600D03*
G04 #@! TO.P,RV1,B1B*
G04 #@! TO.N,Net-(RV1-PadB1B)*
X121361200Y-81635600D03*
G04 #@! TO.P,RV1,B2A*
G04 #@! TO.N,Net-(RV1-PadB2A)*
X127711200Y-86715600D03*
G04 #@! TO.P,RV1,B2B*
G04 #@! TO.N,Net-(RV1-PadB2B)*
X121361200Y-86715600D03*
G04 #@! TO.P,RV1,H1*
G04 #@! TO.N,+5V*
X127076200Y-104495600D03*
G04 #@! TO.P,RV1,H2*
G04 #@! TO.N,joystick-pot-2*
X124536200Y-104495600D03*
G04 #@! TO.P,RV1,H3*
G04 #@! TO.N,GND*
X121996200Y-104495600D03*
D17*
G04 #@! TO.P,RV1,MOUN*
G04 #@! TO.N,N/C*
X132156200Y-87668100D03*
X132156200Y-101003100D03*
X116916200Y-101003100D03*
X116916200Y-87668100D03*
D16*
G04 #@! TO.P,RV1,V1*
G04 #@! TO.N,+5V*
X134696200Y-91795600D03*
G04 #@! TO.P,RV1,V2*
G04 #@! TO.N,joystick-pot-1*
X134696200Y-94335600D03*
G04 #@! TO.P,RV1,V3*
G04 #@! TO.N,GND*
X134696200Y-96875600D03*
G04 #@! TD*
D10*
G04 #@! TO.P,REF\002A\002A,1*
G04 #@! TO.N,N/C*
X194894200Y-109296200D03*
G04 #@! TD*
D18*
G04 #@! TO.P,REF\002A\002A,1*
G04 #@! TO.N,N/C*
X115011200Y-81635600D03*
G04 #@! TD*
G04 #@! TO.P,REF\002A\002A,1*
G04 #@! TO.N,N/C*
X134061200Y-81635600D03*
G04 #@! TD*
G04 #@! TO.P,REF\002A\002A,1*
G04 #@! TO.N,N/C*
X115011200Y-107035600D03*
G04 #@! TD*
D19*
G04 #@! TO.P,SW2,1*
G04 #@! TO.N,GND*
X195453000Y-96850200D03*
G04 #@! TO.P,SW2,2*
G04 #@! TO.N,RST*
X195453000Y-101930200D03*
G04 #@! TO.P,SW2,1*
G04 #@! TO.N,GND*
X187833000Y-96850200D03*
G04 #@! TO.P,SW2,2*
G04 #@! TO.N,RST*
X187833000Y-101930200D03*
G04 #@! TD*
D10*
G04 #@! TO.P,REF\002A\002A,1*
G04 #@! TO.N,N/C*
X148082000Y-109194600D03*
G04 #@! TD*
G04 #@! TO.P,REF\002A\002A,1*
G04 #@! TO.N,N/C*
X107696000Y-49301400D03*
G04 #@! TD*
G04 #@! TO.P,REF\002A\002A,1*
G04 #@! TO.N,N/C*
X194919600Y-49301400D03*
G04 #@! TD*
D12*
G04 #@! TO.P,CON1,1*
G04 #@! TO.N,joystick-pot-2*
X111582200Y-87223600D03*
D13*
G04 #@! TO.P,CON1,2*
G04 #@! TO.N,joystick-pot-1*
X109042200Y-87223600D03*
G04 #@! TO.P,CON1,3*
G04 #@! TO.N,knob-pot-4*
X111582200Y-89763600D03*
G04 #@! TO.P,CON1,4*
G04 #@! TO.N,knob-pot-3*
X109042200Y-89763600D03*
G04 #@! TO.P,CON1,5*
G04 #@! TO.N,knob-pot-2*
X111582200Y-92303600D03*
G04 #@! TO.P,CON1,6*
G04 #@! TO.N,knob-pot-1*
X109042200Y-92303600D03*
G04 #@! TO.P,CON1,7*
G04 #@! TO.N,slide-pot-2*
X111582200Y-94843600D03*
G04 #@! TO.P,CON1,8*
G04 #@! TO.N,slide-pot-1*
X109042200Y-94843600D03*
G04 #@! TO.P,CON1,9*
G04 #@! TO.N,button-3*
X111582200Y-97383600D03*
G04 #@! TO.P,CON1,10*
G04 #@! TO.N,button-4*
X109042200Y-97383600D03*
G04 #@! TO.P,CON1,11*
G04 #@! TO.N,button-1*
X111582200Y-99923600D03*
G04 #@! TO.P,CON1,12*
G04 #@! TO.N,button-2*
X109042200Y-99923600D03*
G04 #@! TO.P,CON1,13*
G04 #@! TO.N,+5V*
X111582200Y-102463600D03*
G04 #@! TO.P,CON1,14*
G04 #@! TO.N,GND*
X109042200Y-102463600D03*
G04 #@! TD*
D20*
G04 #@! TO.P,J1,4*
G04 #@! TO.N,Net-(J1-Pad4)*
X140919200Y-88493600D03*
D21*
G04 #@! TO.P,J1,1*
G04 #@! TO.N,+5V*
X140919200Y-80873600D03*
D20*
G04 #@! TO.P,J1,2*
G04 #@! TO.N,GND*
X140919200Y-83413600D03*
G04 #@! TO.P,J1,3*
G04 #@! TO.N,Net-(J1-Pad3)*
X140919200Y-85953600D03*
G04 #@! TO.P,J1,5*
G04 #@! TO.N,Net-(J1-Pad5)*
X140919200Y-91033600D03*
G04 #@! TO.P,J1,6*
G04 #@! TO.N,Net-(J1-Pad6)*
X140919200Y-93573600D03*
G04 #@! TO.P,J1,7*
G04 #@! TO.N,Net-(J1-Pad7)*
X140919200Y-96113600D03*
G04 #@! TO.P,J1,8*
G04 #@! TO.N,Net-(J1-Pad8)*
X140919200Y-98653600D03*
G04 #@! TO.P,J1,9*
G04 #@! TO.N,button-3*
X140919200Y-101193600D03*
G04 #@! TO.P,J1,10*
G04 #@! TO.N,button-4*
X140919200Y-103733600D03*
G04 #@! TO.P,J1,11*
G04 #@! TO.N,button-1*
X140919200Y-106273600D03*
G04 #@! TO.P,J1,12*
G04 #@! TO.N,button-2*
X140919200Y-108813600D03*
G04 #@! TD*
D14*
G04 #@! TO.P,J7,1*
G04 #@! TO.N,+5V*
X136271000Y-70485000D03*
D15*
G04 #@! TO.P,J7,2*
G04 #@! TO.N,GND*
X133731000Y-70485000D03*
G04 #@! TO.P,J7,3*
G04 #@! TO.N,Net-(J6-Pad3)*
X131191000Y-70485000D03*
G04 #@! TO.P,J7,4*
G04 #@! TO.N,Net-(J6-Pad2)*
X128651000Y-70485000D03*
G04 #@! TD*
D22*
G04 #@! TO.P,Y1,1*
G04 #@! TO.N,Net-(C1-Pad1)*
X150495000Y-94665800D03*
G04 #@! TO.P,Y1,2*
G04 #@! TO.N,Net-(C2-Pad1)*
X155395000Y-94665800D03*
G04 #@! TD*
D14*
G04 #@! TO.P,J8,1*
G04 #@! TO.N,midi-raw-signal-power*
X121285000Y-70535800D03*
D15*
G04 #@! TO.P,J8,2*
G04 #@! TO.N,GND*
X118745000Y-70535800D03*
G04 #@! TO.P,J8,3*
G04 #@! TO.N,midi-raw-signal-data*
X116205000Y-70535800D03*
G04 #@! TD*
D14*
G04 #@! TO.P,J9,1*
G04 #@! TO.N,VCC*
X143865600Y-67818000D03*
D15*
G04 #@! TO.P,J9,2*
G04 #@! TO.N,+5V*
X143865600Y-70358000D03*
G04 #@! TD*
D23*
G04 #@! TO.P,D1,1*
G04 #@! TO.N,GND*
X123342400Y-50266600D03*
D24*
G04 #@! TO.P,D1,2*
G04 #@! TO.N,Net-(D1-Pad2)*
X120802400Y-50266600D03*
G04 #@! TD*
D23*
G04 #@! TO.P,D2,1*
G04 #@! TO.N,GND*
X115722400Y-50266600D03*
D24*
G04 #@! TO.P,D2,2*
G04 #@! TO.N,Net-(D2-Pad2)*
X113182400Y-50266600D03*
G04 #@! TD*
D25*
G04 #@! TO.P,J6,2*
G04 #@! TO.N,Net-(J6-Pad2)*
X140512800Y-60782200D03*
G04 #@! TO.P,J6,1*
G04 #@! TO.N,VCC*
X137972800Y-60782200D03*
G04 #@! TO.P,J6,4*
G04 #@! TO.N,GND*
X137972800Y-58782200D03*
G04 #@! TO.P,J6,3*
G04 #@! TO.N,Net-(J6-Pad3)*
X140512800Y-58782200D03*
D26*
G04 #@! TO.P,J6,5*
G04 #@! TO.N,GND*
X145242800Y-56082200D03*
X133242800Y-56082200D03*
G04 #@! TD*
D27*
G04 #@! TO.P,J3,8*
G04 #@! TO.N,Net-(J3-Pad8)*
X158902400Y-63703200D03*
G04 #@! TO.P,J3,3*
G04 #@! TO.N,Net-(J3-Pad3)*
X163982400Y-58623200D03*
G04 #@! TO.P,J3,2*
G04 #@! TO.N,GND*
X158902400Y-58623200D03*
G04 #@! TO.P,J3,5*
G04 #@! TO.N,midi-raw-signal-power*
X161442400Y-61163200D03*
D28*
G04 #@! TO.P,J3,*
G04 #@! TO.N,*
X156362400Y-48463200D03*
D27*
G04 #@! TO.P,J3,7*
G04 #@! TO.N,Net-(J3-Pad7)*
X166522400Y-61163200D03*
G04 #@! TO.P,J3,1*
G04 #@! TO.N,Net-(J3-Pad1)*
X153822400Y-58623200D03*
G04 #@! TO.P,J3,4*
G04 #@! TO.N,midi-raw-signal-data*
X156362400Y-61163200D03*
G04 #@! TO.P,J3,6*
G04 #@! TO.N,Net-(J3-Pad6)*
X151282400Y-61163200D03*
D28*
G04 #@! TO.P,J3,*
G04 #@! TO.N,*
X161442400Y-48463200D03*
G04 #@! TD*
D12*
G04 #@! TO.P,CON2,1*
G04 #@! TO.N,MOSI*
X175742600Y-59105800D03*
D13*
G04 #@! TO.P,CON2,2*
G04 #@! TO.N,+5V*
X175742600Y-56565800D03*
G04 #@! TO.P,CON2,3*
G04 #@! TO.N,Net-(CON2-Pad3)*
X178282600Y-59105800D03*
G04 #@! TO.P,CON2,4*
G04 #@! TO.N,GND*
X178282600Y-56565800D03*
G04 #@! TO.P,CON2,5*
G04 #@! TO.N,RST*
X180822600Y-59105800D03*
G04 #@! TO.P,CON2,6*
G04 #@! TO.N,GND*
X180822600Y-56565800D03*
G04 #@! TO.P,CON2,7*
G04 #@! TO.N,SCK*
X183362600Y-59105800D03*
G04 #@! TO.P,CON2,8*
G04 #@! TO.N,GND*
X183362600Y-56565800D03*
G04 #@! TO.P,CON2,9*
G04 #@! TO.N,MISO*
X185902600Y-59105800D03*
G04 #@! TO.P,CON2,10*
G04 #@! TO.N,GND*
X185902600Y-56565800D03*
G04 #@! TD*
D12*
G04 #@! TO.P,CON3,1*
G04 #@! TO.N,joystick-pot-2*
X192151000Y-87249000D03*
D13*
G04 #@! TO.P,CON3,2*
G04 #@! TO.N,joystick-pot-1*
X189611000Y-87249000D03*
G04 #@! TO.P,CON3,3*
G04 #@! TO.N,knob-pot-4*
X192151000Y-84709000D03*
G04 #@! TO.P,CON3,4*
G04 #@! TO.N,knob-pot-3*
X189611000Y-84709000D03*
G04 #@! TO.P,CON3,5*
G04 #@! TO.N,knob-pot-2*
X192151000Y-82169000D03*
G04 #@! TO.P,CON3,6*
G04 #@! TO.N,knob-pot-1*
X189611000Y-82169000D03*
G04 #@! TO.P,CON3,7*
G04 #@! TO.N,slide-pot-2*
X192151000Y-79629000D03*
G04 #@! TO.P,CON3,8*
G04 #@! TO.N,slide-pot-1*
X189611000Y-79629000D03*
G04 #@! TO.P,CON3,9*
G04 #@! TO.N,button-3*
X192151000Y-77089000D03*
G04 #@! TO.P,CON3,10*
G04 #@! TO.N,button-4*
X189611000Y-77089000D03*
G04 #@! TO.P,CON3,11*
G04 #@! TO.N,button-1*
X192151000Y-74549000D03*
G04 #@! TO.P,CON3,12*
G04 #@! TO.N,button-2*
X189611000Y-74549000D03*
G04 #@! TO.P,CON3,13*
G04 #@! TO.N,+5V*
X192151000Y-72009000D03*
G04 #@! TO.P,CON3,14*
G04 #@! TO.N,GND*
X189611000Y-72009000D03*
G04 #@! TD*
D29*
G04 #@! TO.P,U1,1*
G04 #@! TO.N,MOSI*
X171267000Y-72369000D03*
G04 #@! TO.P,U1,2*
G04 #@! TO.N,MISO*
X170467000Y-72369000D03*
G04 #@! TO.P,U1,3*
G04 #@! TO.N,SCK*
X169667000Y-72369000D03*
G04 #@! TO.P,U1,4*
G04 #@! TO.N,RST*
X168867000Y-72369000D03*
G04 #@! TO.P,U1,5*
G04 #@! TO.N,+5V*
X168067000Y-72369000D03*
G04 #@! TO.P,U1,6*
G04 #@! TO.N,GND*
X167267000Y-72369000D03*
G04 #@! TO.P,U1,7*
G04 #@! TO.N,Net-(C1-Pad1)*
X166467000Y-72369000D03*
G04 #@! TO.P,U1,8*
G04 #@! TO.N,Net-(C2-Pad1)*
X165667000Y-72369000D03*
G04 #@! TO.P,U1,9*
G04 #@! TO.N,note-1*
X164867000Y-72369000D03*
G04 #@! TO.P,U1,10*
G04 #@! TO.N,midi-data-pin*
X164067000Y-72369000D03*
G04 #@! TO.P,U1,11*
G04 #@! TO.N,note-2*
X163267000Y-72369000D03*
D30*
G04 #@! TO.P,U1,12*
G04 #@! TO.N,note-3*
X161417000Y-74219000D03*
G04 #@! TO.P,U1,13*
G04 #@! TO.N,note-4*
X161417000Y-75019000D03*
G04 #@! TO.P,U1,14*
G04 #@! TO.N,note-5*
X161417000Y-75819000D03*
G04 #@! TO.P,U1,15*
G04 #@! TO.N,note-6*
X161417000Y-76619000D03*
G04 #@! TO.P,U1,16*
G04 #@! TO.N,note-7*
X161417000Y-77419000D03*
G04 #@! TO.P,U1,17*
G04 #@! TO.N,+5V*
X161417000Y-78219000D03*
G04 #@! TO.P,U1,18*
G04 #@! TO.N,GND*
X161417000Y-79019000D03*
G04 #@! TO.P,U1,19*
G04 #@! TO.N,SCL*
X161417000Y-79819000D03*
G04 #@! TO.P,U1,20*
G04 #@! TO.N,SDA*
X161417000Y-80619000D03*
G04 #@! TO.P,U1,21*
G04 #@! TO.N,note-8*
X161417000Y-81419000D03*
G04 #@! TO.P,U1,22*
G04 #@! TO.N,note-9*
X161417000Y-82219000D03*
D29*
G04 #@! TO.P,U1,23*
G04 #@! TO.N,note-10*
X163267000Y-84069000D03*
G04 #@! TO.P,U1,24*
G04 #@! TO.N,note-11*
X164067000Y-84069000D03*
G04 #@! TO.P,U1,25*
G04 #@! TO.N,note-12*
X164867000Y-84069000D03*
G04 #@! TO.P,U1,26*
G04 #@! TO.N,note-13*
X165667000Y-84069000D03*
G04 #@! TO.P,U1,27*
G04 #@! TO.N,Net-(C7-Pad1)*
X166467000Y-84069000D03*
G04 #@! TO.P,U1,28*
G04 #@! TO.N,GND*
X167267000Y-84069000D03*
G04 #@! TO.P,U1,29*
G04 #@! TO.N,Net-(C3-Pad1)*
X168067000Y-84069000D03*
G04 #@! TO.P,U1,30*
G04 #@! TO.N,joystick-pot-2*
X168867000Y-84069000D03*
G04 #@! TO.P,U1,31*
G04 #@! TO.N,joystick-pot-1*
X169667000Y-84069000D03*
G04 #@! TO.P,U1,32*
G04 #@! TO.N,knob-pot-4*
X170467000Y-84069000D03*
G04 #@! TO.P,U1,33*
G04 #@! TO.N,knob-pot-3*
X171267000Y-84069000D03*
D30*
G04 #@! TO.P,U1,34*
G04 #@! TO.N,knob-pot-2*
X173117000Y-82219000D03*
G04 #@! TO.P,U1,35*
G04 #@! TO.N,knob-pot-1*
X173117000Y-81419000D03*
G04 #@! TO.P,U1,36*
G04 #@! TO.N,slide-pot-2*
X173117000Y-80619000D03*
G04 #@! TO.P,U1,37*
G04 #@! TO.N,slide-pot-1*
X173117000Y-79819000D03*
G04 #@! TO.P,U1,38*
G04 #@! TO.N,+5V*
X173117000Y-79019000D03*
G04 #@! TO.P,U1,39*
G04 #@! TO.N,GND*
X173117000Y-78219000D03*
G04 #@! TO.P,U1,40*
G04 #@! TO.N,button-1*
X173117000Y-77419000D03*
G04 #@! TO.P,U1,41*
G04 #@! TO.N,button-2*
X173117000Y-76619000D03*
G04 #@! TO.P,U1,42*
G04 #@! TO.N,button-3*
X173117000Y-75819000D03*
G04 #@! TO.P,U1,43*
G04 #@! TO.N,button-4*
X173117000Y-75019000D03*
G04 #@! TO.P,U1,44*
G04 #@! TO.N,octave-1*
X173117000Y-74219000D03*
G04 #@! TD*
D18*
G04 #@! TO.P,REF\002A\002A,1*
G04 #@! TO.N,N/C*
X134061200Y-107035600D03*
G04 #@! TD*
D31*
G04 #@! TO.N,GND*
X164973000Y-80137000D03*
X170561000Y-77216000D03*
X128930400Y-101193600D03*
X167652618Y-75196035D03*
G04 #@! TO.N,Net-(C3-Pad1)*
X169976800Y-81762600D03*
G04 #@! TO.N,+5V*
X166116000Y-78232000D03*
X170561000Y-80010000D03*
X169291000Y-75184000D03*
G04 #@! TO.N,Net-(C7-Pad1)*
X166497000Y-87731600D03*
G04 #@! TO.N,MOSI*
X175539400Y-70053200D03*
G04 #@! TO.N,SCK*
X171196000Y-75184000D03*
G04 #@! TO.N,MISO*
X174371000Y-71247000D03*
G04 #@! TO.N,SDA*
X166243000Y-82169000D03*
G04 #@! TO.N,SCL*
X166801800Y-80797400D03*
G04 #@! TO.N,octave-1*
X175920400Y-72567800D03*
G04 #@! TO.N,midi-data-pin*
X164846000Y-75311000D03*
G04 #@! TO.N,button-1*
X107111800Y-109397800D03*
G04 #@! TD*
D32*
G04 #@! TO.N,Net-(C1-Pad1)*
X166467000Y-70480400D02*
X166467000Y-72369000D01*
X166446200Y-70459600D02*
X166467000Y-70480400D01*
D33*
X151244999Y-93915801D02*
X150495000Y-94665800D01*
X151244999Y-72783001D02*
X151244999Y-93915801D01*
X154990800Y-69037200D02*
X151244999Y-72783001D01*
X166446200Y-70459600D02*
X165023800Y-69037200D01*
X165023800Y-69037200D02*
X154990800Y-69037200D01*
G04 #@! TO.N,GND*
X194465172Y-96850200D02*
X187833000Y-96850200D01*
X195453000Y-96850200D02*
X194465172Y-96850200D01*
X161417000Y-79019000D02*
X163855000Y-79019000D01*
X163855000Y-79019000D02*
X164973000Y-80137000D01*
X173117000Y-78219000D02*
X171564000Y-78219000D01*
X171564000Y-78219000D02*
X170561000Y-77216000D01*
X133248400Y-96875600D02*
X134696200Y-96875600D01*
X128930400Y-101193600D02*
X133248400Y-96875600D01*
X138491010Y-84428298D02*
X138491010Y-100015788D01*
X131003788Y-107503010D02*
X118933010Y-107503010D01*
X140919200Y-83413600D02*
X139505708Y-83413600D01*
X138491010Y-100015788D02*
X131003788Y-107503010D01*
X139505708Y-83413600D02*
X138491010Y-84428298D01*
X118933010Y-107503010D02*
X116052600Y-104622600D01*
X111201200Y-104622600D02*
X109042200Y-102463600D01*
X116052600Y-104622600D02*
X111201200Y-104622600D01*
D34*
X120738965Y-104495600D02*
X118986365Y-102743000D01*
X121996200Y-104495600D02*
X120738965Y-104495600D01*
X118986365Y-102743000D02*
X113731730Y-102743000D01*
D32*
X167267000Y-84069000D02*
X167267000Y-85149748D01*
D34*
X110305801Y-101199999D02*
X109042200Y-102463600D01*
X112188729Y-101199999D02*
X110305801Y-101199999D01*
X112188729Y-101199999D02*
X113731730Y-102743000D01*
D32*
X167267000Y-74810417D02*
X167267000Y-72369000D01*
X167652618Y-75196035D02*
X167267000Y-74810417D01*
X158902400Y-61065202D02*
X158902400Y-60249545D01*
X167267000Y-72369000D02*
X167267000Y-69429802D01*
D35*
X167267000Y-82969000D02*
X167665400Y-82570600D01*
X167267000Y-84069000D02*
X167267000Y-82969000D01*
D32*
X167267000Y-73549002D02*
X167147001Y-73669001D01*
X167267000Y-72369000D02*
X167267000Y-73549002D01*
X167267000Y-82869000D02*
X168478200Y-81657800D01*
X167267000Y-84069000D02*
X167267000Y-82869000D01*
X168478200Y-81657800D02*
X168478200Y-81000600D01*
X167147001Y-73669001D02*
X166827200Y-73669001D01*
D36*
X135272800Y-56082200D02*
X133242800Y-56082200D01*
X137972800Y-58782200D02*
X135272800Y-56082200D01*
X116772400Y-50266600D02*
X115722400Y-50266600D01*
X118745000Y-52239200D02*
X116772400Y-50266600D01*
X118745000Y-70535800D02*
X118745000Y-52239200D01*
X158902400Y-60249545D02*
X158902400Y-58623200D01*
D32*
X167267000Y-69429802D02*
X161667398Y-63830200D01*
X161667398Y-63830200D02*
X158902400Y-61065202D01*
D36*
X170561000Y-77216000D02*
X168569999Y-79207001D01*
X168569999Y-79207001D02*
X168478200Y-79207001D01*
X165821528Y-80137000D02*
X166177128Y-79781400D01*
X164973000Y-80137000D02*
X165821528Y-80137000D01*
X168478200Y-81000600D02*
X168478200Y-79832200D01*
X166177128Y-79781400D02*
X166268400Y-79781400D01*
X166471600Y-79578200D02*
X168478200Y-79578200D01*
X168478200Y-79832200D02*
X168478200Y-79578200D01*
X166268400Y-79781400D02*
X166471600Y-79578200D01*
X168478200Y-79578200D02*
X168478200Y-79207001D01*
D32*
G04 #@! TO.N,Net-(C2-Pad1)*
X165667000Y-70823400D02*
X165667000Y-72369000D01*
X165328600Y-70485000D02*
X165667000Y-70823400D01*
D33*
X152247600Y-72911784D02*
X152247600Y-91518400D01*
X155322174Y-69837210D02*
X152247600Y-72911784D01*
X152247600Y-91518400D02*
X155395000Y-94665800D01*
X165328600Y-70485000D02*
X164680810Y-69837210D01*
X164680810Y-69837210D02*
X155322174Y-69837210D01*
D34*
G04 #@! TO.N,Net-(C3-Pad1)*
X169373400Y-81762600D02*
X169976800Y-81762600D01*
X168067000Y-84069000D02*
X168067000Y-83069000D01*
X168067000Y-83069000D02*
X169373400Y-81762600D01*
D33*
G04 #@! TO.N,+5V*
X163843000Y-78219000D02*
X166103000Y-78219000D01*
X166103000Y-78219000D02*
X166116000Y-78232000D01*
X161417000Y-78219000D02*
X163843000Y-78219000D01*
X173117000Y-79019000D02*
X171552000Y-79019000D01*
X171552000Y-79019000D02*
X170561000Y-80010000D01*
X168067000Y-72369000D02*
X168067000Y-73960000D01*
X168067000Y-73960000D02*
X169291000Y-75184000D01*
D37*
X139119710Y-80873600D02*
X140919200Y-80873600D01*
X135585199Y-84408111D02*
X139119710Y-80873600D01*
X135585199Y-90906601D02*
X135585199Y-84408111D01*
X134696200Y-91795600D02*
X135585199Y-90906601D01*
X127076200Y-104495600D02*
X132384800Y-104495600D01*
X132384800Y-104495600D02*
X137541000Y-99339400D01*
X137541000Y-94640400D02*
X134696200Y-91795600D01*
X137541000Y-99339400D02*
X137541000Y-94640400D01*
D33*
X112445799Y-103327199D02*
X111582200Y-102463600D01*
X112511610Y-103393010D02*
X112445799Y-103327199D01*
X115954394Y-103393010D02*
X112511610Y-103393010D01*
X125298200Y-106273600D02*
X118834984Y-106273600D01*
X118834984Y-106273600D02*
X115954394Y-103393010D01*
X127076200Y-104495600D02*
X125298200Y-106273600D01*
D32*
G04 #@! TO.N,Net-(C7-Pad1)*
X166467000Y-84069000D02*
X166467000Y-85390200D01*
X166467000Y-87701600D02*
X166467000Y-84069000D01*
X166497000Y-87731600D02*
X166467000Y-87701600D01*
G04 #@! TO.N,knob-pot-4*
X190881000Y-85979000D02*
X192151000Y-84709000D01*
X170467000Y-84069000D02*
X170467000Y-85097600D01*
D33*
X188785500Y-85979000D02*
X185814784Y-85979000D01*
X182550974Y-89242810D02*
X173850210Y-89242810D01*
X185814784Y-85979000D02*
X182550974Y-89242810D01*
X170467000Y-85859600D02*
X170467000Y-85097600D01*
X173850210Y-89242810D02*
X170467000Y-85859600D01*
D34*
X190211130Y-85979000D02*
X190881000Y-85979000D01*
X188785500Y-85979000D02*
X190211130Y-85979000D01*
D32*
G04 #@! TO.N,slide-pot-1*
X174317000Y-79819000D02*
X174330200Y-79832200D01*
X173117000Y-79819000D02*
X174317000Y-79819000D01*
D33*
X176946430Y-81454278D02*
X175231153Y-79739001D01*
X176946430Y-83509278D02*
X176946430Y-81454278D01*
X183628216Y-82448400D02*
X183616600Y-82448400D01*
X174396999Y-79739001D02*
X174317000Y-79819000D01*
X178603352Y-85166200D02*
X176946430Y-83509278D01*
X189611000Y-79629000D02*
X188389686Y-79629000D01*
X186563000Y-81457800D02*
X184618816Y-81457800D01*
X180898800Y-85166200D02*
X178603352Y-85166200D01*
X188389686Y-79629000D02*
X186941886Y-81076800D01*
X186941886Y-81078914D02*
X186563000Y-81457800D01*
X186941886Y-81076800D02*
X186941886Y-81078914D01*
X175231153Y-79739001D02*
X174396999Y-79739001D01*
X183616600Y-82448400D02*
X180898800Y-85166200D01*
X184618816Y-81457800D02*
X183628216Y-82448400D01*
D32*
G04 #@! TO.N,knob-pot-3*
X171267000Y-84069000D02*
X171267000Y-85135600D01*
D33*
X171267000Y-85135600D02*
X171267000Y-85516600D01*
X171267000Y-85516600D02*
X174193200Y-88442800D01*
X174193200Y-88442800D02*
X182219600Y-88442800D01*
X185953400Y-84709000D02*
X189611000Y-84709000D01*
X182219600Y-88442800D02*
X185953400Y-84709000D01*
D32*
G04 #@! TO.N,slide-pot-2*
X191287401Y-80492599D02*
X192151000Y-79629000D01*
X190887399Y-80892601D02*
X191287401Y-80492599D01*
X188722000Y-80962500D02*
X188791899Y-80892601D01*
D33*
X187794900Y-81889600D02*
X188791899Y-80892601D01*
X187794900Y-81889600D02*
X187782200Y-81889600D01*
X187388410Y-82283390D02*
X185966190Y-82283390D01*
X187782200Y-81889600D02*
X187388410Y-82283390D01*
X185966190Y-82283390D02*
X185953400Y-82270600D01*
X185953400Y-82270600D02*
X184937400Y-82270600D01*
X184937400Y-82270600D02*
X181229000Y-85979000D01*
X181229000Y-85979000D02*
X178284768Y-85979000D01*
X176146420Y-81785652D02*
X176146418Y-81785650D01*
X178284768Y-85979000D02*
X176146420Y-83840652D01*
X176146420Y-83840652D02*
X176146420Y-81785652D01*
X176146418Y-81785650D02*
X174954968Y-80594200D01*
X174954968Y-80594200D02*
X174574200Y-80594200D01*
D32*
X174341800Y-80594200D02*
X174574200Y-80594200D01*
X174317000Y-80619000D02*
X174341800Y-80594200D01*
X173117000Y-80619000D02*
X174317000Y-80619000D01*
D34*
X189109399Y-80892601D02*
X190887399Y-80892601D01*
X189039500Y-80962500D02*
X189109399Y-80892601D01*
X188722000Y-80962500D02*
X189039500Y-80962500D01*
D32*
G04 #@! TO.N,knob-pot-2*
X191287401Y-83032599D02*
X192151000Y-82169000D01*
X190887399Y-83432601D02*
X191287401Y-83032599D01*
X174317000Y-82219000D02*
X174546400Y-82448400D01*
X173117000Y-82219000D02*
X174317000Y-82219000D01*
D33*
X174546400Y-82448400D02*
X174546400Y-84503400D01*
X174546400Y-84503400D02*
X177647600Y-87604600D01*
X177647600Y-87604600D02*
X181914800Y-87604600D01*
X181914800Y-87604600D02*
X185623200Y-83896200D01*
X185623200Y-83896200D02*
X188137800Y-83896200D01*
X188601399Y-83432601D02*
X188918899Y-83432601D01*
X188137800Y-83896200D02*
X188601399Y-83432601D01*
D34*
X188918899Y-83432601D02*
X190887399Y-83432601D01*
D32*
G04 #@! TO.N,joystick-pot-1*
X169667000Y-84069000D02*
X169667000Y-85135800D01*
D33*
X188666050Y-87193050D02*
X188722000Y-87249000D01*
X169667000Y-86228000D02*
X173481820Y-90042820D01*
X173481820Y-90042820D02*
X182882348Y-90042820D01*
X182882348Y-90042820D02*
X185726968Y-87198200D01*
X169667000Y-85135800D02*
X169667000Y-86228000D01*
X188660900Y-87198200D02*
X188666050Y-87193050D01*
X185726968Y-87198200D02*
X188660900Y-87198200D01*
X188722000Y-87249000D02*
X189611000Y-87249000D01*
X109905799Y-86182799D02*
X111176398Y-84912200D01*
X109042200Y-87223600D02*
X109905799Y-86360001D01*
X109905799Y-86360001D02*
X109905799Y-86182799D01*
X117428078Y-84912200D02*
X118825078Y-86309200D01*
X111176398Y-84912200D02*
X117428078Y-84912200D01*
X118825078Y-86309200D02*
X118825078Y-91971494D01*
X121189184Y-94335600D02*
X134696200Y-94335600D01*
X118825078Y-91971494D02*
X121189184Y-94335600D01*
D32*
G04 #@! TO.N,knob-pot-1*
X174317000Y-81419000D02*
X174330400Y-81432400D01*
X173117000Y-81419000D02*
X174317000Y-81419000D01*
D33*
X188646884Y-82169000D02*
X189611000Y-82169000D01*
X185267600Y-83083400D02*
X187732484Y-83083400D01*
X187732484Y-83083400D02*
X188646884Y-82169000D01*
X174317000Y-81419000D02*
X174648384Y-81419000D01*
X174648384Y-81419000D02*
X175346410Y-82117026D01*
X175346410Y-84172026D02*
X177966184Y-86791800D01*
X175346410Y-82117026D02*
X175346410Y-84172026D01*
X177966184Y-86791800D02*
X181559200Y-86791800D01*
X181559200Y-86791800D02*
X185267600Y-83083400D01*
G04 #@! TO.N,joystick-pot-2*
X191863600Y-88900000D02*
X192151000Y-88612600D01*
X192151000Y-88612600D02*
X192151000Y-87249000D01*
X185156552Y-88900000D02*
X183213722Y-90842830D01*
X191863600Y-88900000D02*
X185156552Y-88900000D01*
X183213722Y-90842830D02*
X173113430Y-90842830D01*
X173113430Y-90842830D02*
X168859200Y-86588600D01*
X168859200Y-86588600D02*
X168859200Y-85293200D01*
D32*
X168859200Y-84988400D02*
X168867000Y-84980600D01*
X168867000Y-84980600D02*
X168867000Y-84069000D01*
X168859200Y-85293200D02*
X168859200Y-84988400D01*
D33*
X112945800Y-87223600D02*
X111582200Y-87223600D01*
X123647201Y-97925001D02*
X112945800Y-87223600D01*
X123647201Y-103606601D02*
X123647201Y-97925001D01*
X124536200Y-104495600D02*
X123647201Y-103606601D01*
G04 #@! TO.N,MOSI*
X171267000Y-72369000D02*
X171267000Y-68729113D01*
D35*
X177057801Y-57892199D02*
X176657000Y-58293000D01*
X176555400Y-58293000D02*
X175742600Y-59105800D01*
D32*
X171267000Y-68214542D02*
X171267000Y-68729113D01*
X187254399Y-57892199D02*
X187934600Y-58572400D01*
X186485129Y-57892199D02*
X187254399Y-57892199D01*
X187934600Y-58572400D02*
X187934600Y-60426600D01*
X185500370Y-62860830D02*
X175553912Y-62860830D01*
X187934600Y-60426600D02*
X185500370Y-62860830D01*
X171267000Y-71849000D02*
X171267000Y-72369000D01*
X173062800Y-70053200D02*
X171267000Y-71849000D01*
X175539400Y-70053200D02*
X173062800Y-70053200D01*
D35*
X175553912Y-62860830D02*
X172838930Y-62860830D01*
X171267000Y-64432760D02*
X171267000Y-68214542D01*
X172838930Y-62860830D02*
X171267000Y-64432760D01*
D34*
X187204399Y-57842199D02*
X187254399Y-57892199D01*
X177107801Y-57842199D02*
X187204399Y-57842199D01*
X177057801Y-57892199D02*
X177107801Y-57842199D01*
D33*
X177006201Y-57842199D02*
X175742600Y-59105800D01*
X177107801Y-57842199D02*
X177006201Y-57842199D01*
G04 #@! TO.N,RST*
X178917600Y-61010800D02*
X174853600Y-61010800D01*
X179870100Y-60058300D02*
X178917600Y-61010800D01*
D32*
X168847001Y-71641201D02*
X168847001Y-71299385D01*
X168867000Y-71661200D02*
X168847001Y-71641201D01*
X168867000Y-72369000D02*
X168867000Y-71661200D01*
X168867000Y-68064200D02*
X168867000Y-72369000D01*
D35*
X174853600Y-61010800D02*
X172567600Y-61010800D01*
X168867000Y-64711400D02*
X168867000Y-68064200D01*
X172567600Y-61010800D02*
X168867000Y-64711400D01*
D33*
X179870100Y-60058300D02*
X180822600Y-59105800D01*
G04 #@! TO.N,SCK*
X169667000Y-72369000D02*
X169667000Y-71242000D01*
X169667000Y-71242000D02*
X169672000Y-71237000D01*
X169667000Y-73655000D02*
X171196000Y-75184000D01*
X169667000Y-72369000D02*
X169667000Y-73655000D01*
X169667000Y-71242000D02*
X169667000Y-70988000D01*
D32*
X183362600Y-59105800D02*
X183362600Y-60327114D01*
X183362600Y-60327114D02*
X182028904Y-61660810D01*
X182028904Y-61660810D02*
X175052132Y-61660810D01*
X169667000Y-68112742D02*
X169667000Y-71242000D01*
D35*
X175052132Y-61660810D02*
X172624710Y-61660810D01*
X169667000Y-64618520D02*
X169667000Y-68112742D01*
X172624710Y-61660810D02*
X169667000Y-64618520D01*
D33*
G04 #@! TO.N,MISO*
X170467000Y-72369000D02*
X170467000Y-73459002D01*
X186335676Y-59538876D02*
X185902600Y-59105800D01*
D32*
X170467000Y-72369000D02*
X170467000Y-71102200D01*
D33*
X170467000Y-71102200D02*
X170467000Y-70645000D01*
D35*
X173771001Y-71846999D02*
X174371000Y-71247000D01*
X172008800Y-73609200D02*
X173771001Y-71846999D01*
X170617198Y-73609200D02*
X172008800Y-73609200D01*
X170467000Y-73459002D02*
X170617198Y-73609200D01*
D32*
X170467000Y-71169000D02*
X170467000Y-72369000D01*
X170467000Y-68166000D02*
X170467000Y-71169000D01*
X182747580Y-62260820D02*
X175305380Y-62260820D01*
X185902600Y-59105800D02*
X182747580Y-62260820D01*
D35*
X175305380Y-62260820D02*
X172731820Y-62260820D01*
X170467000Y-64525640D02*
X170467000Y-68166000D01*
X172731820Y-62260820D02*
X170467000Y-64525640D01*
D33*
G04 #@! TO.N,SDA*
X161417000Y-80619000D02*
X162911036Y-80619000D01*
X164461036Y-82169000D02*
X166243000Y-82169000D01*
X162911036Y-80619000D02*
X164461036Y-82169000D01*
G04 #@! TO.N,SCL*
X164468999Y-81187001D02*
X165477001Y-81187001D01*
X163100998Y-79819000D02*
X164468999Y-81187001D01*
X161417000Y-79819000D02*
X163100998Y-79819000D01*
D32*
X165953272Y-80797400D02*
X165563671Y-81187001D01*
X165563671Y-81187001D02*
X165477001Y-81187001D01*
X166801800Y-80797400D02*
X165953272Y-80797400D01*
G04 #@! TO.N,note-13*
X165667000Y-84069000D02*
X165667000Y-85530000D01*
D35*
X186512200Y-104521000D02*
X186512200Y-103225600D01*
X186512200Y-103225600D02*
X176352200Y-93065600D01*
X176352200Y-93065600D02*
X169595800Y-93065600D01*
X169595800Y-93065600D02*
X165667000Y-89136800D01*
D34*
X165667000Y-85069000D02*
X165667000Y-84069000D01*
X165667000Y-86164866D02*
X165667000Y-85069000D01*
X165496999Y-86334867D02*
X165667000Y-86164866D01*
X165496999Y-88966799D02*
X165496999Y-86334867D01*
X165667000Y-89136800D02*
X165496999Y-88966799D01*
D35*
X186512200Y-104521000D02*
X186512200Y-106902000D01*
D32*
G04 #@! TO.N,note-12*
X185248599Y-108178399D02*
X185648601Y-108578401D01*
X185648601Y-108578401D02*
X186512200Y-109442000D01*
D33*
X164866990Y-86045624D02*
X164866990Y-85339012D01*
D32*
X164867000Y-84856980D02*
X164867000Y-84069000D01*
X164866990Y-84856990D02*
X164867000Y-84856980D01*
X164866990Y-85339012D02*
X164866990Y-84856990D01*
D35*
X185298599Y-108128399D02*
X185248599Y-108178399D01*
X164866990Y-89185332D02*
X169347268Y-93665610D01*
X164866990Y-86045624D02*
X164866990Y-89185332D01*
X169347268Y-93665610D02*
X176088610Y-93665610D01*
X185115200Y-102692200D02*
X185115200Y-104367962D01*
X176088610Y-93665610D02*
X185115200Y-102692200D01*
D34*
X185248599Y-106308269D02*
X185248599Y-108178399D01*
X185115200Y-106174870D02*
X185248599Y-106308269D01*
X185115200Y-105854500D02*
X185115200Y-106174870D01*
D35*
X185115200Y-104367962D02*
X185115200Y-105854500D01*
D32*
G04 #@! TO.N,note-11*
X164066980Y-85615020D02*
X164066980Y-85199980D01*
X164067000Y-85199960D02*
X164067000Y-84069000D01*
X164066980Y-85199980D02*
X164067000Y-85199960D01*
D35*
X183972200Y-104267000D02*
X183972200Y-102412800D01*
X183972200Y-102412800D02*
X175825020Y-94265620D01*
X175825020Y-94265620D02*
X169094020Y-94265620D01*
X164066980Y-89238580D02*
X164066980Y-85615020D01*
X169094020Y-94265620D02*
X164066980Y-89238580D01*
X183972200Y-104267000D02*
X183972200Y-106902000D01*
G04 #@! TO.N,note-10*
X183972200Y-109442000D02*
X182758599Y-108228399D01*
D34*
X182695801Y-108165601D02*
X182758599Y-108228399D01*
X182695801Y-106214997D02*
X182695801Y-108165601D01*
D35*
X182758599Y-102062799D02*
X182758599Y-106152199D01*
X175561430Y-94865630D02*
X182758599Y-102062799D01*
X168845488Y-94865630D02*
X175561430Y-94865630D01*
X163267000Y-84069000D02*
X163267000Y-89287142D01*
X163267000Y-89287142D02*
X168845488Y-94865630D01*
D33*
G04 #@! TO.N,note-9*
X161417000Y-85979000D02*
X161417000Y-82249001D01*
D35*
X181432200Y-104013000D02*
X181432200Y-101600000D01*
X181432200Y-101600000D02*
X175297840Y-95465640D01*
X175297840Y-95465640D02*
X168592240Y-95465640D01*
X161417000Y-88290400D02*
X161417000Y-85979000D01*
X168592240Y-95465640D02*
X161417000Y-88290400D01*
X181432200Y-104013000D02*
X181432200Y-106902000D01*
D32*
G04 #@! TO.N,note-8*
X180162200Y-108172000D02*
X181432200Y-109442000D01*
D35*
X168328650Y-96065650D02*
X159512000Y-87249000D01*
X175034250Y-96065650D02*
X168328650Y-96065650D01*
X180162200Y-103886000D02*
X180162200Y-101193600D01*
X180162200Y-101193600D02*
X175034250Y-96065650D01*
X160317000Y-81419000D02*
X161417000Y-81419000D01*
X159512000Y-85725000D02*
X159512000Y-82224000D01*
X159512000Y-85725000D02*
X159512000Y-85318600D01*
X159512000Y-82224000D02*
X160317000Y-81419000D01*
X159512000Y-87249000D02*
X159512000Y-85725000D01*
X180162200Y-103886000D02*
X180162200Y-106476800D01*
D34*
X180162200Y-106299000D02*
X180162200Y-106476800D01*
X180162200Y-106476800D02*
X180162200Y-108172000D01*
D35*
G04 #@! TO.N,note-7*
X160317000Y-77419000D02*
X158699200Y-79036800D01*
X158699200Y-87299800D02*
X168065060Y-96665660D01*
X178892200Y-100787200D02*
X178892200Y-103747384D01*
X161417000Y-77419000D02*
X160317000Y-77419000D01*
X158699200Y-79036800D02*
X158699200Y-87299800D01*
X178892200Y-103747384D02*
X178892200Y-106902000D01*
X168065060Y-96665660D02*
X174770660Y-96665660D01*
X174770660Y-96665660D02*
X178892200Y-100787200D01*
D34*
G04 #@! TO.N,note-6*
X178028601Y-108578401D02*
X178892200Y-109442000D01*
D32*
X177622200Y-108172000D02*
X178892200Y-109442000D01*
D34*
X177622200Y-106680000D02*
X177622200Y-108172000D01*
X177622200Y-106045000D02*
X177622200Y-106680000D01*
D35*
X177622200Y-103657400D02*
X177622200Y-106045000D01*
X161417000Y-76619000D02*
X160268458Y-76619000D01*
X157886400Y-79001058D02*
X157886400Y-87350600D01*
X157886400Y-87350600D02*
X167801470Y-97265670D01*
X160268458Y-76619000D02*
X157886400Y-79001058D01*
X174507070Y-97265670D02*
X177622200Y-100380800D01*
X177622200Y-100380800D02*
X177622200Y-103657400D01*
X167801470Y-97265670D02*
X174507070Y-97265670D01*
G04 #@! TO.N,note-5*
X176352200Y-103555800D02*
X176352200Y-106902000D01*
X176352200Y-99974400D02*
X176352200Y-103555800D01*
X174193200Y-97866200D02*
X174244000Y-97866200D01*
X174244000Y-97866200D02*
X176352200Y-99974400D01*
X160219916Y-75819000D02*
X157073600Y-78965316D01*
X161417000Y-75819000D02*
X160219916Y-75819000D01*
X157073600Y-78965316D02*
X157073600Y-87401400D01*
X157073600Y-87401400D02*
X167537880Y-97865680D01*
X167537880Y-97865680D02*
X174192680Y-97865680D01*
X174192680Y-97865680D02*
X174193200Y-97866200D01*
D32*
G04 #@! TO.N,note-4*
X175082200Y-108172000D02*
X176352200Y-109442000D01*
D34*
X175082200Y-106108500D02*
X175082200Y-108172000D01*
D35*
X175082200Y-104394000D02*
X175082200Y-106108500D01*
X175082200Y-99568000D02*
X175082200Y-104394000D01*
X156260800Y-78929574D02*
X156260800Y-87452200D01*
X160171374Y-75019000D02*
X156260800Y-78929574D01*
X156260800Y-87452200D02*
X167274290Y-98465690D01*
X167274290Y-98465690D02*
X173979890Y-98465690D01*
X161417000Y-75019000D02*
X160171374Y-75019000D01*
X173979890Y-98465690D02*
X175082200Y-99568000D01*
G04 #@! TO.N,note-3*
X173812200Y-103301800D02*
X173812200Y-106902000D01*
X173812200Y-100507800D02*
X173812200Y-103301800D01*
X161417000Y-74219000D02*
X160122832Y-74219000D01*
X155448000Y-78893832D02*
X155448000Y-87503000D01*
X155448000Y-87503000D02*
X167010700Y-99065700D01*
X160122832Y-74219000D02*
X155448000Y-78893832D01*
X172370100Y-99065700D02*
X173812200Y-100507800D01*
X167010700Y-99065700D02*
X172370100Y-99065700D01*
D32*
G04 #@! TO.N,note-2*
X173812200Y-109442000D02*
X172535801Y-108165601D01*
D35*
X166508920Y-100265720D02*
X153822400Y-87579200D01*
X169683920Y-100265720D02*
X166508920Y-100265720D01*
D34*
X170700401Y-108165601D02*
X170002200Y-107467400D01*
X172535801Y-108165601D02*
X170700401Y-108165601D01*
X170002200Y-107467400D02*
X170002200Y-105740200D01*
D35*
X170002200Y-100584000D02*
X169697400Y-100279200D01*
X170002200Y-105740200D02*
X170002200Y-100584000D01*
X169995801Y-100577601D02*
X169697400Y-100279200D01*
X169697400Y-100279200D02*
X169683920Y-100265720D01*
X162687000Y-72369000D02*
X163267000Y-72369000D01*
X153822400Y-78822348D02*
X160275748Y-72369000D01*
X153822400Y-85979000D02*
X153822400Y-78822348D01*
X160275748Y-72369000D02*
X162687000Y-72369000D01*
X153822400Y-87579200D02*
X153822400Y-85979000D01*
G04 #@! TO.N,note-1*
X171272200Y-105680686D02*
X171272200Y-106902000D01*
X170506310Y-99665710D02*
X171272200Y-100431600D01*
X154635200Y-87538742D02*
X166762167Y-99665709D01*
X160004291Y-73488999D02*
X154635200Y-78858090D01*
X162577001Y-73488999D02*
X160004291Y-73488999D01*
X163366990Y-75385992D02*
X163366990Y-74278988D01*
X164867000Y-73469000D02*
X165896001Y-74498001D01*
X166762167Y-99665709D02*
X170506310Y-99665710D01*
X164867000Y-72369000D02*
X164867000Y-73469000D01*
X163366990Y-74278988D02*
X162577001Y-73488999D01*
X165896001Y-74498001D02*
X165896001Y-75815001D01*
X165896001Y-75815001D02*
X165350001Y-76361001D01*
X171272200Y-100431600D02*
X171272200Y-105680686D01*
X165350001Y-76361001D02*
X164341999Y-76361001D01*
X154635200Y-78858090D02*
X154635200Y-87538742D01*
X164341999Y-76361001D02*
X163366990Y-75385992D01*
D32*
G04 #@! TO.N,octave-1*
X175336000Y-73152200D02*
X175920400Y-72567800D01*
X174269200Y-74219000D02*
X175920400Y-72567800D01*
X173117000Y-74219000D02*
X174269200Y-74219000D01*
D33*
G04 #@! TO.N,midi-data-pin*
X164067000Y-72369000D02*
X164067000Y-74532000D01*
X164067000Y-74532000D02*
X164846000Y-75311000D01*
D32*
G04 #@! TO.N,button-1*
X190881000Y-75819000D02*
X192151000Y-74549000D01*
X174317000Y-77419000D02*
X174342200Y-77393800D01*
X173117000Y-77419000D02*
X174317000Y-77419000D01*
D33*
X188188510Y-75349010D02*
X188658500Y-75819000D01*
X178871300Y-75349010D02*
X188188510Y-75349010D01*
X174317000Y-77419000D02*
X176801310Y-77419000D01*
X176801310Y-77419000D02*
X178871300Y-75349010D01*
D34*
X110718601Y-99060001D02*
X111582200Y-99923600D01*
X110318599Y-98659999D02*
X110718601Y-99060001D01*
X106222800Y-105105200D02*
X106222800Y-100872870D01*
D32*
X111582200Y-99923600D02*
X110318599Y-98659999D01*
X106222800Y-100838000D02*
X106222800Y-105105200D01*
X106222800Y-105105200D02*
X106222800Y-108508800D01*
D34*
X110318599Y-98659999D02*
X107765801Y-98659999D01*
X106222800Y-100203000D02*
X106222800Y-100838000D01*
X107765801Y-98659999D02*
X106222800Y-100203000D01*
X188658500Y-75819000D02*
X190881000Y-75819000D01*
D33*
X106511801Y-108797801D02*
X106222800Y-108508800D01*
X107111800Y-109397800D02*
X106511801Y-108797801D01*
D32*
G04 #@! TO.N,midi-raw-signal-power*
X121285000Y-70535800D02*
X121285000Y-69285800D01*
X150647400Y-49987200D02*
X156362400Y-55702200D01*
X159105600Y-55702200D02*
X161442400Y-58039000D01*
X156362400Y-55702200D02*
X159105600Y-55702200D01*
X161442400Y-58039000D02*
X161442400Y-61163200D01*
D33*
X121285000Y-61874826D02*
X131953000Y-51206826D01*
X121285000Y-69285800D02*
X121285000Y-61874826D01*
X131953000Y-51206400D02*
X133172200Y-49987200D01*
X131953000Y-51206826D02*
X131953000Y-51206400D01*
D32*
X133172200Y-49987200D02*
X150647400Y-49987200D01*
G04 #@! TO.N,midi-raw-signal-data*
X116205000Y-71737881D02*
X117898519Y-73431400D01*
X116205000Y-70535800D02*
X116205000Y-71737881D01*
X117898519Y-73431400D02*
X123037600Y-73431400D01*
X123037600Y-73431400D02*
X124282200Y-72186800D01*
X156362400Y-56692800D02*
X156362400Y-61163200D01*
X124282200Y-72186800D02*
X124282200Y-67513200D01*
X124282200Y-67513200D02*
X124282200Y-67278562D01*
D33*
X156362400Y-56769000D02*
X156362400Y-61163200D01*
X124282200Y-60009010D02*
X132753008Y-51538202D01*
X132753008Y-51538202D02*
X132764198Y-51538202D01*
X133565190Y-50737210D02*
X150330610Y-50737210D01*
X150330610Y-50737210D02*
X156362400Y-56769000D01*
X124282200Y-67513200D02*
X124282200Y-60009010D01*
X132764198Y-51538202D02*
X133565190Y-50737210D01*
G04 #@! TO.N,button-2*
X178539926Y-74549000D02*
X185393962Y-74549000D01*
X185393962Y-74549000D02*
X189611000Y-74549000D01*
X173117000Y-76619000D02*
X174417000Y-76619000D01*
X174417000Y-76619000D02*
X174440501Y-76595499D01*
X174440501Y-76595499D02*
X176493427Y-76595499D01*
X176493427Y-76595499D02*
X178539926Y-74549000D01*
X107628599Y-103142129D02*
X113528670Y-109042200D01*
X109042200Y-99923600D02*
X107628599Y-101337201D01*
X107628599Y-101337201D02*
X107628599Y-103142129D01*
X113528670Y-109042200D02*
X139700000Y-109042200D01*
X139928600Y-108813600D02*
X140919200Y-108813600D01*
X139700000Y-109042200D02*
X139928600Y-108813600D01*
G04 #@! TO.N,button-3*
X194132519Y-75107481D02*
X192151000Y-77089000D01*
X173117000Y-75819000D02*
X176279964Y-75819000D01*
X192877048Y-70677010D02*
X194132519Y-71932481D01*
X176279964Y-75819000D02*
X181421954Y-70677010D01*
X194132519Y-71932481D02*
X194132519Y-75107481D01*
X181421954Y-70677010D02*
X192877048Y-70677010D01*
D32*
G04 #@! TO.N,button-4*
X189611000Y-77089000D02*
X190881000Y-78359000D01*
X173117000Y-75019000D02*
X174434400Y-75019000D01*
D33*
X174434400Y-75019000D02*
X175907600Y-75019000D01*
X175907600Y-75019000D02*
X181051200Y-69875400D01*
X192973130Y-78359000D02*
X192786000Y-78359000D01*
X194932529Y-76399601D02*
X192973130Y-78359000D01*
X194932529Y-71601107D02*
X194932529Y-76399601D01*
X193206822Y-69875400D02*
X194932529Y-71601107D01*
X181051200Y-69875400D02*
X193206822Y-69875400D01*
D34*
X192608200Y-78359000D02*
X190881000Y-78359000D01*
X192973130Y-78359000D02*
X192608200Y-78359000D01*
G04 #@! TD*
D38*
G04 #@! TO.N,GND*
G36*
X154976314Y-47537047D02*
X154727400Y-48137978D01*
X154727400Y-48788422D01*
X154976314Y-49389353D01*
X155436247Y-49849286D01*
X156037178Y-50098200D01*
X156687622Y-50098200D01*
X157288553Y-49849286D01*
X157748486Y-49389353D01*
X157997400Y-48788422D01*
X157997400Y-48137978D01*
X157748486Y-47537047D01*
X157530361Y-47318922D01*
X160274439Y-47318922D01*
X160056314Y-47537047D01*
X159807400Y-48137978D01*
X159807400Y-48788422D01*
X160056314Y-49389353D01*
X160516247Y-49849286D01*
X161117178Y-50098200D01*
X161767622Y-50098200D01*
X162368553Y-49849286D01*
X162828486Y-49389353D01*
X163077400Y-48788422D01*
X163077400Y-48137978D01*
X162828486Y-47537047D01*
X162610361Y-47318922D01*
X192904096Y-47318922D01*
X192522985Y-47700033D01*
X192092600Y-48739075D01*
X192092600Y-49863725D01*
X192522985Y-50902767D01*
X193318233Y-51698015D01*
X194357275Y-52128400D01*
X195481925Y-52128400D01*
X196520967Y-51698015D01*
X196902001Y-51316981D01*
X196902000Y-107306018D01*
X196495567Y-106899585D01*
X195456525Y-106469200D01*
X194331875Y-106469200D01*
X193292833Y-106899585D01*
X192497585Y-107694833D01*
X192067200Y-108733875D01*
X192067200Y-109858525D01*
X192497585Y-110897567D01*
X192904018Y-111304000D01*
X149970582Y-111304000D01*
X150478615Y-110795967D01*
X150909000Y-109756925D01*
X150909000Y-108632275D01*
X150690054Y-108103690D01*
X155936924Y-108103690D01*
X156106755Y-108513724D01*
X156497042Y-108941983D01*
X157021508Y-109188286D01*
X157251400Y-109067619D01*
X157251400Y-107873800D01*
X157505400Y-107873800D01*
X157505400Y-109067619D01*
X157735292Y-109188286D01*
X158259758Y-108941983D01*
X158650045Y-108513724D01*
X158819876Y-108103690D01*
X158698555Y-107873800D01*
X157505400Y-107873800D01*
X157251400Y-107873800D01*
X156058245Y-107873800D01*
X155936924Y-108103690D01*
X150690054Y-108103690D01*
X150478615Y-107593233D01*
X149683367Y-106797985D01*
X148644325Y-106367600D01*
X147519675Y-106367600D01*
X146480633Y-106797985D01*
X145685385Y-107593233D01*
X145255000Y-108632275D01*
X145255000Y-109756925D01*
X145685385Y-110795967D01*
X146193418Y-111304000D01*
X145236165Y-111304000D01*
X145220661Y-100676059D01*
X145789100Y-100676059D01*
X145789100Y-101502341D01*
X146105304Y-102265726D01*
X146689574Y-102849996D01*
X147452959Y-103166200D01*
X148279241Y-103166200D01*
X149042626Y-102849996D01*
X149225822Y-102666800D01*
X155864308Y-102666800D01*
X155979561Y-103246218D01*
X156307775Y-103737425D01*
X156606161Y-103936800D01*
X156307775Y-104136175D01*
X155979561Y-104627382D01*
X155864308Y-105206800D01*
X155979561Y-105786218D01*
X156307775Y-106277425D01*
X156626878Y-106490643D01*
X156497042Y-106551617D01*
X156106755Y-106979876D01*
X155936924Y-107389910D01*
X156058245Y-107619800D01*
X157251400Y-107619800D01*
X157251400Y-107599800D01*
X157505400Y-107599800D01*
X157505400Y-107619800D01*
X158698555Y-107619800D01*
X158819876Y-107389910D01*
X158650045Y-106979876D01*
X158259758Y-106551617D01*
X158129922Y-106490643D01*
X158449025Y-106277425D01*
X158777239Y-105786218D01*
X158892492Y-105206800D01*
X158777239Y-104627382D01*
X158449025Y-104136175D01*
X158150639Y-103936800D01*
X158449025Y-103737425D01*
X158777239Y-103246218D01*
X158892492Y-102666800D01*
X158777239Y-102087382D01*
X158449025Y-101596175D01*
X158430781Y-101583984D01*
X158476165Y-101574957D01*
X158686209Y-101434609D01*
X158826557Y-101224565D01*
X158875840Y-100976800D01*
X158875840Y-99276800D01*
X158826557Y-99029035D01*
X158686209Y-98818991D01*
X158476165Y-98678643D01*
X158228400Y-98629360D01*
X156528400Y-98629360D01*
X156280635Y-98678643D01*
X156070591Y-98818991D01*
X155930243Y-99029035D01*
X155880960Y-99276800D01*
X155880960Y-100976800D01*
X155930243Y-101224565D01*
X156070591Y-101434609D01*
X156280635Y-101574957D01*
X156326019Y-101583984D01*
X156307775Y-101596175D01*
X155979561Y-102087382D01*
X155864308Y-102666800D01*
X149225822Y-102666800D01*
X149626896Y-102265726D01*
X149943100Y-101502341D01*
X149943100Y-100676059D01*
X149626896Y-99912674D01*
X149042626Y-99328404D01*
X148279241Y-99012200D01*
X147452959Y-99012200D01*
X146689574Y-99328404D01*
X146105304Y-99912674D01*
X145789100Y-100676059D01*
X145220661Y-100676059D01*
X145211436Y-94352115D01*
X148918000Y-94352115D01*
X148918000Y-94979485D01*
X149158084Y-95559099D01*
X149601701Y-96002716D01*
X150181315Y-96242800D01*
X150808685Y-96242800D01*
X151388299Y-96002716D01*
X151831916Y-95559099D01*
X152072000Y-94979485D01*
X152072000Y-94352115D01*
X152051275Y-94302081D01*
X152078651Y-94261111D01*
X152129999Y-94002966D01*
X152129999Y-94002962D01*
X152147336Y-93915801D01*
X152129999Y-93828640D01*
X152129999Y-92652377D01*
X153821437Y-94343816D01*
X153818000Y-94352115D01*
X153818000Y-94979485D01*
X154058084Y-95559099D01*
X154501701Y-96002716D01*
X155081315Y-96242800D01*
X155708685Y-96242800D01*
X156288299Y-96002716D01*
X156731916Y-95559099D01*
X156972000Y-94979485D01*
X156972000Y-94352115D01*
X156731916Y-93772501D01*
X156288299Y-93328884D01*
X155708685Y-93088800D01*
X155081315Y-93088800D01*
X155073016Y-93092237D01*
X153132600Y-91151822D01*
X153132600Y-87959803D01*
X153197812Y-88057399D01*
X153256447Y-88145153D01*
X153321992Y-88188949D01*
X165899171Y-100766128D01*
X165942967Y-100831673D01*
X166202628Y-101005174D01*
X166431604Y-101050720D01*
X166431608Y-101050720D01*
X166508920Y-101066098D01*
X166586232Y-101050720D01*
X169217201Y-101050720D01*
X169217200Y-105470513D01*
X168879798Y-105403400D01*
X168584602Y-105403400D01*
X168147475Y-105490350D01*
X167651770Y-105821570D01*
X167462200Y-106105281D01*
X167272630Y-105821570D01*
X166776925Y-105490350D01*
X166339798Y-105403400D01*
X166044602Y-105403400D01*
X165607475Y-105490350D01*
X165111770Y-105821570D01*
X164922200Y-106105281D01*
X164732630Y-105821570D01*
X164236925Y-105490350D01*
X163799798Y-105403400D01*
X163504602Y-105403400D01*
X163067475Y-105490350D01*
X162571770Y-105821570D01*
X162240550Y-106317275D01*
X162124241Y-106902000D01*
X162240550Y-107486725D01*
X162571770Y-107982430D01*
X162855481Y-108172000D01*
X162571770Y-108361570D01*
X162240550Y-108857275D01*
X162124241Y-109442000D01*
X162240550Y-110026725D01*
X162571770Y-110522430D01*
X163067475Y-110853650D01*
X163504602Y-110940600D01*
X163799798Y-110940600D01*
X164236925Y-110853650D01*
X164732630Y-110522430D01*
X164922200Y-110238719D01*
X165111770Y-110522430D01*
X165607475Y-110853650D01*
X166044602Y-110940600D01*
X166339798Y-110940600D01*
X166776925Y-110853650D01*
X167272630Y-110522430D01*
X167462200Y-110238719D01*
X167651770Y-110522430D01*
X168147475Y-110853650D01*
X168584602Y-110940600D01*
X168879798Y-110940600D01*
X169316925Y-110853650D01*
X169812630Y-110522430D01*
X170002200Y-110238719D01*
X170191770Y-110522430D01*
X170687475Y-110853650D01*
X171124602Y-110940600D01*
X171419798Y-110940600D01*
X171856925Y-110853650D01*
X172352630Y-110522430D01*
X172542200Y-110238719D01*
X172731770Y-110522430D01*
X173227475Y-110853650D01*
X173664602Y-110940600D01*
X173959798Y-110940600D01*
X174396925Y-110853650D01*
X174892630Y-110522430D01*
X175082200Y-110238719D01*
X175271770Y-110522430D01*
X175767475Y-110853650D01*
X176204602Y-110940600D01*
X176499798Y-110940600D01*
X176936925Y-110853650D01*
X177432630Y-110522430D01*
X177622200Y-110238719D01*
X177811770Y-110522430D01*
X178307475Y-110853650D01*
X178744602Y-110940600D01*
X179039798Y-110940600D01*
X179476925Y-110853650D01*
X179972630Y-110522430D01*
X180162200Y-110238719D01*
X180351770Y-110522430D01*
X180847475Y-110853650D01*
X181284602Y-110940600D01*
X181579798Y-110940600D01*
X182016925Y-110853650D01*
X182512630Y-110522430D01*
X182702200Y-110238719D01*
X182891770Y-110522430D01*
X183387475Y-110853650D01*
X183824602Y-110940600D01*
X184119798Y-110940600D01*
X184556925Y-110853650D01*
X185052630Y-110522430D01*
X185242200Y-110238719D01*
X185431770Y-110522430D01*
X185927475Y-110853650D01*
X186364602Y-110940600D01*
X186659798Y-110940600D01*
X187096925Y-110853650D01*
X187592630Y-110522430D01*
X187923850Y-110026725D01*
X188040159Y-109442000D01*
X187923850Y-108857275D01*
X187597549Y-108368932D01*
X187623565Y-108363757D01*
X187833609Y-108223409D01*
X187973957Y-108013365D01*
X188023240Y-107765600D01*
X188023240Y-106038400D01*
X187973957Y-105790635D01*
X187833609Y-105580591D01*
X187623565Y-105440243D01*
X187375800Y-105390960D01*
X187297200Y-105390960D01*
X187297200Y-103302912D01*
X187312578Y-103225600D01*
X187297925Y-103151935D01*
X187567750Y-103263700D01*
X188098250Y-103263700D01*
X188588367Y-103060687D01*
X188963487Y-102685567D01*
X189166500Y-102195450D01*
X189166500Y-101664950D01*
X194119500Y-101664950D01*
X194119500Y-102195450D01*
X194322513Y-102685567D01*
X194697633Y-103060687D01*
X195187750Y-103263700D01*
X195718250Y-103263700D01*
X196208367Y-103060687D01*
X196583487Y-102685567D01*
X196786500Y-102195450D01*
X196786500Y-101664950D01*
X196583487Y-101174833D01*
X196208367Y-100799713D01*
X195718250Y-100596700D01*
X195187750Y-100596700D01*
X194697633Y-100799713D01*
X194322513Y-101174833D01*
X194119500Y-101664950D01*
X189166500Y-101664950D01*
X188963487Y-101174833D01*
X188588367Y-100799713D01*
X188098250Y-100596700D01*
X187567750Y-100596700D01*
X187077633Y-100799713D01*
X186702513Y-101174833D01*
X186499500Y-101664950D01*
X186499500Y-102102742D01*
X182181146Y-97784388D01*
X187078417Y-97784388D01*
X187140071Y-98020000D01*
X187640480Y-98196127D01*
X188170199Y-98167348D01*
X188525929Y-98020000D01*
X188587583Y-97784388D01*
X194698417Y-97784388D01*
X194760071Y-98020000D01*
X195260480Y-98196127D01*
X195790199Y-98167348D01*
X196145929Y-98020000D01*
X196207583Y-97784388D01*
X195453000Y-97029805D01*
X194698417Y-97784388D01*
X188587583Y-97784388D01*
X187833000Y-97029805D01*
X187078417Y-97784388D01*
X182181146Y-97784388D01*
X181054438Y-96657680D01*
X186487073Y-96657680D01*
X186515852Y-97187399D01*
X186663200Y-97543129D01*
X186898812Y-97604783D01*
X187653395Y-96850200D01*
X188012605Y-96850200D01*
X188767188Y-97604783D01*
X189002800Y-97543129D01*
X189178927Y-97042720D01*
X189158009Y-96657680D01*
X194107073Y-96657680D01*
X194135852Y-97187399D01*
X194283200Y-97543129D01*
X194518812Y-97604783D01*
X195273395Y-96850200D01*
X195632605Y-96850200D01*
X196387188Y-97604783D01*
X196622800Y-97543129D01*
X196798927Y-97042720D01*
X196770148Y-96513001D01*
X196622800Y-96157271D01*
X196387188Y-96095617D01*
X195632605Y-96850200D01*
X195273395Y-96850200D01*
X194518812Y-96095617D01*
X194283200Y-96157271D01*
X194107073Y-96657680D01*
X189158009Y-96657680D01*
X189150148Y-96513001D01*
X189002800Y-96157271D01*
X188767188Y-96095617D01*
X188012605Y-96850200D01*
X187653395Y-96850200D01*
X186898812Y-96095617D01*
X186663200Y-96157271D01*
X186487073Y-96657680D01*
X181054438Y-96657680D01*
X180312770Y-95916012D01*
X187078417Y-95916012D01*
X187833000Y-96670595D01*
X188587583Y-95916012D01*
X194698417Y-95916012D01*
X195453000Y-96670595D01*
X196207583Y-95916012D01*
X196145929Y-95680400D01*
X195645520Y-95504273D01*
X195115801Y-95533052D01*
X194760071Y-95680400D01*
X194698417Y-95916012D01*
X188587583Y-95916012D01*
X188525929Y-95680400D01*
X188025520Y-95504273D01*
X187495801Y-95533052D01*
X187140071Y-95680400D01*
X187078417Y-95916012D01*
X180312770Y-95916012D01*
X176961948Y-92565191D01*
X176918153Y-92499647D01*
X176658492Y-92326146D01*
X176429516Y-92280600D01*
X176429512Y-92280600D01*
X176352200Y-92265222D01*
X176274888Y-92280600D01*
X169920958Y-92280600D01*
X166606957Y-88966600D01*
X166742657Y-88966600D01*
X167196571Y-88778582D01*
X167543982Y-88431171D01*
X167732000Y-87977257D01*
X167732000Y-87485943D01*
X167543982Y-87032029D01*
X167302000Y-86790047D01*
X167302000Y-85504000D01*
X167394002Y-85504000D01*
X167394002Y-85370115D01*
X167468931Y-85420181D01*
X167552750Y-85504000D01*
X167673310Y-85504000D01*
X167689904Y-85497127D01*
X167787000Y-85516440D01*
X167974201Y-85516440D01*
X167974200Y-86501439D01*
X167956863Y-86588600D01*
X167974200Y-86675761D01*
X167974200Y-86675764D01*
X168025548Y-86933909D01*
X168221151Y-87226649D01*
X168295047Y-87276025D01*
X172426007Y-91406986D01*
X172475381Y-91480879D01*
X172549274Y-91530253D01*
X172549275Y-91530254D01*
X172732669Y-91652794D01*
X172768120Y-91676482D01*
X173026265Y-91727830D01*
X173026269Y-91727830D01*
X173113430Y-91745167D01*
X173200591Y-91727830D01*
X183126561Y-91727830D01*
X183213722Y-91745167D01*
X183300883Y-91727830D01*
X183300887Y-91727830D01*
X183559032Y-91676482D01*
X183851771Y-91480879D01*
X183901147Y-91406983D01*
X185523131Y-89785000D01*
X191776439Y-89785000D01*
X191863600Y-89802337D01*
X191950761Y-89785000D01*
X191950765Y-89785000D01*
X192208910Y-89733652D01*
X192501649Y-89538049D01*
X192551025Y-89464153D01*
X192715154Y-89300024D01*
X192789049Y-89250649D01*
X192984652Y-88957910D01*
X193024398Y-88758091D01*
X193262365Y-88710757D01*
X193472409Y-88570409D01*
X193612757Y-88360365D01*
X193662040Y-88112600D01*
X193662040Y-86385400D01*
X193612757Y-86137635D01*
X193472409Y-85927591D01*
X193262365Y-85787243D01*
X193236349Y-85782068D01*
X193562650Y-85293725D01*
X193678959Y-84709000D01*
X193562650Y-84124275D01*
X193231430Y-83628570D01*
X192947719Y-83439000D01*
X193231430Y-83249430D01*
X193562650Y-82753725D01*
X193678959Y-82169000D01*
X193562650Y-81584275D01*
X193231430Y-81088570D01*
X192947719Y-80899000D01*
X193231430Y-80709430D01*
X193562650Y-80213725D01*
X193678959Y-79629000D01*
X193562650Y-79044275D01*
X193555813Y-79034043D01*
X193611179Y-78997049D01*
X193660555Y-78923153D01*
X195496685Y-77087024D01*
X195570578Y-77037650D01*
X195635286Y-76940809D01*
X195766181Y-76744911D01*
X195775680Y-76697157D01*
X195817529Y-76486766D01*
X195817529Y-76486762D01*
X195834866Y-76399601D01*
X195817529Y-76312440D01*
X195817529Y-71688266D01*
X195834866Y-71601106D01*
X195817529Y-71513946D01*
X195817529Y-71513942D01*
X195766181Y-71255797D01*
X195653236Y-71086764D01*
X195619953Y-71036952D01*
X195619952Y-71036951D01*
X195570578Y-70963058D01*
X195496685Y-70913684D01*
X193894247Y-69311247D01*
X193844871Y-69237351D01*
X193552132Y-69041748D01*
X193293987Y-68990400D01*
X193293983Y-68990400D01*
X193206822Y-68973063D01*
X193119661Y-68990400D01*
X181138361Y-68990400D01*
X181051200Y-68973063D01*
X180964039Y-68990400D01*
X180964035Y-68990400D01*
X180720877Y-69038767D01*
X180705890Y-69041748D01*
X180487045Y-69187976D01*
X180487044Y-69187977D01*
X180413151Y-69237351D01*
X180363777Y-69311244D01*
X177155400Y-72519622D01*
X177155400Y-72322143D01*
X176967382Y-71868229D01*
X176619971Y-71520818D01*
X176166057Y-71332800D01*
X175674743Y-71332800D01*
X175606000Y-71361274D01*
X175606000Y-71288200D01*
X175785057Y-71288200D01*
X176238971Y-71100182D01*
X176586382Y-70752771D01*
X176774400Y-70298857D01*
X176774400Y-69807543D01*
X176586382Y-69353629D01*
X176238971Y-69006218D01*
X175785057Y-68818200D01*
X175293743Y-68818200D01*
X174839829Y-69006218D01*
X174627847Y-69218200D01*
X173145037Y-69218200D01*
X173062800Y-69201842D01*
X172980563Y-69218200D01*
X172736999Y-69266648D01*
X172460799Y-69451199D01*
X172414215Y-69520917D01*
X172152000Y-69783132D01*
X172152000Y-68641948D01*
X172102000Y-68390580D01*
X172102000Y-68132305D01*
X172053552Y-67888741D01*
X172052000Y-67886418D01*
X172052000Y-64757917D01*
X173164087Y-63645830D01*
X175225788Y-63645830D01*
X175228111Y-63647382D01*
X175471675Y-63695830D01*
X185418137Y-63695830D01*
X185500370Y-63712187D01*
X185582603Y-63695830D01*
X185582607Y-63695830D01*
X185826171Y-63647382D01*
X186102371Y-63462831D01*
X186148957Y-63393110D01*
X188466883Y-61075185D01*
X188536601Y-61028601D01*
X188721152Y-60752401D01*
X188769600Y-60508837D01*
X188769600Y-60508834D01*
X188785957Y-60426601D01*
X188769600Y-60344368D01*
X188769600Y-58654632D01*
X188785957Y-58572399D01*
X188769600Y-58490164D01*
X188769600Y-58490163D01*
X188721152Y-58246599D01*
X188642562Y-58128981D01*
X188583184Y-58040115D01*
X188583183Y-58040114D01*
X188536601Y-57970399D01*
X188466885Y-57923817D01*
X187902986Y-57359918D01*
X187856400Y-57290198D01*
X187580200Y-57105647D01*
X187336636Y-57057199D01*
X187336632Y-57057199D01*
X187299033Y-57049720D01*
X187357568Y-56924827D01*
X187237069Y-56692800D01*
X186029600Y-56692800D01*
X186029600Y-56712800D01*
X185775600Y-56712800D01*
X185775600Y-56692800D01*
X183489600Y-56692800D01*
X183489600Y-56712800D01*
X183235600Y-56712800D01*
X183235600Y-56692800D01*
X180949600Y-56692800D01*
X180949600Y-56712800D01*
X180695600Y-56712800D01*
X180695600Y-56692800D01*
X178409600Y-56692800D01*
X178409600Y-56712800D01*
X178155600Y-56712800D01*
X178155600Y-56692800D01*
X178135600Y-56692800D01*
X178135600Y-56438800D01*
X178155600Y-56438800D01*
X178155600Y-55231983D01*
X178409600Y-55231983D01*
X178409600Y-56438800D01*
X180695600Y-56438800D01*
X180695600Y-55231983D01*
X180949600Y-55231983D01*
X180949600Y-56438800D01*
X183235600Y-56438800D01*
X183235600Y-55231983D01*
X183489600Y-55231983D01*
X183489600Y-56438800D01*
X185775600Y-56438800D01*
X185775600Y-55231983D01*
X186029600Y-55231983D01*
X186029600Y-56438800D01*
X187237069Y-56438800D01*
X187357568Y-56206773D01*
X187109421Y-55677310D01*
X186677547Y-55283112D01*
X186261626Y-55110842D01*
X186029600Y-55231983D01*
X185775600Y-55231983D01*
X185543574Y-55110842D01*
X185127653Y-55283112D01*
X184695779Y-55677310D01*
X184632600Y-55812113D01*
X184569421Y-55677310D01*
X184137547Y-55283112D01*
X183721626Y-55110842D01*
X183489600Y-55231983D01*
X183235600Y-55231983D01*
X183003574Y-55110842D01*
X182587653Y-55283112D01*
X182155779Y-55677310D01*
X182092600Y-55812113D01*
X182029421Y-55677310D01*
X181597547Y-55283112D01*
X181181626Y-55110842D01*
X180949600Y-55231983D01*
X180695600Y-55231983D01*
X180463574Y-55110842D01*
X180047653Y-55283112D01*
X179615779Y-55677310D01*
X179552600Y-55812113D01*
X179489421Y-55677310D01*
X179057547Y-55283112D01*
X178641626Y-55110842D01*
X178409600Y-55231983D01*
X178155600Y-55231983D01*
X177923574Y-55110842D01*
X177507653Y-55283112D01*
X177075779Y-55677310D01*
X177024454Y-55786821D01*
X176823030Y-55485370D01*
X176327325Y-55154150D01*
X175890198Y-55067200D01*
X175595002Y-55067200D01*
X175157875Y-55154150D01*
X174662170Y-55485370D01*
X174330950Y-55981075D01*
X174214641Y-56565800D01*
X174330950Y-57150525D01*
X174657251Y-57638868D01*
X174631235Y-57644043D01*
X174421191Y-57784391D01*
X174280843Y-57994435D01*
X174231560Y-58242200D01*
X174231560Y-59969400D01*
X174280843Y-60217165D01*
X174286613Y-60225800D01*
X172644912Y-60225800D01*
X172567600Y-60210422D01*
X172490288Y-60225800D01*
X172490284Y-60225800D01*
X172261308Y-60271346D01*
X172001647Y-60444847D01*
X171957851Y-60510392D01*
X168366592Y-64101651D01*
X168301047Y-64145447D01*
X168257251Y-64210992D01*
X168127547Y-64405108D01*
X168127546Y-64405109D01*
X168082000Y-64634085D01*
X168082000Y-64634088D01*
X168066622Y-64711400D01*
X168082000Y-64788712D01*
X168082001Y-67736076D01*
X168080448Y-67738400D01*
X168032000Y-67981964D01*
X168032001Y-70921560D01*
X167787000Y-70921560D01*
X167689904Y-70940873D01*
X167673310Y-70934000D01*
X167552750Y-70934000D01*
X167468931Y-71017819D01*
X167394002Y-71067885D01*
X167394002Y-70934000D01*
X167302000Y-70934000D01*
X167302000Y-70693558D01*
X167348537Y-70459599D01*
X167279851Y-70114289D01*
X167133624Y-69895445D01*
X165711225Y-68473047D01*
X165661849Y-68399151D01*
X165369110Y-68203548D01*
X165110965Y-68152200D01*
X165110961Y-68152200D01*
X165023800Y-68134863D01*
X164936639Y-68152200D01*
X155077961Y-68152200D01*
X154990800Y-68134863D01*
X154903639Y-68152200D01*
X154903635Y-68152200D01*
X154645490Y-68203548D01*
X154426645Y-68349776D01*
X154426644Y-68349777D01*
X154352751Y-68399151D01*
X154303377Y-68473044D01*
X150680846Y-72095576D01*
X150606950Y-72144952D01*
X150411347Y-72437692D01*
X150359999Y-72695837D01*
X150359999Y-72695840D01*
X150342662Y-72783001D01*
X150359999Y-72870162D01*
X150360000Y-93088800D01*
X150181315Y-93088800D01*
X149601701Y-93328884D01*
X149158084Y-93772501D01*
X148918000Y-94352115D01*
X145211436Y-94352115D01*
X145195743Y-83594559D01*
X145789100Y-83594559D01*
X145789100Y-84420841D01*
X146105304Y-85184226D01*
X146689574Y-85768496D01*
X147452959Y-86084700D01*
X148279241Y-86084700D01*
X149042626Y-85768496D01*
X149626896Y-85184226D01*
X149943100Y-84420841D01*
X149943100Y-83594559D01*
X149626896Y-82831174D01*
X149042626Y-82246904D01*
X148279241Y-81930700D01*
X147452959Y-81930700D01*
X146689574Y-82246904D01*
X146105304Y-82831174D01*
X145789100Y-83594559D01*
X145195743Y-83594559D01*
X145186400Y-77190415D01*
X145176733Y-77141999D01*
X145149203Y-77100797D01*
X145108001Y-77073267D01*
X145059400Y-77063600D01*
X109171089Y-77063600D01*
X109271967Y-77021815D01*
X110067215Y-76226567D01*
X110497600Y-75187525D01*
X110497600Y-74062875D01*
X110067215Y-73023833D01*
X109271967Y-72228585D01*
X108232925Y-71798200D01*
X107108275Y-71798200D01*
X106069233Y-72228585D01*
X105688200Y-72609618D01*
X105688200Y-70535800D01*
X114495146Y-70535800D01*
X114625301Y-71190133D01*
X114995951Y-71744849D01*
X115410068Y-72021554D01*
X115418448Y-72063681D01*
X115518086Y-72212800D01*
X115603000Y-72339882D01*
X115672718Y-72386466D01*
X117249934Y-73963683D01*
X117296518Y-74033401D01*
X117572718Y-74217952D01*
X117816282Y-74266400D01*
X117898519Y-74282758D01*
X117980756Y-74266400D01*
X122955367Y-74266400D01*
X123037600Y-74282757D01*
X123119833Y-74266400D01*
X123119837Y-74266400D01*
X123363401Y-74217952D01*
X123639601Y-74033401D01*
X123686187Y-73963680D01*
X124814483Y-72835385D01*
X124884201Y-72788801D01*
X125068752Y-72512601D01*
X125117200Y-72269037D01*
X125117200Y-72269034D01*
X125133557Y-72186801D01*
X125117200Y-72104568D01*
X125117200Y-70485000D01*
X126941146Y-70485000D01*
X127071301Y-71139333D01*
X127441951Y-71694049D01*
X127996667Y-72064699D01*
X128485832Y-72162000D01*
X128816168Y-72162000D01*
X129305333Y-72064699D01*
X129860049Y-71694049D01*
X129921000Y-71602830D01*
X129981951Y-71694049D01*
X130536667Y-72064699D01*
X131025832Y-72162000D01*
X131356168Y-72162000D01*
X131845333Y-72064699D01*
X132400049Y-71694049D01*
X132587521Y-71413478D01*
X132964076Y-71756645D01*
X133374110Y-71926476D01*
X133604000Y-71805155D01*
X133604000Y-70612000D01*
X133584000Y-70612000D01*
X133584000Y-70358000D01*
X133604000Y-70358000D01*
X133604000Y-69164845D01*
X133858000Y-69164845D01*
X133858000Y-70358000D01*
X133878000Y-70358000D01*
X133878000Y-70612000D01*
X133858000Y-70612000D01*
X133858000Y-71805155D01*
X134087890Y-71926476D01*
X134497924Y-71756645D01*
X134636542Y-71630318D01*
X134641984Y-71657679D01*
X134824767Y-71931233D01*
X135098321Y-72114016D01*
X135421000Y-72178201D01*
X137121000Y-72178201D01*
X137443679Y-72114016D01*
X137717233Y-71931233D01*
X137900016Y-71657679D01*
X137964201Y-71335000D01*
X137964201Y-70358000D01*
X142155746Y-70358000D01*
X142285901Y-71012333D01*
X142656551Y-71567049D01*
X143211267Y-71937699D01*
X143700432Y-72035000D01*
X144030768Y-72035000D01*
X144519933Y-71937699D01*
X145074649Y-71567049D01*
X145445299Y-71012333D01*
X145575454Y-70358000D01*
X145445299Y-69703667D01*
X145201111Y-69338215D01*
X145311833Y-69264233D01*
X145494616Y-68990679D01*
X145558801Y-68668000D01*
X145558801Y-66968000D01*
X145494616Y-66645321D01*
X145311833Y-66371767D01*
X145038279Y-66188984D01*
X144715600Y-66124799D01*
X143015600Y-66124799D01*
X142692921Y-66188984D01*
X142419367Y-66371767D01*
X142236584Y-66645321D01*
X142172399Y-66968000D01*
X142172399Y-68668000D01*
X142236584Y-68990679D01*
X142419367Y-69264233D01*
X142530089Y-69338215D01*
X142285901Y-69703667D01*
X142155746Y-70358000D01*
X137964201Y-70358000D01*
X137964201Y-69635000D01*
X137900016Y-69312321D01*
X137717233Y-69038767D01*
X137443679Y-68855984D01*
X137121000Y-68791799D01*
X135421000Y-68791799D01*
X135098321Y-68855984D01*
X134824767Y-69038767D01*
X134641984Y-69312321D01*
X134636542Y-69339682D01*
X134497924Y-69213355D01*
X134087890Y-69043524D01*
X133858000Y-69164845D01*
X133604000Y-69164845D01*
X133374110Y-69043524D01*
X132964076Y-69213355D01*
X132587521Y-69556522D01*
X132400049Y-69275951D01*
X131845333Y-68905301D01*
X131356168Y-68808000D01*
X131025832Y-68808000D01*
X130536667Y-68905301D01*
X129981951Y-69275951D01*
X129921000Y-69367170D01*
X129860049Y-69275951D01*
X129305333Y-68905301D01*
X128816168Y-68808000D01*
X128485832Y-68808000D01*
X127996667Y-68905301D01*
X127441951Y-69275951D01*
X127071301Y-69830667D01*
X126941146Y-70485000D01*
X125117200Y-70485000D01*
X125117200Y-67851733D01*
X125167200Y-67600365D01*
X125167200Y-63348141D01*
X157117400Y-63348141D01*
X157117400Y-64058259D01*
X157389150Y-64714321D01*
X157891279Y-65216450D01*
X158547341Y-65488200D01*
X159257459Y-65488200D01*
X159913521Y-65216450D01*
X160415650Y-64714321D01*
X160687400Y-64058259D01*
X160687400Y-63348141D01*
X160415650Y-62692079D01*
X159913521Y-62189950D01*
X159257459Y-61918200D01*
X158547341Y-61918200D01*
X157891279Y-62189950D01*
X157389150Y-62692079D01*
X157117400Y-63348141D01*
X125167200Y-63348141D01*
X125167200Y-60504717D01*
X136577800Y-60504717D01*
X136577800Y-61059683D01*
X136790176Y-61572404D01*
X137182596Y-61964824D01*
X137695317Y-62177200D01*
X138250283Y-62177200D01*
X138763004Y-61964824D01*
X139155424Y-61572404D01*
X139242800Y-61361460D01*
X139330176Y-61572404D01*
X139722596Y-61964824D01*
X140235317Y-62177200D01*
X140790283Y-62177200D01*
X141303004Y-61964824D01*
X141695424Y-61572404D01*
X141907800Y-61059683D01*
X141907800Y-60808141D01*
X149497400Y-60808141D01*
X149497400Y-61518259D01*
X149769150Y-62174321D01*
X150271279Y-62676450D01*
X150927341Y-62948200D01*
X151637459Y-62948200D01*
X152293521Y-62676450D01*
X152795650Y-62174321D01*
X153067400Y-61518259D01*
X153067400Y-60808141D01*
X152795650Y-60152079D01*
X152293521Y-59649950D01*
X151637459Y-59378200D01*
X150927341Y-59378200D01*
X150271279Y-59649950D01*
X149769150Y-60152079D01*
X149497400Y-60808141D01*
X141907800Y-60808141D01*
X141907800Y-60504717D01*
X141695424Y-59991996D01*
X141485628Y-59782200D01*
X141695424Y-59572404D01*
X141907800Y-59059683D01*
X141907800Y-58504717D01*
X141695424Y-57991996D01*
X141303004Y-57599576D01*
X141033136Y-57487793D01*
X144016812Y-57487793D01*
X144158278Y-57790982D01*
X144894755Y-58075937D01*
X145684218Y-58057364D01*
X146327322Y-57790982D01*
X146468788Y-57487793D01*
X145242800Y-56261805D01*
X144016812Y-57487793D01*
X141033136Y-57487793D01*
X140790283Y-57387200D01*
X140235317Y-57387200D01*
X139722596Y-57599576D01*
X139330176Y-57991996D01*
X139249378Y-58187059D01*
X139193542Y-58052259D01*
X138951564Y-57983041D01*
X138152405Y-58782200D01*
X138951564Y-59581359D01*
X139193542Y-59512141D01*
X139245206Y-59367269D01*
X139330176Y-59572404D01*
X139539972Y-59782200D01*
X139330176Y-59991996D01*
X139242800Y-60202940D01*
X139155424Y-59991996D01*
X138763004Y-59599576D01*
X138502785Y-59491790D01*
X137972800Y-58961805D01*
X137442815Y-59491790D01*
X137182596Y-59599576D01*
X136790176Y-59991996D01*
X136577800Y-60504717D01*
X125167200Y-60504717D01*
X125167200Y-60375588D01*
X126967808Y-58574980D01*
X136565645Y-58574980D01*
X136593459Y-59129249D01*
X136752058Y-59512141D01*
X136994036Y-59581359D01*
X137793195Y-58782200D01*
X136994036Y-57983041D01*
X136752058Y-58052259D01*
X136565645Y-58574980D01*
X126967808Y-58574980D01*
X128054995Y-57487793D01*
X132016812Y-57487793D01*
X132158278Y-57790982D01*
X132894755Y-58075937D01*
X133684218Y-58057364D01*
X134297255Y-57803436D01*
X137173641Y-57803436D01*
X137972800Y-58602595D01*
X138771959Y-57803436D01*
X138702741Y-57561458D01*
X138180020Y-57375045D01*
X137625751Y-57402859D01*
X137242859Y-57561458D01*
X137173641Y-57803436D01*
X134297255Y-57803436D01*
X134327322Y-57790982D01*
X134468788Y-57487793D01*
X133242800Y-56261805D01*
X132016812Y-57487793D01*
X128054995Y-57487793D01*
X129808633Y-55734155D01*
X131249063Y-55734155D01*
X131267636Y-56523618D01*
X131534018Y-57166722D01*
X131837207Y-57308188D01*
X133063195Y-56082200D01*
X133422405Y-56082200D01*
X134648393Y-57308188D01*
X134951582Y-57166722D01*
X135236537Y-56430245D01*
X135220161Y-55734155D01*
X143249063Y-55734155D01*
X143267636Y-56523618D01*
X143534018Y-57166722D01*
X143837207Y-57308188D01*
X145063195Y-56082200D01*
X145422405Y-56082200D01*
X146648393Y-57308188D01*
X146951582Y-57166722D01*
X147236537Y-56430245D01*
X147217964Y-55640782D01*
X146951582Y-54997678D01*
X146648393Y-54856212D01*
X145422405Y-56082200D01*
X145063195Y-56082200D01*
X143837207Y-54856212D01*
X143534018Y-54997678D01*
X143249063Y-55734155D01*
X135220161Y-55734155D01*
X135217964Y-55640782D01*
X134951582Y-54997678D01*
X134648393Y-54856212D01*
X133422405Y-56082200D01*
X133063195Y-56082200D01*
X131837207Y-54856212D01*
X131534018Y-54997678D01*
X131249063Y-55734155D01*
X129808633Y-55734155D01*
X130866181Y-54676607D01*
X132016812Y-54676607D01*
X133242800Y-55902595D01*
X134468788Y-54676607D01*
X144016812Y-54676607D01*
X145242800Y-55902595D01*
X146468788Y-54676607D01*
X146327322Y-54373418D01*
X145590845Y-54088463D01*
X144801382Y-54107036D01*
X144158278Y-54373418D01*
X144016812Y-54676607D01*
X134468788Y-54676607D01*
X134327322Y-54373418D01*
X133590845Y-54088463D01*
X132801382Y-54107036D01*
X132158278Y-54373418D01*
X132016812Y-54676607D01*
X130866181Y-54676607D01*
X133294631Y-52248158D01*
X133402247Y-52176251D01*
X133451623Y-52102355D01*
X133931769Y-51622210D01*
X149964032Y-51622210D01*
X155477400Y-57135579D01*
X155477400Y-57954294D01*
X155335650Y-57612079D01*
X154833521Y-57109950D01*
X154177459Y-56838200D01*
X153467341Y-56838200D01*
X152811279Y-57109950D01*
X152309150Y-57612079D01*
X152037400Y-58268141D01*
X152037400Y-58978259D01*
X152309150Y-59634321D01*
X152811279Y-60136450D01*
X153467341Y-60408200D01*
X154177459Y-60408200D01*
X154833521Y-60136450D01*
X155335650Y-59634321D01*
X155477401Y-59292105D01*
X155477401Y-59597709D01*
X155351279Y-59649950D01*
X154849150Y-60152079D01*
X154577400Y-60808141D01*
X154577400Y-61518259D01*
X154849150Y-62174321D01*
X155351279Y-62676450D01*
X156007341Y-62948200D01*
X156717459Y-62948200D01*
X157373521Y-62676450D01*
X157875650Y-62174321D01*
X158147400Y-61518259D01*
X158147400Y-60808141D01*
X157875650Y-60152079D01*
X157714390Y-59990819D01*
X157820982Y-59884226D01*
X157938001Y-60166646D01*
X158602063Y-60418218D01*
X159311848Y-60396514D01*
X159866799Y-60166646D01*
X159983818Y-59884226D01*
X160090411Y-59990819D01*
X159929150Y-60152079D01*
X159657400Y-60808141D01*
X159657400Y-61518259D01*
X159929150Y-62174321D01*
X160431279Y-62676450D01*
X161087341Y-62948200D01*
X161797459Y-62948200D01*
X162453521Y-62676450D01*
X162955650Y-62174321D01*
X163227400Y-61518259D01*
X163227400Y-60808141D01*
X164737400Y-60808141D01*
X164737400Y-61518259D01*
X165009150Y-62174321D01*
X165511279Y-62676450D01*
X166167341Y-62948200D01*
X166877459Y-62948200D01*
X167533521Y-62676450D01*
X168035650Y-62174321D01*
X168307400Y-61518259D01*
X168307400Y-60808141D01*
X168035650Y-60152079D01*
X167533521Y-59649950D01*
X166877459Y-59378200D01*
X166167341Y-59378200D01*
X165511279Y-59649950D01*
X165009150Y-60152079D01*
X164737400Y-60808141D01*
X163227400Y-60808141D01*
X162955650Y-60152079D01*
X162453521Y-59649950D01*
X162277400Y-59576998D01*
X162277400Y-59171396D01*
X162469150Y-59634321D01*
X162971279Y-60136450D01*
X163627341Y-60408200D01*
X164337459Y-60408200D01*
X164993521Y-60136450D01*
X165495650Y-59634321D01*
X165767400Y-58978259D01*
X165767400Y-58268141D01*
X165495650Y-57612079D01*
X164993521Y-57109950D01*
X164337459Y-56838200D01*
X163627341Y-56838200D01*
X162971279Y-57109950D01*
X162469150Y-57612079D01*
X162293289Y-58036645D01*
X162277400Y-57956764D01*
X162277400Y-57956763D01*
X162228952Y-57713199D01*
X162184205Y-57646230D01*
X162090984Y-57506715D01*
X162090983Y-57506714D01*
X162044401Y-57436999D01*
X161974686Y-57390417D01*
X159754187Y-55169920D01*
X159707601Y-55100199D01*
X159431401Y-54915648D01*
X159187837Y-54867200D01*
X159187833Y-54867200D01*
X159105600Y-54850843D01*
X159023367Y-54867200D01*
X156708268Y-54867200D01*
X151295987Y-49454920D01*
X151249401Y-49385199D01*
X150973201Y-49200648D01*
X150729637Y-49152200D01*
X150729633Y-49152200D01*
X150647400Y-49135843D01*
X150565167Y-49152200D01*
X133510727Y-49152200D01*
X133172199Y-49084863D01*
X132826889Y-49153549D01*
X132608045Y-49299776D01*
X131388846Y-50518976D01*
X131314951Y-50568351D01*
X131264719Y-50643528D01*
X120720845Y-61187403D01*
X120646952Y-61236777D01*
X120597578Y-61310670D01*
X120597576Y-61310672D01*
X120451348Y-61529517D01*
X120382663Y-61874826D01*
X120400001Y-61961991D01*
X120400000Y-68849561D01*
X120112321Y-68906784D01*
X119838767Y-69089567D01*
X119655984Y-69363121D01*
X119650542Y-69390482D01*
X119511924Y-69264155D01*
X119101890Y-69094324D01*
X118872000Y-69215645D01*
X118872000Y-70408800D01*
X118892000Y-70408800D01*
X118892000Y-70662800D01*
X118872000Y-70662800D01*
X118872000Y-71855955D01*
X119101890Y-71977276D01*
X119511924Y-71807445D01*
X119650542Y-71681118D01*
X119655984Y-71708479D01*
X119838767Y-71982033D01*
X120112321Y-72164816D01*
X120435000Y-72229001D01*
X122135000Y-72229001D01*
X122457679Y-72164816D01*
X122731233Y-71982033D01*
X122914016Y-71708479D01*
X122978201Y-71385800D01*
X122978201Y-69685800D01*
X122914016Y-69363121D01*
X122731233Y-69089567D01*
X122457679Y-68906784D01*
X122170000Y-68849561D01*
X122170000Y-62241404D01*
X123397201Y-61014203D01*
X123397200Y-67600364D01*
X123447201Y-67851737D01*
X123447200Y-71840932D01*
X122691733Y-72596400D01*
X118244387Y-72596400D01*
X117401332Y-71753346D01*
X117414049Y-71744849D01*
X117601521Y-71464278D01*
X117978076Y-71807445D01*
X118388110Y-71977276D01*
X118618000Y-71855955D01*
X118618000Y-70662800D01*
X118598000Y-70662800D01*
X118598000Y-70408800D01*
X118618000Y-70408800D01*
X118618000Y-69215645D01*
X118388110Y-69094324D01*
X117978076Y-69264155D01*
X117601521Y-69607322D01*
X117414049Y-69326751D01*
X116859333Y-68956101D01*
X116370168Y-68858800D01*
X116039832Y-68858800D01*
X115550667Y-68956101D01*
X114995951Y-69326751D01*
X114625301Y-69881467D01*
X114495146Y-70535800D01*
X105688200Y-70535800D01*
X105688200Y-51291582D01*
X106094633Y-51698015D01*
X107133675Y-52128400D01*
X108258325Y-52128400D01*
X109297367Y-51698015D01*
X110092615Y-50902767D01*
X110498415Y-49923078D01*
X111455400Y-49923078D01*
X111455400Y-50610122D01*
X111718320Y-51244867D01*
X112204133Y-51730680D01*
X112838878Y-51993600D01*
X113525922Y-51993600D01*
X114160667Y-51730680D01*
X114324561Y-51566786D01*
X114462702Y-51704927D01*
X114696091Y-51801600D01*
X115436650Y-51801600D01*
X115595400Y-51642850D01*
X115595400Y-50393600D01*
X115849400Y-50393600D01*
X115849400Y-51642850D01*
X116008150Y-51801600D01*
X116748709Y-51801600D01*
X116982098Y-51704927D01*
X117160727Y-51526299D01*
X117257400Y-51292910D01*
X117257400Y-50552350D01*
X117098650Y-50393600D01*
X115849400Y-50393600D01*
X115595400Y-50393600D01*
X115575400Y-50393600D01*
X115575400Y-50139600D01*
X115595400Y-50139600D01*
X115595400Y-48890350D01*
X115849400Y-48890350D01*
X115849400Y-50139600D01*
X117098650Y-50139600D01*
X117257400Y-49980850D01*
X117257400Y-49923078D01*
X119075400Y-49923078D01*
X119075400Y-50610122D01*
X119338320Y-51244867D01*
X119824133Y-51730680D01*
X120458878Y-51993600D01*
X121145922Y-51993600D01*
X121780667Y-51730680D01*
X121944561Y-51566786D01*
X122082702Y-51704927D01*
X122316091Y-51801600D01*
X123056650Y-51801600D01*
X123215400Y-51642850D01*
X123215400Y-50393600D01*
X123469400Y-50393600D01*
X123469400Y-51642850D01*
X123628150Y-51801600D01*
X124368709Y-51801600D01*
X124602098Y-51704927D01*
X124780727Y-51526299D01*
X124877400Y-51292910D01*
X124877400Y-50552350D01*
X124718650Y-50393600D01*
X123469400Y-50393600D01*
X123215400Y-50393600D01*
X123195400Y-50393600D01*
X123195400Y-50139600D01*
X123215400Y-50139600D01*
X123215400Y-48890350D01*
X123469400Y-48890350D01*
X123469400Y-50139600D01*
X124718650Y-50139600D01*
X124877400Y-49980850D01*
X124877400Y-49240290D01*
X124780727Y-49006901D01*
X124602098Y-48828273D01*
X124368709Y-48731600D01*
X123628150Y-48731600D01*
X123469400Y-48890350D01*
X123215400Y-48890350D01*
X123056650Y-48731600D01*
X122316091Y-48731600D01*
X122082702Y-48828273D01*
X121944561Y-48966414D01*
X121780667Y-48802520D01*
X121145922Y-48539600D01*
X120458878Y-48539600D01*
X119824133Y-48802520D01*
X119338320Y-49288333D01*
X119075400Y-49923078D01*
X117257400Y-49923078D01*
X117257400Y-49240290D01*
X117160727Y-49006901D01*
X116982098Y-48828273D01*
X116748709Y-48731600D01*
X116008150Y-48731600D01*
X115849400Y-48890350D01*
X115595400Y-48890350D01*
X115436650Y-48731600D01*
X114696091Y-48731600D01*
X114462702Y-48828273D01*
X114324561Y-48966414D01*
X114160667Y-48802520D01*
X113525922Y-48539600D01*
X112838878Y-48539600D01*
X112204133Y-48802520D01*
X111718320Y-49288333D01*
X111455400Y-49923078D01*
X110498415Y-49923078D01*
X110523000Y-49863725D01*
X110523000Y-48739075D01*
X110092615Y-47700033D01*
X109711504Y-47318922D01*
X155194439Y-47318922D01*
X154976314Y-47537047D01*
X154976314Y-47537047D01*
G37*
X154976314Y-47537047D02*
X154727400Y-48137978D01*
X154727400Y-48788422D01*
X154976314Y-49389353D01*
X155436247Y-49849286D01*
X156037178Y-50098200D01*
X156687622Y-50098200D01*
X157288553Y-49849286D01*
X157748486Y-49389353D01*
X157997400Y-48788422D01*
X157997400Y-48137978D01*
X157748486Y-47537047D01*
X157530361Y-47318922D01*
X160274439Y-47318922D01*
X160056314Y-47537047D01*
X159807400Y-48137978D01*
X159807400Y-48788422D01*
X160056314Y-49389353D01*
X160516247Y-49849286D01*
X161117178Y-50098200D01*
X161767622Y-50098200D01*
X162368553Y-49849286D01*
X162828486Y-49389353D01*
X163077400Y-48788422D01*
X163077400Y-48137978D01*
X162828486Y-47537047D01*
X162610361Y-47318922D01*
X192904096Y-47318922D01*
X192522985Y-47700033D01*
X192092600Y-48739075D01*
X192092600Y-49863725D01*
X192522985Y-50902767D01*
X193318233Y-51698015D01*
X194357275Y-52128400D01*
X195481925Y-52128400D01*
X196520967Y-51698015D01*
X196902001Y-51316981D01*
X196902000Y-107306018D01*
X196495567Y-106899585D01*
X195456525Y-106469200D01*
X194331875Y-106469200D01*
X193292833Y-106899585D01*
X192497585Y-107694833D01*
X192067200Y-108733875D01*
X192067200Y-109858525D01*
X192497585Y-110897567D01*
X192904018Y-111304000D01*
X149970582Y-111304000D01*
X150478615Y-110795967D01*
X150909000Y-109756925D01*
X150909000Y-108632275D01*
X150690054Y-108103690D01*
X155936924Y-108103690D01*
X156106755Y-108513724D01*
X156497042Y-108941983D01*
X157021508Y-109188286D01*
X157251400Y-109067619D01*
X157251400Y-107873800D01*
X157505400Y-107873800D01*
X157505400Y-109067619D01*
X157735292Y-109188286D01*
X158259758Y-108941983D01*
X158650045Y-108513724D01*
X158819876Y-108103690D01*
X158698555Y-107873800D01*
X157505400Y-107873800D01*
X157251400Y-107873800D01*
X156058245Y-107873800D01*
X155936924Y-108103690D01*
X150690054Y-108103690D01*
X150478615Y-107593233D01*
X149683367Y-106797985D01*
X148644325Y-106367600D01*
X147519675Y-106367600D01*
X146480633Y-106797985D01*
X145685385Y-107593233D01*
X145255000Y-108632275D01*
X145255000Y-109756925D01*
X145685385Y-110795967D01*
X146193418Y-111304000D01*
X145236165Y-111304000D01*
X145220661Y-100676059D01*
X145789100Y-100676059D01*
X145789100Y-101502341D01*
X146105304Y-102265726D01*
X146689574Y-102849996D01*
X147452959Y-103166200D01*
X148279241Y-103166200D01*
X149042626Y-102849996D01*
X149225822Y-102666800D01*
X155864308Y-102666800D01*
X155979561Y-103246218D01*
X156307775Y-103737425D01*
X156606161Y-103936800D01*
X156307775Y-104136175D01*
X155979561Y-104627382D01*
X155864308Y-105206800D01*
X155979561Y-105786218D01*
X156307775Y-106277425D01*
X156626878Y-106490643D01*
X156497042Y-106551617D01*
X156106755Y-106979876D01*
X155936924Y-107389910D01*
X156058245Y-107619800D01*
X157251400Y-107619800D01*
X157251400Y-107599800D01*
X157505400Y-107599800D01*
X157505400Y-107619800D01*
X158698555Y-107619800D01*
X158819876Y-107389910D01*
X158650045Y-106979876D01*
X158259758Y-106551617D01*
X158129922Y-106490643D01*
X158449025Y-106277425D01*
X158777239Y-105786218D01*
X158892492Y-105206800D01*
X158777239Y-104627382D01*
X158449025Y-104136175D01*
X158150639Y-103936800D01*
X158449025Y-103737425D01*
X158777239Y-103246218D01*
X158892492Y-102666800D01*
X158777239Y-102087382D01*
X158449025Y-101596175D01*
X158430781Y-101583984D01*
X158476165Y-101574957D01*
X158686209Y-101434609D01*
X158826557Y-101224565D01*
X158875840Y-100976800D01*
X158875840Y-99276800D01*
X158826557Y-99029035D01*
X158686209Y-98818991D01*
X158476165Y-98678643D01*
X158228400Y-98629360D01*
X156528400Y-98629360D01*
X156280635Y-98678643D01*
X156070591Y-98818991D01*
X155930243Y-99029035D01*
X155880960Y-99276800D01*
X155880960Y-100976800D01*
X155930243Y-101224565D01*
X156070591Y-101434609D01*
X156280635Y-101574957D01*
X156326019Y-101583984D01*
X156307775Y-101596175D01*
X155979561Y-102087382D01*
X155864308Y-102666800D01*
X149225822Y-102666800D01*
X149626896Y-102265726D01*
X149943100Y-101502341D01*
X149943100Y-100676059D01*
X149626896Y-99912674D01*
X149042626Y-99328404D01*
X148279241Y-99012200D01*
X147452959Y-99012200D01*
X146689574Y-99328404D01*
X146105304Y-99912674D01*
X145789100Y-100676059D01*
X145220661Y-100676059D01*
X145211436Y-94352115D01*
X148918000Y-94352115D01*
X148918000Y-94979485D01*
X149158084Y-95559099D01*
X149601701Y-96002716D01*
X150181315Y-96242800D01*
X150808685Y-96242800D01*
X151388299Y-96002716D01*
X151831916Y-95559099D01*
X152072000Y-94979485D01*
X152072000Y-94352115D01*
X152051275Y-94302081D01*
X152078651Y-94261111D01*
X152129999Y-94002966D01*
X152129999Y-94002962D01*
X152147336Y-93915801D01*
X152129999Y-93828640D01*
X152129999Y-92652377D01*
X153821437Y-94343816D01*
X153818000Y-94352115D01*
X153818000Y-94979485D01*
X154058084Y-95559099D01*
X154501701Y-96002716D01*
X155081315Y-96242800D01*
X155708685Y-96242800D01*
X156288299Y-96002716D01*
X156731916Y-95559099D01*
X156972000Y-94979485D01*
X156972000Y-94352115D01*
X156731916Y-93772501D01*
X156288299Y-93328884D01*
X155708685Y-93088800D01*
X155081315Y-93088800D01*
X155073016Y-93092237D01*
X153132600Y-91151822D01*
X153132600Y-87959803D01*
X153197812Y-88057399D01*
X153256447Y-88145153D01*
X153321992Y-88188949D01*
X165899171Y-100766128D01*
X165942967Y-100831673D01*
X166202628Y-101005174D01*
X166431604Y-101050720D01*
X166431608Y-101050720D01*
X166508920Y-101066098D01*
X166586232Y-101050720D01*
X169217201Y-101050720D01*
X169217200Y-105470513D01*
X168879798Y-105403400D01*
X168584602Y-105403400D01*
X168147475Y-105490350D01*
X167651770Y-105821570D01*
X167462200Y-106105281D01*
X167272630Y-105821570D01*
X166776925Y-105490350D01*
X166339798Y-105403400D01*
X166044602Y-105403400D01*
X165607475Y-105490350D01*
X165111770Y-105821570D01*
X164922200Y-106105281D01*
X164732630Y-105821570D01*
X164236925Y-105490350D01*
X163799798Y-105403400D01*
X163504602Y-105403400D01*
X163067475Y-105490350D01*
X162571770Y-105821570D01*
X162240550Y-106317275D01*
X162124241Y-106902000D01*
X162240550Y-107486725D01*
X162571770Y-107982430D01*
X162855481Y-108172000D01*
X162571770Y-108361570D01*
X162240550Y-108857275D01*
X162124241Y-109442000D01*
X162240550Y-110026725D01*
X162571770Y-110522430D01*
X163067475Y-110853650D01*
X163504602Y-110940600D01*
X163799798Y-110940600D01*
X164236925Y-110853650D01*
X164732630Y-110522430D01*
X164922200Y-110238719D01*
X165111770Y-110522430D01*
X165607475Y-110853650D01*
X166044602Y-110940600D01*
X166339798Y-110940600D01*
X166776925Y-110853650D01*
X167272630Y-110522430D01*
X167462200Y-110238719D01*
X167651770Y-110522430D01*
X168147475Y-110853650D01*
X168584602Y-110940600D01*
X168879798Y-110940600D01*
X169316925Y-110853650D01*
X169812630Y-110522430D01*
X170002200Y-110238719D01*
X170191770Y-110522430D01*
X170687475Y-110853650D01*
X171124602Y-110940600D01*
X171419798Y-110940600D01*
X171856925Y-110853650D01*
X172352630Y-110522430D01*
X172542200Y-110238719D01*
X172731770Y-110522430D01*
X173227475Y-110853650D01*
X173664602Y-110940600D01*
X173959798Y-110940600D01*
X174396925Y-110853650D01*
X174892630Y-110522430D01*
X175082200Y-110238719D01*
X175271770Y-110522430D01*
X175767475Y-110853650D01*
X176204602Y-110940600D01*
X176499798Y-110940600D01*
X176936925Y-110853650D01*
X177432630Y-110522430D01*
X177622200Y-110238719D01*
X177811770Y-110522430D01*
X178307475Y-110853650D01*
X178744602Y-110940600D01*
X179039798Y-110940600D01*
X179476925Y-110853650D01*
X179972630Y-110522430D01*
X180162200Y-110238719D01*
X180351770Y-110522430D01*
X180847475Y-110853650D01*
X181284602Y-110940600D01*
X181579798Y-110940600D01*
X182016925Y-110853650D01*
X182512630Y-110522430D01*
X182702200Y-110238719D01*
X182891770Y-110522430D01*
X183387475Y-110853650D01*
X183824602Y-110940600D01*
X184119798Y-110940600D01*
X184556925Y-110853650D01*
X185052630Y-110522430D01*
X185242200Y-110238719D01*
X185431770Y-110522430D01*
X185927475Y-110853650D01*
X186364602Y-110940600D01*
X186659798Y-110940600D01*
X187096925Y-110853650D01*
X187592630Y-110522430D01*
X187923850Y-110026725D01*
X188040159Y-109442000D01*
X187923850Y-108857275D01*
X187597549Y-108368932D01*
X187623565Y-108363757D01*
X187833609Y-108223409D01*
X187973957Y-108013365D01*
X188023240Y-107765600D01*
X188023240Y-106038400D01*
X187973957Y-105790635D01*
X187833609Y-105580591D01*
X187623565Y-105440243D01*
X187375800Y-105390960D01*
X187297200Y-105390960D01*
X187297200Y-103302912D01*
X187312578Y-103225600D01*
X187297925Y-103151935D01*
X187567750Y-103263700D01*
X188098250Y-103263700D01*
X188588367Y-103060687D01*
X188963487Y-102685567D01*
X189166500Y-102195450D01*
X189166500Y-101664950D01*
X194119500Y-101664950D01*
X194119500Y-102195450D01*
X194322513Y-102685567D01*
X194697633Y-103060687D01*
X195187750Y-103263700D01*
X195718250Y-103263700D01*
X196208367Y-103060687D01*
X196583487Y-102685567D01*
X196786500Y-102195450D01*
X196786500Y-101664950D01*
X196583487Y-101174833D01*
X196208367Y-100799713D01*
X195718250Y-100596700D01*
X195187750Y-100596700D01*
X194697633Y-100799713D01*
X194322513Y-101174833D01*
X194119500Y-101664950D01*
X189166500Y-101664950D01*
X188963487Y-101174833D01*
X188588367Y-100799713D01*
X188098250Y-100596700D01*
X187567750Y-100596700D01*
X187077633Y-100799713D01*
X186702513Y-101174833D01*
X186499500Y-101664950D01*
X186499500Y-102102742D01*
X182181146Y-97784388D01*
X187078417Y-97784388D01*
X187140071Y-98020000D01*
X187640480Y-98196127D01*
X188170199Y-98167348D01*
X188525929Y-98020000D01*
X188587583Y-97784388D01*
X194698417Y-97784388D01*
X194760071Y-98020000D01*
X195260480Y-98196127D01*
X195790199Y-98167348D01*
X196145929Y-98020000D01*
X196207583Y-97784388D01*
X195453000Y-97029805D01*
X194698417Y-97784388D01*
X188587583Y-97784388D01*
X187833000Y-97029805D01*
X187078417Y-97784388D01*
X182181146Y-97784388D01*
X181054438Y-96657680D01*
X186487073Y-96657680D01*
X186515852Y-97187399D01*
X186663200Y-97543129D01*
X186898812Y-97604783D01*
X187653395Y-96850200D01*
X188012605Y-96850200D01*
X188767188Y-97604783D01*
X189002800Y-97543129D01*
X189178927Y-97042720D01*
X189158009Y-96657680D01*
X194107073Y-96657680D01*
X194135852Y-97187399D01*
X194283200Y-97543129D01*
X194518812Y-97604783D01*
X195273395Y-96850200D01*
X195632605Y-96850200D01*
X196387188Y-97604783D01*
X196622800Y-97543129D01*
X196798927Y-97042720D01*
X196770148Y-96513001D01*
X196622800Y-96157271D01*
X196387188Y-96095617D01*
X195632605Y-96850200D01*
X195273395Y-96850200D01*
X194518812Y-96095617D01*
X194283200Y-96157271D01*
X194107073Y-96657680D01*
X189158009Y-96657680D01*
X189150148Y-96513001D01*
X189002800Y-96157271D01*
X188767188Y-96095617D01*
X188012605Y-96850200D01*
X187653395Y-96850200D01*
X186898812Y-96095617D01*
X186663200Y-96157271D01*
X186487073Y-96657680D01*
X181054438Y-96657680D01*
X180312770Y-95916012D01*
X187078417Y-95916012D01*
X187833000Y-96670595D01*
X188587583Y-95916012D01*
X194698417Y-95916012D01*
X195453000Y-96670595D01*
X196207583Y-95916012D01*
X196145929Y-95680400D01*
X195645520Y-95504273D01*
X195115801Y-95533052D01*
X194760071Y-95680400D01*
X194698417Y-95916012D01*
X188587583Y-95916012D01*
X188525929Y-95680400D01*
X188025520Y-95504273D01*
X187495801Y-95533052D01*
X187140071Y-95680400D01*
X187078417Y-95916012D01*
X180312770Y-95916012D01*
X176961948Y-92565191D01*
X176918153Y-92499647D01*
X176658492Y-92326146D01*
X176429516Y-92280600D01*
X176429512Y-92280600D01*
X176352200Y-92265222D01*
X176274888Y-92280600D01*
X169920958Y-92280600D01*
X166606957Y-88966600D01*
X166742657Y-88966600D01*
X167196571Y-88778582D01*
X167543982Y-88431171D01*
X167732000Y-87977257D01*
X167732000Y-87485943D01*
X167543982Y-87032029D01*
X167302000Y-86790047D01*
X167302000Y-85504000D01*
X167394002Y-85504000D01*
X167394002Y-85370115D01*
X167468931Y-85420181D01*
X167552750Y-85504000D01*
X167673310Y-85504000D01*
X167689904Y-85497127D01*
X167787000Y-85516440D01*
X167974201Y-85516440D01*
X167974200Y-86501439D01*
X167956863Y-86588600D01*
X167974200Y-86675761D01*
X167974200Y-86675764D01*
X168025548Y-86933909D01*
X168221151Y-87226649D01*
X168295047Y-87276025D01*
X172426007Y-91406986D01*
X172475381Y-91480879D01*
X172549274Y-91530253D01*
X172549275Y-91530254D01*
X172732669Y-91652794D01*
X172768120Y-91676482D01*
X173026265Y-91727830D01*
X173026269Y-91727830D01*
X173113430Y-91745167D01*
X173200591Y-91727830D01*
X183126561Y-91727830D01*
X183213722Y-91745167D01*
X183300883Y-91727830D01*
X183300887Y-91727830D01*
X183559032Y-91676482D01*
X183851771Y-91480879D01*
X183901147Y-91406983D01*
X185523131Y-89785000D01*
X191776439Y-89785000D01*
X191863600Y-89802337D01*
X191950761Y-89785000D01*
X191950765Y-89785000D01*
X192208910Y-89733652D01*
X192501649Y-89538049D01*
X192551025Y-89464153D01*
X192715154Y-89300024D01*
X192789049Y-89250649D01*
X192984652Y-88957910D01*
X193024398Y-88758091D01*
X193262365Y-88710757D01*
X193472409Y-88570409D01*
X193612757Y-88360365D01*
X193662040Y-88112600D01*
X193662040Y-86385400D01*
X193612757Y-86137635D01*
X193472409Y-85927591D01*
X193262365Y-85787243D01*
X193236349Y-85782068D01*
X193562650Y-85293725D01*
X193678959Y-84709000D01*
X193562650Y-84124275D01*
X193231430Y-83628570D01*
X192947719Y-83439000D01*
X193231430Y-83249430D01*
X193562650Y-82753725D01*
X193678959Y-82169000D01*
X193562650Y-81584275D01*
X193231430Y-81088570D01*
X192947719Y-80899000D01*
X193231430Y-80709430D01*
X193562650Y-80213725D01*
X193678959Y-79629000D01*
X193562650Y-79044275D01*
X193555813Y-79034043D01*
X193611179Y-78997049D01*
X193660555Y-78923153D01*
X195496685Y-77087024D01*
X195570578Y-77037650D01*
X195635286Y-76940809D01*
X195766181Y-76744911D01*
X195775680Y-76697157D01*
X195817529Y-76486766D01*
X195817529Y-76486762D01*
X195834866Y-76399601D01*
X195817529Y-76312440D01*
X195817529Y-71688266D01*
X195834866Y-71601106D01*
X195817529Y-71513946D01*
X195817529Y-71513942D01*
X195766181Y-71255797D01*
X195653236Y-71086764D01*
X195619953Y-71036952D01*
X195619952Y-71036951D01*
X195570578Y-70963058D01*
X195496685Y-70913684D01*
X193894247Y-69311247D01*
X193844871Y-69237351D01*
X193552132Y-69041748D01*
X193293987Y-68990400D01*
X193293983Y-68990400D01*
X193206822Y-68973063D01*
X193119661Y-68990400D01*
X181138361Y-68990400D01*
X181051200Y-68973063D01*
X180964039Y-68990400D01*
X180964035Y-68990400D01*
X180720877Y-69038767D01*
X180705890Y-69041748D01*
X180487045Y-69187976D01*
X180487044Y-69187977D01*
X180413151Y-69237351D01*
X180363777Y-69311244D01*
X177155400Y-72519622D01*
X177155400Y-72322143D01*
X176967382Y-71868229D01*
X176619971Y-71520818D01*
X176166057Y-71332800D01*
X175674743Y-71332800D01*
X175606000Y-71361274D01*
X175606000Y-71288200D01*
X175785057Y-71288200D01*
X176238971Y-71100182D01*
X176586382Y-70752771D01*
X176774400Y-70298857D01*
X176774400Y-69807543D01*
X176586382Y-69353629D01*
X176238971Y-69006218D01*
X175785057Y-68818200D01*
X175293743Y-68818200D01*
X174839829Y-69006218D01*
X174627847Y-69218200D01*
X173145037Y-69218200D01*
X173062800Y-69201842D01*
X172980563Y-69218200D01*
X172736999Y-69266648D01*
X172460799Y-69451199D01*
X172414215Y-69520917D01*
X172152000Y-69783132D01*
X172152000Y-68641948D01*
X172102000Y-68390580D01*
X172102000Y-68132305D01*
X172053552Y-67888741D01*
X172052000Y-67886418D01*
X172052000Y-64757917D01*
X173164087Y-63645830D01*
X175225788Y-63645830D01*
X175228111Y-63647382D01*
X175471675Y-63695830D01*
X185418137Y-63695830D01*
X185500370Y-63712187D01*
X185582603Y-63695830D01*
X185582607Y-63695830D01*
X185826171Y-63647382D01*
X186102371Y-63462831D01*
X186148957Y-63393110D01*
X188466883Y-61075185D01*
X188536601Y-61028601D01*
X188721152Y-60752401D01*
X188769600Y-60508837D01*
X188769600Y-60508834D01*
X188785957Y-60426601D01*
X188769600Y-60344368D01*
X188769600Y-58654632D01*
X188785957Y-58572399D01*
X188769600Y-58490164D01*
X188769600Y-58490163D01*
X188721152Y-58246599D01*
X188642562Y-58128981D01*
X188583184Y-58040115D01*
X188583183Y-58040114D01*
X188536601Y-57970399D01*
X188466885Y-57923817D01*
X187902986Y-57359918D01*
X187856400Y-57290198D01*
X187580200Y-57105647D01*
X187336636Y-57057199D01*
X187336632Y-57057199D01*
X187299033Y-57049720D01*
X187357568Y-56924827D01*
X187237069Y-56692800D01*
X186029600Y-56692800D01*
X186029600Y-56712800D01*
X185775600Y-56712800D01*
X185775600Y-56692800D01*
X183489600Y-56692800D01*
X183489600Y-56712800D01*
X183235600Y-56712800D01*
X183235600Y-56692800D01*
X180949600Y-56692800D01*
X180949600Y-56712800D01*
X180695600Y-56712800D01*
X180695600Y-56692800D01*
X178409600Y-56692800D01*
X178409600Y-56712800D01*
X178155600Y-56712800D01*
X178155600Y-56692800D01*
X178135600Y-56692800D01*
X178135600Y-56438800D01*
X178155600Y-56438800D01*
X178155600Y-55231983D01*
X178409600Y-55231983D01*
X178409600Y-56438800D01*
X180695600Y-56438800D01*
X180695600Y-55231983D01*
X180949600Y-55231983D01*
X180949600Y-56438800D01*
X183235600Y-56438800D01*
X183235600Y-55231983D01*
X183489600Y-55231983D01*
X183489600Y-56438800D01*
X185775600Y-56438800D01*
X185775600Y-55231983D01*
X186029600Y-55231983D01*
X186029600Y-56438800D01*
X187237069Y-56438800D01*
X187357568Y-56206773D01*
X187109421Y-55677310D01*
X186677547Y-55283112D01*
X186261626Y-55110842D01*
X186029600Y-55231983D01*
X185775600Y-55231983D01*
X185543574Y-55110842D01*
X185127653Y-55283112D01*
X184695779Y-55677310D01*
X184632600Y-55812113D01*
X184569421Y-55677310D01*
X184137547Y-55283112D01*
X183721626Y-55110842D01*
X183489600Y-55231983D01*
X183235600Y-55231983D01*
X183003574Y-55110842D01*
X182587653Y-55283112D01*
X182155779Y-55677310D01*
X182092600Y-55812113D01*
X182029421Y-55677310D01*
X181597547Y-55283112D01*
X181181626Y-55110842D01*
X180949600Y-55231983D01*
X180695600Y-55231983D01*
X180463574Y-55110842D01*
X180047653Y-55283112D01*
X179615779Y-55677310D01*
X179552600Y-55812113D01*
X179489421Y-55677310D01*
X179057547Y-55283112D01*
X178641626Y-55110842D01*
X178409600Y-55231983D01*
X178155600Y-55231983D01*
X177923574Y-55110842D01*
X177507653Y-55283112D01*
X177075779Y-55677310D01*
X177024454Y-55786821D01*
X176823030Y-55485370D01*
X176327325Y-55154150D01*
X175890198Y-55067200D01*
X175595002Y-55067200D01*
X175157875Y-55154150D01*
X174662170Y-55485370D01*
X174330950Y-55981075D01*
X174214641Y-56565800D01*
X174330950Y-57150525D01*
X174657251Y-57638868D01*
X174631235Y-57644043D01*
X174421191Y-57784391D01*
X174280843Y-57994435D01*
X174231560Y-58242200D01*
X174231560Y-59969400D01*
X174280843Y-60217165D01*
X174286613Y-60225800D01*
X172644912Y-60225800D01*
X172567600Y-60210422D01*
X172490288Y-60225800D01*
X172490284Y-60225800D01*
X172261308Y-60271346D01*
X172001647Y-60444847D01*
X171957851Y-60510392D01*
X168366592Y-64101651D01*
X168301047Y-64145447D01*
X168257251Y-64210992D01*
X168127547Y-64405108D01*
X168127546Y-64405109D01*
X168082000Y-64634085D01*
X168082000Y-64634088D01*
X168066622Y-64711400D01*
X168082000Y-64788712D01*
X168082001Y-67736076D01*
X168080448Y-67738400D01*
X168032000Y-67981964D01*
X168032001Y-70921560D01*
X167787000Y-70921560D01*
X167689904Y-70940873D01*
X167673310Y-70934000D01*
X167552750Y-70934000D01*
X167468931Y-71017819D01*
X167394002Y-71067885D01*
X167394002Y-70934000D01*
X167302000Y-70934000D01*
X167302000Y-70693558D01*
X167348537Y-70459599D01*
X167279851Y-70114289D01*
X167133624Y-69895445D01*
X165711225Y-68473047D01*
X165661849Y-68399151D01*
X165369110Y-68203548D01*
X165110965Y-68152200D01*
X165110961Y-68152200D01*
X165023800Y-68134863D01*
X164936639Y-68152200D01*
X155077961Y-68152200D01*
X154990800Y-68134863D01*
X154903639Y-68152200D01*
X154903635Y-68152200D01*
X154645490Y-68203548D01*
X154426645Y-68349776D01*
X154426644Y-68349777D01*
X154352751Y-68399151D01*
X154303377Y-68473044D01*
X150680846Y-72095576D01*
X150606950Y-72144952D01*
X150411347Y-72437692D01*
X150359999Y-72695837D01*
X150359999Y-72695840D01*
X150342662Y-72783001D01*
X150359999Y-72870162D01*
X150360000Y-93088800D01*
X150181315Y-93088800D01*
X149601701Y-93328884D01*
X149158084Y-93772501D01*
X148918000Y-94352115D01*
X145211436Y-94352115D01*
X145195743Y-83594559D01*
X145789100Y-83594559D01*
X145789100Y-84420841D01*
X146105304Y-85184226D01*
X146689574Y-85768496D01*
X147452959Y-86084700D01*
X148279241Y-86084700D01*
X149042626Y-85768496D01*
X149626896Y-85184226D01*
X149943100Y-84420841D01*
X149943100Y-83594559D01*
X149626896Y-82831174D01*
X149042626Y-82246904D01*
X148279241Y-81930700D01*
X147452959Y-81930700D01*
X146689574Y-82246904D01*
X146105304Y-82831174D01*
X145789100Y-83594559D01*
X145195743Y-83594559D01*
X145186400Y-77190415D01*
X145176733Y-77141999D01*
X145149203Y-77100797D01*
X145108001Y-77073267D01*
X145059400Y-77063600D01*
X109171089Y-77063600D01*
X109271967Y-77021815D01*
X110067215Y-76226567D01*
X110497600Y-75187525D01*
X110497600Y-74062875D01*
X110067215Y-73023833D01*
X109271967Y-72228585D01*
X108232925Y-71798200D01*
X107108275Y-71798200D01*
X106069233Y-72228585D01*
X105688200Y-72609618D01*
X105688200Y-70535800D01*
X114495146Y-70535800D01*
X114625301Y-71190133D01*
X114995951Y-71744849D01*
X115410068Y-72021554D01*
X115418448Y-72063681D01*
X115518086Y-72212800D01*
X115603000Y-72339882D01*
X115672718Y-72386466D01*
X117249934Y-73963683D01*
X117296518Y-74033401D01*
X117572718Y-74217952D01*
X117816282Y-74266400D01*
X117898519Y-74282758D01*
X117980756Y-74266400D01*
X122955367Y-74266400D01*
X123037600Y-74282757D01*
X123119833Y-74266400D01*
X123119837Y-74266400D01*
X123363401Y-74217952D01*
X123639601Y-74033401D01*
X123686187Y-73963680D01*
X124814483Y-72835385D01*
X124884201Y-72788801D01*
X125068752Y-72512601D01*
X125117200Y-72269037D01*
X125117200Y-72269034D01*
X125133557Y-72186801D01*
X125117200Y-72104568D01*
X125117200Y-70485000D01*
X126941146Y-70485000D01*
X127071301Y-71139333D01*
X127441951Y-71694049D01*
X127996667Y-72064699D01*
X128485832Y-72162000D01*
X128816168Y-72162000D01*
X129305333Y-72064699D01*
X129860049Y-71694049D01*
X129921000Y-71602830D01*
X129981951Y-71694049D01*
X130536667Y-72064699D01*
X131025832Y-72162000D01*
X131356168Y-72162000D01*
X131845333Y-72064699D01*
X132400049Y-71694049D01*
X132587521Y-71413478D01*
X132964076Y-71756645D01*
X133374110Y-71926476D01*
X133604000Y-71805155D01*
X133604000Y-70612000D01*
X133584000Y-70612000D01*
X133584000Y-70358000D01*
X133604000Y-70358000D01*
X133604000Y-69164845D01*
X133858000Y-69164845D01*
X133858000Y-70358000D01*
X133878000Y-70358000D01*
X133878000Y-70612000D01*
X133858000Y-70612000D01*
X133858000Y-71805155D01*
X134087890Y-71926476D01*
X134497924Y-71756645D01*
X134636542Y-71630318D01*
X134641984Y-71657679D01*
X134824767Y-71931233D01*
X135098321Y-72114016D01*
X135421000Y-72178201D01*
X137121000Y-72178201D01*
X137443679Y-72114016D01*
X137717233Y-71931233D01*
X137900016Y-71657679D01*
X137964201Y-71335000D01*
X137964201Y-70358000D01*
X142155746Y-70358000D01*
X142285901Y-71012333D01*
X142656551Y-71567049D01*
X143211267Y-71937699D01*
X143700432Y-72035000D01*
X144030768Y-72035000D01*
X144519933Y-71937699D01*
X145074649Y-71567049D01*
X145445299Y-71012333D01*
X145575454Y-70358000D01*
X145445299Y-69703667D01*
X145201111Y-69338215D01*
X145311833Y-69264233D01*
X145494616Y-68990679D01*
X145558801Y-68668000D01*
X145558801Y-66968000D01*
X145494616Y-66645321D01*
X145311833Y-66371767D01*
X145038279Y-66188984D01*
X144715600Y-66124799D01*
X143015600Y-66124799D01*
X142692921Y-66188984D01*
X142419367Y-66371767D01*
X142236584Y-66645321D01*
X142172399Y-66968000D01*
X142172399Y-68668000D01*
X142236584Y-68990679D01*
X142419367Y-69264233D01*
X142530089Y-69338215D01*
X142285901Y-69703667D01*
X142155746Y-70358000D01*
X137964201Y-70358000D01*
X137964201Y-69635000D01*
X137900016Y-69312321D01*
X137717233Y-69038767D01*
X137443679Y-68855984D01*
X137121000Y-68791799D01*
X135421000Y-68791799D01*
X135098321Y-68855984D01*
X134824767Y-69038767D01*
X134641984Y-69312321D01*
X134636542Y-69339682D01*
X134497924Y-69213355D01*
X134087890Y-69043524D01*
X133858000Y-69164845D01*
X133604000Y-69164845D01*
X133374110Y-69043524D01*
X132964076Y-69213355D01*
X132587521Y-69556522D01*
X132400049Y-69275951D01*
X131845333Y-68905301D01*
X131356168Y-68808000D01*
X131025832Y-68808000D01*
X130536667Y-68905301D01*
X129981951Y-69275951D01*
X129921000Y-69367170D01*
X129860049Y-69275951D01*
X129305333Y-68905301D01*
X128816168Y-68808000D01*
X128485832Y-68808000D01*
X127996667Y-68905301D01*
X127441951Y-69275951D01*
X127071301Y-69830667D01*
X126941146Y-70485000D01*
X125117200Y-70485000D01*
X125117200Y-67851733D01*
X125167200Y-67600365D01*
X125167200Y-63348141D01*
X157117400Y-63348141D01*
X157117400Y-64058259D01*
X157389150Y-64714321D01*
X157891279Y-65216450D01*
X158547341Y-65488200D01*
X159257459Y-65488200D01*
X159913521Y-65216450D01*
X160415650Y-64714321D01*
X160687400Y-64058259D01*
X160687400Y-63348141D01*
X160415650Y-62692079D01*
X159913521Y-62189950D01*
X159257459Y-61918200D01*
X158547341Y-61918200D01*
X157891279Y-62189950D01*
X157389150Y-62692079D01*
X157117400Y-63348141D01*
X125167200Y-63348141D01*
X125167200Y-60504717D01*
X136577800Y-60504717D01*
X136577800Y-61059683D01*
X136790176Y-61572404D01*
X137182596Y-61964824D01*
X137695317Y-62177200D01*
X138250283Y-62177200D01*
X138763004Y-61964824D01*
X139155424Y-61572404D01*
X139242800Y-61361460D01*
X139330176Y-61572404D01*
X139722596Y-61964824D01*
X140235317Y-62177200D01*
X140790283Y-62177200D01*
X141303004Y-61964824D01*
X141695424Y-61572404D01*
X141907800Y-61059683D01*
X141907800Y-60808141D01*
X149497400Y-60808141D01*
X149497400Y-61518259D01*
X149769150Y-62174321D01*
X150271279Y-62676450D01*
X150927341Y-62948200D01*
X151637459Y-62948200D01*
X152293521Y-62676450D01*
X152795650Y-62174321D01*
X153067400Y-61518259D01*
X153067400Y-60808141D01*
X152795650Y-60152079D01*
X152293521Y-59649950D01*
X151637459Y-59378200D01*
X150927341Y-59378200D01*
X150271279Y-59649950D01*
X149769150Y-60152079D01*
X149497400Y-60808141D01*
X141907800Y-60808141D01*
X141907800Y-60504717D01*
X141695424Y-59991996D01*
X141485628Y-59782200D01*
X141695424Y-59572404D01*
X141907800Y-59059683D01*
X141907800Y-58504717D01*
X141695424Y-57991996D01*
X141303004Y-57599576D01*
X141033136Y-57487793D01*
X144016812Y-57487793D01*
X144158278Y-57790982D01*
X144894755Y-58075937D01*
X145684218Y-58057364D01*
X146327322Y-57790982D01*
X146468788Y-57487793D01*
X145242800Y-56261805D01*
X144016812Y-57487793D01*
X141033136Y-57487793D01*
X140790283Y-57387200D01*
X140235317Y-57387200D01*
X139722596Y-57599576D01*
X139330176Y-57991996D01*
X139249378Y-58187059D01*
X139193542Y-58052259D01*
X138951564Y-57983041D01*
X138152405Y-58782200D01*
X138951564Y-59581359D01*
X139193542Y-59512141D01*
X139245206Y-59367269D01*
X139330176Y-59572404D01*
X139539972Y-59782200D01*
X139330176Y-59991996D01*
X139242800Y-60202940D01*
X139155424Y-59991996D01*
X138763004Y-59599576D01*
X138502785Y-59491790D01*
X137972800Y-58961805D01*
X137442815Y-59491790D01*
X137182596Y-59599576D01*
X136790176Y-59991996D01*
X136577800Y-60504717D01*
X125167200Y-60504717D01*
X125167200Y-60375588D01*
X126967808Y-58574980D01*
X136565645Y-58574980D01*
X136593459Y-59129249D01*
X136752058Y-59512141D01*
X136994036Y-59581359D01*
X137793195Y-58782200D01*
X136994036Y-57983041D01*
X136752058Y-58052259D01*
X136565645Y-58574980D01*
X126967808Y-58574980D01*
X128054995Y-57487793D01*
X132016812Y-57487793D01*
X132158278Y-57790982D01*
X132894755Y-58075937D01*
X133684218Y-58057364D01*
X134297255Y-57803436D01*
X137173641Y-57803436D01*
X137972800Y-58602595D01*
X138771959Y-57803436D01*
X138702741Y-57561458D01*
X138180020Y-57375045D01*
X137625751Y-57402859D01*
X137242859Y-57561458D01*
X137173641Y-57803436D01*
X134297255Y-57803436D01*
X134327322Y-57790982D01*
X134468788Y-57487793D01*
X133242800Y-56261805D01*
X132016812Y-57487793D01*
X128054995Y-57487793D01*
X129808633Y-55734155D01*
X131249063Y-55734155D01*
X131267636Y-56523618D01*
X131534018Y-57166722D01*
X131837207Y-57308188D01*
X133063195Y-56082200D01*
X133422405Y-56082200D01*
X134648393Y-57308188D01*
X134951582Y-57166722D01*
X135236537Y-56430245D01*
X135220161Y-55734155D01*
X143249063Y-55734155D01*
X143267636Y-56523618D01*
X143534018Y-57166722D01*
X143837207Y-57308188D01*
X145063195Y-56082200D01*
X145422405Y-56082200D01*
X146648393Y-57308188D01*
X146951582Y-57166722D01*
X147236537Y-56430245D01*
X147217964Y-55640782D01*
X146951582Y-54997678D01*
X146648393Y-54856212D01*
X145422405Y-56082200D01*
X145063195Y-56082200D01*
X143837207Y-54856212D01*
X143534018Y-54997678D01*
X143249063Y-55734155D01*
X135220161Y-55734155D01*
X135217964Y-55640782D01*
X134951582Y-54997678D01*
X134648393Y-54856212D01*
X133422405Y-56082200D01*
X133063195Y-56082200D01*
X131837207Y-54856212D01*
X131534018Y-54997678D01*
X131249063Y-55734155D01*
X129808633Y-55734155D01*
X130866181Y-54676607D01*
X132016812Y-54676607D01*
X133242800Y-55902595D01*
X134468788Y-54676607D01*
X144016812Y-54676607D01*
X145242800Y-55902595D01*
X146468788Y-54676607D01*
X146327322Y-54373418D01*
X145590845Y-54088463D01*
X144801382Y-54107036D01*
X144158278Y-54373418D01*
X144016812Y-54676607D01*
X134468788Y-54676607D01*
X134327322Y-54373418D01*
X133590845Y-54088463D01*
X132801382Y-54107036D01*
X132158278Y-54373418D01*
X132016812Y-54676607D01*
X130866181Y-54676607D01*
X133294631Y-52248158D01*
X133402247Y-52176251D01*
X133451623Y-52102355D01*
X133931769Y-51622210D01*
X149964032Y-51622210D01*
X155477400Y-57135579D01*
X155477400Y-57954294D01*
X155335650Y-57612079D01*
X154833521Y-57109950D01*
X154177459Y-56838200D01*
X153467341Y-56838200D01*
X152811279Y-57109950D01*
X152309150Y-57612079D01*
X152037400Y-58268141D01*
X152037400Y-58978259D01*
X152309150Y-59634321D01*
X152811279Y-60136450D01*
X153467341Y-60408200D01*
X154177459Y-60408200D01*
X154833521Y-60136450D01*
X155335650Y-59634321D01*
X155477401Y-59292105D01*
X155477401Y-59597709D01*
X155351279Y-59649950D01*
X154849150Y-60152079D01*
X154577400Y-60808141D01*
X154577400Y-61518259D01*
X154849150Y-62174321D01*
X155351279Y-62676450D01*
X156007341Y-62948200D01*
X156717459Y-62948200D01*
X157373521Y-62676450D01*
X157875650Y-62174321D01*
X158147400Y-61518259D01*
X158147400Y-60808141D01*
X157875650Y-60152079D01*
X157714390Y-59990819D01*
X157820982Y-59884226D01*
X157938001Y-60166646D01*
X158602063Y-60418218D01*
X159311848Y-60396514D01*
X159866799Y-60166646D01*
X159983818Y-59884226D01*
X160090411Y-59990819D01*
X159929150Y-60152079D01*
X159657400Y-60808141D01*
X159657400Y-61518259D01*
X159929150Y-62174321D01*
X160431279Y-62676450D01*
X161087341Y-62948200D01*
X161797459Y-62948200D01*
X162453521Y-62676450D01*
X162955650Y-62174321D01*
X163227400Y-61518259D01*
X163227400Y-60808141D01*
X164737400Y-60808141D01*
X164737400Y-61518259D01*
X165009150Y-62174321D01*
X165511279Y-62676450D01*
X166167341Y-62948200D01*
X166877459Y-62948200D01*
X167533521Y-62676450D01*
X168035650Y-62174321D01*
X168307400Y-61518259D01*
X168307400Y-60808141D01*
X168035650Y-60152079D01*
X167533521Y-59649950D01*
X166877459Y-59378200D01*
X166167341Y-59378200D01*
X165511279Y-59649950D01*
X165009150Y-60152079D01*
X164737400Y-60808141D01*
X163227400Y-60808141D01*
X162955650Y-60152079D01*
X162453521Y-59649950D01*
X162277400Y-59576998D01*
X162277400Y-59171396D01*
X162469150Y-59634321D01*
X162971279Y-60136450D01*
X163627341Y-60408200D01*
X164337459Y-60408200D01*
X164993521Y-60136450D01*
X165495650Y-59634321D01*
X165767400Y-58978259D01*
X165767400Y-58268141D01*
X165495650Y-57612079D01*
X164993521Y-57109950D01*
X164337459Y-56838200D01*
X163627341Y-56838200D01*
X162971279Y-57109950D01*
X162469150Y-57612079D01*
X162293289Y-58036645D01*
X162277400Y-57956764D01*
X162277400Y-57956763D01*
X162228952Y-57713199D01*
X162184205Y-57646230D01*
X162090984Y-57506715D01*
X162090983Y-57506714D01*
X162044401Y-57436999D01*
X161974686Y-57390417D01*
X159754187Y-55169920D01*
X159707601Y-55100199D01*
X159431401Y-54915648D01*
X159187837Y-54867200D01*
X159187833Y-54867200D01*
X159105600Y-54850843D01*
X159023367Y-54867200D01*
X156708268Y-54867200D01*
X151295987Y-49454920D01*
X151249401Y-49385199D01*
X150973201Y-49200648D01*
X150729637Y-49152200D01*
X150729633Y-49152200D01*
X150647400Y-49135843D01*
X150565167Y-49152200D01*
X133510727Y-49152200D01*
X133172199Y-49084863D01*
X132826889Y-49153549D01*
X132608045Y-49299776D01*
X131388846Y-50518976D01*
X131314951Y-50568351D01*
X131264719Y-50643528D01*
X120720845Y-61187403D01*
X120646952Y-61236777D01*
X120597578Y-61310670D01*
X120597576Y-61310672D01*
X120451348Y-61529517D01*
X120382663Y-61874826D01*
X120400001Y-61961991D01*
X120400000Y-68849561D01*
X120112321Y-68906784D01*
X119838767Y-69089567D01*
X119655984Y-69363121D01*
X119650542Y-69390482D01*
X119511924Y-69264155D01*
X119101890Y-69094324D01*
X118872000Y-69215645D01*
X118872000Y-70408800D01*
X118892000Y-70408800D01*
X118892000Y-70662800D01*
X118872000Y-70662800D01*
X118872000Y-71855955D01*
X119101890Y-71977276D01*
X119511924Y-71807445D01*
X119650542Y-71681118D01*
X119655984Y-71708479D01*
X119838767Y-71982033D01*
X120112321Y-72164816D01*
X120435000Y-72229001D01*
X122135000Y-72229001D01*
X122457679Y-72164816D01*
X122731233Y-71982033D01*
X122914016Y-71708479D01*
X122978201Y-71385800D01*
X122978201Y-69685800D01*
X122914016Y-69363121D01*
X122731233Y-69089567D01*
X122457679Y-68906784D01*
X122170000Y-68849561D01*
X122170000Y-62241404D01*
X123397201Y-61014203D01*
X123397200Y-67600364D01*
X123447201Y-67851737D01*
X123447200Y-71840932D01*
X122691733Y-72596400D01*
X118244387Y-72596400D01*
X117401332Y-71753346D01*
X117414049Y-71744849D01*
X117601521Y-71464278D01*
X117978076Y-71807445D01*
X118388110Y-71977276D01*
X118618000Y-71855955D01*
X118618000Y-70662800D01*
X118598000Y-70662800D01*
X118598000Y-70408800D01*
X118618000Y-70408800D01*
X118618000Y-69215645D01*
X118388110Y-69094324D01*
X117978076Y-69264155D01*
X117601521Y-69607322D01*
X117414049Y-69326751D01*
X116859333Y-68956101D01*
X116370168Y-68858800D01*
X116039832Y-68858800D01*
X115550667Y-68956101D01*
X114995951Y-69326751D01*
X114625301Y-69881467D01*
X114495146Y-70535800D01*
X105688200Y-70535800D01*
X105688200Y-51291582D01*
X106094633Y-51698015D01*
X107133675Y-52128400D01*
X108258325Y-52128400D01*
X109297367Y-51698015D01*
X110092615Y-50902767D01*
X110498415Y-49923078D01*
X111455400Y-49923078D01*
X111455400Y-50610122D01*
X111718320Y-51244867D01*
X112204133Y-51730680D01*
X112838878Y-51993600D01*
X113525922Y-51993600D01*
X114160667Y-51730680D01*
X114324561Y-51566786D01*
X114462702Y-51704927D01*
X114696091Y-51801600D01*
X115436650Y-51801600D01*
X115595400Y-51642850D01*
X115595400Y-50393600D01*
X115849400Y-50393600D01*
X115849400Y-51642850D01*
X116008150Y-51801600D01*
X116748709Y-51801600D01*
X116982098Y-51704927D01*
X117160727Y-51526299D01*
X117257400Y-51292910D01*
X117257400Y-50552350D01*
X117098650Y-50393600D01*
X115849400Y-50393600D01*
X115595400Y-50393600D01*
X115575400Y-50393600D01*
X115575400Y-50139600D01*
X115595400Y-50139600D01*
X115595400Y-48890350D01*
X115849400Y-48890350D01*
X115849400Y-50139600D01*
X117098650Y-50139600D01*
X117257400Y-49980850D01*
X117257400Y-49923078D01*
X119075400Y-49923078D01*
X119075400Y-50610122D01*
X119338320Y-51244867D01*
X119824133Y-51730680D01*
X120458878Y-51993600D01*
X121145922Y-51993600D01*
X121780667Y-51730680D01*
X121944561Y-51566786D01*
X122082702Y-51704927D01*
X122316091Y-51801600D01*
X123056650Y-51801600D01*
X123215400Y-51642850D01*
X123215400Y-50393600D01*
X123469400Y-50393600D01*
X123469400Y-51642850D01*
X123628150Y-51801600D01*
X124368709Y-51801600D01*
X124602098Y-51704927D01*
X124780727Y-51526299D01*
X124877400Y-51292910D01*
X124877400Y-50552350D01*
X124718650Y-50393600D01*
X123469400Y-50393600D01*
X123215400Y-50393600D01*
X123195400Y-50393600D01*
X123195400Y-50139600D01*
X123215400Y-50139600D01*
X123215400Y-48890350D01*
X123469400Y-48890350D01*
X123469400Y-50139600D01*
X124718650Y-50139600D01*
X124877400Y-49980850D01*
X124877400Y-49240290D01*
X124780727Y-49006901D01*
X124602098Y-48828273D01*
X124368709Y-48731600D01*
X123628150Y-48731600D01*
X123469400Y-48890350D01*
X123215400Y-48890350D01*
X123056650Y-48731600D01*
X122316091Y-48731600D01*
X122082702Y-48828273D01*
X121944561Y-48966414D01*
X121780667Y-48802520D01*
X121145922Y-48539600D01*
X120458878Y-48539600D01*
X119824133Y-48802520D01*
X119338320Y-49288333D01*
X119075400Y-49923078D01*
X117257400Y-49923078D01*
X117257400Y-49240290D01*
X117160727Y-49006901D01*
X116982098Y-48828273D01*
X116748709Y-48731600D01*
X116008150Y-48731600D01*
X115849400Y-48890350D01*
X115595400Y-48890350D01*
X115436650Y-48731600D01*
X114696091Y-48731600D01*
X114462702Y-48828273D01*
X114324561Y-48966414D01*
X114160667Y-48802520D01*
X113525922Y-48539600D01*
X112838878Y-48539600D01*
X112204133Y-48802520D01*
X111718320Y-49288333D01*
X111455400Y-49923078D01*
X110498415Y-49923078D01*
X110523000Y-49863725D01*
X110523000Y-48739075D01*
X110092615Y-47700033D01*
X109711504Y-47318922D01*
X155194439Y-47318922D01*
X154976314Y-47537047D01*
G36*
X167139998Y-73804000D02*
X167182001Y-73804000D01*
X167182001Y-73872835D01*
X167164663Y-73960000D01*
X167233348Y-74305309D01*
X167379576Y-74524154D01*
X167379578Y-74524156D01*
X167428952Y-74598049D01*
X167502845Y-74647423D01*
X168056000Y-75200579D01*
X168056000Y-75429657D01*
X168244018Y-75883571D01*
X168591429Y-76230982D01*
X169045343Y-76419000D01*
X169536657Y-76419000D01*
X169990571Y-76230982D01*
X170243500Y-75978053D01*
X170496429Y-76230982D01*
X170950343Y-76419000D01*
X171441657Y-76419000D01*
X171672682Y-76323306D01*
X171669560Y-76339000D01*
X171669560Y-76899000D01*
X171693429Y-77019000D01*
X171669560Y-77139000D01*
X171669560Y-77699000D01*
X171688873Y-77796096D01*
X171682000Y-77812690D01*
X171682000Y-77933250D01*
X171765819Y-78017069D01*
X171815885Y-78091998D01*
X171682000Y-78091998D01*
X171682000Y-78134000D01*
X171639161Y-78134000D01*
X171552000Y-78116663D01*
X171464839Y-78134000D01*
X171464835Y-78134000D01*
X171206690Y-78185348D01*
X170987845Y-78331576D01*
X170987844Y-78331577D01*
X170913951Y-78380951D01*
X170864577Y-78454844D01*
X170544421Y-78775000D01*
X170315343Y-78775000D01*
X169861429Y-78963018D01*
X169514018Y-79310429D01*
X169326000Y-79764343D01*
X169326000Y-80255657D01*
X169481479Y-80631015D01*
X169277229Y-80715618D01*
X168929818Y-81063029D01*
X168865680Y-81217872D01*
X168843495Y-81232695D01*
X168802490Y-81294063D01*
X167598463Y-82498091D01*
X167537096Y-82539095D01*
X167496092Y-82600462D01*
X167496091Y-82600463D01*
X167394002Y-82753250D01*
X167394002Y-82634000D01*
X167387145Y-82634000D01*
X167478000Y-82414657D01*
X167478000Y-81923343D01*
X167453506Y-81864209D01*
X167501371Y-81844382D01*
X167848782Y-81496971D01*
X168036800Y-81043057D01*
X168036800Y-80551743D01*
X167848782Y-80097829D01*
X167501371Y-79750418D01*
X167047457Y-79562400D01*
X166556143Y-79562400D01*
X166102229Y-79750418D01*
X165895017Y-79957630D01*
X165871038Y-79962400D01*
X165871035Y-79962400D01*
X165627471Y-80010848D01*
X165351271Y-80195399D01*
X165304685Y-80265120D01*
X165267804Y-80302001D01*
X164835578Y-80302001D01*
X163788422Y-79254846D01*
X163739047Y-79180951D01*
X163623882Y-79104000D01*
X165241447Y-79104000D01*
X165416429Y-79278982D01*
X165870343Y-79467000D01*
X166361657Y-79467000D01*
X166815571Y-79278982D01*
X167162982Y-78931571D01*
X167351000Y-78477657D01*
X167351000Y-77986343D01*
X167162982Y-77532429D01*
X166815571Y-77185018D01*
X166361657Y-76997000D01*
X165870343Y-76997000D01*
X165714538Y-77061537D01*
X165915954Y-76926954D01*
X165959750Y-76861409D01*
X166396409Y-76424750D01*
X166461954Y-76380954D01*
X166635455Y-76121293D01*
X166681001Y-75892317D01*
X166681001Y-75892313D01*
X166696379Y-75815001D01*
X166681001Y-75737689D01*
X166681001Y-74575311D01*
X166696379Y-74498000D01*
X166681001Y-74420689D01*
X166681001Y-74420685D01*
X166635455Y-74191709D01*
X166538873Y-74047165D01*
X166505750Y-73997592D01*
X166505748Y-73997590D01*
X166461954Y-73932048D01*
X166396412Y-73888254D01*
X166324598Y-73816440D01*
X166747000Y-73816440D01*
X166844096Y-73797127D01*
X166860690Y-73804000D01*
X166981250Y-73804000D01*
X167065069Y-73720181D01*
X167139998Y-73670115D01*
X167139998Y-73804000D01*
X167139998Y-73804000D01*
G37*
X167139998Y-73804000D02*
X167182001Y-73804000D01*
X167182001Y-73872835D01*
X167164663Y-73960000D01*
X167233348Y-74305309D01*
X167379576Y-74524154D01*
X167379578Y-74524156D01*
X167428952Y-74598049D01*
X167502845Y-74647423D01*
X168056000Y-75200579D01*
X168056000Y-75429657D01*
X168244018Y-75883571D01*
X168591429Y-76230982D01*
X169045343Y-76419000D01*
X169536657Y-76419000D01*
X169990571Y-76230982D01*
X170243500Y-75978053D01*
X170496429Y-76230982D01*
X170950343Y-76419000D01*
X171441657Y-76419000D01*
X171672682Y-76323306D01*
X171669560Y-76339000D01*
X171669560Y-76899000D01*
X171693429Y-77019000D01*
X171669560Y-77139000D01*
X171669560Y-77699000D01*
X171688873Y-77796096D01*
X171682000Y-77812690D01*
X171682000Y-77933250D01*
X171765819Y-78017069D01*
X171815885Y-78091998D01*
X171682000Y-78091998D01*
X171682000Y-78134000D01*
X171639161Y-78134000D01*
X171552000Y-78116663D01*
X171464839Y-78134000D01*
X171464835Y-78134000D01*
X171206690Y-78185348D01*
X170987845Y-78331576D01*
X170987844Y-78331577D01*
X170913951Y-78380951D01*
X170864577Y-78454844D01*
X170544421Y-78775000D01*
X170315343Y-78775000D01*
X169861429Y-78963018D01*
X169514018Y-79310429D01*
X169326000Y-79764343D01*
X169326000Y-80255657D01*
X169481479Y-80631015D01*
X169277229Y-80715618D01*
X168929818Y-81063029D01*
X168865680Y-81217872D01*
X168843495Y-81232695D01*
X168802490Y-81294063D01*
X167598463Y-82498091D01*
X167537096Y-82539095D01*
X167496092Y-82600462D01*
X167496091Y-82600463D01*
X167394002Y-82753250D01*
X167394002Y-82634000D01*
X167387145Y-82634000D01*
X167478000Y-82414657D01*
X167478000Y-81923343D01*
X167453506Y-81864209D01*
X167501371Y-81844382D01*
X167848782Y-81496971D01*
X168036800Y-81043057D01*
X168036800Y-80551743D01*
X167848782Y-80097829D01*
X167501371Y-79750418D01*
X167047457Y-79562400D01*
X166556143Y-79562400D01*
X166102229Y-79750418D01*
X165895017Y-79957630D01*
X165871038Y-79962400D01*
X165871035Y-79962400D01*
X165627471Y-80010848D01*
X165351271Y-80195399D01*
X165304685Y-80265120D01*
X165267804Y-80302001D01*
X164835578Y-80302001D01*
X163788422Y-79254846D01*
X163739047Y-79180951D01*
X163623882Y-79104000D01*
X165241447Y-79104000D01*
X165416429Y-79278982D01*
X165870343Y-79467000D01*
X166361657Y-79467000D01*
X166815571Y-79278982D01*
X167162982Y-78931571D01*
X167351000Y-78477657D01*
X167351000Y-77986343D01*
X167162982Y-77532429D01*
X166815571Y-77185018D01*
X166361657Y-76997000D01*
X165870343Y-76997000D01*
X165714538Y-77061537D01*
X165915954Y-76926954D01*
X165959750Y-76861409D01*
X166396409Y-76424750D01*
X166461954Y-76380954D01*
X166635455Y-76121293D01*
X166681001Y-75892317D01*
X166681001Y-75892313D01*
X166696379Y-75815001D01*
X166681001Y-75737689D01*
X166681001Y-74575311D01*
X166696379Y-74498000D01*
X166681001Y-74420689D01*
X166681001Y-74420685D01*
X166635455Y-74191709D01*
X166538873Y-74047165D01*
X166505750Y-73997592D01*
X166505748Y-73997590D01*
X166461954Y-73932048D01*
X166396412Y-73888254D01*
X166324598Y-73816440D01*
X166747000Y-73816440D01*
X166844096Y-73797127D01*
X166860690Y-73804000D01*
X166981250Y-73804000D01*
X167065069Y-73720181D01*
X167139998Y-73670115D01*
X167139998Y-73804000D01*
G36*
X188156042Y-71649974D02*
X188277183Y-71882000D01*
X189484000Y-71882000D01*
X189484000Y-71862000D01*
X189738000Y-71862000D01*
X189738000Y-71882000D01*
X189758000Y-71882000D01*
X189758000Y-72136000D01*
X189738000Y-72136000D01*
X189738000Y-72156000D01*
X189484000Y-72156000D01*
X189484000Y-72136000D01*
X188277183Y-72136000D01*
X188156042Y-72368026D01*
X188328312Y-72783947D01*
X188722510Y-73215821D01*
X188832021Y-73267146D01*
X188530570Y-73468570D01*
X188399988Y-73664000D01*
X179686543Y-73664000D01*
X181788533Y-71562010D01*
X188192476Y-71562010D01*
X188156042Y-71649974D01*
X188156042Y-71649974D01*
G37*
X188156042Y-71649974D02*
X188277183Y-71882000D01*
X189484000Y-71882000D01*
X189484000Y-71862000D01*
X189738000Y-71862000D01*
X189738000Y-71882000D01*
X189758000Y-71882000D01*
X189758000Y-72136000D01*
X189738000Y-72136000D01*
X189738000Y-72156000D01*
X189484000Y-72156000D01*
X189484000Y-72136000D01*
X188277183Y-72136000D01*
X188156042Y-72368026D01*
X188328312Y-72783947D01*
X188722510Y-73215821D01*
X188832021Y-73267146D01*
X188530570Y-73468570D01*
X188399988Y-73664000D01*
X179686543Y-73664000D01*
X181788533Y-71562010D01*
X188192476Y-71562010D01*
X188156042Y-71649974D01*
G36*
X159055225Y-56832693D02*
X158492952Y-56849886D01*
X157938001Y-57079754D01*
X157820981Y-57362175D01*
X158902400Y-58443595D01*
X158916542Y-58429452D01*
X159096148Y-58609058D01*
X159082005Y-58623200D01*
X159096148Y-58637342D01*
X158916542Y-58816948D01*
X158902400Y-58802805D01*
X158888258Y-58816948D01*
X158708652Y-58637342D01*
X158722795Y-58623200D01*
X157641375Y-57541781D01*
X157358954Y-57658801D01*
X157247400Y-57953265D01*
X157247400Y-56856159D01*
X157264737Y-56768999D01*
X157247400Y-56681839D01*
X157247400Y-56681835D01*
X157218630Y-56537200D01*
X158759733Y-56537200D01*
X159055225Y-56832693D01*
X159055225Y-56832693D01*
G37*
X159055225Y-56832693D02*
X158492952Y-56849886D01*
X157938001Y-57079754D01*
X157820981Y-57362175D01*
X158902400Y-58443595D01*
X158916542Y-58429452D01*
X159096148Y-58609058D01*
X159082005Y-58623200D01*
X159096148Y-58637342D01*
X158916542Y-58816948D01*
X158902400Y-58802805D01*
X158888258Y-58816948D01*
X158708652Y-58637342D01*
X158722795Y-58623200D01*
X157641375Y-57541781D01*
X157358954Y-57658801D01*
X157247400Y-57953265D01*
X157247400Y-56856159D01*
X157264737Y-56768999D01*
X157247400Y-56681839D01*
X157247400Y-56681835D01*
X157218630Y-56537200D01*
X158759733Y-56537200D01*
X159055225Y-56832693D01*
G36*
X144628123Y-111304000D02*
X105688200Y-111304000D01*
X105688200Y-109225778D01*
X105876800Y-109414378D01*
X105876800Y-109643457D01*
X106064818Y-110097371D01*
X106412229Y-110444782D01*
X106866143Y-110632800D01*
X107357457Y-110632800D01*
X107811371Y-110444782D01*
X108158782Y-110097371D01*
X108346800Y-109643457D01*
X108346800Y-109152143D01*
X108158782Y-108698229D01*
X107811371Y-108350818D01*
X107357457Y-108162800D01*
X107128378Y-108162800D01*
X107057800Y-108092222D01*
X107057800Y-103825113D01*
X107064444Y-103829552D01*
X112841247Y-109606356D01*
X112890621Y-109680249D01*
X112964514Y-109729623D01*
X112964515Y-109729624D01*
X113075550Y-109803815D01*
X113183360Y-109875852D01*
X113441505Y-109927200D01*
X113441509Y-109927200D01*
X113528669Y-109944537D01*
X113615829Y-109927200D01*
X139612839Y-109927200D01*
X139700000Y-109944537D01*
X139708019Y-109942942D01*
X139740799Y-109992001D01*
X140281454Y-110353255D01*
X140758220Y-110448090D01*
X141080180Y-110448090D01*
X141556946Y-110353255D01*
X142097601Y-109992001D01*
X142458855Y-109451346D01*
X142585711Y-108813600D01*
X142458855Y-108175854D01*
X142097601Y-107635199D01*
X141960513Y-107543600D01*
X142097601Y-107452001D01*
X142458855Y-106911346D01*
X142585711Y-106273600D01*
X142458855Y-105635854D01*
X142097601Y-105095199D01*
X141960513Y-105003600D01*
X142097601Y-104912001D01*
X142458855Y-104371346D01*
X142585711Y-103733600D01*
X142458855Y-103095854D01*
X142097601Y-102555199D01*
X141960513Y-102463600D01*
X142097601Y-102372001D01*
X142458855Y-101831346D01*
X142585711Y-101193600D01*
X142458855Y-100555854D01*
X142097601Y-100015199D01*
X141960513Y-99923600D01*
X142097601Y-99832001D01*
X142458855Y-99291346D01*
X142585711Y-98653600D01*
X142458855Y-98015854D01*
X142097601Y-97475199D01*
X141960513Y-97383600D01*
X142097601Y-97292001D01*
X142458855Y-96751346D01*
X142585711Y-96113600D01*
X142458855Y-95475854D01*
X142097601Y-94935199D01*
X141960513Y-94843600D01*
X142097601Y-94752001D01*
X142458855Y-94211346D01*
X142585711Y-93573600D01*
X142458855Y-92935854D01*
X142097601Y-92395199D01*
X141960513Y-92303600D01*
X142097601Y-92212001D01*
X142458855Y-91671346D01*
X142585711Y-91033600D01*
X142458855Y-90395854D01*
X142097601Y-89855199D01*
X141960513Y-89763600D01*
X142097601Y-89672001D01*
X142458855Y-89131346D01*
X142585711Y-88493600D01*
X142458855Y-87855854D01*
X142097601Y-87315199D01*
X141960513Y-87223600D01*
X142097601Y-87132001D01*
X142458855Y-86591346D01*
X142585711Y-85953600D01*
X142458855Y-85315854D01*
X142097601Y-84775199D01*
X141929506Y-84662882D01*
X142242268Y-84373326D01*
X142508827Y-83793955D01*
X142390007Y-83540600D01*
X141046200Y-83540600D01*
X141046200Y-83560600D01*
X140792200Y-83560600D01*
X140792200Y-83540600D01*
X139448393Y-83540600D01*
X139329573Y-83793955D01*
X139596132Y-84373326D01*
X139908894Y-84662882D01*
X139740799Y-84775199D01*
X139379545Y-85315854D01*
X139252689Y-85953600D01*
X139379545Y-86591346D01*
X139740799Y-87132001D01*
X139877887Y-87223600D01*
X139740799Y-87315199D01*
X139379545Y-87855854D01*
X139252689Y-88493600D01*
X139379545Y-89131346D01*
X139740799Y-89672001D01*
X139877887Y-89763600D01*
X139740799Y-89855199D01*
X139379545Y-90395854D01*
X139252689Y-91033600D01*
X139379545Y-91671346D01*
X139740799Y-92212001D01*
X139877887Y-92303600D01*
X139740799Y-92395199D01*
X139379545Y-92935854D01*
X139252689Y-93573600D01*
X139379545Y-94211346D01*
X139740799Y-94752001D01*
X139877887Y-94843600D01*
X139740799Y-94935199D01*
X139379545Y-95475854D01*
X139252689Y-96113600D01*
X139379545Y-96751346D01*
X139740799Y-97292001D01*
X139877887Y-97383600D01*
X139740799Y-97475199D01*
X139379545Y-98015854D01*
X139252689Y-98653600D01*
X139379545Y-99291346D01*
X139740799Y-99832001D01*
X139877887Y-99923600D01*
X139740799Y-100015199D01*
X139379545Y-100555854D01*
X139252689Y-101193600D01*
X139379545Y-101831346D01*
X139740799Y-102372001D01*
X139877887Y-102463600D01*
X139740799Y-102555199D01*
X139379545Y-103095854D01*
X139252689Y-103733600D01*
X139379545Y-104371346D01*
X139740799Y-104912001D01*
X139877887Y-105003600D01*
X139740799Y-105095199D01*
X139379545Y-105635854D01*
X139252689Y-106273600D01*
X139379545Y-106911346D01*
X139740799Y-107452001D01*
X139877887Y-107543600D01*
X139740799Y-107635199D01*
X139451691Y-108067880D01*
X139318015Y-108157200D01*
X135534682Y-108157200D01*
X135616838Y-108075044D01*
X135896200Y-107400604D01*
X135896200Y-106670596D01*
X135616838Y-105996156D01*
X135100644Y-105479962D01*
X134426204Y-105200600D01*
X133696196Y-105200600D01*
X133021756Y-105479962D01*
X132505562Y-105996156D01*
X132226200Y-106670596D01*
X132226200Y-107400604D01*
X132505562Y-108075044D01*
X132587718Y-108157200D01*
X116484682Y-108157200D01*
X116566838Y-108075044D01*
X116846200Y-107400604D01*
X116846200Y-106670596D01*
X116566838Y-105996156D01*
X116050644Y-105479962D01*
X115376204Y-105200600D01*
X114646196Y-105200600D01*
X113971756Y-105479962D01*
X113455562Y-105996156D01*
X113176200Y-106670596D01*
X113176200Y-107400604D01*
X113202750Y-107464701D01*
X109575118Y-103837069D01*
X109930690Y-103670421D01*
X110309163Y-103255774D01*
X110501770Y-103544030D01*
X110997475Y-103875250D01*
X111434602Y-103962200D01*
X111729798Y-103962200D01*
X111812726Y-103945705D01*
X111824187Y-103957166D01*
X111873561Y-104031059D01*
X112166300Y-104226662D01*
X112424445Y-104278010D01*
X112424449Y-104278010D01*
X112511610Y-104295347D01*
X112598771Y-104278010D01*
X115587816Y-104278010D01*
X118147561Y-106837756D01*
X118196935Y-106911649D01*
X118270828Y-106961023D01*
X118270829Y-106961024D01*
X118381864Y-107035215D01*
X118489674Y-107107252D01*
X118747819Y-107158600D01*
X118747823Y-107158600D01*
X118834983Y-107175937D01*
X118922143Y-107158600D01*
X125211039Y-107158600D01*
X125298200Y-107175937D01*
X125385361Y-107158600D01*
X125385365Y-107158600D01*
X125643510Y-107107252D01*
X125936249Y-106911649D01*
X125985625Y-106837753D01*
X126803778Y-106019600D01*
X127379342Y-106019600D01*
X127939477Y-105787585D01*
X128196462Y-105530600D01*
X132282866Y-105530600D01*
X132384800Y-105550876D01*
X132486734Y-105530600D01*
X132486735Y-105530600D01*
X132788637Y-105470548D01*
X133130993Y-105241793D01*
X133188737Y-105155373D01*
X138200776Y-100143335D01*
X138287193Y-100085593D01*
X138515948Y-99743237D01*
X138576000Y-99441335D01*
X138576000Y-99441334D01*
X138596276Y-99339400D01*
X138576000Y-99237466D01*
X138576000Y-94742334D01*
X138596276Y-94640400D01*
X138564194Y-94479110D01*
X138515948Y-94236563D01*
X138287193Y-93894207D01*
X138200776Y-93836465D01*
X136220200Y-91855890D01*
X136220200Y-91735311D01*
X136244975Y-91710536D01*
X136331392Y-91652794D01*
X136560147Y-91310438D01*
X136620199Y-91008536D01*
X136620199Y-91008531D01*
X136640474Y-90906602D01*
X136620199Y-90804672D01*
X136620199Y-84836821D01*
X139327406Y-82129615D01*
X139461901Y-82330899D01*
X139617013Y-82434542D01*
X139596132Y-82453874D01*
X139329573Y-83033245D01*
X139448393Y-83286600D01*
X140792200Y-83286600D01*
X140792200Y-83266600D01*
X141046200Y-83266600D01*
X141046200Y-83286600D01*
X142390007Y-83286600D01*
X142508827Y-83033245D01*
X142242268Y-82453874D01*
X142221387Y-82434542D01*
X142376499Y-82330899D01*
X142516847Y-82120855D01*
X142566130Y-81873090D01*
X142566130Y-79874110D01*
X142516847Y-79626345D01*
X142376499Y-79416301D01*
X142166455Y-79275953D01*
X141918690Y-79226670D01*
X139919710Y-79226670D01*
X139671945Y-79275953D01*
X139461901Y-79416301D01*
X139321553Y-79626345D01*
X139279333Y-79838600D01*
X139221639Y-79838600D01*
X139119709Y-79818325D01*
X139017780Y-79838600D01*
X139017775Y-79838600D01*
X138715873Y-79898652D01*
X138373517Y-80127407D01*
X138315775Y-80213824D01*
X134925424Y-83604176D01*
X134839007Y-83661918D01*
X134781265Y-83748335D01*
X134610251Y-84004275D01*
X134529923Y-84408111D01*
X134550200Y-84510050D01*
X134550199Y-90271600D01*
X134393058Y-90271600D01*
X133832923Y-90503615D01*
X133404215Y-90932323D01*
X133172200Y-91492458D01*
X133172200Y-92098742D01*
X133404215Y-92658877D01*
X133810938Y-93065600D01*
X133425938Y-93450600D01*
X121555763Y-93450600D01*
X119710078Y-91604916D01*
X119710078Y-86412458D01*
X119837200Y-86412458D01*
X119837200Y-87018742D01*
X120069215Y-87578877D01*
X120497923Y-88007585D01*
X121058058Y-88239600D01*
X121664342Y-88239600D01*
X122224477Y-88007585D01*
X122653185Y-87578877D01*
X122885200Y-87018742D01*
X122885200Y-86412458D01*
X126187200Y-86412458D01*
X126187200Y-87018742D01*
X126419215Y-87578877D01*
X126847923Y-88007585D01*
X127408058Y-88239600D01*
X128014342Y-88239600D01*
X128574477Y-88007585D01*
X129003185Y-87578877D01*
X129112720Y-87314434D01*
X130378200Y-87314434D01*
X130378200Y-88021766D01*
X130648884Y-88675256D01*
X131149044Y-89175416D01*
X131802534Y-89446100D01*
X132509866Y-89446100D01*
X133163356Y-89175416D01*
X133663516Y-88675256D01*
X133934200Y-88021766D01*
X133934200Y-87314434D01*
X133663516Y-86660944D01*
X133163356Y-86160784D01*
X132509866Y-85890100D01*
X131802534Y-85890100D01*
X131149044Y-86160784D01*
X130648884Y-86660944D01*
X130378200Y-87314434D01*
X129112720Y-87314434D01*
X129235200Y-87018742D01*
X129235200Y-86412458D01*
X129003185Y-85852323D01*
X128574477Y-85423615D01*
X128014342Y-85191600D01*
X127408058Y-85191600D01*
X126847923Y-85423615D01*
X126419215Y-85852323D01*
X126187200Y-86412458D01*
X122885200Y-86412458D01*
X122653185Y-85852323D01*
X122224477Y-85423615D01*
X121664342Y-85191600D01*
X121058058Y-85191600D01*
X120497923Y-85423615D01*
X120069215Y-85852323D01*
X119837200Y-86412458D01*
X119710078Y-86412458D01*
X119710078Y-86396359D01*
X119727415Y-86309199D01*
X119710078Y-86222039D01*
X119710078Y-86222035D01*
X119658730Y-85963890D01*
X119570575Y-85831958D01*
X119512502Y-85745045D01*
X119512501Y-85745044D01*
X119463127Y-85671151D01*
X119389234Y-85621777D01*
X118115503Y-84348047D01*
X118066127Y-84274151D01*
X117773388Y-84078548D01*
X117515243Y-84027200D01*
X117515239Y-84027200D01*
X117428078Y-84009863D01*
X117340917Y-84027200D01*
X111263557Y-84027200D01*
X111176397Y-84009863D01*
X111089237Y-84027200D01*
X111089233Y-84027200D01*
X110831088Y-84078548D01*
X110743546Y-84137042D01*
X110612243Y-84224776D01*
X110612242Y-84224777D01*
X110538349Y-84274151D01*
X110488975Y-84348044D01*
X109341645Y-85495375D01*
X109267750Y-85544750D01*
X109147310Y-85725000D01*
X108894602Y-85725000D01*
X108457475Y-85811950D01*
X107961770Y-86143170D01*
X107630550Y-86638875D01*
X107514241Y-87223600D01*
X107630550Y-87808325D01*
X107961770Y-88304030D01*
X108245481Y-88493600D01*
X107961770Y-88683170D01*
X107630550Y-89178875D01*
X107514241Y-89763600D01*
X107630550Y-90348325D01*
X107961770Y-90844030D01*
X108245481Y-91033600D01*
X107961770Y-91223170D01*
X107630550Y-91718875D01*
X107514241Y-92303600D01*
X107630550Y-92888325D01*
X107961770Y-93384030D01*
X108245481Y-93573600D01*
X107961770Y-93763170D01*
X107630550Y-94258875D01*
X107514241Y-94843600D01*
X107630550Y-95428325D01*
X107961770Y-95924030D01*
X108245481Y-96113600D01*
X107961770Y-96303170D01*
X107630550Y-96798875D01*
X107514241Y-97383600D01*
X107624653Y-97938676D01*
X107479018Y-97967645D01*
X107235896Y-98130094D01*
X107194891Y-98191462D01*
X105754265Y-99632089D01*
X105692895Y-99673095D01*
X105688200Y-99680122D01*
X105688200Y-81270596D01*
X113176200Y-81270596D01*
X113176200Y-82000604D01*
X113455562Y-82675044D01*
X113971756Y-83191238D01*
X114646196Y-83470600D01*
X115376204Y-83470600D01*
X116050644Y-83191238D01*
X116566838Y-82675044D01*
X116846200Y-82000604D01*
X116846200Y-81332458D01*
X119837200Y-81332458D01*
X119837200Y-81938742D01*
X120069215Y-82498877D01*
X120497923Y-82927585D01*
X121058058Y-83159600D01*
X121664342Y-83159600D01*
X122224477Y-82927585D01*
X122653185Y-82498877D01*
X122885200Y-81938742D01*
X122885200Y-81332458D01*
X126187200Y-81332458D01*
X126187200Y-81938742D01*
X126419215Y-82498877D01*
X126847923Y-82927585D01*
X127408058Y-83159600D01*
X128014342Y-83159600D01*
X128574477Y-82927585D01*
X129003185Y-82498877D01*
X129235200Y-81938742D01*
X129235200Y-81332458D01*
X129209576Y-81270596D01*
X132226200Y-81270596D01*
X132226200Y-82000604D01*
X132505562Y-82675044D01*
X133021756Y-83191238D01*
X133696196Y-83470600D01*
X134426204Y-83470600D01*
X135100644Y-83191238D01*
X135616838Y-82675044D01*
X135896200Y-82000604D01*
X135896200Y-81270596D01*
X135616838Y-80596156D01*
X135100644Y-80079962D01*
X134426204Y-79800600D01*
X133696196Y-79800600D01*
X133021756Y-80079962D01*
X132505562Y-80596156D01*
X132226200Y-81270596D01*
X129209576Y-81270596D01*
X129003185Y-80772323D01*
X128574477Y-80343615D01*
X128014342Y-80111600D01*
X127408058Y-80111600D01*
X126847923Y-80343615D01*
X126419215Y-80772323D01*
X126187200Y-81332458D01*
X122885200Y-81332458D01*
X122653185Y-80772323D01*
X122224477Y-80343615D01*
X121664342Y-80111600D01*
X121058058Y-80111600D01*
X120497923Y-80343615D01*
X120069215Y-80772323D01*
X119837200Y-81332458D01*
X116846200Y-81332458D01*
X116846200Y-81270596D01*
X116566838Y-80596156D01*
X116050644Y-80079962D01*
X115376204Y-79800600D01*
X114646196Y-79800600D01*
X113971756Y-80079962D01*
X113455562Y-80596156D01*
X113176200Y-81270596D01*
X105688200Y-81270596D01*
X105688200Y-77672731D01*
X144652906Y-77647881D01*
X144628123Y-111304000D01*
X144628123Y-111304000D01*
G37*
X144628123Y-111304000D02*
X105688200Y-111304000D01*
X105688200Y-109225778D01*
X105876800Y-109414378D01*
X105876800Y-109643457D01*
X106064818Y-110097371D01*
X106412229Y-110444782D01*
X106866143Y-110632800D01*
X107357457Y-110632800D01*
X107811371Y-110444782D01*
X108158782Y-110097371D01*
X108346800Y-109643457D01*
X108346800Y-109152143D01*
X108158782Y-108698229D01*
X107811371Y-108350818D01*
X107357457Y-108162800D01*
X107128378Y-108162800D01*
X107057800Y-108092222D01*
X107057800Y-103825113D01*
X107064444Y-103829552D01*
X112841247Y-109606356D01*
X112890621Y-109680249D01*
X112964514Y-109729623D01*
X112964515Y-109729624D01*
X113075550Y-109803815D01*
X113183360Y-109875852D01*
X113441505Y-109927200D01*
X113441509Y-109927200D01*
X113528669Y-109944537D01*
X113615829Y-109927200D01*
X139612839Y-109927200D01*
X139700000Y-109944537D01*
X139708019Y-109942942D01*
X139740799Y-109992001D01*
X140281454Y-110353255D01*
X140758220Y-110448090D01*
X141080180Y-110448090D01*
X141556946Y-110353255D01*
X142097601Y-109992001D01*
X142458855Y-109451346D01*
X142585711Y-108813600D01*
X142458855Y-108175854D01*
X142097601Y-107635199D01*
X141960513Y-107543600D01*
X142097601Y-107452001D01*
X142458855Y-106911346D01*
X142585711Y-106273600D01*
X142458855Y-105635854D01*
X142097601Y-105095199D01*
X141960513Y-105003600D01*
X142097601Y-104912001D01*
X142458855Y-104371346D01*
X142585711Y-103733600D01*
X142458855Y-103095854D01*
X142097601Y-102555199D01*
X141960513Y-102463600D01*
X142097601Y-102372001D01*
X142458855Y-101831346D01*
X142585711Y-101193600D01*
X142458855Y-100555854D01*
X142097601Y-100015199D01*
X141960513Y-99923600D01*
X142097601Y-99832001D01*
X142458855Y-99291346D01*
X142585711Y-98653600D01*
X142458855Y-98015854D01*
X142097601Y-97475199D01*
X141960513Y-97383600D01*
X142097601Y-97292001D01*
X142458855Y-96751346D01*
X142585711Y-96113600D01*
X142458855Y-95475854D01*
X142097601Y-94935199D01*
X141960513Y-94843600D01*
X142097601Y-94752001D01*
X142458855Y-94211346D01*
X142585711Y-93573600D01*
X142458855Y-92935854D01*
X142097601Y-92395199D01*
X141960513Y-92303600D01*
X142097601Y-92212001D01*
X142458855Y-91671346D01*
X142585711Y-91033600D01*
X142458855Y-90395854D01*
X142097601Y-89855199D01*
X141960513Y-89763600D01*
X142097601Y-89672001D01*
X142458855Y-89131346D01*
X142585711Y-88493600D01*
X142458855Y-87855854D01*
X142097601Y-87315199D01*
X141960513Y-87223600D01*
X142097601Y-87132001D01*
X142458855Y-86591346D01*
X142585711Y-85953600D01*
X142458855Y-85315854D01*
X142097601Y-84775199D01*
X141929506Y-84662882D01*
X142242268Y-84373326D01*
X142508827Y-83793955D01*
X142390007Y-83540600D01*
X141046200Y-83540600D01*
X141046200Y-83560600D01*
X140792200Y-83560600D01*
X140792200Y-83540600D01*
X139448393Y-83540600D01*
X139329573Y-83793955D01*
X139596132Y-84373326D01*
X139908894Y-84662882D01*
X139740799Y-84775199D01*
X139379545Y-85315854D01*
X139252689Y-85953600D01*
X139379545Y-86591346D01*
X139740799Y-87132001D01*
X139877887Y-87223600D01*
X139740799Y-87315199D01*
X139379545Y-87855854D01*
X139252689Y-88493600D01*
X139379545Y-89131346D01*
X139740799Y-89672001D01*
X139877887Y-89763600D01*
X139740799Y-89855199D01*
X139379545Y-90395854D01*
X139252689Y-91033600D01*
X139379545Y-91671346D01*
X139740799Y-92212001D01*
X139877887Y-92303600D01*
X139740799Y-92395199D01*
X139379545Y-92935854D01*
X139252689Y-93573600D01*
X139379545Y-94211346D01*
X139740799Y-94752001D01*
X139877887Y-94843600D01*
X139740799Y-94935199D01*
X139379545Y-95475854D01*
X139252689Y-96113600D01*
X139379545Y-96751346D01*
X139740799Y-97292001D01*
X139877887Y-97383600D01*
X139740799Y-97475199D01*
X139379545Y-98015854D01*
X139252689Y-98653600D01*
X139379545Y-99291346D01*
X139740799Y-99832001D01*
X139877887Y-99923600D01*
X139740799Y-100015199D01*
X139379545Y-100555854D01*
X139252689Y-101193600D01*
X139379545Y-101831346D01*
X139740799Y-102372001D01*
X139877887Y-102463600D01*
X139740799Y-102555199D01*
X139379545Y-103095854D01*
X139252689Y-103733600D01*
X139379545Y-104371346D01*
X139740799Y-104912001D01*
X139877887Y-105003600D01*
X139740799Y-105095199D01*
X139379545Y-105635854D01*
X139252689Y-106273600D01*
X139379545Y-106911346D01*
X139740799Y-107452001D01*
X139877887Y-107543600D01*
X139740799Y-107635199D01*
X139451691Y-108067880D01*
X139318015Y-108157200D01*
X135534682Y-108157200D01*
X135616838Y-108075044D01*
X135896200Y-107400604D01*
X135896200Y-106670596D01*
X135616838Y-105996156D01*
X135100644Y-105479962D01*
X134426204Y-105200600D01*
X133696196Y-105200600D01*
X133021756Y-105479962D01*
X132505562Y-105996156D01*
X132226200Y-106670596D01*
X132226200Y-107400604D01*
X132505562Y-108075044D01*
X132587718Y-108157200D01*
X116484682Y-108157200D01*
X116566838Y-108075044D01*
X116846200Y-107400604D01*
X116846200Y-106670596D01*
X116566838Y-105996156D01*
X116050644Y-105479962D01*
X115376204Y-105200600D01*
X114646196Y-105200600D01*
X113971756Y-105479962D01*
X113455562Y-105996156D01*
X113176200Y-106670596D01*
X113176200Y-107400604D01*
X113202750Y-107464701D01*
X109575118Y-103837069D01*
X109930690Y-103670421D01*
X110309163Y-103255774D01*
X110501770Y-103544030D01*
X110997475Y-103875250D01*
X111434602Y-103962200D01*
X111729798Y-103962200D01*
X111812726Y-103945705D01*
X111824187Y-103957166D01*
X111873561Y-104031059D01*
X112166300Y-104226662D01*
X112424445Y-104278010D01*
X112424449Y-104278010D01*
X112511610Y-104295347D01*
X112598771Y-104278010D01*
X115587816Y-104278010D01*
X118147561Y-106837756D01*
X118196935Y-106911649D01*
X118270828Y-106961023D01*
X118270829Y-106961024D01*
X118381864Y-107035215D01*
X118489674Y-107107252D01*
X118747819Y-107158600D01*
X118747823Y-107158600D01*
X118834983Y-107175937D01*
X118922143Y-107158600D01*
X125211039Y-107158600D01*
X125298200Y-107175937D01*
X125385361Y-107158600D01*
X125385365Y-107158600D01*
X125643510Y-107107252D01*
X125936249Y-106911649D01*
X125985625Y-106837753D01*
X126803778Y-106019600D01*
X127379342Y-106019600D01*
X127939477Y-105787585D01*
X128196462Y-105530600D01*
X132282866Y-105530600D01*
X132384800Y-105550876D01*
X132486734Y-105530600D01*
X132486735Y-105530600D01*
X132788637Y-105470548D01*
X133130993Y-105241793D01*
X133188737Y-105155373D01*
X138200776Y-100143335D01*
X138287193Y-100085593D01*
X138515948Y-99743237D01*
X138576000Y-99441335D01*
X138576000Y-99441334D01*
X138596276Y-99339400D01*
X138576000Y-99237466D01*
X138576000Y-94742334D01*
X138596276Y-94640400D01*
X138564194Y-94479110D01*
X138515948Y-94236563D01*
X138287193Y-93894207D01*
X138200776Y-93836465D01*
X136220200Y-91855890D01*
X136220200Y-91735311D01*
X136244975Y-91710536D01*
X136331392Y-91652794D01*
X136560147Y-91310438D01*
X136620199Y-91008536D01*
X136620199Y-91008531D01*
X136640474Y-90906602D01*
X136620199Y-90804672D01*
X136620199Y-84836821D01*
X139327406Y-82129615D01*
X139461901Y-82330899D01*
X139617013Y-82434542D01*
X139596132Y-82453874D01*
X139329573Y-83033245D01*
X139448393Y-83286600D01*
X140792200Y-83286600D01*
X140792200Y-83266600D01*
X141046200Y-83266600D01*
X141046200Y-83286600D01*
X142390007Y-83286600D01*
X142508827Y-83033245D01*
X142242268Y-82453874D01*
X142221387Y-82434542D01*
X142376499Y-82330899D01*
X142516847Y-82120855D01*
X142566130Y-81873090D01*
X142566130Y-79874110D01*
X142516847Y-79626345D01*
X142376499Y-79416301D01*
X142166455Y-79275953D01*
X141918690Y-79226670D01*
X139919710Y-79226670D01*
X139671945Y-79275953D01*
X139461901Y-79416301D01*
X139321553Y-79626345D01*
X139279333Y-79838600D01*
X139221639Y-79838600D01*
X139119709Y-79818325D01*
X139017780Y-79838600D01*
X139017775Y-79838600D01*
X138715873Y-79898652D01*
X138373517Y-80127407D01*
X138315775Y-80213824D01*
X134925424Y-83604176D01*
X134839007Y-83661918D01*
X134781265Y-83748335D01*
X134610251Y-84004275D01*
X134529923Y-84408111D01*
X134550200Y-84510050D01*
X134550199Y-90271600D01*
X134393058Y-90271600D01*
X133832923Y-90503615D01*
X133404215Y-90932323D01*
X133172200Y-91492458D01*
X133172200Y-92098742D01*
X133404215Y-92658877D01*
X133810938Y-93065600D01*
X133425938Y-93450600D01*
X121555763Y-93450600D01*
X119710078Y-91604916D01*
X119710078Y-86412458D01*
X119837200Y-86412458D01*
X119837200Y-87018742D01*
X120069215Y-87578877D01*
X120497923Y-88007585D01*
X121058058Y-88239600D01*
X121664342Y-88239600D01*
X122224477Y-88007585D01*
X122653185Y-87578877D01*
X122885200Y-87018742D01*
X122885200Y-86412458D01*
X126187200Y-86412458D01*
X126187200Y-87018742D01*
X126419215Y-87578877D01*
X126847923Y-88007585D01*
X127408058Y-88239600D01*
X128014342Y-88239600D01*
X128574477Y-88007585D01*
X129003185Y-87578877D01*
X129112720Y-87314434D01*
X130378200Y-87314434D01*
X130378200Y-88021766D01*
X130648884Y-88675256D01*
X131149044Y-89175416D01*
X131802534Y-89446100D01*
X132509866Y-89446100D01*
X133163356Y-89175416D01*
X133663516Y-88675256D01*
X133934200Y-88021766D01*
X133934200Y-87314434D01*
X133663516Y-86660944D01*
X133163356Y-86160784D01*
X132509866Y-85890100D01*
X131802534Y-85890100D01*
X131149044Y-86160784D01*
X130648884Y-86660944D01*
X130378200Y-87314434D01*
X129112720Y-87314434D01*
X129235200Y-87018742D01*
X129235200Y-86412458D01*
X129003185Y-85852323D01*
X128574477Y-85423615D01*
X128014342Y-85191600D01*
X127408058Y-85191600D01*
X126847923Y-85423615D01*
X126419215Y-85852323D01*
X126187200Y-86412458D01*
X122885200Y-86412458D01*
X122653185Y-85852323D01*
X122224477Y-85423615D01*
X121664342Y-85191600D01*
X121058058Y-85191600D01*
X120497923Y-85423615D01*
X120069215Y-85852323D01*
X119837200Y-86412458D01*
X119710078Y-86412458D01*
X119710078Y-86396359D01*
X119727415Y-86309199D01*
X119710078Y-86222039D01*
X119710078Y-86222035D01*
X119658730Y-85963890D01*
X119570575Y-85831958D01*
X119512502Y-85745045D01*
X119512501Y-85745044D01*
X119463127Y-85671151D01*
X119389234Y-85621777D01*
X118115503Y-84348047D01*
X118066127Y-84274151D01*
X117773388Y-84078548D01*
X117515243Y-84027200D01*
X117515239Y-84027200D01*
X117428078Y-84009863D01*
X117340917Y-84027200D01*
X111263557Y-84027200D01*
X111176397Y-84009863D01*
X111089237Y-84027200D01*
X111089233Y-84027200D01*
X110831088Y-84078548D01*
X110743546Y-84137042D01*
X110612243Y-84224776D01*
X110612242Y-84224777D01*
X110538349Y-84274151D01*
X110488975Y-84348044D01*
X109341645Y-85495375D01*
X109267750Y-85544750D01*
X109147310Y-85725000D01*
X108894602Y-85725000D01*
X108457475Y-85811950D01*
X107961770Y-86143170D01*
X107630550Y-86638875D01*
X107514241Y-87223600D01*
X107630550Y-87808325D01*
X107961770Y-88304030D01*
X108245481Y-88493600D01*
X107961770Y-88683170D01*
X107630550Y-89178875D01*
X107514241Y-89763600D01*
X107630550Y-90348325D01*
X107961770Y-90844030D01*
X108245481Y-91033600D01*
X107961770Y-91223170D01*
X107630550Y-91718875D01*
X107514241Y-92303600D01*
X107630550Y-92888325D01*
X107961770Y-93384030D01*
X108245481Y-93573600D01*
X107961770Y-93763170D01*
X107630550Y-94258875D01*
X107514241Y-94843600D01*
X107630550Y-95428325D01*
X107961770Y-95924030D01*
X108245481Y-96113600D01*
X107961770Y-96303170D01*
X107630550Y-96798875D01*
X107514241Y-97383600D01*
X107624653Y-97938676D01*
X107479018Y-97967645D01*
X107235896Y-98130094D01*
X107194891Y-98191462D01*
X105754265Y-99632089D01*
X105692895Y-99673095D01*
X105688200Y-99680122D01*
X105688200Y-81270596D01*
X113176200Y-81270596D01*
X113176200Y-82000604D01*
X113455562Y-82675044D01*
X113971756Y-83191238D01*
X114646196Y-83470600D01*
X115376204Y-83470600D01*
X116050644Y-83191238D01*
X116566838Y-82675044D01*
X116846200Y-82000604D01*
X116846200Y-81332458D01*
X119837200Y-81332458D01*
X119837200Y-81938742D01*
X120069215Y-82498877D01*
X120497923Y-82927585D01*
X121058058Y-83159600D01*
X121664342Y-83159600D01*
X122224477Y-82927585D01*
X122653185Y-82498877D01*
X122885200Y-81938742D01*
X122885200Y-81332458D01*
X126187200Y-81332458D01*
X126187200Y-81938742D01*
X126419215Y-82498877D01*
X126847923Y-82927585D01*
X127408058Y-83159600D01*
X128014342Y-83159600D01*
X128574477Y-82927585D01*
X129003185Y-82498877D01*
X129235200Y-81938742D01*
X129235200Y-81332458D01*
X129209576Y-81270596D01*
X132226200Y-81270596D01*
X132226200Y-82000604D01*
X132505562Y-82675044D01*
X133021756Y-83191238D01*
X133696196Y-83470600D01*
X134426204Y-83470600D01*
X135100644Y-83191238D01*
X135616838Y-82675044D01*
X135896200Y-82000604D01*
X135896200Y-81270596D01*
X135616838Y-80596156D01*
X135100644Y-80079962D01*
X134426204Y-79800600D01*
X133696196Y-79800600D01*
X133021756Y-80079962D01*
X132505562Y-80596156D01*
X132226200Y-81270596D01*
X129209576Y-81270596D01*
X129003185Y-80772323D01*
X128574477Y-80343615D01*
X128014342Y-80111600D01*
X127408058Y-80111600D01*
X126847923Y-80343615D01*
X126419215Y-80772323D01*
X126187200Y-81332458D01*
X122885200Y-81332458D01*
X122653185Y-80772323D01*
X122224477Y-80343615D01*
X121664342Y-80111600D01*
X121058058Y-80111600D01*
X120497923Y-80343615D01*
X120069215Y-80772323D01*
X119837200Y-81332458D01*
X116846200Y-81332458D01*
X116846200Y-81270596D01*
X116566838Y-80596156D01*
X116050644Y-80079962D01*
X115376204Y-79800600D01*
X114646196Y-79800600D01*
X113971756Y-80079962D01*
X113455562Y-80596156D01*
X113176200Y-81270596D01*
X105688200Y-81270596D01*
X105688200Y-77672731D01*
X144652906Y-77647881D01*
X144628123Y-111304000D01*
G36*
X122762202Y-98291581D02*
X122762201Y-103152894D01*
X122234235Y-102960084D01*
X121628500Y-102985877D01*
X121188667Y-103168061D01*
X121103609Y-103423404D01*
X121996200Y-104315995D01*
X122010343Y-104301853D01*
X122189948Y-104481458D01*
X122175805Y-104495600D01*
X122189948Y-104509743D01*
X122010343Y-104689348D01*
X121996200Y-104675205D01*
X121982058Y-104689348D01*
X121802453Y-104509743D01*
X121816595Y-104495600D01*
X120924004Y-103603009D01*
X120668661Y-103688067D01*
X120460684Y-104257565D01*
X120486477Y-104863300D01*
X120668661Y-105303133D01*
X120924002Y-105388190D01*
X120923592Y-105388600D01*
X119201563Y-105388600D01*
X116641818Y-102828856D01*
X116609909Y-102781100D01*
X117269866Y-102781100D01*
X117923356Y-102510416D01*
X118423516Y-102010256D01*
X118694200Y-101356766D01*
X118694200Y-100649434D01*
X118423516Y-99995944D01*
X117923356Y-99495784D01*
X117269866Y-99225100D01*
X116562534Y-99225100D01*
X115909044Y-99495784D01*
X115408884Y-99995944D01*
X115138200Y-100649434D01*
X115138200Y-101356766D01*
X115408884Y-102010256D01*
X115900100Y-102501472D01*
X115867233Y-102508010D01*
X113101325Y-102508010D01*
X113110159Y-102463600D01*
X112993850Y-101878875D01*
X112662630Y-101383170D01*
X112378919Y-101193600D01*
X112662630Y-101004030D01*
X112993850Y-100508325D01*
X113110159Y-99923600D01*
X112993850Y-99338875D01*
X112662630Y-98843170D01*
X112378919Y-98653600D01*
X112662630Y-98464030D01*
X112993850Y-97968325D01*
X113110159Y-97383600D01*
X112993850Y-96798875D01*
X112662630Y-96303170D01*
X112378919Y-96113600D01*
X112662630Y-95924030D01*
X112993850Y-95428325D01*
X113110159Y-94843600D01*
X112993850Y-94258875D01*
X112662630Y-93763170D01*
X112378919Y-93573600D01*
X112662630Y-93384030D01*
X112993850Y-92888325D01*
X113110159Y-92303600D01*
X112993850Y-91718875D01*
X112662630Y-91223170D01*
X112378919Y-91033600D01*
X112662630Y-90844030D01*
X112993850Y-90348325D01*
X113110159Y-89763600D01*
X112993850Y-89178875D01*
X112667549Y-88690532D01*
X112693565Y-88685357D01*
X112903609Y-88545009D01*
X112948479Y-88477857D01*
X122762202Y-98291581D01*
X122762202Y-98291581D01*
G37*
X122762202Y-98291581D02*
X122762201Y-103152894D01*
X122234235Y-102960084D01*
X121628500Y-102985877D01*
X121188667Y-103168061D01*
X121103609Y-103423404D01*
X121996200Y-104315995D01*
X122010343Y-104301853D01*
X122189948Y-104481458D01*
X122175805Y-104495600D01*
X122189948Y-104509743D01*
X122010343Y-104689348D01*
X121996200Y-104675205D01*
X121982058Y-104689348D01*
X121802453Y-104509743D01*
X121816595Y-104495600D01*
X120924004Y-103603009D01*
X120668661Y-103688067D01*
X120460684Y-104257565D01*
X120486477Y-104863300D01*
X120668661Y-105303133D01*
X120924002Y-105388190D01*
X120923592Y-105388600D01*
X119201563Y-105388600D01*
X116641818Y-102828856D01*
X116609909Y-102781100D01*
X117269866Y-102781100D01*
X117923356Y-102510416D01*
X118423516Y-102010256D01*
X118694200Y-101356766D01*
X118694200Y-100649434D01*
X118423516Y-99995944D01*
X117923356Y-99495784D01*
X117269866Y-99225100D01*
X116562534Y-99225100D01*
X115909044Y-99495784D01*
X115408884Y-99995944D01*
X115138200Y-100649434D01*
X115138200Y-101356766D01*
X115408884Y-102010256D01*
X115900100Y-102501472D01*
X115867233Y-102508010D01*
X113101325Y-102508010D01*
X113110159Y-102463600D01*
X112993850Y-101878875D01*
X112662630Y-101383170D01*
X112378919Y-101193600D01*
X112662630Y-101004030D01*
X112993850Y-100508325D01*
X113110159Y-99923600D01*
X112993850Y-99338875D01*
X112662630Y-98843170D01*
X112378919Y-98653600D01*
X112662630Y-98464030D01*
X112993850Y-97968325D01*
X113110159Y-97383600D01*
X112993850Y-96798875D01*
X112662630Y-96303170D01*
X112378919Y-96113600D01*
X112662630Y-95924030D01*
X112993850Y-95428325D01*
X113110159Y-94843600D01*
X112993850Y-94258875D01*
X112662630Y-93763170D01*
X112378919Y-93573600D01*
X112662630Y-93384030D01*
X112993850Y-92888325D01*
X113110159Y-92303600D01*
X112993850Y-91718875D01*
X112662630Y-91223170D01*
X112378919Y-91033600D01*
X112662630Y-90844030D01*
X112993850Y-90348325D01*
X113110159Y-89763600D01*
X112993850Y-89178875D01*
X112667549Y-88690532D01*
X112693565Y-88685357D01*
X112903609Y-88545009D01*
X112948479Y-88477857D01*
X122762202Y-98291581D01*
G36*
X136506001Y-95069112D02*
X136506000Y-98910689D01*
X133845300Y-101571389D01*
X133934200Y-101356766D01*
X133934200Y-100649434D01*
X133663516Y-99995944D01*
X133163356Y-99495784D01*
X132509866Y-99225100D01*
X131802534Y-99225100D01*
X131149044Y-99495784D01*
X130648884Y-99995944D01*
X130378200Y-100649434D01*
X130378200Y-101356766D01*
X130648884Y-102010256D01*
X131149044Y-102510416D01*
X131802534Y-102781100D01*
X132509866Y-102781100D01*
X132724490Y-102692200D01*
X131956090Y-103460600D01*
X128196462Y-103460600D01*
X127939477Y-103203615D01*
X127379342Y-102971600D01*
X126773058Y-102971600D01*
X126212923Y-103203615D01*
X125806200Y-103610338D01*
X125399477Y-103203615D01*
X124839342Y-102971600D01*
X124532201Y-102971600D01*
X124532201Y-98012160D01*
X124545003Y-97947796D01*
X133803609Y-97947796D01*
X133888667Y-98203139D01*
X134458165Y-98411116D01*
X135063900Y-98385323D01*
X135503733Y-98203139D01*
X135588791Y-97947796D01*
X134696200Y-97055205D01*
X133803609Y-97947796D01*
X124545003Y-97947796D01*
X124549538Y-97925000D01*
X124532201Y-97837840D01*
X124532201Y-97837836D01*
X124480853Y-97579691D01*
X124364203Y-97405113D01*
X124334625Y-97360846D01*
X124334624Y-97360845D01*
X124285250Y-97286952D01*
X124211357Y-97237578D01*
X123611344Y-96637565D01*
X133160684Y-96637565D01*
X133186477Y-97243300D01*
X133368661Y-97683133D01*
X133624004Y-97768191D01*
X134516595Y-96875600D01*
X134875805Y-96875600D01*
X135768396Y-97768191D01*
X136023739Y-97683133D01*
X136231716Y-97113635D01*
X136205923Y-96507900D01*
X136023739Y-96068067D01*
X135768396Y-95983009D01*
X134875805Y-96875600D01*
X134516595Y-96875600D01*
X133624004Y-95983009D01*
X133368661Y-96068067D01*
X133160684Y-96637565D01*
X123611344Y-96637565D01*
X122194379Y-95220600D01*
X133425938Y-95220600D01*
X133832923Y-95627585D01*
X133858630Y-95638233D01*
X133803609Y-95803404D01*
X134696200Y-96695995D01*
X135588791Y-95803404D01*
X135533770Y-95638233D01*
X135559477Y-95627585D01*
X135988185Y-95198877D01*
X136177857Y-94740968D01*
X136506001Y-95069112D01*
X136506001Y-95069112D01*
G37*
X136506001Y-95069112D02*
X136506000Y-98910689D01*
X133845300Y-101571389D01*
X133934200Y-101356766D01*
X133934200Y-100649434D01*
X133663516Y-99995944D01*
X133163356Y-99495784D01*
X132509866Y-99225100D01*
X131802534Y-99225100D01*
X131149044Y-99495784D01*
X130648884Y-99995944D01*
X130378200Y-100649434D01*
X130378200Y-101356766D01*
X130648884Y-102010256D01*
X131149044Y-102510416D01*
X131802534Y-102781100D01*
X132509866Y-102781100D01*
X132724490Y-102692200D01*
X131956090Y-103460600D01*
X128196462Y-103460600D01*
X127939477Y-103203615D01*
X127379342Y-102971600D01*
X126773058Y-102971600D01*
X126212923Y-103203615D01*
X125806200Y-103610338D01*
X125399477Y-103203615D01*
X124839342Y-102971600D01*
X124532201Y-102971600D01*
X124532201Y-98012160D01*
X124545003Y-97947796D01*
X133803609Y-97947796D01*
X133888667Y-98203139D01*
X134458165Y-98411116D01*
X135063900Y-98385323D01*
X135503733Y-98203139D01*
X135588791Y-97947796D01*
X134696200Y-97055205D01*
X133803609Y-97947796D01*
X124545003Y-97947796D01*
X124549538Y-97925000D01*
X124532201Y-97837840D01*
X124532201Y-97837836D01*
X124480853Y-97579691D01*
X124364203Y-97405113D01*
X124334625Y-97360846D01*
X124334624Y-97360845D01*
X124285250Y-97286952D01*
X124211357Y-97237578D01*
X123611344Y-96637565D01*
X133160684Y-96637565D01*
X133186477Y-97243300D01*
X133368661Y-97683133D01*
X133624004Y-97768191D01*
X134516595Y-96875600D01*
X134875805Y-96875600D01*
X135768396Y-97768191D01*
X136023739Y-97683133D01*
X136231716Y-97113635D01*
X136205923Y-96507900D01*
X136023739Y-96068067D01*
X135768396Y-95983009D01*
X134875805Y-96875600D01*
X134516595Y-96875600D01*
X133624004Y-95983009D01*
X133368661Y-96068067D01*
X133160684Y-96637565D01*
X123611344Y-96637565D01*
X122194379Y-95220600D01*
X133425938Y-95220600D01*
X133832923Y-95627585D01*
X133858630Y-95638233D01*
X133803609Y-95803404D01*
X134696200Y-96695995D01*
X135588791Y-95803404D01*
X135533770Y-95638233D01*
X135559477Y-95627585D01*
X135988185Y-95198877D01*
X136177857Y-94740968D01*
X136506001Y-95069112D01*
G36*
X109169200Y-102336600D02*
X109189200Y-102336600D01*
X109189200Y-102590600D01*
X109169200Y-102590600D01*
X109169200Y-102610600D01*
X108915200Y-102610600D01*
X108915200Y-102590600D01*
X108895200Y-102590600D01*
X108895200Y-102336600D01*
X108915200Y-102336600D01*
X108915200Y-102316600D01*
X109169200Y-102316600D01*
X109169200Y-102336600D01*
X109169200Y-102336600D01*
G37*
X109169200Y-102336600D02*
X109189200Y-102336600D01*
X109189200Y-102590600D01*
X109169200Y-102590600D01*
X109169200Y-102610600D01*
X108915200Y-102610600D01*
X108915200Y-102590600D01*
X108895200Y-102590600D01*
X108895200Y-102336600D01*
X108915200Y-102336600D01*
X108915200Y-102316600D01*
X109169200Y-102316600D01*
X109169200Y-102336600D01*
G36*
X110501770Y-101004030D02*
X110785481Y-101193600D01*
X110501770Y-101383170D01*
X110309163Y-101671426D01*
X109930690Y-101256779D01*
X109821179Y-101205454D01*
X110122630Y-101004030D01*
X110312200Y-100720319D01*
X110501770Y-101004030D01*
X110501770Y-101004030D01*
G37*
X110501770Y-101004030D02*
X110785481Y-101193600D01*
X110501770Y-101383170D01*
X110309163Y-101671426D01*
X109930690Y-101256779D01*
X109821179Y-101205454D01*
X110122630Y-101004030D01*
X110312200Y-100720319D01*
X110501770Y-101004030D01*
G04 #@! TD*
M02*
