G04 #@! TF.GenerationSoftware,KiCad,Pcbnew,5.0.0-fee4fd1~66~ubuntu18.04.1*
G04 #@! TF.CreationDate,2018-10-11T22:40:23+02:00*
G04 #@! TF.ProjectId,midi-v2-circuit,6D6964692D76322D636972637569742E,rev?*
G04 #@! TF.SameCoordinates,Original*
G04 #@! TF.FileFunction,Legend,Top*
G04 #@! TF.FilePolarity,Positive*
%FSLAX46Y46*%
G04 Gerber Fmt 4.6, Leading zero omitted, Abs format (unit mm)*
G04 Created by KiCad (PCBNEW 5.0.0-fee4fd1~66~ubuntu18.04.1) date Thu Oct 11 22:40:23 2018*
%MOMM*%
%LPD*%
G01*
G04 APERTURE LIST*
%ADD10C,0.200000*%
%ADD11C,1.000000*%
%ADD12C,0.300000*%
%ADD13C,0.203200*%
%ADD14C,0.101600*%
%ADD15C,0.120000*%
%ADD16C,0.150000*%
G04 APERTURE END LIST*
D10*
X183895295Y-87063123D02*
X184823866Y-87063123D01*
X185009580Y-87125028D01*
X185133390Y-87248838D01*
X185195295Y-87434552D01*
X185195295Y-87558361D01*
X183895295Y-86196457D02*
X183895295Y-85948838D01*
X183957200Y-85825028D01*
X184081009Y-85701219D01*
X184328628Y-85639314D01*
X184761961Y-85639314D01*
X185009580Y-85701219D01*
X185133390Y-85825028D01*
X185195295Y-85948838D01*
X185195295Y-86196457D01*
X185133390Y-86320266D01*
X185009580Y-86444076D01*
X184761961Y-86505980D01*
X184328628Y-86505980D01*
X184081009Y-86444076D01*
X183957200Y-86320266D01*
X183895295Y-86196457D01*
X184576247Y-84834552D02*
X185195295Y-84834552D01*
X183895295Y-85267885D02*
X184576247Y-84834552D01*
X183895295Y-84401219D01*
X185133390Y-84029790D02*
X185195295Y-83844076D01*
X185195295Y-83534552D01*
X185133390Y-83410742D01*
X185071485Y-83348838D01*
X184947676Y-83286933D01*
X184823866Y-83286933D01*
X184700057Y-83348838D01*
X184638152Y-83410742D01*
X184576247Y-83534552D01*
X184514342Y-83782171D01*
X184452438Y-83905980D01*
X184390533Y-83967885D01*
X184266723Y-84029790D01*
X184142914Y-84029790D01*
X184019104Y-83967885D01*
X183957200Y-83905980D01*
X183895295Y-83782171D01*
X183895295Y-83472647D01*
X183957200Y-83286933D01*
X183895295Y-82915504D02*
X183895295Y-82172647D01*
X185195295Y-82544076D02*
X183895295Y-82544076D01*
X185195295Y-81739314D02*
X183895295Y-81739314D01*
X185071485Y-80377409D02*
X185133390Y-80439314D01*
X185195295Y-80625028D01*
X185195295Y-80748838D01*
X185133390Y-80934552D01*
X185009580Y-81058361D01*
X184885771Y-81120266D01*
X184638152Y-81182171D01*
X184452438Y-81182171D01*
X184204819Y-81120266D01*
X184081009Y-81058361D01*
X183957200Y-80934552D01*
X183895295Y-80748838D01*
X183895295Y-80625028D01*
X183957200Y-80439314D01*
X184019104Y-80377409D01*
X185195295Y-79820266D02*
X183895295Y-79820266D01*
X185195295Y-79077409D02*
X184452438Y-79634552D01*
X183895295Y-79077409D02*
X184638152Y-79820266D01*
X184514342Y-77096457D02*
X184576247Y-76910742D01*
X184638152Y-76848838D01*
X184761961Y-76786933D01*
X184947676Y-76786933D01*
X185071485Y-76848838D01*
X185133390Y-76910742D01*
X185195295Y-77034552D01*
X185195295Y-77529790D01*
X183895295Y-77529790D01*
X183895295Y-77096457D01*
X183957200Y-76972647D01*
X184019104Y-76910742D01*
X184142914Y-76848838D01*
X184266723Y-76848838D01*
X184390533Y-76910742D01*
X184452438Y-76972647D01*
X184514342Y-77096457D01*
X184514342Y-77529790D01*
X183895295Y-75982171D02*
X183895295Y-75734552D01*
X183957200Y-75610742D01*
X184081009Y-75486933D01*
X184328628Y-75425028D01*
X184761961Y-75425028D01*
X185009580Y-75486933D01*
X185133390Y-75610742D01*
X185195295Y-75734552D01*
X185195295Y-75982171D01*
X185133390Y-76105980D01*
X185009580Y-76229790D01*
X184761961Y-76291695D01*
X184328628Y-76291695D01*
X184081009Y-76229790D01*
X183957200Y-76105980D01*
X183895295Y-75982171D01*
X184823866Y-74929790D02*
X184823866Y-74310742D01*
X185195295Y-75053600D02*
X183895295Y-74620266D01*
X185195295Y-74186933D01*
X185195295Y-73010742D02*
X184576247Y-73444076D01*
X185195295Y-73753600D02*
X183895295Y-73753600D01*
X183895295Y-73258361D01*
X183957200Y-73134552D01*
X184019104Y-73072647D01*
X184142914Y-73010742D01*
X184328628Y-73010742D01*
X184452438Y-73072647D01*
X184514342Y-73134552D01*
X184576247Y-73258361D01*
X184576247Y-73753600D01*
X185195295Y-72453600D02*
X183895295Y-72453600D01*
X183895295Y-72144076D01*
X183957200Y-71958361D01*
X184081009Y-71834552D01*
X184204819Y-71772647D01*
X184452438Y-71710742D01*
X184638152Y-71710742D01*
X184885771Y-71772647D01*
X185009580Y-71834552D01*
X185133390Y-71958361D01*
X185195295Y-72144076D01*
X185195295Y-72453600D01*
X158597390Y-104169295D02*
X158597390Y-102869295D01*
X159340247Y-104169295D02*
X158783104Y-103426438D01*
X159340247Y-102869295D02*
X158597390Y-103612152D01*
X159897390Y-103488342D02*
X160330723Y-103488342D01*
X160516438Y-104169295D02*
X159897390Y-104169295D01*
X159897390Y-102869295D01*
X160516438Y-102869295D01*
X161321200Y-103550247D02*
X161321200Y-104169295D01*
X160887866Y-102869295D02*
X161321200Y-103550247D01*
X161754533Y-102869295D01*
X162621200Y-103488342D02*
X162806914Y-103550247D01*
X162868819Y-103612152D01*
X162930723Y-103735961D01*
X162930723Y-103921676D01*
X162868819Y-104045485D01*
X162806914Y-104107390D01*
X162683104Y-104169295D01*
X162187866Y-104169295D01*
X162187866Y-102869295D01*
X162621200Y-102869295D01*
X162745009Y-102931200D01*
X162806914Y-102993104D01*
X162868819Y-103116914D01*
X162868819Y-103240723D01*
X162806914Y-103364533D01*
X162745009Y-103426438D01*
X162621200Y-103488342D01*
X162187866Y-103488342D01*
X163735485Y-102869295D02*
X163983104Y-102869295D01*
X164106914Y-102931200D01*
X164230723Y-103055009D01*
X164292628Y-103302628D01*
X164292628Y-103735961D01*
X164230723Y-103983580D01*
X164106914Y-104107390D01*
X163983104Y-104169295D01*
X163735485Y-104169295D01*
X163611676Y-104107390D01*
X163487866Y-103983580D01*
X163425961Y-103735961D01*
X163425961Y-103302628D01*
X163487866Y-103055009D01*
X163611676Y-102931200D01*
X163735485Y-102869295D01*
X164787866Y-103797866D02*
X165406914Y-103797866D01*
X164664057Y-104169295D02*
X165097390Y-102869295D01*
X165530723Y-104169295D01*
X166706914Y-104169295D02*
X166273580Y-103550247D01*
X165964057Y-104169295D02*
X165964057Y-102869295D01*
X166459295Y-102869295D01*
X166583104Y-102931200D01*
X166645009Y-102993104D01*
X166706914Y-103116914D01*
X166706914Y-103302628D01*
X166645009Y-103426438D01*
X166583104Y-103488342D01*
X166459295Y-103550247D01*
X165964057Y-103550247D01*
X167264057Y-104169295D02*
X167264057Y-102869295D01*
X167573580Y-102869295D01*
X167759295Y-102931200D01*
X167883104Y-103055009D01*
X167945009Y-103178819D01*
X168006914Y-103426438D01*
X168006914Y-103612152D01*
X167945009Y-103859771D01*
X167883104Y-103983580D01*
X167759295Y-104107390D01*
X167573580Y-104169295D01*
X167264057Y-104169295D01*
X124277019Y-86567095D02*
X124277019Y-85267095D01*
X124710352Y-86195666D01*
X125143685Y-85267095D01*
X125143685Y-86567095D01*
X125762733Y-86567095D02*
X125762733Y-85267095D01*
X126381780Y-86567095D02*
X126381780Y-85267095D01*
X126691304Y-85267095D01*
X126877019Y-85329000D01*
X127000828Y-85452809D01*
X127062733Y-85576619D01*
X127124638Y-85824238D01*
X127124638Y-86009952D01*
X127062733Y-86257571D01*
X127000828Y-86381380D01*
X126877019Y-86505190D01*
X126691304Y-86567095D01*
X126381780Y-86567095D01*
X127681780Y-86567095D02*
X127681780Y-85267095D01*
X129291304Y-86071857D02*
X130281780Y-86071857D01*
X129786542Y-86567095D02*
X129786542Y-85576619D01*
X124200819Y-81334695D02*
X124200819Y-80034695D01*
X124634152Y-80963266D01*
X125067485Y-80034695D01*
X125067485Y-81334695D01*
X125686533Y-81334695D02*
X125686533Y-80034695D01*
X126305580Y-81334695D02*
X126305580Y-80034695D01*
X126615104Y-80034695D01*
X126800819Y-80096600D01*
X126924628Y-80220409D01*
X126986533Y-80344219D01*
X127048438Y-80591838D01*
X127048438Y-80777552D01*
X126986533Y-81025171D01*
X126924628Y-81148980D01*
X126800819Y-81272790D01*
X126615104Y-81334695D01*
X126305580Y-81334695D01*
X127605580Y-81334695D02*
X127605580Y-80034695D01*
X129215104Y-80839457D02*
X130205580Y-80839457D01*
X124891923Y-82628400D02*
X124768114Y-82566495D01*
X124582400Y-82566495D01*
X124396685Y-82628400D01*
X124272876Y-82752209D01*
X124210971Y-82876019D01*
X124149066Y-83123638D01*
X124149066Y-83309352D01*
X124210971Y-83556971D01*
X124272876Y-83680780D01*
X124396685Y-83804590D01*
X124582400Y-83866495D01*
X124706209Y-83866495D01*
X124891923Y-83804590D01*
X124953828Y-83742685D01*
X124953828Y-83309352D01*
X124706209Y-83309352D01*
X125510971Y-83866495D02*
X125510971Y-82566495D01*
X126253828Y-83866495D01*
X126253828Y-82566495D01*
X126872876Y-83866495D02*
X126872876Y-82566495D01*
X127182400Y-82566495D01*
X127368114Y-82628400D01*
X127491923Y-82752209D01*
X127553828Y-82876019D01*
X127615733Y-83123638D01*
X127615733Y-83309352D01*
X127553828Y-83556971D01*
X127491923Y-83680780D01*
X127368114Y-83804590D01*
X127182400Y-83866495D01*
X126872876Y-83866495D01*
X124790323Y-96344400D02*
X124666514Y-96282495D01*
X124480800Y-96282495D01*
X124295085Y-96344400D01*
X124171276Y-96468209D01*
X124109371Y-96592019D01*
X124047466Y-96839638D01*
X124047466Y-97025352D01*
X124109371Y-97272971D01*
X124171276Y-97396780D01*
X124295085Y-97520590D01*
X124480800Y-97582495D01*
X124604609Y-97582495D01*
X124790323Y-97520590D01*
X124852228Y-97458685D01*
X124852228Y-97025352D01*
X124604609Y-97025352D01*
X125409371Y-97582495D02*
X125409371Y-96282495D01*
X126152228Y-97582495D01*
X126152228Y-96282495D01*
X126771276Y-97582495D02*
X126771276Y-96282495D01*
X127080800Y-96282495D01*
X127266514Y-96344400D01*
X127390323Y-96468209D01*
X127452228Y-96592019D01*
X127514133Y-96839638D01*
X127514133Y-97025352D01*
X127452228Y-97272971D01*
X127390323Y-97396780D01*
X127266514Y-97520590D01*
X127080800Y-97582495D01*
X126771276Y-97582495D01*
X123982371Y-99652657D02*
X124972847Y-99652657D01*
X124477609Y-100147895D02*
X124477609Y-99157419D01*
X126210942Y-98847895D02*
X125591895Y-98847895D01*
X125529990Y-99466942D01*
X125591895Y-99405038D01*
X125715704Y-99343133D01*
X126025228Y-99343133D01*
X126149038Y-99405038D01*
X126210942Y-99466942D01*
X126272847Y-99590752D01*
X126272847Y-99900276D01*
X126210942Y-100024085D01*
X126149038Y-100085990D01*
X126025228Y-100147895D01*
X125715704Y-100147895D01*
X125591895Y-100085990D01*
X125529990Y-100024085D01*
X126644276Y-98847895D02*
X127077609Y-100147895D01*
X127510942Y-98847895D01*
X124432361Y-94898295D02*
X124432361Y-93598295D01*
X124741885Y-93598295D01*
X124927600Y-93660200D01*
X125051409Y-93784009D01*
X125113314Y-93907819D01*
X125175219Y-94155438D01*
X125175219Y-94341152D01*
X125113314Y-94588771D01*
X125051409Y-94712580D01*
X124927600Y-94836390D01*
X124741885Y-94898295D01*
X124432361Y-94898295D01*
X125732361Y-94403057D02*
X126722838Y-94403057D01*
X126227600Y-94898295D02*
X126227600Y-93907819D01*
X124381561Y-92510695D02*
X124381561Y-91210695D01*
X124691085Y-91210695D01*
X124876800Y-91272600D01*
X125000609Y-91396409D01*
X125062514Y-91520219D01*
X125124419Y-91767838D01*
X125124419Y-91953552D01*
X125062514Y-92201171D01*
X125000609Y-92324980D01*
X124876800Y-92448790D01*
X124691085Y-92510695D01*
X124381561Y-92510695D01*
X125681561Y-92015457D02*
X126672038Y-92015457D01*
X95497866Y-70074295D02*
X95497866Y-68774295D01*
X95993104Y-68774295D01*
X96116914Y-68836200D01*
X96178819Y-68898104D01*
X96240723Y-69021914D01*
X96240723Y-69207628D01*
X96178819Y-69331438D01*
X96116914Y-69393342D01*
X95993104Y-69455247D01*
X95497866Y-69455247D01*
X96674057Y-68774295D02*
X96983580Y-70074295D01*
X97231200Y-69145723D01*
X97478819Y-70074295D01*
X97788342Y-68774295D01*
X99026438Y-70074295D02*
X98593104Y-69455247D01*
X98283580Y-70074295D02*
X98283580Y-68774295D01*
X98778819Y-68774295D01*
X98902628Y-68836200D01*
X98964533Y-68898104D01*
X99026438Y-69021914D01*
X99026438Y-69207628D01*
X98964533Y-69331438D01*
X98902628Y-69393342D01*
X98778819Y-69455247D01*
X98283580Y-69455247D01*
X93981200Y-72162390D02*
X94166914Y-72224295D01*
X94476438Y-72224295D01*
X94600247Y-72162390D01*
X94662152Y-72100485D01*
X94724057Y-71976676D01*
X94724057Y-71852866D01*
X94662152Y-71729057D01*
X94600247Y-71667152D01*
X94476438Y-71605247D01*
X94228819Y-71543342D01*
X94105009Y-71481438D01*
X94043104Y-71419533D01*
X93981200Y-71295723D01*
X93981200Y-71171914D01*
X94043104Y-71048104D01*
X94105009Y-70986200D01*
X94228819Y-70924295D01*
X94538342Y-70924295D01*
X94724057Y-70986200D01*
X95157390Y-70924295D02*
X95466914Y-72224295D01*
X95714533Y-71295723D01*
X95962152Y-72224295D01*
X96271676Y-70924295D01*
X96766914Y-72224295D02*
X96766914Y-70924295D01*
X97200247Y-70924295D02*
X97943104Y-70924295D01*
X97571676Y-72224295D02*
X97571676Y-70924295D01*
X99119295Y-72100485D02*
X99057390Y-72162390D01*
X98871676Y-72224295D01*
X98747866Y-72224295D01*
X98562152Y-72162390D01*
X98438342Y-72038580D01*
X98376438Y-71914771D01*
X98314533Y-71667152D01*
X98314533Y-71481438D01*
X98376438Y-71233819D01*
X98438342Y-71110009D01*
X98562152Y-70986200D01*
X98747866Y-70924295D01*
X98871676Y-70924295D01*
X99057390Y-70986200D01*
X99119295Y-71048104D01*
X99676438Y-72224295D02*
X99676438Y-70924295D01*
X99676438Y-71543342D02*
X100419295Y-71543342D01*
X100419295Y-72224295D02*
X100419295Y-70924295D01*
X95814600Y-62335495D02*
X95814600Y-61035495D01*
X96124123Y-61035495D01*
X96309838Y-61097400D01*
X96433647Y-61221209D01*
X96495552Y-61345019D01*
X96557457Y-61592638D01*
X96557457Y-61778352D01*
X96495552Y-62025971D01*
X96433647Y-62149780D01*
X96309838Y-62273590D01*
X96124123Y-62335495D01*
X95814600Y-62335495D01*
X97052695Y-61964066D02*
X97671742Y-61964066D01*
X96928885Y-62335495D02*
X97362219Y-61035495D01*
X97795552Y-62335495D01*
X98043171Y-61035495D02*
X98786028Y-61035495D01*
X98414600Y-62335495D02*
X98414600Y-61035495D01*
X99157457Y-61964066D02*
X99776504Y-61964066D01*
X99033647Y-62335495D02*
X99466980Y-61035495D01*
X99900314Y-62335495D01*
X103854466Y-62259295D02*
X103854466Y-60959295D01*
X104349704Y-60959295D01*
X104473514Y-61021200D01*
X104535419Y-61083104D01*
X104597323Y-61206914D01*
X104597323Y-61392628D01*
X104535419Y-61516438D01*
X104473514Y-61578342D01*
X104349704Y-61640247D01*
X103854466Y-61640247D01*
X105030657Y-60959295D02*
X105340180Y-62259295D01*
X105587800Y-61330723D01*
X105835419Y-62259295D01*
X106144942Y-60959295D01*
X107383038Y-62259295D02*
X106949704Y-61640247D01*
X106640180Y-62259295D02*
X106640180Y-60959295D01*
X107135419Y-60959295D01*
X107259228Y-61021200D01*
X107321133Y-61083104D01*
X107383038Y-61206914D01*
X107383038Y-61392628D01*
X107321133Y-61516438D01*
X107259228Y-61578342D01*
X107135419Y-61640247D01*
X106640180Y-61640247D01*
X79171923Y-73789200D02*
X79048114Y-73727295D01*
X78862400Y-73727295D01*
X78676685Y-73789200D01*
X78552876Y-73913009D01*
X78490971Y-74036819D01*
X78429066Y-74284438D01*
X78429066Y-74470152D01*
X78490971Y-74717771D01*
X78552876Y-74841580D01*
X78676685Y-74965390D01*
X78862400Y-75027295D01*
X78986209Y-75027295D01*
X79171923Y-74965390D01*
X79233828Y-74903485D01*
X79233828Y-74470152D01*
X78986209Y-74470152D01*
X79790971Y-75027295D02*
X79790971Y-73727295D01*
X80533828Y-75027295D01*
X80533828Y-73727295D01*
X81152876Y-75027295D02*
X81152876Y-73727295D01*
X81462400Y-73727295D01*
X81648114Y-73789200D01*
X81771923Y-73913009D01*
X81833828Y-74036819D01*
X81895733Y-74284438D01*
X81895733Y-74470152D01*
X81833828Y-74717771D01*
X81771923Y-74841580D01*
X81648114Y-74965390D01*
X81462400Y-75027295D01*
X81152876Y-75027295D01*
X78617971Y-71966657D02*
X79608447Y-71966657D01*
X79113209Y-72461895D02*
X79113209Y-71471419D01*
X80846542Y-71161895D02*
X80227495Y-71161895D01*
X80165590Y-71780942D01*
X80227495Y-71719038D01*
X80351304Y-71657133D01*
X80660828Y-71657133D01*
X80784638Y-71719038D01*
X80846542Y-71780942D01*
X80908447Y-71904752D01*
X80908447Y-72214276D01*
X80846542Y-72338085D01*
X80784638Y-72399990D01*
X80660828Y-72461895D01*
X80351304Y-72461895D01*
X80227495Y-72399990D01*
X80165590Y-72338085D01*
X81279876Y-71161895D02*
X81713209Y-72461895D01*
X82146542Y-71161895D01*
X78741780Y-69961590D02*
X78927495Y-70023495D01*
X79237019Y-70023495D01*
X79360828Y-69961590D01*
X79422733Y-69899685D01*
X79484638Y-69775876D01*
X79484638Y-69652066D01*
X79422733Y-69528257D01*
X79360828Y-69466352D01*
X79237019Y-69404447D01*
X78989400Y-69342542D01*
X78865590Y-69280638D01*
X78803685Y-69218733D01*
X78741780Y-69094923D01*
X78741780Y-68971114D01*
X78803685Y-68847304D01*
X78865590Y-68785400D01*
X78989400Y-68723495D01*
X79298923Y-68723495D01*
X79484638Y-68785400D01*
X80784638Y-69899685D02*
X80722733Y-69961590D01*
X80537019Y-70023495D01*
X80413209Y-70023495D01*
X80227495Y-69961590D01*
X80103685Y-69837780D01*
X80041780Y-69713971D01*
X79979876Y-69466352D01*
X79979876Y-69280638D01*
X80041780Y-69033019D01*
X80103685Y-68909209D01*
X80227495Y-68785400D01*
X80413209Y-68723495D01*
X80537019Y-68723495D01*
X80722733Y-68785400D01*
X80784638Y-68847304D01*
X81960828Y-70023495D02*
X81341780Y-70023495D01*
X81341780Y-68723495D01*
X78685428Y-67480590D02*
X78871142Y-67542495D01*
X79180666Y-67542495D01*
X79304476Y-67480590D01*
X79366380Y-67418685D01*
X79428285Y-67294876D01*
X79428285Y-67171066D01*
X79366380Y-67047257D01*
X79304476Y-66985352D01*
X79180666Y-66923447D01*
X78933047Y-66861542D01*
X78809238Y-66799638D01*
X78747333Y-66737733D01*
X78685428Y-66613923D01*
X78685428Y-66490114D01*
X78747333Y-66366304D01*
X78809238Y-66304400D01*
X78933047Y-66242495D01*
X79242571Y-66242495D01*
X79428285Y-66304400D01*
X79985428Y-67542495D02*
X79985428Y-66242495D01*
X80294952Y-66242495D01*
X80480666Y-66304400D01*
X80604476Y-66428209D01*
X80666380Y-66552019D01*
X80728285Y-66799638D01*
X80728285Y-66985352D01*
X80666380Y-67232971D01*
X80604476Y-67356780D01*
X80480666Y-67480590D01*
X80294952Y-67542495D01*
X79985428Y-67542495D01*
X81223523Y-67171066D02*
X81842571Y-67171066D01*
X81099714Y-67542495D02*
X81533047Y-66242495D01*
X81966380Y-67542495D01*
D11*
X172901000Y-71120000D02*
G75*
G03X172901000Y-71120000I-1600J0D01*
G01*
D10*
X118110000Y-111912400D02*
X118110000Y-77292200D01*
X118110000Y-77292200D02*
X77317600Y-77292200D01*
D12*
X131409085Y-109060371D02*
X131409085Y-107560371D01*
X131909085Y-108631800D01*
X132409085Y-107560371D01*
X132409085Y-109060371D01*
X133123371Y-109060371D02*
X133123371Y-107560371D01*
X133623371Y-108631800D01*
X134123371Y-107560371D01*
X134123371Y-109060371D01*
X135909085Y-107703228D02*
X135980514Y-107631800D01*
X136123371Y-107560371D01*
X136480514Y-107560371D01*
X136623371Y-107631800D01*
X136694800Y-107703228D01*
X136766228Y-107846085D01*
X136766228Y-107988942D01*
X136694800Y-108203228D01*
X135837657Y-109060371D01*
X136766228Y-109060371D01*
X137694800Y-107560371D02*
X137837657Y-107560371D01*
X137980514Y-107631800D01*
X138051942Y-107703228D01*
X138123371Y-107846085D01*
X138194800Y-108131800D01*
X138194800Y-108488942D01*
X138123371Y-108774657D01*
X138051942Y-108917514D01*
X137980514Y-108988942D01*
X137837657Y-109060371D01*
X137694800Y-109060371D01*
X137551942Y-108988942D01*
X137480514Y-108917514D01*
X137409085Y-108774657D01*
X137337657Y-108488942D01*
X137337657Y-108131800D01*
X137409085Y-107846085D01*
X137480514Y-107703228D01*
X137551942Y-107631800D01*
X137694800Y-107560371D01*
X139623371Y-109060371D02*
X138766228Y-109060371D01*
X139194800Y-109060371D02*
X139194800Y-107560371D01*
X139051942Y-107774657D01*
X138909085Y-107917514D01*
X138766228Y-107988942D01*
X140480514Y-108203228D02*
X140337657Y-108131800D01*
X140266228Y-108060371D01*
X140194800Y-107917514D01*
X140194800Y-107846085D01*
X140266228Y-107703228D01*
X140337657Y-107631800D01*
X140480514Y-107560371D01*
X140766228Y-107560371D01*
X140909085Y-107631800D01*
X140980514Y-107703228D01*
X141051942Y-107846085D01*
X141051942Y-107917514D01*
X140980514Y-108060371D01*
X140909085Y-108131800D01*
X140766228Y-108203228D01*
X140480514Y-108203228D01*
X140337657Y-108274657D01*
X140266228Y-108346085D01*
X140194800Y-108488942D01*
X140194800Y-108774657D01*
X140266228Y-108917514D01*
X140337657Y-108988942D01*
X140480514Y-109060371D01*
X140766228Y-109060371D01*
X140909085Y-108988942D01*
X140980514Y-108917514D01*
X141051942Y-108774657D01*
X141051942Y-108488942D01*
X140980514Y-108346085D01*
X140909085Y-108274657D01*
X140766228Y-108203228D01*
X146230771Y-95344371D02*
X146230771Y-93844371D01*
X146730771Y-94915800D01*
X147230771Y-93844371D01*
X147230771Y-95344371D01*
X147945057Y-95344371D02*
X147945057Y-93844371D01*
X148659342Y-95344371D02*
X148659342Y-93844371D01*
X149016485Y-93844371D01*
X149230771Y-93915800D01*
X149373628Y-94058657D01*
X149445057Y-94201514D01*
X149516485Y-94487228D01*
X149516485Y-94701514D01*
X149445057Y-94987228D01*
X149373628Y-95130085D01*
X149230771Y-95272942D01*
X149016485Y-95344371D01*
X148659342Y-95344371D01*
X150159342Y-95344371D02*
X150159342Y-93844371D01*
X152016485Y-94772942D02*
X153159342Y-94772942D01*
X155016485Y-93844371D02*
X155016485Y-95058657D01*
X155087914Y-95201514D01*
X155159342Y-95272942D01*
X155302200Y-95344371D01*
X155587914Y-95344371D01*
X155730771Y-95272942D01*
X155802200Y-95201514D01*
X155873628Y-95058657D01*
X155873628Y-93844371D01*
X156516485Y-95272942D02*
X156730771Y-95344371D01*
X157087914Y-95344371D01*
X157230771Y-95272942D01*
X157302200Y-95201514D01*
X157373628Y-95058657D01*
X157373628Y-94915800D01*
X157302200Y-94772942D01*
X157230771Y-94701514D01*
X157087914Y-94630085D01*
X156802200Y-94558657D01*
X156659342Y-94487228D01*
X156587914Y-94415800D01*
X156516485Y-94272942D01*
X156516485Y-94130085D01*
X156587914Y-93987228D01*
X156659342Y-93915800D01*
X156802200Y-93844371D01*
X157159342Y-93844371D01*
X157373628Y-93915800D01*
X158516485Y-94558657D02*
X158730771Y-94630085D01*
X158802200Y-94701514D01*
X158873628Y-94844371D01*
X158873628Y-95058657D01*
X158802200Y-95201514D01*
X158730771Y-95272942D01*
X158587914Y-95344371D01*
X158016485Y-95344371D01*
X158016485Y-93844371D01*
X158516485Y-93844371D01*
X158659342Y-93915800D01*
X158730771Y-93987228D01*
X158802200Y-94130085D01*
X158802200Y-94272942D01*
X158730771Y-94415800D01*
X158659342Y-94487228D01*
X158516485Y-94558657D01*
X158016485Y-94558657D01*
X160587914Y-94915800D02*
X161302200Y-94915800D01*
X160445057Y-95344371D02*
X160945057Y-93844371D01*
X161445057Y-95344371D01*
X162587914Y-95344371D02*
X162587914Y-93844371D01*
X162587914Y-95272942D02*
X162445057Y-95344371D01*
X162159342Y-95344371D01*
X162016485Y-95272942D01*
X161945057Y-95201514D01*
X161873628Y-95058657D01*
X161873628Y-94630085D01*
X161945057Y-94487228D01*
X162016485Y-94415800D01*
X162159342Y-94344371D01*
X162445057Y-94344371D01*
X162587914Y-94415800D01*
X163945057Y-95344371D02*
X163945057Y-94558657D01*
X163873628Y-94415800D01*
X163730771Y-94344371D01*
X163445057Y-94344371D01*
X163302200Y-94415800D01*
X163945057Y-95272942D02*
X163802200Y-95344371D01*
X163445057Y-95344371D01*
X163302200Y-95272942D01*
X163230771Y-95130085D01*
X163230771Y-94987228D01*
X163302200Y-94844371D01*
X163445057Y-94772942D01*
X163802200Y-94772942D01*
X163945057Y-94701514D01*
X164659342Y-94344371D02*
X164659342Y-95844371D01*
X164659342Y-94415800D02*
X164802200Y-94344371D01*
X165087914Y-94344371D01*
X165230771Y-94415800D01*
X165302200Y-94487228D01*
X165373628Y-94630085D01*
X165373628Y-95058657D01*
X165302200Y-95201514D01*
X165230771Y-95272942D01*
X165087914Y-95344371D01*
X164802200Y-95344371D01*
X164659342Y-95272942D01*
X165802200Y-94344371D02*
X166373628Y-94344371D01*
X166016485Y-93844371D02*
X166016485Y-95130085D01*
X166087914Y-95272942D01*
X166230771Y-95344371D01*
X166373628Y-95344371D01*
X167445057Y-95272942D02*
X167302200Y-95344371D01*
X167016485Y-95344371D01*
X166873628Y-95272942D01*
X166802200Y-95130085D01*
X166802200Y-94558657D01*
X166873628Y-94415800D01*
X167016485Y-94344371D01*
X167302200Y-94344371D01*
X167445057Y-94415800D01*
X167516485Y-94558657D01*
X167516485Y-94701514D01*
X166802200Y-94844371D01*
X168159342Y-95344371D02*
X168159342Y-94344371D01*
X168159342Y-94630085D02*
X168230771Y-94487228D01*
X168302200Y-94415800D01*
X168445057Y-94344371D01*
X168587914Y-94344371D01*
X129661542Y-106748971D02*
X129661542Y-105248971D01*
X130161542Y-106320400D01*
X130661542Y-105248971D01*
X130661542Y-106748971D01*
X131375828Y-106748971D02*
X131375828Y-105248971D01*
X132090114Y-106748971D02*
X132090114Y-105248971D01*
X132447257Y-105248971D01*
X132661542Y-105320400D01*
X132804400Y-105463257D01*
X132875828Y-105606114D01*
X132947257Y-105891828D01*
X132947257Y-106106114D01*
X132875828Y-106391828D01*
X132804400Y-106534685D01*
X132661542Y-106677542D01*
X132447257Y-106748971D01*
X132090114Y-106748971D01*
X133590114Y-106748971D02*
X133590114Y-105248971D01*
X135304400Y-105748971D02*
X135661542Y-106748971D01*
X136018685Y-105748971D01*
X136518685Y-105391828D02*
X136590114Y-105320400D01*
X136732971Y-105248971D01*
X137090114Y-105248971D01*
X137232971Y-105320400D01*
X137304400Y-105391828D01*
X137375828Y-105534685D01*
X137375828Y-105677542D01*
X137304400Y-105891828D01*
X136447257Y-106748971D01*
X137375828Y-106748971D01*
X139161542Y-106748971D02*
X139161542Y-105748971D01*
X139161542Y-106034685D02*
X139232971Y-105891828D01*
X139304400Y-105820400D01*
X139447257Y-105748971D01*
X139590114Y-105748971D01*
X140661542Y-106677542D02*
X140518685Y-106748971D01*
X140232971Y-106748971D01*
X140090114Y-106677542D01*
X140018685Y-106534685D01*
X140018685Y-105963257D01*
X140090114Y-105820400D01*
X140232971Y-105748971D01*
X140518685Y-105748971D01*
X140661542Y-105820400D01*
X140732971Y-105963257D01*
X140732971Y-106106114D01*
X140018685Y-106248971D01*
X141232971Y-105748971D02*
X141590114Y-106748971D01*
X141947257Y-105748971D01*
X142518685Y-106606114D02*
X142590114Y-106677542D01*
X142518685Y-106748971D01*
X142447257Y-106677542D01*
X142518685Y-106606114D01*
X142518685Y-106748971D01*
X144018685Y-106748971D02*
X143161542Y-106748971D01*
X143590114Y-106748971D02*
X143590114Y-105248971D01*
X143447257Y-105463257D01*
X143304400Y-105606114D01*
X143161542Y-105677542D01*
D10*
X133400800Y-77152500D02*
X133400800Y-102171500D01*
X181406800Y-77152500D02*
X133400800Y-77152500D01*
X181406800Y-102171500D02*
X181406800Y-77152500D01*
X133400800Y-102171500D02*
X181406800Y-102171500D01*
D13*
G04 #@! TO.C,RV1*
X91440000Y-80518000D02*
X102616000Y-80518000D01*
X92202000Y-105918000D02*
X101854000Y-105918000D01*
X92202000Y-105918000D02*
X92202000Y-103378000D01*
X101854000Y-105918000D02*
X101854000Y-103378000D01*
X92202000Y-103378000D02*
X89408000Y-103378000D01*
X101854000Y-103378000D02*
X104648000Y-103378000D01*
X87503000Y-90424000D02*
X87503000Y-98552000D01*
X89408000Y-90424000D02*
X89408000Y-87503000D01*
X89408000Y-98552000D02*
X89408000Y-103378000D01*
X89408000Y-90424000D02*
X87503000Y-90424000D01*
X89408000Y-98552000D02*
X87503000Y-98552000D01*
X89408000Y-87503000D02*
X91440000Y-87503000D01*
X102616000Y-87503000D02*
X104648000Y-87503000D01*
X91440000Y-80518000D02*
X91440000Y-87503000D01*
X102616000Y-80518000D02*
X102616000Y-87503000D01*
X104648000Y-89662000D02*
X108204000Y-89662000D01*
X104648000Y-99314000D02*
X108204000Y-99314000D01*
X108204000Y-89662000D02*
X108204000Y-99314000D01*
X104648000Y-89662000D02*
X104648000Y-87503000D01*
X104648000Y-99314000D02*
X104648000Y-103378000D01*
D14*
X97477013Y-94488000D02*
G75*
G03X97477013Y-94488000I-449013J0D01*
G01*
D15*
G04 #@! TO.C,SW2*
X176276000Y-57150000D02*
X183896000Y-57150000D01*
X183896000Y-57150000D02*
X183896000Y-57450000D01*
X183896000Y-64770000D02*
X176276000Y-64770000D01*
X176276000Y-57150000D02*
X176276000Y-57450000D01*
X183896000Y-59390000D02*
X183896000Y-62530000D01*
X176276000Y-59390000D02*
X176276000Y-62530000D01*
X183896000Y-64470000D02*
X183896000Y-64770000D01*
X176276000Y-64470000D02*
X176276000Y-64770000D01*
X182626000Y-60960000D02*
G75*
G03X182626000Y-60960000I-2540000J0D01*
G01*
G04 #@! TO.C,J7*
X123504000Y-90618000D02*
X120844000Y-90618000D01*
X123504000Y-98298000D02*
X123504000Y-90618000D01*
X120844000Y-98298000D02*
X120844000Y-90618000D01*
X123504000Y-98298000D02*
X120844000Y-98298000D01*
X123504000Y-99568000D02*
X123504000Y-100898000D01*
X123504000Y-100898000D02*
X122174000Y-100898000D01*
G04 #@! TO.C,Y1*
X148376000Y-91526600D02*
X142126000Y-91526600D01*
X148376000Y-86476600D02*
X142126000Y-86476600D01*
X148376000Y-86476600D02*
G75*
G02X148376000Y-91526600I0J-2525000D01*
G01*
X142126000Y-86476600D02*
G75*
G03X142126000Y-91526600I0J-2525000D01*
G01*
G04 #@! TO.C,J8*
X123504000Y-79442000D02*
X120844000Y-79442000D01*
X123504000Y-84582000D02*
X123504000Y-79442000D01*
X120844000Y-84582000D02*
X120844000Y-79442000D01*
X123504000Y-84582000D02*
X120844000Y-84582000D01*
X123504000Y-85852000D02*
X123504000Y-87182000D01*
X123504000Y-87182000D02*
X122174000Y-87182000D01*
G04 #@! TO.C,J9*
X94555000Y-64583000D02*
X94555000Y-67243000D01*
X97155000Y-64583000D02*
X94555000Y-64583000D01*
X97155000Y-67243000D02*
X94555000Y-67243000D01*
X97155000Y-64583000D02*
X97155000Y-67243000D01*
X98425000Y-64583000D02*
X99755000Y-64583000D01*
X99755000Y-64583000D02*
X99755000Y-65913000D01*
G04 #@! TO.C,D1*
X103991665Y-59498608D02*
G75*
G03X107224000Y-59655516I1672335J1078608D01*
G01*
X103991665Y-57341392D02*
G75*
G02X107224000Y-57184484I1672335J-1078608D01*
G01*
X104622870Y-59499837D02*
G75*
G03X106704961Y-59500000I1041130J1079837D01*
G01*
X104622870Y-57340163D02*
G75*
G02X106704961Y-57340000I1041130J-1079837D01*
G01*
X107224000Y-59656000D02*
X107224000Y-59500000D01*
X107224000Y-57340000D02*
X107224000Y-57184000D01*
G04 #@! TO.C,D2*
X96371665Y-59498608D02*
G75*
G03X99604000Y-59655516I1672335J1078608D01*
G01*
X96371665Y-57341392D02*
G75*
G02X99604000Y-57184484I1672335J-1078608D01*
G01*
X97002870Y-59499837D02*
G75*
G03X99084961Y-59500000I1041130J1079837D01*
G01*
X97002870Y-57340163D02*
G75*
G02X99084961Y-57340000I1041130J-1079837D01*
G01*
X99604000Y-59656000D02*
X99604000Y-59500000D01*
X99604000Y-57340000D02*
X99604000Y-57184000D01*
G04 #@! TO.C,J6*
X123352000Y-62612000D02*
X123352000Y-53972000D01*
X123352000Y-70992000D02*
X123352000Y-65912000D01*
X111152000Y-62612000D02*
X111152000Y-53972000D01*
X111152000Y-70992000D02*
X111152000Y-65912000D01*
X111152000Y-53972000D02*
X123352000Y-53972000D01*
X123352000Y-70992000D02*
X111152000Y-70992000D01*
D16*
G04 #@! TO.C,J3*
X126365000Y-74168000D02*
X146685000Y-74168000D01*
X146685000Y-74168000D02*
X146685000Y-53848000D01*
X146685000Y-53848000D02*
X126365000Y-53848000D01*
X126365000Y-53848000D02*
X126365000Y-74168000D01*
D15*
X126405000Y-69938000D02*
X126405000Y-54008000D01*
G04 #@! TO.C,CON2*
X154940000Y-66421000D02*
X156210000Y-66421000D01*
X154940000Y-65151000D02*
X154940000Y-66421000D01*
X150860000Y-51671000D02*
X171720000Y-51671000D01*
X150860000Y-61021000D02*
X150860000Y-51671000D01*
X171720000Y-61021000D02*
X171720000Y-51671000D01*
X171720000Y-61021000D02*
X150860000Y-61021000D01*
X159040000Y-61021000D02*
X159040000Y-51671000D01*
X163540000Y-61021000D02*
X163540000Y-51671000D01*
G04 #@! TO.C,J2*
X82490000Y-75752000D02*
X85150000Y-75752000D01*
X82490000Y-68072000D02*
X82490000Y-75752000D01*
X85150000Y-68072000D02*
X85150000Y-75752000D01*
X82490000Y-68072000D02*
X85150000Y-68072000D01*
X82490000Y-66802000D02*
X82490000Y-65472000D01*
X82490000Y-65472000D02*
X83820000Y-65472000D01*
G04 #@! TO.C,CON3*
X186206000Y-92599000D02*
X186206000Y-66659000D01*
X186206000Y-66659000D02*
X195556000Y-66659000D01*
X195556000Y-66659000D02*
X195556000Y-92599000D01*
X195556000Y-92599000D02*
X186206000Y-92599000D01*
X195806000Y-92849000D02*
X195806000Y-90309000D01*
X195806000Y-92849000D02*
X193266000Y-92849000D01*
D16*
G04 #@! TO.C,U1*
X172442000Y-73044000D02*
X171842000Y-73044000D01*
X172442000Y-83394000D02*
X171772000Y-83394000D01*
X162092000Y-83394000D02*
X162762000Y-83394000D01*
X162092000Y-73044000D02*
X162762000Y-73044000D01*
X172442000Y-73044000D02*
X172442000Y-73714000D01*
X162092000Y-73044000D02*
X162092000Y-73714000D01*
X162092000Y-83394000D02*
X162092000Y-82724000D01*
X172442000Y-83394000D02*
X172442000Y-82724000D01*
X171842000Y-73044000D02*
X171842000Y-71569000D01*
D15*
G04 #@! TO.C,J4*
X175641000Y-104616000D02*
X174371000Y-104616000D01*
X175641000Y-105886000D02*
X175641000Y-104616000D01*
X179721000Y-119366000D02*
X146161000Y-119366000D01*
X179721000Y-110016000D02*
X179721000Y-119366000D01*
X160691000Y-110016000D02*
X160691000Y-119366000D01*
X146161000Y-110016000D02*
X146161000Y-119366000D01*
X146161000Y-110016000D02*
X179721000Y-110016000D01*
X165191000Y-110016000D02*
X165191000Y-119366000D01*
G04 #@! TO.C,RV1*
D14*
X99955047Y-107762523D02*
X99531714Y-107157761D01*
X99229333Y-107762523D02*
X99229333Y-106492523D01*
X99713142Y-106492523D01*
X99834095Y-106553000D01*
X99894571Y-106613476D01*
X99955047Y-106734428D01*
X99955047Y-106915857D01*
X99894571Y-107036809D01*
X99834095Y-107097285D01*
X99713142Y-107157761D01*
X99229333Y-107157761D01*
X100317904Y-106492523D02*
X100741238Y-107762523D01*
X101164571Y-106492523D01*
X102253142Y-107762523D02*
X101527428Y-107762523D01*
X101890285Y-107762523D02*
X101890285Y-106492523D01*
X101769333Y-106673952D01*
X101648380Y-106794904D01*
X101527428Y-106855380D01*
G04 #@! TO.C,SW2*
D16*
X178752666Y-66571761D02*
X178895523Y-66619380D01*
X179133619Y-66619380D01*
X179228857Y-66571761D01*
X179276476Y-66524142D01*
X179324095Y-66428904D01*
X179324095Y-66333666D01*
X179276476Y-66238428D01*
X179228857Y-66190809D01*
X179133619Y-66143190D01*
X178943142Y-66095571D01*
X178847904Y-66047952D01*
X178800285Y-66000333D01*
X178752666Y-65905095D01*
X178752666Y-65809857D01*
X178800285Y-65714619D01*
X178847904Y-65667000D01*
X178943142Y-65619380D01*
X179181238Y-65619380D01*
X179324095Y-65667000D01*
X179657428Y-65619380D02*
X179895523Y-66619380D01*
X180086000Y-65905095D01*
X180276476Y-66619380D01*
X180514571Y-65619380D01*
X180847904Y-65714619D02*
X180895523Y-65667000D01*
X180990761Y-65619380D01*
X181228857Y-65619380D01*
X181324095Y-65667000D01*
X181371714Y-65714619D01*
X181419333Y-65809857D01*
X181419333Y-65905095D01*
X181371714Y-66047952D01*
X180800285Y-66619380D01*
X181419333Y-66619380D01*
G04 #@! TO.C,J7*
X121840666Y-101750880D02*
X121840666Y-102465166D01*
X121793047Y-102608023D01*
X121697809Y-102703261D01*
X121554952Y-102750880D01*
X121459714Y-102750880D01*
X122221619Y-101750880D02*
X122888285Y-101750880D01*
X122459714Y-102750880D01*
G04 #@! TO.C,Y1*
X144761009Y-85294790D02*
X144761009Y-85770980D01*
X144427676Y-84770980D02*
X144761009Y-85294790D01*
X145094342Y-84770980D01*
X145951485Y-85770980D02*
X145380057Y-85770980D01*
X145665771Y-85770980D02*
X145665771Y-84770980D01*
X145570533Y-84913838D01*
X145475295Y-85009076D01*
X145380057Y-85056695D01*
G04 #@! TO.C,J8*
X121777166Y-87907880D02*
X121777166Y-88622166D01*
X121729547Y-88765023D01*
X121634309Y-88860261D01*
X121491452Y-88907880D01*
X121396214Y-88907880D01*
X122396214Y-88336452D02*
X122300976Y-88288833D01*
X122253357Y-88241214D01*
X122205738Y-88145976D01*
X122205738Y-88098357D01*
X122253357Y-88003119D01*
X122300976Y-87955500D01*
X122396214Y-87907880D01*
X122586690Y-87907880D01*
X122681928Y-87955500D01*
X122729547Y-88003119D01*
X122777166Y-88098357D01*
X122777166Y-88145976D01*
X122729547Y-88241214D01*
X122681928Y-88288833D01*
X122586690Y-88336452D01*
X122396214Y-88336452D01*
X122300976Y-88384071D01*
X122253357Y-88431690D01*
X122205738Y-88526928D01*
X122205738Y-88717404D01*
X122253357Y-88812642D01*
X122300976Y-88860261D01*
X122396214Y-88907880D01*
X122586690Y-88907880D01*
X122681928Y-88860261D01*
X122729547Y-88812642D01*
X122777166Y-88717404D01*
X122777166Y-88526928D01*
X122729547Y-88431690D01*
X122681928Y-88384071D01*
X122586690Y-88336452D01*
G04 #@! TO.C,J9*
X93570466Y-62952380D02*
X93570466Y-63666666D01*
X93522847Y-63809523D01*
X93427609Y-63904761D01*
X93284752Y-63952380D01*
X93189514Y-63952380D01*
X94094276Y-63952380D02*
X94284752Y-63952380D01*
X94379990Y-63904761D01*
X94427609Y-63857142D01*
X94522847Y-63714285D01*
X94570466Y-63523809D01*
X94570466Y-63142857D01*
X94522847Y-63047619D01*
X94475228Y-63000000D01*
X94379990Y-62952380D01*
X94189514Y-62952380D01*
X94094276Y-63000000D01*
X94046657Y-63047619D01*
X93999038Y-63142857D01*
X93999038Y-63380952D01*
X94046657Y-63476190D01*
X94094276Y-63523809D01*
X94189514Y-63571428D01*
X94379990Y-63571428D01*
X94475228Y-63523809D01*
X94522847Y-63476190D01*
X94570466Y-63380952D01*
G04 #@! TO.C,D1*
X107745304Y-56383180D02*
X107745304Y-55383180D01*
X107983400Y-55383180D01*
X108126257Y-55430800D01*
X108221495Y-55526038D01*
X108269114Y-55621276D01*
X108316733Y-55811752D01*
X108316733Y-55954609D01*
X108269114Y-56145085D01*
X108221495Y-56240323D01*
X108126257Y-56335561D01*
X107983400Y-56383180D01*
X107745304Y-56383180D01*
X109269114Y-56383180D02*
X108697685Y-56383180D01*
X108983400Y-56383180D02*
X108983400Y-55383180D01*
X108888161Y-55526038D01*
X108792923Y-55621276D01*
X108697685Y-55668895D01*
G04 #@! TO.C,D2*
X100074504Y-56357780D02*
X100074504Y-55357780D01*
X100312600Y-55357780D01*
X100455457Y-55405400D01*
X100550695Y-55500638D01*
X100598314Y-55595876D01*
X100645933Y-55786352D01*
X100645933Y-55929209D01*
X100598314Y-56119685D01*
X100550695Y-56214923D01*
X100455457Y-56310161D01*
X100312600Y-56357780D01*
X100074504Y-56357780D01*
X101026885Y-55453019D02*
X101074504Y-55405400D01*
X101169742Y-55357780D01*
X101407838Y-55357780D01*
X101503076Y-55405400D01*
X101550695Y-55453019D01*
X101598314Y-55548257D01*
X101598314Y-55643495D01*
X101550695Y-55786352D01*
X100979266Y-56357780D01*
X101598314Y-56357780D01*
G04 #@! TO.C,J6*
X116918666Y-71842380D02*
X116918666Y-72556666D01*
X116871047Y-72699523D01*
X116775809Y-72794761D01*
X116632952Y-72842380D01*
X116537714Y-72842380D01*
X117823428Y-71842380D02*
X117632952Y-71842380D01*
X117537714Y-71890000D01*
X117490095Y-71937619D01*
X117394857Y-72080476D01*
X117347238Y-72270952D01*
X117347238Y-72651904D01*
X117394857Y-72747142D01*
X117442476Y-72794761D01*
X117537714Y-72842380D01*
X117728190Y-72842380D01*
X117823428Y-72794761D01*
X117871047Y-72747142D01*
X117918666Y-72651904D01*
X117918666Y-72413809D01*
X117871047Y-72318571D01*
X117823428Y-72270952D01*
X117728190Y-72223333D01*
X117537714Y-72223333D01*
X117442476Y-72270952D01*
X117394857Y-72318571D01*
X117347238Y-72413809D01*
G04 #@! TO.C,J3*
X124634666Y-73175880D02*
X124634666Y-73890166D01*
X124587047Y-74033023D01*
X124491809Y-74128261D01*
X124348952Y-74175880D01*
X124253714Y-74175880D01*
X125015619Y-73175880D02*
X125634666Y-73175880D01*
X125301333Y-73556833D01*
X125444190Y-73556833D01*
X125539428Y-73604452D01*
X125587047Y-73652071D01*
X125634666Y-73747309D01*
X125634666Y-73985404D01*
X125587047Y-74080642D01*
X125539428Y-74128261D01*
X125444190Y-74175880D01*
X125158476Y-74175880D01*
X125063238Y-74128261D01*
X125015619Y-74080642D01*
G04 #@! TO.C,CON2*
X151058714Y-68302142D02*
X151011095Y-68349761D01*
X150868238Y-68397380D01*
X150773000Y-68397380D01*
X150630142Y-68349761D01*
X150534904Y-68254523D01*
X150487285Y-68159285D01*
X150439666Y-67968809D01*
X150439666Y-67825952D01*
X150487285Y-67635476D01*
X150534904Y-67540238D01*
X150630142Y-67445000D01*
X150773000Y-67397380D01*
X150868238Y-67397380D01*
X151011095Y-67445000D01*
X151058714Y-67492619D01*
X151677761Y-67397380D02*
X151868238Y-67397380D01*
X151963476Y-67445000D01*
X152058714Y-67540238D01*
X152106333Y-67730714D01*
X152106333Y-68064047D01*
X152058714Y-68254523D01*
X151963476Y-68349761D01*
X151868238Y-68397380D01*
X151677761Y-68397380D01*
X151582523Y-68349761D01*
X151487285Y-68254523D01*
X151439666Y-68064047D01*
X151439666Y-67730714D01*
X151487285Y-67540238D01*
X151582523Y-67445000D01*
X151677761Y-67397380D01*
X152534904Y-68397380D02*
X152534904Y-67397380D01*
X153106333Y-68397380D01*
X153106333Y-67397380D01*
X153534904Y-67492619D02*
X153582523Y-67445000D01*
X153677761Y-67397380D01*
X153915857Y-67397380D01*
X154011095Y-67445000D01*
X154058714Y-67492619D01*
X154106333Y-67587857D01*
X154106333Y-67683095D01*
X154058714Y-67825952D01*
X153487285Y-68397380D01*
X154106333Y-68397380D01*
G04 #@! TO.C,J2*
X86763266Y-75271380D02*
X86763266Y-75985666D01*
X86715647Y-76128523D01*
X86620409Y-76223761D01*
X86477552Y-76271380D01*
X86382314Y-76271380D01*
X87191838Y-75366619D02*
X87239457Y-75319000D01*
X87334695Y-75271380D01*
X87572790Y-75271380D01*
X87668028Y-75319000D01*
X87715647Y-75366619D01*
X87763266Y-75461857D01*
X87763266Y-75557095D01*
X87715647Y-75699952D01*
X87144219Y-76271380D01*
X87763266Y-76271380D01*
G04 #@! TO.C,CON3*
X189476214Y-94908642D02*
X189428595Y-94956261D01*
X189285738Y-95003880D01*
X189190500Y-95003880D01*
X189047642Y-94956261D01*
X188952404Y-94861023D01*
X188904785Y-94765785D01*
X188857166Y-94575309D01*
X188857166Y-94432452D01*
X188904785Y-94241976D01*
X188952404Y-94146738D01*
X189047642Y-94051500D01*
X189190500Y-94003880D01*
X189285738Y-94003880D01*
X189428595Y-94051500D01*
X189476214Y-94099119D01*
X190095261Y-94003880D02*
X190285738Y-94003880D01*
X190380976Y-94051500D01*
X190476214Y-94146738D01*
X190523833Y-94337214D01*
X190523833Y-94670547D01*
X190476214Y-94861023D01*
X190380976Y-94956261D01*
X190285738Y-95003880D01*
X190095261Y-95003880D01*
X190000023Y-94956261D01*
X189904785Y-94861023D01*
X189857166Y-94670547D01*
X189857166Y-94337214D01*
X189904785Y-94146738D01*
X190000023Y-94051500D01*
X190095261Y-94003880D01*
X190952404Y-95003880D02*
X190952404Y-94003880D01*
X191523833Y-95003880D01*
X191523833Y-94003880D01*
X191904785Y-94003880D02*
X192523833Y-94003880D01*
X192190500Y-94384833D01*
X192333357Y-94384833D01*
X192428595Y-94432452D01*
X192476214Y-94480071D01*
X192523833Y-94575309D01*
X192523833Y-94813404D01*
X192476214Y-94908642D01*
X192428595Y-94956261D01*
X192333357Y-95003880D01*
X192047642Y-95003880D01*
X191952404Y-94956261D01*
X191904785Y-94908642D01*
G04 #@! TO.C,U1*
X159080295Y-85456780D02*
X159080295Y-86266304D01*
X159127914Y-86361542D01*
X159175533Y-86409161D01*
X159270771Y-86456780D01*
X159461247Y-86456780D01*
X159556485Y-86409161D01*
X159604104Y-86361542D01*
X159651723Y-86266304D01*
X159651723Y-85456780D01*
X160651723Y-86456780D02*
X160080295Y-86456780D01*
X160366009Y-86456780D02*
X160366009Y-85456780D01*
X160270771Y-85599638D01*
X160175533Y-85694876D01*
X160080295Y-85742495D01*
G04 #@! TO.C,J4*
X177276166Y-107370380D02*
X177276166Y-108084666D01*
X177228547Y-108227523D01*
X177133309Y-108322761D01*
X176990452Y-108370380D01*
X176895214Y-108370380D01*
X178180928Y-107703714D02*
X178180928Y-108370380D01*
X177942833Y-107322761D02*
X177704738Y-108037047D01*
X178323785Y-108037047D01*
G04 #@! TD*
M02*
