G04 #@! TF.GenerationSoftware,KiCad,Pcbnew,5.0.0-fee4fd1~66~ubuntu18.04.1*
G04 #@! TF.CreationDate,2018-10-12T23:09:15+02:00*
G04 #@! TF.ProjectId,midi-v2-circuit,6D6964692D76322D636972637569742E,rev?*
G04 #@! TF.SameCoordinates,Original*
G04 #@! TF.FileFunction,Soldermask,Bot*
G04 #@! TF.FilePolarity,Negative*
%FSLAX46Y46*%
G04 Gerber Fmt 4.6, Leading zero omitted, Abs format (unit mm)*
G04 Created by KiCad (PCBNEW 5.0.0-fee4fd1~66~ubuntu18.04.1) date Fri Oct 12 23:09:15 2018*
%MOMM*%
%LPD*%
G01*
G04 APERTURE LIST*
%ADD10C,4.600000*%
%ADD11C,3.100000*%
%ADD12R,2.327200X2.327200*%
%ADD13O,2.327200X2.327200*%
%ADD14R,2.300000X2.300000*%
%ADD15O,2.300000X2.300000*%
%ADD16C,2.378000*%
%ADD17C,2.886000*%
%ADD18C,3.000000*%
%ADD19C,1.997000*%
%ADD20R,1.850000X2.100000*%
%ADD21R,2.100000X1.850000*%
%ADD22O,2.598980X2.598980*%
%ADD23R,2.598980X2.598980*%
%ADD24C,2.100000*%
%ADD25R,1.900000X2.100000*%
%ADD26R,2.100000X1.900000*%
%ADD27R,2.400000X2.400000*%
%ADD28C,2.400000*%
%ADD29C,2.120000*%
%ADD30C,3.300000*%
%ADD31C,2.900000*%
%ADD32C,2.600000*%
G04 APERTURE END LIST*
D10*
G04 #@! TO.C,REF\002A\002A*
X107670600Y-74625200D03*
G04 #@! TD*
D11*
G04 #@! TO.C,REF\002A\002A*
X147866100Y-84007700D03*
G04 #@! TD*
G04 #@! TO.C,REF\002A\002A*
X147866100Y-101089200D03*
G04 #@! TD*
D12*
G04 #@! TO.C,J4*
X186512200Y-106902000D03*
D13*
X186512200Y-109442000D03*
X183972200Y-106902000D03*
X183972200Y-109442000D03*
X181432200Y-106902000D03*
X181432200Y-109442000D03*
X178892200Y-106902000D03*
X178892200Y-109442000D03*
X176352200Y-106902000D03*
X176352200Y-109442000D03*
X173812200Y-106902000D03*
X173812200Y-109442000D03*
X171272200Y-106902000D03*
X171272200Y-109442000D03*
X168732200Y-106902000D03*
X168732200Y-109442000D03*
X166192200Y-106902000D03*
X166192200Y-109442000D03*
X163652200Y-106902000D03*
X163652200Y-109442000D03*
G04 #@! TD*
D14*
G04 #@! TO.C,J2*
X157378400Y-100126800D03*
D15*
X157378400Y-102666800D03*
X157378400Y-105206800D03*
X157378400Y-107746800D03*
G04 #@! TD*
D16*
G04 #@! TO.C,RV1*
X127711200Y-81635600D03*
X121361200Y-81635600D03*
X127711200Y-86715600D03*
X121361200Y-86715600D03*
X127076200Y-104495600D03*
X124536200Y-104495600D03*
X121996200Y-104495600D03*
D17*
X132156200Y-87668100D03*
X132156200Y-101003100D03*
X116916200Y-101003100D03*
X116916200Y-87668100D03*
D16*
X134696200Y-91795600D03*
X134696200Y-94335600D03*
X134696200Y-96875600D03*
G04 #@! TD*
D10*
G04 #@! TO.C,REF\002A\002A*
X194894200Y-109296200D03*
G04 #@! TD*
D18*
G04 #@! TO.C,REF\002A\002A*
X115011200Y-81635600D03*
G04 #@! TD*
G04 #@! TO.C,REF\002A\002A*
X134061200Y-81635600D03*
G04 #@! TD*
G04 #@! TO.C,REF\002A\002A*
X115011200Y-107035600D03*
G04 #@! TD*
D19*
G04 #@! TO.C,SW2*
X195453000Y-96850200D03*
X195453000Y-101930200D03*
X187833000Y-96850200D03*
X187833000Y-101930200D03*
G04 #@! TD*
D10*
G04 #@! TO.C,REF\002A\002A*
X148082000Y-109194600D03*
G04 #@! TD*
G04 #@! TO.C,REF\002A\002A*
X107696000Y-49301400D03*
G04 #@! TD*
G04 #@! TO.C,REF\002A\002A*
X194919600Y-49301400D03*
G04 #@! TD*
D20*
G04 #@! TO.C,C6*
X173863000Y-79799500D03*
X173863000Y-77299500D03*
G04 #@! TD*
D21*
G04 #@! TO.C,C10*
X135946200Y-103733600D03*
X133446200Y-103733600D03*
G04 #@! TD*
G04 #@! TO.C,C9*
X126181800Y-107797600D03*
X128681800Y-107797600D03*
G04 #@! TD*
G04 #@! TO.C,C11*
X111714600Y-107696000D03*
X109214600Y-107696000D03*
G04 #@! TD*
G04 #@! TO.C,C8*
X123480200Y-107823000D03*
X120980200Y-107823000D03*
G04 #@! TD*
D12*
G04 #@! TO.C,CON1*
X111582200Y-87223600D03*
D13*
X109042200Y-87223600D03*
X111582200Y-89763600D03*
X109042200Y-89763600D03*
X111582200Y-92303600D03*
X109042200Y-92303600D03*
X111582200Y-94843600D03*
X109042200Y-94843600D03*
X111582200Y-97383600D03*
X109042200Y-97383600D03*
X111582200Y-99923600D03*
X109042200Y-99923600D03*
X111582200Y-102463600D03*
X109042200Y-102463600D03*
G04 #@! TD*
D22*
G04 #@! TO.C,J1*
X140919200Y-88493600D03*
D23*
X140919200Y-80873600D03*
D22*
X140919200Y-83413600D03*
X140919200Y-85953600D03*
X140919200Y-91033600D03*
X140919200Y-93573600D03*
X140919200Y-96113600D03*
X140919200Y-98653600D03*
X140919200Y-101193600D03*
X140919200Y-103733600D03*
X140919200Y-106273600D03*
X140919200Y-108813600D03*
G04 #@! TD*
D21*
G04 #@! TO.C,C4*
X154325000Y-80035400D03*
X156825000Y-80035400D03*
G04 #@! TD*
D14*
G04 #@! TO.C,J7*
X136271000Y-70485000D03*
D15*
X133731000Y-70485000D03*
X131191000Y-70485000D03*
X128651000Y-70485000D03*
G04 #@! TD*
D21*
G04 #@! TO.C,C1*
X154296080Y-86738167D03*
X156796080Y-86738167D03*
G04 #@! TD*
G04 #@! TO.C,C2*
X154296080Y-83436167D03*
X156796080Y-83436167D03*
G04 #@! TD*
D24*
G04 #@! TO.C,Y1*
X150495000Y-94665800D03*
X155395000Y-94665800D03*
G04 #@! TD*
D25*
G04 #@! TO.C,R5*
X151231600Y-72317600D03*
X151231600Y-69617600D03*
G04 #@! TD*
D26*
G04 #@! TO.C,R4*
X117649000Y-64643000D03*
X120349000Y-64643000D03*
G04 #@! TD*
G04 #@! TO.C,R8*
X123422400Y-55092600D03*
X120722400Y-55092600D03*
G04 #@! TD*
G04 #@! TO.C,R9*
X115853200Y-55118000D03*
X113153200Y-55118000D03*
G04 #@! TD*
D14*
G04 #@! TO.C,J8*
X121285000Y-70535800D03*
D15*
X118745000Y-70535800D03*
X116205000Y-70535800D03*
G04 #@! TD*
D14*
G04 #@! TO.C,J9*
X143865600Y-67818000D03*
D15*
X143865600Y-70358000D03*
G04 #@! TD*
D27*
G04 #@! TO.C,D1*
X123342400Y-50266600D03*
D28*
X120802400Y-50266600D03*
G04 #@! TD*
D27*
G04 #@! TO.C,D2*
X115722400Y-50266600D03*
D28*
X113182400Y-50266600D03*
G04 #@! TD*
D29*
G04 #@! TO.C,J6*
X140512800Y-60782200D03*
X137972800Y-60782200D03*
X137972800Y-58782200D03*
X140512800Y-58782200D03*
D30*
X145242800Y-56082200D03*
X133242800Y-56082200D03*
G04 #@! TD*
D31*
G04 #@! TO.C,J3*
X158902400Y-63703200D03*
X163982400Y-58623200D03*
X158902400Y-58623200D03*
X161442400Y-61163200D03*
D32*
X156362400Y-48463200D03*
D31*
X166522400Y-61163200D03*
X153822400Y-58623200D03*
X156362400Y-61163200D03*
X151282400Y-61163200D03*
D32*
X161442400Y-48463200D03*
G04 #@! TD*
D12*
G04 #@! TO.C,CON2*
X175742600Y-59105800D03*
D13*
X175742600Y-56565800D03*
X178282600Y-59105800D03*
X178282600Y-56565800D03*
X180822600Y-59105800D03*
X180822600Y-56565800D03*
X183362600Y-59105800D03*
X183362600Y-56565800D03*
X185902600Y-59105800D03*
X185902600Y-56565800D03*
G04 #@! TD*
D26*
G04 #@! TO.C,R1*
X181639200Y-67767200D03*
X178939200Y-67767200D03*
G04 #@! TD*
D20*
G04 #@! TO.C,C5*
X167792400Y-69641400D03*
X167792400Y-72141400D03*
G04 #@! TD*
D26*
G04 #@! TO.C,R2*
X164142400Y-101295200D03*
X161442400Y-101295200D03*
G04 #@! TD*
G04 #@! TO.C,R3*
X161464000Y-103809800D03*
X164164000Y-103809800D03*
G04 #@! TD*
D21*
G04 #@! TO.C,C3*
X168656000Y-90043000D03*
X171156000Y-90043000D03*
G04 #@! TD*
G04 #@! TO.C,C7*
X168676000Y-94361000D03*
X171176000Y-94361000D03*
G04 #@! TD*
D12*
G04 #@! TO.C,CON3*
X192151000Y-87249000D03*
D13*
X189611000Y-87249000D03*
X192151000Y-84709000D03*
X189611000Y-84709000D03*
X192151000Y-82169000D03*
X189611000Y-82169000D03*
X192151000Y-79629000D03*
X189611000Y-79629000D03*
X192151000Y-77089000D03*
X189611000Y-77089000D03*
X192151000Y-74549000D03*
X189611000Y-74549000D03*
X192151000Y-72009000D03*
X189611000Y-72009000D03*
G04 #@! TD*
D26*
G04 #@! TO.C,R6*
X125937000Y-101066600D03*
X123237000Y-101066600D03*
G04 #@! TD*
G04 #@! TO.C,R7*
X125937000Y-98780600D03*
X123237000Y-98780600D03*
G04 #@! TD*
G04 #@! TO.C,R10*
X125937000Y-96494600D03*
X123237000Y-96494600D03*
G04 #@! TD*
G04 #@! TO.C,R11*
X125937000Y-94208600D03*
X123237000Y-94208600D03*
G04 #@! TD*
G04 #@! TO.C,R12*
X125937000Y-91922600D03*
X123237000Y-91922600D03*
G04 #@! TD*
G04 #@! TO.C,R13*
X125937000Y-89636600D03*
X123237000Y-89636600D03*
G04 #@! TD*
D18*
G04 #@! TO.C,REF\002A\002A*
X134061200Y-107035600D03*
G04 #@! TD*
D26*
G04 #@! TO.C,L1*
X161489400Y-95808800D03*
X164189400Y-95808800D03*
G04 #@! TD*
G04 #@! TO.C,R14*
X164138600Y-98704400D03*
X161438600Y-98704400D03*
G04 #@! TD*
D25*
G04 #@! TO.C,R15*
X155829000Y-69579500D03*
X155829000Y-72279500D03*
G04 #@! TD*
G04 #@! TO.C,R16*
X163004500Y-72216000D03*
X163004500Y-69516000D03*
G04 #@! TD*
G04 #@! TO.C,R17*
X159575500Y-69516000D03*
X159575500Y-72216000D03*
G04 #@! TD*
M02*
