G04 #@! TF.GenerationSoftware,KiCad,Pcbnew,5.0.0-fee4fd1~66~ubuntu18.04.1*
G04 #@! TF.CreationDate,2018-10-12T23:09:15+02:00*
G04 #@! TF.ProjectId,midi-v2-circuit,6D6964692D76322D636972637569742E,rev?*
G04 #@! TF.SameCoordinates,Original*
G04 #@! TF.FileFunction,Legend,Top*
G04 #@! TF.FilePolarity,Positive*
%FSLAX46Y46*%
G04 Gerber Fmt 4.6, Leading zero omitted, Abs format (unit mm)*
G04 Created by KiCad (PCBNEW 5.0.0-fee4fd1~66~ubuntu18.04.1) date Fri Oct 12 23:09:15 2018*
%MOMM*%
%LPD*%
G01*
G04 APERTURE LIST*
%ADD10C,0.200000*%
%ADD11C,0.100000*%
%ADD12C,1.000000*%
%ADD13C,0.300000*%
%ADD14C,0.120000*%
%ADD15C,0.203200*%
%ADD16C,0.101600*%
%ADD17C,0.150000*%
G04 APERTURE END LIST*
D10*
X174748019Y-62665695D02*
X174748019Y-61365695D01*
X175243257Y-61365695D01*
X175367066Y-61427600D01*
X175428971Y-61489504D01*
X175490876Y-61613314D01*
X175490876Y-61799028D01*
X175428971Y-61922838D01*
X175367066Y-61984742D01*
X175243257Y-62046647D01*
X174748019Y-62046647D01*
X176790876Y-62665695D02*
X176357542Y-62046647D01*
X176048019Y-62665695D02*
X176048019Y-61365695D01*
X176543257Y-61365695D01*
X176667066Y-61427600D01*
X176728971Y-61489504D01*
X176790876Y-61613314D01*
X176790876Y-61799028D01*
X176728971Y-61922838D01*
X176667066Y-61984742D01*
X176543257Y-62046647D01*
X176048019Y-62046647D01*
X177595638Y-61365695D02*
X177843257Y-61365695D01*
X177967066Y-61427600D01*
X178090876Y-61551409D01*
X178152780Y-61799028D01*
X178152780Y-62232361D01*
X178090876Y-62479980D01*
X177967066Y-62603790D01*
X177843257Y-62665695D01*
X177595638Y-62665695D01*
X177471828Y-62603790D01*
X177348019Y-62479980D01*
X177286114Y-62232361D01*
X177286114Y-61799028D01*
X177348019Y-61551409D01*
X177471828Y-61427600D01*
X177595638Y-61365695D01*
X179390876Y-61427600D02*
X179267066Y-61365695D01*
X179081352Y-61365695D01*
X178895638Y-61427600D01*
X178771828Y-61551409D01*
X178709923Y-61675219D01*
X178648019Y-61922838D01*
X178648019Y-62108552D01*
X178709923Y-62356171D01*
X178771828Y-62479980D01*
X178895638Y-62603790D01*
X179081352Y-62665695D01*
X179205161Y-62665695D01*
X179390876Y-62603790D01*
X179452780Y-62541885D01*
X179452780Y-62108552D01*
X179205161Y-62108552D01*
X180752780Y-62665695D02*
X180319447Y-62046647D01*
X180009923Y-62665695D02*
X180009923Y-61365695D01*
X180505161Y-61365695D01*
X180628971Y-61427600D01*
X180690876Y-61489504D01*
X180752780Y-61613314D01*
X180752780Y-61799028D01*
X180690876Y-61922838D01*
X180628971Y-61984742D01*
X180505161Y-62046647D01*
X180009923Y-62046647D01*
X181248019Y-62294266D02*
X181867066Y-62294266D01*
X181124209Y-62665695D02*
X181557542Y-61365695D01*
X181990876Y-62665695D01*
X182424209Y-62665695D02*
X182424209Y-61365695D01*
X182857542Y-62294266D01*
X183290876Y-61365695D01*
X183290876Y-62665695D01*
X183909923Y-62665695D02*
X183909923Y-61365695D01*
X184343257Y-62294266D01*
X184776590Y-61365695D01*
X184776590Y-62665695D01*
X185395638Y-61984742D02*
X185828971Y-61984742D01*
X186014685Y-62665695D02*
X185395638Y-62665695D01*
X185395638Y-61365695D01*
X186014685Y-61365695D01*
X187314685Y-62665695D02*
X186881352Y-62046647D01*
X186571828Y-62665695D02*
X186571828Y-61365695D01*
X187067066Y-61365695D01*
X187190876Y-61427600D01*
X187252780Y-61489504D01*
X187314685Y-61613314D01*
X187314685Y-61799028D01*
X187252780Y-61922838D01*
X187190876Y-61984742D01*
X187067066Y-62046647D01*
X186571828Y-62046647D01*
X183895295Y-87063123D02*
X184823866Y-87063123D01*
X185009580Y-87125028D01*
X185133390Y-87248838D01*
X185195295Y-87434552D01*
X185195295Y-87558361D01*
X183895295Y-86196457D02*
X183895295Y-85948838D01*
X183957200Y-85825028D01*
X184081009Y-85701219D01*
X184328628Y-85639314D01*
X184761961Y-85639314D01*
X185009580Y-85701219D01*
X185133390Y-85825028D01*
X185195295Y-85948838D01*
X185195295Y-86196457D01*
X185133390Y-86320266D01*
X185009580Y-86444076D01*
X184761961Y-86505980D01*
X184328628Y-86505980D01*
X184081009Y-86444076D01*
X183957200Y-86320266D01*
X183895295Y-86196457D01*
X184576247Y-84834552D02*
X185195295Y-84834552D01*
X183895295Y-85267885D02*
X184576247Y-84834552D01*
X183895295Y-84401219D01*
X185133390Y-84029790D02*
X185195295Y-83844076D01*
X185195295Y-83534552D01*
X185133390Y-83410742D01*
X185071485Y-83348838D01*
X184947676Y-83286933D01*
X184823866Y-83286933D01*
X184700057Y-83348838D01*
X184638152Y-83410742D01*
X184576247Y-83534552D01*
X184514342Y-83782171D01*
X184452438Y-83905980D01*
X184390533Y-83967885D01*
X184266723Y-84029790D01*
X184142914Y-84029790D01*
X184019104Y-83967885D01*
X183957200Y-83905980D01*
X183895295Y-83782171D01*
X183895295Y-83472647D01*
X183957200Y-83286933D01*
X183895295Y-82915504D02*
X183895295Y-82172647D01*
X185195295Y-82544076D02*
X183895295Y-82544076D01*
X185195295Y-81739314D02*
X183895295Y-81739314D01*
X185071485Y-80377409D02*
X185133390Y-80439314D01*
X185195295Y-80625028D01*
X185195295Y-80748838D01*
X185133390Y-80934552D01*
X185009580Y-81058361D01*
X184885771Y-81120266D01*
X184638152Y-81182171D01*
X184452438Y-81182171D01*
X184204819Y-81120266D01*
X184081009Y-81058361D01*
X183957200Y-80934552D01*
X183895295Y-80748838D01*
X183895295Y-80625028D01*
X183957200Y-80439314D01*
X184019104Y-80377409D01*
X185195295Y-79820266D02*
X183895295Y-79820266D01*
X185195295Y-79077409D02*
X184452438Y-79634552D01*
X183895295Y-79077409D02*
X184638152Y-79820266D01*
X184514342Y-77096457D02*
X184576247Y-76910742D01*
X184638152Y-76848838D01*
X184761961Y-76786933D01*
X184947676Y-76786933D01*
X185071485Y-76848838D01*
X185133390Y-76910742D01*
X185195295Y-77034552D01*
X185195295Y-77529790D01*
X183895295Y-77529790D01*
X183895295Y-77096457D01*
X183957200Y-76972647D01*
X184019104Y-76910742D01*
X184142914Y-76848838D01*
X184266723Y-76848838D01*
X184390533Y-76910742D01*
X184452438Y-76972647D01*
X184514342Y-77096457D01*
X184514342Y-77529790D01*
X183895295Y-75982171D02*
X183895295Y-75734552D01*
X183957200Y-75610742D01*
X184081009Y-75486933D01*
X184328628Y-75425028D01*
X184761961Y-75425028D01*
X185009580Y-75486933D01*
X185133390Y-75610742D01*
X185195295Y-75734552D01*
X185195295Y-75982171D01*
X185133390Y-76105980D01*
X185009580Y-76229790D01*
X184761961Y-76291695D01*
X184328628Y-76291695D01*
X184081009Y-76229790D01*
X183957200Y-76105980D01*
X183895295Y-75982171D01*
X184823866Y-74929790D02*
X184823866Y-74310742D01*
X185195295Y-75053600D02*
X183895295Y-74620266D01*
X185195295Y-74186933D01*
X185195295Y-73010742D02*
X184576247Y-73444076D01*
X185195295Y-73753600D02*
X183895295Y-73753600D01*
X183895295Y-73258361D01*
X183957200Y-73134552D01*
X184019104Y-73072647D01*
X184142914Y-73010742D01*
X184328628Y-73010742D01*
X184452438Y-73072647D01*
X184514342Y-73134552D01*
X184576247Y-73258361D01*
X184576247Y-73753600D01*
X185195295Y-72453600D02*
X183895295Y-72453600D01*
X183895295Y-72144076D01*
X183957200Y-71958361D01*
X184081009Y-71834552D01*
X184204819Y-71772647D01*
X184452438Y-71710742D01*
X184638152Y-71710742D01*
X184885771Y-71772647D01*
X185009580Y-71834552D01*
X185133390Y-71958361D01*
X185195295Y-72144076D01*
X185195295Y-72453600D01*
X170738590Y-105185295D02*
X170738590Y-103885295D01*
X171481447Y-105185295D02*
X170924304Y-104442438D01*
X171481447Y-103885295D02*
X170738590Y-104628152D01*
X172038590Y-104504342D02*
X172471923Y-104504342D01*
X172657638Y-105185295D02*
X172038590Y-105185295D01*
X172038590Y-103885295D01*
X172657638Y-103885295D01*
X173462400Y-104566247D02*
X173462400Y-105185295D01*
X173029066Y-103885295D02*
X173462400Y-104566247D01*
X173895733Y-103885295D01*
X174762400Y-104504342D02*
X174948114Y-104566247D01*
X175010019Y-104628152D01*
X175071923Y-104751961D01*
X175071923Y-104937676D01*
X175010019Y-105061485D01*
X174948114Y-105123390D01*
X174824304Y-105185295D01*
X174329066Y-105185295D01*
X174329066Y-103885295D01*
X174762400Y-103885295D01*
X174886209Y-103947200D01*
X174948114Y-104009104D01*
X175010019Y-104132914D01*
X175010019Y-104256723D01*
X174948114Y-104380533D01*
X174886209Y-104442438D01*
X174762400Y-104504342D01*
X174329066Y-104504342D01*
X175876685Y-103885295D02*
X176124304Y-103885295D01*
X176248114Y-103947200D01*
X176371923Y-104071009D01*
X176433828Y-104318628D01*
X176433828Y-104751961D01*
X176371923Y-104999580D01*
X176248114Y-105123390D01*
X176124304Y-105185295D01*
X175876685Y-105185295D01*
X175752876Y-105123390D01*
X175629066Y-104999580D01*
X175567161Y-104751961D01*
X175567161Y-104318628D01*
X175629066Y-104071009D01*
X175752876Y-103947200D01*
X175876685Y-103885295D01*
X176929066Y-104813866D02*
X177548114Y-104813866D01*
X176805257Y-105185295D02*
X177238590Y-103885295D01*
X177671923Y-105185295D01*
X178848114Y-105185295D02*
X178414780Y-104566247D01*
X178105257Y-105185295D02*
X178105257Y-103885295D01*
X178600495Y-103885295D01*
X178724304Y-103947200D01*
X178786209Y-104009104D01*
X178848114Y-104132914D01*
X178848114Y-104318628D01*
X178786209Y-104442438D01*
X178724304Y-104504342D01*
X178600495Y-104566247D01*
X178105257Y-104566247D01*
X179405257Y-105185295D02*
X179405257Y-103885295D01*
X179714780Y-103885295D01*
X179900495Y-103947200D01*
X180024304Y-104071009D01*
X180086209Y-104194819D01*
X180148114Y-104442438D01*
X180148114Y-104628152D01*
X180086209Y-104875771D01*
X180024304Y-104999580D01*
X179900495Y-105123390D01*
X179714780Y-105185295D01*
X179405257Y-105185295D01*
X122000095Y-68432780D02*
X120700095Y-68432780D01*
X121628666Y-67999447D01*
X120700095Y-67566114D01*
X122000095Y-67566114D01*
X122000095Y-66947066D02*
X120700095Y-66947066D01*
X122000095Y-66328019D02*
X120700095Y-66328019D01*
X120700095Y-66018495D01*
X120762000Y-65832780D01*
X120885809Y-65708971D01*
X121009619Y-65647066D01*
X121257238Y-65585161D01*
X121442952Y-65585161D01*
X121690571Y-65647066D01*
X121814380Y-65708971D01*
X121938190Y-65832780D01*
X122000095Y-66018495D01*
X122000095Y-66328019D01*
X122000095Y-65028019D02*
X120700095Y-65028019D01*
X121504857Y-63418495D02*
X121504857Y-62428019D01*
X122000095Y-62923257D02*
X121009619Y-62923257D01*
X116767695Y-68508980D02*
X115467695Y-68508980D01*
X116396266Y-68075647D01*
X115467695Y-67642314D01*
X116767695Y-67642314D01*
X116767695Y-67023266D02*
X115467695Y-67023266D01*
X116767695Y-66404219D02*
X115467695Y-66404219D01*
X115467695Y-66094695D01*
X115529600Y-65908980D01*
X115653409Y-65785171D01*
X115777219Y-65723266D01*
X116024838Y-65661361D01*
X116210552Y-65661361D01*
X116458171Y-65723266D01*
X116581980Y-65785171D01*
X116705790Y-65908980D01*
X116767695Y-66094695D01*
X116767695Y-66404219D01*
X116767695Y-65104219D02*
X115467695Y-65104219D01*
X116272457Y-63494695D02*
X116272457Y-62504219D01*
X118061400Y-67817876D02*
X117999495Y-67941685D01*
X117999495Y-68127400D01*
X118061400Y-68313114D01*
X118185209Y-68436923D01*
X118309019Y-68498828D01*
X118556638Y-68560733D01*
X118742352Y-68560733D01*
X118989971Y-68498828D01*
X119113780Y-68436923D01*
X119237590Y-68313114D01*
X119299495Y-68127400D01*
X119299495Y-68003590D01*
X119237590Y-67817876D01*
X119175685Y-67755971D01*
X118742352Y-67755971D01*
X118742352Y-68003590D01*
X119299495Y-67198828D02*
X117999495Y-67198828D01*
X119299495Y-66455971D01*
X117999495Y-66455971D01*
X119299495Y-65836923D02*
X117999495Y-65836923D01*
X117999495Y-65527400D01*
X118061400Y-65341685D01*
X118185209Y-65217876D01*
X118309019Y-65155971D01*
X118556638Y-65094066D01*
X118742352Y-65094066D01*
X118989971Y-65155971D01*
X119113780Y-65217876D01*
X119237590Y-65341685D01*
X119299495Y-65527400D01*
X119299495Y-65836923D01*
X133047400Y-67868676D02*
X132985495Y-67992485D01*
X132985495Y-68178200D01*
X133047400Y-68363914D01*
X133171209Y-68487723D01*
X133295019Y-68549628D01*
X133542638Y-68611533D01*
X133728352Y-68611533D01*
X133975971Y-68549628D01*
X134099780Y-68487723D01*
X134223590Y-68363914D01*
X134285495Y-68178200D01*
X134285495Y-68054390D01*
X134223590Y-67868676D01*
X134161685Y-67806771D01*
X133728352Y-67806771D01*
X133728352Y-68054390D01*
X134285495Y-67249628D02*
X132985495Y-67249628D01*
X134285495Y-66506771D01*
X132985495Y-66506771D01*
X134285495Y-65887723D02*
X132985495Y-65887723D01*
X132985495Y-65578200D01*
X133047400Y-65392485D01*
X133171209Y-65268676D01*
X133295019Y-65206771D01*
X133542638Y-65144866D01*
X133728352Y-65144866D01*
X133975971Y-65206771D01*
X134099780Y-65268676D01*
X134223590Y-65392485D01*
X134285495Y-65578200D01*
X134285495Y-65887723D01*
X136355657Y-68676628D02*
X136355657Y-67686152D01*
X136850895Y-68181390D02*
X135860419Y-68181390D01*
X135550895Y-66448057D02*
X135550895Y-67067104D01*
X136169942Y-67129009D01*
X136108038Y-67067104D01*
X136046133Y-66943295D01*
X136046133Y-66633771D01*
X136108038Y-66509961D01*
X136169942Y-66448057D01*
X136293752Y-66386152D01*
X136603276Y-66386152D01*
X136727085Y-66448057D01*
X136788990Y-66509961D01*
X136850895Y-66633771D01*
X136850895Y-66943295D01*
X136788990Y-67067104D01*
X136727085Y-67129009D01*
X135550895Y-66014723D02*
X136850895Y-65581390D01*
X135550895Y-65148057D01*
X131601295Y-68226638D02*
X130301295Y-68226638D01*
X130301295Y-67917114D01*
X130363200Y-67731400D01*
X130487009Y-67607590D01*
X130610819Y-67545685D01*
X130858438Y-67483780D01*
X131044152Y-67483780D01*
X131291771Y-67545685D01*
X131415580Y-67607590D01*
X131539390Y-67731400D01*
X131601295Y-67917114D01*
X131601295Y-68226638D01*
X131106057Y-66926638D02*
X131106057Y-65936161D01*
X131601295Y-66431400D02*
X130610819Y-66431400D01*
X129213695Y-68277438D02*
X127913695Y-68277438D01*
X127913695Y-67967914D01*
X127975600Y-67782200D01*
X128099409Y-67658390D01*
X128223219Y-67596485D01*
X128470838Y-67534580D01*
X128656552Y-67534580D01*
X128904171Y-67596485D01*
X129027980Y-67658390D01*
X129151790Y-67782200D01*
X129213695Y-67967914D01*
X129213695Y-68277438D01*
X128718457Y-66977438D02*
X128718457Y-65986961D01*
D11*
X142722733Y-73346504D02*
X142722733Y-72546504D01*
X143027495Y-72546504D01*
X143103685Y-72584600D01*
X143141780Y-72622695D01*
X143179876Y-72698885D01*
X143179876Y-72813171D01*
X143141780Y-72889361D01*
X143103685Y-72927457D01*
X143027495Y-72965552D01*
X142722733Y-72965552D01*
X143446542Y-72546504D02*
X143637019Y-73346504D01*
X143789400Y-72775076D01*
X143941780Y-73346504D01*
X144132257Y-72546504D01*
X144894161Y-73346504D02*
X144627495Y-72965552D01*
X144437019Y-73346504D02*
X144437019Y-72546504D01*
X144741780Y-72546504D01*
X144817971Y-72584600D01*
X144856066Y-72622695D01*
X144894161Y-72698885D01*
X144894161Y-72813171D01*
X144856066Y-72889361D01*
X144817971Y-72927457D01*
X144741780Y-72965552D01*
X144437019Y-72965552D01*
X141789400Y-74608409D02*
X141903685Y-74646504D01*
X142094161Y-74646504D01*
X142170352Y-74608409D01*
X142208447Y-74570314D01*
X142246542Y-74494123D01*
X142246542Y-74417933D01*
X142208447Y-74341742D01*
X142170352Y-74303647D01*
X142094161Y-74265552D01*
X141941780Y-74227457D01*
X141865590Y-74189361D01*
X141827495Y-74151266D01*
X141789400Y-74075076D01*
X141789400Y-73998885D01*
X141827495Y-73922695D01*
X141865590Y-73884600D01*
X141941780Y-73846504D01*
X142132257Y-73846504D01*
X142246542Y-73884600D01*
X142513209Y-73846504D02*
X142703685Y-74646504D01*
X142856066Y-74075076D01*
X143008447Y-74646504D01*
X143198923Y-73846504D01*
X143503685Y-74646504D02*
X143503685Y-73846504D01*
X143770352Y-73846504D02*
X144227495Y-73846504D01*
X143998923Y-74646504D02*
X143998923Y-73846504D01*
X144951304Y-74570314D02*
X144913209Y-74608409D01*
X144798923Y-74646504D01*
X144722733Y-74646504D01*
X144608447Y-74608409D01*
X144532257Y-74532219D01*
X144494161Y-74456028D01*
X144456066Y-74303647D01*
X144456066Y-74189361D01*
X144494161Y-74036980D01*
X144532257Y-73960790D01*
X144608447Y-73884600D01*
X144722733Y-73846504D01*
X144798923Y-73846504D01*
X144913209Y-73884600D01*
X144951304Y-73922695D01*
X145294161Y-74646504D02*
X145294161Y-73846504D01*
X145294161Y-74227457D02*
X145751304Y-74227457D01*
X145751304Y-74646504D02*
X145751304Y-73846504D01*
D10*
X112273800Y-54258295D02*
X112273800Y-52958295D01*
X112583323Y-52958295D01*
X112769038Y-53020200D01*
X112892847Y-53144009D01*
X112954752Y-53267819D01*
X113016657Y-53515438D01*
X113016657Y-53701152D01*
X112954752Y-53948771D01*
X112892847Y-54072580D01*
X112769038Y-54196390D01*
X112583323Y-54258295D01*
X112273800Y-54258295D01*
X113511895Y-53886866D02*
X114130942Y-53886866D01*
X113388085Y-54258295D02*
X113821419Y-52958295D01*
X114254752Y-54258295D01*
X114502371Y-52958295D02*
X115245228Y-52958295D01*
X114873800Y-54258295D02*
X114873800Y-52958295D01*
X115616657Y-53886866D02*
X116235704Y-53886866D01*
X115492847Y-54258295D02*
X115926180Y-52958295D01*
X116359514Y-54258295D01*
X120313666Y-54182095D02*
X120313666Y-52882095D01*
X120808904Y-52882095D01*
X120932714Y-52944000D01*
X120994619Y-53005904D01*
X121056523Y-53129714D01*
X121056523Y-53315428D01*
X120994619Y-53439238D01*
X120932714Y-53501142D01*
X120808904Y-53563047D01*
X120313666Y-53563047D01*
X121489857Y-52882095D02*
X121799380Y-54182095D01*
X122047000Y-53253523D01*
X122294619Y-54182095D01*
X122604142Y-52882095D01*
X123842238Y-54182095D02*
X123408904Y-53563047D01*
X123099380Y-54182095D02*
X123099380Y-52882095D01*
X123594619Y-52882095D01*
X123718428Y-52944000D01*
X123780333Y-53005904D01*
X123842238Y-53129714D01*
X123842238Y-53315428D01*
X123780333Y-53439238D01*
X123718428Y-53501142D01*
X123594619Y-53563047D01*
X123099380Y-53563047D01*
X152730323Y-107114000D02*
X152606514Y-107052095D01*
X152420800Y-107052095D01*
X152235085Y-107114000D01*
X152111276Y-107237809D01*
X152049371Y-107361619D01*
X151987466Y-107609238D01*
X151987466Y-107794952D01*
X152049371Y-108042571D01*
X152111276Y-108166380D01*
X152235085Y-108290190D01*
X152420800Y-108352095D01*
X152544609Y-108352095D01*
X152730323Y-108290190D01*
X152792228Y-108228285D01*
X152792228Y-107794952D01*
X152544609Y-107794952D01*
X153349371Y-108352095D02*
X153349371Y-107052095D01*
X154092228Y-108352095D01*
X154092228Y-107052095D01*
X154711276Y-108352095D02*
X154711276Y-107052095D01*
X155020800Y-107052095D01*
X155206514Y-107114000D01*
X155330323Y-107237809D01*
X155392228Y-107361619D01*
X155454133Y-107609238D01*
X155454133Y-107794952D01*
X155392228Y-108042571D01*
X155330323Y-108166380D01*
X155206514Y-108290190D01*
X155020800Y-108352095D01*
X154711276Y-108352095D01*
X152176371Y-105291457D02*
X153166847Y-105291457D01*
X152671609Y-105786695D02*
X152671609Y-104796219D01*
X154404942Y-104486695D02*
X153785895Y-104486695D01*
X153723990Y-105105742D01*
X153785895Y-105043838D01*
X153909704Y-104981933D01*
X154219228Y-104981933D01*
X154343038Y-105043838D01*
X154404942Y-105105742D01*
X154466847Y-105229552D01*
X154466847Y-105539076D01*
X154404942Y-105662885D01*
X154343038Y-105724790D01*
X154219228Y-105786695D01*
X153909704Y-105786695D01*
X153785895Y-105724790D01*
X153723990Y-105662885D01*
X154838276Y-104486695D02*
X155271609Y-105786695D01*
X155704942Y-104486695D01*
X152300180Y-103286390D02*
X152485895Y-103348295D01*
X152795419Y-103348295D01*
X152919228Y-103286390D01*
X152981133Y-103224485D01*
X153043038Y-103100676D01*
X153043038Y-102976866D01*
X152981133Y-102853057D01*
X152919228Y-102791152D01*
X152795419Y-102729247D01*
X152547800Y-102667342D01*
X152423990Y-102605438D01*
X152362085Y-102543533D01*
X152300180Y-102419723D01*
X152300180Y-102295914D01*
X152362085Y-102172104D01*
X152423990Y-102110200D01*
X152547800Y-102048295D01*
X152857323Y-102048295D01*
X153043038Y-102110200D01*
X154343038Y-103224485D02*
X154281133Y-103286390D01*
X154095419Y-103348295D01*
X153971609Y-103348295D01*
X153785895Y-103286390D01*
X153662085Y-103162580D01*
X153600180Y-103038771D01*
X153538276Y-102791152D01*
X153538276Y-102605438D01*
X153600180Y-102357819D01*
X153662085Y-102234009D01*
X153785895Y-102110200D01*
X153971609Y-102048295D01*
X154095419Y-102048295D01*
X154281133Y-102110200D01*
X154343038Y-102172104D01*
X155519228Y-103348295D02*
X154900180Y-103348295D01*
X154900180Y-102048295D01*
X152243828Y-100805390D02*
X152429542Y-100867295D01*
X152739066Y-100867295D01*
X152862876Y-100805390D01*
X152924780Y-100743485D01*
X152986685Y-100619676D01*
X152986685Y-100495866D01*
X152924780Y-100372057D01*
X152862876Y-100310152D01*
X152739066Y-100248247D01*
X152491447Y-100186342D01*
X152367638Y-100124438D01*
X152305733Y-100062533D01*
X152243828Y-99938723D01*
X152243828Y-99814914D01*
X152305733Y-99691104D01*
X152367638Y-99629200D01*
X152491447Y-99567295D01*
X152800971Y-99567295D01*
X152986685Y-99629200D01*
X153543828Y-100867295D02*
X153543828Y-99567295D01*
X153853352Y-99567295D01*
X154039066Y-99629200D01*
X154162876Y-99753009D01*
X154224780Y-99876819D01*
X154286685Y-100124438D01*
X154286685Y-100310152D01*
X154224780Y-100557771D01*
X154162876Y-100681580D01*
X154039066Y-100805390D01*
X153853352Y-100867295D01*
X153543828Y-100867295D01*
X154781923Y-100495866D02*
X155400971Y-100495866D01*
X154658114Y-100867295D02*
X155091447Y-99567295D01*
X155524780Y-100867295D01*
D12*
X173356600Y-72212200D02*
G75*
G03X173356600Y-72212200I-1600J0D01*
G01*
D10*
X144932400Y-111988600D02*
X144932400Y-77368400D01*
X144932400Y-77368400D02*
X105003592Y-77368400D01*
D13*
X166123171Y-99763971D02*
X166123171Y-98263971D01*
X166623171Y-99335400D01*
X167123171Y-98263971D01*
X167123171Y-99763971D01*
X167837457Y-99763971D02*
X167837457Y-98263971D01*
X168337457Y-99335400D01*
X168837457Y-98263971D01*
X168837457Y-99763971D01*
X171480314Y-99763971D02*
X170623171Y-99763971D01*
X171051742Y-99763971D02*
X171051742Y-98263971D01*
X170908885Y-98478257D01*
X170766028Y-98621114D01*
X170623171Y-98692542D01*
X172408885Y-98263971D02*
X172551742Y-98263971D01*
X172694600Y-98335400D01*
X172766028Y-98406828D01*
X172837457Y-98549685D01*
X172908885Y-98835400D01*
X172908885Y-99192542D01*
X172837457Y-99478257D01*
X172766028Y-99621114D01*
X172694600Y-99692542D01*
X172551742Y-99763971D01*
X172408885Y-99763971D01*
X172266028Y-99692542D01*
X172194600Y-99621114D01*
X172123171Y-99478257D01*
X172051742Y-99192542D01*
X172051742Y-98835400D01*
X172123171Y-98549685D01*
X172194600Y-98406828D01*
X172266028Y-98335400D01*
X172408885Y-98263971D01*
X173551742Y-99621114D02*
X173623171Y-99692542D01*
X173551742Y-99763971D01*
X173480314Y-99692542D01*
X173551742Y-99621114D01*
X173551742Y-99763971D01*
X174194600Y-98406828D02*
X174266028Y-98335400D01*
X174408885Y-98263971D01*
X174766028Y-98263971D01*
X174908885Y-98335400D01*
X174980314Y-98406828D01*
X175051742Y-98549685D01*
X175051742Y-98692542D01*
X174980314Y-98906828D01*
X174123171Y-99763971D01*
X175051742Y-99763971D01*
X175980314Y-98263971D02*
X176123171Y-98263971D01*
X176266028Y-98335400D01*
X176337457Y-98406828D01*
X176408885Y-98549685D01*
X176480314Y-98835400D01*
X176480314Y-99192542D01*
X176408885Y-99478257D01*
X176337457Y-99621114D01*
X176266028Y-99692542D01*
X176123171Y-99763971D01*
X175980314Y-99763971D01*
X175837457Y-99692542D01*
X175766028Y-99621114D01*
X175694600Y-99478257D01*
X175623171Y-99192542D01*
X175623171Y-98835400D01*
X175694600Y-98549685D01*
X175766028Y-98406828D01*
X175837457Y-98335400D01*
X175980314Y-98263971D01*
X177908885Y-99763971D02*
X177051742Y-99763971D01*
X177480314Y-99763971D02*
X177480314Y-98263971D01*
X177337457Y-98478257D01*
X177194600Y-98621114D01*
X177051742Y-98692542D01*
X178766028Y-98906828D02*
X178623171Y-98835400D01*
X178551742Y-98763971D01*
X178480314Y-98621114D01*
X178480314Y-98549685D01*
X178551742Y-98406828D01*
X178623171Y-98335400D01*
X178766028Y-98263971D01*
X179051742Y-98263971D01*
X179194600Y-98335400D01*
X179266028Y-98406828D01*
X179337457Y-98549685D01*
X179337457Y-98621114D01*
X179266028Y-98763971D01*
X179194600Y-98835400D01*
X179051742Y-98906828D01*
X178766028Y-98906828D01*
X178623171Y-98978257D01*
X178551742Y-99049685D01*
X178480314Y-99192542D01*
X178480314Y-99478257D01*
X178551742Y-99621114D01*
X178623171Y-99692542D01*
X178766028Y-99763971D01*
X179051742Y-99763971D01*
X179194600Y-99692542D01*
X179266028Y-99621114D01*
X179337457Y-99478257D01*
X179337457Y-99192542D01*
X179266028Y-99049685D01*
X179194600Y-98978257D01*
X179051742Y-98906828D01*
X165450142Y-97477971D02*
X165450142Y-95977971D01*
X165950142Y-97049400D01*
X166450142Y-95977971D01*
X166450142Y-97477971D01*
X167164428Y-97477971D02*
X167164428Y-95977971D01*
X167878714Y-97477971D02*
X167878714Y-95977971D01*
X168235857Y-95977971D01*
X168450142Y-96049400D01*
X168593000Y-96192257D01*
X168664428Y-96335114D01*
X168735857Y-96620828D01*
X168735857Y-96835114D01*
X168664428Y-97120828D01*
X168593000Y-97263685D01*
X168450142Y-97406542D01*
X168235857Y-97477971D01*
X167878714Y-97477971D01*
X169378714Y-97477971D02*
X169378714Y-95977971D01*
X171093000Y-96477971D02*
X171450142Y-97477971D01*
X171807285Y-96477971D01*
X172307285Y-96120828D02*
X172378714Y-96049400D01*
X172521571Y-95977971D01*
X172878714Y-95977971D01*
X173021571Y-96049400D01*
X173093000Y-96120828D01*
X173164428Y-96263685D01*
X173164428Y-96406542D01*
X173093000Y-96620828D01*
X172235857Y-97477971D01*
X173164428Y-97477971D01*
X174950142Y-97477971D02*
X174950142Y-96477971D01*
X174950142Y-96763685D02*
X175021571Y-96620828D01*
X175093000Y-96549400D01*
X175235857Y-96477971D01*
X175378714Y-96477971D01*
X176450142Y-97406542D02*
X176307285Y-97477971D01*
X176021571Y-97477971D01*
X175878714Y-97406542D01*
X175807285Y-97263685D01*
X175807285Y-96692257D01*
X175878714Y-96549400D01*
X176021571Y-96477971D01*
X176307285Y-96477971D01*
X176450142Y-96549400D01*
X176521571Y-96692257D01*
X176521571Y-96835114D01*
X175807285Y-96977971D01*
X177021571Y-96477971D02*
X177378714Y-97477971D01*
X177735857Y-96477971D01*
X178307285Y-97335114D02*
X178378714Y-97406542D01*
X178307285Y-97477971D01*
X178235857Y-97406542D01*
X178307285Y-97335114D01*
X178307285Y-97477971D01*
X179807285Y-97477971D02*
X178950142Y-97477971D01*
X179378714Y-97477971D02*
X179378714Y-95977971D01*
X179235857Y-96192257D01*
X179093000Y-96335114D01*
X178950142Y-96406542D01*
D14*
G04 #@! TO.C,J4*
X187782200Y-105632000D02*
X186512200Y-105632000D01*
X187782200Y-106902000D02*
X187782200Y-105632000D01*
X191862200Y-120382000D02*
X158302200Y-120382000D01*
X191862200Y-111032000D02*
X191862200Y-120382000D01*
X172832200Y-111032000D02*
X172832200Y-120382000D01*
X158302200Y-111032000D02*
X158302200Y-120382000D01*
X158302200Y-111032000D02*
X191862200Y-111032000D01*
X177332200Y-111032000D02*
X177332200Y-120382000D01*
G04 #@! TO.C,J2*
X156048400Y-109076800D02*
X158708400Y-109076800D01*
X156048400Y-101396800D02*
X156048400Y-109076800D01*
X158708400Y-101396800D02*
X158708400Y-109076800D01*
X156048400Y-101396800D02*
X158708400Y-101396800D01*
X156048400Y-100126800D02*
X156048400Y-98796800D01*
X156048400Y-98796800D02*
X157378400Y-98796800D01*
D15*
G04 #@! TO.C,RV1*
X118948200Y-80365600D02*
X130124200Y-80365600D01*
X119710200Y-105765600D02*
X129362200Y-105765600D01*
X119710200Y-105765600D02*
X119710200Y-103225600D01*
X129362200Y-105765600D02*
X129362200Y-103225600D01*
X119710200Y-103225600D02*
X116916200Y-103225600D01*
X129362200Y-103225600D02*
X132156200Y-103225600D01*
X115011200Y-90271600D02*
X115011200Y-98399600D01*
X116916200Y-90271600D02*
X116916200Y-87350600D01*
X116916200Y-98399600D02*
X116916200Y-103225600D01*
X116916200Y-90271600D02*
X115011200Y-90271600D01*
X116916200Y-98399600D02*
X115011200Y-98399600D01*
X116916200Y-87350600D02*
X118948200Y-87350600D01*
X130124200Y-87350600D02*
X132156200Y-87350600D01*
X118948200Y-80365600D02*
X118948200Y-87350600D01*
X130124200Y-80365600D02*
X130124200Y-87350600D01*
X132156200Y-89509600D02*
X135712200Y-89509600D01*
X132156200Y-99161600D02*
X135712200Y-99161600D01*
X135712200Y-89509600D02*
X135712200Y-99161600D01*
X132156200Y-89509600D02*
X132156200Y-87350600D01*
X132156200Y-99161600D02*
X132156200Y-103225600D01*
D16*
X124985213Y-94335600D02*
G75*
G03X124985213Y-94335600I-449013J0D01*
G01*
D14*
G04 #@! TO.C,SW2*
X187833000Y-95580200D02*
X195453000Y-95580200D01*
X195453000Y-95580200D02*
X195453000Y-95880200D01*
X195453000Y-103200200D02*
X187833000Y-103200200D01*
X187833000Y-95580200D02*
X187833000Y-95880200D01*
X195453000Y-97820200D02*
X195453000Y-100960200D01*
X187833000Y-97820200D02*
X187833000Y-100960200D01*
X195453000Y-102900200D02*
X195453000Y-103200200D01*
X187833000Y-102900200D02*
X187833000Y-103200200D01*
X194183000Y-99390200D02*
G75*
G03X194183000Y-99390200I-2540000J0D01*
G01*
G04 #@! TO.C,J7*
X127321000Y-69155000D02*
X127321000Y-71815000D01*
X135001000Y-69155000D02*
X127321000Y-69155000D01*
X135001000Y-71815000D02*
X127321000Y-71815000D01*
X135001000Y-69155000D02*
X135001000Y-71815000D01*
X136271000Y-69155000D02*
X137601000Y-69155000D01*
X137601000Y-69155000D02*
X137601000Y-70485000D01*
G04 #@! TO.C,Y1*
X149820000Y-92140800D02*
X156070000Y-92140800D01*
X149820000Y-97190800D02*
X156070000Y-97190800D01*
X149820000Y-97190800D02*
G75*
G02X149820000Y-92140800I0J2525000D01*
G01*
X156070000Y-97190800D02*
G75*
G03X156070000Y-92140800I0J2525000D01*
G01*
G04 #@! TO.C,J8*
X114875000Y-69205800D02*
X114875000Y-71865800D01*
X120015000Y-69205800D02*
X114875000Y-69205800D01*
X120015000Y-71865800D02*
X114875000Y-71865800D01*
X120015000Y-69205800D02*
X120015000Y-71865800D01*
X121285000Y-69205800D02*
X122615000Y-69205800D01*
X122615000Y-69205800D02*
X122615000Y-70535800D01*
G04 #@! TO.C,J9*
X142535600Y-71688000D02*
X145195600Y-71688000D01*
X142535600Y-69088000D02*
X142535600Y-71688000D01*
X145195600Y-69088000D02*
X145195600Y-71688000D01*
X142535600Y-69088000D02*
X145195600Y-69088000D01*
X142535600Y-67818000D02*
X142535600Y-66488000D01*
X142535600Y-66488000D02*
X143865600Y-66488000D01*
G04 #@! TO.C,D1*
X120400065Y-51345208D02*
G75*
G03X123632400Y-51502116I1672335J1078608D01*
G01*
X120400065Y-49187992D02*
G75*
G02X123632400Y-49031084I1672335J-1078608D01*
G01*
X121031270Y-51346437D02*
G75*
G03X123113361Y-51346600I1041130J1079837D01*
G01*
X121031270Y-49186763D02*
G75*
G02X123113361Y-49186600I1041130J-1079837D01*
G01*
X123632400Y-51502600D02*
X123632400Y-51346600D01*
X123632400Y-49186600D02*
X123632400Y-49030600D01*
G04 #@! TO.C,D2*
X112780065Y-51345208D02*
G75*
G03X116012400Y-51502116I1672335J1078608D01*
G01*
X112780065Y-49187992D02*
G75*
G02X116012400Y-49031084I1672335J-1078608D01*
G01*
X113411270Y-51346437D02*
G75*
G03X115493361Y-51346600I1041130J1079837D01*
G01*
X113411270Y-49186763D02*
G75*
G02X115493361Y-49186600I1041130J-1079837D01*
G01*
X116012400Y-51502600D02*
X116012400Y-51346600D01*
X116012400Y-49186600D02*
X116012400Y-49030600D01*
G04 #@! TO.C,J6*
X145342800Y-54432200D02*
X145342800Y-45792200D01*
X145342800Y-62812200D02*
X145342800Y-57732200D01*
X133142800Y-54432200D02*
X133142800Y-45792200D01*
X133142800Y-62812200D02*
X133142800Y-57732200D01*
X133142800Y-45792200D02*
X145342800Y-45792200D01*
X145342800Y-62812200D02*
X133142800Y-62812200D01*
D17*
G04 #@! TO.C,J3*
X148869400Y-66116200D02*
X169189400Y-66116200D01*
X169189400Y-66116200D02*
X169189400Y-45796200D01*
X169189400Y-45796200D02*
X148869400Y-45796200D01*
X148869400Y-45796200D02*
X148869400Y-66116200D01*
D14*
X148909400Y-61886200D02*
X148909400Y-45956200D01*
G04 #@! TO.C,CON2*
X174472600Y-60375800D02*
X175742600Y-60375800D01*
X174472600Y-59105800D02*
X174472600Y-60375800D01*
X170392600Y-45625800D02*
X191252600Y-45625800D01*
X170392600Y-54975800D02*
X170392600Y-45625800D01*
X191252600Y-54975800D02*
X191252600Y-45625800D01*
X191252600Y-54975800D02*
X170392600Y-54975800D01*
X178572600Y-54975800D02*
X178572600Y-45625800D01*
X183072600Y-54975800D02*
X183072600Y-45625800D01*
G04 #@! TO.C,CON3*
X186206000Y-92599000D02*
X186206000Y-66659000D01*
X186206000Y-66659000D02*
X195556000Y-66659000D01*
X195556000Y-66659000D02*
X195556000Y-92599000D01*
X195556000Y-92599000D02*
X186206000Y-92599000D01*
X195806000Y-92849000D02*
X195806000Y-90309000D01*
X195806000Y-92849000D02*
X193266000Y-92849000D01*
D17*
G04 #@! TO.C,U1*
X172442000Y-73044000D02*
X171842000Y-73044000D01*
X172442000Y-83394000D02*
X171772000Y-83394000D01*
X162092000Y-83394000D02*
X162762000Y-83394000D01*
X162092000Y-73044000D02*
X162762000Y-73044000D01*
X172442000Y-73044000D02*
X172442000Y-73714000D01*
X162092000Y-73044000D02*
X162092000Y-73714000D01*
X162092000Y-83394000D02*
X162092000Y-82724000D01*
X172442000Y-83394000D02*
X172442000Y-82724000D01*
X171842000Y-73044000D02*
X171842000Y-71569000D01*
G04 #@! TO.C,J4*
X189417366Y-107986580D02*
X189417366Y-108700866D01*
X189369747Y-108843723D01*
X189274509Y-108938961D01*
X189131652Y-108986580D01*
X189036414Y-108986580D01*
X190322128Y-108319914D02*
X190322128Y-108986580D01*
X190084033Y-107938961D02*
X189845938Y-108653247D01*
X190464985Y-108653247D01*
G04 #@! TO.C,J2*
X159585066Y-107884980D02*
X159585066Y-108599266D01*
X159537447Y-108742123D01*
X159442209Y-108837361D01*
X159299352Y-108884980D01*
X159204114Y-108884980D01*
X160013638Y-107980219D02*
X160061257Y-107932600D01*
X160156495Y-107884980D01*
X160394590Y-107884980D01*
X160489828Y-107932600D01*
X160537447Y-107980219D01*
X160585066Y-108075457D01*
X160585066Y-108170695D01*
X160537447Y-108313552D01*
X159966019Y-108884980D01*
X160585066Y-108884980D01*
G04 #@! TO.C,RV1*
D16*
X127463247Y-107610123D02*
X127039914Y-107005361D01*
X126737533Y-107610123D02*
X126737533Y-106340123D01*
X127221342Y-106340123D01*
X127342295Y-106400600D01*
X127402771Y-106461076D01*
X127463247Y-106582028D01*
X127463247Y-106763457D01*
X127402771Y-106884409D01*
X127342295Y-106944885D01*
X127221342Y-107005361D01*
X126737533Y-107005361D01*
X127826104Y-106340123D02*
X128249438Y-107610123D01*
X128672771Y-106340123D01*
X129761342Y-107610123D02*
X129035628Y-107610123D01*
X129398485Y-107610123D02*
X129398485Y-106340123D01*
X129277533Y-106521552D01*
X129156580Y-106642504D01*
X129035628Y-106702980D01*
G04 #@! TO.C,SW2*
D17*
X183629466Y-96518361D02*
X183772323Y-96565980D01*
X184010419Y-96565980D01*
X184105657Y-96518361D01*
X184153276Y-96470742D01*
X184200895Y-96375504D01*
X184200895Y-96280266D01*
X184153276Y-96185028D01*
X184105657Y-96137409D01*
X184010419Y-96089790D01*
X183819942Y-96042171D01*
X183724704Y-95994552D01*
X183677085Y-95946933D01*
X183629466Y-95851695D01*
X183629466Y-95756457D01*
X183677085Y-95661219D01*
X183724704Y-95613600D01*
X183819942Y-95565980D01*
X184058038Y-95565980D01*
X184200895Y-95613600D01*
X184534228Y-95565980D02*
X184772323Y-96565980D01*
X184962800Y-95851695D01*
X185153276Y-96565980D01*
X185391371Y-95565980D01*
X185724704Y-95661219D02*
X185772323Y-95613600D01*
X185867561Y-95565980D01*
X186105657Y-95565980D01*
X186200895Y-95613600D01*
X186248514Y-95661219D01*
X186296133Y-95756457D01*
X186296133Y-95851695D01*
X186248514Y-95994552D01*
X185677085Y-96565980D01*
X186296133Y-96565980D01*
G04 #@! TO.C,J7*
X137893466Y-71994780D02*
X137893466Y-72709066D01*
X137845847Y-72851923D01*
X137750609Y-72947161D01*
X137607752Y-72994780D01*
X137512514Y-72994780D01*
X138274419Y-71994780D02*
X138941085Y-71994780D01*
X138512514Y-72994780D01*
G04 #@! TO.C,Y1*
X152482609Y-90908190D02*
X152482609Y-91384380D01*
X152149276Y-90384380D02*
X152482609Y-90908190D01*
X152815942Y-90384380D01*
X153673085Y-91384380D02*
X153101657Y-91384380D01*
X153387371Y-91384380D02*
X153387371Y-90384380D01*
X153292133Y-90527238D01*
X153196895Y-90622476D01*
X153101657Y-90670095D01*
G04 #@! TO.C,J8*
X123237666Y-72147180D02*
X123237666Y-72861466D01*
X123190047Y-73004323D01*
X123094809Y-73099561D01*
X122951952Y-73147180D01*
X122856714Y-73147180D01*
X123856714Y-72575752D02*
X123761476Y-72528133D01*
X123713857Y-72480514D01*
X123666238Y-72385276D01*
X123666238Y-72337657D01*
X123713857Y-72242419D01*
X123761476Y-72194800D01*
X123856714Y-72147180D01*
X124047190Y-72147180D01*
X124142428Y-72194800D01*
X124190047Y-72242419D01*
X124237666Y-72337657D01*
X124237666Y-72385276D01*
X124190047Y-72480514D01*
X124142428Y-72528133D01*
X124047190Y-72575752D01*
X123856714Y-72575752D01*
X123761476Y-72623371D01*
X123713857Y-72670990D01*
X123666238Y-72766228D01*
X123666238Y-72956704D01*
X123713857Y-73051942D01*
X123761476Y-73099561D01*
X123856714Y-73147180D01*
X124047190Y-73147180D01*
X124142428Y-73099561D01*
X124190047Y-73051942D01*
X124237666Y-72956704D01*
X124237666Y-72766228D01*
X124190047Y-72670990D01*
X124142428Y-72623371D01*
X124047190Y-72575752D01*
G04 #@! TO.C,J9*
X145843666Y-71334380D02*
X145843666Y-72048666D01*
X145796047Y-72191523D01*
X145700809Y-72286761D01*
X145557952Y-72334380D01*
X145462714Y-72334380D01*
X146367476Y-72334380D02*
X146557952Y-72334380D01*
X146653190Y-72286761D01*
X146700809Y-72239142D01*
X146796047Y-72096285D01*
X146843666Y-71905809D01*
X146843666Y-71524857D01*
X146796047Y-71429619D01*
X146748428Y-71382000D01*
X146653190Y-71334380D01*
X146462714Y-71334380D01*
X146367476Y-71382000D01*
X146319857Y-71429619D01*
X146272238Y-71524857D01*
X146272238Y-71762952D01*
X146319857Y-71858190D01*
X146367476Y-71905809D01*
X146462714Y-71953428D01*
X146653190Y-71953428D01*
X146748428Y-71905809D01*
X146796047Y-71858190D01*
X146843666Y-71762952D01*
G04 #@! TO.C,D1*
X124153704Y-48229780D02*
X124153704Y-47229780D01*
X124391800Y-47229780D01*
X124534657Y-47277400D01*
X124629895Y-47372638D01*
X124677514Y-47467876D01*
X124725133Y-47658352D01*
X124725133Y-47801209D01*
X124677514Y-47991685D01*
X124629895Y-48086923D01*
X124534657Y-48182161D01*
X124391800Y-48229780D01*
X124153704Y-48229780D01*
X125677514Y-48229780D02*
X125106085Y-48229780D01*
X125391800Y-48229780D02*
X125391800Y-47229780D01*
X125296561Y-47372638D01*
X125201323Y-47467876D01*
X125106085Y-47515495D01*
G04 #@! TO.C,D2*
X116482904Y-48204380D02*
X116482904Y-47204380D01*
X116721000Y-47204380D01*
X116863857Y-47252000D01*
X116959095Y-47347238D01*
X117006714Y-47442476D01*
X117054333Y-47632952D01*
X117054333Y-47775809D01*
X117006714Y-47966285D01*
X116959095Y-48061523D01*
X116863857Y-48156761D01*
X116721000Y-48204380D01*
X116482904Y-48204380D01*
X117435285Y-47299619D02*
X117482904Y-47252000D01*
X117578142Y-47204380D01*
X117816238Y-47204380D01*
X117911476Y-47252000D01*
X117959095Y-47299619D01*
X118006714Y-47394857D01*
X118006714Y-47490095D01*
X117959095Y-47632952D01*
X117387666Y-48204380D01*
X118006714Y-48204380D01*
G04 #@! TO.C,J6*
X131645066Y-61834780D02*
X131645066Y-62549066D01*
X131597447Y-62691923D01*
X131502209Y-62787161D01*
X131359352Y-62834780D01*
X131264114Y-62834780D01*
X132549828Y-61834780D02*
X132359352Y-61834780D01*
X132264114Y-61882400D01*
X132216495Y-61930019D01*
X132121257Y-62072876D01*
X132073638Y-62263352D01*
X132073638Y-62644304D01*
X132121257Y-62739542D01*
X132168876Y-62787161D01*
X132264114Y-62834780D01*
X132454590Y-62834780D01*
X132549828Y-62787161D01*
X132597447Y-62739542D01*
X132645066Y-62644304D01*
X132645066Y-62406209D01*
X132597447Y-62310971D01*
X132549828Y-62263352D01*
X132454590Y-62215733D01*
X132264114Y-62215733D01*
X132168876Y-62263352D01*
X132121257Y-62310971D01*
X132073638Y-62406209D01*
G04 #@! TO.C,J3*
X147139066Y-65124080D02*
X147139066Y-65838366D01*
X147091447Y-65981223D01*
X146996209Y-66076461D01*
X146853352Y-66124080D01*
X146758114Y-66124080D01*
X147520019Y-65124080D02*
X148139066Y-65124080D01*
X147805733Y-65505033D01*
X147948590Y-65505033D01*
X148043828Y-65552652D01*
X148091447Y-65600271D01*
X148139066Y-65695509D01*
X148139066Y-65933604D01*
X148091447Y-66028842D01*
X148043828Y-66076461D01*
X147948590Y-66124080D01*
X147662876Y-66124080D01*
X147567638Y-66076461D01*
X147520019Y-66028842D01*
G04 #@! TO.C,CON2*
X188828514Y-56694342D02*
X188780895Y-56741961D01*
X188638038Y-56789580D01*
X188542800Y-56789580D01*
X188399942Y-56741961D01*
X188304704Y-56646723D01*
X188257085Y-56551485D01*
X188209466Y-56361009D01*
X188209466Y-56218152D01*
X188257085Y-56027676D01*
X188304704Y-55932438D01*
X188399942Y-55837200D01*
X188542800Y-55789580D01*
X188638038Y-55789580D01*
X188780895Y-55837200D01*
X188828514Y-55884819D01*
X189447561Y-55789580D02*
X189638038Y-55789580D01*
X189733276Y-55837200D01*
X189828514Y-55932438D01*
X189876133Y-56122914D01*
X189876133Y-56456247D01*
X189828514Y-56646723D01*
X189733276Y-56741961D01*
X189638038Y-56789580D01*
X189447561Y-56789580D01*
X189352323Y-56741961D01*
X189257085Y-56646723D01*
X189209466Y-56456247D01*
X189209466Y-56122914D01*
X189257085Y-55932438D01*
X189352323Y-55837200D01*
X189447561Y-55789580D01*
X190304704Y-56789580D02*
X190304704Y-55789580D01*
X190876133Y-56789580D01*
X190876133Y-55789580D01*
X191304704Y-55884819D02*
X191352323Y-55837200D01*
X191447561Y-55789580D01*
X191685657Y-55789580D01*
X191780895Y-55837200D01*
X191828514Y-55884819D01*
X191876133Y-55980057D01*
X191876133Y-56075295D01*
X191828514Y-56218152D01*
X191257085Y-56789580D01*
X191876133Y-56789580D01*
G04 #@! TO.C,CON3*
X189438114Y-65939942D02*
X189390495Y-65987561D01*
X189247638Y-66035180D01*
X189152400Y-66035180D01*
X189009542Y-65987561D01*
X188914304Y-65892323D01*
X188866685Y-65797085D01*
X188819066Y-65606609D01*
X188819066Y-65463752D01*
X188866685Y-65273276D01*
X188914304Y-65178038D01*
X189009542Y-65082800D01*
X189152400Y-65035180D01*
X189247638Y-65035180D01*
X189390495Y-65082800D01*
X189438114Y-65130419D01*
X190057161Y-65035180D02*
X190247638Y-65035180D01*
X190342876Y-65082800D01*
X190438114Y-65178038D01*
X190485733Y-65368514D01*
X190485733Y-65701847D01*
X190438114Y-65892323D01*
X190342876Y-65987561D01*
X190247638Y-66035180D01*
X190057161Y-66035180D01*
X189961923Y-65987561D01*
X189866685Y-65892323D01*
X189819066Y-65701847D01*
X189819066Y-65368514D01*
X189866685Y-65178038D01*
X189961923Y-65082800D01*
X190057161Y-65035180D01*
X190914304Y-66035180D02*
X190914304Y-65035180D01*
X191485733Y-66035180D01*
X191485733Y-65035180D01*
X191866685Y-65035180D02*
X192485733Y-65035180D01*
X192152400Y-65416133D01*
X192295257Y-65416133D01*
X192390495Y-65463752D01*
X192438114Y-65511371D01*
X192485733Y-65606609D01*
X192485733Y-65844704D01*
X192438114Y-65939942D01*
X192390495Y-65987561D01*
X192295257Y-66035180D01*
X192009542Y-66035180D01*
X191914304Y-65987561D01*
X191866685Y-65939942D01*
G04 #@! TO.C,U1*
X159080295Y-85456780D02*
X159080295Y-86266304D01*
X159127914Y-86361542D01*
X159175533Y-86409161D01*
X159270771Y-86456780D01*
X159461247Y-86456780D01*
X159556485Y-86409161D01*
X159604104Y-86361542D01*
X159651723Y-86266304D01*
X159651723Y-85456780D01*
X160651723Y-86456780D02*
X160080295Y-86456780D01*
X160366009Y-86456780D02*
X160366009Y-85456780D01*
X160270771Y-85599638D01*
X160175533Y-85694876D01*
X160080295Y-85742495D01*
G04 #@! TD*
M02*
