G04 #@! TF.GenerationSoftware,KiCad,Pcbnew,5.0.0-fee4fd1~66~ubuntu18.04.1*
G04 #@! TF.CreationDate,2018-10-11T22:40:23+02:00*
G04 #@! TF.ProjectId,midi-v2-circuit,6D6964692D76322D636972637569742E,rev?*
G04 #@! TF.SameCoordinates,Original*
G04 #@! TF.FileFunction,Copper,L1,Top,Signal*
G04 #@! TF.FilePolarity,Positive*
%FSLAX46Y46*%
G04 Gerber Fmt 4.6, Leading zero omitted, Abs format (unit mm)*
G04 Created by KiCad (PCBNEW 5.0.0-fee4fd1~66~ubuntu18.04.1) date Thu Oct 11 22:40:23 2018*
%MOMM*%
%LPD*%
G01*
G04 APERTURE LIST*
G04 #@! TA.AperFunction,ComponentPad*
%ADD10C,2.500000*%
G04 #@! TD*
G04 #@! TA.AperFunction,ComponentPad*
%ADD11C,1.778000*%
G04 #@! TD*
G04 #@! TA.AperFunction,ComponentPad*
%ADD12C,2.286000*%
G04 #@! TD*
G04 #@! TA.AperFunction,ComponentPad*
%ADD13C,4.000000*%
G04 #@! TD*
G04 #@! TA.AperFunction,ComponentPad*
%ADD14C,2.400000*%
G04 #@! TD*
G04 #@! TA.AperFunction,ComponentPad*
%ADD15C,1.397000*%
G04 #@! TD*
G04 #@! TA.AperFunction,ComponentPad*
%ADD16R,1.727200X1.727200*%
G04 #@! TD*
G04 #@! TA.AperFunction,ComponentPad*
%ADD17O,1.727200X1.727200*%
G04 #@! TD*
G04 #@! TA.AperFunction,ComponentPad*
%ADD18O,1.998980X1.998980*%
G04 #@! TD*
G04 #@! TA.AperFunction,ComponentPad*
%ADD19R,1.998980X1.998980*%
G04 #@! TD*
G04 #@! TA.AperFunction,ComponentPad*
%ADD20R,1.700000X1.700000*%
G04 #@! TD*
G04 #@! TA.AperFunction,ComponentPad*
%ADD21O,1.700000X1.700000*%
G04 #@! TD*
G04 #@! TA.AperFunction,ComponentPad*
%ADD22C,1.500000*%
G04 #@! TD*
G04 #@! TA.AperFunction,ComponentPad*
%ADD23R,1.800000X1.800000*%
G04 #@! TD*
G04 #@! TA.AperFunction,ComponentPad*
%ADD24C,1.800000*%
G04 #@! TD*
G04 #@! TA.AperFunction,ComponentPad*
%ADD25C,1.520000*%
G04 #@! TD*
G04 #@! TA.AperFunction,ComponentPad*
%ADD26C,2.700000*%
G04 #@! TD*
G04 #@! TA.AperFunction,ComponentPad*
%ADD27C,2.300000*%
G04 #@! TD*
G04 #@! TA.AperFunction,ViaPad*
%ADD28C,2.000000*%
G04 #@! TD*
G04 #@! TA.AperFunction,SMDPad,CuDef*
%ADD29R,0.560000X1.600000*%
G04 #@! TD*
G04 #@! TA.AperFunction,SMDPad,CuDef*
%ADD30R,1.600000X0.560000*%
G04 #@! TD*
G04 #@! TA.AperFunction,ViaPad*
%ADD31C,1.200000*%
G04 #@! TD*
G04 #@! TA.AperFunction,Conductor*
%ADD32C,0.500000*%
G04 #@! TD*
G04 #@! TA.AperFunction,Conductor*
%ADD33C,0.400000*%
G04 #@! TD*
G04 #@! TA.AperFunction,Conductor*
%ADD34C,0.200000*%
G04 #@! TD*
G04 #@! TA.AperFunction,Conductor*
%ADD35C,0.300000*%
G04 #@! TD*
G04 #@! TA.AperFunction,Conductor*
%ADD36C,0.800000*%
G04 #@! TD*
G04 #@! TA.AperFunction,Conductor*
%ADD37C,0.254000*%
G04 #@! TD*
G04 APERTURE END LIST*
D10*
G04 #@! TO.P,REF\002A\002A,1*
G04 #@! TO.N,N/C*
X179006500Y-81295500D03*
G04 #@! TD*
G04 #@! TO.P,REF\002A\002A,1*
G04 #@! TO.N,N/C*
X178943000Y-98313500D03*
G04 #@! TD*
D11*
G04 #@! TO.P,RV1,B1A*
G04 #@! TO.N,Net-(RV1-PadB1A)*
X100203000Y-81788000D03*
G04 #@! TO.P,RV1,B1B*
G04 #@! TO.N,Net-(RV1-PadB1B)*
X93853000Y-81788000D03*
G04 #@! TO.P,RV1,B2A*
G04 #@! TO.N,Net-(RV1-PadB2A)*
X100203000Y-86868000D03*
G04 #@! TO.P,RV1,B2B*
G04 #@! TO.N,Net-(RV1-PadB2B)*
X93853000Y-86868000D03*
G04 #@! TO.P,RV1,H1*
G04 #@! TO.N,+5V*
X99568000Y-104648000D03*
G04 #@! TO.P,RV1,H2*
G04 #@! TO.N,joystick-pot-2*
X97028000Y-104648000D03*
G04 #@! TO.P,RV1,H3*
G04 #@! TO.N,GND*
X94488000Y-104648000D03*
D12*
G04 #@! TO.P,RV1,MOUN*
G04 #@! TO.N,N/C*
X104648000Y-87820500D03*
X104648000Y-101155500D03*
X89408000Y-101155500D03*
X89408000Y-87820500D03*
D11*
G04 #@! TO.P,RV1,V1*
G04 #@! TO.N,+5V*
X107188000Y-91948000D03*
G04 #@! TO.P,RV1,V2*
G04 #@! TO.N,joystick-pot-1*
X107188000Y-94488000D03*
G04 #@! TO.P,RV1,V3*
G04 #@! TO.N,GND*
X107188000Y-97028000D03*
G04 #@! TD*
D13*
G04 #@! TO.P,REF\002A\002A,1*
G04 #@! TO.N,N/C*
X193167000Y-107569000D03*
G04 #@! TD*
D14*
G04 #@! TO.P,REF\002A\002A,1*
G04 #@! TO.N,N/C*
X87503000Y-81788000D03*
G04 #@! TD*
G04 #@! TO.P,REF\002A\002A,1*
G04 #@! TO.N,N/C*
X106553000Y-81788000D03*
G04 #@! TD*
G04 #@! TO.P,REF\002A\002A,1*
G04 #@! TO.N,N/C*
X87503000Y-107188000D03*
G04 #@! TD*
D15*
G04 #@! TO.P,SW2,1*
G04 #@! TO.N,GND*
X183896000Y-58420000D03*
G04 #@! TO.P,SW2,2*
G04 #@! TO.N,RST*
X183896000Y-63500000D03*
G04 #@! TO.P,SW2,1*
G04 #@! TO.N,GND*
X176276000Y-58420000D03*
G04 #@! TO.P,SW2,2*
G04 #@! TO.N,RST*
X176276000Y-63500000D03*
G04 #@! TD*
D13*
G04 #@! TO.P,REF\002A\002A,1*
G04 #@! TO.N,N/C*
X123571000Y-107772200D03*
G04 #@! TD*
G04 #@! TO.P,REF\002A\002A,1*
G04 #@! TO.N,N/C*
X81661000Y-58039000D03*
G04 #@! TD*
G04 #@! TO.P,REF\002A\002A,1*
G04 #@! TO.N,N/C*
X193167000Y-58039000D03*
G04 #@! TD*
D16*
G04 #@! TO.P,CON1,1*
G04 #@! TO.N,joystick-pot-2*
X84074000Y-87376000D03*
D17*
G04 #@! TO.P,CON1,2*
G04 #@! TO.N,joystick-pot-1*
X81534000Y-87376000D03*
G04 #@! TO.P,CON1,3*
G04 #@! TO.N,knob-pot-4*
X84074000Y-89916000D03*
G04 #@! TO.P,CON1,4*
G04 #@! TO.N,knob-pot-3*
X81534000Y-89916000D03*
G04 #@! TO.P,CON1,5*
G04 #@! TO.N,knob-pot-2*
X84074000Y-92456000D03*
G04 #@! TO.P,CON1,6*
G04 #@! TO.N,knob-pot-1*
X81534000Y-92456000D03*
G04 #@! TO.P,CON1,7*
G04 #@! TO.N,slide-pot-2*
X84074000Y-94996000D03*
G04 #@! TO.P,CON1,8*
G04 #@! TO.N,slide-pot-1*
X81534000Y-94996000D03*
G04 #@! TO.P,CON1,9*
G04 #@! TO.N,button-3*
X84074000Y-97536000D03*
G04 #@! TO.P,CON1,10*
G04 #@! TO.N,button-4*
X81534000Y-97536000D03*
G04 #@! TO.P,CON1,11*
G04 #@! TO.N,button-1*
X84074000Y-100076000D03*
G04 #@! TO.P,CON1,12*
G04 #@! TO.N,button-2*
X81534000Y-100076000D03*
G04 #@! TO.P,CON1,13*
G04 #@! TO.N,+5V*
X84074000Y-102616000D03*
G04 #@! TO.P,CON1,14*
G04 #@! TO.N,GND*
X81534000Y-102616000D03*
G04 #@! TD*
D18*
G04 #@! TO.P,J1,4*
G04 #@! TO.N,Net-(J1-Pad4)*
X113411000Y-88646000D03*
D19*
G04 #@! TO.P,J1,1*
G04 #@! TO.N,+5V*
X113411000Y-81026000D03*
D18*
G04 #@! TO.P,J1,2*
G04 #@! TO.N,GND*
X113411000Y-83566000D03*
G04 #@! TO.P,J1,3*
G04 #@! TO.N,Net-(J1-Pad3)*
X113411000Y-86106000D03*
G04 #@! TO.P,J1,5*
G04 #@! TO.N,Net-(J1-Pad5)*
X113411000Y-91186000D03*
G04 #@! TO.P,J1,6*
G04 #@! TO.N,Net-(J1-Pad6)*
X113411000Y-93726000D03*
G04 #@! TO.P,J1,7*
G04 #@! TO.N,Net-(J1-Pad7)*
X113411000Y-96266000D03*
G04 #@! TO.P,J1,8*
G04 #@! TO.N,Net-(J1-Pad8)*
X113411000Y-98806000D03*
G04 #@! TO.P,J1,9*
G04 #@! TO.N,button-3*
X113411000Y-101346000D03*
G04 #@! TO.P,J1,10*
G04 #@! TO.N,button-4*
X113411000Y-103886000D03*
G04 #@! TO.P,J1,11*
G04 #@! TO.N,button-1*
X113411000Y-106426000D03*
G04 #@! TO.P,J1,12*
G04 #@! TO.N,button-2*
X113411000Y-108966000D03*
G04 #@! TD*
D20*
G04 #@! TO.P,J7,1*
G04 #@! TO.N,+5V*
X122174000Y-99568000D03*
D21*
G04 #@! TO.P,J7,2*
G04 #@! TO.N,GND*
X122174000Y-97028000D03*
G04 #@! TO.P,J7,3*
G04 #@! TO.N,Net-(J6-Pad3)*
X122174000Y-94488000D03*
G04 #@! TO.P,J7,4*
G04 #@! TO.N,Net-(J6-Pad2)*
X122174000Y-91948000D03*
G04 #@! TD*
D22*
G04 #@! TO.P,Y1,1*
G04 #@! TO.N,Net-(C1-Pad1)*
X147701000Y-89001600D03*
G04 #@! TO.P,Y1,2*
G04 #@! TO.N,Net-(C2-Pad1)*
X142801000Y-89001600D03*
G04 #@! TD*
D20*
G04 #@! TO.P,J8,1*
G04 #@! TO.N,midi-raw-signal-power*
X122174000Y-85852000D03*
D21*
G04 #@! TO.P,J8,2*
G04 #@! TO.N,GND*
X122174000Y-83312000D03*
G04 #@! TO.P,J8,3*
G04 #@! TO.N,midi-raw-signal-data*
X122174000Y-80772000D03*
G04 #@! TD*
D20*
G04 #@! TO.P,J9,1*
G04 #@! TO.N,VCC*
X98425000Y-65913000D03*
D21*
G04 #@! TO.P,J9,2*
G04 #@! TO.N,+5V*
X95885000Y-65913000D03*
G04 #@! TD*
D23*
G04 #@! TO.P,D1,1*
G04 #@! TO.N,GND*
X106934000Y-58420000D03*
D24*
G04 #@! TO.P,D1,2*
G04 #@! TO.N,Net-(D1-Pad2)*
X104394000Y-58420000D03*
G04 #@! TD*
D23*
G04 #@! TO.P,D2,1*
G04 #@! TO.N,GND*
X99314000Y-58420000D03*
D24*
G04 #@! TO.P,D2,2*
G04 #@! TO.N,Net-(D2-Pad2)*
X96774000Y-58420000D03*
G04 #@! TD*
D25*
G04 #@! TO.P,J6,2*
G04 #@! TO.N,Net-(J6-Pad2)*
X118522000Y-68962000D03*
G04 #@! TO.P,J6,1*
G04 #@! TO.N,VCC*
X115982000Y-68962000D03*
G04 #@! TO.P,J6,4*
G04 #@! TO.N,GND*
X115982000Y-66962000D03*
G04 #@! TO.P,J6,3*
G04 #@! TO.N,Net-(J6-Pad3)*
X118522000Y-66962000D03*
D26*
G04 #@! TO.P,J6,5*
G04 #@! TO.N,GND*
X123252000Y-64262000D03*
X111252000Y-64262000D03*
G04 #@! TD*
D27*
G04 #@! TO.P,J3,8*
G04 #@! TO.N,Net-(J3-Pad8)*
X136398000Y-71755000D03*
G04 #@! TO.P,J3,3*
G04 #@! TO.N,Net-(J3-Pad3)*
X141478000Y-66675000D03*
G04 #@! TO.P,J3,2*
G04 #@! TO.N,GND*
X136398000Y-66675000D03*
G04 #@! TO.P,J3,5*
G04 #@! TO.N,midi-raw-signal-power*
X138938000Y-69215000D03*
D28*
G04 #@! TD*
G04 #@! TO.N,*
G04 #@! TO.C,J3*
X133858000Y-56515000D03*
D27*
G04 #@! TO.P,J3,7*
G04 #@! TO.N,Net-(J3-Pad7)*
X144018000Y-69215000D03*
G04 #@! TO.P,J3,1*
G04 #@! TO.N,Net-(J3-Pad1)*
X131318000Y-66675000D03*
G04 #@! TO.P,J3,4*
G04 #@! TO.N,midi-raw-signal-data*
X133858000Y-69215000D03*
G04 #@! TO.P,J3,6*
G04 #@! TO.N,Net-(J3-Pad6)*
X128778000Y-69215000D03*
D28*
G04 #@! TD*
G04 #@! TO.N,*
G04 #@! TO.C,J3*
X138938000Y-56515000D03*
D16*
G04 #@! TO.P,CON2,1*
G04 #@! TO.N,MOSI*
X156210000Y-65151000D03*
D17*
G04 #@! TO.P,CON2,2*
G04 #@! TO.N,+5V*
X156210000Y-62611000D03*
G04 #@! TO.P,CON2,3*
G04 #@! TO.N,Net-(CON2-Pad3)*
X158750000Y-65151000D03*
G04 #@! TO.P,CON2,4*
G04 #@! TO.N,GND*
X158750000Y-62611000D03*
G04 #@! TO.P,CON2,5*
G04 #@! TO.N,RST*
X161290000Y-65151000D03*
G04 #@! TO.P,CON2,6*
G04 #@! TO.N,GND*
X161290000Y-62611000D03*
G04 #@! TO.P,CON2,7*
G04 #@! TO.N,SCK*
X163830000Y-65151000D03*
G04 #@! TO.P,CON2,8*
G04 #@! TO.N,GND*
X163830000Y-62611000D03*
G04 #@! TO.P,CON2,9*
G04 #@! TO.N,MISO*
X166370000Y-65151000D03*
G04 #@! TO.P,CON2,10*
G04 #@! TO.N,GND*
X166370000Y-62611000D03*
G04 #@! TD*
D20*
G04 #@! TO.P,J2,1*
G04 #@! TO.N,SDA*
X83820000Y-66802000D03*
D21*
G04 #@! TO.P,J2,2*
G04 #@! TO.N,SCL*
X83820000Y-69342000D03*
G04 #@! TO.P,J2,3*
G04 #@! TO.N,+5V*
X83820000Y-71882000D03*
G04 #@! TO.P,J2,4*
G04 #@! TO.N,GND*
X83820000Y-74422000D03*
G04 #@! TD*
D16*
G04 #@! TO.P,CON3,1*
G04 #@! TO.N,joystick-pot-2*
X192151000Y-87249000D03*
D17*
G04 #@! TO.P,CON3,2*
G04 #@! TO.N,joystick-pot-1*
X189611000Y-87249000D03*
G04 #@! TO.P,CON3,3*
G04 #@! TO.N,knob-pot-4*
X192151000Y-84709000D03*
G04 #@! TO.P,CON3,4*
G04 #@! TO.N,knob-pot-3*
X189611000Y-84709000D03*
G04 #@! TO.P,CON3,5*
G04 #@! TO.N,knob-pot-2*
X192151000Y-82169000D03*
G04 #@! TO.P,CON3,6*
G04 #@! TO.N,knob-pot-1*
X189611000Y-82169000D03*
G04 #@! TO.P,CON3,7*
G04 #@! TO.N,slide-pot-2*
X192151000Y-79629000D03*
G04 #@! TO.P,CON3,8*
G04 #@! TO.N,slide-pot-1*
X189611000Y-79629000D03*
G04 #@! TO.P,CON3,9*
G04 #@! TO.N,button-3*
X192151000Y-77089000D03*
G04 #@! TO.P,CON3,10*
G04 #@! TO.N,button-4*
X189611000Y-77089000D03*
G04 #@! TO.P,CON3,11*
G04 #@! TO.N,button-1*
X192151000Y-74549000D03*
G04 #@! TO.P,CON3,12*
G04 #@! TO.N,button-2*
X189611000Y-74549000D03*
G04 #@! TO.P,CON3,13*
G04 #@! TO.N,+5V*
X192151000Y-72009000D03*
G04 #@! TO.P,CON3,14*
G04 #@! TO.N,GND*
X189611000Y-72009000D03*
G04 #@! TD*
D29*
G04 #@! TO.P,U1,1*
G04 #@! TO.N,MOSI*
X171267000Y-72369000D03*
G04 #@! TO.P,U1,2*
G04 #@! TO.N,MISO*
X170467000Y-72369000D03*
G04 #@! TO.P,U1,3*
G04 #@! TO.N,SCK*
X169667000Y-72369000D03*
G04 #@! TO.P,U1,4*
G04 #@! TO.N,RST*
X168867000Y-72369000D03*
G04 #@! TO.P,U1,5*
G04 #@! TO.N,+5V*
X168067000Y-72369000D03*
G04 #@! TO.P,U1,6*
G04 #@! TO.N,GND*
X167267000Y-72369000D03*
G04 #@! TO.P,U1,7*
G04 #@! TO.N,Net-(C1-Pad1)*
X166467000Y-72369000D03*
G04 #@! TO.P,U1,8*
G04 #@! TO.N,Net-(C2-Pad1)*
X165667000Y-72369000D03*
G04 #@! TO.P,U1,9*
G04 #@! TO.N,note-1*
X164867000Y-72369000D03*
G04 #@! TO.P,U1,10*
G04 #@! TO.N,midi-data-pin*
X164067000Y-72369000D03*
G04 #@! TO.P,U1,11*
G04 #@! TO.N,note-2*
X163267000Y-72369000D03*
D30*
G04 #@! TO.P,U1,12*
G04 #@! TO.N,note-3*
X161417000Y-74219000D03*
G04 #@! TO.P,U1,13*
G04 #@! TO.N,note-4*
X161417000Y-75019000D03*
G04 #@! TO.P,U1,14*
G04 #@! TO.N,note-5*
X161417000Y-75819000D03*
G04 #@! TO.P,U1,15*
G04 #@! TO.N,note-6*
X161417000Y-76619000D03*
G04 #@! TO.P,U1,16*
G04 #@! TO.N,note-7*
X161417000Y-77419000D03*
G04 #@! TO.P,U1,17*
G04 #@! TO.N,+5V*
X161417000Y-78219000D03*
G04 #@! TO.P,U1,18*
G04 #@! TO.N,GND*
X161417000Y-79019000D03*
G04 #@! TO.P,U1,19*
G04 #@! TO.N,SCL*
X161417000Y-79819000D03*
G04 #@! TO.P,U1,20*
G04 #@! TO.N,SDA*
X161417000Y-80619000D03*
G04 #@! TO.P,U1,21*
G04 #@! TO.N,note-8*
X161417000Y-81419000D03*
G04 #@! TO.P,U1,22*
G04 #@! TO.N,note-9*
X161417000Y-82219000D03*
D29*
G04 #@! TO.P,U1,23*
G04 #@! TO.N,note-10*
X163267000Y-84069000D03*
G04 #@! TO.P,U1,24*
G04 #@! TO.N,note-11*
X164067000Y-84069000D03*
G04 #@! TO.P,U1,25*
G04 #@! TO.N,note-12*
X164867000Y-84069000D03*
G04 #@! TO.P,U1,26*
G04 #@! TO.N,note-13*
X165667000Y-84069000D03*
G04 #@! TO.P,U1,27*
G04 #@! TO.N,Net-(C7-Pad1)*
X166467000Y-84069000D03*
G04 #@! TO.P,U1,28*
G04 #@! TO.N,GND*
X167267000Y-84069000D03*
G04 #@! TO.P,U1,29*
G04 #@! TO.N,Net-(C3-Pad1)*
X168067000Y-84069000D03*
G04 #@! TO.P,U1,30*
G04 #@! TO.N,joystick-pot-2*
X168867000Y-84069000D03*
G04 #@! TO.P,U1,31*
G04 #@! TO.N,joystick-pot-1*
X169667000Y-84069000D03*
G04 #@! TO.P,U1,32*
G04 #@! TO.N,knob-pot-4*
X170467000Y-84069000D03*
G04 #@! TO.P,U1,33*
G04 #@! TO.N,knob-pot-3*
X171267000Y-84069000D03*
D30*
G04 #@! TO.P,U1,34*
G04 #@! TO.N,knob-pot-2*
X173117000Y-82219000D03*
G04 #@! TO.P,U1,35*
G04 #@! TO.N,knob-pot-1*
X173117000Y-81419000D03*
G04 #@! TO.P,U1,36*
G04 #@! TO.N,slide-pot-2*
X173117000Y-80619000D03*
G04 #@! TO.P,U1,37*
G04 #@! TO.N,slide-pot-1*
X173117000Y-79819000D03*
G04 #@! TO.P,U1,38*
G04 #@! TO.N,+5V*
X173117000Y-79019000D03*
G04 #@! TO.P,U1,39*
G04 #@! TO.N,GND*
X173117000Y-78219000D03*
G04 #@! TO.P,U1,40*
G04 #@! TO.N,button-1*
X173117000Y-77419000D03*
G04 #@! TO.P,U1,41*
G04 #@! TO.N,button-2*
X173117000Y-76619000D03*
G04 #@! TO.P,U1,42*
G04 #@! TO.N,button-3*
X173117000Y-75819000D03*
G04 #@! TO.P,U1,43*
G04 #@! TO.N,button-4*
X173117000Y-75019000D03*
G04 #@! TO.P,U1,44*
G04 #@! TO.N,octave-1*
X173117000Y-74219000D03*
G04 #@! TD*
D16*
G04 #@! TO.P,J4,1*
G04 #@! TO.N,note-13*
X174371000Y-105886000D03*
D17*
G04 #@! TO.P,J4,2*
G04 #@! TO.N,note-12*
X174371000Y-108426000D03*
G04 #@! TO.P,J4,3*
G04 #@! TO.N,note-11*
X171831000Y-105886000D03*
G04 #@! TO.P,J4,4*
G04 #@! TO.N,note-10*
X171831000Y-108426000D03*
G04 #@! TO.P,J4,5*
G04 #@! TO.N,note-9*
X169291000Y-105886000D03*
G04 #@! TO.P,J4,6*
G04 #@! TO.N,note-8*
X169291000Y-108426000D03*
G04 #@! TO.P,J4,7*
G04 #@! TO.N,note-7*
X166751000Y-105886000D03*
G04 #@! TO.P,J4,8*
G04 #@! TO.N,note-6*
X166751000Y-108426000D03*
G04 #@! TO.P,J4,9*
G04 #@! TO.N,note-5*
X164211000Y-105886000D03*
G04 #@! TO.P,J4,10*
G04 #@! TO.N,note-4*
X164211000Y-108426000D03*
G04 #@! TO.P,J4,11*
G04 #@! TO.N,note-3*
X161671000Y-105886000D03*
G04 #@! TO.P,J4,12*
G04 #@! TO.N,note-2*
X161671000Y-108426000D03*
G04 #@! TO.P,J4,13*
G04 #@! TO.N,note-1*
X159131000Y-105886000D03*
G04 #@! TO.P,J4,14*
G04 #@! TO.N,SCK*
X159131000Y-108426000D03*
G04 #@! TO.P,J4,15*
G04 #@! TO.N,MISO*
X156591000Y-105886000D03*
G04 #@! TO.P,J4,16*
G04 #@! TO.N,MOSI*
X156591000Y-108426000D03*
G04 #@! TO.P,J4,17*
G04 #@! TO.N,octave-1*
X154051000Y-105886000D03*
G04 #@! TO.P,J4,18*
G04 #@! TO.N,N/C*
X154051000Y-108426000D03*
G04 #@! TO.P,J4,19*
X151511000Y-105886000D03*
G04 #@! TO.P,J4,20*
X151511000Y-108426000D03*
G04 #@! TD*
D10*
G04 #@! TO.P,REF\002A\002A,1*
G04 #@! TO.N,N/C*
X135953500Y-81232000D03*
G04 #@! TD*
G04 #@! TO.P,REF\002A\002A,1*
G04 #@! TO.N,N/C*
X135953500Y-98313500D03*
G04 #@! TD*
D14*
G04 #@! TO.P,REF\002A\002A,1*
G04 #@! TO.N,N/C*
X106553000Y-107188000D03*
G04 #@! TD*
D31*
G04 #@! TO.N,GND*
X164973000Y-80137000D03*
X170561000Y-77216000D03*
X167259000Y-75057000D03*
X101422200Y-101346000D03*
G04 #@! TO.N,Net-(C3-Pad1)*
X168021000Y-81661000D03*
G04 #@! TO.N,+5V*
X166116000Y-78232000D03*
X170561000Y-80010000D03*
X169291000Y-75184000D03*
G04 #@! TO.N,Net-(C7-Pad1)*
X166624000Y-87122000D03*
G04 #@! TO.N,MOSI*
X174371000Y-68707000D03*
G04 #@! TO.N,SCK*
X171196000Y-75184000D03*
G04 #@! TO.N,MISO*
X174371000Y-71247000D03*
G04 #@! TO.N,SDA*
X166243000Y-82169000D03*
G04 #@! TO.N,SCL*
X166801800Y-80797400D03*
G04 #@! TO.N,octave-1*
X175920400Y-72567800D03*
G04 #@! TO.N,midi-data-pin*
X164846000Y-75311000D03*
G04 #@! TO.N,button-1*
X79832200Y-109778800D03*
G04 #@! TD*
D32*
G04 #@! TO.N,Net-(C1-Pad1)*
X151244999Y-72783001D02*
X154990800Y-69037200D01*
X154990800Y-69037200D02*
X165023800Y-69037200D01*
X165023800Y-69037200D02*
X166446200Y-70459600D01*
D33*
X166467000Y-70480400D02*
X166467000Y-72369000D01*
X166446200Y-70459600D02*
X166467000Y-70480400D01*
D32*
X151244999Y-72783001D02*
X151244999Y-82155601D01*
X147701000Y-85699600D02*
X147701000Y-89001600D01*
X151244999Y-82155601D02*
X147701000Y-85699600D01*
G04 #@! TO.N,GND*
X182908172Y-58420000D02*
X176276000Y-58420000D01*
X183896000Y-58420000D02*
X182908172Y-58420000D01*
X161417000Y-79019000D02*
X163855000Y-79019000D01*
X163855000Y-79019000D02*
X164973000Y-80137000D01*
X173117000Y-78219000D02*
X171564000Y-78219000D01*
X171564000Y-78219000D02*
X170561000Y-77216000D01*
X167267000Y-72369000D02*
X167267000Y-75049000D01*
X167267000Y-75049000D02*
X167259000Y-75057000D01*
X105740200Y-97028000D02*
X107188000Y-97028000D01*
X101422200Y-101346000D02*
X105740200Y-97028000D01*
X110982810Y-84580698D02*
X110982810Y-100168188D01*
X103495588Y-107655410D02*
X91424810Y-107655410D01*
X113411000Y-83566000D02*
X111997508Y-83566000D01*
X110982810Y-100168188D02*
X103495588Y-107655410D01*
X111997508Y-83566000D02*
X110982810Y-84580698D01*
X91424810Y-107655410D02*
X88544400Y-104775000D01*
X83693000Y-104775000D02*
X81534000Y-102616000D01*
X88544400Y-104775000D02*
X83693000Y-104775000D01*
D34*
X93230765Y-104648000D02*
X91478165Y-102895400D01*
X94488000Y-104648000D02*
X93230765Y-104648000D01*
X91478165Y-102895400D02*
X86223530Y-102895400D01*
D35*
X136398000Y-69088000D02*
X136398000Y-66675000D01*
X122174000Y-83312000D02*
X136398000Y-69088000D01*
D33*
X84680529Y-101352399D02*
X86223530Y-102895400D01*
X82797601Y-101352399D02*
X84680529Y-101352399D01*
X81534000Y-102616000D02*
X82797601Y-101352399D01*
X167267000Y-85149748D02*
X167690800Y-85573548D01*
X167267000Y-84069000D02*
X167267000Y-85149748D01*
X167690800Y-85573548D02*
X167690800Y-86106000D01*
G04 #@! TO.N,Net-(C2-Pad1)*
X165667000Y-70823400D02*
X165667000Y-72369000D01*
X165328600Y-70485000D02*
X165667000Y-70823400D01*
D32*
X144756800Y-90957400D02*
X142801000Y-89001600D01*
X164680810Y-69837210D02*
X155322174Y-69837210D01*
X155322174Y-69837210D02*
X152247600Y-72911784D01*
X152247600Y-72911784D02*
X152247600Y-84378800D01*
X165328600Y-70485000D02*
X164680810Y-69837210D01*
X148971000Y-90957400D02*
X144756800Y-90957400D01*
X152247600Y-84378800D02*
X151485600Y-85140800D01*
X151485600Y-88442800D02*
X148971000Y-90957400D01*
X151485600Y-85140800D02*
X151485600Y-88442800D01*
G04 #@! TO.N,Net-(C3-Pad1)*
X168067000Y-84069000D02*
X168067000Y-81707000D01*
X168067000Y-81707000D02*
X168021000Y-81661000D01*
G04 #@! TO.N,+5V*
X163843000Y-78219000D02*
X166103000Y-78219000D01*
X166103000Y-78219000D02*
X166116000Y-78232000D01*
X161417000Y-78219000D02*
X163843000Y-78219000D01*
X173117000Y-79019000D02*
X171552000Y-79019000D01*
X171552000Y-79019000D02*
X170561000Y-80010000D01*
X168067000Y-72369000D02*
X168067000Y-73960000D01*
X168067000Y-73960000D02*
X169291000Y-75184000D01*
D36*
X93412919Y-64643000D02*
X94682919Y-65913000D01*
X81026000Y-69088000D02*
X81026000Y-66040000D01*
X81026000Y-66040000D02*
X82423000Y-64643000D01*
X83820000Y-71882000D02*
X81026000Y-69088000D01*
X82423000Y-64643000D02*
X93412919Y-64643000D01*
X95885000Y-65913000D02*
X94682919Y-65913000D01*
X111611510Y-81026000D02*
X113411000Y-81026000D01*
X108076999Y-84560511D02*
X111611510Y-81026000D01*
X108076999Y-91059001D02*
X108076999Y-84560511D01*
X107188000Y-91948000D02*
X108076999Y-91059001D01*
X99568000Y-104648000D02*
X104876600Y-104648000D01*
X104876600Y-104648000D02*
X110032800Y-99491800D01*
X110032800Y-94792800D02*
X107188000Y-91948000D01*
X110032800Y-99491800D02*
X110032800Y-94792800D01*
D35*
X98228999Y-105987001D02*
X93337801Y-105987001D01*
X99568000Y-104648000D02*
X98228999Y-105987001D01*
X84937599Y-103479599D02*
X84074000Y-102616000D01*
X90830399Y-103479599D02*
X84937599Y-103479599D01*
X93337801Y-105987001D02*
X90830399Y-103479599D01*
D32*
G04 #@! TO.N,Net-(C7-Pad1)*
X166624000Y-87122000D02*
X166467000Y-86965000D01*
D33*
X166467000Y-85269000D02*
X166497000Y-85299000D01*
X166467000Y-84069000D02*
X166467000Y-85269000D01*
D32*
X166624000Y-85426000D02*
X166624000Y-87122000D01*
X166467000Y-85269000D02*
X166624000Y-85426000D01*
D33*
G04 #@! TO.N,knob-pot-4*
X190881000Y-85979000D02*
X192151000Y-84709000D01*
X170467000Y-84069000D02*
X170467000Y-85097600D01*
D32*
X188785500Y-85979000D02*
X185814784Y-85979000D01*
X182550974Y-89242810D02*
X173850210Y-89242810D01*
X185814784Y-85979000D02*
X182550974Y-89242810D01*
X170467000Y-85859600D02*
X170467000Y-85097600D01*
X173850210Y-89242810D02*
X170467000Y-85859600D01*
D35*
X190137130Y-85979000D02*
X190881000Y-85979000D01*
X188785500Y-85979000D02*
X190137130Y-85979000D01*
D33*
G04 #@! TO.N,slide-pot-1*
X174317000Y-79819000D02*
X174330200Y-79832200D01*
X173117000Y-79819000D02*
X174317000Y-79819000D01*
D32*
X176946430Y-81454278D02*
X175231153Y-79739001D01*
X176946430Y-83509278D02*
X176946430Y-81454278D01*
X183628216Y-82448400D02*
X183616600Y-82448400D01*
X174396999Y-79739001D02*
X174317000Y-79819000D01*
X178603352Y-85166200D02*
X176946430Y-83509278D01*
X189611000Y-79629000D02*
X188389686Y-79629000D01*
X186563000Y-81457800D02*
X184618816Y-81457800D01*
X180898800Y-85166200D02*
X178603352Y-85166200D01*
X188389686Y-79629000D02*
X186941886Y-81076800D01*
X186941886Y-81078914D02*
X186563000Y-81457800D01*
X186941886Y-81076800D02*
X186941886Y-81078914D01*
X175231153Y-79739001D02*
X174396999Y-79739001D01*
X183616600Y-82448400D02*
X180898800Y-85166200D01*
X184618816Y-81457800D02*
X183628216Y-82448400D01*
D33*
G04 #@! TO.N,knob-pot-3*
X171267000Y-84069000D02*
X171267000Y-85135600D01*
D32*
X171267000Y-85135600D02*
X171267000Y-85516600D01*
X171267000Y-85516600D02*
X174193200Y-88442800D01*
X174193200Y-88442800D02*
X182219600Y-88442800D01*
X185953400Y-84709000D02*
X189611000Y-84709000D01*
X182219600Y-88442800D02*
X185953400Y-84709000D01*
D33*
G04 #@! TO.N,slide-pot-2*
X191287401Y-80492599D02*
X192151000Y-79629000D01*
X190887399Y-80892601D02*
X191287401Y-80492599D01*
X188722000Y-80962500D02*
X188791899Y-80892601D01*
D32*
X187794900Y-81889600D02*
X188791899Y-80892601D01*
X187794900Y-81889600D02*
X187782200Y-81889600D01*
X187388410Y-82283390D02*
X185966190Y-82283390D01*
X187782200Y-81889600D02*
X187388410Y-82283390D01*
X185966190Y-82283390D02*
X185953400Y-82270600D01*
X185953400Y-82270600D02*
X184937400Y-82270600D01*
X184937400Y-82270600D02*
X181229000Y-85979000D01*
X181229000Y-85979000D02*
X178284768Y-85979000D01*
X176146420Y-81785652D02*
X176146418Y-81785650D01*
X178284768Y-85979000D02*
X176146420Y-83840652D01*
X176146420Y-83840652D02*
X176146420Y-81785652D01*
X176146418Y-81785650D02*
X174954968Y-80594200D01*
X174954968Y-80594200D02*
X174574200Y-80594200D01*
D33*
X174341800Y-80594200D02*
X174574200Y-80594200D01*
X174317000Y-80619000D02*
X174341800Y-80594200D01*
X173117000Y-80619000D02*
X174317000Y-80619000D01*
D35*
X188791899Y-80892601D02*
X190887399Y-80892601D01*
D33*
G04 #@! TO.N,knob-pot-2*
X191287401Y-83032599D02*
X192151000Y-82169000D01*
X190887399Y-83432601D02*
X191287401Y-83032599D01*
X174317000Y-82219000D02*
X174546400Y-82448400D01*
X173117000Y-82219000D02*
X174317000Y-82219000D01*
D32*
X174546400Y-82448400D02*
X174546400Y-84503400D01*
X174546400Y-84503400D02*
X177647600Y-87604600D01*
X177647600Y-87604600D02*
X181914800Y-87604600D01*
X181914800Y-87604600D02*
X185623200Y-83896200D01*
X185623200Y-83896200D02*
X188137800Y-83896200D01*
X188601399Y-83432601D02*
X188918899Y-83432601D01*
X188137800Y-83896200D02*
X188601399Y-83432601D01*
D35*
X190130731Y-83432601D02*
X190887399Y-83432601D01*
X188918899Y-83432601D02*
X190130731Y-83432601D01*
D33*
G04 #@! TO.N,joystick-pot-1*
X169667000Y-84069000D02*
X169667000Y-85135800D01*
D32*
X188666050Y-87193050D02*
X188722000Y-87249000D01*
X169667000Y-86228000D02*
X173481820Y-90042820D01*
X173481820Y-90042820D02*
X182882348Y-90042820D01*
X182882348Y-90042820D02*
X185726968Y-87198200D01*
X169667000Y-85135800D02*
X169667000Y-86228000D01*
X188660900Y-87198200D02*
X188666050Y-87193050D01*
X185726968Y-87198200D02*
X188660900Y-87198200D01*
X188722000Y-87249000D02*
X189611000Y-87249000D01*
X82397599Y-86335199D02*
X83668198Y-85064600D01*
X81534000Y-87376000D02*
X82397599Y-86512401D01*
X82397599Y-86512401D02*
X82397599Y-86335199D01*
X89919878Y-85064600D02*
X91316878Y-86461600D01*
X83668198Y-85064600D02*
X89919878Y-85064600D01*
X91316878Y-86461600D02*
X91316878Y-92123894D01*
X93680984Y-94488000D02*
X107188000Y-94488000D01*
X91316878Y-92123894D02*
X93680984Y-94488000D01*
D33*
G04 #@! TO.N,knob-pot-1*
X174317000Y-81419000D02*
X174330400Y-81432400D01*
X173117000Y-81419000D02*
X174317000Y-81419000D01*
D32*
X188646884Y-82169000D02*
X189611000Y-82169000D01*
X185267600Y-83083400D02*
X187732484Y-83083400D01*
X187732484Y-83083400D02*
X188646884Y-82169000D01*
X174317000Y-81419000D02*
X174648384Y-81419000D01*
X174648384Y-81419000D02*
X175346410Y-82117026D01*
X175346410Y-84172026D02*
X177966184Y-86791800D01*
X175346410Y-82117026D02*
X175346410Y-84172026D01*
X177966184Y-86791800D02*
X181559200Y-86791800D01*
X181559200Y-86791800D02*
X185267600Y-83083400D01*
G04 #@! TO.N,joystick-pot-2*
X191863600Y-88900000D02*
X192151000Y-88612600D01*
X192151000Y-88612600D02*
X192151000Y-87249000D01*
X185156552Y-88900000D02*
X183213722Y-90842830D01*
X191863600Y-88900000D02*
X185156552Y-88900000D01*
X183213722Y-90842830D02*
X173113430Y-90842830D01*
X173113430Y-90842830D02*
X168859200Y-86588600D01*
X168859200Y-86588600D02*
X168859200Y-85293200D01*
D33*
X168859200Y-84988400D02*
X168867000Y-84980600D01*
X168867000Y-84980600D02*
X168867000Y-84069000D01*
X168859200Y-85293200D02*
X168859200Y-84988400D01*
D32*
X85437600Y-87376000D02*
X84074000Y-87376000D01*
X96139001Y-98077401D02*
X85437600Y-87376000D01*
X96139001Y-103759001D02*
X96139001Y-98077401D01*
X97028000Y-104648000D02*
X96139001Y-103759001D01*
G04 #@! TO.N,MOSI*
X168402000Y-65864114D02*
X168402000Y-65151000D01*
X169085886Y-66548000D02*
X168402000Y-65864114D01*
X171267000Y-72369000D02*
X171267000Y-68729113D01*
X171267000Y-68729113D02*
X169085886Y-66548000D01*
X174348887Y-68729113D02*
X174371000Y-68707000D01*
X171267000Y-68729113D02*
X174348887Y-68729113D01*
D35*
X168402000Y-65151000D02*
X168166130Y-65151000D01*
X166952529Y-63937399D02*
X157525201Y-63937399D01*
X168166130Y-65151000D02*
X166952529Y-63937399D01*
X157525201Y-63937399D02*
X157124400Y-64338200D01*
X157022800Y-64338200D02*
X156210000Y-65151000D01*
X157124400Y-64338200D02*
X157022800Y-64338200D01*
D32*
G04 #@! TO.N,RST*
X159385000Y-67056000D02*
X155321000Y-67056000D01*
X154178000Y-61976000D02*
X155829000Y-60325000D01*
X155321000Y-67056000D02*
X154178000Y-65913000D01*
X155829000Y-60325000D02*
X173101000Y-60325000D01*
X154178000Y-65913000D02*
X154178000Y-61976000D01*
X173101000Y-60325000D02*
X176276000Y-63500000D01*
D36*
X161290000Y-65151000D02*
X160337500Y-66103500D01*
D32*
X160337500Y-66103500D02*
X159385000Y-67056000D01*
D36*
X162153599Y-66014599D02*
X162306000Y-66167000D01*
X161290000Y-65151000D02*
X162153599Y-66014599D01*
D32*
X163830000Y-67691000D02*
X162306000Y-66167000D01*
X165238616Y-67691000D02*
X163830000Y-67691000D01*
X168218216Y-70670600D02*
X165238616Y-67691000D01*
D33*
X168847001Y-71299385D02*
X168218216Y-70670600D01*
X168847001Y-71641201D02*
X168847001Y-71299385D01*
X168867000Y-71661200D02*
X168847001Y-71641201D01*
X168867000Y-72369000D02*
X168867000Y-71661200D01*
D32*
G04 #@! TO.N,SCK*
X169667000Y-72369000D02*
X169667000Y-71242000D01*
X169667000Y-71242000D02*
X169672000Y-71237000D01*
X169667000Y-73655000D02*
X171196000Y-75184000D01*
X169667000Y-72369000D02*
X169667000Y-73655000D01*
X165608000Y-66929000D02*
X163830000Y-65151000D01*
X169667000Y-71242000D02*
X169667000Y-70988000D01*
X169667000Y-70988000D02*
X165608000Y-66929000D01*
G04 #@! TO.N,MISO*
X170467000Y-72369000D02*
X170467000Y-73459002D01*
X166803076Y-65584076D02*
X166370000Y-65151000D01*
D33*
X170467000Y-72369000D02*
X170467000Y-71102200D01*
D32*
X170467000Y-71102200D02*
X170467000Y-70645000D01*
X166370000Y-66548000D02*
X166370000Y-65151000D01*
X170467000Y-70645000D02*
X166370000Y-66548000D01*
D35*
X173771001Y-71846999D02*
X174371000Y-71247000D01*
X172008800Y-73609200D02*
X173771001Y-71846999D01*
X170617198Y-73609200D02*
X172008800Y-73609200D01*
X170467000Y-73459002D02*
X170617198Y-73609200D01*
D32*
G04 #@! TO.N,SDA*
X161417000Y-80619000D02*
X162911036Y-80619000D01*
X164461036Y-82169000D02*
X166243000Y-82169000D01*
X162911036Y-80619000D02*
X164461036Y-82169000D01*
G04 #@! TO.N,SCL*
X164468999Y-81187001D02*
X165477001Y-81187001D01*
X163100998Y-79819000D02*
X164468999Y-81187001D01*
X161417000Y-79819000D02*
X163100998Y-79819000D01*
D33*
X165953272Y-80797400D02*
X165563671Y-81187001D01*
X165563671Y-81187001D02*
X165477001Y-81187001D01*
X166801800Y-80797400D02*
X165953272Y-80797400D01*
D32*
G04 #@! TO.N,note-13*
X174371000Y-103759000D02*
X174371000Y-103886000D01*
X174371000Y-103759000D02*
X174371000Y-105886000D01*
D33*
X165667000Y-84069000D02*
X165667000Y-85530000D01*
D32*
X174371000Y-103505000D02*
X174371000Y-105886000D01*
X162306000Y-91440000D02*
X174371000Y-103505000D01*
X165667000Y-85530000D02*
X165667000Y-86376998D01*
X162306000Y-89737998D02*
X162306000Y-91440000D01*
X165667000Y-86376998D02*
X162306000Y-89737998D01*
D33*
G04 #@! TO.N,note-12*
X172974000Y-104838500D02*
X172974000Y-105158870D01*
X172974000Y-105158870D02*
X173107399Y-105292269D01*
X173107399Y-107162399D02*
X173507401Y-107562401D01*
X173507401Y-107562401D02*
X174371000Y-108426000D01*
D32*
X172974000Y-103351962D02*
X172974000Y-104838500D01*
X172974000Y-103351962D02*
X172974000Y-103251000D01*
X172974000Y-103251000D02*
X161417000Y-91694000D01*
X161417000Y-91694000D02*
X161417000Y-89495614D01*
X161417000Y-89495614D02*
X164866990Y-86045624D01*
X164866990Y-86045624D02*
X164866990Y-85339012D01*
D33*
X164867000Y-84856980D02*
X164867000Y-84069000D01*
X164866990Y-84856990D02*
X164867000Y-84856980D01*
X164866990Y-85339012D02*
X164866990Y-84856990D01*
D35*
X173157399Y-105342269D02*
X173157399Y-107112399D01*
X173157399Y-107112399D02*
X173107399Y-107162399D01*
X172974000Y-105158870D02*
X173157399Y-105342269D01*
D32*
G04 #@! TO.N,note-11*
X171831000Y-105886000D02*
X171831000Y-104664686D01*
X171831000Y-104664686D02*
X171831000Y-103251000D01*
X160616990Y-92036990D02*
X160616990Y-89065010D01*
X171831000Y-103251000D02*
X160616990Y-92036990D01*
X160616990Y-89065010D02*
X164066980Y-85615020D01*
D33*
X164066980Y-85615020D02*
X164066980Y-85199980D01*
X164067000Y-85199960D02*
X164067000Y-84069000D01*
X164066980Y-85199980D02*
X164067000Y-85199960D01*
D35*
G04 #@! TO.N,note-10*
X171831000Y-108426000D02*
X170617399Y-107212399D01*
D32*
X170617399Y-105136199D02*
X170617399Y-103180399D01*
X170617399Y-103180399D02*
X159816800Y-92379800D01*
X159816800Y-88733816D02*
X161010600Y-87540016D01*
X159816800Y-92379800D02*
X159816800Y-88733816D01*
X161010600Y-87540016D02*
X161010600Y-87528400D01*
X161010600Y-87528400D02*
X163245800Y-85293200D01*
D33*
X163267000Y-85272000D02*
X163267000Y-84069000D01*
X163245800Y-85293200D02*
X163267000Y-85272000D01*
D35*
X170617399Y-105136199D02*
X170617399Y-107212399D01*
D32*
G04 #@! TO.N,note-9*
X169291000Y-105886000D02*
X169291000Y-102997000D01*
X169291000Y-102997000D02*
X159004000Y-92710000D01*
X159004000Y-88415232D02*
X160274000Y-87145232D01*
X159004000Y-92710000D02*
X159004000Y-88415232D01*
X160274000Y-87145232D02*
X160274000Y-87122000D01*
X161417000Y-85979000D02*
X161417000Y-82249001D01*
X160274000Y-87122000D02*
X161417000Y-85979000D01*
D33*
G04 #@! TO.N,note-8*
X168021000Y-107156000D02*
X169291000Y-108426000D01*
X168021000Y-105283000D02*
X168021000Y-104673400D01*
D32*
X168021000Y-104673400D02*
X168021000Y-102870000D01*
X168021000Y-102870000D02*
X165176200Y-100025200D01*
X165176200Y-100025200D02*
X158191200Y-93040200D01*
X158191200Y-88096648D02*
X159004000Y-87283848D01*
X158191200Y-93040200D02*
X158191200Y-88096648D01*
X159004000Y-87283848D02*
X159004000Y-87260616D01*
X159004000Y-87260616D02*
X159512000Y-86752616D01*
X159512000Y-86752616D02*
X159512000Y-81889600D01*
X159512000Y-81889600D02*
X159969200Y-81432400D01*
D33*
X159982600Y-81419000D02*
X161417000Y-81419000D01*
X159969200Y-81432400D02*
X159982600Y-81419000D01*
D35*
X168021000Y-105283000D02*
X168021000Y-107156000D01*
D33*
G04 #@! TO.N,note-7*
X159944000Y-77419000D02*
X161417000Y-77419000D01*
X159943800Y-77419200D02*
X159944000Y-77419000D01*
D32*
X159512000Y-77851000D02*
X159943800Y-77419200D01*
X158699200Y-78663800D02*
X159512000Y-77851000D01*
X158699200Y-86410800D02*
X158699200Y-78663800D01*
X158203990Y-86906010D02*
X158699200Y-86410800D01*
X166751000Y-102731384D02*
X166739384Y-102731384D01*
X166739384Y-102731384D02*
X157378400Y-93370400D01*
X166751000Y-105886000D02*
X166751000Y-102731384D01*
X157378400Y-87778064D02*
X158203990Y-86952474D01*
X157378400Y-93370400D02*
X157378400Y-87778064D01*
X158203990Y-86952474D02*
X158203990Y-86906010D01*
D34*
G04 #@! TO.N,note-6*
X165887401Y-107562401D02*
X166751000Y-108426000D01*
X165481000Y-105029000D02*
X165417500Y-105092500D01*
D33*
X165481000Y-107156000D02*
X166751000Y-108426000D01*
X159612616Y-76619000D02*
X161417000Y-76619000D01*
D32*
X156565600Y-87459480D02*
X157403980Y-86621100D01*
X156565600Y-93700600D02*
X156565600Y-87459480D01*
X162534600Y-99669600D02*
X156565600Y-93700600D01*
X162534600Y-99695000D02*
X162534600Y-99669600D01*
X157403980Y-86563020D02*
X157886400Y-86080600D01*
X165481000Y-105029000D02*
X165481000Y-102641400D01*
X157886400Y-86080600D02*
X157886400Y-78345216D01*
X165481000Y-102641400D02*
X162534600Y-99695000D01*
X157403980Y-86621100D02*
X157403980Y-86563020D01*
X157886400Y-78345216D02*
X158699200Y-77532416D01*
X158699200Y-77532416D02*
X159599816Y-76631800D01*
D33*
X159599816Y-76631800D02*
X159612616Y-76619000D01*
D35*
X165481000Y-105029000D02*
X165481000Y-107156000D01*
D32*
G04 #@! TO.N,note-5*
X164211000Y-105886000D02*
X164211000Y-102539800D01*
X164211000Y-102502784D02*
X161442400Y-99734184D01*
X164211000Y-102539800D02*
X164211000Y-102502784D01*
X161442400Y-99734184D02*
X161442400Y-99720400D01*
X161442400Y-99720400D02*
X160502600Y-98780600D01*
X160502600Y-98780600D02*
X155752800Y-94030800D01*
X155752800Y-94030800D02*
X155752800Y-87082816D01*
X155752800Y-87082816D02*
X157086390Y-85749226D01*
X157086390Y-85749226D02*
X157073600Y-85736436D01*
X157073600Y-85736436D02*
X157073600Y-83312000D01*
X157073600Y-78026632D02*
X159281232Y-75819000D01*
X157073600Y-83312000D02*
X157073600Y-78026632D01*
X159281232Y-75819000D02*
X160045400Y-75819000D01*
D33*
X160045400Y-75819000D02*
X161417000Y-75819000D01*
G04 #@! TO.N,note-4*
X162941000Y-107156000D02*
X164211000Y-108426000D01*
D32*
X162941000Y-103378000D02*
X162941000Y-105092500D01*
X162941000Y-103378000D02*
X162941000Y-102387400D01*
X162941000Y-102387400D02*
X161696400Y-101142800D01*
X161696400Y-101142800D02*
X154940000Y-94386400D01*
X154940000Y-94386400D02*
X154940000Y-86764232D01*
X155857948Y-85846284D02*
X155857948Y-85823052D01*
X154940000Y-86764232D02*
X155857948Y-85846284D01*
X155857948Y-85823052D02*
X156260800Y-85420200D01*
X156260800Y-77708048D02*
X158902400Y-75066448D01*
X156260800Y-85420200D02*
X156260800Y-77708048D01*
X158994552Y-75066448D02*
X159054800Y-75006200D01*
X158902400Y-75066448D02*
X158994552Y-75066448D01*
X159054800Y-75006200D02*
X159943800Y-75006200D01*
D33*
X159956600Y-75019000D02*
X161417000Y-75019000D01*
X159943800Y-75006200D02*
X159956600Y-75019000D01*
D35*
X162941000Y-105092500D02*
X162941000Y-107156000D01*
D32*
G04 #@! TO.N,note-3*
X161671000Y-105886000D02*
X161671000Y-104664686D01*
X161671000Y-104664686D02*
X161671000Y-102285800D01*
X161671000Y-102285800D02*
X154127200Y-94742000D01*
X155057938Y-85514910D02*
X155057938Y-85480062D01*
X154127200Y-94742000D02*
X154127200Y-86445648D01*
X154127200Y-86445648D02*
X155057938Y-85514910D01*
X155057938Y-85480062D02*
X155448000Y-85090000D01*
X155448000Y-85090000D02*
X155448000Y-77389464D01*
X155448000Y-77389464D02*
X155448000Y-77343000D01*
X158584810Y-74206190D02*
X159981810Y-74206190D01*
X155448000Y-77343000D02*
X158584810Y-74206190D01*
D33*
X159994620Y-74219000D02*
X161417000Y-74219000D01*
X159981810Y-74206190D02*
X159994620Y-74219000D01*
D34*
G04 #@! TO.N,note-2*
X157734000Y-104711500D02*
X157754601Y-104732101D01*
D33*
X157854601Y-104832101D02*
X157754601Y-104732101D01*
X158524471Y-107149601D02*
X157854601Y-106479731D01*
X160394601Y-107149601D02*
X158524471Y-107149601D01*
X161671000Y-108426000D02*
X160394601Y-107149601D01*
D32*
X157854601Y-104832101D02*
X157854601Y-100806201D01*
X157854601Y-100806201D02*
X152501600Y-95453200D01*
X153457918Y-84852162D02*
X153457918Y-84794082D01*
X152501600Y-95453200D02*
X152501600Y-85808480D01*
X152501600Y-85808480D02*
X153457918Y-84852162D01*
X153457918Y-84794082D02*
X153822400Y-84429600D01*
X156400590Y-74127642D02*
X156400590Y-74104410D01*
X153822400Y-84429600D02*
X153822400Y-76705832D01*
X153822400Y-76705832D02*
X156400590Y-74127642D01*
X163224590Y-72326590D02*
X163236999Y-72338999D01*
X158178410Y-72326590D02*
X163224590Y-72326590D01*
X156400590Y-74104410D02*
X158178410Y-72326590D01*
D35*
X157854601Y-104832101D02*
X157854601Y-106479731D01*
D32*
G04 #@! TO.N,note-1*
X164867000Y-72369000D02*
X164867000Y-73669000D01*
X163129002Y-74041000D02*
X162577001Y-73488999D01*
X163366990Y-74041000D02*
X163129002Y-74041000D01*
X164341999Y-76361001D02*
X163366990Y-75385992D01*
X165350001Y-76361001D02*
X164341999Y-76361001D01*
X163366990Y-75385992D02*
X163366990Y-74041000D01*
X165896001Y-75815001D02*
X165350001Y-76361001D01*
X165896001Y-74698001D02*
X165896001Y-75815001D01*
X164867000Y-73669000D02*
X165896001Y-74698001D01*
X159131000Y-105886000D02*
X159131000Y-104664686D01*
X159131000Y-104664686D02*
X159131000Y-100914200D01*
X159131000Y-100914200D02*
X153314400Y-95097600D01*
X154257928Y-85183536D02*
X154257928Y-85137072D01*
X153314400Y-95097600D02*
X153314400Y-86127064D01*
X153314400Y-86127064D02*
X154257928Y-85183536D01*
X154257928Y-85137072D02*
X154635200Y-84759800D01*
X154635200Y-77024416D02*
X157200600Y-74459016D01*
X154635200Y-84759800D02*
X154635200Y-77024416D01*
X157200600Y-74459016D02*
X157200600Y-74447400D01*
X157200600Y-74447400D02*
X158521400Y-73126600D01*
X158521400Y-73126600D02*
X162204400Y-73126600D01*
D33*
X162566799Y-73488999D02*
X162204400Y-73126600D01*
X162577001Y-73488999D02*
X162566799Y-73488999D01*
D32*
G04 #@! TO.N,octave-1*
X173117000Y-74219000D02*
X175336000Y-74219000D01*
D33*
X175336000Y-74219000D02*
X175336000Y-73152200D01*
X175336000Y-73152200D02*
X175920400Y-72567800D01*
D32*
G04 #@! TO.N,midi-data-pin*
X164067000Y-72369000D02*
X164067000Y-74532000D01*
X164067000Y-74532000D02*
X164846000Y-75311000D01*
D33*
G04 #@! TO.N,button-1*
X190881000Y-75819000D02*
X192151000Y-74549000D01*
X174317000Y-77419000D02*
X174342200Y-77393800D01*
X173117000Y-77419000D02*
X174317000Y-77419000D01*
D32*
X188188510Y-75349010D02*
X188658500Y-75819000D01*
X178871300Y-75349010D02*
X188188510Y-75349010D01*
X174317000Y-77419000D02*
X176801310Y-77419000D01*
X176801310Y-77419000D02*
X178871300Y-75349010D01*
D34*
X83210401Y-99212401D02*
X84074000Y-100076000D01*
X82810399Y-98812399D02*
X83210401Y-99212401D01*
X78714600Y-101025270D02*
X80927471Y-98812399D01*
X78714600Y-105257600D02*
X78714600Y-101025270D01*
D35*
X190137130Y-75819000D02*
X190881000Y-75819000D01*
X188658500Y-75819000D02*
X190137130Y-75819000D01*
D33*
X82810399Y-98812399D02*
X80892601Y-98812399D01*
X84074000Y-100076000D02*
X82810399Y-98812399D01*
X78714600Y-100990400D02*
X78714600Y-105257600D01*
X80892601Y-98812399D02*
X78714600Y-100990400D01*
X78714600Y-108661200D02*
X79832200Y-109778800D01*
X78714600Y-105257600D02*
X78714600Y-108661200D01*
D35*
G04 #@! TO.N,Net-(J6-Pad2)*
X122174000Y-90745919D02*
X120167400Y-88739319D01*
X122174000Y-91948000D02*
X122174000Y-90745919D01*
X120167400Y-70607400D02*
X118522000Y-68962000D01*
X120167400Y-88739319D02*
X120167400Y-70607400D01*
D36*
G04 #@! TO.N,VCC*
X115982000Y-68962000D02*
X99824000Y-68962000D01*
X99824000Y-68962000D02*
X98425000Y-67563000D01*
X98425000Y-65913000D02*
X98425000Y-67563000D01*
D35*
G04 #@! TO.N,Net-(J6-Pad3)*
X122174000Y-94488000D02*
X119557800Y-91871800D01*
X119557800Y-91871800D02*
X119557800Y-72745600D01*
X117192001Y-70379801D02*
X117192001Y-68291999D01*
X117762001Y-67721999D02*
X118522000Y-66962000D01*
X117192001Y-68291999D02*
X117762001Y-67721999D01*
X119557800Y-72745600D02*
X117192001Y-70379801D01*
G04 #@! TO.N,midi-raw-signal-power*
X125628400Y-83547600D02*
X125628400Y-80706142D01*
X122174000Y-85852000D02*
X123324000Y-85852000D01*
X123324000Y-85852000D02*
X125628400Y-83547600D01*
X125628400Y-80706142D02*
X132166542Y-74168000D01*
X132166542Y-74168000D02*
X137134600Y-74168000D01*
X138938000Y-72364600D02*
X138938000Y-69215000D01*
X137134600Y-74168000D02*
X138938000Y-72364600D01*
D32*
G04 #@! TO.N,midi-raw-signal-data*
X133731000Y-69215000D02*
X133858000Y-69215000D01*
X122174000Y-80772000D02*
X133731000Y-69215000D01*
G04 #@! TO.N,button-2*
X178539926Y-74549000D02*
X185393962Y-74549000D01*
X185393962Y-74549000D02*
X189611000Y-74549000D01*
X173117000Y-76619000D02*
X174417000Y-76619000D01*
X174417000Y-76619000D02*
X174440501Y-76595499D01*
X174440501Y-76595499D02*
X176493427Y-76595499D01*
X176493427Y-76595499D02*
X178539926Y-74549000D01*
X80120399Y-103294529D02*
X86020470Y-109194600D01*
X81534000Y-100076000D02*
X80120399Y-101489601D01*
X80120399Y-101489601D02*
X80120399Y-103294529D01*
X86020470Y-109194600D02*
X112191800Y-109194600D01*
X112420400Y-108966000D02*
X113411000Y-108966000D01*
X112191800Y-109194600D02*
X112420400Y-108966000D01*
G04 #@! TO.N,button-3*
X194132519Y-75107481D02*
X192151000Y-77089000D01*
X173117000Y-75819000D02*
X176279964Y-75819000D01*
X192877048Y-70677010D02*
X194132519Y-71932481D01*
X176279964Y-75819000D02*
X181421954Y-70677010D01*
X194132519Y-71932481D02*
X194132519Y-75107481D01*
X181421954Y-70677010D02*
X192877048Y-70677010D01*
D33*
G04 #@! TO.N,button-4*
X189611000Y-77089000D02*
X190881000Y-78359000D01*
X173117000Y-75019000D02*
X174434400Y-75019000D01*
D32*
X174434400Y-75019000D02*
X175907600Y-75019000D01*
X175907600Y-75019000D02*
X181051200Y-69875400D01*
X192973130Y-78359000D02*
X192786000Y-78359000D01*
X194932529Y-76399601D02*
X192973130Y-78359000D01*
X194932529Y-71601107D02*
X194932529Y-76399601D01*
X193206822Y-69875400D02*
X194932529Y-71601107D01*
X181051200Y-69875400D02*
X193206822Y-69875400D01*
G04 #@! TD*
D37*
G04 #@! TO.N,GND*
G36*
X196902000Y-111304000D02*
X118440200Y-111304000D01*
X118440200Y-107209875D01*
X120744000Y-107209875D01*
X120744000Y-108334525D01*
X121174385Y-109373567D01*
X121969633Y-110168815D01*
X123008675Y-110599200D01*
X124133325Y-110599200D01*
X125172367Y-110168815D01*
X125967615Y-109373567D01*
X126398000Y-108334525D01*
X126398000Y-107209875D01*
X125967615Y-106170833D01*
X125172367Y-105375585D01*
X124133325Y-104945200D01*
X123008675Y-104945200D01*
X121969633Y-105375585D01*
X121174385Y-106170833D01*
X120744000Y-107209875D01*
X118440200Y-107209875D01*
X118440200Y-98718000D01*
X120480799Y-98718000D01*
X120480799Y-100418000D01*
X120544984Y-100740679D01*
X120727767Y-101014233D01*
X121001321Y-101197016D01*
X121324000Y-101261201D01*
X123024000Y-101261201D01*
X123346679Y-101197016D01*
X123620233Y-101014233D01*
X123803016Y-100740679D01*
X123867201Y-100418000D01*
X123867201Y-98718000D01*
X123803016Y-98395321D01*
X123620233Y-98121767D01*
X123486179Y-98032195D01*
X123601481Y-97908145D01*
X123604705Y-97900359D01*
X133876500Y-97900359D01*
X133876500Y-98726641D01*
X134192704Y-99490026D01*
X134776974Y-100074296D01*
X135540359Y-100390500D01*
X136366641Y-100390500D01*
X137130026Y-100074296D01*
X137714296Y-99490026D01*
X138030500Y-98726641D01*
X138030500Y-97900359D01*
X137714296Y-97136974D01*
X137130026Y-96552704D01*
X136366641Y-96236500D01*
X135540359Y-96236500D01*
X134776974Y-96552704D01*
X134192704Y-97136974D01*
X133876500Y-97900359D01*
X123604705Y-97900359D01*
X123805729Y-97415024D01*
X123638755Y-97155000D01*
X122301000Y-97155000D01*
X122301000Y-97175000D01*
X122047000Y-97175000D01*
X122047000Y-97155000D01*
X120709245Y-97155000D01*
X120542271Y-97415024D01*
X120746519Y-97908145D01*
X120861821Y-98032195D01*
X120727767Y-98121767D01*
X120544984Y-98395321D01*
X120480799Y-98718000D01*
X118440200Y-98718000D01*
X118440200Y-77089000D01*
X118430533Y-77040399D01*
X118403003Y-76999197D01*
X118361801Y-76971667D01*
X118313200Y-76962000D01*
X77926000Y-76962000D01*
X77926000Y-74809024D01*
X82188271Y-74809024D01*
X82392519Y-75302145D01*
X82837996Y-75781421D01*
X83432975Y-76053738D01*
X83693000Y-75887443D01*
X83693000Y-74549000D01*
X83947000Y-74549000D01*
X83947000Y-75887443D01*
X84207025Y-76053738D01*
X84802004Y-75781421D01*
X85247481Y-75302145D01*
X85451729Y-74809024D01*
X85284755Y-74549000D01*
X83947000Y-74549000D01*
X83693000Y-74549000D01*
X82355245Y-74549000D01*
X82188271Y-74809024D01*
X77926000Y-74809024D01*
X77926000Y-66040000D01*
X79970724Y-66040000D01*
X79991001Y-66141939D01*
X79991000Y-68986065D01*
X79970724Y-69088000D01*
X79991000Y-69189934D01*
X80051052Y-69491836D01*
X80279807Y-69834193D01*
X80366227Y-69891937D01*
X82314267Y-71839977D01*
X82305908Y-71882000D01*
X82421161Y-72461418D01*
X82749375Y-72952625D01*
X82883063Y-73041952D01*
X82837996Y-73062579D01*
X82392519Y-73541855D01*
X82188271Y-74034976D01*
X82355245Y-74295000D01*
X83693000Y-74295000D01*
X83693000Y-74275000D01*
X83947000Y-74275000D01*
X83947000Y-74295000D01*
X85284755Y-74295000D01*
X85451729Y-74034976D01*
X85247481Y-73541855D01*
X84802004Y-73062579D01*
X84756937Y-73041952D01*
X84890625Y-72952625D01*
X85218839Y-72461418D01*
X85334092Y-71882000D01*
X85218839Y-71302582D01*
X84890625Y-70811375D01*
X84592239Y-70612000D01*
X84890625Y-70412625D01*
X85218839Y-69921418D01*
X85334092Y-69342000D01*
X85218839Y-68762582D01*
X84890625Y-68271375D01*
X84872381Y-68259184D01*
X84917765Y-68250157D01*
X85127809Y-68109809D01*
X85268157Y-67899765D01*
X85317440Y-67652000D01*
X85317440Y-65952000D01*
X85268157Y-65704235D01*
X85250627Y-65678000D01*
X92984209Y-65678000D01*
X93878984Y-66572776D01*
X93936726Y-66659193D01*
X94221828Y-66849692D01*
X94279082Y-66887948D01*
X94556386Y-66943107D01*
X94675951Y-67122049D01*
X95230667Y-67492699D01*
X95719832Y-67590000D01*
X96050168Y-67590000D01*
X96539333Y-67492699D01*
X96904785Y-67248511D01*
X96978767Y-67359233D01*
X97252321Y-67542016D01*
X97370215Y-67565467D01*
X97450052Y-67966836D01*
X97496473Y-68036310D01*
X97678808Y-68309193D01*
X97765225Y-68366935D01*
X99020065Y-69621776D01*
X99077807Y-69708193D01*
X99420163Y-69936948D01*
X99684793Y-69989586D01*
X99824000Y-70017276D01*
X99925934Y-69997000D01*
X115044172Y-69997000D01*
X115191796Y-70144624D01*
X115704517Y-70357000D01*
X116259483Y-70357000D01*
X116407001Y-70295896D01*
X116407001Y-70302489D01*
X116391623Y-70379801D01*
X116407001Y-70457113D01*
X116407001Y-70457116D01*
X116452547Y-70686092D01*
X116574030Y-70867903D01*
X116626048Y-70945754D01*
X116691593Y-70989550D01*
X118772801Y-73070759D01*
X118772800Y-91794488D01*
X118757422Y-91871800D01*
X118772800Y-91949112D01*
X118772800Y-91949115D01*
X118810344Y-92137863D01*
X118818346Y-92178091D01*
X118928093Y-92342338D01*
X118991847Y-92437753D01*
X119057392Y-92481549D01*
X120563642Y-93987799D01*
X120464146Y-94488000D01*
X120594301Y-95142333D01*
X120964951Y-95697049D01*
X121088687Y-95779727D01*
X120746519Y-96147855D01*
X120542271Y-96640976D01*
X120709245Y-96901000D01*
X122047000Y-96901000D01*
X122047000Y-96881000D01*
X122301000Y-96881000D01*
X122301000Y-96901000D01*
X123638755Y-96901000D01*
X123805729Y-96640976D01*
X123601481Y-96147855D01*
X123259313Y-95779727D01*
X123383049Y-95697049D01*
X123753699Y-95142333D01*
X123883854Y-94488000D01*
X123753699Y-93833667D01*
X123383049Y-93278951D01*
X123291830Y-93218000D01*
X123383049Y-93157049D01*
X123753699Y-92602333D01*
X123883854Y-91948000D01*
X123753699Y-91293667D01*
X123383049Y-90738951D01*
X122896011Y-90413522D01*
X122783749Y-90245510D01*
X122783747Y-90245508D01*
X122739953Y-90179966D01*
X122674411Y-90136172D01*
X121226154Y-88687915D01*
X141224000Y-88687915D01*
X141224000Y-89315285D01*
X141464084Y-89894899D01*
X141907701Y-90338516D01*
X142487315Y-90578600D01*
X143114685Y-90578600D01*
X143122984Y-90575162D01*
X144069377Y-91521556D01*
X144118751Y-91595449D01*
X144192644Y-91644823D01*
X144192645Y-91644824D01*
X144392832Y-91778585D01*
X144411490Y-91791052D01*
X144669635Y-91842400D01*
X144669639Y-91842400D01*
X144756800Y-91859737D01*
X144843961Y-91842400D01*
X148883839Y-91842400D01*
X148971000Y-91859737D01*
X149058161Y-91842400D01*
X149058165Y-91842400D01*
X149316310Y-91791052D01*
X149609049Y-91595449D01*
X149658425Y-91521553D01*
X151616601Y-89563378D01*
X151616600Y-95366039D01*
X151599263Y-95453200D01*
X151616600Y-95540361D01*
X151616600Y-95540364D01*
X151667948Y-95798509D01*
X151863551Y-96091249D01*
X151937447Y-96140625D01*
X156969602Y-101172781D01*
X156969601Y-104403978D01*
X156968049Y-104406301D01*
X156962933Y-104432023D01*
X156738598Y-104387400D01*
X156443402Y-104387400D01*
X156006275Y-104474350D01*
X155510570Y-104805570D01*
X155321000Y-105089281D01*
X155131430Y-104805570D01*
X154635725Y-104474350D01*
X154198598Y-104387400D01*
X153903402Y-104387400D01*
X153466275Y-104474350D01*
X152970570Y-104805570D01*
X152781000Y-105089281D01*
X152591430Y-104805570D01*
X152095725Y-104474350D01*
X151658598Y-104387400D01*
X151363402Y-104387400D01*
X150926275Y-104474350D01*
X150430570Y-104805570D01*
X150099350Y-105301275D01*
X149983041Y-105886000D01*
X150099350Y-106470725D01*
X150430570Y-106966430D01*
X150714281Y-107156000D01*
X150430570Y-107345570D01*
X150099350Y-107841275D01*
X149983041Y-108426000D01*
X150099350Y-109010725D01*
X150430570Y-109506430D01*
X150926275Y-109837650D01*
X151363402Y-109924600D01*
X151658598Y-109924600D01*
X152095725Y-109837650D01*
X152591430Y-109506430D01*
X152781000Y-109222719D01*
X152970570Y-109506430D01*
X153466275Y-109837650D01*
X153903402Y-109924600D01*
X154198598Y-109924600D01*
X154635725Y-109837650D01*
X155131430Y-109506430D01*
X155321000Y-109222719D01*
X155510570Y-109506430D01*
X156006275Y-109837650D01*
X156443402Y-109924600D01*
X156738598Y-109924600D01*
X157175725Y-109837650D01*
X157671430Y-109506430D01*
X157861000Y-109222719D01*
X158050570Y-109506430D01*
X158546275Y-109837650D01*
X158983402Y-109924600D01*
X159278598Y-109924600D01*
X159715725Y-109837650D01*
X160211430Y-109506430D01*
X160401000Y-109222719D01*
X160590570Y-109506430D01*
X161086275Y-109837650D01*
X161523402Y-109924600D01*
X161818598Y-109924600D01*
X162255725Y-109837650D01*
X162751430Y-109506430D01*
X162941000Y-109222719D01*
X163130570Y-109506430D01*
X163626275Y-109837650D01*
X164063402Y-109924600D01*
X164358598Y-109924600D01*
X164795725Y-109837650D01*
X165291430Y-109506430D01*
X165481000Y-109222719D01*
X165670570Y-109506430D01*
X166166275Y-109837650D01*
X166603402Y-109924600D01*
X166898598Y-109924600D01*
X167335725Y-109837650D01*
X167831430Y-109506430D01*
X168021000Y-109222719D01*
X168210570Y-109506430D01*
X168706275Y-109837650D01*
X169143402Y-109924600D01*
X169438598Y-109924600D01*
X169875725Y-109837650D01*
X170371430Y-109506430D01*
X170561000Y-109222719D01*
X170750570Y-109506430D01*
X171246275Y-109837650D01*
X171683402Y-109924600D01*
X171978598Y-109924600D01*
X172415725Y-109837650D01*
X172911430Y-109506430D01*
X173101000Y-109222719D01*
X173290570Y-109506430D01*
X173786275Y-109837650D01*
X174223402Y-109924600D01*
X174518598Y-109924600D01*
X174955725Y-109837650D01*
X175451430Y-109506430D01*
X175782650Y-109010725D01*
X175898959Y-108426000D01*
X175782650Y-107841275D01*
X175456349Y-107352932D01*
X175482365Y-107347757D01*
X175692409Y-107207409D01*
X175826536Y-107006675D01*
X190340000Y-107006675D01*
X190340000Y-108131325D01*
X190770385Y-109170367D01*
X191565633Y-109965615D01*
X192604675Y-110396000D01*
X193729325Y-110396000D01*
X194768367Y-109965615D01*
X195563615Y-109170367D01*
X195994000Y-108131325D01*
X195994000Y-107006675D01*
X195563615Y-105967633D01*
X194768367Y-105172385D01*
X193729325Y-104742000D01*
X192604675Y-104742000D01*
X191565633Y-105172385D01*
X190770385Y-105967633D01*
X190340000Y-107006675D01*
X175826536Y-107006675D01*
X175832757Y-106997365D01*
X175882040Y-106749600D01*
X175882040Y-105022400D01*
X175832757Y-104774635D01*
X175692409Y-104564591D01*
X175482365Y-104424243D01*
X175256000Y-104379217D01*
X175256000Y-103592161D01*
X175273337Y-103505000D01*
X175256000Y-103417839D01*
X175256000Y-103417835D01*
X175204652Y-103159690D01*
X175147946Y-103074824D01*
X175058424Y-102940845D01*
X175058423Y-102940844D01*
X175009049Y-102866951D01*
X174935157Y-102817578D01*
X170017938Y-97900359D01*
X176866000Y-97900359D01*
X176866000Y-98726641D01*
X177182204Y-99490026D01*
X177766474Y-100074296D01*
X178529859Y-100390500D01*
X179356141Y-100390500D01*
X180119526Y-100074296D01*
X180703796Y-99490026D01*
X181020000Y-98726641D01*
X181020000Y-97900359D01*
X180703796Y-97136974D01*
X180119526Y-96552704D01*
X179356141Y-96236500D01*
X178529859Y-96236500D01*
X177766474Y-96552704D01*
X177182204Y-97136974D01*
X176866000Y-97900359D01*
X170017938Y-97900359D01*
X163191000Y-91073422D01*
X163191000Y-90104576D01*
X165546846Y-87748730D01*
X165577018Y-87821571D01*
X165924429Y-88168982D01*
X166378343Y-88357000D01*
X166869657Y-88357000D01*
X167323571Y-88168982D01*
X167670982Y-87821571D01*
X167859000Y-87367657D01*
X167859000Y-86876343D01*
X167670982Y-86422429D01*
X167509000Y-86260447D01*
X167509000Y-85604250D01*
X167600750Y-85696000D01*
X167711500Y-85696000D01*
X167974201Y-85587186D01*
X167974200Y-86501439D01*
X167956863Y-86588600D01*
X167974200Y-86675761D01*
X167974200Y-86675764D01*
X168025548Y-86933909D01*
X168221151Y-87226649D01*
X168295047Y-87276025D01*
X172426007Y-91406986D01*
X172475381Y-91480879D01*
X172549274Y-91530253D01*
X172549275Y-91530254D01*
X172768120Y-91676482D01*
X173026265Y-91727830D01*
X173026269Y-91727830D01*
X173113430Y-91745167D01*
X173200591Y-91727830D01*
X183126561Y-91727830D01*
X183213722Y-91745167D01*
X183300883Y-91727830D01*
X183300887Y-91727830D01*
X183559032Y-91676482D01*
X183851771Y-91480879D01*
X183901147Y-91406983D01*
X185523131Y-89785000D01*
X191776439Y-89785000D01*
X191863600Y-89802337D01*
X191950761Y-89785000D01*
X191950765Y-89785000D01*
X192208910Y-89733652D01*
X192501649Y-89538049D01*
X192551025Y-89464153D01*
X192715154Y-89300024D01*
X192789049Y-89250649D01*
X192984652Y-88957910D01*
X193024398Y-88758091D01*
X193262365Y-88710757D01*
X193472409Y-88570409D01*
X193612757Y-88360365D01*
X193662040Y-88112600D01*
X193662040Y-86385400D01*
X193612757Y-86137635D01*
X193472409Y-85927591D01*
X193262365Y-85787243D01*
X193236349Y-85782068D01*
X193562650Y-85293725D01*
X193678959Y-84709000D01*
X193562650Y-84124275D01*
X193231430Y-83628570D01*
X192947719Y-83439000D01*
X193231430Y-83249430D01*
X193562650Y-82753725D01*
X193678959Y-82169000D01*
X193562650Y-81584275D01*
X193231430Y-81088570D01*
X192947719Y-80899000D01*
X193231430Y-80709430D01*
X193562650Y-80213725D01*
X193678959Y-79629000D01*
X193562650Y-79044275D01*
X193555813Y-79034043D01*
X193611179Y-78997049D01*
X193660555Y-78923153D01*
X195496685Y-77087024D01*
X195570578Y-77037650D01*
X195635286Y-76940809D01*
X195766181Y-76744911D01*
X195773954Y-76705832D01*
X195817529Y-76486766D01*
X195817529Y-76486762D01*
X195834866Y-76399601D01*
X195817529Y-76312440D01*
X195817529Y-71688266D01*
X195834866Y-71601106D01*
X195817529Y-71513946D01*
X195817529Y-71513942D01*
X195766181Y-71255797D01*
X195677481Y-71123049D01*
X195619953Y-71036952D01*
X195619952Y-71036951D01*
X195570578Y-70963058D01*
X195496685Y-70913684D01*
X193894247Y-69311247D01*
X193844871Y-69237351D01*
X193552132Y-69041748D01*
X193293987Y-68990400D01*
X193293983Y-68990400D01*
X193206822Y-68973063D01*
X193119661Y-68990400D01*
X181138361Y-68990400D01*
X181051200Y-68973063D01*
X180964039Y-68990400D01*
X180964035Y-68990400D01*
X180705890Y-69041748D01*
X180487045Y-69187976D01*
X180487044Y-69187977D01*
X180413151Y-69237351D01*
X180363777Y-69311244D01*
X177155400Y-72519622D01*
X177155400Y-72322143D01*
X176967382Y-71868229D01*
X176619971Y-71520818D01*
X176166057Y-71332800D01*
X175674743Y-71332800D01*
X175606000Y-71361274D01*
X175606000Y-71001343D01*
X175417982Y-70547429D01*
X175070571Y-70200018D01*
X174616657Y-70012000D01*
X174125343Y-70012000D01*
X173671429Y-70200018D01*
X173324018Y-70547429D01*
X173136000Y-71001343D01*
X173136000Y-71371843D01*
X172194440Y-72313403D01*
X172194440Y-71569000D01*
X172152000Y-71355637D01*
X172152000Y-69614113D01*
X173531560Y-69614113D01*
X173671429Y-69753982D01*
X174125343Y-69942000D01*
X174616657Y-69942000D01*
X175070571Y-69753982D01*
X175417982Y-69406571D01*
X175606000Y-68952657D01*
X175606000Y-68461343D01*
X175417982Y-68007429D01*
X175070571Y-67660018D01*
X174616657Y-67472000D01*
X174125343Y-67472000D01*
X173671429Y-67660018D01*
X173487334Y-67844113D01*
X171633579Y-67844113D01*
X169773312Y-65983848D01*
X169773310Y-65983845D01*
X169287000Y-65497536D01*
X169287000Y-65063835D01*
X169235652Y-64805690D01*
X169040049Y-64512951D01*
X168747310Y-64317348D01*
X168402000Y-64248662D01*
X168378604Y-64253316D01*
X167732953Y-63607665D01*
X167741050Y-63600130D01*
X168015209Y-63000159D01*
X167849082Y-62738000D01*
X166497000Y-62738000D01*
X166497000Y-62758000D01*
X166243000Y-62758000D01*
X166243000Y-62738000D01*
X163957000Y-62738000D01*
X163957000Y-62758000D01*
X163703000Y-62758000D01*
X163703000Y-62738000D01*
X161417000Y-62738000D01*
X161417000Y-62758000D01*
X161163000Y-62758000D01*
X161163000Y-62738000D01*
X158877000Y-62738000D01*
X158877000Y-62758000D01*
X158623000Y-62758000D01*
X158623000Y-62738000D01*
X158603000Y-62738000D01*
X158603000Y-62484000D01*
X158623000Y-62484000D01*
X158623000Y-62464000D01*
X158877000Y-62464000D01*
X158877000Y-62484000D01*
X161163000Y-62484000D01*
X161163000Y-62464000D01*
X161417000Y-62464000D01*
X161417000Y-62484000D01*
X163703000Y-62484000D01*
X163703000Y-62464000D01*
X163957000Y-62464000D01*
X163957000Y-62484000D01*
X166243000Y-62484000D01*
X166243000Y-62464000D01*
X166497000Y-62464000D01*
X166497000Y-62484000D01*
X167849082Y-62484000D01*
X168015209Y-62221841D01*
X167741050Y-61621870D01*
X167298473Y-61210000D01*
X172734422Y-61210000D01*
X174942500Y-63418079D01*
X174942500Y-63765250D01*
X175145513Y-64255367D01*
X175520633Y-64630487D01*
X176010750Y-64833500D01*
X176541250Y-64833500D01*
X177031367Y-64630487D01*
X177406487Y-64255367D01*
X177609500Y-63765250D01*
X177609500Y-63234750D01*
X182562500Y-63234750D01*
X182562500Y-63765250D01*
X182765513Y-64255367D01*
X183140633Y-64630487D01*
X183630750Y-64833500D01*
X184161250Y-64833500D01*
X184651367Y-64630487D01*
X185026487Y-64255367D01*
X185229500Y-63765250D01*
X185229500Y-63234750D01*
X185026487Y-62744633D01*
X184651367Y-62369513D01*
X184161250Y-62166500D01*
X183630750Y-62166500D01*
X183140633Y-62369513D01*
X182765513Y-62744633D01*
X182562500Y-63234750D01*
X177609500Y-63234750D01*
X177406487Y-62744633D01*
X177031367Y-62369513D01*
X176541250Y-62166500D01*
X176194079Y-62166500D01*
X173788425Y-59760847D01*
X173739049Y-59686951D01*
X173446310Y-59491348D01*
X173284666Y-59459195D01*
X175416411Y-59459195D01*
X175467566Y-59748780D01*
X176037606Y-59957007D01*
X176643940Y-59931239D01*
X177084434Y-59748780D01*
X177135589Y-59459195D01*
X183036411Y-59459195D01*
X183087566Y-59748780D01*
X183657606Y-59957007D01*
X184263940Y-59931239D01*
X184704434Y-59748780D01*
X184755589Y-59459195D01*
X183896000Y-58599605D01*
X183036411Y-59459195D01*
X177135589Y-59459195D01*
X176276000Y-58599605D01*
X175416411Y-59459195D01*
X173284666Y-59459195D01*
X173188165Y-59440000D01*
X173188161Y-59440000D01*
X173101000Y-59422663D01*
X173013839Y-59440000D01*
X155916161Y-59440000D01*
X155829000Y-59422663D01*
X155741839Y-59440000D01*
X155741835Y-59440000D01*
X155483690Y-59491348D01*
X155264845Y-59637576D01*
X155264844Y-59637577D01*
X155190951Y-59686951D01*
X155141577Y-59760844D01*
X153613845Y-61288577D01*
X153539952Y-61337951D01*
X153490578Y-61411844D01*
X153490576Y-61411846D01*
X153344348Y-61630691D01*
X153275663Y-61976000D01*
X153293001Y-62063165D01*
X153293000Y-65825839D01*
X153275663Y-65913000D01*
X153293000Y-66000161D01*
X153293000Y-66000164D01*
X153344348Y-66258309D01*
X153539951Y-66551049D01*
X153613847Y-66600425D01*
X154633577Y-67620156D01*
X154682951Y-67694049D01*
X154756844Y-67743423D01*
X154756845Y-67743424D01*
X154773748Y-67754718D01*
X154975690Y-67889652D01*
X155233835Y-67941000D01*
X155233839Y-67941000D01*
X155320999Y-67958337D01*
X155408159Y-67941000D01*
X159297839Y-67941000D01*
X159385000Y-67958337D01*
X159472161Y-67941000D01*
X159472165Y-67941000D01*
X159730310Y-67889652D01*
X160023049Y-67694049D01*
X160072425Y-67620153D01*
X160582545Y-67110033D01*
X160741336Y-67078448D01*
X160997276Y-66907434D01*
X161255110Y-66649600D01*
X161324889Y-66649600D01*
X161493822Y-66818533D01*
X161493825Y-66818535D01*
X161646224Y-66970934D01*
X161902164Y-67141948D01*
X162060955Y-67173534D01*
X163039621Y-68152200D01*
X155077961Y-68152200D01*
X154990800Y-68134863D01*
X154903639Y-68152200D01*
X154903635Y-68152200D01*
X154645490Y-68203548D01*
X154426645Y-68349776D01*
X154426644Y-68349777D01*
X154352751Y-68399151D01*
X154303377Y-68473044D01*
X150680846Y-72095576D01*
X150606950Y-72144952D01*
X150411347Y-72437692D01*
X150359999Y-72695837D01*
X150359999Y-72695840D01*
X150342662Y-72783001D01*
X150359999Y-72870162D01*
X150360000Y-81789021D01*
X147136847Y-85012175D01*
X147062951Y-85061551D01*
X146867348Y-85354291D01*
X146816000Y-85612436D01*
X146816000Y-85612439D01*
X146798663Y-85699600D01*
X146816000Y-85786761D01*
X146816001Y-87661246D01*
X146807701Y-87664684D01*
X146364084Y-88108301D01*
X146124000Y-88687915D01*
X146124000Y-89315285D01*
X146364084Y-89894899D01*
X146541585Y-90072400D01*
X145123379Y-90072400D01*
X144374562Y-89323584D01*
X144378000Y-89315285D01*
X144378000Y-88687915D01*
X144137916Y-88108301D01*
X143694299Y-87664684D01*
X143114685Y-87424600D01*
X142487315Y-87424600D01*
X141907701Y-87664684D01*
X141464084Y-88108301D01*
X141224000Y-88687915D01*
X121226154Y-88687915D01*
X120952400Y-88414162D01*
X120952400Y-87448328D01*
X121001321Y-87481016D01*
X121324000Y-87545201D01*
X123024000Y-87545201D01*
X123346679Y-87481016D01*
X123620233Y-87298233D01*
X123803016Y-87024679D01*
X123867201Y-86702000D01*
X123867201Y-86433155D01*
X123889953Y-86417953D01*
X123933749Y-86352408D01*
X126128808Y-84157349D01*
X126194353Y-84113553D01*
X126367854Y-83853892D01*
X126413400Y-83624916D01*
X126413400Y-83624912D01*
X126428778Y-83547600D01*
X126413400Y-83470288D01*
X126413400Y-81031299D01*
X126625840Y-80818859D01*
X133876500Y-80818859D01*
X133876500Y-81645141D01*
X134192704Y-82408526D01*
X134776974Y-82992796D01*
X135540359Y-83309000D01*
X136366641Y-83309000D01*
X137130026Y-82992796D01*
X137714296Y-82408526D01*
X138030500Y-81645141D01*
X138030500Y-80818859D01*
X137714296Y-80055474D01*
X137130026Y-79471204D01*
X136366641Y-79155000D01*
X135540359Y-79155000D01*
X134776974Y-79471204D01*
X134192704Y-80055474D01*
X133876500Y-80818859D01*
X126625840Y-80818859D01*
X132491700Y-74953000D01*
X137057288Y-74953000D01*
X137134600Y-74968378D01*
X137211912Y-74953000D01*
X137211916Y-74953000D01*
X137440892Y-74907454D01*
X137700553Y-74733953D01*
X137744349Y-74668408D01*
X139438408Y-72974349D01*
X139503953Y-72930553D01*
X139677454Y-72670892D01*
X139723000Y-72441916D01*
X139723000Y-72441912D01*
X139738378Y-72364600D01*
X139723000Y-72287288D01*
X139723000Y-70821912D01*
X139949121Y-70728250D01*
X140451250Y-70226121D01*
X140723000Y-69570059D01*
X140723000Y-68859941D01*
X142233000Y-68859941D01*
X142233000Y-69570059D01*
X142504750Y-70226121D01*
X143006879Y-70728250D01*
X143662941Y-71000000D01*
X144373059Y-71000000D01*
X145029121Y-70728250D01*
X145531250Y-70226121D01*
X145803000Y-69570059D01*
X145803000Y-68859941D01*
X145531250Y-68203879D01*
X145029121Y-67701750D01*
X144373059Y-67430000D01*
X143662941Y-67430000D01*
X143006879Y-67701750D01*
X142504750Y-68203879D01*
X142233000Y-68859941D01*
X140723000Y-68859941D01*
X140451250Y-68203879D01*
X139949121Y-67701750D01*
X139293059Y-67430000D01*
X138582941Y-67430000D01*
X138157597Y-67606183D01*
X138383791Y-67021137D01*
X138367116Y-66319941D01*
X139693000Y-66319941D01*
X139693000Y-67030059D01*
X139964750Y-67686121D01*
X140466879Y-68188250D01*
X141122941Y-68460000D01*
X141833059Y-68460000D01*
X142489121Y-68188250D01*
X142991250Y-67686121D01*
X143263000Y-67030059D01*
X143263000Y-66319941D01*
X142991250Y-65663879D01*
X142489121Y-65161750D01*
X141833059Y-64890000D01*
X141122941Y-64890000D01*
X140466879Y-65161750D01*
X139964750Y-65663879D01*
X139693000Y-66319941D01*
X138367116Y-66319941D01*
X138365092Y-66234860D01*
X138100170Y-65595282D01*
X137763789Y-65488816D01*
X136577605Y-66675000D01*
X136591748Y-66689143D01*
X136412143Y-66868748D01*
X136398000Y-66854605D01*
X136383858Y-66868748D01*
X136204253Y-66689143D01*
X136218395Y-66675000D01*
X135032211Y-65488816D01*
X134695830Y-65595282D01*
X134412209Y-66328863D01*
X134430908Y-67115140D01*
X134633456Y-67604134D01*
X134213059Y-67430000D01*
X133502941Y-67430000D01*
X132846879Y-67701750D01*
X132344750Y-68203879D01*
X132073000Y-68859941D01*
X132073000Y-69570059D01*
X132088044Y-69606377D01*
X122556243Y-79138179D01*
X122339168Y-79095000D01*
X122008832Y-79095000D01*
X121519667Y-79192301D01*
X120964951Y-79562951D01*
X120952400Y-79581735D01*
X120952400Y-70684712D01*
X120967778Y-70607400D01*
X120952400Y-70530088D01*
X120952400Y-70530084D01*
X120906854Y-70301108D01*
X120853594Y-70221399D01*
X120777149Y-70106991D01*
X120777147Y-70106989D01*
X120733353Y-70041447D01*
X120667811Y-69997653D01*
X119914844Y-69244687D01*
X119917000Y-69239483D01*
X119917000Y-68859941D01*
X126993000Y-68859941D01*
X126993000Y-69570059D01*
X127264750Y-70226121D01*
X127766879Y-70728250D01*
X128422941Y-71000000D01*
X129133059Y-71000000D01*
X129789121Y-70728250D01*
X130291250Y-70226121D01*
X130563000Y-69570059D01*
X130563000Y-68859941D01*
X130291250Y-68203879D01*
X129789121Y-67701750D01*
X129133059Y-67430000D01*
X128422941Y-67430000D01*
X127766879Y-67701750D01*
X127264750Y-68203879D01*
X126993000Y-68859941D01*
X119917000Y-68859941D01*
X119917000Y-68684517D01*
X119704624Y-68171796D01*
X119494828Y-67962000D01*
X119704624Y-67752204D01*
X119917000Y-67239483D01*
X119917000Y-66684517D01*
X119704624Y-66171796D01*
X119312204Y-65779376D01*
X119295126Y-65772302D01*
X121921303Y-65772302D01*
X122052205Y-66129441D01*
X122858173Y-66446432D01*
X123724097Y-66430863D01*
X123991886Y-66319941D01*
X129533000Y-66319941D01*
X129533000Y-67030059D01*
X129804750Y-67686121D01*
X130306879Y-68188250D01*
X130962941Y-68460000D01*
X131673059Y-68460000D01*
X132329121Y-68188250D01*
X132831250Y-67686121D01*
X133103000Y-67030059D01*
X133103000Y-66319941D01*
X132831250Y-65663879D01*
X132476582Y-65309211D01*
X135211816Y-65309211D01*
X136398000Y-66495395D01*
X137584184Y-65309211D01*
X137477718Y-64972830D01*
X136744137Y-64689209D01*
X135957860Y-64707908D01*
X135318282Y-64972830D01*
X135211816Y-65309211D01*
X132476582Y-65309211D01*
X132329121Y-65161750D01*
X131673059Y-64890000D01*
X130962941Y-64890000D01*
X130306879Y-65161750D01*
X129804750Y-65663879D01*
X129533000Y-66319941D01*
X123991886Y-66319941D01*
X124451795Y-66129441D01*
X124582697Y-65772302D01*
X123252000Y-64441605D01*
X121921303Y-65772302D01*
X119295126Y-65772302D01*
X118799483Y-65567000D01*
X118244517Y-65567000D01*
X117731796Y-65779376D01*
X117371313Y-66139859D01*
X117361674Y-66116589D01*
X117065722Y-66057883D01*
X116161605Y-66962000D01*
X116175748Y-66976143D01*
X115996143Y-67155748D01*
X115982000Y-67141605D01*
X115967858Y-67155748D01*
X115788253Y-66976143D01*
X115802395Y-66962000D01*
X114898278Y-66057883D01*
X114602326Y-66116589D01*
X114383823Y-66708921D01*
X114408627Y-67339781D01*
X114602326Y-67807411D01*
X114898275Y-67866117D01*
X114837392Y-67927000D01*
X100252711Y-67927000D01*
X99759561Y-67433850D01*
X99871233Y-67359233D01*
X100054016Y-67085679D01*
X100118201Y-66763000D01*
X100118201Y-65772302D01*
X109921303Y-65772302D01*
X110052205Y-66129441D01*
X110858173Y-66446432D01*
X111724097Y-66430863D01*
X112451795Y-66129441D01*
X112543853Y-65878278D01*
X115077883Y-65878278D01*
X115982000Y-66782395D01*
X116886117Y-65878278D01*
X116827411Y-65582326D01*
X116235079Y-65363823D01*
X115604219Y-65388627D01*
X115136589Y-65582326D01*
X115077883Y-65878278D01*
X112543853Y-65878278D01*
X112582697Y-65772302D01*
X111252000Y-64441605D01*
X109921303Y-65772302D01*
X100118201Y-65772302D01*
X100118201Y-65063000D01*
X100054016Y-64740321D01*
X99871233Y-64466767D01*
X99597679Y-64283984D01*
X99275000Y-64219799D01*
X97575000Y-64219799D01*
X97252321Y-64283984D01*
X96978767Y-64466767D01*
X96904785Y-64577489D01*
X96539333Y-64333301D01*
X96050168Y-64236000D01*
X95719832Y-64236000D01*
X95230667Y-64333301D01*
X94832786Y-64599157D01*
X94216856Y-63983227D01*
X94159112Y-63896807D01*
X94116259Y-63868173D01*
X109067568Y-63868173D01*
X109083137Y-64734097D01*
X109384559Y-65461795D01*
X109741698Y-65592697D01*
X111072395Y-64262000D01*
X111431605Y-64262000D01*
X112762302Y-65592697D01*
X113119441Y-65461795D01*
X113436432Y-64655827D01*
X113422271Y-63868173D01*
X121067568Y-63868173D01*
X121083137Y-64734097D01*
X121384559Y-65461795D01*
X121741698Y-65592697D01*
X123072395Y-64262000D01*
X123431605Y-64262000D01*
X124762302Y-65592697D01*
X125119441Y-65461795D01*
X125436432Y-64655827D01*
X125420863Y-63789903D01*
X125119441Y-63062205D01*
X124762302Y-62931303D01*
X123431605Y-64262000D01*
X123072395Y-64262000D01*
X121741698Y-62931303D01*
X121384559Y-63062205D01*
X121067568Y-63868173D01*
X113422271Y-63868173D01*
X113420863Y-63789903D01*
X113119441Y-63062205D01*
X112762302Y-62931303D01*
X111431605Y-64262000D01*
X111072395Y-64262000D01*
X109741698Y-62931303D01*
X109384559Y-63062205D01*
X109067568Y-63868173D01*
X94116259Y-63868173D01*
X93816756Y-63668052D01*
X93514854Y-63608000D01*
X93514853Y-63608000D01*
X93412919Y-63587724D01*
X93310985Y-63608000D01*
X82524932Y-63608000D01*
X82422999Y-63587724D01*
X82321066Y-63608000D01*
X82321065Y-63608000D01*
X82019163Y-63668052D01*
X81676807Y-63896807D01*
X81619065Y-63983224D01*
X80366225Y-65236065D01*
X80279808Y-65293807D01*
X80222066Y-65380224D01*
X80051052Y-65636164D01*
X79970724Y-66040000D01*
X77926000Y-66040000D01*
X77926000Y-62751698D01*
X109921303Y-62751698D01*
X111252000Y-64082395D01*
X112582697Y-62751698D01*
X121921303Y-62751698D01*
X123252000Y-64082395D01*
X124582697Y-62751698D01*
X124451795Y-62394559D01*
X123645827Y-62077568D01*
X122779903Y-62093137D01*
X122052205Y-62394559D01*
X121921303Y-62751698D01*
X112582697Y-62751698D01*
X112451795Y-62394559D01*
X111645827Y-62077568D01*
X110779903Y-62093137D01*
X110052205Y-62394559D01*
X109921303Y-62751698D01*
X77926000Y-62751698D01*
X77926000Y-57476675D01*
X78834000Y-57476675D01*
X78834000Y-58601325D01*
X79264385Y-59640367D01*
X80059633Y-60435615D01*
X81098675Y-60866000D01*
X82223325Y-60866000D01*
X83262367Y-60435615D01*
X84057615Y-59640367D01*
X84488000Y-58601325D01*
X84488000Y-58076478D01*
X95047000Y-58076478D01*
X95047000Y-58763522D01*
X95309920Y-59398267D01*
X95795733Y-59884080D01*
X96430478Y-60147000D01*
X97117522Y-60147000D01*
X97752267Y-59884080D01*
X97780396Y-59855951D01*
X97945542Y-60021097D01*
X98249499Y-60147000D01*
X98980250Y-60147000D01*
X99187000Y-59940250D01*
X99187000Y-58547000D01*
X99441000Y-58547000D01*
X99441000Y-59940250D01*
X99647750Y-60147000D01*
X100378501Y-60147000D01*
X100682458Y-60021097D01*
X100915097Y-59788458D01*
X101041000Y-59484500D01*
X101041000Y-58753750D01*
X100834250Y-58547000D01*
X99441000Y-58547000D01*
X99187000Y-58547000D01*
X99167000Y-58547000D01*
X99167000Y-58293000D01*
X99187000Y-58293000D01*
X99187000Y-56899750D01*
X99441000Y-56899750D01*
X99441000Y-58293000D01*
X100834250Y-58293000D01*
X101041000Y-58086250D01*
X101041000Y-58076478D01*
X102667000Y-58076478D01*
X102667000Y-58763522D01*
X102929920Y-59398267D01*
X103415733Y-59884080D01*
X104050478Y-60147000D01*
X104737522Y-60147000D01*
X105372267Y-59884080D01*
X105400396Y-59855951D01*
X105565542Y-60021097D01*
X105869499Y-60147000D01*
X106600250Y-60147000D01*
X106807000Y-59940250D01*
X106807000Y-58547000D01*
X107061000Y-58547000D01*
X107061000Y-59940250D01*
X107267750Y-60147000D01*
X107998501Y-60147000D01*
X108302458Y-60021097D01*
X108535097Y-59788458D01*
X108661000Y-59484500D01*
X108661000Y-58753750D01*
X108454250Y-58547000D01*
X107061000Y-58547000D01*
X106807000Y-58547000D01*
X106787000Y-58547000D01*
X106787000Y-58293000D01*
X106807000Y-58293000D01*
X106807000Y-56899750D01*
X107061000Y-56899750D01*
X107061000Y-58293000D01*
X108454250Y-58293000D01*
X108565644Y-58181606D01*
X174738993Y-58181606D01*
X174764761Y-58787940D01*
X174947220Y-59228434D01*
X175236805Y-59279589D01*
X176096395Y-58420000D01*
X176455605Y-58420000D01*
X177315195Y-59279589D01*
X177604780Y-59228434D01*
X177813007Y-58658394D01*
X177792745Y-58181606D01*
X182358993Y-58181606D01*
X182384761Y-58787940D01*
X182567220Y-59228434D01*
X182856805Y-59279589D01*
X183716395Y-58420000D01*
X184075605Y-58420000D01*
X184935195Y-59279589D01*
X185224780Y-59228434D01*
X185433007Y-58658394D01*
X185407239Y-58052060D01*
X185224780Y-57611566D01*
X184935195Y-57560411D01*
X184075605Y-58420000D01*
X183716395Y-58420000D01*
X182856805Y-57560411D01*
X182567220Y-57611566D01*
X182358993Y-58181606D01*
X177792745Y-58181606D01*
X177787239Y-58052060D01*
X177604780Y-57611566D01*
X177315195Y-57560411D01*
X176455605Y-58420000D01*
X176096395Y-58420000D01*
X175236805Y-57560411D01*
X174947220Y-57611566D01*
X174738993Y-58181606D01*
X108565644Y-58181606D01*
X108661000Y-58086250D01*
X108661000Y-57355500D01*
X108535097Y-57051542D01*
X108302458Y-56818903D01*
X107998501Y-56693000D01*
X107267750Y-56693000D01*
X107061000Y-56899750D01*
X106807000Y-56899750D01*
X106600250Y-56693000D01*
X105869499Y-56693000D01*
X105565542Y-56818903D01*
X105400396Y-56984049D01*
X105372267Y-56955920D01*
X104737522Y-56693000D01*
X104050478Y-56693000D01*
X103415733Y-56955920D01*
X102929920Y-57441733D01*
X102667000Y-58076478D01*
X101041000Y-58076478D01*
X101041000Y-57355500D01*
X100915097Y-57051542D01*
X100682458Y-56818903D01*
X100378501Y-56693000D01*
X99647750Y-56693000D01*
X99441000Y-56899750D01*
X99187000Y-56899750D01*
X98980250Y-56693000D01*
X98249499Y-56693000D01*
X97945542Y-56818903D01*
X97780396Y-56984049D01*
X97752267Y-56955920D01*
X97117522Y-56693000D01*
X96430478Y-56693000D01*
X95795733Y-56955920D01*
X95309920Y-57441733D01*
X95047000Y-58076478D01*
X84488000Y-58076478D01*
X84488000Y-57476675D01*
X84057615Y-56437633D01*
X83809760Y-56189778D01*
X132223000Y-56189778D01*
X132223000Y-56840222D01*
X132471914Y-57441153D01*
X132931847Y-57901086D01*
X133532778Y-58150000D01*
X134183222Y-58150000D01*
X134784153Y-57901086D01*
X135244086Y-57441153D01*
X135493000Y-56840222D01*
X135493000Y-56189778D01*
X137303000Y-56189778D01*
X137303000Y-56840222D01*
X137551914Y-57441153D01*
X138011847Y-57901086D01*
X138612778Y-58150000D01*
X139263222Y-58150000D01*
X139864153Y-57901086D01*
X140324086Y-57441153D01*
X140349082Y-57380805D01*
X175416411Y-57380805D01*
X176276000Y-58240395D01*
X177135589Y-57380805D01*
X183036411Y-57380805D01*
X183896000Y-58240395D01*
X184659719Y-57476675D01*
X190340000Y-57476675D01*
X190340000Y-58601325D01*
X190770385Y-59640367D01*
X191565633Y-60435615D01*
X192604675Y-60866000D01*
X193729325Y-60866000D01*
X194768367Y-60435615D01*
X195563615Y-59640367D01*
X195994000Y-58601325D01*
X195994000Y-57476675D01*
X195563615Y-56437633D01*
X194768367Y-55642385D01*
X193729325Y-55212000D01*
X192604675Y-55212000D01*
X191565633Y-55642385D01*
X190770385Y-56437633D01*
X190340000Y-57476675D01*
X184659719Y-57476675D01*
X184755589Y-57380805D01*
X184704434Y-57091220D01*
X184134394Y-56882993D01*
X183528060Y-56908761D01*
X183087566Y-57091220D01*
X183036411Y-57380805D01*
X177135589Y-57380805D01*
X177084434Y-57091220D01*
X176514394Y-56882993D01*
X175908060Y-56908761D01*
X175467566Y-57091220D01*
X175416411Y-57380805D01*
X140349082Y-57380805D01*
X140573000Y-56840222D01*
X140573000Y-56189778D01*
X140324086Y-55588847D01*
X139864153Y-55128914D01*
X139263222Y-54880000D01*
X138612778Y-54880000D01*
X138011847Y-55128914D01*
X137551914Y-55588847D01*
X137303000Y-56189778D01*
X135493000Y-56189778D01*
X135244086Y-55588847D01*
X134784153Y-55128914D01*
X134183222Y-54880000D01*
X133532778Y-54880000D01*
X132931847Y-55128914D01*
X132471914Y-55588847D01*
X132223000Y-56189778D01*
X83809760Y-56189778D01*
X83262367Y-55642385D01*
X82223325Y-55212000D01*
X81098675Y-55212000D01*
X80059633Y-55642385D01*
X79264385Y-56437633D01*
X78834000Y-57476675D01*
X77926000Y-57476675D01*
X77926000Y-54304000D01*
X196902001Y-54304000D01*
X196902000Y-111304000D01*
X196902000Y-111304000D01*
G37*
X196902000Y-111304000D02*
X118440200Y-111304000D01*
X118440200Y-107209875D01*
X120744000Y-107209875D01*
X120744000Y-108334525D01*
X121174385Y-109373567D01*
X121969633Y-110168815D01*
X123008675Y-110599200D01*
X124133325Y-110599200D01*
X125172367Y-110168815D01*
X125967615Y-109373567D01*
X126398000Y-108334525D01*
X126398000Y-107209875D01*
X125967615Y-106170833D01*
X125172367Y-105375585D01*
X124133325Y-104945200D01*
X123008675Y-104945200D01*
X121969633Y-105375585D01*
X121174385Y-106170833D01*
X120744000Y-107209875D01*
X118440200Y-107209875D01*
X118440200Y-98718000D01*
X120480799Y-98718000D01*
X120480799Y-100418000D01*
X120544984Y-100740679D01*
X120727767Y-101014233D01*
X121001321Y-101197016D01*
X121324000Y-101261201D01*
X123024000Y-101261201D01*
X123346679Y-101197016D01*
X123620233Y-101014233D01*
X123803016Y-100740679D01*
X123867201Y-100418000D01*
X123867201Y-98718000D01*
X123803016Y-98395321D01*
X123620233Y-98121767D01*
X123486179Y-98032195D01*
X123601481Y-97908145D01*
X123604705Y-97900359D01*
X133876500Y-97900359D01*
X133876500Y-98726641D01*
X134192704Y-99490026D01*
X134776974Y-100074296D01*
X135540359Y-100390500D01*
X136366641Y-100390500D01*
X137130026Y-100074296D01*
X137714296Y-99490026D01*
X138030500Y-98726641D01*
X138030500Y-97900359D01*
X137714296Y-97136974D01*
X137130026Y-96552704D01*
X136366641Y-96236500D01*
X135540359Y-96236500D01*
X134776974Y-96552704D01*
X134192704Y-97136974D01*
X133876500Y-97900359D01*
X123604705Y-97900359D01*
X123805729Y-97415024D01*
X123638755Y-97155000D01*
X122301000Y-97155000D01*
X122301000Y-97175000D01*
X122047000Y-97175000D01*
X122047000Y-97155000D01*
X120709245Y-97155000D01*
X120542271Y-97415024D01*
X120746519Y-97908145D01*
X120861821Y-98032195D01*
X120727767Y-98121767D01*
X120544984Y-98395321D01*
X120480799Y-98718000D01*
X118440200Y-98718000D01*
X118440200Y-77089000D01*
X118430533Y-77040399D01*
X118403003Y-76999197D01*
X118361801Y-76971667D01*
X118313200Y-76962000D01*
X77926000Y-76962000D01*
X77926000Y-74809024D01*
X82188271Y-74809024D01*
X82392519Y-75302145D01*
X82837996Y-75781421D01*
X83432975Y-76053738D01*
X83693000Y-75887443D01*
X83693000Y-74549000D01*
X83947000Y-74549000D01*
X83947000Y-75887443D01*
X84207025Y-76053738D01*
X84802004Y-75781421D01*
X85247481Y-75302145D01*
X85451729Y-74809024D01*
X85284755Y-74549000D01*
X83947000Y-74549000D01*
X83693000Y-74549000D01*
X82355245Y-74549000D01*
X82188271Y-74809024D01*
X77926000Y-74809024D01*
X77926000Y-66040000D01*
X79970724Y-66040000D01*
X79991001Y-66141939D01*
X79991000Y-68986065D01*
X79970724Y-69088000D01*
X79991000Y-69189934D01*
X80051052Y-69491836D01*
X80279807Y-69834193D01*
X80366227Y-69891937D01*
X82314267Y-71839977D01*
X82305908Y-71882000D01*
X82421161Y-72461418D01*
X82749375Y-72952625D01*
X82883063Y-73041952D01*
X82837996Y-73062579D01*
X82392519Y-73541855D01*
X82188271Y-74034976D01*
X82355245Y-74295000D01*
X83693000Y-74295000D01*
X83693000Y-74275000D01*
X83947000Y-74275000D01*
X83947000Y-74295000D01*
X85284755Y-74295000D01*
X85451729Y-74034976D01*
X85247481Y-73541855D01*
X84802004Y-73062579D01*
X84756937Y-73041952D01*
X84890625Y-72952625D01*
X85218839Y-72461418D01*
X85334092Y-71882000D01*
X85218839Y-71302582D01*
X84890625Y-70811375D01*
X84592239Y-70612000D01*
X84890625Y-70412625D01*
X85218839Y-69921418D01*
X85334092Y-69342000D01*
X85218839Y-68762582D01*
X84890625Y-68271375D01*
X84872381Y-68259184D01*
X84917765Y-68250157D01*
X85127809Y-68109809D01*
X85268157Y-67899765D01*
X85317440Y-67652000D01*
X85317440Y-65952000D01*
X85268157Y-65704235D01*
X85250627Y-65678000D01*
X92984209Y-65678000D01*
X93878984Y-66572776D01*
X93936726Y-66659193D01*
X94221828Y-66849692D01*
X94279082Y-66887948D01*
X94556386Y-66943107D01*
X94675951Y-67122049D01*
X95230667Y-67492699D01*
X95719832Y-67590000D01*
X96050168Y-67590000D01*
X96539333Y-67492699D01*
X96904785Y-67248511D01*
X96978767Y-67359233D01*
X97252321Y-67542016D01*
X97370215Y-67565467D01*
X97450052Y-67966836D01*
X97496473Y-68036310D01*
X97678808Y-68309193D01*
X97765225Y-68366935D01*
X99020065Y-69621776D01*
X99077807Y-69708193D01*
X99420163Y-69936948D01*
X99684793Y-69989586D01*
X99824000Y-70017276D01*
X99925934Y-69997000D01*
X115044172Y-69997000D01*
X115191796Y-70144624D01*
X115704517Y-70357000D01*
X116259483Y-70357000D01*
X116407001Y-70295896D01*
X116407001Y-70302489D01*
X116391623Y-70379801D01*
X116407001Y-70457113D01*
X116407001Y-70457116D01*
X116452547Y-70686092D01*
X116574030Y-70867903D01*
X116626048Y-70945754D01*
X116691593Y-70989550D01*
X118772801Y-73070759D01*
X118772800Y-91794488D01*
X118757422Y-91871800D01*
X118772800Y-91949112D01*
X118772800Y-91949115D01*
X118810344Y-92137863D01*
X118818346Y-92178091D01*
X118928093Y-92342338D01*
X118991847Y-92437753D01*
X119057392Y-92481549D01*
X120563642Y-93987799D01*
X120464146Y-94488000D01*
X120594301Y-95142333D01*
X120964951Y-95697049D01*
X121088687Y-95779727D01*
X120746519Y-96147855D01*
X120542271Y-96640976D01*
X120709245Y-96901000D01*
X122047000Y-96901000D01*
X122047000Y-96881000D01*
X122301000Y-96881000D01*
X122301000Y-96901000D01*
X123638755Y-96901000D01*
X123805729Y-96640976D01*
X123601481Y-96147855D01*
X123259313Y-95779727D01*
X123383049Y-95697049D01*
X123753699Y-95142333D01*
X123883854Y-94488000D01*
X123753699Y-93833667D01*
X123383049Y-93278951D01*
X123291830Y-93218000D01*
X123383049Y-93157049D01*
X123753699Y-92602333D01*
X123883854Y-91948000D01*
X123753699Y-91293667D01*
X123383049Y-90738951D01*
X122896011Y-90413522D01*
X122783749Y-90245510D01*
X122783747Y-90245508D01*
X122739953Y-90179966D01*
X122674411Y-90136172D01*
X121226154Y-88687915D01*
X141224000Y-88687915D01*
X141224000Y-89315285D01*
X141464084Y-89894899D01*
X141907701Y-90338516D01*
X142487315Y-90578600D01*
X143114685Y-90578600D01*
X143122984Y-90575162D01*
X144069377Y-91521556D01*
X144118751Y-91595449D01*
X144192644Y-91644823D01*
X144192645Y-91644824D01*
X144392832Y-91778585D01*
X144411490Y-91791052D01*
X144669635Y-91842400D01*
X144669639Y-91842400D01*
X144756800Y-91859737D01*
X144843961Y-91842400D01*
X148883839Y-91842400D01*
X148971000Y-91859737D01*
X149058161Y-91842400D01*
X149058165Y-91842400D01*
X149316310Y-91791052D01*
X149609049Y-91595449D01*
X149658425Y-91521553D01*
X151616601Y-89563378D01*
X151616600Y-95366039D01*
X151599263Y-95453200D01*
X151616600Y-95540361D01*
X151616600Y-95540364D01*
X151667948Y-95798509D01*
X151863551Y-96091249D01*
X151937447Y-96140625D01*
X156969602Y-101172781D01*
X156969601Y-104403978D01*
X156968049Y-104406301D01*
X156962933Y-104432023D01*
X156738598Y-104387400D01*
X156443402Y-104387400D01*
X156006275Y-104474350D01*
X155510570Y-104805570D01*
X155321000Y-105089281D01*
X155131430Y-104805570D01*
X154635725Y-104474350D01*
X154198598Y-104387400D01*
X153903402Y-104387400D01*
X153466275Y-104474350D01*
X152970570Y-104805570D01*
X152781000Y-105089281D01*
X152591430Y-104805570D01*
X152095725Y-104474350D01*
X151658598Y-104387400D01*
X151363402Y-104387400D01*
X150926275Y-104474350D01*
X150430570Y-104805570D01*
X150099350Y-105301275D01*
X149983041Y-105886000D01*
X150099350Y-106470725D01*
X150430570Y-106966430D01*
X150714281Y-107156000D01*
X150430570Y-107345570D01*
X150099350Y-107841275D01*
X149983041Y-108426000D01*
X150099350Y-109010725D01*
X150430570Y-109506430D01*
X150926275Y-109837650D01*
X151363402Y-109924600D01*
X151658598Y-109924600D01*
X152095725Y-109837650D01*
X152591430Y-109506430D01*
X152781000Y-109222719D01*
X152970570Y-109506430D01*
X153466275Y-109837650D01*
X153903402Y-109924600D01*
X154198598Y-109924600D01*
X154635725Y-109837650D01*
X155131430Y-109506430D01*
X155321000Y-109222719D01*
X155510570Y-109506430D01*
X156006275Y-109837650D01*
X156443402Y-109924600D01*
X156738598Y-109924600D01*
X157175725Y-109837650D01*
X157671430Y-109506430D01*
X157861000Y-109222719D01*
X158050570Y-109506430D01*
X158546275Y-109837650D01*
X158983402Y-109924600D01*
X159278598Y-109924600D01*
X159715725Y-109837650D01*
X160211430Y-109506430D01*
X160401000Y-109222719D01*
X160590570Y-109506430D01*
X161086275Y-109837650D01*
X161523402Y-109924600D01*
X161818598Y-109924600D01*
X162255725Y-109837650D01*
X162751430Y-109506430D01*
X162941000Y-109222719D01*
X163130570Y-109506430D01*
X163626275Y-109837650D01*
X164063402Y-109924600D01*
X164358598Y-109924600D01*
X164795725Y-109837650D01*
X165291430Y-109506430D01*
X165481000Y-109222719D01*
X165670570Y-109506430D01*
X166166275Y-109837650D01*
X166603402Y-109924600D01*
X166898598Y-109924600D01*
X167335725Y-109837650D01*
X167831430Y-109506430D01*
X168021000Y-109222719D01*
X168210570Y-109506430D01*
X168706275Y-109837650D01*
X169143402Y-109924600D01*
X169438598Y-109924600D01*
X169875725Y-109837650D01*
X170371430Y-109506430D01*
X170561000Y-109222719D01*
X170750570Y-109506430D01*
X171246275Y-109837650D01*
X171683402Y-109924600D01*
X171978598Y-109924600D01*
X172415725Y-109837650D01*
X172911430Y-109506430D01*
X173101000Y-109222719D01*
X173290570Y-109506430D01*
X173786275Y-109837650D01*
X174223402Y-109924600D01*
X174518598Y-109924600D01*
X174955725Y-109837650D01*
X175451430Y-109506430D01*
X175782650Y-109010725D01*
X175898959Y-108426000D01*
X175782650Y-107841275D01*
X175456349Y-107352932D01*
X175482365Y-107347757D01*
X175692409Y-107207409D01*
X175826536Y-107006675D01*
X190340000Y-107006675D01*
X190340000Y-108131325D01*
X190770385Y-109170367D01*
X191565633Y-109965615D01*
X192604675Y-110396000D01*
X193729325Y-110396000D01*
X194768367Y-109965615D01*
X195563615Y-109170367D01*
X195994000Y-108131325D01*
X195994000Y-107006675D01*
X195563615Y-105967633D01*
X194768367Y-105172385D01*
X193729325Y-104742000D01*
X192604675Y-104742000D01*
X191565633Y-105172385D01*
X190770385Y-105967633D01*
X190340000Y-107006675D01*
X175826536Y-107006675D01*
X175832757Y-106997365D01*
X175882040Y-106749600D01*
X175882040Y-105022400D01*
X175832757Y-104774635D01*
X175692409Y-104564591D01*
X175482365Y-104424243D01*
X175256000Y-104379217D01*
X175256000Y-103592161D01*
X175273337Y-103505000D01*
X175256000Y-103417839D01*
X175256000Y-103417835D01*
X175204652Y-103159690D01*
X175147946Y-103074824D01*
X175058424Y-102940845D01*
X175058423Y-102940844D01*
X175009049Y-102866951D01*
X174935157Y-102817578D01*
X170017938Y-97900359D01*
X176866000Y-97900359D01*
X176866000Y-98726641D01*
X177182204Y-99490026D01*
X177766474Y-100074296D01*
X178529859Y-100390500D01*
X179356141Y-100390500D01*
X180119526Y-100074296D01*
X180703796Y-99490026D01*
X181020000Y-98726641D01*
X181020000Y-97900359D01*
X180703796Y-97136974D01*
X180119526Y-96552704D01*
X179356141Y-96236500D01*
X178529859Y-96236500D01*
X177766474Y-96552704D01*
X177182204Y-97136974D01*
X176866000Y-97900359D01*
X170017938Y-97900359D01*
X163191000Y-91073422D01*
X163191000Y-90104576D01*
X165546846Y-87748730D01*
X165577018Y-87821571D01*
X165924429Y-88168982D01*
X166378343Y-88357000D01*
X166869657Y-88357000D01*
X167323571Y-88168982D01*
X167670982Y-87821571D01*
X167859000Y-87367657D01*
X167859000Y-86876343D01*
X167670982Y-86422429D01*
X167509000Y-86260447D01*
X167509000Y-85604250D01*
X167600750Y-85696000D01*
X167711500Y-85696000D01*
X167974201Y-85587186D01*
X167974200Y-86501439D01*
X167956863Y-86588600D01*
X167974200Y-86675761D01*
X167974200Y-86675764D01*
X168025548Y-86933909D01*
X168221151Y-87226649D01*
X168295047Y-87276025D01*
X172426007Y-91406986D01*
X172475381Y-91480879D01*
X172549274Y-91530253D01*
X172549275Y-91530254D01*
X172768120Y-91676482D01*
X173026265Y-91727830D01*
X173026269Y-91727830D01*
X173113430Y-91745167D01*
X173200591Y-91727830D01*
X183126561Y-91727830D01*
X183213722Y-91745167D01*
X183300883Y-91727830D01*
X183300887Y-91727830D01*
X183559032Y-91676482D01*
X183851771Y-91480879D01*
X183901147Y-91406983D01*
X185523131Y-89785000D01*
X191776439Y-89785000D01*
X191863600Y-89802337D01*
X191950761Y-89785000D01*
X191950765Y-89785000D01*
X192208910Y-89733652D01*
X192501649Y-89538049D01*
X192551025Y-89464153D01*
X192715154Y-89300024D01*
X192789049Y-89250649D01*
X192984652Y-88957910D01*
X193024398Y-88758091D01*
X193262365Y-88710757D01*
X193472409Y-88570409D01*
X193612757Y-88360365D01*
X193662040Y-88112600D01*
X193662040Y-86385400D01*
X193612757Y-86137635D01*
X193472409Y-85927591D01*
X193262365Y-85787243D01*
X193236349Y-85782068D01*
X193562650Y-85293725D01*
X193678959Y-84709000D01*
X193562650Y-84124275D01*
X193231430Y-83628570D01*
X192947719Y-83439000D01*
X193231430Y-83249430D01*
X193562650Y-82753725D01*
X193678959Y-82169000D01*
X193562650Y-81584275D01*
X193231430Y-81088570D01*
X192947719Y-80899000D01*
X193231430Y-80709430D01*
X193562650Y-80213725D01*
X193678959Y-79629000D01*
X193562650Y-79044275D01*
X193555813Y-79034043D01*
X193611179Y-78997049D01*
X193660555Y-78923153D01*
X195496685Y-77087024D01*
X195570578Y-77037650D01*
X195635286Y-76940809D01*
X195766181Y-76744911D01*
X195773954Y-76705832D01*
X195817529Y-76486766D01*
X195817529Y-76486762D01*
X195834866Y-76399601D01*
X195817529Y-76312440D01*
X195817529Y-71688266D01*
X195834866Y-71601106D01*
X195817529Y-71513946D01*
X195817529Y-71513942D01*
X195766181Y-71255797D01*
X195677481Y-71123049D01*
X195619953Y-71036952D01*
X195619952Y-71036951D01*
X195570578Y-70963058D01*
X195496685Y-70913684D01*
X193894247Y-69311247D01*
X193844871Y-69237351D01*
X193552132Y-69041748D01*
X193293987Y-68990400D01*
X193293983Y-68990400D01*
X193206822Y-68973063D01*
X193119661Y-68990400D01*
X181138361Y-68990400D01*
X181051200Y-68973063D01*
X180964039Y-68990400D01*
X180964035Y-68990400D01*
X180705890Y-69041748D01*
X180487045Y-69187976D01*
X180487044Y-69187977D01*
X180413151Y-69237351D01*
X180363777Y-69311244D01*
X177155400Y-72519622D01*
X177155400Y-72322143D01*
X176967382Y-71868229D01*
X176619971Y-71520818D01*
X176166057Y-71332800D01*
X175674743Y-71332800D01*
X175606000Y-71361274D01*
X175606000Y-71001343D01*
X175417982Y-70547429D01*
X175070571Y-70200018D01*
X174616657Y-70012000D01*
X174125343Y-70012000D01*
X173671429Y-70200018D01*
X173324018Y-70547429D01*
X173136000Y-71001343D01*
X173136000Y-71371843D01*
X172194440Y-72313403D01*
X172194440Y-71569000D01*
X172152000Y-71355637D01*
X172152000Y-69614113D01*
X173531560Y-69614113D01*
X173671429Y-69753982D01*
X174125343Y-69942000D01*
X174616657Y-69942000D01*
X175070571Y-69753982D01*
X175417982Y-69406571D01*
X175606000Y-68952657D01*
X175606000Y-68461343D01*
X175417982Y-68007429D01*
X175070571Y-67660018D01*
X174616657Y-67472000D01*
X174125343Y-67472000D01*
X173671429Y-67660018D01*
X173487334Y-67844113D01*
X171633579Y-67844113D01*
X169773312Y-65983848D01*
X169773310Y-65983845D01*
X169287000Y-65497536D01*
X169287000Y-65063835D01*
X169235652Y-64805690D01*
X169040049Y-64512951D01*
X168747310Y-64317348D01*
X168402000Y-64248662D01*
X168378604Y-64253316D01*
X167732953Y-63607665D01*
X167741050Y-63600130D01*
X168015209Y-63000159D01*
X167849082Y-62738000D01*
X166497000Y-62738000D01*
X166497000Y-62758000D01*
X166243000Y-62758000D01*
X166243000Y-62738000D01*
X163957000Y-62738000D01*
X163957000Y-62758000D01*
X163703000Y-62758000D01*
X163703000Y-62738000D01*
X161417000Y-62738000D01*
X161417000Y-62758000D01*
X161163000Y-62758000D01*
X161163000Y-62738000D01*
X158877000Y-62738000D01*
X158877000Y-62758000D01*
X158623000Y-62758000D01*
X158623000Y-62738000D01*
X158603000Y-62738000D01*
X158603000Y-62484000D01*
X158623000Y-62484000D01*
X158623000Y-62464000D01*
X158877000Y-62464000D01*
X158877000Y-62484000D01*
X161163000Y-62484000D01*
X161163000Y-62464000D01*
X161417000Y-62464000D01*
X161417000Y-62484000D01*
X163703000Y-62484000D01*
X163703000Y-62464000D01*
X163957000Y-62464000D01*
X163957000Y-62484000D01*
X166243000Y-62484000D01*
X166243000Y-62464000D01*
X166497000Y-62464000D01*
X166497000Y-62484000D01*
X167849082Y-62484000D01*
X168015209Y-62221841D01*
X167741050Y-61621870D01*
X167298473Y-61210000D01*
X172734422Y-61210000D01*
X174942500Y-63418079D01*
X174942500Y-63765250D01*
X175145513Y-64255367D01*
X175520633Y-64630487D01*
X176010750Y-64833500D01*
X176541250Y-64833500D01*
X177031367Y-64630487D01*
X177406487Y-64255367D01*
X177609500Y-63765250D01*
X177609500Y-63234750D01*
X182562500Y-63234750D01*
X182562500Y-63765250D01*
X182765513Y-64255367D01*
X183140633Y-64630487D01*
X183630750Y-64833500D01*
X184161250Y-64833500D01*
X184651367Y-64630487D01*
X185026487Y-64255367D01*
X185229500Y-63765250D01*
X185229500Y-63234750D01*
X185026487Y-62744633D01*
X184651367Y-62369513D01*
X184161250Y-62166500D01*
X183630750Y-62166500D01*
X183140633Y-62369513D01*
X182765513Y-62744633D01*
X182562500Y-63234750D01*
X177609500Y-63234750D01*
X177406487Y-62744633D01*
X177031367Y-62369513D01*
X176541250Y-62166500D01*
X176194079Y-62166500D01*
X173788425Y-59760847D01*
X173739049Y-59686951D01*
X173446310Y-59491348D01*
X173284666Y-59459195D01*
X175416411Y-59459195D01*
X175467566Y-59748780D01*
X176037606Y-59957007D01*
X176643940Y-59931239D01*
X177084434Y-59748780D01*
X177135589Y-59459195D01*
X183036411Y-59459195D01*
X183087566Y-59748780D01*
X183657606Y-59957007D01*
X184263940Y-59931239D01*
X184704434Y-59748780D01*
X184755589Y-59459195D01*
X183896000Y-58599605D01*
X183036411Y-59459195D01*
X177135589Y-59459195D01*
X176276000Y-58599605D01*
X175416411Y-59459195D01*
X173284666Y-59459195D01*
X173188165Y-59440000D01*
X173188161Y-59440000D01*
X173101000Y-59422663D01*
X173013839Y-59440000D01*
X155916161Y-59440000D01*
X155829000Y-59422663D01*
X155741839Y-59440000D01*
X155741835Y-59440000D01*
X155483690Y-59491348D01*
X155264845Y-59637576D01*
X155264844Y-59637577D01*
X155190951Y-59686951D01*
X155141577Y-59760844D01*
X153613845Y-61288577D01*
X153539952Y-61337951D01*
X153490578Y-61411844D01*
X153490576Y-61411846D01*
X153344348Y-61630691D01*
X153275663Y-61976000D01*
X153293001Y-62063165D01*
X153293000Y-65825839D01*
X153275663Y-65913000D01*
X153293000Y-66000161D01*
X153293000Y-66000164D01*
X153344348Y-66258309D01*
X153539951Y-66551049D01*
X153613847Y-66600425D01*
X154633577Y-67620156D01*
X154682951Y-67694049D01*
X154756844Y-67743423D01*
X154756845Y-67743424D01*
X154773748Y-67754718D01*
X154975690Y-67889652D01*
X155233835Y-67941000D01*
X155233839Y-67941000D01*
X155320999Y-67958337D01*
X155408159Y-67941000D01*
X159297839Y-67941000D01*
X159385000Y-67958337D01*
X159472161Y-67941000D01*
X159472165Y-67941000D01*
X159730310Y-67889652D01*
X160023049Y-67694049D01*
X160072425Y-67620153D01*
X160582545Y-67110033D01*
X160741336Y-67078448D01*
X160997276Y-66907434D01*
X161255110Y-66649600D01*
X161324889Y-66649600D01*
X161493822Y-66818533D01*
X161493825Y-66818535D01*
X161646224Y-66970934D01*
X161902164Y-67141948D01*
X162060955Y-67173534D01*
X163039621Y-68152200D01*
X155077961Y-68152200D01*
X154990800Y-68134863D01*
X154903639Y-68152200D01*
X154903635Y-68152200D01*
X154645490Y-68203548D01*
X154426645Y-68349776D01*
X154426644Y-68349777D01*
X154352751Y-68399151D01*
X154303377Y-68473044D01*
X150680846Y-72095576D01*
X150606950Y-72144952D01*
X150411347Y-72437692D01*
X150359999Y-72695837D01*
X150359999Y-72695840D01*
X150342662Y-72783001D01*
X150359999Y-72870162D01*
X150360000Y-81789021D01*
X147136847Y-85012175D01*
X147062951Y-85061551D01*
X146867348Y-85354291D01*
X146816000Y-85612436D01*
X146816000Y-85612439D01*
X146798663Y-85699600D01*
X146816000Y-85786761D01*
X146816001Y-87661246D01*
X146807701Y-87664684D01*
X146364084Y-88108301D01*
X146124000Y-88687915D01*
X146124000Y-89315285D01*
X146364084Y-89894899D01*
X146541585Y-90072400D01*
X145123379Y-90072400D01*
X144374562Y-89323584D01*
X144378000Y-89315285D01*
X144378000Y-88687915D01*
X144137916Y-88108301D01*
X143694299Y-87664684D01*
X143114685Y-87424600D01*
X142487315Y-87424600D01*
X141907701Y-87664684D01*
X141464084Y-88108301D01*
X141224000Y-88687915D01*
X121226154Y-88687915D01*
X120952400Y-88414162D01*
X120952400Y-87448328D01*
X121001321Y-87481016D01*
X121324000Y-87545201D01*
X123024000Y-87545201D01*
X123346679Y-87481016D01*
X123620233Y-87298233D01*
X123803016Y-87024679D01*
X123867201Y-86702000D01*
X123867201Y-86433155D01*
X123889953Y-86417953D01*
X123933749Y-86352408D01*
X126128808Y-84157349D01*
X126194353Y-84113553D01*
X126367854Y-83853892D01*
X126413400Y-83624916D01*
X126413400Y-83624912D01*
X126428778Y-83547600D01*
X126413400Y-83470288D01*
X126413400Y-81031299D01*
X126625840Y-80818859D01*
X133876500Y-80818859D01*
X133876500Y-81645141D01*
X134192704Y-82408526D01*
X134776974Y-82992796D01*
X135540359Y-83309000D01*
X136366641Y-83309000D01*
X137130026Y-82992796D01*
X137714296Y-82408526D01*
X138030500Y-81645141D01*
X138030500Y-80818859D01*
X137714296Y-80055474D01*
X137130026Y-79471204D01*
X136366641Y-79155000D01*
X135540359Y-79155000D01*
X134776974Y-79471204D01*
X134192704Y-80055474D01*
X133876500Y-80818859D01*
X126625840Y-80818859D01*
X132491700Y-74953000D01*
X137057288Y-74953000D01*
X137134600Y-74968378D01*
X137211912Y-74953000D01*
X137211916Y-74953000D01*
X137440892Y-74907454D01*
X137700553Y-74733953D01*
X137744349Y-74668408D01*
X139438408Y-72974349D01*
X139503953Y-72930553D01*
X139677454Y-72670892D01*
X139723000Y-72441916D01*
X139723000Y-72441912D01*
X139738378Y-72364600D01*
X139723000Y-72287288D01*
X139723000Y-70821912D01*
X139949121Y-70728250D01*
X140451250Y-70226121D01*
X140723000Y-69570059D01*
X140723000Y-68859941D01*
X142233000Y-68859941D01*
X142233000Y-69570059D01*
X142504750Y-70226121D01*
X143006879Y-70728250D01*
X143662941Y-71000000D01*
X144373059Y-71000000D01*
X145029121Y-70728250D01*
X145531250Y-70226121D01*
X145803000Y-69570059D01*
X145803000Y-68859941D01*
X145531250Y-68203879D01*
X145029121Y-67701750D01*
X144373059Y-67430000D01*
X143662941Y-67430000D01*
X143006879Y-67701750D01*
X142504750Y-68203879D01*
X142233000Y-68859941D01*
X140723000Y-68859941D01*
X140451250Y-68203879D01*
X139949121Y-67701750D01*
X139293059Y-67430000D01*
X138582941Y-67430000D01*
X138157597Y-67606183D01*
X138383791Y-67021137D01*
X138367116Y-66319941D01*
X139693000Y-66319941D01*
X139693000Y-67030059D01*
X139964750Y-67686121D01*
X140466879Y-68188250D01*
X141122941Y-68460000D01*
X141833059Y-68460000D01*
X142489121Y-68188250D01*
X142991250Y-67686121D01*
X143263000Y-67030059D01*
X143263000Y-66319941D01*
X142991250Y-65663879D01*
X142489121Y-65161750D01*
X141833059Y-64890000D01*
X141122941Y-64890000D01*
X140466879Y-65161750D01*
X139964750Y-65663879D01*
X139693000Y-66319941D01*
X138367116Y-66319941D01*
X138365092Y-66234860D01*
X138100170Y-65595282D01*
X137763789Y-65488816D01*
X136577605Y-66675000D01*
X136591748Y-66689143D01*
X136412143Y-66868748D01*
X136398000Y-66854605D01*
X136383858Y-66868748D01*
X136204253Y-66689143D01*
X136218395Y-66675000D01*
X135032211Y-65488816D01*
X134695830Y-65595282D01*
X134412209Y-66328863D01*
X134430908Y-67115140D01*
X134633456Y-67604134D01*
X134213059Y-67430000D01*
X133502941Y-67430000D01*
X132846879Y-67701750D01*
X132344750Y-68203879D01*
X132073000Y-68859941D01*
X132073000Y-69570059D01*
X132088044Y-69606377D01*
X122556243Y-79138179D01*
X122339168Y-79095000D01*
X122008832Y-79095000D01*
X121519667Y-79192301D01*
X120964951Y-79562951D01*
X120952400Y-79581735D01*
X120952400Y-70684712D01*
X120967778Y-70607400D01*
X120952400Y-70530088D01*
X120952400Y-70530084D01*
X120906854Y-70301108D01*
X120853594Y-70221399D01*
X120777149Y-70106991D01*
X120777147Y-70106989D01*
X120733353Y-70041447D01*
X120667811Y-69997653D01*
X119914844Y-69244687D01*
X119917000Y-69239483D01*
X119917000Y-68859941D01*
X126993000Y-68859941D01*
X126993000Y-69570059D01*
X127264750Y-70226121D01*
X127766879Y-70728250D01*
X128422941Y-71000000D01*
X129133059Y-71000000D01*
X129789121Y-70728250D01*
X130291250Y-70226121D01*
X130563000Y-69570059D01*
X130563000Y-68859941D01*
X130291250Y-68203879D01*
X129789121Y-67701750D01*
X129133059Y-67430000D01*
X128422941Y-67430000D01*
X127766879Y-67701750D01*
X127264750Y-68203879D01*
X126993000Y-68859941D01*
X119917000Y-68859941D01*
X119917000Y-68684517D01*
X119704624Y-68171796D01*
X119494828Y-67962000D01*
X119704624Y-67752204D01*
X119917000Y-67239483D01*
X119917000Y-66684517D01*
X119704624Y-66171796D01*
X119312204Y-65779376D01*
X119295126Y-65772302D01*
X121921303Y-65772302D01*
X122052205Y-66129441D01*
X122858173Y-66446432D01*
X123724097Y-66430863D01*
X123991886Y-66319941D01*
X129533000Y-66319941D01*
X129533000Y-67030059D01*
X129804750Y-67686121D01*
X130306879Y-68188250D01*
X130962941Y-68460000D01*
X131673059Y-68460000D01*
X132329121Y-68188250D01*
X132831250Y-67686121D01*
X133103000Y-67030059D01*
X133103000Y-66319941D01*
X132831250Y-65663879D01*
X132476582Y-65309211D01*
X135211816Y-65309211D01*
X136398000Y-66495395D01*
X137584184Y-65309211D01*
X137477718Y-64972830D01*
X136744137Y-64689209D01*
X135957860Y-64707908D01*
X135318282Y-64972830D01*
X135211816Y-65309211D01*
X132476582Y-65309211D01*
X132329121Y-65161750D01*
X131673059Y-64890000D01*
X130962941Y-64890000D01*
X130306879Y-65161750D01*
X129804750Y-65663879D01*
X129533000Y-66319941D01*
X123991886Y-66319941D01*
X124451795Y-66129441D01*
X124582697Y-65772302D01*
X123252000Y-64441605D01*
X121921303Y-65772302D01*
X119295126Y-65772302D01*
X118799483Y-65567000D01*
X118244517Y-65567000D01*
X117731796Y-65779376D01*
X117371313Y-66139859D01*
X117361674Y-66116589D01*
X117065722Y-66057883D01*
X116161605Y-66962000D01*
X116175748Y-66976143D01*
X115996143Y-67155748D01*
X115982000Y-67141605D01*
X115967858Y-67155748D01*
X115788253Y-66976143D01*
X115802395Y-66962000D01*
X114898278Y-66057883D01*
X114602326Y-66116589D01*
X114383823Y-66708921D01*
X114408627Y-67339781D01*
X114602326Y-67807411D01*
X114898275Y-67866117D01*
X114837392Y-67927000D01*
X100252711Y-67927000D01*
X99759561Y-67433850D01*
X99871233Y-67359233D01*
X100054016Y-67085679D01*
X100118201Y-66763000D01*
X100118201Y-65772302D01*
X109921303Y-65772302D01*
X110052205Y-66129441D01*
X110858173Y-66446432D01*
X111724097Y-66430863D01*
X112451795Y-66129441D01*
X112543853Y-65878278D01*
X115077883Y-65878278D01*
X115982000Y-66782395D01*
X116886117Y-65878278D01*
X116827411Y-65582326D01*
X116235079Y-65363823D01*
X115604219Y-65388627D01*
X115136589Y-65582326D01*
X115077883Y-65878278D01*
X112543853Y-65878278D01*
X112582697Y-65772302D01*
X111252000Y-64441605D01*
X109921303Y-65772302D01*
X100118201Y-65772302D01*
X100118201Y-65063000D01*
X100054016Y-64740321D01*
X99871233Y-64466767D01*
X99597679Y-64283984D01*
X99275000Y-64219799D01*
X97575000Y-64219799D01*
X97252321Y-64283984D01*
X96978767Y-64466767D01*
X96904785Y-64577489D01*
X96539333Y-64333301D01*
X96050168Y-64236000D01*
X95719832Y-64236000D01*
X95230667Y-64333301D01*
X94832786Y-64599157D01*
X94216856Y-63983227D01*
X94159112Y-63896807D01*
X94116259Y-63868173D01*
X109067568Y-63868173D01*
X109083137Y-64734097D01*
X109384559Y-65461795D01*
X109741698Y-65592697D01*
X111072395Y-64262000D01*
X111431605Y-64262000D01*
X112762302Y-65592697D01*
X113119441Y-65461795D01*
X113436432Y-64655827D01*
X113422271Y-63868173D01*
X121067568Y-63868173D01*
X121083137Y-64734097D01*
X121384559Y-65461795D01*
X121741698Y-65592697D01*
X123072395Y-64262000D01*
X123431605Y-64262000D01*
X124762302Y-65592697D01*
X125119441Y-65461795D01*
X125436432Y-64655827D01*
X125420863Y-63789903D01*
X125119441Y-63062205D01*
X124762302Y-62931303D01*
X123431605Y-64262000D01*
X123072395Y-64262000D01*
X121741698Y-62931303D01*
X121384559Y-63062205D01*
X121067568Y-63868173D01*
X113422271Y-63868173D01*
X113420863Y-63789903D01*
X113119441Y-63062205D01*
X112762302Y-62931303D01*
X111431605Y-64262000D01*
X111072395Y-64262000D01*
X109741698Y-62931303D01*
X109384559Y-63062205D01*
X109067568Y-63868173D01*
X94116259Y-63868173D01*
X93816756Y-63668052D01*
X93514854Y-63608000D01*
X93514853Y-63608000D01*
X93412919Y-63587724D01*
X93310985Y-63608000D01*
X82524932Y-63608000D01*
X82422999Y-63587724D01*
X82321066Y-63608000D01*
X82321065Y-63608000D01*
X82019163Y-63668052D01*
X81676807Y-63896807D01*
X81619065Y-63983224D01*
X80366225Y-65236065D01*
X80279808Y-65293807D01*
X80222066Y-65380224D01*
X80051052Y-65636164D01*
X79970724Y-66040000D01*
X77926000Y-66040000D01*
X77926000Y-62751698D01*
X109921303Y-62751698D01*
X111252000Y-64082395D01*
X112582697Y-62751698D01*
X121921303Y-62751698D01*
X123252000Y-64082395D01*
X124582697Y-62751698D01*
X124451795Y-62394559D01*
X123645827Y-62077568D01*
X122779903Y-62093137D01*
X122052205Y-62394559D01*
X121921303Y-62751698D01*
X112582697Y-62751698D01*
X112451795Y-62394559D01*
X111645827Y-62077568D01*
X110779903Y-62093137D01*
X110052205Y-62394559D01*
X109921303Y-62751698D01*
X77926000Y-62751698D01*
X77926000Y-57476675D01*
X78834000Y-57476675D01*
X78834000Y-58601325D01*
X79264385Y-59640367D01*
X80059633Y-60435615D01*
X81098675Y-60866000D01*
X82223325Y-60866000D01*
X83262367Y-60435615D01*
X84057615Y-59640367D01*
X84488000Y-58601325D01*
X84488000Y-58076478D01*
X95047000Y-58076478D01*
X95047000Y-58763522D01*
X95309920Y-59398267D01*
X95795733Y-59884080D01*
X96430478Y-60147000D01*
X97117522Y-60147000D01*
X97752267Y-59884080D01*
X97780396Y-59855951D01*
X97945542Y-60021097D01*
X98249499Y-60147000D01*
X98980250Y-60147000D01*
X99187000Y-59940250D01*
X99187000Y-58547000D01*
X99441000Y-58547000D01*
X99441000Y-59940250D01*
X99647750Y-60147000D01*
X100378501Y-60147000D01*
X100682458Y-60021097D01*
X100915097Y-59788458D01*
X101041000Y-59484500D01*
X101041000Y-58753750D01*
X100834250Y-58547000D01*
X99441000Y-58547000D01*
X99187000Y-58547000D01*
X99167000Y-58547000D01*
X99167000Y-58293000D01*
X99187000Y-58293000D01*
X99187000Y-56899750D01*
X99441000Y-56899750D01*
X99441000Y-58293000D01*
X100834250Y-58293000D01*
X101041000Y-58086250D01*
X101041000Y-58076478D01*
X102667000Y-58076478D01*
X102667000Y-58763522D01*
X102929920Y-59398267D01*
X103415733Y-59884080D01*
X104050478Y-60147000D01*
X104737522Y-60147000D01*
X105372267Y-59884080D01*
X105400396Y-59855951D01*
X105565542Y-60021097D01*
X105869499Y-60147000D01*
X106600250Y-60147000D01*
X106807000Y-59940250D01*
X106807000Y-58547000D01*
X107061000Y-58547000D01*
X107061000Y-59940250D01*
X107267750Y-60147000D01*
X107998501Y-60147000D01*
X108302458Y-60021097D01*
X108535097Y-59788458D01*
X108661000Y-59484500D01*
X108661000Y-58753750D01*
X108454250Y-58547000D01*
X107061000Y-58547000D01*
X106807000Y-58547000D01*
X106787000Y-58547000D01*
X106787000Y-58293000D01*
X106807000Y-58293000D01*
X106807000Y-56899750D01*
X107061000Y-56899750D01*
X107061000Y-58293000D01*
X108454250Y-58293000D01*
X108565644Y-58181606D01*
X174738993Y-58181606D01*
X174764761Y-58787940D01*
X174947220Y-59228434D01*
X175236805Y-59279589D01*
X176096395Y-58420000D01*
X176455605Y-58420000D01*
X177315195Y-59279589D01*
X177604780Y-59228434D01*
X177813007Y-58658394D01*
X177792745Y-58181606D01*
X182358993Y-58181606D01*
X182384761Y-58787940D01*
X182567220Y-59228434D01*
X182856805Y-59279589D01*
X183716395Y-58420000D01*
X184075605Y-58420000D01*
X184935195Y-59279589D01*
X185224780Y-59228434D01*
X185433007Y-58658394D01*
X185407239Y-58052060D01*
X185224780Y-57611566D01*
X184935195Y-57560411D01*
X184075605Y-58420000D01*
X183716395Y-58420000D01*
X182856805Y-57560411D01*
X182567220Y-57611566D01*
X182358993Y-58181606D01*
X177792745Y-58181606D01*
X177787239Y-58052060D01*
X177604780Y-57611566D01*
X177315195Y-57560411D01*
X176455605Y-58420000D01*
X176096395Y-58420000D01*
X175236805Y-57560411D01*
X174947220Y-57611566D01*
X174738993Y-58181606D01*
X108565644Y-58181606D01*
X108661000Y-58086250D01*
X108661000Y-57355500D01*
X108535097Y-57051542D01*
X108302458Y-56818903D01*
X107998501Y-56693000D01*
X107267750Y-56693000D01*
X107061000Y-56899750D01*
X106807000Y-56899750D01*
X106600250Y-56693000D01*
X105869499Y-56693000D01*
X105565542Y-56818903D01*
X105400396Y-56984049D01*
X105372267Y-56955920D01*
X104737522Y-56693000D01*
X104050478Y-56693000D01*
X103415733Y-56955920D01*
X102929920Y-57441733D01*
X102667000Y-58076478D01*
X101041000Y-58076478D01*
X101041000Y-57355500D01*
X100915097Y-57051542D01*
X100682458Y-56818903D01*
X100378501Y-56693000D01*
X99647750Y-56693000D01*
X99441000Y-56899750D01*
X99187000Y-56899750D01*
X98980250Y-56693000D01*
X98249499Y-56693000D01*
X97945542Y-56818903D01*
X97780396Y-56984049D01*
X97752267Y-56955920D01*
X97117522Y-56693000D01*
X96430478Y-56693000D01*
X95795733Y-56955920D01*
X95309920Y-57441733D01*
X95047000Y-58076478D01*
X84488000Y-58076478D01*
X84488000Y-57476675D01*
X84057615Y-56437633D01*
X83809760Y-56189778D01*
X132223000Y-56189778D01*
X132223000Y-56840222D01*
X132471914Y-57441153D01*
X132931847Y-57901086D01*
X133532778Y-58150000D01*
X134183222Y-58150000D01*
X134784153Y-57901086D01*
X135244086Y-57441153D01*
X135493000Y-56840222D01*
X135493000Y-56189778D01*
X137303000Y-56189778D01*
X137303000Y-56840222D01*
X137551914Y-57441153D01*
X138011847Y-57901086D01*
X138612778Y-58150000D01*
X139263222Y-58150000D01*
X139864153Y-57901086D01*
X140324086Y-57441153D01*
X140349082Y-57380805D01*
X175416411Y-57380805D01*
X176276000Y-58240395D01*
X177135589Y-57380805D01*
X183036411Y-57380805D01*
X183896000Y-58240395D01*
X184659719Y-57476675D01*
X190340000Y-57476675D01*
X190340000Y-58601325D01*
X190770385Y-59640367D01*
X191565633Y-60435615D01*
X192604675Y-60866000D01*
X193729325Y-60866000D01*
X194768367Y-60435615D01*
X195563615Y-59640367D01*
X195994000Y-58601325D01*
X195994000Y-57476675D01*
X195563615Y-56437633D01*
X194768367Y-55642385D01*
X193729325Y-55212000D01*
X192604675Y-55212000D01*
X191565633Y-55642385D01*
X190770385Y-56437633D01*
X190340000Y-57476675D01*
X184659719Y-57476675D01*
X184755589Y-57380805D01*
X184704434Y-57091220D01*
X184134394Y-56882993D01*
X183528060Y-56908761D01*
X183087566Y-57091220D01*
X183036411Y-57380805D01*
X177135589Y-57380805D01*
X177084434Y-57091220D01*
X176514394Y-56882993D01*
X175908060Y-56908761D01*
X175467566Y-57091220D01*
X175416411Y-57380805D01*
X140349082Y-57380805D01*
X140573000Y-56840222D01*
X140573000Y-56189778D01*
X140324086Y-55588847D01*
X139864153Y-55128914D01*
X139263222Y-54880000D01*
X138612778Y-54880000D01*
X138011847Y-55128914D01*
X137551914Y-55588847D01*
X137303000Y-56189778D01*
X135493000Y-56189778D01*
X135244086Y-55588847D01*
X134784153Y-55128914D01*
X134183222Y-54880000D01*
X133532778Y-54880000D01*
X132931847Y-55128914D01*
X132471914Y-55588847D01*
X132223000Y-56189778D01*
X83809760Y-56189778D01*
X83262367Y-55642385D01*
X82223325Y-55212000D01*
X81098675Y-55212000D01*
X80059633Y-55642385D01*
X79264385Y-56437633D01*
X78834000Y-57476675D01*
X77926000Y-57476675D01*
X77926000Y-54304000D01*
X196902001Y-54304000D01*
X196902000Y-111304000D01*
G36*
X167139998Y-73996000D02*
X167171824Y-73996000D01*
X167233348Y-74305309D01*
X167379576Y-74524154D01*
X167379578Y-74524156D01*
X167428952Y-74598049D01*
X167502845Y-74647423D01*
X168056000Y-75200579D01*
X168056000Y-75429657D01*
X168244018Y-75883571D01*
X168591429Y-76230982D01*
X169045343Y-76419000D01*
X169536657Y-76419000D01*
X169990571Y-76230982D01*
X170243500Y-75978053D01*
X170496429Y-76230982D01*
X170950343Y-76419000D01*
X171441657Y-76419000D01*
X171672682Y-76323306D01*
X171669560Y-76339000D01*
X171669560Y-76899000D01*
X171693429Y-77019000D01*
X171669560Y-77139000D01*
X171669560Y-77416885D01*
X171615903Y-77470542D01*
X171490000Y-77774500D01*
X171490000Y-77885250D01*
X171696748Y-78091998D01*
X171490000Y-78091998D01*
X171490000Y-78128995D01*
X171464839Y-78134000D01*
X171464835Y-78134000D01*
X171206690Y-78185348D01*
X170987845Y-78331576D01*
X170987844Y-78331577D01*
X170913951Y-78380951D01*
X170864577Y-78454844D01*
X170544421Y-78775000D01*
X170315343Y-78775000D01*
X169861429Y-78963018D01*
X169514018Y-79310429D01*
X169326000Y-79764343D01*
X169326000Y-80255657D01*
X169514018Y-80709571D01*
X169861429Y-81056982D01*
X170315343Y-81245000D01*
X170806657Y-81245000D01*
X171260571Y-81056982D01*
X171607982Y-80709571D01*
X171669560Y-80560909D01*
X171669560Y-80899000D01*
X171693429Y-81019000D01*
X171669560Y-81139000D01*
X171669560Y-81699000D01*
X171693429Y-81819000D01*
X171669560Y-81939000D01*
X171669560Y-82499000D01*
X171699992Y-82651992D01*
X171547000Y-82621560D01*
X170987000Y-82621560D01*
X170867000Y-82645429D01*
X170747000Y-82621560D01*
X170187000Y-82621560D01*
X170067000Y-82645429D01*
X169947000Y-82621560D01*
X169387000Y-82621560D01*
X169267000Y-82645429D01*
X169147000Y-82621560D01*
X168952000Y-82621560D01*
X168952000Y-82476553D01*
X169067982Y-82360571D01*
X169256000Y-81906657D01*
X169256000Y-81415343D01*
X169067982Y-80961429D01*
X168720571Y-80614018D01*
X168266657Y-80426000D01*
X167984715Y-80426000D01*
X167848782Y-80097829D01*
X167501371Y-79750418D01*
X167047457Y-79562400D01*
X166556143Y-79562400D01*
X166102229Y-79750418D01*
X165895017Y-79957630D01*
X165871038Y-79962400D01*
X165871035Y-79962400D01*
X165627471Y-80010848D01*
X165351271Y-80195399D01*
X165304685Y-80265120D01*
X165267804Y-80302001D01*
X164835578Y-80302001D01*
X163788422Y-79254846D01*
X163739047Y-79180951D01*
X163623882Y-79104000D01*
X165241447Y-79104000D01*
X165416429Y-79278982D01*
X165870343Y-79467000D01*
X166361657Y-79467000D01*
X166815571Y-79278982D01*
X167162982Y-78931571D01*
X167351000Y-78477657D01*
X167351000Y-77986343D01*
X167162982Y-77532429D01*
X166815571Y-77185018D01*
X166361657Y-76997000D01*
X165989420Y-76997000D01*
X166037426Y-76925154D01*
X166460154Y-76502426D01*
X166534050Y-76453050D01*
X166729653Y-76160311D01*
X166781001Y-75902166D01*
X166781001Y-75902162D01*
X166798338Y-75815001D01*
X166781001Y-75727840D01*
X166781001Y-74785160D01*
X166798338Y-74698000D01*
X166781001Y-74610840D01*
X166781001Y-74610836D01*
X166729653Y-74352691D01*
X166657616Y-74244881D01*
X166583425Y-74133846D01*
X166583424Y-74133845D01*
X166534050Y-74059952D01*
X166460157Y-74010578D01*
X166266019Y-73816440D01*
X166464885Y-73816440D01*
X166518542Y-73870097D01*
X166822500Y-73996000D01*
X166933250Y-73996000D01*
X167139998Y-73789252D01*
X167139998Y-73996000D01*
X167139998Y-73996000D01*
G37*
X167139998Y-73996000D02*
X167171824Y-73996000D01*
X167233348Y-74305309D01*
X167379576Y-74524154D01*
X167379578Y-74524156D01*
X167428952Y-74598049D01*
X167502845Y-74647423D01*
X168056000Y-75200579D01*
X168056000Y-75429657D01*
X168244018Y-75883571D01*
X168591429Y-76230982D01*
X169045343Y-76419000D01*
X169536657Y-76419000D01*
X169990571Y-76230982D01*
X170243500Y-75978053D01*
X170496429Y-76230982D01*
X170950343Y-76419000D01*
X171441657Y-76419000D01*
X171672682Y-76323306D01*
X171669560Y-76339000D01*
X171669560Y-76899000D01*
X171693429Y-77019000D01*
X171669560Y-77139000D01*
X171669560Y-77416885D01*
X171615903Y-77470542D01*
X171490000Y-77774500D01*
X171490000Y-77885250D01*
X171696748Y-78091998D01*
X171490000Y-78091998D01*
X171490000Y-78128995D01*
X171464839Y-78134000D01*
X171464835Y-78134000D01*
X171206690Y-78185348D01*
X170987845Y-78331576D01*
X170987844Y-78331577D01*
X170913951Y-78380951D01*
X170864577Y-78454844D01*
X170544421Y-78775000D01*
X170315343Y-78775000D01*
X169861429Y-78963018D01*
X169514018Y-79310429D01*
X169326000Y-79764343D01*
X169326000Y-80255657D01*
X169514018Y-80709571D01*
X169861429Y-81056982D01*
X170315343Y-81245000D01*
X170806657Y-81245000D01*
X171260571Y-81056982D01*
X171607982Y-80709571D01*
X171669560Y-80560909D01*
X171669560Y-80899000D01*
X171693429Y-81019000D01*
X171669560Y-81139000D01*
X171669560Y-81699000D01*
X171693429Y-81819000D01*
X171669560Y-81939000D01*
X171669560Y-82499000D01*
X171699992Y-82651992D01*
X171547000Y-82621560D01*
X170987000Y-82621560D01*
X170867000Y-82645429D01*
X170747000Y-82621560D01*
X170187000Y-82621560D01*
X170067000Y-82645429D01*
X169947000Y-82621560D01*
X169387000Y-82621560D01*
X169267000Y-82645429D01*
X169147000Y-82621560D01*
X168952000Y-82621560D01*
X168952000Y-82476553D01*
X169067982Y-82360571D01*
X169256000Y-81906657D01*
X169256000Y-81415343D01*
X169067982Y-80961429D01*
X168720571Y-80614018D01*
X168266657Y-80426000D01*
X167984715Y-80426000D01*
X167848782Y-80097829D01*
X167501371Y-79750418D01*
X167047457Y-79562400D01*
X166556143Y-79562400D01*
X166102229Y-79750418D01*
X165895017Y-79957630D01*
X165871038Y-79962400D01*
X165871035Y-79962400D01*
X165627471Y-80010848D01*
X165351271Y-80195399D01*
X165304685Y-80265120D01*
X165267804Y-80302001D01*
X164835578Y-80302001D01*
X163788422Y-79254846D01*
X163739047Y-79180951D01*
X163623882Y-79104000D01*
X165241447Y-79104000D01*
X165416429Y-79278982D01*
X165870343Y-79467000D01*
X166361657Y-79467000D01*
X166815571Y-79278982D01*
X167162982Y-78931571D01*
X167351000Y-78477657D01*
X167351000Y-77986343D01*
X167162982Y-77532429D01*
X166815571Y-77185018D01*
X166361657Y-76997000D01*
X165989420Y-76997000D01*
X166037426Y-76925154D01*
X166460154Y-76502426D01*
X166534050Y-76453050D01*
X166729653Y-76160311D01*
X166781001Y-75902166D01*
X166781001Y-75902162D01*
X166798338Y-75815001D01*
X166781001Y-75727840D01*
X166781001Y-74785160D01*
X166798338Y-74698000D01*
X166781001Y-74610840D01*
X166781001Y-74610836D01*
X166729653Y-74352691D01*
X166657616Y-74244881D01*
X166583425Y-74133846D01*
X166583424Y-74133845D01*
X166534050Y-74059952D01*
X166460157Y-74010578D01*
X166266019Y-73816440D01*
X166464885Y-73816440D01*
X166518542Y-73870097D01*
X166822500Y-73996000D01*
X166933250Y-73996000D01*
X167139998Y-73789252D01*
X167139998Y-73996000D01*
G36*
X187965799Y-71619843D02*
X188132595Y-71882000D01*
X189484000Y-71882000D01*
X189484000Y-71862000D01*
X189738000Y-71862000D01*
X189738000Y-71882000D01*
X189758000Y-71882000D01*
X189758000Y-72136000D01*
X189738000Y-72136000D01*
X189738000Y-72156000D01*
X189484000Y-72156000D01*
X189484000Y-72136000D01*
X188132595Y-72136000D01*
X187965799Y-72398157D01*
X188172485Y-72897161D01*
X188621870Y-73380050D01*
X188646325Y-73391225D01*
X188530570Y-73468570D01*
X188399988Y-73664000D01*
X179686543Y-73664000D01*
X181788533Y-71562010D01*
X187989753Y-71562010D01*
X187965799Y-71619843D01*
X187965799Y-71619843D01*
G37*
X187965799Y-71619843D02*
X188132595Y-71882000D01*
X189484000Y-71882000D01*
X189484000Y-71862000D01*
X189738000Y-71862000D01*
X189738000Y-71882000D01*
X189758000Y-71882000D01*
X189758000Y-72136000D01*
X189738000Y-72136000D01*
X189738000Y-72156000D01*
X189484000Y-72156000D01*
X189484000Y-72136000D01*
X188132595Y-72136000D01*
X187965799Y-72398157D01*
X188172485Y-72897161D01*
X188621870Y-73380050D01*
X188646325Y-73391225D01*
X188530570Y-73468570D01*
X188399988Y-73664000D01*
X179686543Y-73664000D01*
X181788533Y-71562010D01*
X187989753Y-71562010D01*
X187965799Y-71619843D01*
G36*
X136051863Y-68660791D02*
X136838140Y-68642092D01*
X137327134Y-68439544D01*
X137153000Y-68859941D01*
X137153000Y-69570059D01*
X137424750Y-70226121D01*
X137926879Y-70728250D01*
X138153000Y-70821913D01*
X138153000Y-71327515D01*
X137911250Y-70743879D01*
X137409121Y-70241750D01*
X136753059Y-69970000D01*
X136042941Y-69970000D01*
X135386879Y-70241750D01*
X134884750Y-70743879D01*
X134613000Y-71399941D01*
X134613000Y-72110059D01*
X134884750Y-72766121D01*
X135386879Y-73268250D01*
X135663910Y-73383000D01*
X132243853Y-73383000D01*
X132166541Y-73367622D01*
X132089229Y-73383000D01*
X132089226Y-73383000D01*
X131860250Y-73428546D01*
X131666133Y-73558251D01*
X131666131Y-73558253D01*
X131600589Y-73602047D01*
X131556795Y-73667589D01*
X125127990Y-80096395D01*
X125062448Y-80140189D01*
X125018654Y-80205731D01*
X125018651Y-80205734D01*
X124888946Y-80399851D01*
X124828022Y-80706142D01*
X124843401Y-80783459D01*
X124843400Y-83222443D01*
X123636192Y-84429651D01*
X123620233Y-84405767D01*
X123486179Y-84316195D01*
X123601481Y-84192145D01*
X123805729Y-83699024D01*
X123638755Y-83439000D01*
X122301000Y-83439000D01*
X122301000Y-83459000D01*
X122047000Y-83459000D01*
X122047000Y-83439000D01*
X122027000Y-83439000D01*
X122027000Y-83185000D01*
X122047000Y-83185000D01*
X122047000Y-83165000D01*
X122301000Y-83165000D01*
X122301000Y-83185000D01*
X123638755Y-83185000D01*
X123805729Y-82924976D01*
X123601481Y-82431855D01*
X123259313Y-82063727D01*
X123383049Y-81981049D01*
X123753699Y-81426333D01*
X123883854Y-80772000D01*
X123807821Y-80389757D01*
X133287017Y-70910561D01*
X133502941Y-71000000D01*
X134213059Y-71000000D01*
X134869121Y-70728250D01*
X135371250Y-70226121D01*
X135643000Y-69570059D01*
X135643000Y-68859941D01*
X135466817Y-68434597D01*
X136051863Y-68660791D01*
X136051863Y-68660791D01*
G37*
X136051863Y-68660791D02*
X136838140Y-68642092D01*
X137327134Y-68439544D01*
X137153000Y-68859941D01*
X137153000Y-69570059D01*
X137424750Y-70226121D01*
X137926879Y-70728250D01*
X138153000Y-70821913D01*
X138153000Y-71327515D01*
X137911250Y-70743879D01*
X137409121Y-70241750D01*
X136753059Y-69970000D01*
X136042941Y-69970000D01*
X135386879Y-70241750D01*
X134884750Y-70743879D01*
X134613000Y-71399941D01*
X134613000Y-72110059D01*
X134884750Y-72766121D01*
X135386879Y-73268250D01*
X135663910Y-73383000D01*
X132243853Y-73383000D01*
X132166541Y-73367622D01*
X132089229Y-73383000D01*
X132089226Y-73383000D01*
X131860250Y-73428546D01*
X131666133Y-73558251D01*
X131666131Y-73558253D01*
X131600589Y-73602047D01*
X131556795Y-73667589D01*
X125127990Y-80096395D01*
X125062448Y-80140189D01*
X125018654Y-80205731D01*
X125018651Y-80205734D01*
X124888946Y-80399851D01*
X124828022Y-80706142D01*
X124843401Y-80783459D01*
X124843400Y-83222443D01*
X123636192Y-84429651D01*
X123620233Y-84405767D01*
X123486179Y-84316195D01*
X123601481Y-84192145D01*
X123805729Y-83699024D01*
X123638755Y-83439000D01*
X122301000Y-83439000D01*
X122301000Y-83459000D01*
X122047000Y-83459000D01*
X122047000Y-83439000D01*
X122027000Y-83439000D01*
X122027000Y-83185000D01*
X122047000Y-83185000D01*
X122047000Y-83165000D01*
X122301000Y-83165000D01*
X122301000Y-83185000D01*
X123638755Y-83185000D01*
X123805729Y-82924976D01*
X123601481Y-82431855D01*
X123259313Y-82063727D01*
X123383049Y-81981049D01*
X123753699Y-81426333D01*
X123883854Y-80772000D01*
X123807821Y-80389757D01*
X133287017Y-70910561D01*
X133502941Y-71000000D01*
X134213059Y-71000000D01*
X134869121Y-70728250D01*
X135371250Y-70226121D01*
X135643000Y-69570059D01*
X135643000Y-68859941D01*
X135466817Y-68434597D01*
X136051863Y-68660791D01*
G36*
X117703600Y-111304000D02*
X77926000Y-111304000D01*
X77926000Y-108976704D01*
X77928048Y-108987000D01*
X77928049Y-108987001D01*
X78112600Y-109263201D01*
X78182318Y-109309785D01*
X78597200Y-109724667D01*
X78597200Y-110024457D01*
X78785218Y-110478371D01*
X79132629Y-110825782D01*
X79586543Y-111013800D01*
X80077857Y-111013800D01*
X80531771Y-110825782D01*
X80879182Y-110478371D01*
X81067200Y-110024457D01*
X81067200Y-109533143D01*
X80879182Y-109079229D01*
X80531771Y-108731818D01*
X80077857Y-108543800D01*
X79778067Y-108543800D01*
X79549600Y-108315333D01*
X79549600Y-103977513D01*
X79556244Y-103981952D01*
X85333047Y-109758756D01*
X85382421Y-109832649D01*
X85456314Y-109882023D01*
X85456315Y-109882024D01*
X85567350Y-109956215D01*
X85675160Y-110028252D01*
X85933305Y-110079600D01*
X85933309Y-110079600D01*
X86020469Y-110096937D01*
X86107629Y-110079600D01*
X112104639Y-110079600D01*
X112191800Y-110096937D01*
X112199819Y-110095342D01*
X112232599Y-110144401D01*
X112773254Y-110505655D01*
X113250020Y-110600490D01*
X113571980Y-110600490D01*
X114048746Y-110505655D01*
X114589401Y-110144401D01*
X114950655Y-109603746D01*
X115077511Y-108966000D01*
X114950655Y-108328254D01*
X114589401Y-107787599D01*
X114452313Y-107696000D01*
X114589401Y-107604401D01*
X114950655Y-107063746D01*
X115077511Y-106426000D01*
X114950655Y-105788254D01*
X114589401Y-105247599D01*
X114452313Y-105156000D01*
X114589401Y-105064401D01*
X114950655Y-104523746D01*
X115077511Y-103886000D01*
X114950655Y-103248254D01*
X114589401Y-102707599D01*
X114452313Y-102616000D01*
X114589401Y-102524401D01*
X114950655Y-101983746D01*
X115077511Y-101346000D01*
X114950655Y-100708254D01*
X114589401Y-100167599D01*
X114452313Y-100076000D01*
X114589401Y-99984401D01*
X114950655Y-99443746D01*
X115077511Y-98806000D01*
X114950655Y-98168254D01*
X114589401Y-97627599D01*
X114452313Y-97536000D01*
X114589401Y-97444401D01*
X114950655Y-96903746D01*
X115077511Y-96266000D01*
X114950655Y-95628254D01*
X114589401Y-95087599D01*
X114452313Y-94996000D01*
X114589401Y-94904401D01*
X114950655Y-94363746D01*
X115077511Y-93726000D01*
X114950655Y-93088254D01*
X114589401Y-92547599D01*
X114452313Y-92456000D01*
X114589401Y-92364401D01*
X114950655Y-91823746D01*
X115077511Y-91186000D01*
X114950655Y-90548254D01*
X114589401Y-90007599D01*
X114452313Y-89916000D01*
X114589401Y-89824401D01*
X114950655Y-89283746D01*
X115077511Y-88646000D01*
X114950655Y-88008254D01*
X114589401Y-87467599D01*
X114452313Y-87376000D01*
X114589401Y-87284401D01*
X114950655Y-86743746D01*
X115077511Y-86106000D01*
X114950655Y-85468254D01*
X114589401Y-84927599D01*
X114421306Y-84815282D01*
X114734068Y-84525726D01*
X115000627Y-83946355D01*
X114881807Y-83693000D01*
X113538000Y-83693000D01*
X113538000Y-83713000D01*
X113284000Y-83713000D01*
X113284000Y-83693000D01*
X111940193Y-83693000D01*
X111821373Y-83946355D01*
X112087932Y-84525726D01*
X112400694Y-84815282D01*
X112232599Y-84927599D01*
X111871345Y-85468254D01*
X111744489Y-86106000D01*
X111871345Y-86743746D01*
X112232599Y-87284401D01*
X112369687Y-87376000D01*
X112232599Y-87467599D01*
X111871345Y-88008254D01*
X111744489Y-88646000D01*
X111871345Y-89283746D01*
X112232599Y-89824401D01*
X112369687Y-89916000D01*
X112232599Y-90007599D01*
X111871345Y-90548254D01*
X111744489Y-91186000D01*
X111871345Y-91823746D01*
X112232599Y-92364401D01*
X112369687Y-92456000D01*
X112232599Y-92547599D01*
X111871345Y-93088254D01*
X111744489Y-93726000D01*
X111871345Y-94363746D01*
X112232599Y-94904401D01*
X112369687Y-94996000D01*
X112232599Y-95087599D01*
X111871345Y-95628254D01*
X111744489Y-96266000D01*
X111871345Y-96903746D01*
X112232599Y-97444401D01*
X112369687Y-97536000D01*
X112232599Y-97627599D01*
X111871345Y-98168254D01*
X111744489Y-98806000D01*
X111871345Y-99443746D01*
X112232599Y-99984401D01*
X112369687Y-100076000D01*
X112232599Y-100167599D01*
X111871345Y-100708254D01*
X111744489Y-101346000D01*
X111871345Y-101983746D01*
X112232599Y-102524401D01*
X112369687Y-102616000D01*
X112232599Y-102707599D01*
X111871345Y-103248254D01*
X111744489Y-103886000D01*
X111871345Y-104523746D01*
X112232599Y-105064401D01*
X112369687Y-105156000D01*
X112232599Y-105247599D01*
X111871345Y-105788254D01*
X111744489Y-106426000D01*
X111871345Y-107063746D01*
X112232599Y-107604401D01*
X112369687Y-107696000D01*
X112232599Y-107787599D01*
X111943491Y-108220280D01*
X111809815Y-108309600D01*
X108026482Y-108309600D01*
X108108638Y-108227444D01*
X108388000Y-107553004D01*
X108388000Y-106822996D01*
X108108638Y-106148556D01*
X107592444Y-105632362D01*
X106918004Y-105353000D01*
X106187996Y-105353000D01*
X105513556Y-105632362D01*
X104997362Y-106148556D01*
X104718000Y-106822996D01*
X104718000Y-107553004D01*
X104997362Y-108227444D01*
X105079518Y-108309600D01*
X88976482Y-108309600D01*
X89058638Y-108227444D01*
X89338000Y-107553004D01*
X89338000Y-106822996D01*
X89058638Y-106148556D01*
X88542444Y-105632362D01*
X87868004Y-105353000D01*
X87137996Y-105353000D01*
X86463556Y-105632362D01*
X85947362Y-106148556D01*
X85668000Y-106822996D01*
X85668000Y-107553004D01*
X85694550Y-107617101D01*
X82066918Y-103989469D01*
X82422490Y-103822821D01*
X82800963Y-103408174D01*
X82993570Y-103696430D01*
X83489275Y-104027650D01*
X83926402Y-104114600D01*
X84221598Y-104114600D01*
X84416856Y-104075761D01*
X84437188Y-104089346D01*
X84437190Y-104089348D01*
X84495308Y-104128181D01*
X84631307Y-104219053D01*
X84860283Y-104264599D01*
X84860287Y-104264599D01*
X84937598Y-104279977D01*
X85014909Y-104264599D01*
X90505242Y-104264599D01*
X92728054Y-106487412D01*
X92771848Y-106552954D01*
X92837390Y-106596748D01*
X92837392Y-106596750D01*
X93031509Y-106726455D01*
X93260485Y-106772001D01*
X93260489Y-106772001D01*
X93337801Y-106787379D01*
X93415113Y-106772001D01*
X98151687Y-106772001D01*
X98228999Y-106787379D01*
X98306311Y-106772001D01*
X98306315Y-106772001D01*
X98535291Y-106726455D01*
X98794952Y-106552954D01*
X98838748Y-106487409D01*
X99186581Y-106139577D01*
X99264858Y-106172000D01*
X99871142Y-106172000D01*
X100431277Y-105939985D01*
X100688262Y-105683000D01*
X104774666Y-105683000D01*
X104876600Y-105703276D01*
X104978534Y-105683000D01*
X104978535Y-105683000D01*
X105280437Y-105622948D01*
X105622793Y-105394193D01*
X105680537Y-105307773D01*
X110692576Y-100295735D01*
X110778993Y-100237993D01*
X111007748Y-99895637D01*
X111067800Y-99593735D01*
X111067800Y-99593734D01*
X111088076Y-99491800D01*
X111067800Y-99389866D01*
X111067800Y-94894734D01*
X111088076Y-94792800D01*
X111055994Y-94631510D01*
X111007748Y-94388963D01*
X110778993Y-94046607D01*
X110692576Y-93988865D01*
X108712000Y-92008290D01*
X108712000Y-91887711D01*
X108736775Y-91862936D01*
X108823192Y-91805194D01*
X109051947Y-91462838D01*
X109111999Y-91160936D01*
X109111999Y-91160931D01*
X109132274Y-91059002D01*
X109111999Y-90957072D01*
X109111999Y-84989221D01*
X111819206Y-82282015D01*
X111953701Y-82483299D01*
X112108813Y-82586942D01*
X112087932Y-82606274D01*
X111821373Y-83185645D01*
X111940193Y-83439000D01*
X113284000Y-83439000D01*
X113284000Y-83419000D01*
X113538000Y-83419000D01*
X113538000Y-83439000D01*
X114881807Y-83439000D01*
X115000627Y-83185645D01*
X114734068Y-82606274D01*
X114713187Y-82586942D01*
X114868299Y-82483299D01*
X115008647Y-82273255D01*
X115057930Y-82025490D01*
X115057930Y-80026510D01*
X115008647Y-79778745D01*
X114868299Y-79568701D01*
X114658255Y-79428353D01*
X114410490Y-79379070D01*
X112411510Y-79379070D01*
X112163745Y-79428353D01*
X111953701Y-79568701D01*
X111813353Y-79778745D01*
X111771133Y-79991000D01*
X111713439Y-79991000D01*
X111611509Y-79970725D01*
X111509580Y-79991000D01*
X111509575Y-79991000D01*
X111207673Y-80051052D01*
X110865317Y-80279807D01*
X110807575Y-80366224D01*
X107417224Y-83756576D01*
X107330807Y-83814318D01*
X107273065Y-83900735D01*
X107102051Y-84156675D01*
X107021723Y-84560511D01*
X107042000Y-84662450D01*
X107041999Y-90424000D01*
X106884858Y-90424000D01*
X106324723Y-90656015D01*
X105896015Y-91084723D01*
X105664000Y-91644858D01*
X105664000Y-92251142D01*
X105896015Y-92811277D01*
X106302738Y-93218000D01*
X105917738Y-93603000D01*
X94047563Y-93603000D01*
X92201878Y-91757316D01*
X92201878Y-86564858D01*
X92329000Y-86564858D01*
X92329000Y-87171142D01*
X92561015Y-87731277D01*
X92989723Y-88159985D01*
X93549858Y-88392000D01*
X94156142Y-88392000D01*
X94716277Y-88159985D01*
X95144985Y-87731277D01*
X95377000Y-87171142D01*
X95377000Y-86564858D01*
X98679000Y-86564858D01*
X98679000Y-87171142D01*
X98911015Y-87731277D01*
X99339723Y-88159985D01*
X99899858Y-88392000D01*
X100506142Y-88392000D01*
X101066277Y-88159985D01*
X101494985Y-87731277D01*
X101604520Y-87466834D01*
X102870000Y-87466834D01*
X102870000Y-88174166D01*
X103140684Y-88827656D01*
X103640844Y-89327816D01*
X104294334Y-89598500D01*
X105001666Y-89598500D01*
X105655156Y-89327816D01*
X106155316Y-88827656D01*
X106426000Y-88174166D01*
X106426000Y-87466834D01*
X106155316Y-86813344D01*
X105655156Y-86313184D01*
X105001666Y-86042500D01*
X104294334Y-86042500D01*
X103640844Y-86313184D01*
X103140684Y-86813344D01*
X102870000Y-87466834D01*
X101604520Y-87466834D01*
X101727000Y-87171142D01*
X101727000Y-86564858D01*
X101494985Y-86004723D01*
X101066277Y-85576015D01*
X100506142Y-85344000D01*
X99899858Y-85344000D01*
X99339723Y-85576015D01*
X98911015Y-86004723D01*
X98679000Y-86564858D01*
X95377000Y-86564858D01*
X95144985Y-86004723D01*
X94716277Y-85576015D01*
X94156142Y-85344000D01*
X93549858Y-85344000D01*
X92989723Y-85576015D01*
X92561015Y-86004723D01*
X92329000Y-86564858D01*
X92201878Y-86564858D01*
X92201878Y-86548759D01*
X92219215Y-86461599D01*
X92201878Y-86374439D01*
X92201878Y-86374435D01*
X92150530Y-86116290D01*
X92066071Y-85989889D01*
X92004302Y-85897445D01*
X92004301Y-85897444D01*
X91954927Y-85823551D01*
X91881034Y-85774177D01*
X90607303Y-84500447D01*
X90557927Y-84426551D01*
X90265188Y-84230948D01*
X90007043Y-84179600D01*
X90007039Y-84179600D01*
X89919878Y-84162263D01*
X89832717Y-84179600D01*
X83755357Y-84179600D01*
X83668197Y-84162263D01*
X83581037Y-84179600D01*
X83581033Y-84179600D01*
X83322888Y-84230948D01*
X83322886Y-84230949D01*
X83322887Y-84230949D01*
X83104043Y-84377176D01*
X83104042Y-84377177D01*
X83030149Y-84426551D01*
X82980775Y-84500444D01*
X81833445Y-85647775D01*
X81759550Y-85697150D01*
X81639110Y-85877400D01*
X81386402Y-85877400D01*
X80949275Y-85964350D01*
X80453570Y-86295570D01*
X80122350Y-86791275D01*
X80006041Y-87376000D01*
X80122350Y-87960725D01*
X80453570Y-88456430D01*
X80737281Y-88646000D01*
X80453570Y-88835570D01*
X80122350Y-89331275D01*
X80006041Y-89916000D01*
X80122350Y-90500725D01*
X80453570Y-90996430D01*
X80737281Y-91186000D01*
X80453570Y-91375570D01*
X80122350Y-91871275D01*
X80006041Y-92456000D01*
X80122350Y-93040725D01*
X80453570Y-93536430D01*
X80737281Y-93726000D01*
X80453570Y-93915570D01*
X80122350Y-94411275D01*
X80006041Y-94996000D01*
X80122350Y-95580725D01*
X80453570Y-96076430D01*
X80737281Y-96266000D01*
X80453570Y-96455570D01*
X80122350Y-96951275D01*
X80006041Y-97536000D01*
X80122350Y-98120725D01*
X80234926Y-98289206D01*
X78182320Y-100341813D01*
X78112599Y-100388399D01*
X77928048Y-100664600D01*
X77926000Y-100674896D01*
X77926000Y-81422996D01*
X85668000Y-81422996D01*
X85668000Y-82153004D01*
X85947362Y-82827444D01*
X86463556Y-83343638D01*
X87137996Y-83623000D01*
X87868004Y-83623000D01*
X88542444Y-83343638D01*
X89058638Y-82827444D01*
X89338000Y-82153004D01*
X89338000Y-81484858D01*
X92329000Y-81484858D01*
X92329000Y-82091142D01*
X92561015Y-82651277D01*
X92989723Y-83079985D01*
X93549858Y-83312000D01*
X94156142Y-83312000D01*
X94716277Y-83079985D01*
X95144985Y-82651277D01*
X95377000Y-82091142D01*
X95377000Y-81484858D01*
X98679000Y-81484858D01*
X98679000Y-82091142D01*
X98911015Y-82651277D01*
X99339723Y-83079985D01*
X99899858Y-83312000D01*
X100506142Y-83312000D01*
X101066277Y-83079985D01*
X101494985Y-82651277D01*
X101727000Y-82091142D01*
X101727000Y-81484858D01*
X101701376Y-81422996D01*
X104718000Y-81422996D01*
X104718000Y-82153004D01*
X104997362Y-82827444D01*
X105513556Y-83343638D01*
X106187996Y-83623000D01*
X106918004Y-83623000D01*
X107592444Y-83343638D01*
X108108638Y-82827444D01*
X108388000Y-82153004D01*
X108388000Y-81422996D01*
X108108638Y-80748556D01*
X107592444Y-80232362D01*
X106918004Y-79953000D01*
X106187996Y-79953000D01*
X105513556Y-80232362D01*
X104997362Y-80748556D01*
X104718000Y-81422996D01*
X101701376Y-81422996D01*
X101494985Y-80924723D01*
X101066277Y-80496015D01*
X100506142Y-80264000D01*
X99899858Y-80264000D01*
X99339723Y-80496015D01*
X98911015Y-80924723D01*
X98679000Y-81484858D01*
X95377000Y-81484858D01*
X95144985Y-80924723D01*
X94716277Y-80496015D01*
X94156142Y-80264000D01*
X93549858Y-80264000D01*
X92989723Y-80496015D01*
X92561015Y-80924723D01*
X92329000Y-81484858D01*
X89338000Y-81484858D01*
X89338000Y-81422996D01*
X89058638Y-80748556D01*
X88542444Y-80232362D01*
X87868004Y-79953000D01*
X87137996Y-79953000D01*
X86463556Y-80232362D01*
X85947362Y-80748556D01*
X85668000Y-81422996D01*
X77926000Y-81422996D01*
X77926000Y-77698600D01*
X117703600Y-77698600D01*
X117703600Y-111304000D01*
X117703600Y-111304000D01*
G37*
X117703600Y-111304000D02*
X77926000Y-111304000D01*
X77926000Y-108976704D01*
X77928048Y-108987000D01*
X77928049Y-108987001D01*
X78112600Y-109263201D01*
X78182318Y-109309785D01*
X78597200Y-109724667D01*
X78597200Y-110024457D01*
X78785218Y-110478371D01*
X79132629Y-110825782D01*
X79586543Y-111013800D01*
X80077857Y-111013800D01*
X80531771Y-110825782D01*
X80879182Y-110478371D01*
X81067200Y-110024457D01*
X81067200Y-109533143D01*
X80879182Y-109079229D01*
X80531771Y-108731818D01*
X80077857Y-108543800D01*
X79778067Y-108543800D01*
X79549600Y-108315333D01*
X79549600Y-103977513D01*
X79556244Y-103981952D01*
X85333047Y-109758756D01*
X85382421Y-109832649D01*
X85456314Y-109882023D01*
X85456315Y-109882024D01*
X85567350Y-109956215D01*
X85675160Y-110028252D01*
X85933305Y-110079600D01*
X85933309Y-110079600D01*
X86020469Y-110096937D01*
X86107629Y-110079600D01*
X112104639Y-110079600D01*
X112191800Y-110096937D01*
X112199819Y-110095342D01*
X112232599Y-110144401D01*
X112773254Y-110505655D01*
X113250020Y-110600490D01*
X113571980Y-110600490D01*
X114048746Y-110505655D01*
X114589401Y-110144401D01*
X114950655Y-109603746D01*
X115077511Y-108966000D01*
X114950655Y-108328254D01*
X114589401Y-107787599D01*
X114452313Y-107696000D01*
X114589401Y-107604401D01*
X114950655Y-107063746D01*
X115077511Y-106426000D01*
X114950655Y-105788254D01*
X114589401Y-105247599D01*
X114452313Y-105156000D01*
X114589401Y-105064401D01*
X114950655Y-104523746D01*
X115077511Y-103886000D01*
X114950655Y-103248254D01*
X114589401Y-102707599D01*
X114452313Y-102616000D01*
X114589401Y-102524401D01*
X114950655Y-101983746D01*
X115077511Y-101346000D01*
X114950655Y-100708254D01*
X114589401Y-100167599D01*
X114452313Y-100076000D01*
X114589401Y-99984401D01*
X114950655Y-99443746D01*
X115077511Y-98806000D01*
X114950655Y-98168254D01*
X114589401Y-97627599D01*
X114452313Y-97536000D01*
X114589401Y-97444401D01*
X114950655Y-96903746D01*
X115077511Y-96266000D01*
X114950655Y-95628254D01*
X114589401Y-95087599D01*
X114452313Y-94996000D01*
X114589401Y-94904401D01*
X114950655Y-94363746D01*
X115077511Y-93726000D01*
X114950655Y-93088254D01*
X114589401Y-92547599D01*
X114452313Y-92456000D01*
X114589401Y-92364401D01*
X114950655Y-91823746D01*
X115077511Y-91186000D01*
X114950655Y-90548254D01*
X114589401Y-90007599D01*
X114452313Y-89916000D01*
X114589401Y-89824401D01*
X114950655Y-89283746D01*
X115077511Y-88646000D01*
X114950655Y-88008254D01*
X114589401Y-87467599D01*
X114452313Y-87376000D01*
X114589401Y-87284401D01*
X114950655Y-86743746D01*
X115077511Y-86106000D01*
X114950655Y-85468254D01*
X114589401Y-84927599D01*
X114421306Y-84815282D01*
X114734068Y-84525726D01*
X115000627Y-83946355D01*
X114881807Y-83693000D01*
X113538000Y-83693000D01*
X113538000Y-83713000D01*
X113284000Y-83713000D01*
X113284000Y-83693000D01*
X111940193Y-83693000D01*
X111821373Y-83946355D01*
X112087932Y-84525726D01*
X112400694Y-84815282D01*
X112232599Y-84927599D01*
X111871345Y-85468254D01*
X111744489Y-86106000D01*
X111871345Y-86743746D01*
X112232599Y-87284401D01*
X112369687Y-87376000D01*
X112232599Y-87467599D01*
X111871345Y-88008254D01*
X111744489Y-88646000D01*
X111871345Y-89283746D01*
X112232599Y-89824401D01*
X112369687Y-89916000D01*
X112232599Y-90007599D01*
X111871345Y-90548254D01*
X111744489Y-91186000D01*
X111871345Y-91823746D01*
X112232599Y-92364401D01*
X112369687Y-92456000D01*
X112232599Y-92547599D01*
X111871345Y-93088254D01*
X111744489Y-93726000D01*
X111871345Y-94363746D01*
X112232599Y-94904401D01*
X112369687Y-94996000D01*
X112232599Y-95087599D01*
X111871345Y-95628254D01*
X111744489Y-96266000D01*
X111871345Y-96903746D01*
X112232599Y-97444401D01*
X112369687Y-97536000D01*
X112232599Y-97627599D01*
X111871345Y-98168254D01*
X111744489Y-98806000D01*
X111871345Y-99443746D01*
X112232599Y-99984401D01*
X112369687Y-100076000D01*
X112232599Y-100167599D01*
X111871345Y-100708254D01*
X111744489Y-101346000D01*
X111871345Y-101983746D01*
X112232599Y-102524401D01*
X112369687Y-102616000D01*
X112232599Y-102707599D01*
X111871345Y-103248254D01*
X111744489Y-103886000D01*
X111871345Y-104523746D01*
X112232599Y-105064401D01*
X112369687Y-105156000D01*
X112232599Y-105247599D01*
X111871345Y-105788254D01*
X111744489Y-106426000D01*
X111871345Y-107063746D01*
X112232599Y-107604401D01*
X112369687Y-107696000D01*
X112232599Y-107787599D01*
X111943491Y-108220280D01*
X111809815Y-108309600D01*
X108026482Y-108309600D01*
X108108638Y-108227444D01*
X108388000Y-107553004D01*
X108388000Y-106822996D01*
X108108638Y-106148556D01*
X107592444Y-105632362D01*
X106918004Y-105353000D01*
X106187996Y-105353000D01*
X105513556Y-105632362D01*
X104997362Y-106148556D01*
X104718000Y-106822996D01*
X104718000Y-107553004D01*
X104997362Y-108227444D01*
X105079518Y-108309600D01*
X88976482Y-108309600D01*
X89058638Y-108227444D01*
X89338000Y-107553004D01*
X89338000Y-106822996D01*
X89058638Y-106148556D01*
X88542444Y-105632362D01*
X87868004Y-105353000D01*
X87137996Y-105353000D01*
X86463556Y-105632362D01*
X85947362Y-106148556D01*
X85668000Y-106822996D01*
X85668000Y-107553004D01*
X85694550Y-107617101D01*
X82066918Y-103989469D01*
X82422490Y-103822821D01*
X82800963Y-103408174D01*
X82993570Y-103696430D01*
X83489275Y-104027650D01*
X83926402Y-104114600D01*
X84221598Y-104114600D01*
X84416856Y-104075761D01*
X84437188Y-104089346D01*
X84437190Y-104089348D01*
X84495308Y-104128181D01*
X84631307Y-104219053D01*
X84860283Y-104264599D01*
X84860287Y-104264599D01*
X84937598Y-104279977D01*
X85014909Y-104264599D01*
X90505242Y-104264599D01*
X92728054Y-106487412D01*
X92771848Y-106552954D01*
X92837390Y-106596748D01*
X92837392Y-106596750D01*
X93031509Y-106726455D01*
X93260485Y-106772001D01*
X93260489Y-106772001D01*
X93337801Y-106787379D01*
X93415113Y-106772001D01*
X98151687Y-106772001D01*
X98228999Y-106787379D01*
X98306311Y-106772001D01*
X98306315Y-106772001D01*
X98535291Y-106726455D01*
X98794952Y-106552954D01*
X98838748Y-106487409D01*
X99186581Y-106139577D01*
X99264858Y-106172000D01*
X99871142Y-106172000D01*
X100431277Y-105939985D01*
X100688262Y-105683000D01*
X104774666Y-105683000D01*
X104876600Y-105703276D01*
X104978534Y-105683000D01*
X104978535Y-105683000D01*
X105280437Y-105622948D01*
X105622793Y-105394193D01*
X105680537Y-105307773D01*
X110692576Y-100295735D01*
X110778993Y-100237993D01*
X111007748Y-99895637D01*
X111067800Y-99593735D01*
X111067800Y-99593734D01*
X111088076Y-99491800D01*
X111067800Y-99389866D01*
X111067800Y-94894734D01*
X111088076Y-94792800D01*
X111055994Y-94631510D01*
X111007748Y-94388963D01*
X110778993Y-94046607D01*
X110692576Y-93988865D01*
X108712000Y-92008290D01*
X108712000Y-91887711D01*
X108736775Y-91862936D01*
X108823192Y-91805194D01*
X109051947Y-91462838D01*
X109111999Y-91160936D01*
X109111999Y-91160931D01*
X109132274Y-91059002D01*
X109111999Y-90957072D01*
X109111999Y-84989221D01*
X111819206Y-82282015D01*
X111953701Y-82483299D01*
X112108813Y-82586942D01*
X112087932Y-82606274D01*
X111821373Y-83185645D01*
X111940193Y-83439000D01*
X113284000Y-83439000D01*
X113284000Y-83419000D01*
X113538000Y-83419000D01*
X113538000Y-83439000D01*
X114881807Y-83439000D01*
X115000627Y-83185645D01*
X114734068Y-82606274D01*
X114713187Y-82586942D01*
X114868299Y-82483299D01*
X115008647Y-82273255D01*
X115057930Y-82025490D01*
X115057930Y-80026510D01*
X115008647Y-79778745D01*
X114868299Y-79568701D01*
X114658255Y-79428353D01*
X114410490Y-79379070D01*
X112411510Y-79379070D01*
X112163745Y-79428353D01*
X111953701Y-79568701D01*
X111813353Y-79778745D01*
X111771133Y-79991000D01*
X111713439Y-79991000D01*
X111611509Y-79970725D01*
X111509580Y-79991000D01*
X111509575Y-79991000D01*
X111207673Y-80051052D01*
X110865317Y-80279807D01*
X110807575Y-80366224D01*
X107417224Y-83756576D01*
X107330807Y-83814318D01*
X107273065Y-83900735D01*
X107102051Y-84156675D01*
X107021723Y-84560511D01*
X107042000Y-84662450D01*
X107041999Y-90424000D01*
X106884858Y-90424000D01*
X106324723Y-90656015D01*
X105896015Y-91084723D01*
X105664000Y-91644858D01*
X105664000Y-92251142D01*
X105896015Y-92811277D01*
X106302738Y-93218000D01*
X105917738Y-93603000D01*
X94047563Y-93603000D01*
X92201878Y-91757316D01*
X92201878Y-86564858D01*
X92329000Y-86564858D01*
X92329000Y-87171142D01*
X92561015Y-87731277D01*
X92989723Y-88159985D01*
X93549858Y-88392000D01*
X94156142Y-88392000D01*
X94716277Y-88159985D01*
X95144985Y-87731277D01*
X95377000Y-87171142D01*
X95377000Y-86564858D01*
X98679000Y-86564858D01*
X98679000Y-87171142D01*
X98911015Y-87731277D01*
X99339723Y-88159985D01*
X99899858Y-88392000D01*
X100506142Y-88392000D01*
X101066277Y-88159985D01*
X101494985Y-87731277D01*
X101604520Y-87466834D01*
X102870000Y-87466834D01*
X102870000Y-88174166D01*
X103140684Y-88827656D01*
X103640844Y-89327816D01*
X104294334Y-89598500D01*
X105001666Y-89598500D01*
X105655156Y-89327816D01*
X106155316Y-88827656D01*
X106426000Y-88174166D01*
X106426000Y-87466834D01*
X106155316Y-86813344D01*
X105655156Y-86313184D01*
X105001666Y-86042500D01*
X104294334Y-86042500D01*
X103640844Y-86313184D01*
X103140684Y-86813344D01*
X102870000Y-87466834D01*
X101604520Y-87466834D01*
X101727000Y-87171142D01*
X101727000Y-86564858D01*
X101494985Y-86004723D01*
X101066277Y-85576015D01*
X100506142Y-85344000D01*
X99899858Y-85344000D01*
X99339723Y-85576015D01*
X98911015Y-86004723D01*
X98679000Y-86564858D01*
X95377000Y-86564858D01*
X95144985Y-86004723D01*
X94716277Y-85576015D01*
X94156142Y-85344000D01*
X93549858Y-85344000D01*
X92989723Y-85576015D01*
X92561015Y-86004723D01*
X92329000Y-86564858D01*
X92201878Y-86564858D01*
X92201878Y-86548759D01*
X92219215Y-86461599D01*
X92201878Y-86374439D01*
X92201878Y-86374435D01*
X92150530Y-86116290D01*
X92066071Y-85989889D01*
X92004302Y-85897445D01*
X92004301Y-85897444D01*
X91954927Y-85823551D01*
X91881034Y-85774177D01*
X90607303Y-84500447D01*
X90557927Y-84426551D01*
X90265188Y-84230948D01*
X90007043Y-84179600D01*
X90007039Y-84179600D01*
X89919878Y-84162263D01*
X89832717Y-84179600D01*
X83755357Y-84179600D01*
X83668197Y-84162263D01*
X83581037Y-84179600D01*
X83581033Y-84179600D01*
X83322888Y-84230948D01*
X83322886Y-84230949D01*
X83322887Y-84230949D01*
X83104043Y-84377176D01*
X83104042Y-84377177D01*
X83030149Y-84426551D01*
X82980775Y-84500444D01*
X81833445Y-85647775D01*
X81759550Y-85697150D01*
X81639110Y-85877400D01*
X81386402Y-85877400D01*
X80949275Y-85964350D01*
X80453570Y-86295570D01*
X80122350Y-86791275D01*
X80006041Y-87376000D01*
X80122350Y-87960725D01*
X80453570Y-88456430D01*
X80737281Y-88646000D01*
X80453570Y-88835570D01*
X80122350Y-89331275D01*
X80006041Y-89916000D01*
X80122350Y-90500725D01*
X80453570Y-90996430D01*
X80737281Y-91186000D01*
X80453570Y-91375570D01*
X80122350Y-91871275D01*
X80006041Y-92456000D01*
X80122350Y-93040725D01*
X80453570Y-93536430D01*
X80737281Y-93726000D01*
X80453570Y-93915570D01*
X80122350Y-94411275D01*
X80006041Y-94996000D01*
X80122350Y-95580725D01*
X80453570Y-96076430D01*
X80737281Y-96266000D01*
X80453570Y-96455570D01*
X80122350Y-96951275D01*
X80006041Y-97536000D01*
X80122350Y-98120725D01*
X80234926Y-98289206D01*
X78182320Y-100341813D01*
X78112599Y-100388399D01*
X77928048Y-100664600D01*
X77926000Y-100674896D01*
X77926000Y-81422996D01*
X85668000Y-81422996D01*
X85668000Y-82153004D01*
X85947362Y-82827444D01*
X86463556Y-83343638D01*
X87137996Y-83623000D01*
X87868004Y-83623000D01*
X88542444Y-83343638D01*
X89058638Y-82827444D01*
X89338000Y-82153004D01*
X89338000Y-81484858D01*
X92329000Y-81484858D01*
X92329000Y-82091142D01*
X92561015Y-82651277D01*
X92989723Y-83079985D01*
X93549858Y-83312000D01*
X94156142Y-83312000D01*
X94716277Y-83079985D01*
X95144985Y-82651277D01*
X95377000Y-82091142D01*
X95377000Y-81484858D01*
X98679000Y-81484858D01*
X98679000Y-82091142D01*
X98911015Y-82651277D01*
X99339723Y-83079985D01*
X99899858Y-83312000D01*
X100506142Y-83312000D01*
X101066277Y-83079985D01*
X101494985Y-82651277D01*
X101727000Y-82091142D01*
X101727000Y-81484858D01*
X101701376Y-81422996D01*
X104718000Y-81422996D01*
X104718000Y-82153004D01*
X104997362Y-82827444D01*
X105513556Y-83343638D01*
X106187996Y-83623000D01*
X106918004Y-83623000D01*
X107592444Y-83343638D01*
X108108638Y-82827444D01*
X108388000Y-82153004D01*
X108388000Y-81422996D01*
X108108638Y-80748556D01*
X107592444Y-80232362D01*
X106918004Y-79953000D01*
X106187996Y-79953000D01*
X105513556Y-80232362D01*
X104997362Y-80748556D01*
X104718000Y-81422996D01*
X101701376Y-81422996D01*
X101494985Y-80924723D01*
X101066277Y-80496015D01*
X100506142Y-80264000D01*
X99899858Y-80264000D01*
X99339723Y-80496015D01*
X98911015Y-80924723D01*
X98679000Y-81484858D01*
X95377000Y-81484858D01*
X95144985Y-80924723D01*
X94716277Y-80496015D01*
X94156142Y-80264000D01*
X93549858Y-80264000D01*
X92989723Y-80496015D01*
X92561015Y-80924723D01*
X92329000Y-81484858D01*
X89338000Y-81484858D01*
X89338000Y-81422996D01*
X89058638Y-80748556D01*
X88542444Y-80232362D01*
X87868004Y-79953000D01*
X87137996Y-79953000D01*
X86463556Y-80232362D01*
X85947362Y-80748556D01*
X85668000Y-81422996D01*
X77926000Y-81422996D01*
X77926000Y-77698600D01*
X117703600Y-77698600D01*
X117703600Y-111304000D01*
G36*
X95254002Y-98443981D02*
X95254001Y-103305294D01*
X94726035Y-103112484D01*
X94120300Y-103138277D01*
X93680467Y-103320461D01*
X93595409Y-103575804D01*
X94488000Y-104468395D01*
X94502143Y-104454253D01*
X94681748Y-104633858D01*
X94667605Y-104648000D01*
X94681748Y-104662143D01*
X94502143Y-104841748D01*
X94488000Y-104827605D01*
X94473858Y-104841748D01*
X94294253Y-104662143D01*
X94308395Y-104648000D01*
X93415804Y-103755409D01*
X93160461Y-103840467D01*
X92952484Y-104409965D01*
X92956111Y-104495154D01*
X91440147Y-102979190D01*
X91396352Y-102913646D01*
X91136691Y-102740145D01*
X90907715Y-102694599D01*
X90907711Y-102694599D01*
X90830399Y-102679221D01*
X90753087Y-102694599D01*
X90338425Y-102694599D01*
X90415156Y-102662816D01*
X90915316Y-102162656D01*
X91186000Y-101509166D01*
X91186000Y-100801834D01*
X90915316Y-100148344D01*
X90415156Y-99648184D01*
X89761666Y-99377500D01*
X89054334Y-99377500D01*
X88400844Y-99648184D01*
X87900684Y-100148344D01*
X87630000Y-100801834D01*
X87630000Y-101509166D01*
X87900684Y-102162656D01*
X88400844Y-102662816D01*
X88477575Y-102694599D01*
X85586325Y-102694599D01*
X85601959Y-102616000D01*
X85485650Y-102031275D01*
X85154430Y-101535570D01*
X84870719Y-101346000D01*
X85154430Y-101156430D01*
X85485650Y-100660725D01*
X85601959Y-100076000D01*
X85485650Y-99491275D01*
X85154430Y-98995570D01*
X84870719Y-98806000D01*
X85154430Y-98616430D01*
X85485650Y-98120725D01*
X85601959Y-97536000D01*
X85485650Y-96951275D01*
X85154430Y-96455570D01*
X84870719Y-96266000D01*
X85154430Y-96076430D01*
X85485650Y-95580725D01*
X85601959Y-94996000D01*
X85485650Y-94411275D01*
X85154430Y-93915570D01*
X84870719Y-93726000D01*
X85154430Y-93536430D01*
X85485650Y-93040725D01*
X85601959Y-92456000D01*
X85485650Y-91871275D01*
X85154430Y-91375570D01*
X84870719Y-91186000D01*
X85154430Y-90996430D01*
X85485650Y-90500725D01*
X85601959Y-89916000D01*
X85485650Y-89331275D01*
X85159349Y-88842932D01*
X85185365Y-88837757D01*
X85395409Y-88697409D01*
X85440279Y-88630257D01*
X95254002Y-98443981D01*
X95254002Y-98443981D01*
G37*
X95254002Y-98443981D02*
X95254001Y-103305294D01*
X94726035Y-103112484D01*
X94120300Y-103138277D01*
X93680467Y-103320461D01*
X93595409Y-103575804D01*
X94488000Y-104468395D01*
X94502143Y-104454253D01*
X94681748Y-104633858D01*
X94667605Y-104648000D01*
X94681748Y-104662143D01*
X94502143Y-104841748D01*
X94488000Y-104827605D01*
X94473858Y-104841748D01*
X94294253Y-104662143D01*
X94308395Y-104648000D01*
X93415804Y-103755409D01*
X93160461Y-103840467D01*
X92952484Y-104409965D01*
X92956111Y-104495154D01*
X91440147Y-102979190D01*
X91396352Y-102913646D01*
X91136691Y-102740145D01*
X90907715Y-102694599D01*
X90907711Y-102694599D01*
X90830399Y-102679221D01*
X90753087Y-102694599D01*
X90338425Y-102694599D01*
X90415156Y-102662816D01*
X90915316Y-102162656D01*
X91186000Y-101509166D01*
X91186000Y-100801834D01*
X90915316Y-100148344D01*
X90415156Y-99648184D01*
X89761666Y-99377500D01*
X89054334Y-99377500D01*
X88400844Y-99648184D01*
X87900684Y-100148344D01*
X87630000Y-100801834D01*
X87630000Y-101509166D01*
X87900684Y-102162656D01*
X88400844Y-102662816D01*
X88477575Y-102694599D01*
X85586325Y-102694599D01*
X85601959Y-102616000D01*
X85485650Y-102031275D01*
X85154430Y-101535570D01*
X84870719Y-101346000D01*
X85154430Y-101156430D01*
X85485650Y-100660725D01*
X85601959Y-100076000D01*
X85485650Y-99491275D01*
X85154430Y-98995570D01*
X84870719Y-98806000D01*
X85154430Y-98616430D01*
X85485650Y-98120725D01*
X85601959Y-97536000D01*
X85485650Y-96951275D01*
X85154430Y-96455570D01*
X84870719Y-96266000D01*
X85154430Y-96076430D01*
X85485650Y-95580725D01*
X85601959Y-94996000D01*
X85485650Y-94411275D01*
X85154430Y-93915570D01*
X84870719Y-93726000D01*
X85154430Y-93536430D01*
X85485650Y-93040725D01*
X85601959Y-92456000D01*
X85485650Y-91871275D01*
X85154430Y-91375570D01*
X84870719Y-91186000D01*
X85154430Y-90996430D01*
X85485650Y-90500725D01*
X85601959Y-89916000D01*
X85485650Y-89331275D01*
X85159349Y-88842932D01*
X85185365Y-88837757D01*
X85395409Y-88697409D01*
X85440279Y-88630257D01*
X95254002Y-98443981D01*
G36*
X108997801Y-95221512D02*
X108997800Y-99063089D01*
X106337100Y-101723789D01*
X106426000Y-101509166D01*
X106426000Y-100801834D01*
X106155316Y-100148344D01*
X105655156Y-99648184D01*
X105001666Y-99377500D01*
X104294334Y-99377500D01*
X103640844Y-99648184D01*
X103140684Y-100148344D01*
X102870000Y-100801834D01*
X102870000Y-101509166D01*
X103140684Y-102162656D01*
X103640844Y-102662816D01*
X104294334Y-102933500D01*
X105001666Y-102933500D01*
X105216290Y-102844600D01*
X104447890Y-103613000D01*
X100688262Y-103613000D01*
X100431277Y-103356015D01*
X99871142Y-103124000D01*
X99264858Y-103124000D01*
X98704723Y-103356015D01*
X98298000Y-103762738D01*
X97891277Y-103356015D01*
X97331142Y-103124000D01*
X97024001Y-103124000D01*
X97024001Y-98164560D01*
X97036803Y-98100196D01*
X106295409Y-98100196D01*
X106380467Y-98355539D01*
X106949965Y-98563516D01*
X107555700Y-98537723D01*
X107995533Y-98355539D01*
X108080591Y-98100196D01*
X107188000Y-97207605D01*
X106295409Y-98100196D01*
X97036803Y-98100196D01*
X97041338Y-98077400D01*
X97024001Y-97990240D01*
X97024001Y-97990236D01*
X96972653Y-97732091D01*
X96900616Y-97624281D01*
X96826425Y-97513246D01*
X96826424Y-97513245D01*
X96777050Y-97439352D01*
X96703157Y-97389978D01*
X96103144Y-96789965D01*
X105652484Y-96789965D01*
X105678277Y-97395700D01*
X105860461Y-97835533D01*
X106115804Y-97920591D01*
X107008395Y-97028000D01*
X107367605Y-97028000D01*
X108260196Y-97920591D01*
X108515539Y-97835533D01*
X108723516Y-97266035D01*
X108697723Y-96660300D01*
X108515539Y-96220467D01*
X108260196Y-96135409D01*
X107367605Y-97028000D01*
X107008395Y-97028000D01*
X106115804Y-96135409D01*
X105860461Y-96220467D01*
X105652484Y-96789965D01*
X96103144Y-96789965D01*
X94686179Y-95373000D01*
X105917738Y-95373000D01*
X106324723Y-95779985D01*
X106350430Y-95790633D01*
X106295409Y-95955804D01*
X107188000Y-96848395D01*
X108080591Y-95955804D01*
X108025570Y-95790633D01*
X108051277Y-95779985D01*
X108479985Y-95351277D01*
X108669657Y-94893368D01*
X108997801Y-95221512D01*
X108997801Y-95221512D01*
G37*
X108997801Y-95221512D02*
X108997800Y-99063089D01*
X106337100Y-101723789D01*
X106426000Y-101509166D01*
X106426000Y-100801834D01*
X106155316Y-100148344D01*
X105655156Y-99648184D01*
X105001666Y-99377500D01*
X104294334Y-99377500D01*
X103640844Y-99648184D01*
X103140684Y-100148344D01*
X102870000Y-100801834D01*
X102870000Y-101509166D01*
X103140684Y-102162656D01*
X103640844Y-102662816D01*
X104294334Y-102933500D01*
X105001666Y-102933500D01*
X105216290Y-102844600D01*
X104447890Y-103613000D01*
X100688262Y-103613000D01*
X100431277Y-103356015D01*
X99871142Y-103124000D01*
X99264858Y-103124000D01*
X98704723Y-103356015D01*
X98298000Y-103762738D01*
X97891277Y-103356015D01*
X97331142Y-103124000D01*
X97024001Y-103124000D01*
X97024001Y-98164560D01*
X97036803Y-98100196D01*
X106295409Y-98100196D01*
X106380467Y-98355539D01*
X106949965Y-98563516D01*
X107555700Y-98537723D01*
X107995533Y-98355539D01*
X108080591Y-98100196D01*
X107188000Y-97207605D01*
X106295409Y-98100196D01*
X97036803Y-98100196D01*
X97041338Y-98077400D01*
X97024001Y-97990240D01*
X97024001Y-97990236D01*
X96972653Y-97732091D01*
X96900616Y-97624281D01*
X96826425Y-97513246D01*
X96826424Y-97513245D01*
X96777050Y-97439352D01*
X96703157Y-97389978D01*
X96103144Y-96789965D01*
X105652484Y-96789965D01*
X105678277Y-97395700D01*
X105860461Y-97835533D01*
X106115804Y-97920591D01*
X107008395Y-97028000D01*
X107367605Y-97028000D01*
X108260196Y-97920591D01*
X108515539Y-97835533D01*
X108723516Y-97266035D01*
X108697723Y-96660300D01*
X108515539Y-96220467D01*
X108260196Y-96135409D01*
X107367605Y-97028000D01*
X107008395Y-97028000D01*
X106115804Y-96135409D01*
X105860461Y-96220467D01*
X105652484Y-96789965D01*
X96103144Y-96789965D01*
X94686179Y-95373000D01*
X105917738Y-95373000D01*
X106324723Y-95779985D01*
X106350430Y-95790633D01*
X106295409Y-95955804D01*
X107188000Y-96848395D01*
X108080591Y-95955804D01*
X108025570Y-95790633D01*
X108051277Y-95779985D01*
X108479985Y-95351277D01*
X108669657Y-94893368D01*
X108997801Y-95221512D01*
G36*
X81661000Y-102489000D02*
X81681000Y-102489000D01*
X81681000Y-102743000D01*
X81661000Y-102743000D01*
X81661000Y-102763000D01*
X81407000Y-102763000D01*
X81407000Y-102743000D01*
X81387000Y-102743000D01*
X81387000Y-102489000D01*
X81407000Y-102489000D01*
X81407000Y-102469000D01*
X81661000Y-102469000D01*
X81661000Y-102489000D01*
X81661000Y-102489000D01*
G37*
X81661000Y-102489000D02*
X81681000Y-102489000D01*
X81681000Y-102743000D01*
X81661000Y-102743000D01*
X81661000Y-102763000D01*
X81407000Y-102763000D01*
X81407000Y-102743000D01*
X81387000Y-102743000D01*
X81387000Y-102489000D01*
X81407000Y-102489000D01*
X81407000Y-102469000D01*
X81661000Y-102469000D01*
X81661000Y-102489000D01*
G36*
X82993570Y-101156430D02*
X83277281Y-101346000D01*
X82993570Y-101535570D01*
X82800963Y-101823826D01*
X82422490Y-101409179D01*
X82312979Y-101357854D01*
X82614430Y-101156430D01*
X82804000Y-100872719D01*
X82993570Y-101156430D01*
X82993570Y-101156430D01*
G37*
X82993570Y-101156430D02*
X83277281Y-101346000D01*
X82993570Y-101535570D01*
X82800963Y-101823826D01*
X82422490Y-101409179D01*
X82312979Y-101357854D01*
X82614430Y-101156430D01*
X82804000Y-100872719D01*
X82993570Y-101156430D01*
G04 #@! TD*
M02*
