G04 #@! TF.GenerationSoftware,KiCad,Pcbnew,5.0.0-fee4fd1~66~ubuntu18.04.1*
G04 #@! TF.CreationDate,2018-10-11T22:40:23+02:00*
G04 #@! TF.ProjectId,midi-v2-circuit,6D6964692D76322D636972637569742E,rev?*
G04 #@! TF.SameCoordinates,Original*
G04 #@! TF.FileFunction,Soldermask,Bot*
G04 #@! TF.FilePolarity,Negative*
%FSLAX46Y46*%
G04 Gerber Fmt 4.6, Leading zero omitted, Abs format (unit mm)*
G04 Created by KiCad (PCBNEW 5.0.0-fee4fd1~66~ubuntu18.04.1) date Thu Oct 11 22:40:23 2018*
%MOMM*%
%LPD*%
G01*
G04 APERTURE LIST*
%ADD10C,3.100000*%
%ADD11C,2.378000*%
%ADD12C,2.886000*%
%ADD13C,4.600000*%
%ADD14C,3.000000*%
%ADD15C,1.997000*%
%ADD16R,1.850000X2.100000*%
%ADD17R,2.100000X1.850000*%
%ADD18R,2.327200X2.327200*%
%ADD19O,2.327200X2.327200*%
%ADD20O,2.598980X2.598980*%
%ADD21R,2.598980X2.598980*%
%ADD22R,2.300000X2.300000*%
%ADD23O,2.300000X2.300000*%
%ADD24C,2.100000*%
%ADD25R,1.900000X2.100000*%
%ADD26R,2.100000X1.900000*%
%ADD27R,2.400000X2.400000*%
%ADD28C,2.400000*%
%ADD29C,2.120000*%
%ADD30C,3.300000*%
%ADD31C,2.900000*%
G04 APERTURE END LIST*
D10*
G04 #@! TO.C,REF\002A\002A*
X179006500Y-81295500D03*
G04 #@! TD*
G04 #@! TO.C,REF\002A\002A*
X178943000Y-98313500D03*
G04 #@! TD*
D11*
G04 #@! TO.C,RV1*
X100203000Y-81788000D03*
X93853000Y-81788000D03*
X100203000Y-86868000D03*
X93853000Y-86868000D03*
X99568000Y-104648000D03*
X97028000Y-104648000D03*
X94488000Y-104648000D03*
D12*
X104648000Y-87820500D03*
X104648000Y-101155500D03*
X89408000Y-101155500D03*
X89408000Y-87820500D03*
D11*
X107188000Y-91948000D03*
X107188000Y-94488000D03*
X107188000Y-97028000D03*
G04 #@! TD*
D13*
G04 #@! TO.C,REF\002A\002A*
X193167000Y-107569000D03*
G04 #@! TD*
D14*
G04 #@! TO.C,REF\002A\002A*
X87503000Y-81788000D03*
G04 #@! TD*
G04 #@! TO.C,REF\002A\002A*
X106553000Y-81788000D03*
G04 #@! TD*
G04 #@! TO.C,REF\002A\002A*
X87503000Y-107188000D03*
G04 #@! TD*
D15*
G04 #@! TO.C,SW2*
X183896000Y-58420000D03*
X183896000Y-63500000D03*
X176276000Y-58420000D03*
X176276000Y-63500000D03*
G04 #@! TD*
D13*
G04 #@! TO.C,REF\002A\002A*
X123571000Y-107772200D03*
G04 #@! TD*
G04 #@! TO.C,REF\002A\002A*
X81661000Y-58039000D03*
G04 #@! TD*
G04 #@! TO.C,REF\002A\002A*
X193167000Y-58039000D03*
G04 #@! TD*
D16*
G04 #@! TO.C,C6*
X173863000Y-79799500D03*
X173863000Y-77299500D03*
G04 #@! TD*
D17*
G04 #@! TO.C,C10*
X108768200Y-104419400D03*
X106268200Y-104419400D03*
G04 #@! TD*
G04 #@! TO.C,C9*
X98673600Y-107950000D03*
X101173600Y-107950000D03*
G04 #@! TD*
G04 #@! TO.C,C11*
X84206400Y-107848400D03*
X81706400Y-107848400D03*
G04 #@! TD*
G04 #@! TO.C,C8*
X95972000Y-107975400D03*
X93472000Y-107975400D03*
G04 #@! TD*
D18*
G04 #@! TO.C,CON1*
X84074000Y-87376000D03*
D19*
X81534000Y-87376000D03*
X84074000Y-89916000D03*
X81534000Y-89916000D03*
X84074000Y-92456000D03*
X81534000Y-92456000D03*
X84074000Y-94996000D03*
X81534000Y-94996000D03*
X84074000Y-97536000D03*
X81534000Y-97536000D03*
X84074000Y-100076000D03*
X81534000Y-100076000D03*
X84074000Y-102616000D03*
X81534000Y-102616000D03*
G04 #@! TD*
D20*
G04 #@! TO.C,J1*
X113411000Y-88646000D03*
D21*
X113411000Y-81026000D03*
D20*
X113411000Y-83566000D03*
X113411000Y-86106000D03*
X113411000Y-91186000D03*
X113411000Y-93726000D03*
X113411000Y-96266000D03*
X113411000Y-98806000D03*
X113411000Y-101346000D03*
X113411000Y-103886000D03*
X113411000Y-106426000D03*
X113411000Y-108966000D03*
G04 #@! TD*
D16*
G04 #@! TO.C,C4*
X157734000Y-77236000D03*
X157734000Y-79736000D03*
G04 #@! TD*
D22*
G04 #@! TO.C,J7*
X122174000Y-99568000D03*
D23*
X122174000Y-97028000D03*
X122174000Y-94488000D03*
X122174000Y-91948000D03*
G04 #@! TD*
D17*
G04 #@! TO.C,C1*
X136660920Y-87201033D03*
X134160920Y-87201033D03*
G04 #@! TD*
G04 #@! TO.C,C2*
X136660920Y-90503033D03*
X134160920Y-90503033D03*
G04 #@! TD*
D24*
G04 #@! TO.C,Y1*
X147701000Y-89001600D03*
X142801000Y-89001600D03*
G04 #@! TD*
D25*
G04 #@! TO.C,R5*
X142443200Y-80311000D03*
X142443200Y-83011000D03*
G04 #@! TD*
G04 #@! TO.C,R4*
X129362200Y-83011000D03*
X129362200Y-80311000D03*
G04 #@! TD*
D26*
G04 #@! TO.C,R8*
X106582200Y-65354200D03*
X103882200Y-65354200D03*
G04 #@! TD*
G04 #@! TO.C,R9*
X106582200Y-69164200D03*
X103882200Y-69164200D03*
G04 #@! TD*
D22*
G04 #@! TO.C,J8*
X122174000Y-85852000D03*
D23*
X122174000Y-83312000D03*
X122174000Y-80772000D03*
G04 #@! TD*
D22*
G04 #@! TO.C,J9*
X98425000Y-65913000D03*
D23*
X95885000Y-65913000D03*
G04 #@! TD*
D27*
G04 #@! TO.C,D1*
X106934000Y-58420000D03*
D28*
X104394000Y-58420000D03*
G04 #@! TD*
D27*
G04 #@! TO.C,D2*
X99314000Y-58420000D03*
D28*
X96774000Y-58420000D03*
G04 #@! TD*
D29*
G04 #@! TO.C,J6*
X118522000Y-68962000D03*
X115982000Y-68962000D03*
X115982000Y-66962000D03*
X118522000Y-66962000D03*
D30*
X123252000Y-64262000D03*
X111252000Y-64262000D03*
G04 #@! TD*
D31*
G04 #@! TO.C,J3*
X136398000Y-71755000D03*
X141478000Y-66675000D03*
X136398000Y-66675000D03*
X138938000Y-69215000D03*
X144018000Y-69215000D03*
X131318000Y-66675000D03*
X133858000Y-69215000D03*
X128778000Y-69215000D03*
G04 #@! TD*
D18*
G04 #@! TO.C,CON2*
X156210000Y-65151000D03*
D19*
X156210000Y-62611000D03*
X158750000Y-65151000D03*
X158750000Y-62611000D03*
X161290000Y-65151000D03*
X161290000Y-62611000D03*
X163830000Y-65151000D03*
X163830000Y-62611000D03*
X166370000Y-65151000D03*
X166370000Y-62611000D03*
G04 #@! TD*
D26*
G04 #@! TO.C,R1*
X181639200Y-67767200D03*
X178939200Y-67767200D03*
G04 #@! TD*
D17*
G04 #@! TO.C,C5*
X168890000Y-69469000D03*
X166390000Y-69469000D03*
G04 #@! TD*
D26*
G04 #@! TO.C,R2*
X91473000Y-66675000D03*
X88773000Y-66675000D03*
G04 #@! TD*
G04 #@! TO.C,R3*
X88773000Y-70866000D03*
X91473000Y-70866000D03*
G04 #@! TD*
D22*
G04 #@! TO.C,J2*
X83820000Y-66802000D03*
D23*
X83820000Y-69342000D03*
X83820000Y-71882000D03*
X83820000Y-74422000D03*
G04 #@! TD*
D17*
G04 #@! TO.C,C3*
X168656000Y-90043000D03*
X171156000Y-90043000D03*
G04 #@! TD*
G04 #@! TO.C,C7*
X168676000Y-94361000D03*
X171176000Y-94361000D03*
G04 #@! TD*
D18*
G04 #@! TO.C,CON3*
X192151000Y-87249000D03*
D19*
X189611000Y-87249000D03*
X192151000Y-84709000D03*
X189611000Y-84709000D03*
X192151000Y-82169000D03*
X189611000Y-82169000D03*
X192151000Y-79629000D03*
X189611000Y-79629000D03*
X192151000Y-77089000D03*
X189611000Y-77089000D03*
X192151000Y-74549000D03*
X189611000Y-74549000D03*
X192151000Y-72009000D03*
X189611000Y-72009000D03*
G04 #@! TD*
D18*
G04 #@! TO.C,J4*
X174371000Y-105886000D03*
D19*
X174371000Y-108426000D03*
X171831000Y-105886000D03*
X171831000Y-108426000D03*
X169291000Y-105886000D03*
X169291000Y-108426000D03*
X166751000Y-105886000D03*
X166751000Y-108426000D03*
X164211000Y-105886000D03*
X164211000Y-108426000D03*
X161671000Y-105886000D03*
X161671000Y-108426000D03*
X159131000Y-105886000D03*
X159131000Y-108426000D03*
X156591000Y-105886000D03*
X156591000Y-108426000D03*
X154051000Y-105886000D03*
X154051000Y-108426000D03*
X151511000Y-105886000D03*
X151511000Y-108426000D03*
G04 #@! TD*
D10*
G04 #@! TO.C,REF\002A\002A*
X135953500Y-81232000D03*
G04 #@! TD*
G04 #@! TO.C,REF\002A\002A*
X135953500Y-98313500D03*
G04 #@! TD*
D26*
G04 #@! TO.C,R6*
X98378000Y-99822000D03*
X95678000Y-99822000D03*
G04 #@! TD*
G04 #@! TO.C,R7*
X98378000Y-97536000D03*
X95678000Y-97536000D03*
G04 #@! TD*
G04 #@! TO.C,R10*
X98378000Y-95250000D03*
X95678000Y-95250000D03*
G04 #@! TD*
G04 #@! TO.C,R11*
X98378000Y-92964000D03*
X95678000Y-92964000D03*
G04 #@! TD*
G04 #@! TO.C,R12*
X98378000Y-90678000D03*
X95678000Y-90678000D03*
G04 #@! TD*
G04 #@! TO.C,R13*
X98378000Y-88392000D03*
X95678000Y-88392000D03*
G04 #@! TD*
D14*
G04 #@! TO.C,REF\002A\002A*
X106553000Y-107188000D03*
G04 #@! TD*
D25*
G04 #@! TO.C,L1*
X162814000Y-90852000D03*
X162814000Y-93552000D03*
G04 #@! TD*
D26*
G04 #@! TO.C,R14*
X148924000Y-100101400D03*
X146224000Y-100101400D03*
G04 #@! TD*
D25*
G04 #@! TO.C,R15*
X155829000Y-69579500D03*
X155829000Y-72279500D03*
G04 #@! TD*
G04 #@! TO.C,R16*
X163004500Y-72216000D03*
X163004500Y-69516000D03*
G04 #@! TD*
G04 #@! TO.C,R17*
X159575500Y-69516000D03*
X159575500Y-72216000D03*
G04 #@! TD*
M02*
