G04 #@! TF.GenerationSoftware,KiCad,Pcbnew,5.0.0-fee4fd1~66~ubuntu18.04.1*
G04 #@! TF.CreationDate,2018-10-10T21:16:53+02:00*
G04 #@! TF.ProjectId,midi-v2-circuit,6D6964692D76322D636972637569742E,rev?*
G04 #@! TF.SameCoordinates,Original*
G04 #@! TF.FileFunction,Copper,L2,Bot,Signal*
G04 #@! TF.FilePolarity,Positive*
%FSLAX46Y46*%
G04 Gerber Fmt 4.6, Leading zero omitted, Abs format (unit mm)*
G04 Created by KiCad (PCBNEW 5.0.0-fee4fd1~66~ubuntu18.04.1) date Wed Oct 10 21:16:53 2018*
%MOMM*%
%LPD*%
G01*
G04 APERTURE LIST*
G04 #@! TA.AperFunction,ComponentPad*
%ADD10C,2.500000*%
G04 #@! TD*
G04 #@! TA.AperFunction,ComponentPad*
%ADD11C,1.778000*%
G04 #@! TD*
G04 #@! TA.AperFunction,ComponentPad*
%ADD12C,2.286000*%
G04 #@! TD*
G04 #@! TA.AperFunction,ComponentPad*
%ADD13C,4.000000*%
G04 #@! TD*
G04 #@! TA.AperFunction,ComponentPad*
%ADD14C,2.400000*%
G04 #@! TD*
G04 #@! TA.AperFunction,ComponentPad*
%ADD15C,1.397000*%
G04 #@! TD*
G04 #@! TA.AperFunction,SMDPad,CuDef*
%ADD16R,1.250000X1.500000*%
G04 #@! TD*
G04 #@! TA.AperFunction,SMDPad,CuDef*
%ADD17R,1.500000X1.250000*%
G04 #@! TD*
G04 #@! TA.AperFunction,ComponentPad*
%ADD18R,1.727200X1.727200*%
G04 #@! TD*
G04 #@! TA.AperFunction,ComponentPad*
%ADD19O,1.727200X1.727200*%
G04 #@! TD*
G04 #@! TA.AperFunction,ComponentPad*
%ADD20O,1.998980X1.998980*%
G04 #@! TD*
G04 #@! TA.AperFunction,ComponentPad*
%ADD21R,1.998980X1.998980*%
G04 #@! TD*
G04 #@! TA.AperFunction,ComponentPad*
%ADD22R,1.700000X1.700000*%
G04 #@! TD*
G04 #@! TA.AperFunction,ComponentPad*
%ADD23O,1.700000X1.700000*%
G04 #@! TD*
G04 #@! TA.AperFunction,ComponentPad*
%ADD24C,1.500000*%
G04 #@! TD*
G04 #@! TA.AperFunction,SMDPad,CuDef*
%ADD25R,1.300000X1.500000*%
G04 #@! TD*
G04 #@! TA.AperFunction,SMDPad,CuDef*
%ADD26R,1.500000X1.300000*%
G04 #@! TD*
G04 #@! TA.AperFunction,ComponentPad*
%ADD27R,1.800000X1.800000*%
G04 #@! TD*
G04 #@! TA.AperFunction,ComponentPad*
%ADD28C,1.800000*%
G04 #@! TD*
G04 #@! TA.AperFunction,ComponentPad*
%ADD29C,1.520000*%
G04 #@! TD*
G04 #@! TA.AperFunction,ComponentPad*
%ADD30C,2.700000*%
G04 #@! TD*
G04 #@! TA.AperFunction,ComponentPad*
%ADD31C,2.300000*%
G04 #@! TD*
G04 #@! TA.AperFunction,ComponentPad*
%ADD32C,2.000000*%
G04 #@! TD*
G04 #@! TA.AperFunction,ViaPad*
%ADD33C,1.200000*%
G04 #@! TD*
G04 #@! TA.AperFunction,Conductor*
%ADD34C,0.500000*%
G04 #@! TD*
G04 #@! TA.AperFunction,Conductor*
%ADD35C,0.300000*%
G04 #@! TD*
G04 #@! TA.AperFunction,Conductor*
%ADD36C,0.800000*%
G04 #@! TD*
G04 #@! TA.AperFunction,Conductor*
%ADD37C,0.400000*%
G04 #@! TD*
G04 #@! TA.AperFunction,Conductor*
%ADD38C,0.254000*%
G04 #@! TD*
G04 APERTURE END LIST*
D10*
G04 #@! TO.P,REF\002A\002A,1*
G04 #@! TO.N,N/C*
X179006500Y-78295500D03*
G04 #@! TD*
G04 #@! TO.P,REF\002A\002A,1*
G04 #@! TO.N,N/C*
X178943000Y-95313500D03*
G04 #@! TD*
D11*
G04 #@! TO.P,RV1,B1A*
G04 #@! TO.N,Net-(RV1-PadB1A)*
X100203000Y-107188000D03*
G04 #@! TO.P,RV1,B1B*
G04 #@! TO.N,Net-(RV1-PadB1B)*
X93853000Y-107188000D03*
G04 #@! TO.P,RV1,B2A*
G04 #@! TO.N,Net-(RV1-PadB2A)*
X100203000Y-102108000D03*
G04 #@! TO.P,RV1,B2B*
G04 #@! TO.N,Net-(RV1-PadB2B)*
X93853000Y-102108000D03*
G04 #@! TO.P,RV1,H1*
G04 #@! TO.N,+5V*
X99568000Y-84328000D03*
G04 #@! TO.P,RV1,H2*
G04 #@! TO.N,joystick-pot-2*
X97028000Y-84328000D03*
G04 #@! TO.P,RV1,H3*
G04 #@! TO.N,GND*
X94488000Y-84328000D03*
D12*
G04 #@! TO.P,RV1,MOUN*
G04 #@! TO.N,N/C*
X104648000Y-101155500D03*
X104648000Y-87820500D03*
X89408000Y-87820500D03*
X89408000Y-101155500D03*
D11*
G04 #@! TO.P,RV1,V1*
G04 #@! TO.N,+5V*
X107188000Y-97028000D03*
G04 #@! TO.P,RV1,V2*
G04 #@! TO.N,joystick-pot-1*
X107188000Y-94488000D03*
G04 #@! TO.P,RV1,V3*
G04 #@! TO.N,GND*
X107188000Y-91948000D03*
G04 #@! TD*
D13*
G04 #@! TO.P,REF\002A\002A,1*
G04 #@! TO.N,N/C*
X193167000Y-107569000D03*
G04 #@! TD*
D14*
G04 #@! TO.P,REF\002A\002A,1*
G04 #@! TO.N,N/C*
X87503000Y-81788000D03*
G04 #@! TD*
G04 #@! TO.P,REF\002A\002A,1*
G04 #@! TO.N,N/C*
X106553000Y-81788000D03*
G04 #@! TD*
G04 #@! TO.P,REF\002A\002A,1*
G04 #@! TO.N,N/C*
X87503000Y-107188000D03*
G04 #@! TD*
D15*
G04 #@! TO.P,SW2,1*
G04 #@! TO.N,GND*
X183896000Y-58420000D03*
G04 #@! TO.P,SW2,2*
G04 #@! TO.N,RST*
X183896000Y-63500000D03*
G04 #@! TO.P,SW2,1*
G04 #@! TO.N,GND*
X176276000Y-58420000D03*
G04 #@! TO.P,SW2,2*
G04 #@! TO.N,RST*
X176276000Y-63500000D03*
G04 #@! TD*
D13*
G04 #@! TO.P,REF\002A\002A,1*
G04 #@! TO.N,N/C*
X132461000Y-107569000D03*
G04 #@! TD*
G04 #@! TO.P,REF\002A\002A,1*
G04 #@! TO.N,N/C*
X81661000Y-58039000D03*
G04 #@! TD*
G04 #@! TO.P,REF\002A\002A,1*
G04 #@! TO.N,N/C*
X193167000Y-58039000D03*
G04 #@! TD*
D16*
G04 #@! TO.P,C6,1*
G04 #@! TO.N,+5V*
X173863000Y-79799500D03*
G04 #@! TO.P,C6,2*
G04 #@! TO.N,GND*
X173863000Y-77299500D03*
G04 #@! TD*
D17*
G04 #@! TO.P,C10,1*
G04 #@! TO.N,GND*
X107462000Y-99822000D03*
G04 #@! TO.P,C10,2*
G04 #@! TO.N,button-3*
X109962000Y-99822000D03*
G04 #@! TD*
D16*
G04 #@! TO.P,C9,1*
G04 #@! TO.N,GND*
X102997000Y-109073000D03*
G04 #@! TO.P,C9,2*
G04 #@! TO.N,button-2*
X102997000Y-106573000D03*
G04 #@! TD*
D17*
G04 #@! TO.P,C11,1*
G04 #@! TO.N,GND*
X107335000Y-102489000D03*
G04 #@! TO.P,C11,2*
G04 #@! TO.N,button-4*
X109835000Y-102489000D03*
G04 #@! TD*
D16*
G04 #@! TO.P,C8,1*
G04 #@! TO.N,GND*
X97028000Y-109073000D03*
G04 #@! TO.P,C8,2*
G04 #@! TO.N,button-1*
X97028000Y-106573000D03*
G04 #@! TD*
D18*
G04 #@! TO.P,CON1,1*
G04 #@! TO.N,joystick-pot-2*
X84074000Y-87376000D03*
D19*
G04 #@! TO.P,CON1,2*
G04 #@! TO.N,joystick-pot-1*
X81534000Y-87376000D03*
G04 #@! TO.P,CON1,3*
G04 #@! TO.N,knob-pot-4*
X84074000Y-89916000D03*
G04 #@! TO.P,CON1,4*
G04 #@! TO.N,knob-pot-3*
X81534000Y-89916000D03*
G04 #@! TO.P,CON1,5*
G04 #@! TO.N,knob-pot-2*
X84074000Y-92456000D03*
G04 #@! TO.P,CON1,6*
G04 #@! TO.N,knob-pot-1*
X81534000Y-92456000D03*
G04 #@! TO.P,CON1,7*
G04 #@! TO.N,slide-pot-2*
X84074000Y-94996000D03*
G04 #@! TO.P,CON1,8*
G04 #@! TO.N,slide-pot-1*
X81534000Y-94996000D03*
G04 #@! TO.P,CON1,9*
G04 #@! TO.N,button-3*
X84074000Y-97536000D03*
G04 #@! TO.P,CON1,10*
G04 #@! TO.N,button-4*
X81534000Y-97536000D03*
G04 #@! TO.P,CON1,11*
G04 #@! TO.N,button-1*
X84074000Y-100076000D03*
G04 #@! TO.P,CON1,12*
G04 #@! TO.N,button-2*
X81534000Y-100076000D03*
G04 #@! TO.P,CON1,13*
G04 #@! TO.N,+5V*
X84074000Y-102616000D03*
G04 #@! TO.P,CON1,14*
G04 #@! TO.N,GND*
X81534000Y-102616000D03*
G04 #@! TD*
D20*
G04 #@! TO.P,J1,4*
G04 #@! TO.N,Net-(J1-Pad4)*
X113411000Y-88646000D03*
D21*
G04 #@! TO.P,J1,1*
G04 #@! TO.N,+5V*
X113411000Y-81026000D03*
D20*
G04 #@! TO.P,J1,2*
G04 #@! TO.N,GND*
X113411000Y-83566000D03*
G04 #@! TO.P,J1,3*
G04 #@! TO.N,Net-(J1-Pad3)*
X113411000Y-86106000D03*
G04 #@! TO.P,J1,5*
G04 #@! TO.N,Net-(J1-Pad5)*
X113411000Y-91186000D03*
G04 #@! TO.P,J1,6*
G04 #@! TO.N,Net-(J1-Pad6)*
X113411000Y-93726000D03*
G04 #@! TO.P,J1,7*
G04 #@! TO.N,Net-(J1-Pad7)*
X113411000Y-96266000D03*
G04 #@! TO.P,J1,8*
G04 #@! TO.N,Net-(J1-Pad8)*
X113411000Y-98806000D03*
G04 #@! TO.P,J1,9*
G04 #@! TO.N,button-3*
X113411000Y-101346000D03*
G04 #@! TO.P,J1,10*
G04 #@! TO.N,button-4*
X113411000Y-103886000D03*
G04 #@! TO.P,J1,11*
G04 #@! TO.N,button-1*
X113411000Y-106426000D03*
G04 #@! TO.P,J1,12*
G04 #@! TO.N,button-2*
X113411000Y-108966000D03*
G04 #@! TD*
D16*
G04 #@! TO.P,C4,1*
G04 #@! TO.N,+5V*
X157734000Y-77236000D03*
G04 #@! TO.P,C4,2*
G04 #@! TO.N,GND*
X157734000Y-79736000D03*
G04 #@! TD*
D22*
G04 #@! TO.P,J7,1*
G04 #@! TO.N,+5V*
X122174000Y-99568000D03*
D23*
G04 #@! TO.P,J7,2*
G04 #@! TO.N,GND*
X122174000Y-97028000D03*
G04 #@! TO.P,J7,3*
G04 #@! TO.N,Net-(J6-Pad3)*
X122174000Y-94488000D03*
G04 #@! TO.P,J7,4*
G04 #@! TO.N,Net-(J6-Pad2)*
X122174000Y-91948000D03*
G04 #@! TD*
D17*
G04 #@! TO.P,C1,1*
G04 #@! TO.N,Net-(C1-Pad1)*
X136660920Y-87201033D03*
G04 #@! TO.P,C1,2*
G04 #@! TO.N,GND*
X134160920Y-87201033D03*
G04 #@! TD*
G04 #@! TO.P,C2,1*
G04 #@! TO.N,Net-(C2-Pad1)*
X136660920Y-90503033D03*
G04 #@! TO.P,C2,2*
G04 #@! TO.N,GND*
X134160920Y-90503033D03*
G04 #@! TD*
D24*
G04 #@! TO.P,Y1,1*
G04 #@! TO.N,Net-(C1-Pad1)*
X147701000Y-89001600D03*
G04 #@! TO.P,Y1,2*
G04 #@! TO.N,Net-(C2-Pad1)*
X142801000Y-89001600D03*
G04 #@! TD*
D25*
G04 #@! TO.P,R5,1*
G04 #@! TO.N,+5V*
X142443200Y-80311000D03*
G04 #@! TO.P,R5,2*
G04 #@! TO.N,midi-raw-signal-power*
X142443200Y-83011000D03*
G04 #@! TD*
G04 #@! TO.P,R4,1*
G04 #@! TO.N,midi-raw-signal-data*
X129362200Y-83011000D03*
G04 #@! TO.P,R4,2*
G04 #@! TO.N,midi-data-pin*
X129362200Y-80311000D03*
G04 #@! TD*
D26*
G04 #@! TO.P,R8,1*
G04 #@! TO.N,+5V*
X106556800Y-68554600D03*
G04 #@! TO.P,R8,2*
G04 #@! TO.N,Net-(D1-Pad2)*
X103856800Y-68554600D03*
G04 #@! TD*
G04 #@! TO.P,R9,1*
G04 #@! TO.N,midi-raw-signal-data*
X106556800Y-73253600D03*
G04 #@! TO.P,R9,2*
G04 #@! TO.N,Net-(D2-Pad2)*
X103856800Y-73253600D03*
G04 #@! TD*
D22*
G04 #@! TO.P,J8,1*
G04 #@! TO.N,midi-raw-signal-power*
X122174000Y-85852000D03*
D23*
G04 #@! TO.P,J8,2*
G04 #@! TO.N,GND*
X122174000Y-83312000D03*
G04 #@! TO.P,J8,3*
G04 #@! TO.N,midi-raw-signal-data*
X122174000Y-80772000D03*
G04 #@! TD*
D22*
G04 #@! TO.P,J9,1*
G04 #@! TO.N,VCC*
X98425000Y-65913000D03*
D23*
G04 #@! TO.P,J9,2*
G04 #@! TO.N,+5V*
X95885000Y-65913000D03*
G04 #@! TD*
D27*
G04 #@! TO.P,D1,1*
G04 #@! TO.N,GND*
X106934000Y-58420000D03*
D28*
G04 #@! TO.P,D1,2*
G04 #@! TO.N,Net-(D1-Pad2)*
X104394000Y-58420000D03*
G04 #@! TD*
D27*
G04 #@! TO.P,D2,1*
G04 #@! TO.N,GND*
X99314000Y-58420000D03*
D28*
G04 #@! TO.P,D2,2*
G04 #@! TO.N,Net-(D2-Pad2)*
X96774000Y-58420000D03*
G04 #@! TD*
D29*
G04 #@! TO.P,J6,2*
G04 #@! TO.N,Net-(J6-Pad2)*
X118522000Y-68962000D03*
G04 #@! TO.P,J6,1*
G04 #@! TO.N,VCC*
X115982000Y-68962000D03*
G04 #@! TO.P,J6,4*
G04 #@! TO.N,GND*
X115982000Y-66962000D03*
G04 #@! TO.P,J6,3*
G04 #@! TO.N,Net-(J6-Pad3)*
X118522000Y-66962000D03*
D30*
G04 #@! TO.P,J6,5*
G04 #@! TO.N,GND*
X123252000Y-64262000D03*
X111252000Y-64262000D03*
G04 #@! TD*
D31*
G04 #@! TO.P,J3,8*
G04 #@! TO.N,Net-(J3-Pad8)*
X136398000Y-71755000D03*
G04 #@! TO.P,J3,3*
G04 #@! TO.N,Net-(J3-Pad3)*
X141478000Y-66675000D03*
G04 #@! TO.P,J3,2*
G04 #@! TO.N,GND*
X136398000Y-66675000D03*
G04 #@! TO.P,J3,5*
G04 #@! TO.N,midi-raw-signal-power*
X138938000Y-69215000D03*
D32*
G04 #@! TO.P,J3,*
G04 #@! TO.N,*
X133858000Y-56515000D03*
D31*
G04 #@! TO.P,J3,7*
G04 #@! TO.N,Net-(J3-Pad7)*
X144018000Y-69215000D03*
G04 #@! TO.P,J3,1*
G04 #@! TO.N,Net-(J3-Pad1)*
X131318000Y-66675000D03*
G04 #@! TO.P,J3,4*
G04 #@! TO.N,midi-raw-signal-data*
X133858000Y-69215000D03*
G04 #@! TO.P,J3,6*
G04 #@! TO.N,Net-(J3-Pad6)*
X128778000Y-69215000D03*
D32*
G04 #@! TO.P,J3,*
G04 #@! TO.N,*
X138938000Y-56515000D03*
G04 #@! TD*
D18*
G04 #@! TO.P,CON2,1*
G04 #@! TO.N,MOSI*
X156210000Y-65151000D03*
D19*
G04 #@! TO.P,CON2,2*
G04 #@! TO.N,+5V*
X156210000Y-62611000D03*
G04 #@! TO.P,CON2,3*
G04 #@! TO.N,Net-(CON2-Pad3)*
X158750000Y-65151000D03*
G04 #@! TO.P,CON2,4*
G04 #@! TO.N,GND*
X158750000Y-62611000D03*
G04 #@! TO.P,CON2,5*
G04 #@! TO.N,RST*
X161290000Y-65151000D03*
G04 #@! TO.P,CON2,6*
G04 #@! TO.N,GND*
X161290000Y-62611000D03*
G04 #@! TO.P,CON2,7*
G04 #@! TO.N,SCK*
X163830000Y-65151000D03*
G04 #@! TO.P,CON2,8*
G04 #@! TO.N,GND*
X163830000Y-62611000D03*
G04 #@! TO.P,CON2,9*
G04 #@! TO.N,MISO*
X166370000Y-65151000D03*
G04 #@! TO.P,CON2,10*
G04 #@! TO.N,GND*
X166370000Y-62611000D03*
G04 #@! TD*
D26*
G04 #@! TO.P,R1,1*
G04 #@! TO.N,+5V*
X181639200Y-67767200D03*
G04 #@! TO.P,R1,2*
G04 #@! TO.N,RST*
X178939200Y-67767200D03*
G04 #@! TD*
D17*
G04 #@! TO.P,C5,1*
G04 #@! TO.N,+5V*
X168890000Y-69469000D03*
G04 #@! TO.P,C5,2*
G04 #@! TO.N,GND*
X166390000Y-69469000D03*
G04 #@! TD*
D26*
G04 #@! TO.P,R2,1*
G04 #@! TO.N,+5V*
X91473000Y-66675000D03*
G04 #@! TO.P,R2,2*
G04 #@! TO.N,SDA*
X88773000Y-66675000D03*
G04 #@! TD*
G04 #@! TO.P,R3,2*
G04 #@! TO.N,SCL*
X88773000Y-70866000D03*
G04 #@! TO.P,R3,1*
G04 #@! TO.N,+5V*
X91473000Y-70866000D03*
G04 #@! TD*
D22*
G04 #@! TO.P,J2,1*
G04 #@! TO.N,SDA*
X83820000Y-66802000D03*
D23*
G04 #@! TO.P,J2,2*
G04 #@! TO.N,SCL*
X83820000Y-69342000D03*
G04 #@! TO.P,J2,3*
G04 #@! TO.N,+5V*
X83820000Y-71882000D03*
G04 #@! TO.P,J2,4*
G04 #@! TO.N,GND*
X83820000Y-74422000D03*
G04 #@! TD*
D17*
G04 #@! TO.P,C3,1*
G04 #@! TO.N,Net-(C3-Pad1)*
X168656000Y-90043000D03*
G04 #@! TO.P,C3,2*
G04 #@! TO.N,GND*
X171156000Y-90043000D03*
G04 #@! TD*
G04 #@! TO.P,C7,1*
G04 #@! TO.N,Net-(C7-Pad1)*
X168676000Y-94361000D03*
G04 #@! TO.P,C7,2*
G04 #@! TO.N,GND*
X171176000Y-94361000D03*
G04 #@! TD*
D18*
G04 #@! TO.P,CON3,1*
G04 #@! TO.N,joystick-pot-2*
X192151000Y-87249000D03*
D19*
G04 #@! TO.P,CON3,2*
G04 #@! TO.N,joystick-pot-1*
X189611000Y-87249000D03*
G04 #@! TO.P,CON3,3*
G04 #@! TO.N,knob-pot-4*
X192151000Y-84709000D03*
G04 #@! TO.P,CON3,4*
G04 #@! TO.N,knob-pot-3*
X189611000Y-84709000D03*
G04 #@! TO.P,CON3,5*
G04 #@! TO.N,knob-pot-2*
X192151000Y-82169000D03*
G04 #@! TO.P,CON3,6*
G04 #@! TO.N,knob-pot-1*
X189611000Y-82169000D03*
G04 #@! TO.P,CON3,7*
G04 #@! TO.N,slide-pot-2*
X192151000Y-79629000D03*
G04 #@! TO.P,CON3,8*
G04 #@! TO.N,slide-pot-1*
X189611000Y-79629000D03*
G04 #@! TO.P,CON3,9*
G04 #@! TO.N,button-3*
X192151000Y-77089000D03*
G04 #@! TO.P,CON3,10*
G04 #@! TO.N,button-4*
X189611000Y-77089000D03*
G04 #@! TO.P,CON3,11*
G04 #@! TO.N,button-1*
X192151000Y-74549000D03*
G04 #@! TO.P,CON3,12*
G04 #@! TO.N,button-2*
X189611000Y-74549000D03*
G04 #@! TO.P,CON3,13*
G04 #@! TO.N,+5V*
X192151000Y-72009000D03*
G04 #@! TO.P,CON3,14*
G04 #@! TO.N,GND*
X189611000Y-72009000D03*
G04 #@! TD*
D18*
G04 #@! TO.P,J4,1*
G04 #@! TO.N,note-13*
X174371000Y-105886000D03*
D19*
G04 #@! TO.P,J4,2*
G04 #@! TO.N,note-12*
X174371000Y-108426000D03*
G04 #@! TO.P,J4,3*
G04 #@! TO.N,note-11*
X171831000Y-105886000D03*
G04 #@! TO.P,J4,4*
G04 #@! TO.N,note-10*
X171831000Y-108426000D03*
G04 #@! TO.P,J4,5*
G04 #@! TO.N,note-9*
X169291000Y-105886000D03*
G04 #@! TO.P,J4,6*
G04 #@! TO.N,note-8*
X169291000Y-108426000D03*
G04 #@! TO.P,J4,7*
G04 #@! TO.N,note-7*
X166751000Y-105886000D03*
G04 #@! TO.P,J4,8*
G04 #@! TO.N,note-6*
X166751000Y-108426000D03*
G04 #@! TO.P,J4,9*
G04 #@! TO.N,note-5*
X164211000Y-105886000D03*
G04 #@! TO.P,J4,10*
G04 #@! TO.N,note-4*
X164211000Y-108426000D03*
G04 #@! TO.P,J4,11*
G04 #@! TO.N,note-3*
X161671000Y-105886000D03*
G04 #@! TO.P,J4,12*
G04 #@! TO.N,note-2*
X161671000Y-108426000D03*
G04 #@! TO.P,J4,13*
G04 #@! TO.N,note-1*
X159131000Y-105886000D03*
G04 #@! TO.P,J4,14*
G04 #@! TO.N,SCK*
X159131000Y-108426000D03*
G04 #@! TO.P,J4,15*
G04 #@! TO.N,MISO*
X156591000Y-105886000D03*
G04 #@! TO.P,J4,16*
G04 #@! TO.N,MOSI*
X156591000Y-108426000D03*
G04 #@! TO.P,J4,17*
G04 #@! TO.N,octave-1*
X154051000Y-105886000D03*
G04 #@! TO.P,J4,18*
G04 #@! TO.N,N/C*
X154051000Y-108426000D03*
G04 #@! TO.P,J4,19*
X151511000Y-105886000D03*
G04 #@! TO.P,J4,20*
X151511000Y-108426000D03*
G04 #@! TD*
D10*
G04 #@! TO.P,REF\002A\002A,1*
G04 #@! TO.N,N/C*
X135953500Y-78232000D03*
G04 #@! TD*
G04 #@! TO.P,REF\002A\002A,1*
G04 #@! TO.N,N/C*
X135953500Y-95313500D03*
G04 #@! TD*
D26*
G04 #@! TO.P,R6,1*
G04 #@! TO.N,Net-(J1-Pad8)*
X98378000Y-99822000D03*
G04 #@! TO.P,R6,2*
G04 #@! TO.N,slide-pot-1*
X95678000Y-99822000D03*
G04 #@! TD*
G04 #@! TO.P,R7,1*
G04 #@! TO.N,Net-(J1-Pad7)*
X98378000Y-97536000D03*
G04 #@! TO.P,R7,2*
G04 #@! TO.N,slide-pot-2*
X95678000Y-97536000D03*
G04 #@! TD*
G04 #@! TO.P,R10,1*
G04 #@! TO.N,Net-(J1-Pad6)*
X98378000Y-95250000D03*
G04 #@! TO.P,R10,2*
G04 #@! TO.N,knob-pot-1*
X95678000Y-95250000D03*
G04 #@! TD*
G04 #@! TO.P,R11,1*
G04 #@! TO.N,Net-(J1-Pad5)*
X98378000Y-92964000D03*
G04 #@! TO.P,R11,2*
G04 #@! TO.N,knob-pot-2*
X95678000Y-92964000D03*
G04 #@! TD*
G04 #@! TO.P,R12,1*
G04 #@! TO.N,Net-(J1-Pad4)*
X98378000Y-90678000D03*
G04 #@! TO.P,R12,2*
G04 #@! TO.N,knob-pot-3*
X95678000Y-90678000D03*
G04 #@! TD*
G04 #@! TO.P,R13,1*
G04 #@! TO.N,Net-(J1-Pad3)*
X98378000Y-88392000D03*
G04 #@! TO.P,R13,2*
G04 #@! TO.N,knob-pot-4*
X95678000Y-88392000D03*
G04 #@! TD*
D14*
G04 #@! TO.P,REF\002A\002A,1*
G04 #@! TO.N,N/C*
X106553000Y-107188000D03*
G04 #@! TD*
D25*
G04 #@! TO.P,L1,1*
G04 #@! TO.N,Net-(C7-Pad1)*
X162814000Y-90852000D03*
G04 #@! TO.P,L1,2*
G04 #@! TO.N,+5V*
X162814000Y-93552000D03*
G04 #@! TD*
D26*
G04 #@! TO.P,R14,1*
G04 #@! TO.N,octave-1*
X148924000Y-100101400D03*
G04 #@! TO.P,R14,2*
G04 #@! TO.N,GND*
X146224000Y-100101400D03*
G04 #@! TD*
D25*
G04 #@! TO.P,R15,1*
G04 #@! TO.N,MOSI*
X155829000Y-69579500D03*
G04 #@! TO.P,R15,2*
G04 #@! TO.N,GND*
X155829000Y-72279500D03*
G04 #@! TD*
G04 #@! TO.P,R16,2*
G04 #@! TO.N,GND*
X163004500Y-72216000D03*
G04 #@! TO.P,R16,1*
G04 #@! TO.N,MISO*
X163004500Y-69516000D03*
G04 #@! TD*
G04 #@! TO.P,R17,1*
G04 #@! TO.N,SCK*
X159575500Y-69516000D03*
G04 #@! TO.P,R17,2*
G04 #@! TO.N,GND*
X159575500Y-72216000D03*
G04 #@! TD*
D33*
G04 #@! TO.N,GND*
X164973000Y-80137000D03*
X170561000Y-77216000D03*
X167259000Y-75057000D03*
G04 #@! TO.N,Net-(C3-Pad1)*
X168021000Y-81661000D03*
G04 #@! TO.N,+5V*
X166116000Y-78232000D03*
X170561000Y-80010000D03*
X169291000Y-75184000D03*
G04 #@! TO.N,Net-(C7-Pad1)*
X166624000Y-87122000D03*
G04 #@! TO.N,MOSI*
X174371000Y-68707000D03*
G04 #@! TO.N,SCK*
X171196000Y-75184000D03*
G04 #@! TO.N,MISO*
X174371000Y-71247000D03*
G04 #@! TO.N,SDA*
X166243000Y-82169000D03*
G04 #@! TO.N,SCL*
X168021000Y-78359000D03*
G04 #@! TO.N,octave-1*
X175920400Y-72567800D03*
G04 #@! TO.N,midi-data-pin*
X164846000Y-75311000D03*
G04 #@! TD*
D34*
G04 #@! TO.N,Net-(C1-Pad1)*
X146951001Y-88251601D02*
X147701000Y-89001600D01*
X145700991Y-87001591D02*
X146951001Y-88251601D01*
X138110362Y-87001591D02*
X145700991Y-87001591D01*
X137910920Y-87201033D02*
X138110362Y-87001591D01*
X136660920Y-87201033D02*
X137910920Y-87201033D01*
D35*
G04 #@! TO.N,GND*
X97490998Y-94107000D02*
X99822000Y-94107000D01*
X97028000Y-94742000D02*
X97028000Y-94569998D01*
X97028000Y-94569998D02*
X97490998Y-94107000D01*
D34*
X97028000Y-100682002D02*
X97028000Y-94742000D01*
X107335000Y-102489000D02*
X106085000Y-102489000D01*
X97267999Y-100922001D02*
X97028000Y-100682002D01*
X106085000Y-102489000D02*
X105825499Y-102748501D01*
X105825499Y-102748501D02*
X102825223Y-102748501D01*
X100725732Y-100649010D02*
X99760992Y-100649010D01*
X102825223Y-102748501D02*
X100725732Y-100649010D01*
X99760992Y-100649010D02*
X99488001Y-100922001D01*
X99488001Y-100922001D02*
X97267999Y-100922001D01*
X97028000Y-109073000D02*
X98153000Y-109073000D01*
X98153000Y-109073000D02*
X98808000Y-109728000D01*
X98808000Y-109728000D02*
X102108000Y-109728000D01*
X102108000Y-109728000D02*
X102763000Y-109073000D01*
X102763000Y-109073000D02*
X102997000Y-109073000D01*
X106934000Y-59944000D02*
X111252000Y-64262000D01*
X118682000Y-64262000D02*
X123252000Y-64262000D01*
X105537000Y-57023000D02*
X102111000Y-57023000D01*
X102111000Y-57023000D02*
X100714000Y-58420000D01*
X107315000Y-102616000D02*
X107315000Y-99842000D01*
X107315000Y-99842000D02*
X107335000Y-99822000D01*
X161290000Y-62611000D02*
X158750000Y-62611000D01*
X163830000Y-62611000D02*
X161290000Y-62611000D01*
X166370000Y-62611000D02*
X163830000Y-62611000D01*
X166390000Y-69469000D02*
X166390000Y-68344000D01*
X166390000Y-68344000D02*
X167683601Y-67050399D01*
X167683601Y-67050399D02*
X167683601Y-63924601D01*
X167683601Y-63924601D02*
X167233599Y-63474599D01*
X167233599Y-63474599D02*
X166370000Y-62611000D01*
X171156000Y-90043000D02*
X171156000Y-94341000D01*
X171156000Y-94341000D02*
X171176000Y-94361000D01*
X164973000Y-80137000D02*
X158135000Y-80137000D01*
X158135000Y-80137000D02*
X157734000Y-79736000D01*
X167259000Y-75057000D02*
X166390000Y-74188000D01*
X166390000Y-74188000D02*
X166390000Y-69469000D01*
X159512000Y-72279500D02*
X159575500Y-72216000D01*
X155829000Y-72279500D02*
X159512000Y-72279500D01*
X159575500Y-72216000D02*
X163004500Y-72216000D01*
X163643000Y-72216000D02*
X166390000Y-69469000D01*
X163004500Y-72216000D02*
X163643000Y-72216000D01*
D36*
X122174000Y-97028000D02*
X121158000Y-98044000D01*
X99314000Y-58420000D02*
X100714000Y-58420000D01*
X106934000Y-58420000D02*
X106934000Y-59944000D01*
X106934000Y-58420000D02*
X105981500Y-57467500D01*
D34*
X105981500Y-57467500D02*
X105537000Y-57023000D01*
D36*
X115982000Y-66962000D02*
X116840500Y-66103500D01*
D34*
X116840500Y-66103500D02*
X118682000Y-64262000D01*
X170644500Y-77299500D02*
X170561000Y-77216000D01*
X173863000Y-77299500D02*
X170644500Y-77299500D01*
D37*
X138633500Y-103632000D02*
X122491500Y-103632000D01*
X122491500Y-103632000D02*
X119570500Y-100711000D01*
X119570500Y-100711000D02*
X119570500Y-99631500D01*
X119570500Y-99631500D02*
X121158000Y-98044000D01*
D34*
X103897616Y-94107000D02*
X105930765Y-92073851D01*
X99822000Y-94107000D02*
X103897616Y-94107000D01*
X107062149Y-92073851D02*
X107188000Y-91948000D01*
X105930765Y-92073851D02*
X107062149Y-92073851D01*
D36*
X134160920Y-87201033D02*
X134160920Y-90503033D01*
D34*
X141443400Y-103632000D02*
X138633500Y-103632000D01*
X144974000Y-100101400D02*
X141443400Y-103632000D01*
X146224000Y-100101400D02*
X144974000Y-100101400D01*
G04 #@! TO.N,Net-(C2-Pad1)*
X141299567Y-90503033D02*
X142801000Y-89001600D01*
X136660920Y-90503033D02*
X141299567Y-90503033D01*
G04 #@! TO.N,Net-(C3-Pad1)*
X168021000Y-81661000D02*
X168656000Y-82296000D01*
D36*
X168656000Y-90043000D02*
X168656000Y-88836500D01*
D34*
X168656000Y-82296000D02*
X168656000Y-88836500D01*
G04 #@! TO.N,+5V*
X166116000Y-78232000D02*
X166243000Y-78232000D01*
X166243000Y-78232000D02*
X169291000Y-75184000D01*
D36*
X168890000Y-74168000D02*
X168890000Y-74783000D01*
X168890000Y-69469000D02*
X168890000Y-74168000D01*
D34*
X168890000Y-74168000D02*
X169071001Y-74349001D01*
X169071001Y-74349001D02*
X169071001Y-78520001D01*
X169071001Y-78520001D02*
X169961001Y-79410001D01*
X169961001Y-79410001D02*
X170561000Y-80010000D01*
X177419000Y-61976000D02*
X175641000Y-61976000D01*
D36*
X168890000Y-74783000D02*
X169291000Y-75184000D01*
X168890000Y-63928905D02*
X168890000Y-68044000D01*
X168383611Y-63422516D02*
X168890000Y-63928905D01*
X168890000Y-68044000D02*
X168890000Y-69469000D01*
X167132000Y-60452000D02*
X168383611Y-61703611D01*
X156210000Y-62611000D02*
X158369000Y-60452000D01*
X158369000Y-60452000D02*
X167132000Y-60452000D01*
X154559000Y-60960000D02*
X156210000Y-62611000D01*
X147828000Y-60960000D02*
X154559000Y-60960000D01*
X146939000Y-61849000D02*
X147828000Y-60960000D01*
D34*
X147193000Y-61595000D02*
X147828000Y-60960000D01*
D36*
X146939000Y-63754000D02*
X146939000Y-61849000D01*
X146939000Y-61849000D02*
X147193000Y-61595000D01*
X106556800Y-68554600D02*
X108449705Y-68554600D01*
X109795905Y-68580000D02*
X117161905Y-61214000D01*
X117161905Y-61214000D02*
X131504094Y-61214000D01*
X131504094Y-61214000D02*
X134044094Y-63754000D01*
X134044094Y-63754000D02*
X146939000Y-63754000D01*
D34*
X91473000Y-65525000D02*
X90210000Y-64262000D01*
X166116000Y-78232000D02*
X165100000Y-77216000D01*
D36*
X122174000Y-99568000D02*
X123634500Y-99568000D01*
D34*
X130556000Y-99568000D02*
X123634500Y-99568000D01*
D36*
X91473000Y-70866000D02*
X91473000Y-69786500D01*
X91473000Y-66675000D02*
X91473000Y-67881500D01*
D34*
X91473000Y-69786500D02*
X91473000Y-67881500D01*
D36*
X91473000Y-66675000D02*
X91473000Y-65525000D01*
X192151000Y-72009000D02*
X192151000Y-70612000D01*
D34*
X192151000Y-70612000D02*
X192151000Y-68961000D01*
D36*
X158984000Y-77236000D02*
X159004000Y-77216000D01*
X157734000Y-77236000D02*
X158984000Y-77236000D01*
D34*
X165100000Y-77216000D02*
X159004000Y-77216000D01*
D36*
X162814000Y-93552000D02*
X162814000Y-95059500D01*
X170771500Y-79799500D02*
X170561000Y-80010000D01*
X173863000Y-79799500D02*
X170771500Y-79799500D01*
X140287840Y-98903960D02*
X139623800Y-99568000D01*
X139623800Y-99568000D02*
X122174000Y-99568000D01*
X173863000Y-81349500D02*
X173101000Y-82111500D01*
X173863000Y-79799500D02*
X173863000Y-81349500D01*
X171804402Y-96367600D02*
X162814000Y-96367600D01*
X173101000Y-82111500D02*
X173101000Y-95071002D01*
X173101000Y-95071002D02*
X171804402Y-96367600D01*
X162814000Y-96367600D02*
X162814000Y-93552000D01*
X142824200Y-96367600D02*
X139623800Y-99568000D01*
X162814000Y-96367600D02*
X142824200Y-96367600D01*
D34*
X177419000Y-61976000D02*
X183311800Y-61976000D01*
X185166000Y-61976000D02*
X183311800Y-61976000D01*
X183311800Y-61976000D02*
X182626000Y-61976000D01*
D36*
X80594200Y-64262000D02*
X82550000Y-64262000D01*
X79298800Y-65557400D02*
X80594200Y-64262000D01*
X79298800Y-69418200D02*
X79298800Y-65557400D01*
X83820000Y-71882000D02*
X81762600Y-71882000D01*
X81762600Y-71882000D02*
X79298800Y-69418200D01*
X82550000Y-64262000D02*
X90210000Y-64262000D01*
X90510000Y-64262000D02*
X91473000Y-65225000D01*
X91473000Y-65225000D02*
X91473000Y-66675000D01*
X90210000Y-64262000D02*
X90510000Y-64262000D01*
X91473000Y-70866000D02*
X91473000Y-66675000D01*
X146939000Y-70506000D02*
X146939000Y-69723000D01*
X142748000Y-74697000D02*
X146939000Y-70506000D01*
X146939000Y-69723000D02*
X146939000Y-63754000D01*
D34*
X106556800Y-69704600D02*
X105206800Y-71054600D01*
X106556800Y-68554600D02*
X106556800Y-69704600D01*
X105206800Y-71054600D02*
X105206800Y-74396600D01*
D36*
X142443200Y-75001800D02*
X142443200Y-80311000D01*
X142748000Y-74697000D02*
X142443200Y-75001800D01*
D34*
X109770505Y-68554600D02*
X109795905Y-68580000D01*
X109499400Y-68554600D02*
X109770505Y-68554600D01*
D36*
X109770505Y-68554600D02*
X108915200Y-68554600D01*
X108449705Y-68554600D02*
X108915200Y-68554600D01*
X108915200Y-68554600D02*
X109499400Y-68554600D01*
X105206800Y-74396600D02*
X105206800Y-74599800D01*
X105206800Y-74599800D02*
X104825800Y-74980800D01*
X104825800Y-74980800D02*
X100253800Y-74980800D01*
X95885000Y-70612000D02*
X95885000Y-65913000D01*
X100253800Y-74980800D02*
X95885000Y-70612000D01*
X192151000Y-72009000D02*
X192151000Y-68961000D01*
X168510611Y-61976000D02*
X168383611Y-62103000D01*
X185166000Y-61976000D02*
X168510611Y-61976000D01*
X168383611Y-61703611D02*
X168383611Y-62103000D01*
X168383611Y-62103000D02*
X168383611Y-63422516D01*
X181639200Y-67767200D02*
X190855600Y-67767200D01*
X190855600Y-67767200D02*
X190906400Y-67716400D01*
X192151000Y-68961000D02*
X190906400Y-67716400D01*
X190906400Y-67716400D02*
X185166000Y-61976000D01*
D34*
G04 #@! TO.N,Net-(C7-Pad1)*
X162687000Y-88929000D02*
X162687000Y-90725000D01*
X162687000Y-90725000D02*
X162814000Y-90852000D01*
X164817000Y-88929000D02*
X166624000Y-87122000D01*
X162687000Y-88929000D02*
X164817000Y-88929000D01*
X164937000Y-88929000D02*
X166751000Y-90743000D01*
X166751000Y-90743000D02*
X166751000Y-93686000D01*
X166751000Y-93686000D02*
X167426000Y-94361000D01*
D36*
X168676000Y-94361000D02*
X167426000Y-94361000D01*
X162814000Y-90852000D02*
X162814000Y-89302000D01*
D34*
X162687000Y-88929000D02*
X162941000Y-88929000D01*
X162941000Y-88929000D02*
X164937000Y-88929000D01*
D36*
G04 #@! TO.N,knob-pot-4*
X84074000Y-89916000D02*
X85153500Y-89916000D01*
D34*
X85444962Y-89916000D02*
X85153500Y-89916000D01*
X95578000Y-88392000D02*
X95678000Y-88392000D01*
X94054000Y-89916000D02*
X95578000Y-88392000D01*
X85153500Y-89916000D02*
X94054000Y-89916000D01*
D36*
G04 #@! TO.N,slide-pot-1*
X81534000Y-94996000D02*
X82232500Y-95694500D01*
D35*
X82804000Y-96266000D02*
X82232500Y-95694500D01*
D37*
X82804000Y-96266000D02*
X84836000Y-96266000D01*
X81534000Y-94996000D02*
X82804000Y-96266000D01*
D34*
X94428000Y-99822000D02*
X95678000Y-99822000D01*
X90872000Y-96266000D02*
X94428000Y-99822000D01*
X84836000Y-96266000D02*
X90872000Y-96266000D01*
G04 #@! TO.N,knob-pot-3*
X95678000Y-90678000D02*
X95578000Y-90678000D01*
D36*
X81534000Y-89916000D02*
X82359500Y-90741500D01*
D37*
X82804000Y-91186000D02*
X82359500Y-90741500D01*
X84836000Y-91186000D02*
X82804000Y-91186000D01*
D34*
X94428000Y-90678000D02*
X95678000Y-90678000D01*
X93920000Y-91186000D02*
X94428000Y-90678000D01*
X84836000Y-91186000D02*
X93920000Y-91186000D01*
D36*
G04 #@! TO.N,slide-pot-2*
X84074000Y-94996000D02*
X85153500Y-94996000D01*
D34*
X94428000Y-97536000D02*
X95678000Y-97536000D01*
X93687789Y-97536000D02*
X94428000Y-97536000D01*
X91147789Y-94996000D02*
X93687789Y-97536000D01*
X85153500Y-94996000D02*
X91147789Y-94996000D01*
D36*
G04 #@! TO.N,knob-pot-2*
X84455000Y-92456000D02*
X84874990Y-92875990D01*
X84074000Y-92456000D02*
X84455000Y-92456000D01*
D34*
X95678000Y-92964000D02*
X84874990Y-92875990D01*
D36*
G04 #@! TO.N,knob-pot-1*
X81534000Y-92456000D02*
X82359500Y-93281500D01*
D37*
X82804000Y-93726000D02*
X82359500Y-93281500D01*
X84836000Y-93726000D02*
X82804000Y-93726000D01*
D34*
X94428000Y-95250000D02*
X95678000Y-95250000D01*
X92533173Y-95250000D02*
X94428000Y-95250000D01*
X91009173Y-93726000D02*
X92533173Y-95250000D01*
X84836000Y-93726000D02*
X91009173Y-93726000D01*
D36*
G04 #@! TO.N,MOSI*
X156210000Y-66421000D02*
X155829000Y-66802000D01*
X156210000Y-65151000D02*
X156210000Y-66421000D01*
X155829000Y-69579500D02*
X155829000Y-68453000D01*
D34*
X155829000Y-68453000D02*
X155829000Y-66802000D01*
X157861000Y-103060500D02*
X157861000Y-105029000D01*
D37*
X157861000Y-107156000D02*
X157861000Y-105029000D01*
X156591000Y-108426000D02*
X157861000Y-107156000D01*
D34*
X157861000Y-103060500D02*
X157861000Y-102997000D01*
X175219528Y-68707000D02*
X174371000Y-68707000D01*
X179082610Y-72490224D02*
X175299386Y-68707000D01*
X177139420Y-75655164D02*
X179082610Y-73711974D01*
X179082610Y-73711974D02*
X179082610Y-72490224D01*
X177139420Y-81688748D02*
X177139420Y-75655164D01*
X157861000Y-103060500D02*
X157861000Y-101600000D01*
X157861000Y-101600000D02*
X160543370Y-98917630D01*
X175666220Y-96112067D02*
X175666220Y-83161948D01*
X160543370Y-98917630D02*
X172860657Y-98917630D01*
X175299386Y-68707000D02*
X175219528Y-68707000D01*
X172860657Y-98917630D02*
X175666220Y-96112067D01*
X175666220Y-83161948D02*
X177139420Y-81688748D01*
D36*
G04 #@! TO.N,RST*
X177263828Y-63500000D02*
X177673000Y-63500000D01*
X176276000Y-63500000D02*
X177263828Y-63500000D01*
X183896000Y-63500000D02*
X182626000Y-63500000D01*
D34*
X177673000Y-63500000D02*
X182626000Y-63500000D01*
D36*
X176276000Y-65104000D02*
X178939200Y-67767200D01*
X176276000Y-63500000D02*
X176276000Y-65104000D01*
D34*
G04 #@! TO.N,SCK*
X159575500Y-68266000D02*
X160023500Y-67818000D01*
X160023500Y-67818000D02*
X163258500Y-67818000D01*
X163258500Y-67818000D02*
X163830000Y-67246500D01*
D36*
X163830000Y-65151000D02*
X163830000Y-66548000D01*
D34*
X163830000Y-67246500D02*
X163830000Y-66548000D01*
D36*
X159575500Y-69516000D02*
X159575500Y-68266000D01*
D34*
X160401000Y-103378000D02*
X160401000Y-105156000D01*
D37*
X160401000Y-107156000D02*
X159131000Y-108426000D01*
X160401000Y-105156000D02*
X160401000Y-107156000D01*
D34*
X160401000Y-103378000D02*
X160401000Y-103149400D01*
X171196000Y-70179998D02*
X171196000Y-74335472D01*
X174040598Y-67335400D02*
X171196000Y-70179998D01*
X181889400Y-79349600D02*
X181889400Y-76047600D01*
X175059170Y-67335400D02*
X174040598Y-67335400D01*
X179984400Y-81254600D02*
X181889400Y-79349600D01*
X179882620Y-74040820D02*
X179882620Y-72158850D01*
X178704952Y-81254600D02*
X179984400Y-81254600D01*
X179882620Y-72158850D02*
X175059170Y-67335400D01*
X160401000Y-103378000D02*
X160401000Y-100380800D01*
X171196000Y-74335472D02*
X171196000Y-75184000D01*
X173192031Y-99717640D02*
X176466230Y-96443441D01*
X160401000Y-100380800D02*
X161064160Y-99717640D01*
X161064160Y-99717640D02*
X173192031Y-99717640D01*
X176466230Y-96443441D02*
X176466230Y-83493322D01*
X181889400Y-76047600D02*
X179882620Y-74040820D01*
X176466230Y-83493322D02*
X178704952Y-81254600D01*
G04 #@! TO.N,MISO*
X164539000Y-67881500D02*
X165608000Y-67881500D01*
X165608000Y-67881500D02*
X166370000Y-67119500D01*
D36*
X166370000Y-65151000D02*
X166370000Y-66484500D01*
D34*
X166370000Y-67119500D02*
X166370000Y-66484500D01*
D36*
X163004500Y-69416000D02*
X163713500Y-68707000D01*
X163004500Y-69516000D02*
X163004500Y-69416000D01*
D34*
X163713500Y-68707000D02*
X164539000Y-67881500D01*
X160200380Y-98117620D02*
X156591000Y-101727000D01*
X156591000Y-102664686D02*
X156591000Y-105886000D01*
X172529283Y-98117620D02*
X160200380Y-98117620D01*
X174866210Y-95780693D02*
X172529283Y-98117620D01*
X174866210Y-82830574D02*
X174866210Y-95780693D01*
X176708002Y-71247000D02*
X178282600Y-72821598D01*
X178282600Y-72821598D02*
X178282600Y-73380600D01*
X178282600Y-73380600D02*
X176339410Y-75323790D01*
X174371000Y-71247000D02*
X176708002Y-71247000D01*
X176339410Y-75323790D02*
X176339410Y-81357374D01*
X156591000Y-101727000D02*
X156591000Y-102664686D01*
X176339410Y-81357374D02*
X174866210Y-82830574D01*
D36*
G04 #@! TO.N,SDA*
X84772500Y-66802000D02*
X84899500Y-66675000D01*
X83820000Y-66802000D02*
X84772500Y-66802000D01*
X88773000Y-66675000D02*
X87503000Y-66675000D01*
D34*
X87503000Y-66675000D02*
X84899500Y-66675000D01*
D37*
X84455000Y-70612000D02*
X83185000Y-70612000D01*
D36*
X83820000Y-66802000D02*
X82470000Y-66802000D01*
D37*
X83185000Y-70612000D02*
X82169000Y-69596000D01*
D34*
X82169000Y-67103000D02*
X82470000Y-66802000D01*
X82169000Y-69596000D02*
X82169000Y-67103000D01*
X142445884Y-95402400D02*
X153009600Y-95402400D01*
X139296284Y-98552000D02*
X142445884Y-95402400D01*
X126593600Y-98552000D02*
X139296284Y-98552000D01*
X125069600Y-97028000D02*
X126593600Y-98552000D01*
X123975800Y-90143000D02*
X125069600Y-91236800D01*
X162941000Y-85471000D02*
X166243000Y-82169000D01*
X85902800Y-70612000D02*
X92225800Y-76935000D01*
X84455000Y-70612000D02*
X85902800Y-70612000D01*
X92225800Y-76935000D02*
X117549600Y-76935000D01*
X119024400Y-78409800D02*
X119024400Y-88558822D01*
X153009600Y-95402400D02*
X162941000Y-85471000D01*
X117549600Y-76935000D02*
X119024400Y-78409800D01*
X125069600Y-91236800D02*
X125069600Y-97028000D01*
X120608578Y-90143000D02*
X123975800Y-90143000D01*
X119024400Y-88558822D02*
X120608578Y-90143000D01*
D36*
G04 #@! TO.N,SCL*
X85022081Y-69342000D02*
X85344000Y-69342000D01*
X83820000Y-69342000D02*
X85022081Y-69342000D01*
D34*
X87149000Y-69342000D02*
X85344000Y-69342000D01*
D36*
X88773000Y-70866000D02*
X88673000Y-70866000D01*
X88673000Y-70866000D02*
X87911000Y-70104000D01*
D34*
X87911000Y-70104000D02*
X87149000Y-69342000D01*
D36*
X88873000Y-70866000D02*
X89635000Y-71628000D01*
X88773000Y-70866000D02*
X88873000Y-70866000D01*
D34*
X162814000Y-84455000D02*
X162498010Y-84770990D01*
X162814000Y-83850002D02*
X162814000Y-84455000D01*
X168021000Y-78613000D02*
X168021000Y-78359000D01*
X166023001Y-80610999D02*
X168021000Y-78613000D01*
X166023001Y-80641001D02*
X166023001Y-80610999D01*
X162814000Y-83850002D02*
X166023001Y-80641001D01*
X162814000Y-83883500D02*
X162814000Y-83850002D01*
X125869610Y-96696626D02*
X126912184Y-97739200D01*
X125272800Y-90308616D02*
X125869610Y-90905426D01*
X125272800Y-90271600D02*
X125272800Y-90308616D01*
X138963400Y-97739200D02*
X142113000Y-94589600D01*
X124344190Y-89342990D02*
X125272800Y-90271600D01*
X125869610Y-90905426D02*
X125869610Y-96696626D01*
X94141990Y-76134990D02*
X117891953Y-76134990D01*
X152107900Y-94589600D02*
X162814000Y-83883500D01*
X89635000Y-71628000D02*
X94141990Y-76134990D01*
X126912184Y-97739200D02*
X138963400Y-97739200D01*
X117891953Y-76134990D02*
X119826010Y-78069047D01*
X119826010Y-78069047D02*
X119826010Y-88229048D01*
X120939952Y-89342990D02*
X124344190Y-89342990D01*
X142113000Y-94589600D02*
X152107900Y-94589600D01*
X119826010Y-88229048D02*
X120939952Y-89342990D01*
G04 #@! TO.N,octave-1*
X154051000Y-103886000D02*
X154051000Y-105886000D01*
X174822393Y-81743007D02*
X175539400Y-81026000D01*
X174813009Y-81743007D02*
X174822393Y-81743007D01*
X154051000Y-103124000D02*
X159857390Y-97317610D01*
X154051000Y-103886000D02*
X154051000Y-103124000D01*
X159857390Y-97317610D02*
X172197909Y-97317610D01*
X175539400Y-81026000D02*
X175539400Y-74015600D01*
X174066200Y-82489816D02*
X174813009Y-81743007D01*
X172197909Y-97317610D02*
X174066200Y-95449319D01*
X174066200Y-95449319D02*
X174066200Y-82489816D01*
D37*
X175320401Y-73796601D02*
X175539400Y-74015600D01*
X175320401Y-73167799D02*
X175320401Y-73796601D01*
X175920400Y-72567800D02*
X175320401Y-73167799D01*
D34*
X151028400Y-100101400D02*
X148924000Y-100101400D01*
X154051000Y-103124000D02*
X151028400Y-100101400D01*
G04 #@! TO.N,midi-data-pin*
X164592000Y-75565000D02*
X164846000Y-75311000D01*
X155829000Y-75565000D02*
X164592000Y-75565000D01*
X155829000Y-75565000D02*
X151663400Y-71399400D01*
X151663400Y-71399400D02*
X149377400Y-71399400D01*
X145770600Y-84023200D02*
X145770600Y-75006200D01*
X144475200Y-85318600D02*
X145770600Y-84023200D01*
X128524000Y-85318600D02*
X144475200Y-85318600D01*
X146405600Y-74371200D02*
X146075400Y-74701400D01*
X127689600Y-80311000D02*
X127076200Y-80924400D01*
X149377400Y-71399400D02*
X146405600Y-74371200D01*
X129362200Y-80311000D02*
X127689600Y-80311000D01*
X145770600Y-75006200D02*
X146405600Y-74371200D01*
X127076200Y-80924400D02*
X127076200Y-83870800D01*
X127076200Y-83870800D02*
X128524000Y-85318600D01*
G04 #@! TO.N,button-1*
X97028000Y-106573000D02*
X98153000Y-106573000D01*
X98153000Y-106573000D02*
X99353001Y-105372999D01*
D36*
X113411000Y-106426000D02*
X112966500Y-106426000D01*
X112141000Y-105600500D02*
X112141000Y-105372999D01*
X112966500Y-106426000D02*
X112141000Y-105600500D01*
D34*
X112141000Y-105372999D02*
X99353001Y-105372999D01*
X94840000Y-105510000D02*
X90497962Y-105510000D01*
X97028000Y-106573000D02*
X95903000Y-106573000D01*
X95903000Y-106573000D02*
X94840000Y-105510000D01*
X85205384Y-100076000D02*
X85675374Y-100545990D01*
X84074000Y-100076000D02*
X85205384Y-100076000D01*
X90497962Y-105510000D02*
X86100192Y-100970808D01*
X85675374Y-100545990D02*
X86100192Y-100970808D01*
G04 #@! TO.N,Net-(D1-Pad2)*
X103856800Y-68554600D02*
X103856800Y-67404600D01*
X103856800Y-58957200D02*
X104394000Y-58420000D01*
X103856800Y-68554600D02*
X103856800Y-58957200D01*
G04 #@! TO.N,Net-(D2-Pad2)*
X102285800Y-70532600D02*
X103856800Y-72103600D01*
X96774000Y-58420000D02*
X99822000Y-61468000D01*
D36*
X97673999Y-59319999D02*
X97673999Y-59637499D01*
X96774000Y-58420000D02*
X97673999Y-59319999D01*
X103856800Y-73253600D02*
X103856800Y-72103600D01*
D34*
X102285800Y-70532600D02*
X102285800Y-70510400D01*
X102285800Y-70510400D02*
X101803200Y-70027800D01*
X101803200Y-70027800D02*
X101803200Y-67183000D01*
X101803200Y-67183000D02*
X103022400Y-65963800D01*
X103022400Y-65963800D02*
X103022400Y-62509400D01*
X101981000Y-61468000D02*
X99822000Y-61468000D01*
X103022400Y-62509400D02*
X101981000Y-61468000D01*
D36*
G04 #@! TO.N,midi-raw-signal-power*
X138938000Y-69215000D02*
X138938000Y-70841345D01*
X142443200Y-83011000D02*
X142443200Y-82911000D01*
X142443200Y-82911000D02*
X141617700Y-82085500D01*
D34*
X140284200Y-76911200D02*
X140284200Y-80752000D01*
X138938000Y-70841345D02*
X138938000Y-75565000D01*
X140284200Y-80752000D02*
X141617700Y-82085500D01*
X138938000Y-75565000D02*
X140284200Y-76911200D01*
G04 #@! TO.N,midi-raw-signal-data*
X120588010Y-70673990D02*
X125476000Y-65786000D01*
X120588010Y-77983929D02*
X120588010Y-70673990D01*
X122174000Y-79569919D02*
X120588010Y-77983929D01*
D36*
X122174000Y-80772000D02*
X122174000Y-79569919D01*
X129362200Y-83011000D02*
X130512200Y-83011000D01*
X133858000Y-69215000D02*
X133858000Y-70841345D01*
X133858000Y-69215000D02*
X133858000Y-67691000D01*
D34*
X125476000Y-63673998D02*
X125476000Y-65786000D01*
X125479802Y-63673998D02*
X126989790Y-62164010D01*
X125476000Y-63673998D02*
X125479802Y-63673998D01*
X126989790Y-62164010D02*
X131074210Y-62164010D01*
X133858000Y-64947800D02*
X133858000Y-69215000D01*
X131074210Y-62164010D02*
X133858000Y-64947800D01*
X131953000Y-81927700D02*
X130869700Y-83011000D01*
X130869700Y-83011000D02*
X130512200Y-83011000D01*
X131953000Y-74231500D02*
X131953000Y-81927700D01*
X133858000Y-70841345D02*
X133858000Y-72326500D01*
X133858000Y-72326500D02*
X131953000Y-74231500D01*
X107213400Y-72542400D02*
X107213400Y-72597000D01*
X107721400Y-72034400D02*
X107213400Y-72542400D01*
X107721400Y-72009000D02*
X107721400Y-72034400D01*
X108026200Y-71704200D02*
X107721400Y-72009000D01*
X108026200Y-71678800D02*
X108026200Y-71704200D01*
X125476000Y-63673998D02*
X123966012Y-62164010D01*
X107213400Y-72597000D02*
X106556800Y-73253600D01*
X117555411Y-62164010D02*
X110189412Y-69530009D01*
X123966012Y-62164010D02*
X117555411Y-62164010D01*
X110189412Y-69530009D02*
X110174991Y-69530009D01*
X110174991Y-69530009D02*
X108026200Y-71678800D01*
G04 #@! TO.N,button-2*
X100965000Y-108839000D02*
X100965000Y-108730000D01*
X100965000Y-108730000D02*
X102997000Y-106698000D01*
X102997000Y-106698000D02*
X102997000Y-106573000D01*
X99060000Y-108839000D02*
X100965000Y-108839000D01*
X98093999Y-107872999D02*
X99060000Y-108839000D01*
X96042999Y-107872999D02*
X98093999Y-107872999D01*
X85344000Y-101346000D02*
X84709000Y-101346000D01*
X102997000Y-106698000D02*
X104267000Y-107968000D01*
X105265000Y-108966000D02*
X102997000Y-106698000D01*
D36*
X113411000Y-108966000D02*
X112141000Y-108966000D01*
D34*
X112141000Y-108966000D02*
X105265000Y-108966000D01*
D36*
X81534000Y-100076000D02*
X82359500Y-100901500D01*
D37*
X82804000Y-101346000D02*
X82359500Y-100901500D01*
X84709000Y-101346000D02*
X82804000Y-101346000D01*
X85344000Y-101346000D02*
X85344000Y-101867870D01*
X85344000Y-101867870D02*
X92003131Y-108527001D01*
X92003131Y-108527001D02*
X92017001Y-108527001D01*
X92017001Y-108527001D02*
X92633800Y-109143800D01*
X94772198Y-109143800D02*
X96042999Y-107872999D01*
X92633800Y-109143800D02*
X94772198Y-109143800D01*
D34*
G04 #@! TO.N,button-3*
X109962000Y-99822000D02*
X109837000Y-99822000D01*
X109837000Y-99822000D02*
X108535001Y-101123999D01*
X108535001Y-101123999D02*
X108535001Y-103474001D01*
X108535001Y-103474001D02*
X108445001Y-103564001D01*
X110361000Y-101346000D02*
X109962000Y-100947000D01*
X109962000Y-100947000D02*
X109962000Y-99822000D01*
D36*
X113411000Y-101346000D02*
X112077500Y-101346000D01*
D34*
X112077500Y-101346000D02*
X110361000Y-101346000D01*
D36*
X84074000Y-97536000D02*
X85153500Y-97536000D01*
D37*
X108395001Y-103614001D02*
X108535001Y-103474001D01*
X93346678Y-103657400D02*
X93390077Y-103614001D01*
X85153500Y-97536000D02*
X91033600Y-97536000D01*
X91033600Y-97536000D02*
X92252800Y-98755200D01*
X92252800Y-98755200D02*
X92252800Y-102563522D01*
X92252800Y-102563522D02*
X93346678Y-103657400D01*
X93390077Y-103614001D02*
X108395001Y-103614001D01*
D34*
G04 #@! TO.N,button-4*
X109835000Y-102489000D02*
X109835000Y-103163965D01*
X111232000Y-103886000D02*
X109835000Y-102489000D01*
D36*
X113411000Y-103886000D02*
X112141000Y-103886000D01*
D34*
X112141000Y-103886000D02*
X111232000Y-103886000D01*
D36*
X81534000Y-97790000D02*
X82169000Y-98425000D01*
X81534000Y-97536000D02*
X81534000Y-97790000D01*
D37*
X109835000Y-103234676D02*
X109835000Y-102489000D01*
X108726476Y-104343200D02*
X109835000Y-103234676D01*
X94640400Y-104343200D02*
X108726476Y-104343200D01*
X94626192Y-104357408D02*
X94640400Y-104343200D01*
X82169000Y-98425000D02*
X82550000Y-98806000D01*
X82550000Y-98806000D02*
X91135200Y-98806000D01*
X91135200Y-98806000D02*
X91541600Y-99212400D01*
X91541600Y-99212400D02*
X91541600Y-102842284D01*
X91541600Y-102842284D02*
X93056724Y-104357408D01*
X93056724Y-104357408D02*
X94626192Y-104357408D01*
D34*
G04 #@! TO.N,Net-(J1-Pad4)*
X111997508Y-88646000D02*
X113411000Y-88646000D01*
X106328142Y-88646000D02*
X111997508Y-88646000D01*
X104296142Y-90678000D02*
X106328142Y-88646000D01*
X98378000Y-90678000D02*
X104296142Y-90678000D01*
G04 #@! TO.N,Net-(J1-Pad3)*
X103886000Y-86106000D02*
X101600000Y-88392000D01*
X101600000Y-88392000D02*
X98378000Y-88392000D01*
D36*
X113411000Y-86106000D02*
X112077500Y-86106000D01*
D34*
X112077500Y-86106000D02*
X103886000Y-86106000D01*
G04 #@! TO.N,Net-(J1-Pad5)*
X103632000Y-92964000D02*
X98378000Y-92964000D01*
X106172000Y-90424000D02*
X103632000Y-92964000D01*
D36*
X113411000Y-91186000D02*
X111760000Y-91186000D01*
D34*
X106172000Y-90398600D02*
X107124590Y-89446010D01*
X106172000Y-90424000D02*
X106172000Y-90398600D01*
X110020010Y-89446010D02*
X111760000Y-91186000D01*
X107124590Y-89446010D02*
X110020010Y-89446010D01*
G04 #@! TO.N,Net-(J1-Pad6)*
X105918000Y-93218000D02*
X103886000Y-95250000D01*
X103886000Y-95250000D02*
X98378000Y-95250000D01*
X106045000Y-93218000D02*
X105918000Y-93218000D01*
D35*
X107696000Y-93218000D02*
X106045000Y-93218000D01*
X107950000Y-93218000D02*
X107696000Y-93218000D01*
D34*
X108458000Y-93726000D02*
X107950000Y-93218000D01*
D36*
X113411000Y-93726000D02*
X111887000Y-93726000D01*
D34*
X111887000Y-93726000D02*
X108458000Y-93726000D01*
G04 #@! TO.N,Net-(J1-Pad7)*
X105029000Y-95758000D02*
X103251000Y-97536000D01*
X103251000Y-97536000D02*
X98378000Y-97536000D01*
X106172000Y-95758000D02*
X105029000Y-95758000D01*
D35*
X107823000Y-95758000D02*
X106172000Y-95758000D01*
D34*
X111489508Y-95758000D02*
X107823000Y-95758000D01*
X111997508Y-96266000D02*
X111489508Y-95758000D01*
D36*
X113411000Y-96266000D02*
X111997508Y-96266000D01*
D34*
G04 #@! TO.N,Net-(J1-Pad8)*
X111997508Y-98806000D02*
X111558509Y-98367001D01*
X103308999Y-98367001D02*
X101727000Y-99949000D01*
X111558509Y-98367001D02*
X103308999Y-98367001D01*
X101727000Y-99949000D02*
X98505000Y-99949000D01*
X98505000Y-99949000D02*
X98378000Y-99822000D01*
D36*
X113411000Y-98806000D02*
X112141000Y-98806000D01*
D34*
X112141000Y-98806000D02*
X111997508Y-98806000D01*
G04 #@! TD*
D38*
G04 #@! TO.N,GND*
G36*
X111632494Y-79703831D02*
X111568309Y-80026510D01*
X111568309Y-82025490D01*
X111632494Y-82348169D01*
X111815277Y-82621723D01*
X111858529Y-82650623D01*
X111631223Y-83155528D01*
X111795673Y-83439000D01*
X113284000Y-83439000D01*
X113284000Y-83419000D01*
X113538000Y-83419000D01*
X113538000Y-83439000D01*
X115026327Y-83439000D01*
X115190777Y-83155528D01*
X114963471Y-82650623D01*
X115006723Y-82621723D01*
X115189506Y-82348169D01*
X115253691Y-82025490D01*
X115253691Y-80026510D01*
X115189506Y-79703831D01*
X115139506Y-79629000D01*
X116332000Y-79629000D01*
X116332000Y-110617000D01*
X114227699Y-110617000D01*
X114727826Y-110282826D01*
X115131516Y-109678661D01*
X115273273Y-108966000D01*
X115131516Y-108253339D01*
X114759114Y-107696000D01*
X115131516Y-107138661D01*
X115273273Y-106426000D01*
X115131516Y-105713339D01*
X114759114Y-105156000D01*
X115131516Y-104598661D01*
X115273273Y-103886000D01*
X115131516Y-103173339D01*
X114759114Y-102616000D01*
X115131516Y-102058661D01*
X115273273Y-101346000D01*
X115131516Y-100633339D01*
X114759114Y-100076000D01*
X115131516Y-99518661D01*
X115273273Y-98806000D01*
X115131516Y-98093339D01*
X114759114Y-97536000D01*
X115131516Y-96978661D01*
X115273273Y-96266000D01*
X115131516Y-95553339D01*
X114759114Y-94996000D01*
X115131516Y-94438661D01*
X115273273Y-93726000D01*
X115131516Y-93013339D01*
X114759114Y-92456000D01*
X115131516Y-91898661D01*
X115273273Y-91186000D01*
X115131516Y-90473339D01*
X114759114Y-89916000D01*
X115131516Y-89358661D01*
X115273273Y-88646000D01*
X115131516Y-87933339D01*
X114759114Y-87376000D01*
X115131516Y-86818661D01*
X115273273Y-86106000D01*
X115131516Y-85393339D01*
X114727826Y-84789174D01*
X114726276Y-84788138D01*
X114898219Y-84626318D01*
X115190777Y-83976472D01*
X115026327Y-83693000D01*
X113538000Y-83693000D01*
X113538000Y-83713000D01*
X113284000Y-83713000D01*
X113284000Y-83693000D01*
X111795673Y-83693000D01*
X111631223Y-83976472D01*
X111923781Y-84626318D01*
X112095724Y-84788138D01*
X112094174Y-84789174D01*
X111895180Y-85086990D01*
X111673663Y-85131052D01*
X111539046Y-85221000D01*
X103973159Y-85221000D01*
X103885999Y-85203663D01*
X103798839Y-85221000D01*
X103798835Y-85221000D01*
X103540690Y-85272348D01*
X103461192Y-85325467D01*
X103321845Y-85418576D01*
X103321844Y-85418577D01*
X103247951Y-85467951D01*
X103198577Y-85541844D01*
X101233422Y-87507000D01*
X99728696Y-87507000D01*
X99726157Y-87494235D01*
X99585809Y-87284191D01*
X99375765Y-87143843D01*
X99128000Y-87094560D01*
X97628000Y-87094560D01*
X97380235Y-87143843D01*
X97170191Y-87284191D01*
X97029843Y-87494235D01*
X97028000Y-87503500D01*
X97026157Y-87494235D01*
X96885809Y-87284191D01*
X96675765Y-87143843D01*
X96428000Y-87094560D01*
X94928000Y-87094560D01*
X94680235Y-87143843D01*
X94470191Y-87284191D01*
X94329843Y-87494235D01*
X94280560Y-87742000D01*
X94280560Y-88437861D01*
X93687422Y-89031000D01*
X90983502Y-89031000D01*
X91078086Y-88936416D01*
X91378000Y-88212357D01*
X91378000Y-87428643D01*
X91078086Y-86704584D01*
X90523916Y-86150414D01*
X89799857Y-85850500D01*
X89016143Y-85850500D01*
X88292084Y-86150414D01*
X87737914Y-86704584D01*
X87438000Y-87428643D01*
X87438000Y-88212357D01*
X87737914Y-88936416D01*
X87832498Y-89031000D01*
X85691954Y-89031000D01*
X85557337Y-88941052D01*
X85440267Y-88917765D01*
X85431299Y-88904344D01*
X85533833Y-88835833D01*
X85716616Y-88562279D01*
X85780801Y-88239600D01*
X85780801Y-86512400D01*
X85716616Y-86189721D01*
X85533833Y-85916167D01*
X85260279Y-85733384D01*
X84937600Y-85669199D01*
X83210400Y-85669199D01*
X82887721Y-85733384D01*
X82614167Y-85916167D01*
X82545656Y-86018701D01*
X82193639Y-85783490D01*
X81700506Y-85685400D01*
X81367494Y-85685400D01*
X80874361Y-85783490D01*
X80315146Y-86157146D01*
X79941490Y-86716361D01*
X79810280Y-87376000D01*
X79941490Y-88035639D01*
X80315146Y-88594854D01*
X80391691Y-88646000D01*
X80315146Y-88697146D01*
X79941490Y-89256361D01*
X79810280Y-89916000D01*
X79941490Y-90575639D01*
X80315146Y-91134854D01*
X80391691Y-91186000D01*
X80315146Y-91237146D01*
X79941490Y-91796361D01*
X79810280Y-92456000D01*
X79941490Y-93115639D01*
X80315146Y-93674854D01*
X80391691Y-93726000D01*
X80315146Y-93777146D01*
X79941490Y-94336361D01*
X79810280Y-94996000D01*
X79941490Y-95655639D01*
X80315146Y-96214854D01*
X80391691Y-96266000D01*
X80315146Y-96317146D01*
X79941490Y-96876361D01*
X79810280Y-97536000D01*
X79941490Y-98195639D01*
X80315146Y-98754854D01*
X80391691Y-98806000D01*
X80315146Y-98857146D01*
X79941490Y-99416361D01*
X79810280Y-100076000D01*
X79941490Y-100735639D01*
X80315146Y-101294854D01*
X80428156Y-101370365D01*
X80095485Y-101727839D01*
X79888799Y-102226843D01*
X80055595Y-102489000D01*
X81407000Y-102489000D01*
X81407000Y-102469000D01*
X81661000Y-102469000D01*
X81661000Y-102489000D01*
X81681000Y-102489000D01*
X81681000Y-102743000D01*
X81661000Y-102743000D01*
X81661000Y-104095082D01*
X81923159Y-104261209D01*
X82523130Y-103987050D01*
X82775581Y-103715777D01*
X82855146Y-103834854D01*
X83414361Y-104208510D01*
X83907494Y-104306600D01*
X84240506Y-104306600D01*
X84733639Y-104208510D01*
X85292854Y-103834854D01*
X85628215Y-103332952D01*
X87648262Y-105353000D01*
X87137996Y-105353000D01*
X86463556Y-105632362D01*
X85947362Y-106148556D01*
X85668000Y-106822996D01*
X85668000Y-107553004D01*
X85947362Y-108227444D01*
X86463556Y-108743638D01*
X87137996Y-109023000D01*
X87868004Y-109023000D01*
X88542444Y-108743638D01*
X89058638Y-108227444D01*
X89338000Y-107553004D01*
X89338000Y-107042738D01*
X91354548Y-109059287D01*
X91401130Y-109129002D01*
X91470845Y-109175584D01*
X91470846Y-109175585D01*
X91483904Y-109184310D01*
X91512650Y-109203518D01*
X91985214Y-109676082D01*
X92031799Y-109745801D01*
X92307999Y-109930352D01*
X92551563Y-109978800D01*
X92633800Y-109995158D01*
X92716037Y-109978800D01*
X94689965Y-109978800D01*
X94772198Y-109995157D01*
X94854431Y-109978800D01*
X94854435Y-109978800D01*
X95097999Y-109930352D01*
X95374199Y-109745801D01*
X95420785Y-109676080D01*
X95576000Y-109520865D01*
X95576000Y-109987501D01*
X95701903Y-110291458D01*
X95934542Y-110524097D01*
X96158831Y-110617000D01*
X78994000Y-110617000D01*
X78994000Y-103005157D01*
X79888799Y-103005157D01*
X80095485Y-103504161D01*
X80544870Y-103987050D01*
X81144841Y-104261209D01*
X81407000Y-104095082D01*
X81407000Y-102743000D01*
X80055595Y-102743000D01*
X79888799Y-103005157D01*
X78994000Y-103005157D01*
X78994000Y-85505073D01*
X93490533Y-85505073D01*
X93565058Y-85814386D01*
X94204128Y-86054436D01*
X94886415Y-86031652D01*
X95410942Y-85814386D01*
X95485467Y-85505073D01*
X94488000Y-84507605D01*
X93490533Y-85505073D01*
X78994000Y-85505073D01*
X78994000Y-84044128D01*
X92761564Y-84044128D01*
X92784348Y-84726415D01*
X93001614Y-85250942D01*
X93310927Y-85325467D01*
X94308395Y-84328000D01*
X94667605Y-84328000D01*
X95526297Y-85186691D01*
X95573246Y-85300036D01*
X96055964Y-85782754D01*
X96686666Y-86044000D01*
X97369334Y-86044000D01*
X98000036Y-85782754D01*
X98298000Y-85484790D01*
X98595964Y-85782754D01*
X99226666Y-86044000D01*
X99909334Y-86044000D01*
X100540036Y-85782754D01*
X101022754Y-85300036D01*
X101284000Y-84669334D01*
X101284000Y-83986666D01*
X101022754Y-83355964D01*
X100540036Y-82873246D01*
X99909334Y-82612000D01*
X99226666Y-82612000D01*
X98595964Y-82873246D01*
X98298000Y-83171210D01*
X98000036Y-82873246D01*
X97369334Y-82612000D01*
X96686666Y-82612000D01*
X96055964Y-82873246D01*
X95573246Y-83355964D01*
X95526297Y-83469309D01*
X94667605Y-84328000D01*
X94308395Y-84328000D01*
X93310927Y-83330533D01*
X93001614Y-83405058D01*
X92761564Y-84044128D01*
X78994000Y-84044128D01*
X78994000Y-81422996D01*
X85668000Y-81422996D01*
X85668000Y-82153004D01*
X85947362Y-82827444D01*
X86463556Y-83343638D01*
X87137996Y-83623000D01*
X87868004Y-83623000D01*
X88542444Y-83343638D01*
X88735155Y-83150927D01*
X93490533Y-83150927D01*
X94488000Y-84148395D01*
X95485467Y-83150927D01*
X95410942Y-82841614D01*
X94771872Y-82601564D01*
X94089585Y-82624348D01*
X93565058Y-82841614D01*
X93490533Y-83150927D01*
X88735155Y-83150927D01*
X89058638Y-82827444D01*
X89338000Y-82153004D01*
X89338000Y-81422996D01*
X104718000Y-81422996D01*
X104718000Y-82153004D01*
X104997362Y-82827444D01*
X105513556Y-83343638D01*
X106187996Y-83623000D01*
X106918004Y-83623000D01*
X107592444Y-83343638D01*
X108108638Y-82827444D01*
X108388000Y-82153004D01*
X108388000Y-81422996D01*
X108108638Y-80748556D01*
X107592444Y-80232362D01*
X106918004Y-79953000D01*
X106187996Y-79953000D01*
X105513556Y-80232362D01*
X104997362Y-80748556D01*
X104718000Y-81422996D01*
X89338000Y-81422996D01*
X89058638Y-80748556D01*
X88542444Y-80232362D01*
X87868004Y-79953000D01*
X87137996Y-79953000D01*
X86463556Y-80232362D01*
X85947362Y-80748556D01*
X85668000Y-81422996D01*
X78994000Y-81422996D01*
X78994000Y-79629000D01*
X111682494Y-79629000D01*
X111632494Y-79703831D01*
X111632494Y-79703831D01*
G37*
X111632494Y-79703831D02*
X111568309Y-80026510D01*
X111568309Y-82025490D01*
X111632494Y-82348169D01*
X111815277Y-82621723D01*
X111858529Y-82650623D01*
X111631223Y-83155528D01*
X111795673Y-83439000D01*
X113284000Y-83439000D01*
X113284000Y-83419000D01*
X113538000Y-83419000D01*
X113538000Y-83439000D01*
X115026327Y-83439000D01*
X115190777Y-83155528D01*
X114963471Y-82650623D01*
X115006723Y-82621723D01*
X115189506Y-82348169D01*
X115253691Y-82025490D01*
X115253691Y-80026510D01*
X115189506Y-79703831D01*
X115139506Y-79629000D01*
X116332000Y-79629000D01*
X116332000Y-110617000D01*
X114227699Y-110617000D01*
X114727826Y-110282826D01*
X115131516Y-109678661D01*
X115273273Y-108966000D01*
X115131516Y-108253339D01*
X114759114Y-107696000D01*
X115131516Y-107138661D01*
X115273273Y-106426000D01*
X115131516Y-105713339D01*
X114759114Y-105156000D01*
X115131516Y-104598661D01*
X115273273Y-103886000D01*
X115131516Y-103173339D01*
X114759114Y-102616000D01*
X115131516Y-102058661D01*
X115273273Y-101346000D01*
X115131516Y-100633339D01*
X114759114Y-100076000D01*
X115131516Y-99518661D01*
X115273273Y-98806000D01*
X115131516Y-98093339D01*
X114759114Y-97536000D01*
X115131516Y-96978661D01*
X115273273Y-96266000D01*
X115131516Y-95553339D01*
X114759114Y-94996000D01*
X115131516Y-94438661D01*
X115273273Y-93726000D01*
X115131516Y-93013339D01*
X114759114Y-92456000D01*
X115131516Y-91898661D01*
X115273273Y-91186000D01*
X115131516Y-90473339D01*
X114759114Y-89916000D01*
X115131516Y-89358661D01*
X115273273Y-88646000D01*
X115131516Y-87933339D01*
X114759114Y-87376000D01*
X115131516Y-86818661D01*
X115273273Y-86106000D01*
X115131516Y-85393339D01*
X114727826Y-84789174D01*
X114726276Y-84788138D01*
X114898219Y-84626318D01*
X115190777Y-83976472D01*
X115026327Y-83693000D01*
X113538000Y-83693000D01*
X113538000Y-83713000D01*
X113284000Y-83713000D01*
X113284000Y-83693000D01*
X111795673Y-83693000D01*
X111631223Y-83976472D01*
X111923781Y-84626318D01*
X112095724Y-84788138D01*
X112094174Y-84789174D01*
X111895180Y-85086990D01*
X111673663Y-85131052D01*
X111539046Y-85221000D01*
X103973159Y-85221000D01*
X103885999Y-85203663D01*
X103798839Y-85221000D01*
X103798835Y-85221000D01*
X103540690Y-85272348D01*
X103461192Y-85325467D01*
X103321845Y-85418576D01*
X103321844Y-85418577D01*
X103247951Y-85467951D01*
X103198577Y-85541844D01*
X101233422Y-87507000D01*
X99728696Y-87507000D01*
X99726157Y-87494235D01*
X99585809Y-87284191D01*
X99375765Y-87143843D01*
X99128000Y-87094560D01*
X97628000Y-87094560D01*
X97380235Y-87143843D01*
X97170191Y-87284191D01*
X97029843Y-87494235D01*
X97028000Y-87503500D01*
X97026157Y-87494235D01*
X96885809Y-87284191D01*
X96675765Y-87143843D01*
X96428000Y-87094560D01*
X94928000Y-87094560D01*
X94680235Y-87143843D01*
X94470191Y-87284191D01*
X94329843Y-87494235D01*
X94280560Y-87742000D01*
X94280560Y-88437861D01*
X93687422Y-89031000D01*
X90983502Y-89031000D01*
X91078086Y-88936416D01*
X91378000Y-88212357D01*
X91378000Y-87428643D01*
X91078086Y-86704584D01*
X90523916Y-86150414D01*
X89799857Y-85850500D01*
X89016143Y-85850500D01*
X88292084Y-86150414D01*
X87737914Y-86704584D01*
X87438000Y-87428643D01*
X87438000Y-88212357D01*
X87737914Y-88936416D01*
X87832498Y-89031000D01*
X85691954Y-89031000D01*
X85557337Y-88941052D01*
X85440267Y-88917765D01*
X85431299Y-88904344D01*
X85533833Y-88835833D01*
X85716616Y-88562279D01*
X85780801Y-88239600D01*
X85780801Y-86512400D01*
X85716616Y-86189721D01*
X85533833Y-85916167D01*
X85260279Y-85733384D01*
X84937600Y-85669199D01*
X83210400Y-85669199D01*
X82887721Y-85733384D01*
X82614167Y-85916167D01*
X82545656Y-86018701D01*
X82193639Y-85783490D01*
X81700506Y-85685400D01*
X81367494Y-85685400D01*
X80874361Y-85783490D01*
X80315146Y-86157146D01*
X79941490Y-86716361D01*
X79810280Y-87376000D01*
X79941490Y-88035639D01*
X80315146Y-88594854D01*
X80391691Y-88646000D01*
X80315146Y-88697146D01*
X79941490Y-89256361D01*
X79810280Y-89916000D01*
X79941490Y-90575639D01*
X80315146Y-91134854D01*
X80391691Y-91186000D01*
X80315146Y-91237146D01*
X79941490Y-91796361D01*
X79810280Y-92456000D01*
X79941490Y-93115639D01*
X80315146Y-93674854D01*
X80391691Y-93726000D01*
X80315146Y-93777146D01*
X79941490Y-94336361D01*
X79810280Y-94996000D01*
X79941490Y-95655639D01*
X80315146Y-96214854D01*
X80391691Y-96266000D01*
X80315146Y-96317146D01*
X79941490Y-96876361D01*
X79810280Y-97536000D01*
X79941490Y-98195639D01*
X80315146Y-98754854D01*
X80391691Y-98806000D01*
X80315146Y-98857146D01*
X79941490Y-99416361D01*
X79810280Y-100076000D01*
X79941490Y-100735639D01*
X80315146Y-101294854D01*
X80428156Y-101370365D01*
X80095485Y-101727839D01*
X79888799Y-102226843D01*
X80055595Y-102489000D01*
X81407000Y-102489000D01*
X81407000Y-102469000D01*
X81661000Y-102469000D01*
X81661000Y-102489000D01*
X81681000Y-102489000D01*
X81681000Y-102743000D01*
X81661000Y-102743000D01*
X81661000Y-104095082D01*
X81923159Y-104261209D01*
X82523130Y-103987050D01*
X82775581Y-103715777D01*
X82855146Y-103834854D01*
X83414361Y-104208510D01*
X83907494Y-104306600D01*
X84240506Y-104306600D01*
X84733639Y-104208510D01*
X85292854Y-103834854D01*
X85628215Y-103332952D01*
X87648262Y-105353000D01*
X87137996Y-105353000D01*
X86463556Y-105632362D01*
X85947362Y-106148556D01*
X85668000Y-106822996D01*
X85668000Y-107553004D01*
X85947362Y-108227444D01*
X86463556Y-108743638D01*
X87137996Y-109023000D01*
X87868004Y-109023000D01*
X88542444Y-108743638D01*
X89058638Y-108227444D01*
X89338000Y-107553004D01*
X89338000Y-107042738D01*
X91354548Y-109059287D01*
X91401130Y-109129002D01*
X91470845Y-109175584D01*
X91470846Y-109175585D01*
X91483904Y-109184310D01*
X91512650Y-109203518D01*
X91985214Y-109676082D01*
X92031799Y-109745801D01*
X92307999Y-109930352D01*
X92551563Y-109978800D01*
X92633800Y-109995158D01*
X92716037Y-109978800D01*
X94689965Y-109978800D01*
X94772198Y-109995157D01*
X94854431Y-109978800D01*
X94854435Y-109978800D01*
X95097999Y-109930352D01*
X95374199Y-109745801D01*
X95420785Y-109676080D01*
X95576000Y-109520865D01*
X95576000Y-109987501D01*
X95701903Y-110291458D01*
X95934542Y-110524097D01*
X96158831Y-110617000D01*
X78994000Y-110617000D01*
X78994000Y-103005157D01*
X79888799Y-103005157D01*
X80095485Y-103504161D01*
X80544870Y-103987050D01*
X81144841Y-104261209D01*
X81407000Y-104095082D01*
X81407000Y-102743000D01*
X80055595Y-102743000D01*
X79888799Y-103005157D01*
X78994000Y-103005157D01*
X78994000Y-85505073D01*
X93490533Y-85505073D01*
X93565058Y-85814386D01*
X94204128Y-86054436D01*
X94886415Y-86031652D01*
X95410942Y-85814386D01*
X95485467Y-85505073D01*
X94488000Y-84507605D01*
X93490533Y-85505073D01*
X78994000Y-85505073D01*
X78994000Y-84044128D01*
X92761564Y-84044128D01*
X92784348Y-84726415D01*
X93001614Y-85250942D01*
X93310927Y-85325467D01*
X94308395Y-84328000D01*
X94667605Y-84328000D01*
X95526297Y-85186691D01*
X95573246Y-85300036D01*
X96055964Y-85782754D01*
X96686666Y-86044000D01*
X97369334Y-86044000D01*
X98000036Y-85782754D01*
X98298000Y-85484790D01*
X98595964Y-85782754D01*
X99226666Y-86044000D01*
X99909334Y-86044000D01*
X100540036Y-85782754D01*
X101022754Y-85300036D01*
X101284000Y-84669334D01*
X101284000Y-83986666D01*
X101022754Y-83355964D01*
X100540036Y-82873246D01*
X99909334Y-82612000D01*
X99226666Y-82612000D01*
X98595964Y-82873246D01*
X98298000Y-83171210D01*
X98000036Y-82873246D01*
X97369334Y-82612000D01*
X96686666Y-82612000D01*
X96055964Y-82873246D01*
X95573246Y-83355964D01*
X95526297Y-83469309D01*
X94667605Y-84328000D01*
X94308395Y-84328000D01*
X93310927Y-83330533D01*
X93001614Y-83405058D01*
X92761564Y-84044128D01*
X78994000Y-84044128D01*
X78994000Y-81422996D01*
X85668000Y-81422996D01*
X85668000Y-82153004D01*
X85947362Y-82827444D01*
X86463556Y-83343638D01*
X87137996Y-83623000D01*
X87868004Y-83623000D01*
X88542444Y-83343638D01*
X88735155Y-83150927D01*
X93490533Y-83150927D01*
X94488000Y-84148395D01*
X95485467Y-83150927D01*
X95410942Y-82841614D01*
X94771872Y-82601564D01*
X94089585Y-82624348D01*
X93565058Y-82841614D01*
X93490533Y-83150927D01*
X88735155Y-83150927D01*
X89058638Y-82827444D01*
X89338000Y-82153004D01*
X89338000Y-81422996D01*
X104718000Y-81422996D01*
X104718000Y-82153004D01*
X104997362Y-82827444D01*
X105513556Y-83343638D01*
X106187996Y-83623000D01*
X106918004Y-83623000D01*
X107592444Y-83343638D01*
X108108638Y-82827444D01*
X108388000Y-82153004D01*
X108388000Y-81422996D01*
X108108638Y-80748556D01*
X107592444Y-80232362D01*
X106918004Y-79953000D01*
X106187996Y-79953000D01*
X105513556Y-80232362D01*
X104997362Y-80748556D01*
X104718000Y-81422996D01*
X89338000Y-81422996D01*
X89058638Y-80748556D01*
X88542444Y-80232362D01*
X87868004Y-79953000D01*
X87137996Y-79953000D01*
X86463556Y-80232362D01*
X85947362Y-80748556D01*
X85668000Y-81422996D01*
X78994000Y-81422996D01*
X78994000Y-79629000D01*
X111682494Y-79629000D01*
X111632494Y-79703831D01*
G36*
X101545000Y-109987501D02*
X101670903Y-110291458D01*
X101903542Y-110524097D01*
X102127831Y-110617000D01*
X97897169Y-110617000D01*
X98121458Y-110524097D01*
X98354097Y-110291458D01*
X98480000Y-109987501D01*
X98480000Y-109515836D01*
X98495844Y-109526423D01*
X98495845Y-109526424D01*
X98612019Y-109604049D01*
X98714690Y-109672652D01*
X98972835Y-109724000D01*
X98972839Y-109724000D01*
X99060000Y-109741337D01*
X99147161Y-109724000D01*
X100877835Y-109724000D01*
X100965000Y-109741338D01*
X101052164Y-109724000D01*
X101052165Y-109724000D01*
X101310310Y-109672652D01*
X101545000Y-109515836D01*
X101545000Y-109987501D01*
X101545000Y-109987501D01*
G37*
X101545000Y-109987501D02*
X101670903Y-110291458D01*
X101903542Y-110524097D01*
X102127831Y-110617000D01*
X97897169Y-110617000D01*
X98121458Y-110524097D01*
X98354097Y-110291458D01*
X98480000Y-109987501D01*
X98480000Y-109515836D01*
X98495844Y-109526423D01*
X98495845Y-109526424D01*
X98612019Y-109604049D01*
X98714690Y-109672652D01*
X98972835Y-109724000D01*
X98972839Y-109724000D01*
X99060000Y-109741337D01*
X99147161Y-109724000D01*
X100877835Y-109724000D01*
X100965000Y-109741338D01*
X101052164Y-109724000D01*
X101052165Y-109724000D01*
X101310310Y-109672652D01*
X101545000Y-109515836D01*
X101545000Y-109987501D01*
G36*
X97155000Y-108946000D02*
X97175000Y-108946000D01*
X97175000Y-109200000D01*
X97155000Y-109200000D01*
X97155000Y-109220000D01*
X96901000Y-109220000D01*
X96901000Y-109200000D01*
X96881000Y-109200000D01*
X96881000Y-108946000D01*
X96901000Y-108946000D01*
X96901000Y-108926000D01*
X97155000Y-108926000D01*
X97155000Y-108946000D01*
X97155000Y-108946000D01*
G37*
X97155000Y-108946000D02*
X97175000Y-108946000D01*
X97175000Y-109200000D01*
X97155000Y-109200000D01*
X97155000Y-109220000D01*
X96901000Y-109220000D01*
X96901000Y-109200000D01*
X96881000Y-109200000D01*
X96881000Y-108946000D01*
X96901000Y-108946000D01*
X96901000Y-108926000D01*
X97155000Y-108926000D01*
X97155000Y-108946000D01*
G36*
X103124000Y-108946000D02*
X103144000Y-108946000D01*
X103144000Y-109200000D01*
X103124000Y-109200000D01*
X103124000Y-109220000D01*
X102870000Y-109220000D01*
X102870000Y-109200000D01*
X102850000Y-109200000D01*
X102850000Y-108946000D01*
X102870000Y-108946000D01*
X102870000Y-108926000D01*
X103124000Y-108926000D01*
X103124000Y-108946000D01*
X103124000Y-108946000D01*
G37*
X103124000Y-108946000D02*
X103144000Y-108946000D01*
X103144000Y-109200000D01*
X103124000Y-109200000D01*
X103124000Y-109220000D01*
X102870000Y-109220000D01*
X102870000Y-109200000D01*
X102850000Y-109200000D01*
X102850000Y-108946000D01*
X102870000Y-108946000D01*
X102870000Y-108926000D01*
X103124000Y-108926000D01*
X103124000Y-108946000D01*
G36*
X103532084Y-99485414D02*
X102977914Y-100039584D01*
X102678000Y-100763643D01*
X102678000Y-101547357D01*
X102977914Y-102271416D01*
X103485499Y-102779001D01*
X101782447Y-102779001D01*
X101919000Y-102449334D01*
X101919000Y-101766666D01*
X101657754Y-101135964D01*
X101355790Y-100834000D01*
X101639839Y-100834000D01*
X101727000Y-100851337D01*
X101814161Y-100834000D01*
X101814165Y-100834000D01*
X102072310Y-100782652D01*
X102365049Y-100587049D01*
X102414425Y-100513153D01*
X103675578Y-99252001D01*
X104095595Y-99252001D01*
X103532084Y-99485414D01*
X103532084Y-99485414D01*
G37*
X103532084Y-99485414D02*
X102977914Y-100039584D01*
X102678000Y-100763643D01*
X102678000Y-101547357D01*
X102977914Y-102271416D01*
X103485499Y-102779001D01*
X101782447Y-102779001D01*
X101919000Y-102449334D01*
X101919000Y-101766666D01*
X101657754Y-101135964D01*
X101355790Y-100834000D01*
X101639839Y-100834000D01*
X101727000Y-100851337D01*
X101814161Y-100834000D01*
X101814165Y-100834000D01*
X102072310Y-100782652D01*
X102365049Y-100587049D01*
X102414425Y-100513153D01*
X103675578Y-99252001D01*
X104095595Y-99252001D01*
X103532084Y-99485414D01*
G36*
X97029843Y-100719765D02*
X97170191Y-100929809D01*
X97380235Y-101070157D01*
X97628000Y-101119440D01*
X98764770Y-101119440D01*
X98748246Y-101135964D01*
X98487000Y-101766666D01*
X98487000Y-102449334D01*
X98623553Y-102779001D01*
X95432447Y-102779001D01*
X95569000Y-102449334D01*
X95569000Y-101766666D01*
X95307754Y-101135964D01*
X95291230Y-101119440D01*
X96428000Y-101119440D01*
X96675765Y-101070157D01*
X96885809Y-100929809D01*
X97026157Y-100719765D01*
X97028000Y-100710500D01*
X97029843Y-100719765D01*
X97029843Y-100719765D01*
G37*
X97029843Y-100719765D02*
X97170191Y-100929809D01*
X97380235Y-101070157D01*
X97628000Y-101119440D01*
X98764770Y-101119440D01*
X98748246Y-101135964D01*
X98487000Y-101766666D01*
X98487000Y-102449334D01*
X98623553Y-102779001D01*
X95432447Y-102779001D01*
X95569000Y-102449334D01*
X95569000Y-101766666D01*
X95307754Y-101135964D01*
X95291230Y-101119440D01*
X96428000Y-101119440D01*
X96675765Y-101070157D01*
X96885809Y-100929809D01*
X97026157Y-100719765D01*
X97028000Y-100710500D01*
X97029843Y-100719765D01*
G36*
X107334998Y-101274000D02*
X107462000Y-101274000D01*
X107462000Y-102362000D01*
X107482000Y-102362000D01*
X107482000Y-102616000D01*
X107462000Y-102616000D01*
X107462000Y-102636000D01*
X107208000Y-102636000D01*
X107208000Y-102616000D01*
X107188000Y-102616000D01*
X107188000Y-102362000D01*
X107208000Y-102362000D01*
X107208000Y-101243750D01*
X107183250Y-101219000D01*
X107334998Y-101067252D01*
X107334998Y-101274000D01*
X107334998Y-101274000D01*
G37*
X107334998Y-101274000D02*
X107462000Y-101274000D01*
X107462000Y-102362000D01*
X107482000Y-102362000D01*
X107482000Y-102616000D01*
X107462000Y-102616000D01*
X107462000Y-102636000D01*
X107208000Y-102636000D01*
X107208000Y-102616000D01*
X107188000Y-102616000D01*
X107188000Y-102362000D01*
X107208000Y-102362000D01*
X107208000Y-101243750D01*
X107183250Y-101219000D01*
X107334998Y-101067252D01*
X107334998Y-101274000D01*
G36*
X107589000Y-99695000D02*
X107609000Y-99695000D01*
X107609000Y-99949000D01*
X107589000Y-99949000D01*
X107589000Y-99969000D01*
X107335000Y-99969000D01*
X107335000Y-99949000D01*
X107315000Y-99949000D01*
X107315000Y-99695000D01*
X107335000Y-99695000D01*
X107335000Y-99675000D01*
X107589000Y-99675000D01*
X107589000Y-99695000D01*
X107589000Y-99695000D01*
G37*
X107589000Y-99695000D02*
X107609000Y-99695000D01*
X107609000Y-99949000D01*
X107589000Y-99949000D01*
X107589000Y-99969000D01*
X107335000Y-99969000D01*
X107335000Y-99949000D01*
X107315000Y-99949000D01*
X107315000Y-99695000D01*
X107335000Y-99695000D01*
X107335000Y-99675000D01*
X107589000Y-99675000D01*
X107589000Y-99695000D01*
G36*
X105515805Y-92422358D02*
X105353845Y-92530576D01*
X105353844Y-92530577D01*
X105279951Y-92579951D01*
X105230577Y-92653844D01*
X103519422Y-94365000D01*
X99728696Y-94365000D01*
X99726157Y-94352235D01*
X99585809Y-94142191D01*
X99533142Y-94107000D01*
X99585809Y-94071809D01*
X99726157Y-93861765D01*
X99728696Y-93849000D01*
X103544839Y-93849000D01*
X103632000Y-93866337D01*
X103719161Y-93849000D01*
X103719165Y-93849000D01*
X103977310Y-93797652D01*
X104270049Y-93602049D01*
X104319425Y-93528153D01*
X105489273Y-92358305D01*
X105515805Y-92422358D01*
X105515805Y-92422358D01*
G37*
X105515805Y-92422358D02*
X105353845Y-92530576D01*
X105353844Y-92530577D01*
X105279951Y-92579951D01*
X105230577Y-92653844D01*
X103519422Y-94365000D01*
X99728696Y-94365000D01*
X99726157Y-94352235D01*
X99585809Y-94142191D01*
X99533142Y-94107000D01*
X99585809Y-94071809D01*
X99726157Y-93861765D01*
X99728696Y-93849000D01*
X103544839Y-93849000D01*
X103632000Y-93866337D01*
X103719161Y-93849000D01*
X103719165Y-93849000D01*
X103977310Y-93797652D01*
X104270049Y-93602049D01*
X104319425Y-93528153D01*
X105489273Y-92358305D01*
X105515805Y-92422358D01*
G36*
X97029843Y-93861765D02*
X97170191Y-94071809D01*
X97222858Y-94107000D01*
X97170191Y-94142191D01*
X97029843Y-94352235D01*
X97028000Y-94361500D01*
X97026157Y-94352235D01*
X96885809Y-94142191D01*
X96833142Y-94107000D01*
X96885809Y-94071809D01*
X97026157Y-93861765D01*
X97028000Y-93852500D01*
X97029843Y-93861765D01*
X97029843Y-93861765D01*
G37*
X97029843Y-93861765D02*
X97170191Y-94071809D01*
X97222858Y-94107000D01*
X97170191Y-94142191D01*
X97029843Y-94352235D01*
X97028000Y-94361500D01*
X97026157Y-94352235D01*
X96885809Y-94142191D01*
X96833142Y-94107000D01*
X96885809Y-94071809D01*
X97026157Y-93861765D01*
X97028000Y-93852500D01*
X97029843Y-93861765D01*
G36*
X110753466Y-91431045D02*
X110785052Y-91589837D01*
X111013807Y-91932193D01*
X111356163Y-92160948D01*
X111658065Y-92221000D01*
X111905864Y-92221000D01*
X112062886Y-92456000D01*
X111905864Y-92691000D01*
X111785065Y-92691000D01*
X111483163Y-92751052D01*
X111348546Y-92841000D01*
X108824578Y-92841000D01*
X108723573Y-92739995D01*
X108914436Y-92231872D01*
X108891652Y-91549585D01*
X108674386Y-91025058D01*
X108365073Y-90950533D01*
X107367605Y-91948000D01*
X107381748Y-91962143D01*
X107202143Y-92141748D01*
X107188000Y-92127605D01*
X107173858Y-92141748D01*
X106994253Y-91962143D01*
X107008395Y-91948000D01*
X106994253Y-91933858D01*
X107173858Y-91754253D01*
X107188000Y-91768395D01*
X108185467Y-90770927D01*
X108110942Y-90461614D01*
X107763243Y-90331010D01*
X109653432Y-90331010D01*
X110753466Y-91431045D01*
X110753466Y-91431045D01*
G37*
X110753466Y-91431045D02*
X110785052Y-91589837D01*
X111013807Y-91932193D01*
X111356163Y-92160948D01*
X111658065Y-92221000D01*
X111905864Y-92221000D01*
X112062886Y-92456000D01*
X111905864Y-92691000D01*
X111785065Y-92691000D01*
X111483163Y-92751052D01*
X111348546Y-92841000D01*
X108824578Y-92841000D01*
X108723573Y-92739995D01*
X108914436Y-92231872D01*
X108891652Y-91549585D01*
X108674386Y-91025058D01*
X108365073Y-90950533D01*
X107367605Y-91948000D01*
X107381748Y-91962143D01*
X107202143Y-92141748D01*
X107188000Y-92127605D01*
X107173858Y-92141748D01*
X106994253Y-91962143D01*
X107008395Y-91948000D01*
X106994253Y-91933858D01*
X107173858Y-91754253D01*
X107188000Y-91768395D01*
X108185467Y-90770927D01*
X108110942Y-90461614D01*
X107763243Y-90331010D01*
X109653432Y-90331010D01*
X110753466Y-91431045D01*
G36*
X196902000Y-111304000D02*
X117348000Y-111304000D01*
X117348000Y-107006675D01*
X129634000Y-107006675D01*
X129634000Y-108131325D01*
X130064385Y-109170367D01*
X130859633Y-109965615D01*
X131898675Y-110396000D01*
X133023325Y-110396000D01*
X134062367Y-109965615D01*
X134857615Y-109170367D01*
X135288000Y-108131325D01*
X135288000Y-107006675D01*
X134857615Y-105967633D01*
X134062367Y-105172385D01*
X133023325Y-104742000D01*
X131898675Y-104742000D01*
X130859633Y-105172385D01*
X130064385Y-105967633D01*
X129634000Y-107006675D01*
X117348000Y-107006675D01*
X117348000Y-78613000D01*
X117338333Y-78564399D01*
X117310803Y-78523197D01*
X117269601Y-78495667D01*
X117221000Y-78486000D01*
X77926000Y-78486000D01*
X77926000Y-74809024D01*
X82188271Y-74809024D01*
X82392519Y-75302145D01*
X82837996Y-75781421D01*
X83432975Y-76053738D01*
X83693000Y-75887443D01*
X83693000Y-74549000D01*
X83947000Y-74549000D01*
X83947000Y-75887443D01*
X84207025Y-76053738D01*
X84802004Y-75781421D01*
X85247481Y-75302145D01*
X85451729Y-74809024D01*
X85284755Y-74549000D01*
X83947000Y-74549000D01*
X83693000Y-74549000D01*
X82355245Y-74549000D01*
X82188271Y-74809024D01*
X77926000Y-74809024D01*
X77926000Y-65557400D01*
X78243524Y-65557400D01*
X78263801Y-65659339D01*
X78263800Y-69316265D01*
X78243524Y-69418200D01*
X78283254Y-69617934D01*
X78323852Y-69822036D01*
X78552607Y-70164393D01*
X78639027Y-70222137D01*
X80958665Y-72541776D01*
X81016407Y-72628193D01*
X81358763Y-72856948D01*
X81660665Y-72917000D01*
X81660670Y-72917000D01*
X81762599Y-72937275D01*
X81864529Y-72917000D01*
X82494655Y-72917000D01*
X82610951Y-73091049D01*
X82734687Y-73173727D01*
X82392519Y-73541855D01*
X82188271Y-74034976D01*
X82355245Y-74295000D01*
X83693000Y-74295000D01*
X83693000Y-74275000D01*
X83947000Y-74275000D01*
X83947000Y-74295000D01*
X85284755Y-74295000D01*
X85451729Y-74034976D01*
X85247481Y-73541855D01*
X84905313Y-73173727D01*
X85029049Y-73091049D01*
X85399699Y-72536333D01*
X85529854Y-71882000D01*
X85453273Y-71497000D01*
X85536222Y-71497000D01*
X91538377Y-77499156D01*
X91587751Y-77573049D01*
X91661644Y-77622423D01*
X91661645Y-77622424D01*
X91772680Y-77696615D01*
X91880490Y-77768652D01*
X92138635Y-77820000D01*
X92138639Y-77820000D01*
X92225799Y-77837337D01*
X92312959Y-77820000D01*
X117183022Y-77820000D01*
X118139400Y-78776379D01*
X118139401Y-88471657D01*
X118122063Y-88558822D01*
X118190748Y-88904131D01*
X118336976Y-89122976D01*
X118336978Y-89122978D01*
X118386352Y-89196871D01*
X118460245Y-89246245D01*
X119921155Y-90707156D01*
X119970529Y-90781049D01*
X120044422Y-90830423D01*
X120044423Y-90830424D01*
X120224178Y-90950533D01*
X120263268Y-90976652D01*
X120521413Y-91028000D01*
X120521416Y-91028000D01*
X120608577Y-91045337D01*
X120695738Y-91028000D01*
X120771814Y-91028000D01*
X120594301Y-91293667D01*
X120464146Y-91948000D01*
X120594301Y-92602333D01*
X120964951Y-93157049D01*
X121056170Y-93218000D01*
X120964951Y-93278951D01*
X120594301Y-93833667D01*
X120464146Y-94488000D01*
X120594301Y-95142333D01*
X120964951Y-95697049D01*
X121088687Y-95779727D01*
X120746519Y-96147855D01*
X120542271Y-96640976D01*
X120709245Y-96901000D01*
X122047000Y-96901000D01*
X122047000Y-96881000D01*
X122301000Y-96881000D01*
X122301000Y-96901000D01*
X123638755Y-96901000D01*
X123805729Y-96640976D01*
X123601481Y-96147855D01*
X123259313Y-95779727D01*
X123383049Y-95697049D01*
X123753699Y-95142333D01*
X123883854Y-94488000D01*
X123753699Y-93833667D01*
X123383049Y-93278951D01*
X123291830Y-93218000D01*
X123383049Y-93157049D01*
X123753699Y-92602333D01*
X123883854Y-91948000D01*
X123753699Y-91293667D01*
X123576186Y-91028000D01*
X123609222Y-91028000D01*
X124184600Y-91603379D01*
X124184601Y-96940835D01*
X124167263Y-97028000D01*
X124235948Y-97373309D01*
X124382176Y-97592154D01*
X124382178Y-97592156D01*
X124431552Y-97666049D01*
X124505445Y-97715423D01*
X125323021Y-98533000D01*
X123830402Y-98533000D01*
X123803016Y-98395321D01*
X123620233Y-98121767D01*
X123486179Y-98032195D01*
X123601481Y-97908145D01*
X123805729Y-97415024D01*
X123638755Y-97155000D01*
X122301000Y-97155000D01*
X122301000Y-97175000D01*
X122047000Y-97175000D01*
X122047000Y-97155000D01*
X120709245Y-97155000D01*
X120542271Y-97415024D01*
X120746519Y-97908145D01*
X120861821Y-98032195D01*
X120727767Y-98121767D01*
X120544984Y-98395321D01*
X120480799Y-98718000D01*
X120480799Y-100418000D01*
X120544984Y-100740679D01*
X120727767Y-101014233D01*
X121001321Y-101197016D01*
X121324000Y-101261201D01*
X123024000Y-101261201D01*
X123346679Y-101197016D01*
X123620233Y-101014233D01*
X123803016Y-100740679D01*
X123830402Y-100603000D01*
X139521866Y-100603000D01*
X139623800Y-100623276D01*
X139725734Y-100603000D01*
X139725735Y-100603000D01*
X140027637Y-100542948D01*
X140188968Y-100435150D01*
X144647000Y-100435150D01*
X144647000Y-100915900D01*
X144772903Y-101219858D01*
X145005542Y-101452497D01*
X145309499Y-101578400D01*
X145890250Y-101578400D01*
X146097000Y-101371650D01*
X146097000Y-100228400D01*
X144853750Y-100228400D01*
X144647000Y-100435150D01*
X140188968Y-100435150D01*
X140369993Y-100314193D01*
X140427737Y-100227774D01*
X141368611Y-99286900D01*
X144647000Y-99286900D01*
X144647000Y-99767650D01*
X144853750Y-99974400D01*
X146097000Y-99974400D01*
X146097000Y-98831150D01*
X145890250Y-98624400D01*
X145309499Y-98624400D01*
X145005542Y-98750303D01*
X144772903Y-98982942D01*
X144647000Y-99286900D01*
X141368611Y-99286900D01*
X143252911Y-97402600D01*
X158520821Y-97402600D01*
X154051000Y-101872422D01*
X151715825Y-99537247D01*
X151666449Y-99463351D01*
X151373710Y-99267748D01*
X151115565Y-99216400D01*
X151115561Y-99216400D01*
X151028400Y-99199063D01*
X150941239Y-99216400D01*
X150274696Y-99216400D01*
X150272157Y-99203635D01*
X150131809Y-98993591D01*
X149921765Y-98853243D01*
X149674000Y-98803960D01*
X148174000Y-98803960D01*
X147926235Y-98853243D01*
X147716191Y-98993591D01*
X147693546Y-99027482D01*
X147675097Y-98982942D01*
X147442458Y-98750303D01*
X147138501Y-98624400D01*
X146557750Y-98624400D01*
X146351000Y-98831150D01*
X146351000Y-99974400D01*
X146371000Y-99974400D01*
X146371000Y-100228400D01*
X146351000Y-100228400D01*
X146351000Y-101371650D01*
X146557750Y-101578400D01*
X147138501Y-101578400D01*
X147442458Y-101452497D01*
X147675097Y-101219858D01*
X147693546Y-101175318D01*
X147716191Y-101209209D01*
X147926235Y-101349557D01*
X148174000Y-101398840D01*
X149674000Y-101398840D01*
X149921765Y-101349557D01*
X150131809Y-101209209D01*
X150272157Y-100999165D01*
X150274696Y-100986400D01*
X150661822Y-100986400D01*
X153166000Y-103490579D01*
X153166000Y-104444071D01*
X152832146Y-104667146D01*
X152781000Y-104743691D01*
X152729854Y-104667146D01*
X152170639Y-104293490D01*
X151677506Y-104195400D01*
X151344494Y-104195400D01*
X150851361Y-104293490D01*
X150292146Y-104667146D01*
X149918490Y-105226361D01*
X149787280Y-105886000D01*
X149918490Y-106545639D01*
X150292146Y-107104854D01*
X150368691Y-107156000D01*
X150292146Y-107207146D01*
X149918490Y-107766361D01*
X149787280Y-108426000D01*
X149918490Y-109085639D01*
X150292146Y-109644854D01*
X150851361Y-110018510D01*
X151344494Y-110116600D01*
X151677506Y-110116600D01*
X152170639Y-110018510D01*
X152729854Y-109644854D01*
X152781000Y-109568309D01*
X152832146Y-109644854D01*
X153391361Y-110018510D01*
X153884494Y-110116600D01*
X154217506Y-110116600D01*
X154710639Y-110018510D01*
X155269854Y-109644854D01*
X155321000Y-109568309D01*
X155372146Y-109644854D01*
X155931361Y-110018510D01*
X156424494Y-110116600D01*
X156757506Y-110116600D01*
X157250639Y-110018510D01*
X157809854Y-109644854D01*
X157861000Y-109568309D01*
X157912146Y-109644854D01*
X158471361Y-110018510D01*
X158964494Y-110116600D01*
X159297506Y-110116600D01*
X159790639Y-110018510D01*
X160349854Y-109644854D01*
X160401000Y-109568309D01*
X160452146Y-109644854D01*
X161011361Y-110018510D01*
X161504494Y-110116600D01*
X161837506Y-110116600D01*
X162330639Y-110018510D01*
X162889854Y-109644854D01*
X162941000Y-109568309D01*
X162992146Y-109644854D01*
X163551361Y-110018510D01*
X164044494Y-110116600D01*
X164377506Y-110116600D01*
X164870639Y-110018510D01*
X165429854Y-109644854D01*
X165481000Y-109568309D01*
X165532146Y-109644854D01*
X166091361Y-110018510D01*
X166584494Y-110116600D01*
X166917506Y-110116600D01*
X167410639Y-110018510D01*
X167969854Y-109644854D01*
X168021000Y-109568309D01*
X168072146Y-109644854D01*
X168631361Y-110018510D01*
X169124494Y-110116600D01*
X169457506Y-110116600D01*
X169950639Y-110018510D01*
X170509854Y-109644854D01*
X170561000Y-109568309D01*
X170612146Y-109644854D01*
X171171361Y-110018510D01*
X171664494Y-110116600D01*
X171997506Y-110116600D01*
X172490639Y-110018510D01*
X173049854Y-109644854D01*
X173101000Y-109568309D01*
X173152146Y-109644854D01*
X173711361Y-110018510D01*
X174204494Y-110116600D01*
X174537506Y-110116600D01*
X175030639Y-110018510D01*
X175589854Y-109644854D01*
X175963510Y-109085639D01*
X176094720Y-108426000D01*
X175963510Y-107766361D01*
X175728299Y-107414344D01*
X175830833Y-107345833D01*
X176013616Y-107072279D01*
X176026665Y-107006675D01*
X190340000Y-107006675D01*
X190340000Y-108131325D01*
X190770385Y-109170367D01*
X191565633Y-109965615D01*
X192604675Y-110396000D01*
X193729325Y-110396000D01*
X194768367Y-109965615D01*
X195563615Y-109170367D01*
X195994000Y-108131325D01*
X195994000Y-107006675D01*
X195563615Y-105967633D01*
X194768367Y-105172385D01*
X193729325Y-104742000D01*
X192604675Y-104742000D01*
X191565633Y-105172385D01*
X190770385Y-105967633D01*
X190340000Y-107006675D01*
X176026665Y-107006675D01*
X176077801Y-106749600D01*
X176077801Y-105022400D01*
X176013616Y-104699721D01*
X175830833Y-104426167D01*
X175557279Y-104243384D01*
X175234600Y-104179199D01*
X173507400Y-104179199D01*
X173184721Y-104243384D01*
X172911167Y-104426167D01*
X172842656Y-104528701D01*
X172490639Y-104293490D01*
X171997506Y-104195400D01*
X171664494Y-104195400D01*
X171171361Y-104293490D01*
X170612146Y-104667146D01*
X170561000Y-104743691D01*
X170509854Y-104667146D01*
X169950639Y-104293490D01*
X169457506Y-104195400D01*
X169124494Y-104195400D01*
X168631361Y-104293490D01*
X168072146Y-104667146D01*
X168021000Y-104743691D01*
X167969854Y-104667146D01*
X167410639Y-104293490D01*
X166917506Y-104195400D01*
X166584494Y-104195400D01*
X166091361Y-104293490D01*
X165532146Y-104667146D01*
X165481000Y-104743691D01*
X165429854Y-104667146D01*
X164870639Y-104293490D01*
X164377506Y-104195400D01*
X164044494Y-104195400D01*
X163551361Y-104293490D01*
X162992146Y-104667146D01*
X162941000Y-104743691D01*
X162889854Y-104667146D01*
X162330639Y-104293490D01*
X161837506Y-104195400D01*
X161504494Y-104195400D01*
X161286000Y-104238861D01*
X161286000Y-100747378D01*
X161430739Y-100602640D01*
X173104870Y-100602640D01*
X173192031Y-100619977D01*
X173279192Y-100602640D01*
X173279196Y-100602640D01*
X173537341Y-100551292D01*
X173830080Y-100355689D01*
X173879456Y-100281793D01*
X177030386Y-97130864D01*
X177104279Y-97081490D01*
X177172421Y-96979510D01*
X177299882Y-96788751D01*
X177303326Y-96771436D01*
X177329920Y-96637742D01*
X177766474Y-97074296D01*
X178529859Y-97390500D01*
X179356141Y-97390500D01*
X180119526Y-97074296D01*
X180703796Y-96490026D01*
X181020000Y-95726641D01*
X181020000Y-94900359D01*
X180703796Y-94136974D01*
X180119526Y-93552704D01*
X179356141Y-93236500D01*
X178529859Y-93236500D01*
X177766474Y-93552704D01*
X177351230Y-93967948D01*
X177351230Y-83859900D01*
X179071531Y-82139600D01*
X179897239Y-82139600D01*
X179984400Y-82156937D01*
X180071561Y-82139600D01*
X180071565Y-82139600D01*
X180329710Y-82088252D01*
X180622449Y-81892649D01*
X180671825Y-81818753D01*
X182453556Y-80037023D01*
X182527449Y-79987649D01*
X182610738Y-79863000D01*
X182723052Y-79694910D01*
X182740140Y-79609000D01*
X182774400Y-79436765D01*
X182774400Y-79436761D01*
X182791737Y-79349600D01*
X182774400Y-79262439D01*
X182774400Y-76134759D01*
X182791737Y-76047599D01*
X182774400Y-75960439D01*
X182774400Y-75960435D01*
X182723052Y-75702290D01*
X182607392Y-75529193D01*
X182576824Y-75483445D01*
X182576823Y-75483444D01*
X182527449Y-75409551D01*
X182453556Y-75360177D01*
X180767620Y-73674242D01*
X180767620Y-72246009D01*
X180784957Y-72158849D01*
X180767620Y-72071689D01*
X180767620Y-72071685D01*
X180716272Y-71813540D01*
X180599698Y-71639076D01*
X180586848Y-71619843D01*
X187965799Y-71619843D01*
X188132595Y-71882000D01*
X189484000Y-71882000D01*
X189484000Y-70529918D01*
X189221841Y-70363791D01*
X188621870Y-70637950D01*
X188172485Y-71120839D01*
X187965799Y-71619843D01*
X180586848Y-71619843D01*
X180570044Y-71594695D01*
X180570043Y-71594694D01*
X180520669Y-71520801D01*
X180446776Y-71471427D01*
X178002939Y-69027591D01*
X178189200Y-69064640D01*
X179689200Y-69064640D01*
X179936965Y-69015357D01*
X180147009Y-68875009D01*
X180287357Y-68664965D01*
X180289200Y-68655700D01*
X180291043Y-68664965D01*
X180431391Y-68875009D01*
X180641435Y-69015357D01*
X180889200Y-69064640D01*
X182389200Y-69064640D01*
X182636965Y-69015357D01*
X182847009Y-68875009D01*
X182895659Y-68802200D01*
X190528490Y-68802200D01*
X191116001Y-69389712D01*
X191116000Y-70667298D01*
X190932146Y-70790146D01*
X190852581Y-70909223D01*
X190600130Y-70637950D01*
X190000159Y-70363791D01*
X189738000Y-70529918D01*
X189738000Y-71882000D01*
X189758000Y-71882000D01*
X189758000Y-72136000D01*
X189738000Y-72136000D01*
X189738000Y-72156000D01*
X189484000Y-72156000D01*
X189484000Y-72136000D01*
X188132595Y-72136000D01*
X187965799Y-72398157D01*
X188172485Y-72897161D01*
X188505156Y-73254635D01*
X188392146Y-73330146D01*
X188018490Y-73889361D01*
X187887280Y-74549000D01*
X188018490Y-75208639D01*
X188392146Y-75767854D01*
X188468691Y-75819000D01*
X188392146Y-75870146D01*
X188018490Y-76429361D01*
X187887280Y-77089000D01*
X188018490Y-77748639D01*
X188392146Y-78307854D01*
X188468691Y-78359000D01*
X188392146Y-78410146D01*
X188018490Y-78969361D01*
X187887280Y-79629000D01*
X188018490Y-80288639D01*
X188392146Y-80847854D01*
X188468691Y-80899000D01*
X188392146Y-80950146D01*
X188018490Y-81509361D01*
X187887280Y-82169000D01*
X188018490Y-82828639D01*
X188392146Y-83387854D01*
X188468691Y-83439000D01*
X188392146Y-83490146D01*
X188018490Y-84049361D01*
X187887280Y-84709000D01*
X188018490Y-85368639D01*
X188392146Y-85927854D01*
X188468691Y-85979000D01*
X188392146Y-86030146D01*
X188018490Y-86589361D01*
X187887280Y-87249000D01*
X188018490Y-87908639D01*
X188392146Y-88467854D01*
X188951361Y-88841510D01*
X189444494Y-88939600D01*
X189777506Y-88939600D01*
X190270639Y-88841510D01*
X190622656Y-88606299D01*
X190691167Y-88708833D01*
X190964721Y-88891616D01*
X191287400Y-88955801D01*
X193014600Y-88955801D01*
X193337279Y-88891616D01*
X193610833Y-88708833D01*
X193793616Y-88435279D01*
X193857801Y-88112600D01*
X193857801Y-86385400D01*
X193793616Y-86062721D01*
X193610833Y-85789167D01*
X193508299Y-85720656D01*
X193743510Y-85368639D01*
X193874720Y-84709000D01*
X193743510Y-84049361D01*
X193369854Y-83490146D01*
X193293309Y-83439000D01*
X193369854Y-83387854D01*
X193743510Y-82828639D01*
X193874720Y-82169000D01*
X193743510Y-81509361D01*
X193369854Y-80950146D01*
X193293309Y-80899000D01*
X193369854Y-80847854D01*
X193743510Y-80288639D01*
X193874720Y-79629000D01*
X193743510Y-78969361D01*
X193369854Y-78410146D01*
X193293309Y-78359000D01*
X193369854Y-78307854D01*
X193743510Y-77748639D01*
X193874720Y-77089000D01*
X193743510Y-76429361D01*
X193369854Y-75870146D01*
X193293309Y-75819000D01*
X193369854Y-75767854D01*
X193743510Y-75208639D01*
X193874720Y-74549000D01*
X193743510Y-73889361D01*
X193369854Y-73330146D01*
X193293309Y-73279000D01*
X193369854Y-73227854D01*
X193743510Y-72668639D01*
X193874720Y-72009000D01*
X193743510Y-71349361D01*
X193369854Y-70790146D01*
X193186000Y-70667299D01*
X193186000Y-69062934D01*
X193206276Y-68960999D01*
X193125948Y-68557163D01*
X193084546Y-68495201D01*
X192897193Y-68214807D01*
X192810776Y-68157065D01*
X191710336Y-67056626D01*
X191710334Y-67056623D01*
X191710331Y-67056620D01*
X191652592Y-66970208D01*
X191566180Y-66912469D01*
X185969937Y-61316227D01*
X185912193Y-61229807D01*
X185569837Y-61001052D01*
X185267935Y-60941000D01*
X185267934Y-60941000D01*
X185166000Y-60920724D01*
X185064066Y-60941000D01*
X169105233Y-60941000D01*
X169043387Y-60899676D01*
X167935937Y-59792227D01*
X167878193Y-59705807D01*
X167535837Y-59477052D01*
X167446064Y-59459195D01*
X175416411Y-59459195D01*
X175467566Y-59748780D01*
X176037606Y-59957007D01*
X176643940Y-59931239D01*
X177084434Y-59748780D01*
X177135589Y-59459195D01*
X183036411Y-59459195D01*
X183087566Y-59748780D01*
X183657606Y-59957007D01*
X184263940Y-59931239D01*
X184704434Y-59748780D01*
X184755589Y-59459195D01*
X183896000Y-58599605D01*
X183036411Y-59459195D01*
X177135589Y-59459195D01*
X176276000Y-58599605D01*
X175416411Y-59459195D01*
X167446064Y-59459195D01*
X167233935Y-59417000D01*
X167233934Y-59417000D01*
X167132000Y-59396724D01*
X167030066Y-59417000D01*
X158470934Y-59417000D01*
X158368999Y-59396724D01*
X158267065Y-59417000D01*
X157965163Y-59477052D01*
X157622807Y-59705807D01*
X157565065Y-59792224D01*
X156244890Y-61112400D01*
X156175111Y-61112400D01*
X155362937Y-60300227D01*
X155305193Y-60213807D01*
X154962837Y-59985052D01*
X154660935Y-59925000D01*
X154660934Y-59925000D01*
X154559000Y-59904724D01*
X154457066Y-59925000D01*
X147929934Y-59925000D01*
X147828000Y-59904724D01*
X147726065Y-59925000D01*
X147424163Y-59985052D01*
X147081807Y-60213807D01*
X147024065Y-60300224D01*
X146533224Y-60791066D01*
X146279225Y-61045065D01*
X146192808Y-61102807D01*
X146135066Y-61189224D01*
X145964052Y-61445164D01*
X145883724Y-61849000D01*
X145904001Y-61950939D01*
X145904001Y-62719000D01*
X134472805Y-62719000D01*
X132308031Y-60554227D01*
X132250287Y-60467807D01*
X131907931Y-60239052D01*
X131606029Y-60179000D01*
X131606028Y-60179000D01*
X131504094Y-60158724D01*
X131402160Y-60179000D01*
X117263839Y-60179000D01*
X117161904Y-60158724D01*
X117059970Y-60179000D01*
X116758068Y-60239052D01*
X116415712Y-60467807D01*
X116357970Y-60554224D01*
X113333413Y-63578781D01*
X113119441Y-63062205D01*
X112762302Y-62931303D01*
X111431605Y-64262000D01*
X111445748Y-64276143D01*
X111266143Y-64455748D01*
X111252000Y-64441605D01*
X109921303Y-65772302D01*
X110052205Y-66129441D01*
X110576533Y-66335662D01*
X109392595Y-67519600D01*
X107813259Y-67519600D01*
X107764609Y-67446791D01*
X107554565Y-67306443D01*
X107306800Y-67257160D01*
X105806800Y-67257160D01*
X105559035Y-67306443D01*
X105348991Y-67446791D01*
X105208643Y-67656835D01*
X105206800Y-67666100D01*
X105204957Y-67656835D01*
X105064609Y-67446791D01*
X104854565Y-67306443D01*
X104741800Y-67284013D01*
X104741800Y-63868173D01*
X109067568Y-63868173D01*
X109083137Y-64734097D01*
X109384559Y-65461795D01*
X109741698Y-65592697D01*
X111072395Y-64262000D01*
X109741698Y-62931303D01*
X109384559Y-63062205D01*
X109067568Y-63868173D01*
X104741800Y-63868173D01*
X104741800Y-62751698D01*
X109921303Y-62751698D01*
X111252000Y-64082395D01*
X112582697Y-62751698D01*
X112451795Y-62394559D01*
X111645827Y-62077568D01*
X110779903Y-62093137D01*
X110052205Y-62394559D01*
X109921303Y-62751698D01*
X104741800Y-62751698D01*
X104741800Y-60145228D01*
X105372267Y-59884080D01*
X105400396Y-59855951D01*
X105565542Y-60021097D01*
X105869499Y-60147000D01*
X106600250Y-60147000D01*
X106807000Y-59940250D01*
X106807000Y-58547000D01*
X107061000Y-58547000D01*
X107061000Y-59940250D01*
X107267750Y-60147000D01*
X107998501Y-60147000D01*
X108302458Y-60021097D01*
X108535097Y-59788458D01*
X108661000Y-59484500D01*
X108661000Y-58753750D01*
X108454250Y-58547000D01*
X107061000Y-58547000D01*
X106807000Y-58547000D01*
X106787000Y-58547000D01*
X106787000Y-58293000D01*
X106807000Y-58293000D01*
X106807000Y-56899750D01*
X107061000Y-56899750D01*
X107061000Y-58293000D01*
X108454250Y-58293000D01*
X108661000Y-58086250D01*
X108661000Y-57355500D01*
X108535097Y-57051542D01*
X108302458Y-56818903D01*
X107998501Y-56693000D01*
X107267750Y-56693000D01*
X107061000Y-56899750D01*
X106807000Y-56899750D01*
X106600250Y-56693000D01*
X105869499Y-56693000D01*
X105565542Y-56818903D01*
X105400396Y-56984049D01*
X105372267Y-56955920D01*
X104737522Y-56693000D01*
X104050478Y-56693000D01*
X103415733Y-56955920D01*
X102929920Y-57441733D01*
X102667000Y-58076478D01*
X102667000Y-58763522D01*
X102929920Y-59398267D01*
X102971801Y-59440148D01*
X102971801Y-61207222D01*
X102668425Y-60903847D01*
X102619049Y-60829951D01*
X102326310Y-60634348D01*
X102068165Y-60583000D01*
X102068161Y-60583000D01*
X101981000Y-60565663D01*
X101893839Y-60583000D01*
X100188579Y-60583000D01*
X99752579Y-60147000D01*
X100378501Y-60147000D01*
X100682458Y-60021097D01*
X100915097Y-59788458D01*
X101041000Y-59484500D01*
X101041000Y-58753750D01*
X100834250Y-58547000D01*
X99441000Y-58547000D01*
X99441000Y-58567000D01*
X99187000Y-58567000D01*
X99187000Y-58547000D01*
X99167000Y-58547000D01*
X99167000Y-58293000D01*
X99187000Y-58293000D01*
X99187000Y-56899750D01*
X99441000Y-56899750D01*
X99441000Y-58293000D01*
X100834250Y-58293000D01*
X101041000Y-58086250D01*
X101041000Y-57355500D01*
X100915097Y-57051542D01*
X100682458Y-56818903D01*
X100378501Y-56693000D01*
X99647750Y-56693000D01*
X99441000Y-56899750D01*
X99187000Y-56899750D01*
X98980250Y-56693000D01*
X98249499Y-56693000D01*
X97945542Y-56818903D01*
X97780396Y-56984049D01*
X97752267Y-56955920D01*
X97117522Y-56693000D01*
X96430478Y-56693000D01*
X95795733Y-56955920D01*
X95309920Y-57441733D01*
X95047000Y-58076478D01*
X95047000Y-58763522D01*
X95309920Y-59398267D01*
X95795733Y-59884080D01*
X96430478Y-60147000D01*
X96769654Y-60147000D01*
X96927807Y-60383692D01*
X97270163Y-60612447D01*
X97673999Y-60692775D01*
X97775089Y-60672667D01*
X99134577Y-62032156D01*
X99183951Y-62106049D01*
X99257844Y-62155423D01*
X99257845Y-62155424D01*
X99335278Y-62207163D01*
X99476690Y-62301652D01*
X99734835Y-62353000D01*
X99734839Y-62353000D01*
X99822000Y-62370337D01*
X99909161Y-62353000D01*
X101614422Y-62353000D01*
X102137401Y-62875980D01*
X102137400Y-65597221D01*
X101239045Y-66495577D01*
X101165152Y-66544951D01*
X101115778Y-66618844D01*
X101115776Y-66618846D01*
X100969548Y-66837691D01*
X100900863Y-67183000D01*
X100918201Y-67270165D01*
X100918200Y-69940639D01*
X100900863Y-70027800D01*
X100918200Y-70114961D01*
X100918200Y-70114964D01*
X100969548Y-70373109D01*
X101165151Y-70665849D01*
X101239047Y-70715225D01*
X101553672Y-71029850D01*
X101647751Y-71170649D01*
X101721647Y-71220025D01*
X102648359Y-72146737D01*
X102508643Y-72355835D01*
X102459360Y-72603600D01*
X102459360Y-73903600D01*
X102467754Y-73945800D01*
X100682511Y-73945800D01*
X96920000Y-70183290D01*
X96920000Y-67271282D01*
X96978767Y-67359233D01*
X97252321Y-67542016D01*
X97575000Y-67606201D01*
X99275000Y-67606201D01*
X99597679Y-67542016D01*
X99871233Y-67359233D01*
X100054016Y-67085679D01*
X100118201Y-66763000D01*
X100118201Y-65063000D01*
X100054016Y-64740321D01*
X99871233Y-64466767D01*
X99597679Y-64283984D01*
X99275000Y-64219799D01*
X97575000Y-64219799D01*
X97252321Y-64283984D01*
X96978767Y-64466767D01*
X96904785Y-64577489D01*
X96539333Y-64333301D01*
X96050168Y-64236000D01*
X95719832Y-64236000D01*
X95230667Y-64333301D01*
X94675951Y-64703951D01*
X94305301Y-65258667D01*
X94175146Y-65913000D01*
X94305301Y-66567333D01*
X94675951Y-67122049D01*
X94850001Y-67238345D01*
X94850000Y-70510065D01*
X94829724Y-70612000D01*
X94889684Y-70913440D01*
X94910052Y-71015836D01*
X95138807Y-71358193D01*
X95225227Y-71415937D01*
X99059279Y-75249990D01*
X94508569Y-75249990D01*
X91422018Y-72163440D01*
X92223000Y-72163440D01*
X92470765Y-72114157D01*
X92680809Y-71973809D01*
X92821157Y-71763765D01*
X92870440Y-71516000D01*
X92870440Y-70216000D01*
X92821157Y-69968235D01*
X92680809Y-69758191D01*
X92508000Y-69642723D01*
X92508000Y-67898277D01*
X92680809Y-67782809D01*
X92821157Y-67572765D01*
X92870440Y-67325000D01*
X92870440Y-66025000D01*
X92821157Y-65777235D01*
X92680809Y-65567191D01*
X92508000Y-65451723D01*
X92508000Y-65326934D01*
X92528276Y-65225000D01*
X92485151Y-65008193D01*
X92447948Y-64821163D01*
X92219193Y-64478807D01*
X92132776Y-64421065D01*
X91313937Y-63602227D01*
X91256193Y-63515807D01*
X90913837Y-63287052D01*
X90611935Y-63227000D01*
X90611934Y-63227000D01*
X90510000Y-63206724D01*
X90408066Y-63227000D01*
X80696134Y-63227000D01*
X80594199Y-63206724D01*
X80492265Y-63227000D01*
X80190363Y-63287052D01*
X79848007Y-63515807D01*
X79790265Y-63602224D01*
X78639025Y-64753465D01*
X78552608Y-64811207D01*
X78494866Y-64897624D01*
X78323852Y-65153564D01*
X78243524Y-65557400D01*
X77926000Y-65557400D01*
X77926000Y-57476675D01*
X78834000Y-57476675D01*
X78834000Y-58601325D01*
X79264385Y-59640367D01*
X80059633Y-60435615D01*
X81098675Y-60866000D01*
X82223325Y-60866000D01*
X83262367Y-60435615D01*
X84057615Y-59640367D01*
X84488000Y-58601325D01*
X84488000Y-57476675D01*
X84057615Y-56437633D01*
X83771569Y-56151587D01*
X132031000Y-56151587D01*
X132031000Y-56878413D01*
X132309144Y-57549912D01*
X132823088Y-58063856D01*
X133494587Y-58342000D01*
X134221413Y-58342000D01*
X134892912Y-58063856D01*
X135406856Y-57549912D01*
X135685000Y-56878413D01*
X135685000Y-56151587D01*
X137111000Y-56151587D01*
X137111000Y-56878413D01*
X137389144Y-57549912D01*
X137903088Y-58063856D01*
X138574587Y-58342000D01*
X139301413Y-58342000D01*
X139688638Y-58181606D01*
X174738993Y-58181606D01*
X174764761Y-58787940D01*
X174947220Y-59228434D01*
X175236805Y-59279589D01*
X176096395Y-58420000D01*
X176455605Y-58420000D01*
X177315195Y-59279589D01*
X177604780Y-59228434D01*
X177813007Y-58658394D01*
X177792745Y-58181606D01*
X182358993Y-58181606D01*
X182384761Y-58787940D01*
X182567220Y-59228434D01*
X182856805Y-59279589D01*
X183716395Y-58420000D01*
X184075605Y-58420000D01*
X184935195Y-59279589D01*
X185224780Y-59228434D01*
X185433007Y-58658394D01*
X185407239Y-58052060D01*
X185224780Y-57611566D01*
X184935195Y-57560411D01*
X184075605Y-58420000D01*
X183716395Y-58420000D01*
X182856805Y-57560411D01*
X182567220Y-57611566D01*
X182358993Y-58181606D01*
X177792745Y-58181606D01*
X177787239Y-58052060D01*
X177604780Y-57611566D01*
X177315195Y-57560411D01*
X176455605Y-58420000D01*
X176096395Y-58420000D01*
X175236805Y-57560411D01*
X174947220Y-57611566D01*
X174738993Y-58181606D01*
X139688638Y-58181606D01*
X139972912Y-58063856D01*
X140486856Y-57549912D01*
X140556902Y-57380805D01*
X175416411Y-57380805D01*
X176276000Y-58240395D01*
X177135589Y-57380805D01*
X183036411Y-57380805D01*
X183896000Y-58240395D01*
X184659719Y-57476675D01*
X190340000Y-57476675D01*
X190340000Y-58601325D01*
X190770385Y-59640367D01*
X191565633Y-60435615D01*
X192604675Y-60866000D01*
X193729325Y-60866000D01*
X194768367Y-60435615D01*
X195563615Y-59640367D01*
X195994000Y-58601325D01*
X195994000Y-57476675D01*
X195563615Y-56437633D01*
X194768367Y-55642385D01*
X193729325Y-55212000D01*
X192604675Y-55212000D01*
X191565633Y-55642385D01*
X190770385Y-56437633D01*
X190340000Y-57476675D01*
X184659719Y-57476675D01*
X184755589Y-57380805D01*
X184704434Y-57091220D01*
X184134394Y-56882993D01*
X183528060Y-56908761D01*
X183087566Y-57091220D01*
X183036411Y-57380805D01*
X177135589Y-57380805D01*
X177084434Y-57091220D01*
X176514394Y-56882993D01*
X175908060Y-56908761D01*
X175467566Y-57091220D01*
X175416411Y-57380805D01*
X140556902Y-57380805D01*
X140765000Y-56878413D01*
X140765000Y-56151587D01*
X140486856Y-55480088D01*
X139972912Y-54966144D01*
X139301413Y-54688000D01*
X138574587Y-54688000D01*
X137903088Y-54966144D01*
X137389144Y-55480088D01*
X137111000Y-56151587D01*
X135685000Y-56151587D01*
X135406856Y-55480088D01*
X134892912Y-54966144D01*
X134221413Y-54688000D01*
X133494587Y-54688000D01*
X132823088Y-54966144D01*
X132309144Y-55480088D01*
X132031000Y-56151587D01*
X83771569Y-56151587D01*
X83262367Y-55642385D01*
X82223325Y-55212000D01*
X81098675Y-55212000D01*
X80059633Y-55642385D01*
X79264385Y-56437633D01*
X78834000Y-57476675D01*
X77926000Y-57476675D01*
X77926000Y-54304000D01*
X196902001Y-54304000D01*
X196902000Y-111304000D01*
X196902000Y-111304000D01*
G37*
X196902000Y-111304000D02*
X117348000Y-111304000D01*
X117348000Y-107006675D01*
X129634000Y-107006675D01*
X129634000Y-108131325D01*
X130064385Y-109170367D01*
X130859633Y-109965615D01*
X131898675Y-110396000D01*
X133023325Y-110396000D01*
X134062367Y-109965615D01*
X134857615Y-109170367D01*
X135288000Y-108131325D01*
X135288000Y-107006675D01*
X134857615Y-105967633D01*
X134062367Y-105172385D01*
X133023325Y-104742000D01*
X131898675Y-104742000D01*
X130859633Y-105172385D01*
X130064385Y-105967633D01*
X129634000Y-107006675D01*
X117348000Y-107006675D01*
X117348000Y-78613000D01*
X117338333Y-78564399D01*
X117310803Y-78523197D01*
X117269601Y-78495667D01*
X117221000Y-78486000D01*
X77926000Y-78486000D01*
X77926000Y-74809024D01*
X82188271Y-74809024D01*
X82392519Y-75302145D01*
X82837996Y-75781421D01*
X83432975Y-76053738D01*
X83693000Y-75887443D01*
X83693000Y-74549000D01*
X83947000Y-74549000D01*
X83947000Y-75887443D01*
X84207025Y-76053738D01*
X84802004Y-75781421D01*
X85247481Y-75302145D01*
X85451729Y-74809024D01*
X85284755Y-74549000D01*
X83947000Y-74549000D01*
X83693000Y-74549000D01*
X82355245Y-74549000D01*
X82188271Y-74809024D01*
X77926000Y-74809024D01*
X77926000Y-65557400D01*
X78243524Y-65557400D01*
X78263801Y-65659339D01*
X78263800Y-69316265D01*
X78243524Y-69418200D01*
X78283254Y-69617934D01*
X78323852Y-69822036D01*
X78552607Y-70164393D01*
X78639027Y-70222137D01*
X80958665Y-72541776D01*
X81016407Y-72628193D01*
X81358763Y-72856948D01*
X81660665Y-72917000D01*
X81660670Y-72917000D01*
X81762599Y-72937275D01*
X81864529Y-72917000D01*
X82494655Y-72917000D01*
X82610951Y-73091049D01*
X82734687Y-73173727D01*
X82392519Y-73541855D01*
X82188271Y-74034976D01*
X82355245Y-74295000D01*
X83693000Y-74295000D01*
X83693000Y-74275000D01*
X83947000Y-74275000D01*
X83947000Y-74295000D01*
X85284755Y-74295000D01*
X85451729Y-74034976D01*
X85247481Y-73541855D01*
X84905313Y-73173727D01*
X85029049Y-73091049D01*
X85399699Y-72536333D01*
X85529854Y-71882000D01*
X85453273Y-71497000D01*
X85536222Y-71497000D01*
X91538377Y-77499156D01*
X91587751Y-77573049D01*
X91661644Y-77622423D01*
X91661645Y-77622424D01*
X91772680Y-77696615D01*
X91880490Y-77768652D01*
X92138635Y-77820000D01*
X92138639Y-77820000D01*
X92225799Y-77837337D01*
X92312959Y-77820000D01*
X117183022Y-77820000D01*
X118139400Y-78776379D01*
X118139401Y-88471657D01*
X118122063Y-88558822D01*
X118190748Y-88904131D01*
X118336976Y-89122976D01*
X118336978Y-89122978D01*
X118386352Y-89196871D01*
X118460245Y-89246245D01*
X119921155Y-90707156D01*
X119970529Y-90781049D01*
X120044422Y-90830423D01*
X120044423Y-90830424D01*
X120224178Y-90950533D01*
X120263268Y-90976652D01*
X120521413Y-91028000D01*
X120521416Y-91028000D01*
X120608577Y-91045337D01*
X120695738Y-91028000D01*
X120771814Y-91028000D01*
X120594301Y-91293667D01*
X120464146Y-91948000D01*
X120594301Y-92602333D01*
X120964951Y-93157049D01*
X121056170Y-93218000D01*
X120964951Y-93278951D01*
X120594301Y-93833667D01*
X120464146Y-94488000D01*
X120594301Y-95142333D01*
X120964951Y-95697049D01*
X121088687Y-95779727D01*
X120746519Y-96147855D01*
X120542271Y-96640976D01*
X120709245Y-96901000D01*
X122047000Y-96901000D01*
X122047000Y-96881000D01*
X122301000Y-96881000D01*
X122301000Y-96901000D01*
X123638755Y-96901000D01*
X123805729Y-96640976D01*
X123601481Y-96147855D01*
X123259313Y-95779727D01*
X123383049Y-95697049D01*
X123753699Y-95142333D01*
X123883854Y-94488000D01*
X123753699Y-93833667D01*
X123383049Y-93278951D01*
X123291830Y-93218000D01*
X123383049Y-93157049D01*
X123753699Y-92602333D01*
X123883854Y-91948000D01*
X123753699Y-91293667D01*
X123576186Y-91028000D01*
X123609222Y-91028000D01*
X124184600Y-91603379D01*
X124184601Y-96940835D01*
X124167263Y-97028000D01*
X124235948Y-97373309D01*
X124382176Y-97592154D01*
X124382178Y-97592156D01*
X124431552Y-97666049D01*
X124505445Y-97715423D01*
X125323021Y-98533000D01*
X123830402Y-98533000D01*
X123803016Y-98395321D01*
X123620233Y-98121767D01*
X123486179Y-98032195D01*
X123601481Y-97908145D01*
X123805729Y-97415024D01*
X123638755Y-97155000D01*
X122301000Y-97155000D01*
X122301000Y-97175000D01*
X122047000Y-97175000D01*
X122047000Y-97155000D01*
X120709245Y-97155000D01*
X120542271Y-97415024D01*
X120746519Y-97908145D01*
X120861821Y-98032195D01*
X120727767Y-98121767D01*
X120544984Y-98395321D01*
X120480799Y-98718000D01*
X120480799Y-100418000D01*
X120544984Y-100740679D01*
X120727767Y-101014233D01*
X121001321Y-101197016D01*
X121324000Y-101261201D01*
X123024000Y-101261201D01*
X123346679Y-101197016D01*
X123620233Y-101014233D01*
X123803016Y-100740679D01*
X123830402Y-100603000D01*
X139521866Y-100603000D01*
X139623800Y-100623276D01*
X139725734Y-100603000D01*
X139725735Y-100603000D01*
X140027637Y-100542948D01*
X140188968Y-100435150D01*
X144647000Y-100435150D01*
X144647000Y-100915900D01*
X144772903Y-101219858D01*
X145005542Y-101452497D01*
X145309499Y-101578400D01*
X145890250Y-101578400D01*
X146097000Y-101371650D01*
X146097000Y-100228400D01*
X144853750Y-100228400D01*
X144647000Y-100435150D01*
X140188968Y-100435150D01*
X140369993Y-100314193D01*
X140427737Y-100227774D01*
X141368611Y-99286900D01*
X144647000Y-99286900D01*
X144647000Y-99767650D01*
X144853750Y-99974400D01*
X146097000Y-99974400D01*
X146097000Y-98831150D01*
X145890250Y-98624400D01*
X145309499Y-98624400D01*
X145005542Y-98750303D01*
X144772903Y-98982942D01*
X144647000Y-99286900D01*
X141368611Y-99286900D01*
X143252911Y-97402600D01*
X158520821Y-97402600D01*
X154051000Y-101872422D01*
X151715825Y-99537247D01*
X151666449Y-99463351D01*
X151373710Y-99267748D01*
X151115565Y-99216400D01*
X151115561Y-99216400D01*
X151028400Y-99199063D01*
X150941239Y-99216400D01*
X150274696Y-99216400D01*
X150272157Y-99203635D01*
X150131809Y-98993591D01*
X149921765Y-98853243D01*
X149674000Y-98803960D01*
X148174000Y-98803960D01*
X147926235Y-98853243D01*
X147716191Y-98993591D01*
X147693546Y-99027482D01*
X147675097Y-98982942D01*
X147442458Y-98750303D01*
X147138501Y-98624400D01*
X146557750Y-98624400D01*
X146351000Y-98831150D01*
X146351000Y-99974400D01*
X146371000Y-99974400D01*
X146371000Y-100228400D01*
X146351000Y-100228400D01*
X146351000Y-101371650D01*
X146557750Y-101578400D01*
X147138501Y-101578400D01*
X147442458Y-101452497D01*
X147675097Y-101219858D01*
X147693546Y-101175318D01*
X147716191Y-101209209D01*
X147926235Y-101349557D01*
X148174000Y-101398840D01*
X149674000Y-101398840D01*
X149921765Y-101349557D01*
X150131809Y-101209209D01*
X150272157Y-100999165D01*
X150274696Y-100986400D01*
X150661822Y-100986400D01*
X153166000Y-103490579D01*
X153166000Y-104444071D01*
X152832146Y-104667146D01*
X152781000Y-104743691D01*
X152729854Y-104667146D01*
X152170639Y-104293490D01*
X151677506Y-104195400D01*
X151344494Y-104195400D01*
X150851361Y-104293490D01*
X150292146Y-104667146D01*
X149918490Y-105226361D01*
X149787280Y-105886000D01*
X149918490Y-106545639D01*
X150292146Y-107104854D01*
X150368691Y-107156000D01*
X150292146Y-107207146D01*
X149918490Y-107766361D01*
X149787280Y-108426000D01*
X149918490Y-109085639D01*
X150292146Y-109644854D01*
X150851361Y-110018510D01*
X151344494Y-110116600D01*
X151677506Y-110116600D01*
X152170639Y-110018510D01*
X152729854Y-109644854D01*
X152781000Y-109568309D01*
X152832146Y-109644854D01*
X153391361Y-110018510D01*
X153884494Y-110116600D01*
X154217506Y-110116600D01*
X154710639Y-110018510D01*
X155269854Y-109644854D01*
X155321000Y-109568309D01*
X155372146Y-109644854D01*
X155931361Y-110018510D01*
X156424494Y-110116600D01*
X156757506Y-110116600D01*
X157250639Y-110018510D01*
X157809854Y-109644854D01*
X157861000Y-109568309D01*
X157912146Y-109644854D01*
X158471361Y-110018510D01*
X158964494Y-110116600D01*
X159297506Y-110116600D01*
X159790639Y-110018510D01*
X160349854Y-109644854D01*
X160401000Y-109568309D01*
X160452146Y-109644854D01*
X161011361Y-110018510D01*
X161504494Y-110116600D01*
X161837506Y-110116600D01*
X162330639Y-110018510D01*
X162889854Y-109644854D01*
X162941000Y-109568309D01*
X162992146Y-109644854D01*
X163551361Y-110018510D01*
X164044494Y-110116600D01*
X164377506Y-110116600D01*
X164870639Y-110018510D01*
X165429854Y-109644854D01*
X165481000Y-109568309D01*
X165532146Y-109644854D01*
X166091361Y-110018510D01*
X166584494Y-110116600D01*
X166917506Y-110116600D01*
X167410639Y-110018510D01*
X167969854Y-109644854D01*
X168021000Y-109568309D01*
X168072146Y-109644854D01*
X168631361Y-110018510D01*
X169124494Y-110116600D01*
X169457506Y-110116600D01*
X169950639Y-110018510D01*
X170509854Y-109644854D01*
X170561000Y-109568309D01*
X170612146Y-109644854D01*
X171171361Y-110018510D01*
X171664494Y-110116600D01*
X171997506Y-110116600D01*
X172490639Y-110018510D01*
X173049854Y-109644854D01*
X173101000Y-109568309D01*
X173152146Y-109644854D01*
X173711361Y-110018510D01*
X174204494Y-110116600D01*
X174537506Y-110116600D01*
X175030639Y-110018510D01*
X175589854Y-109644854D01*
X175963510Y-109085639D01*
X176094720Y-108426000D01*
X175963510Y-107766361D01*
X175728299Y-107414344D01*
X175830833Y-107345833D01*
X176013616Y-107072279D01*
X176026665Y-107006675D01*
X190340000Y-107006675D01*
X190340000Y-108131325D01*
X190770385Y-109170367D01*
X191565633Y-109965615D01*
X192604675Y-110396000D01*
X193729325Y-110396000D01*
X194768367Y-109965615D01*
X195563615Y-109170367D01*
X195994000Y-108131325D01*
X195994000Y-107006675D01*
X195563615Y-105967633D01*
X194768367Y-105172385D01*
X193729325Y-104742000D01*
X192604675Y-104742000D01*
X191565633Y-105172385D01*
X190770385Y-105967633D01*
X190340000Y-107006675D01*
X176026665Y-107006675D01*
X176077801Y-106749600D01*
X176077801Y-105022400D01*
X176013616Y-104699721D01*
X175830833Y-104426167D01*
X175557279Y-104243384D01*
X175234600Y-104179199D01*
X173507400Y-104179199D01*
X173184721Y-104243384D01*
X172911167Y-104426167D01*
X172842656Y-104528701D01*
X172490639Y-104293490D01*
X171997506Y-104195400D01*
X171664494Y-104195400D01*
X171171361Y-104293490D01*
X170612146Y-104667146D01*
X170561000Y-104743691D01*
X170509854Y-104667146D01*
X169950639Y-104293490D01*
X169457506Y-104195400D01*
X169124494Y-104195400D01*
X168631361Y-104293490D01*
X168072146Y-104667146D01*
X168021000Y-104743691D01*
X167969854Y-104667146D01*
X167410639Y-104293490D01*
X166917506Y-104195400D01*
X166584494Y-104195400D01*
X166091361Y-104293490D01*
X165532146Y-104667146D01*
X165481000Y-104743691D01*
X165429854Y-104667146D01*
X164870639Y-104293490D01*
X164377506Y-104195400D01*
X164044494Y-104195400D01*
X163551361Y-104293490D01*
X162992146Y-104667146D01*
X162941000Y-104743691D01*
X162889854Y-104667146D01*
X162330639Y-104293490D01*
X161837506Y-104195400D01*
X161504494Y-104195400D01*
X161286000Y-104238861D01*
X161286000Y-100747378D01*
X161430739Y-100602640D01*
X173104870Y-100602640D01*
X173192031Y-100619977D01*
X173279192Y-100602640D01*
X173279196Y-100602640D01*
X173537341Y-100551292D01*
X173830080Y-100355689D01*
X173879456Y-100281793D01*
X177030386Y-97130864D01*
X177104279Y-97081490D01*
X177172421Y-96979510D01*
X177299882Y-96788751D01*
X177303326Y-96771436D01*
X177329920Y-96637742D01*
X177766474Y-97074296D01*
X178529859Y-97390500D01*
X179356141Y-97390500D01*
X180119526Y-97074296D01*
X180703796Y-96490026D01*
X181020000Y-95726641D01*
X181020000Y-94900359D01*
X180703796Y-94136974D01*
X180119526Y-93552704D01*
X179356141Y-93236500D01*
X178529859Y-93236500D01*
X177766474Y-93552704D01*
X177351230Y-93967948D01*
X177351230Y-83859900D01*
X179071531Y-82139600D01*
X179897239Y-82139600D01*
X179984400Y-82156937D01*
X180071561Y-82139600D01*
X180071565Y-82139600D01*
X180329710Y-82088252D01*
X180622449Y-81892649D01*
X180671825Y-81818753D01*
X182453556Y-80037023D01*
X182527449Y-79987649D01*
X182610738Y-79863000D01*
X182723052Y-79694910D01*
X182740140Y-79609000D01*
X182774400Y-79436765D01*
X182774400Y-79436761D01*
X182791737Y-79349600D01*
X182774400Y-79262439D01*
X182774400Y-76134759D01*
X182791737Y-76047599D01*
X182774400Y-75960439D01*
X182774400Y-75960435D01*
X182723052Y-75702290D01*
X182607392Y-75529193D01*
X182576824Y-75483445D01*
X182576823Y-75483444D01*
X182527449Y-75409551D01*
X182453556Y-75360177D01*
X180767620Y-73674242D01*
X180767620Y-72246009D01*
X180784957Y-72158849D01*
X180767620Y-72071689D01*
X180767620Y-72071685D01*
X180716272Y-71813540D01*
X180599698Y-71639076D01*
X180586848Y-71619843D01*
X187965799Y-71619843D01*
X188132595Y-71882000D01*
X189484000Y-71882000D01*
X189484000Y-70529918D01*
X189221841Y-70363791D01*
X188621870Y-70637950D01*
X188172485Y-71120839D01*
X187965799Y-71619843D01*
X180586848Y-71619843D01*
X180570044Y-71594695D01*
X180570043Y-71594694D01*
X180520669Y-71520801D01*
X180446776Y-71471427D01*
X178002939Y-69027591D01*
X178189200Y-69064640D01*
X179689200Y-69064640D01*
X179936965Y-69015357D01*
X180147009Y-68875009D01*
X180287357Y-68664965D01*
X180289200Y-68655700D01*
X180291043Y-68664965D01*
X180431391Y-68875009D01*
X180641435Y-69015357D01*
X180889200Y-69064640D01*
X182389200Y-69064640D01*
X182636965Y-69015357D01*
X182847009Y-68875009D01*
X182895659Y-68802200D01*
X190528490Y-68802200D01*
X191116001Y-69389712D01*
X191116000Y-70667298D01*
X190932146Y-70790146D01*
X190852581Y-70909223D01*
X190600130Y-70637950D01*
X190000159Y-70363791D01*
X189738000Y-70529918D01*
X189738000Y-71882000D01*
X189758000Y-71882000D01*
X189758000Y-72136000D01*
X189738000Y-72136000D01*
X189738000Y-72156000D01*
X189484000Y-72156000D01*
X189484000Y-72136000D01*
X188132595Y-72136000D01*
X187965799Y-72398157D01*
X188172485Y-72897161D01*
X188505156Y-73254635D01*
X188392146Y-73330146D01*
X188018490Y-73889361D01*
X187887280Y-74549000D01*
X188018490Y-75208639D01*
X188392146Y-75767854D01*
X188468691Y-75819000D01*
X188392146Y-75870146D01*
X188018490Y-76429361D01*
X187887280Y-77089000D01*
X188018490Y-77748639D01*
X188392146Y-78307854D01*
X188468691Y-78359000D01*
X188392146Y-78410146D01*
X188018490Y-78969361D01*
X187887280Y-79629000D01*
X188018490Y-80288639D01*
X188392146Y-80847854D01*
X188468691Y-80899000D01*
X188392146Y-80950146D01*
X188018490Y-81509361D01*
X187887280Y-82169000D01*
X188018490Y-82828639D01*
X188392146Y-83387854D01*
X188468691Y-83439000D01*
X188392146Y-83490146D01*
X188018490Y-84049361D01*
X187887280Y-84709000D01*
X188018490Y-85368639D01*
X188392146Y-85927854D01*
X188468691Y-85979000D01*
X188392146Y-86030146D01*
X188018490Y-86589361D01*
X187887280Y-87249000D01*
X188018490Y-87908639D01*
X188392146Y-88467854D01*
X188951361Y-88841510D01*
X189444494Y-88939600D01*
X189777506Y-88939600D01*
X190270639Y-88841510D01*
X190622656Y-88606299D01*
X190691167Y-88708833D01*
X190964721Y-88891616D01*
X191287400Y-88955801D01*
X193014600Y-88955801D01*
X193337279Y-88891616D01*
X193610833Y-88708833D01*
X193793616Y-88435279D01*
X193857801Y-88112600D01*
X193857801Y-86385400D01*
X193793616Y-86062721D01*
X193610833Y-85789167D01*
X193508299Y-85720656D01*
X193743510Y-85368639D01*
X193874720Y-84709000D01*
X193743510Y-84049361D01*
X193369854Y-83490146D01*
X193293309Y-83439000D01*
X193369854Y-83387854D01*
X193743510Y-82828639D01*
X193874720Y-82169000D01*
X193743510Y-81509361D01*
X193369854Y-80950146D01*
X193293309Y-80899000D01*
X193369854Y-80847854D01*
X193743510Y-80288639D01*
X193874720Y-79629000D01*
X193743510Y-78969361D01*
X193369854Y-78410146D01*
X193293309Y-78359000D01*
X193369854Y-78307854D01*
X193743510Y-77748639D01*
X193874720Y-77089000D01*
X193743510Y-76429361D01*
X193369854Y-75870146D01*
X193293309Y-75819000D01*
X193369854Y-75767854D01*
X193743510Y-75208639D01*
X193874720Y-74549000D01*
X193743510Y-73889361D01*
X193369854Y-73330146D01*
X193293309Y-73279000D01*
X193369854Y-73227854D01*
X193743510Y-72668639D01*
X193874720Y-72009000D01*
X193743510Y-71349361D01*
X193369854Y-70790146D01*
X193186000Y-70667299D01*
X193186000Y-69062934D01*
X193206276Y-68960999D01*
X193125948Y-68557163D01*
X193084546Y-68495201D01*
X192897193Y-68214807D01*
X192810776Y-68157065D01*
X191710336Y-67056626D01*
X191710334Y-67056623D01*
X191710331Y-67056620D01*
X191652592Y-66970208D01*
X191566180Y-66912469D01*
X185969937Y-61316227D01*
X185912193Y-61229807D01*
X185569837Y-61001052D01*
X185267935Y-60941000D01*
X185267934Y-60941000D01*
X185166000Y-60920724D01*
X185064066Y-60941000D01*
X169105233Y-60941000D01*
X169043387Y-60899676D01*
X167935937Y-59792227D01*
X167878193Y-59705807D01*
X167535837Y-59477052D01*
X167446064Y-59459195D01*
X175416411Y-59459195D01*
X175467566Y-59748780D01*
X176037606Y-59957007D01*
X176643940Y-59931239D01*
X177084434Y-59748780D01*
X177135589Y-59459195D01*
X183036411Y-59459195D01*
X183087566Y-59748780D01*
X183657606Y-59957007D01*
X184263940Y-59931239D01*
X184704434Y-59748780D01*
X184755589Y-59459195D01*
X183896000Y-58599605D01*
X183036411Y-59459195D01*
X177135589Y-59459195D01*
X176276000Y-58599605D01*
X175416411Y-59459195D01*
X167446064Y-59459195D01*
X167233935Y-59417000D01*
X167233934Y-59417000D01*
X167132000Y-59396724D01*
X167030066Y-59417000D01*
X158470934Y-59417000D01*
X158368999Y-59396724D01*
X158267065Y-59417000D01*
X157965163Y-59477052D01*
X157622807Y-59705807D01*
X157565065Y-59792224D01*
X156244890Y-61112400D01*
X156175111Y-61112400D01*
X155362937Y-60300227D01*
X155305193Y-60213807D01*
X154962837Y-59985052D01*
X154660935Y-59925000D01*
X154660934Y-59925000D01*
X154559000Y-59904724D01*
X154457066Y-59925000D01*
X147929934Y-59925000D01*
X147828000Y-59904724D01*
X147726065Y-59925000D01*
X147424163Y-59985052D01*
X147081807Y-60213807D01*
X147024065Y-60300224D01*
X146533224Y-60791066D01*
X146279225Y-61045065D01*
X146192808Y-61102807D01*
X146135066Y-61189224D01*
X145964052Y-61445164D01*
X145883724Y-61849000D01*
X145904001Y-61950939D01*
X145904001Y-62719000D01*
X134472805Y-62719000D01*
X132308031Y-60554227D01*
X132250287Y-60467807D01*
X131907931Y-60239052D01*
X131606029Y-60179000D01*
X131606028Y-60179000D01*
X131504094Y-60158724D01*
X131402160Y-60179000D01*
X117263839Y-60179000D01*
X117161904Y-60158724D01*
X117059970Y-60179000D01*
X116758068Y-60239052D01*
X116415712Y-60467807D01*
X116357970Y-60554224D01*
X113333413Y-63578781D01*
X113119441Y-63062205D01*
X112762302Y-62931303D01*
X111431605Y-64262000D01*
X111445748Y-64276143D01*
X111266143Y-64455748D01*
X111252000Y-64441605D01*
X109921303Y-65772302D01*
X110052205Y-66129441D01*
X110576533Y-66335662D01*
X109392595Y-67519600D01*
X107813259Y-67519600D01*
X107764609Y-67446791D01*
X107554565Y-67306443D01*
X107306800Y-67257160D01*
X105806800Y-67257160D01*
X105559035Y-67306443D01*
X105348991Y-67446791D01*
X105208643Y-67656835D01*
X105206800Y-67666100D01*
X105204957Y-67656835D01*
X105064609Y-67446791D01*
X104854565Y-67306443D01*
X104741800Y-67284013D01*
X104741800Y-63868173D01*
X109067568Y-63868173D01*
X109083137Y-64734097D01*
X109384559Y-65461795D01*
X109741698Y-65592697D01*
X111072395Y-64262000D01*
X109741698Y-62931303D01*
X109384559Y-63062205D01*
X109067568Y-63868173D01*
X104741800Y-63868173D01*
X104741800Y-62751698D01*
X109921303Y-62751698D01*
X111252000Y-64082395D01*
X112582697Y-62751698D01*
X112451795Y-62394559D01*
X111645827Y-62077568D01*
X110779903Y-62093137D01*
X110052205Y-62394559D01*
X109921303Y-62751698D01*
X104741800Y-62751698D01*
X104741800Y-60145228D01*
X105372267Y-59884080D01*
X105400396Y-59855951D01*
X105565542Y-60021097D01*
X105869499Y-60147000D01*
X106600250Y-60147000D01*
X106807000Y-59940250D01*
X106807000Y-58547000D01*
X107061000Y-58547000D01*
X107061000Y-59940250D01*
X107267750Y-60147000D01*
X107998501Y-60147000D01*
X108302458Y-60021097D01*
X108535097Y-59788458D01*
X108661000Y-59484500D01*
X108661000Y-58753750D01*
X108454250Y-58547000D01*
X107061000Y-58547000D01*
X106807000Y-58547000D01*
X106787000Y-58547000D01*
X106787000Y-58293000D01*
X106807000Y-58293000D01*
X106807000Y-56899750D01*
X107061000Y-56899750D01*
X107061000Y-58293000D01*
X108454250Y-58293000D01*
X108661000Y-58086250D01*
X108661000Y-57355500D01*
X108535097Y-57051542D01*
X108302458Y-56818903D01*
X107998501Y-56693000D01*
X107267750Y-56693000D01*
X107061000Y-56899750D01*
X106807000Y-56899750D01*
X106600250Y-56693000D01*
X105869499Y-56693000D01*
X105565542Y-56818903D01*
X105400396Y-56984049D01*
X105372267Y-56955920D01*
X104737522Y-56693000D01*
X104050478Y-56693000D01*
X103415733Y-56955920D01*
X102929920Y-57441733D01*
X102667000Y-58076478D01*
X102667000Y-58763522D01*
X102929920Y-59398267D01*
X102971801Y-59440148D01*
X102971801Y-61207222D01*
X102668425Y-60903847D01*
X102619049Y-60829951D01*
X102326310Y-60634348D01*
X102068165Y-60583000D01*
X102068161Y-60583000D01*
X101981000Y-60565663D01*
X101893839Y-60583000D01*
X100188579Y-60583000D01*
X99752579Y-60147000D01*
X100378501Y-60147000D01*
X100682458Y-60021097D01*
X100915097Y-59788458D01*
X101041000Y-59484500D01*
X101041000Y-58753750D01*
X100834250Y-58547000D01*
X99441000Y-58547000D01*
X99441000Y-58567000D01*
X99187000Y-58567000D01*
X99187000Y-58547000D01*
X99167000Y-58547000D01*
X99167000Y-58293000D01*
X99187000Y-58293000D01*
X99187000Y-56899750D01*
X99441000Y-56899750D01*
X99441000Y-58293000D01*
X100834250Y-58293000D01*
X101041000Y-58086250D01*
X101041000Y-57355500D01*
X100915097Y-57051542D01*
X100682458Y-56818903D01*
X100378501Y-56693000D01*
X99647750Y-56693000D01*
X99441000Y-56899750D01*
X99187000Y-56899750D01*
X98980250Y-56693000D01*
X98249499Y-56693000D01*
X97945542Y-56818903D01*
X97780396Y-56984049D01*
X97752267Y-56955920D01*
X97117522Y-56693000D01*
X96430478Y-56693000D01*
X95795733Y-56955920D01*
X95309920Y-57441733D01*
X95047000Y-58076478D01*
X95047000Y-58763522D01*
X95309920Y-59398267D01*
X95795733Y-59884080D01*
X96430478Y-60147000D01*
X96769654Y-60147000D01*
X96927807Y-60383692D01*
X97270163Y-60612447D01*
X97673999Y-60692775D01*
X97775089Y-60672667D01*
X99134577Y-62032156D01*
X99183951Y-62106049D01*
X99257844Y-62155423D01*
X99257845Y-62155424D01*
X99335278Y-62207163D01*
X99476690Y-62301652D01*
X99734835Y-62353000D01*
X99734839Y-62353000D01*
X99822000Y-62370337D01*
X99909161Y-62353000D01*
X101614422Y-62353000D01*
X102137401Y-62875980D01*
X102137400Y-65597221D01*
X101239045Y-66495577D01*
X101165152Y-66544951D01*
X101115778Y-66618844D01*
X101115776Y-66618846D01*
X100969548Y-66837691D01*
X100900863Y-67183000D01*
X100918201Y-67270165D01*
X100918200Y-69940639D01*
X100900863Y-70027800D01*
X100918200Y-70114961D01*
X100918200Y-70114964D01*
X100969548Y-70373109D01*
X101165151Y-70665849D01*
X101239047Y-70715225D01*
X101553672Y-71029850D01*
X101647751Y-71170649D01*
X101721647Y-71220025D01*
X102648359Y-72146737D01*
X102508643Y-72355835D01*
X102459360Y-72603600D01*
X102459360Y-73903600D01*
X102467754Y-73945800D01*
X100682511Y-73945800D01*
X96920000Y-70183290D01*
X96920000Y-67271282D01*
X96978767Y-67359233D01*
X97252321Y-67542016D01*
X97575000Y-67606201D01*
X99275000Y-67606201D01*
X99597679Y-67542016D01*
X99871233Y-67359233D01*
X100054016Y-67085679D01*
X100118201Y-66763000D01*
X100118201Y-65063000D01*
X100054016Y-64740321D01*
X99871233Y-64466767D01*
X99597679Y-64283984D01*
X99275000Y-64219799D01*
X97575000Y-64219799D01*
X97252321Y-64283984D01*
X96978767Y-64466767D01*
X96904785Y-64577489D01*
X96539333Y-64333301D01*
X96050168Y-64236000D01*
X95719832Y-64236000D01*
X95230667Y-64333301D01*
X94675951Y-64703951D01*
X94305301Y-65258667D01*
X94175146Y-65913000D01*
X94305301Y-66567333D01*
X94675951Y-67122049D01*
X94850001Y-67238345D01*
X94850000Y-70510065D01*
X94829724Y-70612000D01*
X94889684Y-70913440D01*
X94910052Y-71015836D01*
X95138807Y-71358193D01*
X95225227Y-71415937D01*
X99059279Y-75249990D01*
X94508569Y-75249990D01*
X91422018Y-72163440D01*
X92223000Y-72163440D01*
X92470765Y-72114157D01*
X92680809Y-71973809D01*
X92821157Y-71763765D01*
X92870440Y-71516000D01*
X92870440Y-70216000D01*
X92821157Y-69968235D01*
X92680809Y-69758191D01*
X92508000Y-69642723D01*
X92508000Y-67898277D01*
X92680809Y-67782809D01*
X92821157Y-67572765D01*
X92870440Y-67325000D01*
X92870440Y-66025000D01*
X92821157Y-65777235D01*
X92680809Y-65567191D01*
X92508000Y-65451723D01*
X92508000Y-65326934D01*
X92528276Y-65225000D01*
X92485151Y-65008193D01*
X92447948Y-64821163D01*
X92219193Y-64478807D01*
X92132776Y-64421065D01*
X91313937Y-63602227D01*
X91256193Y-63515807D01*
X90913837Y-63287052D01*
X90611935Y-63227000D01*
X90611934Y-63227000D01*
X90510000Y-63206724D01*
X90408066Y-63227000D01*
X80696134Y-63227000D01*
X80594199Y-63206724D01*
X80492265Y-63227000D01*
X80190363Y-63287052D01*
X79848007Y-63515807D01*
X79790265Y-63602224D01*
X78639025Y-64753465D01*
X78552608Y-64811207D01*
X78494866Y-64897624D01*
X78323852Y-65153564D01*
X78243524Y-65557400D01*
X77926000Y-65557400D01*
X77926000Y-57476675D01*
X78834000Y-57476675D01*
X78834000Y-58601325D01*
X79264385Y-59640367D01*
X80059633Y-60435615D01*
X81098675Y-60866000D01*
X82223325Y-60866000D01*
X83262367Y-60435615D01*
X84057615Y-59640367D01*
X84488000Y-58601325D01*
X84488000Y-57476675D01*
X84057615Y-56437633D01*
X83771569Y-56151587D01*
X132031000Y-56151587D01*
X132031000Y-56878413D01*
X132309144Y-57549912D01*
X132823088Y-58063856D01*
X133494587Y-58342000D01*
X134221413Y-58342000D01*
X134892912Y-58063856D01*
X135406856Y-57549912D01*
X135685000Y-56878413D01*
X135685000Y-56151587D01*
X137111000Y-56151587D01*
X137111000Y-56878413D01*
X137389144Y-57549912D01*
X137903088Y-58063856D01*
X138574587Y-58342000D01*
X139301413Y-58342000D01*
X139688638Y-58181606D01*
X174738993Y-58181606D01*
X174764761Y-58787940D01*
X174947220Y-59228434D01*
X175236805Y-59279589D01*
X176096395Y-58420000D01*
X176455605Y-58420000D01*
X177315195Y-59279589D01*
X177604780Y-59228434D01*
X177813007Y-58658394D01*
X177792745Y-58181606D01*
X182358993Y-58181606D01*
X182384761Y-58787940D01*
X182567220Y-59228434D01*
X182856805Y-59279589D01*
X183716395Y-58420000D01*
X184075605Y-58420000D01*
X184935195Y-59279589D01*
X185224780Y-59228434D01*
X185433007Y-58658394D01*
X185407239Y-58052060D01*
X185224780Y-57611566D01*
X184935195Y-57560411D01*
X184075605Y-58420000D01*
X183716395Y-58420000D01*
X182856805Y-57560411D01*
X182567220Y-57611566D01*
X182358993Y-58181606D01*
X177792745Y-58181606D01*
X177787239Y-58052060D01*
X177604780Y-57611566D01*
X177315195Y-57560411D01*
X176455605Y-58420000D01*
X176096395Y-58420000D01*
X175236805Y-57560411D01*
X174947220Y-57611566D01*
X174738993Y-58181606D01*
X139688638Y-58181606D01*
X139972912Y-58063856D01*
X140486856Y-57549912D01*
X140556902Y-57380805D01*
X175416411Y-57380805D01*
X176276000Y-58240395D01*
X177135589Y-57380805D01*
X183036411Y-57380805D01*
X183896000Y-58240395D01*
X184659719Y-57476675D01*
X190340000Y-57476675D01*
X190340000Y-58601325D01*
X190770385Y-59640367D01*
X191565633Y-60435615D01*
X192604675Y-60866000D01*
X193729325Y-60866000D01*
X194768367Y-60435615D01*
X195563615Y-59640367D01*
X195994000Y-58601325D01*
X195994000Y-57476675D01*
X195563615Y-56437633D01*
X194768367Y-55642385D01*
X193729325Y-55212000D01*
X192604675Y-55212000D01*
X191565633Y-55642385D01*
X190770385Y-56437633D01*
X190340000Y-57476675D01*
X184659719Y-57476675D01*
X184755589Y-57380805D01*
X184704434Y-57091220D01*
X184134394Y-56882993D01*
X183528060Y-56908761D01*
X183087566Y-57091220D01*
X183036411Y-57380805D01*
X177135589Y-57380805D01*
X177084434Y-57091220D01*
X176514394Y-56882993D01*
X175908060Y-56908761D01*
X175467566Y-57091220D01*
X175416411Y-57380805D01*
X140556902Y-57380805D01*
X140765000Y-56878413D01*
X140765000Y-56151587D01*
X140486856Y-55480088D01*
X139972912Y-54966144D01*
X139301413Y-54688000D01*
X138574587Y-54688000D01*
X137903088Y-54966144D01*
X137389144Y-55480088D01*
X137111000Y-56151587D01*
X135685000Y-56151587D01*
X135406856Y-55480088D01*
X134892912Y-54966144D01*
X134221413Y-54688000D01*
X133494587Y-54688000D01*
X132823088Y-54966144D01*
X132309144Y-55480088D01*
X132031000Y-56151587D01*
X83771569Y-56151587D01*
X83262367Y-55642385D01*
X82223325Y-55212000D01*
X81098675Y-55212000D01*
X80059633Y-55642385D01*
X79264385Y-56437633D01*
X78834000Y-57476675D01*
X77926000Y-57476675D01*
X77926000Y-54304000D01*
X196902001Y-54304000D01*
X196902000Y-111304000D01*
G36*
X132973000Y-65314379D02*
X132973000Y-65534099D01*
X132437881Y-64998980D01*
X131711250Y-64698000D01*
X130924750Y-64698000D01*
X130198119Y-64998980D01*
X129641980Y-65555119D01*
X129341000Y-66281750D01*
X129341000Y-67068250D01*
X129461031Y-67358031D01*
X129171250Y-67238000D01*
X128384750Y-67238000D01*
X127658119Y-67538980D01*
X127101980Y-68095119D01*
X126801000Y-68821750D01*
X126801000Y-69608250D01*
X127101980Y-70334881D01*
X127658119Y-70891020D01*
X128384750Y-71192000D01*
X129171250Y-71192000D01*
X129897881Y-70891020D01*
X130454020Y-70334881D01*
X130755000Y-69608250D01*
X130755000Y-68821750D01*
X130634969Y-68531969D01*
X130924750Y-68652000D01*
X131711250Y-68652000D01*
X132001031Y-68531969D01*
X131881000Y-68821750D01*
X131881000Y-69608250D01*
X132181980Y-70334881D01*
X132738119Y-70891020D01*
X132823001Y-70926179D01*
X132823001Y-70943280D01*
X132883053Y-71245182D01*
X132973000Y-71379798D01*
X132973001Y-71959920D01*
X131388847Y-73544075D01*
X131314951Y-73593451D01*
X131119348Y-73886191D01*
X131068000Y-74144336D01*
X131068000Y-74144339D01*
X131050663Y-74231500D01*
X131068000Y-74318661D01*
X131068001Y-81561120D01*
X130646653Y-81982468D01*
X130614135Y-81976000D01*
X130585477Y-81976000D01*
X130470009Y-81803191D01*
X130259965Y-81662843D01*
X130250700Y-81661000D01*
X130259965Y-81659157D01*
X130470009Y-81518809D01*
X130610357Y-81308765D01*
X130659640Y-81061000D01*
X130659640Y-79561000D01*
X130610357Y-79313235D01*
X130470009Y-79103191D01*
X130259965Y-78962843D01*
X130012200Y-78913560D01*
X128712200Y-78913560D01*
X128464435Y-78962843D01*
X128254391Y-79103191D01*
X128114043Y-79313235D01*
X128091613Y-79426000D01*
X127776761Y-79426000D01*
X127689600Y-79408663D01*
X127602439Y-79426000D01*
X127602435Y-79426000D01*
X127371046Y-79472026D01*
X127344290Y-79477348D01*
X127125445Y-79623576D01*
X127125444Y-79623577D01*
X127051551Y-79672951D01*
X127002177Y-79746844D01*
X126512046Y-80236975D01*
X126438151Y-80286351D01*
X126242548Y-80579091D01*
X126191200Y-80837236D01*
X126191200Y-80837239D01*
X126173863Y-80924400D01*
X126191200Y-81011561D01*
X126191201Y-83783635D01*
X126173863Y-83870800D01*
X126242548Y-84216109D01*
X126388776Y-84434954D01*
X126388778Y-84434956D01*
X126438152Y-84508849D01*
X126512045Y-84558223D01*
X127836577Y-85882756D01*
X127885951Y-85956649D01*
X127959844Y-86006023D01*
X127959845Y-86006024D01*
X127995946Y-86030146D01*
X128178690Y-86152252D01*
X128436835Y-86203600D01*
X128436839Y-86203600D01*
X128523999Y-86220937D01*
X128611159Y-86203600D01*
X132670048Y-86203600D01*
X132583920Y-86411533D01*
X132583920Y-86867283D01*
X132790670Y-87074033D01*
X134033920Y-87074033D01*
X134033920Y-87054033D01*
X134287920Y-87054033D01*
X134287920Y-87074033D01*
X134307920Y-87074033D01*
X134307920Y-87328033D01*
X134287920Y-87328033D01*
X134287920Y-88446283D01*
X134494670Y-88653033D01*
X135075421Y-88653033D01*
X135379378Y-88527130D01*
X135554751Y-88351757D01*
X135663155Y-88424190D01*
X135910920Y-88473473D01*
X137410920Y-88473473D01*
X137658685Y-88424190D01*
X137868729Y-88283842D01*
X138001334Y-88085387D01*
X138256230Y-88034685D01*
X138477867Y-87886591D01*
X141685794Y-87886591D01*
X141464084Y-88108301D01*
X141224000Y-88687915D01*
X141224000Y-89315285D01*
X141227438Y-89323584D01*
X140932989Y-89618033D01*
X138000902Y-89618033D01*
X137868729Y-89420224D01*
X137658685Y-89279876D01*
X137410920Y-89230593D01*
X135910920Y-89230593D01*
X135663155Y-89279876D01*
X135554751Y-89352309D01*
X135379378Y-89176936D01*
X135075421Y-89051033D01*
X134494670Y-89051033D01*
X134287920Y-89257783D01*
X134287920Y-90376033D01*
X134307920Y-90376033D01*
X134307920Y-90630033D01*
X134287920Y-90630033D01*
X134287920Y-91748283D01*
X134494670Y-91955033D01*
X135075421Y-91955033D01*
X135379378Y-91829130D01*
X135554751Y-91653757D01*
X135663155Y-91726190D01*
X135910920Y-91775473D01*
X137410920Y-91775473D01*
X137658685Y-91726190D01*
X137868729Y-91585842D01*
X138000902Y-91388033D01*
X141212406Y-91388033D01*
X141299567Y-91405370D01*
X141386728Y-91388033D01*
X141386732Y-91388033D01*
X141644877Y-91336685D01*
X141937616Y-91141082D01*
X141986992Y-91067186D01*
X142479016Y-90575162D01*
X142487315Y-90578600D01*
X143114685Y-90578600D01*
X143694299Y-90338516D01*
X144137916Y-89894899D01*
X144378000Y-89315285D01*
X144378000Y-88687915D01*
X144137916Y-88108301D01*
X143916206Y-87886591D01*
X145334413Y-87886591D01*
X146127437Y-88679616D01*
X146124000Y-88687915D01*
X146124000Y-89315285D01*
X146364084Y-89894899D01*
X146807701Y-90338516D01*
X147387315Y-90578600D01*
X148014685Y-90578600D01*
X148594299Y-90338516D01*
X149037916Y-89894899D01*
X149278000Y-89315285D01*
X149278000Y-88687915D01*
X149037916Y-88108301D01*
X148594299Y-87664684D01*
X148014685Y-87424600D01*
X147387315Y-87424600D01*
X147379016Y-87428037D01*
X146388416Y-86437438D01*
X146339040Y-86363542D01*
X146046301Y-86167939D01*
X145788156Y-86116591D01*
X145788152Y-86116591D01*
X145700991Y-86099254D01*
X145613830Y-86116591D01*
X144873880Y-86116591D01*
X145113249Y-85956649D01*
X145162625Y-85882753D01*
X146334756Y-84710623D01*
X146408649Y-84661249D01*
X146470514Y-84568663D01*
X146577571Y-84408440D01*
X146604252Y-84368510D01*
X146655600Y-84110365D01*
X146655600Y-84110361D01*
X146672937Y-84023201D01*
X146655600Y-83936041D01*
X146655600Y-80069750D01*
X156282000Y-80069750D01*
X156282000Y-80650501D01*
X156407903Y-80954458D01*
X156640542Y-81187097D01*
X156944500Y-81313000D01*
X157400250Y-81313000D01*
X157607000Y-81106250D01*
X157607000Y-79863000D01*
X157861000Y-79863000D01*
X157861000Y-81106250D01*
X158067750Y-81313000D01*
X158523500Y-81313000D01*
X158827458Y-81187097D01*
X159060097Y-80954458D01*
X159186000Y-80650501D01*
X159186000Y-80069750D01*
X158979250Y-79863000D01*
X157861000Y-79863000D01*
X157607000Y-79863000D01*
X156488750Y-79863000D01*
X156282000Y-80069750D01*
X146655600Y-80069750D01*
X146655600Y-75372778D01*
X147093024Y-74935355D01*
X147093026Y-74935352D01*
X149743979Y-72284400D01*
X151296822Y-72284400D01*
X155141577Y-76129156D01*
X155190951Y-76203049D01*
X155264844Y-76252423D01*
X155264845Y-76252424D01*
X155382442Y-76331000D01*
X155483690Y-76398652D01*
X155741835Y-76450000D01*
X155741838Y-76450000D01*
X155828999Y-76467337D01*
X155916160Y-76450000D01*
X156468721Y-76450000D01*
X156461560Y-76486000D01*
X156461560Y-77986000D01*
X156510843Y-78233765D01*
X156583276Y-78342169D01*
X156407903Y-78517542D01*
X156282000Y-78821499D01*
X156282000Y-79402250D01*
X156488750Y-79609000D01*
X157607000Y-79609000D01*
X157607000Y-79589000D01*
X157861000Y-79589000D01*
X157861000Y-79609000D01*
X158979250Y-79609000D01*
X159186000Y-79402250D01*
X159186000Y-78821499D01*
X159060097Y-78517542D01*
X158884724Y-78342169D01*
X158926386Y-78279816D01*
X158984000Y-78291276D01*
X159085934Y-78271000D01*
X159085935Y-78271000D01*
X159387837Y-78210948D01*
X159552386Y-78101000D01*
X164733422Y-78101000D01*
X164881000Y-78248578D01*
X164881000Y-78477657D01*
X165069018Y-78931571D01*
X165416429Y-79278982D01*
X165870343Y-79467000D01*
X165915422Y-79467000D01*
X165458847Y-79923575D01*
X165384952Y-79972950D01*
X165275163Y-80137260D01*
X162249847Y-83162577D01*
X162196329Y-83198337D01*
X162175951Y-83211953D01*
X162059122Y-83386799D01*
X151741322Y-93704600D01*
X142200159Y-93704600D01*
X142112999Y-93687263D01*
X142025840Y-93704600D01*
X142025835Y-93704600D01*
X141767690Y-93755948D01*
X141651376Y-93833667D01*
X141548845Y-93902176D01*
X141548844Y-93902177D01*
X141474951Y-93951551D01*
X141425577Y-94025444D01*
X138596822Y-96854200D01*
X137350122Y-96854200D01*
X137714296Y-96490026D01*
X138030500Y-95726641D01*
X138030500Y-94900359D01*
X137714296Y-94136974D01*
X137130026Y-93552704D01*
X136366641Y-93236500D01*
X135540359Y-93236500D01*
X134776974Y-93552704D01*
X134192704Y-94136974D01*
X133876500Y-94900359D01*
X133876500Y-95726641D01*
X134192704Y-96490026D01*
X134556878Y-96854200D01*
X127278763Y-96854200D01*
X126754610Y-96330048D01*
X126754610Y-90992587D01*
X126771947Y-90905426D01*
X126758294Y-90836783D01*
X132583920Y-90836783D01*
X132583920Y-91292533D01*
X132709823Y-91596491D01*
X132942462Y-91829130D01*
X133246419Y-91955033D01*
X133827170Y-91955033D01*
X134033920Y-91748283D01*
X134033920Y-90630033D01*
X132790670Y-90630033D01*
X132583920Y-90836783D01*
X126758294Y-90836783D01*
X126754610Y-90818265D01*
X126754610Y-90818261D01*
X126703262Y-90560116D01*
X126622874Y-90439807D01*
X126557034Y-90341271D01*
X126557033Y-90341270D01*
X126507659Y-90267377D01*
X126433766Y-90218003D01*
X126034764Y-89819002D01*
X125964292Y-89713533D01*
X132583920Y-89713533D01*
X132583920Y-90169283D01*
X132790670Y-90376033D01*
X134033920Y-90376033D01*
X134033920Y-89257783D01*
X133827170Y-89051033D01*
X133246419Y-89051033D01*
X132942462Y-89176936D01*
X132709823Y-89409575D01*
X132583920Y-89713533D01*
X125964292Y-89713533D01*
X125960224Y-89707445D01*
X125960223Y-89707444D01*
X125910849Y-89633551D01*
X125836956Y-89584177D01*
X125031615Y-88778837D01*
X124982239Y-88704941D01*
X124689500Y-88509338D01*
X124431355Y-88457990D01*
X124431351Y-88457990D01*
X124344190Y-88440653D01*
X124257029Y-88457990D01*
X121306531Y-88457990D01*
X120711010Y-87862470D01*
X120711010Y-87273154D01*
X120727767Y-87298233D01*
X121001321Y-87481016D01*
X121324000Y-87545201D01*
X123024000Y-87545201D01*
X123076374Y-87534783D01*
X132583920Y-87534783D01*
X132583920Y-87990533D01*
X132709823Y-88294491D01*
X132942462Y-88527130D01*
X133246419Y-88653033D01*
X133827170Y-88653033D01*
X134033920Y-88446283D01*
X134033920Y-87328033D01*
X132790670Y-87328033D01*
X132583920Y-87534783D01*
X123076374Y-87534783D01*
X123346679Y-87481016D01*
X123620233Y-87298233D01*
X123803016Y-87024679D01*
X123867201Y-86702000D01*
X123867201Y-85002000D01*
X123803016Y-84679321D01*
X123620233Y-84405767D01*
X123486179Y-84316195D01*
X123601481Y-84192145D01*
X123805729Y-83699024D01*
X123638755Y-83439000D01*
X122301000Y-83439000D01*
X122301000Y-83459000D01*
X122047000Y-83459000D01*
X122047000Y-83439000D01*
X122027000Y-83439000D01*
X122027000Y-83185000D01*
X122047000Y-83185000D01*
X122047000Y-83165000D01*
X122301000Y-83165000D01*
X122301000Y-83185000D01*
X123638755Y-83185000D01*
X123805729Y-82924976D01*
X123601481Y-82431855D01*
X123259313Y-82063727D01*
X123383049Y-81981049D01*
X123753699Y-81426333D01*
X123883854Y-80772000D01*
X123753699Y-80117667D01*
X123383049Y-79562951D01*
X123204107Y-79443386D01*
X123148948Y-79166082D01*
X122920193Y-78823726D01*
X122577837Y-78594971D01*
X122419045Y-78563385D01*
X121473010Y-77617351D01*
X121473010Y-71040568D01*
X126040156Y-66473423D01*
X126114049Y-66424049D01*
X126167428Y-66344163D01*
X126309652Y-66131310D01*
X126324670Y-66055807D01*
X126361000Y-65873165D01*
X126361000Y-65873161D01*
X126378337Y-65786000D01*
X126361000Y-65698839D01*
X126361000Y-64044378D01*
X127356369Y-63049010D01*
X130707632Y-63049010D01*
X132973000Y-65314379D01*
X132973000Y-65314379D01*
G37*
X132973000Y-65314379D02*
X132973000Y-65534099D01*
X132437881Y-64998980D01*
X131711250Y-64698000D01*
X130924750Y-64698000D01*
X130198119Y-64998980D01*
X129641980Y-65555119D01*
X129341000Y-66281750D01*
X129341000Y-67068250D01*
X129461031Y-67358031D01*
X129171250Y-67238000D01*
X128384750Y-67238000D01*
X127658119Y-67538980D01*
X127101980Y-68095119D01*
X126801000Y-68821750D01*
X126801000Y-69608250D01*
X127101980Y-70334881D01*
X127658119Y-70891020D01*
X128384750Y-71192000D01*
X129171250Y-71192000D01*
X129897881Y-70891020D01*
X130454020Y-70334881D01*
X130755000Y-69608250D01*
X130755000Y-68821750D01*
X130634969Y-68531969D01*
X130924750Y-68652000D01*
X131711250Y-68652000D01*
X132001031Y-68531969D01*
X131881000Y-68821750D01*
X131881000Y-69608250D01*
X132181980Y-70334881D01*
X132738119Y-70891020D01*
X132823001Y-70926179D01*
X132823001Y-70943280D01*
X132883053Y-71245182D01*
X132973000Y-71379798D01*
X132973001Y-71959920D01*
X131388847Y-73544075D01*
X131314951Y-73593451D01*
X131119348Y-73886191D01*
X131068000Y-74144336D01*
X131068000Y-74144339D01*
X131050663Y-74231500D01*
X131068000Y-74318661D01*
X131068001Y-81561120D01*
X130646653Y-81982468D01*
X130614135Y-81976000D01*
X130585477Y-81976000D01*
X130470009Y-81803191D01*
X130259965Y-81662843D01*
X130250700Y-81661000D01*
X130259965Y-81659157D01*
X130470009Y-81518809D01*
X130610357Y-81308765D01*
X130659640Y-81061000D01*
X130659640Y-79561000D01*
X130610357Y-79313235D01*
X130470009Y-79103191D01*
X130259965Y-78962843D01*
X130012200Y-78913560D01*
X128712200Y-78913560D01*
X128464435Y-78962843D01*
X128254391Y-79103191D01*
X128114043Y-79313235D01*
X128091613Y-79426000D01*
X127776761Y-79426000D01*
X127689600Y-79408663D01*
X127602439Y-79426000D01*
X127602435Y-79426000D01*
X127371046Y-79472026D01*
X127344290Y-79477348D01*
X127125445Y-79623576D01*
X127125444Y-79623577D01*
X127051551Y-79672951D01*
X127002177Y-79746844D01*
X126512046Y-80236975D01*
X126438151Y-80286351D01*
X126242548Y-80579091D01*
X126191200Y-80837236D01*
X126191200Y-80837239D01*
X126173863Y-80924400D01*
X126191200Y-81011561D01*
X126191201Y-83783635D01*
X126173863Y-83870800D01*
X126242548Y-84216109D01*
X126388776Y-84434954D01*
X126388778Y-84434956D01*
X126438152Y-84508849D01*
X126512045Y-84558223D01*
X127836577Y-85882756D01*
X127885951Y-85956649D01*
X127959844Y-86006023D01*
X127959845Y-86006024D01*
X127995946Y-86030146D01*
X128178690Y-86152252D01*
X128436835Y-86203600D01*
X128436839Y-86203600D01*
X128523999Y-86220937D01*
X128611159Y-86203600D01*
X132670048Y-86203600D01*
X132583920Y-86411533D01*
X132583920Y-86867283D01*
X132790670Y-87074033D01*
X134033920Y-87074033D01*
X134033920Y-87054033D01*
X134287920Y-87054033D01*
X134287920Y-87074033D01*
X134307920Y-87074033D01*
X134307920Y-87328033D01*
X134287920Y-87328033D01*
X134287920Y-88446283D01*
X134494670Y-88653033D01*
X135075421Y-88653033D01*
X135379378Y-88527130D01*
X135554751Y-88351757D01*
X135663155Y-88424190D01*
X135910920Y-88473473D01*
X137410920Y-88473473D01*
X137658685Y-88424190D01*
X137868729Y-88283842D01*
X138001334Y-88085387D01*
X138256230Y-88034685D01*
X138477867Y-87886591D01*
X141685794Y-87886591D01*
X141464084Y-88108301D01*
X141224000Y-88687915D01*
X141224000Y-89315285D01*
X141227438Y-89323584D01*
X140932989Y-89618033D01*
X138000902Y-89618033D01*
X137868729Y-89420224D01*
X137658685Y-89279876D01*
X137410920Y-89230593D01*
X135910920Y-89230593D01*
X135663155Y-89279876D01*
X135554751Y-89352309D01*
X135379378Y-89176936D01*
X135075421Y-89051033D01*
X134494670Y-89051033D01*
X134287920Y-89257783D01*
X134287920Y-90376033D01*
X134307920Y-90376033D01*
X134307920Y-90630033D01*
X134287920Y-90630033D01*
X134287920Y-91748283D01*
X134494670Y-91955033D01*
X135075421Y-91955033D01*
X135379378Y-91829130D01*
X135554751Y-91653757D01*
X135663155Y-91726190D01*
X135910920Y-91775473D01*
X137410920Y-91775473D01*
X137658685Y-91726190D01*
X137868729Y-91585842D01*
X138000902Y-91388033D01*
X141212406Y-91388033D01*
X141299567Y-91405370D01*
X141386728Y-91388033D01*
X141386732Y-91388033D01*
X141644877Y-91336685D01*
X141937616Y-91141082D01*
X141986992Y-91067186D01*
X142479016Y-90575162D01*
X142487315Y-90578600D01*
X143114685Y-90578600D01*
X143694299Y-90338516D01*
X144137916Y-89894899D01*
X144378000Y-89315285D01*
X144378000Y-88687915D01*
X144137916Y-88108301D01*
X143916206Y-87886591D01*
X145334413Y-87886591D01*
X146127437Y-88679616D01*
X146124000Y-88687915D01*
X146124000Y-89315285D01*
X146364084Y-89894899D01*
X146807701Y-90338516D01*
X147387315Y-90578600D01*
X148014685Y-90578600D01*
X148594299Y-90338516D01*
X149037916Y-89894899D01*
X149278000Y-89315285D01*
X149278000Y-88687915D01*
X149037916Y-88108301D01*
X148594299Y-87664684D01*
X148014685Y-87424600D01*
X147387315Y-87424600D01*
X147379016Y-87428037D01*
X146388416Y-86437438D01*
X146339040Y-86363542D01*
X146046301Y-86167939D01*
X145788156Y-86116591D01*
X145788152Y-86116591D01*
X145700991Y-86099254D01*
X145613830Y-86116591D01*
X144873880Y-86116591D01*
X145113249Y-85956649D01*
X145162625Y-85882753D01*
X146334756Y-84710623D01*
X146408649Y-84661249D01*
X146470514Y-84568663D01*
X146577571Y-84408440D01*
X146604252Y-84368510D01*
X146655600Y-84110365D01*
X146655600Y-84110361D01*
X146672937Y-84023201D01*
X146655600Y-83936041D01*
X146655600Y-80069750D01*
X156282000Y-80069750D01*
X156282000Y-80650501D01*
X156407903Y-80954458D01*
X156640542Y-81187097D01*
X156944500Y-81313000D01*
X157400250Y-81313000D01*
X157607000Y-81106250D01*
X157607000Y-79863000D01*
X157861000Y-79863000D01*
X157861000Y-81106250D01*
X158067750Y-81313000D01*
X158523500Y-81313000D01*
X158827458Y-81187097D01*
X159060097Y-80954458D01*
X159186000Y-80650501D01*
X159186000Y-80069750D01*
X158979250Y-79863000D01*
X157861000Y-79863000D01*
X157607000Y-79863000D01*
X156488750Y-79863000D01*
X156282000Y-80069750D01*
X146655600Y-80069750D01*
X146655600Y-75372778D01*
X147093024Y-74935355D01*
X147093026Y-74935352D01*
X149743979Y-72284400D01*
X151296822Y-72284400D01*
X155141577Y-76129156D01*
X155190951Y-76203049D01*
X155264844Y-76252423D01*
X155264845Y-76252424D01*
X155382442Y-76331000D01*
X155483690Y-76398652D01*
X155741835Y-76450000D01*
X155741838Y-76450000D01*
X155828999Y-76467337D01*
X155916160Y-76450000D01*
X156468721Y-76450000D01*
X156461560Y-76486000D01*
X156461560Y-77986000D01*
X156510843Y-78233765D01*
X156583276Y-78342169D01*
X156407903Y-78517542D01*
X156282000Y-78821499D01*
X156282000Y-79402250D01*
X156488750Y-79609000D01*
X157607000Y-79609000D01*
X157607000Y-79589000D01*
X157861000Y-79589000D01*
X157861000Y-79609000D01*
X158979250Y-79609000D01*
X159186000Y-79402250D01*
X159186000Y-78821499D01*
X159060097Y-78517542D01*
X158884724Y-78342169D01*
X158926386Y-78279816D01*
X158984000Y-78291276D01*
X159085934Y-78271000D01*
X159085935Y-78271000D01*
X159387837Y-78210948D01*
X159552386Y-78101000D01*
X164733422Y-78101000D01*
X164881000Y-78248578D01*
X164881000Y-78477657D01*
X165069018Y-78931571D01*
X165416429Y-79278982D01*
X165870343Y-79467000D01*
X165915422Y-79467000D01*
X165458847Y-79923575D01*
X165384952Y-79972950D01*
X165275163Y-80137260D01*
X162249847Y-83162577D01*
X162196329Y-83198337D01*
X162175951Y-83211953D01*
X162059122Y-83386799D01*
X151741322Y-93704600D01*
X142200159Y-93704600D01*
X142112999Y-93687263D01*
X142025840Y-93704600D01*
X142025835Y-93704600D01*
X141767690Y-93755948D01*
X141651376Y-93833667D01*
X141548845Y-93902176D01*
X141548844Y-93902177D01*
X141474951Y-93951551D01*
X141425577Y-94025444D01*
X138596822Y-96854200D01*
X137350122Y-96854200D01*
X137714296Y-96490026D01*
X138030500Y-95726641D01*
X138030500Y-94900359D01*
X137714296Y-94136974D01*
X137130026Y-93552704D01*
X136366641Y-93236500D01*
X135540359Y-93236500D01*
X134776974Y-93552704D01*
X134192704Y-94136974D01*
X133876500Y-94900359D01*
X133876500Y-95726641D01*
X134192704Y-96490026D01*
X134556878Y-96854200D01*
X127278763Y-96854200D01*
X126754610Y-96330048D01*
X126754610Y-90992587D01*
X126771947Y-90905426D01*
X126758294Y-90836783D01*
X132583920Y-90836783D01*
X132583920Y-91292533D01*
X132709823Y-91596491D01*
X132942462Y-91829130D01*
X133246419Y-91955033D01*
X133827170Y-91955033D01*
X134033920Y-91748283D01*
X134033920Y-90630033D01*
X132790670Y-90630033D01*
X132583920Y-90836783D01*
X126758294Y-90836783D01*
X126754610Y-90818265D01*
X126754610Y-90818261D01*
X126703262Y-90560116D01*
X126622874Y-90439807D01*
X126557034Y-90341271D01*
X126557033Y-90341270D01*
X126507659Y-90267377D01*
X126433766Y-90218003D01*
X126034764Y-89819002D01*
X125964292Y-89713533D01*
X132583920Y-89713533D01*
X132583920Y-90169283D01*
X132790670Y-90376033D01*
X134033920Y-90376033D01*
X134033920Y-89257783D01*
X133827170Y-89051033D01*
X133246419Y-89051033D01*
X132942462Y-89176936D01*
X132709823Y-89409575D01*
X132583920Y-89713533D01*
X125964292Y-89713533D01*
X125960224Y-89707445D01*
X125960223Y-89707444D01*
X125910849Y-89633551D01*
X125836956Y-89584177D01*
X125031615Y-88778837D01*
X124982239Y-88704941D01*
X124689500Y-88509338D01*
X124431355Y-88457990D01*
X124431351Y-88457990D01*
X124344190Y-88440653D01*
X124257029Y-88457990D01*
X121306531Y-88457990D01*
X120711010Y-87862470D01*
X120711010Y-87273154D01*
X120727767Y-87298233D01*
X121001321Y-87481016D01*
X121324000Y-87545201D01*
X123024000Y-87545201D01*
X123076374Y-87534783D01*
X132583920Y-87534783D01*
X132583920Y-87990533D01*
X132709823Y-88294491D01*
X132942462Y-88527130D01*
X133246419Y-88653033D01*
X133827170Y-88653033D01*
X134033920Y-88446283D01*
X134033920Y-87328033D01*
X132790670Y-87328033D01*
X132583920Y-87534783D01*
X123076374Y-87534783D01*
X123346679Y-87481016D01*
X123620233Y-87298233D01*
X123803016Y-87024679D01*
X123867201Y-86702000D01*
X123867201Y-85002000D01*
X123803016Y-84679321D01*
X123620233Y-84405767D01*
X123486179Y-84316195D01*
X123601481Y-84192145D01*
X123805729Y-83699024D01*
X123638755Y-83439000D01*
X122301000Y-83439000D01*
X122301000Y-83459000D01*
X122047000Y-83459000D01*
X122047000Y-83439000D01*
X122027000Y-83439000D01*
X122027000Y-83185000D01*
X122047000Y-83185000D01*
X122047000Y-83165000D01*
X122301000Y-83165000D01*
X122301000Y-83185000D01*
X123638755Y-83185000D01*
X123805729Y-82924976D01*
X123601481Y-82431855D01*
X123259313Y-82063727D01*
X123383049Y-81981049D01*
X123753699Y-81426333D01*
X123883854Y-80772000D01*
X123753699Y-80117667D01*
X123383049Y-79562951D01*
X123204107Y-79443386D01*
X123148948Y-79166082D01*
X122920193Y-78823726D01*
X122577837Y-78594971D01*
X122419045Y-78563385D01*
X121473010Y-77617351D01*
X121473010Y-71040568D01*
X126040156Y-66473423D01*
X126114049Y-66424049D01*
X126167428Y-66344163D01*
X126309652Y-66131310D01*
X126324670Y-66055807D01*
X126361000Y-65873165D01*
X126361000Y-65873161D01*
X126378337Y-65786000D01*
X126361000Y-65698839D01*
X126361000Y-64044378D01*
X127356369Y-63049010D01*
X130707632Y-63049010D01*
X132973000Y-65314379D01*
G36*
X169326000Y-80026579D02*
X169326000Y-80255657D01*
X169514018Y-80709571D01*
X169861429Y-81056982D01*
X170315343Y-81245000D01*
X170806657Y-81245000D01*
X171260571Y-81056982D01*
X171483053Y-80834500D01*
X172664723Y-80834500D01*
X172764686Y-80984104D01*
X172441227Y-81307563D01*
X172354807Y-81365307D01*
X172198051Y-81599910D01*
X172126052Y-81707664D01*
X172045724Y-82111500D01*
X172066000Y-82213434D01*
X172066000Y-88591000D01*
X171489750Y-88591000D01*
X171283000Y-88797750D01*
X171283000Y-89916000D01*
X171303000Y-89916000D01*
X171303000Y-90170000D01*
X171283000Y-90170000D01*
X171283000Y-91288250D01*
X171489750Y-91495000D01*
X172066001Y-91495000D01*
X172066001Y-92909000D01*
X171509750Y-92909000D01*
X171303000Y-93115750D01*
X171303000Y-94234000D01*
X171323000Y-94234000D01*
X171323000Y-94488000D01*
X171303000Y-94488000D01*
X171303000Y-94508000D01*
X171049000Y-94508000D01*
X171049000Y-94488000D01*
X171029000Y-94488000D01*
X171029000Y-94234000D01*
X171049000Y-94234000D01*
X171049000Y-93115750D01*
X170842250Y-92909000D01*
X170261499Y-92909000D01*
X169957542Y-93034903D01*
X169782169Y-93210276D01*
X169673765Y-93137843D01*
X169426000Y-93088560D01*
X167926000Y-93088560D01*
X167678235Y-93137843D01*
X167636000Y-93166064D01*
X167636000Y-91251300D01*
X167658235Y-91266157D01*
X167906000Y-91315440D01*
X169406000Y-91315440D01*
X169653765Y-91266157D01*
X169762169Y-91193724D01*
X169937542Y-91369097D01*
X170241499Y-91495000D01*
X170822250Y-91495000D01*
X171029000Y-91288250D01*
X171029000Y-90170000D01*
X171009000Y-90170000D01*
X171009000Y-89916000D01*
X171029000Y-89916000D01*
X171029000Y-88797750D01*
X170822250Y-88591000D01*
X170241499Y-88591000D01*
X169937542Y-88716903D01*
X169762169Y-88892276D01*
X169691000Y-88844723D01*
X169691000Y-88734565D01*
X169630948Y-88432663D01*
X169541000Y-88298046D01*
X169541000Y-82383161D01*
X169558337Y-82296000D01*
X169541000Y-82208839D01*
X169541000Y-82208835D01*
X169489652Y-81950690D01*
X169474649Y-81928236D01*
X169343424Y-81731845D01*
X169343423Y-81731844D01*
X169294049Y-81657951D01*
X169256000Y-81632527D01*
X169256000Y-81415343D01*
X169067982Y-80961429D01*
X168720571Y-80614018D01*
X168266657Y-80426000D01*
X167775343Y-80426000D01*
X167321429Y-80614018D01*
X166974018Y-80961429D01*
X166912636Y-81109618D01*
X166815991Y-81069587D01*
X168309201Y-79576378D01*
X168709846Y-79410424D01*
X169326000Y-80026579D01*
X169326000Y-80026579D01*
G37*
X169326000Y-80026579D02*
X169326000Y-80255657D01*
X169514018Y-80709571D01*
X169861429Y-81056982D01*
X170315343Y-81245000D01*
X170806657Y-81245000D01*
X171260571Y-81056982D01*
X171483053Y-80834500D01*
X172664723Y-80834500D01*
X172764686Y-80984104D01*
X172441227Y-81307563D01*
X172354807Y-81365307D01*
X172198051Y-81599910D01*
X172126052Y-81707664D01*
X172045724Y-82111500D01*
X172066000Y-82213434D01*
X172066000Y-88591000D01*
X171489750Y-88591000D01*
X171283000Y-88797750D01*
X171283000Y-89916000D01*
X171303000Y-89916000D01*
X171303000Y-90170000D01*
X171283000Y-90170000D01*
X171283000Y-91288250D01*
X171489750Y-91495000D01*
X172066001Y-91495000D01*
X172066001Y-92909000D01*
X171509750Y-92909000D01*
X171303000Y-93115750D01*
X171303000Y-94234000D01*
X171323000Y-94234000D01*
X171323000Y-94488000D01*
X171303000Y-94488000D01*
X171303000Y-94508000D01*
X171049000Y-94508000D01*
X171049000Y-94488000D01*
X171029000Y-94488000D01*
X171029000Y-94234000D01*
X171049000Y-94234000D01*
X171049000Y-93115750D01*
X170842250Y-92909000D01*
X170261499Y-92909000D01*
X169957542Y-93034903D01*
X169782169Y-93210276D01*
X169673765Y-93137843D01*
X169426000Y-93088560D01*
X167926000Y-93088560D01*
X167678235Y-93137843D01*
X167636000Y-93166064D01*
X167636000Y-91251300D01*
X167658235Y-91266157D01*
X167906000Y-91315440D01*
X169406000Y-91315440D01*
X169653765Y-91266157D01*
X169762169Y-91193724D01*
X169937542Y-91369097D01*
X170241499Y-91495000D01*
X170822250Y-91495000D01*
X171029000Y-91288250D01*
X171029000Y-90170000D01*
X171009000Y-90170000D01*
X171009000Y-89916000D01*
X171029000Y-89916000D01*
X171029000Y-88797750D01*
X170822250Y-88591000D01*
X170241499Y-88591000D01*
X169937542Y-88716903D01*
X169762169Y-88892276D01*
X169691000Y-88844723D01*
X169691000Y-88734565D01*
X169630948Y-88432663D01*
X169541000Y-88298046D01*
X169541000Y-82383161D01*
X169558337Y-82296000D01*
X169541000Y-82208839D01*
X169541000Y-82208835D01*
X169489652Y-81950690D01*
X169474649Y-81928236D01*
X169343424Y-81731845D01*
X169343423Y-81731844D01*
X169294049Y-81657951D01*
X169256000Y-81632527D01*
X169256000Y-81415343D01*
X169067982Y-80961429D01*
X168720571Y-80614018D01*
X168266657Y-80426000D01*
X167775343Y-80426000D01*
X167321429Y-80614018D01*
X166974018Y-80961429D01*
X166912636Y-81109618D01*
X166815991Y-81069587D01*
X168309201Y-79576378D01*
X168709846Y-79410424D01*
X169326000Y-80026579D01*
G36*
X154692701Y-62557411D02*
X154682041Y-62611000D01*
X154798350Y-63195725D01*
X155124651Y-63684068D01*
X155098635Y-63689243D01*
X154888591Y-63829591D01*
X154748243Y-64039635D01*
X154698960Y-64287400D01*
X154698960Y-66014600D01*
X154748243Y-66262365D01*
X154850595Y-66415544D01*
X154773724Y-66802000D01*
X154854052Y-67205836D01*
X154944001Y-67340453D01*
X154944000Y-67914547D01*
X154854053Y-68049163D01*
X154800430Y-68318745D01*
X154721191Y-68371691D01*
X154580843Y-68581735D01*
X154531560Y-68829500D01*
X154531560Y-70329500D01*
X154580843Y-70577265D01*
X154721191Y-70787309D01*
X154755082Y-70809954D01*
X154710542Y-70828403D01*
X154477903Y-71061042D01*
X154352000Y-71364999D01*
X154352000Y-71945750D01*
X154558750Y-72152500D01*
X155702000Y-72152500D01*
X155702000Y-72132500D01*
X155956000Y-72132500D01*
X155956000Y-72152500D01*
X157099250Y-72152500D01*
X157306000Y-71945750D01*
X157306000Y-71364999D01*
X157180097Y-71061042D01*
X156947458Y-70828403D01*
X156902918Y-70809954D01*
X156936809Y-70787309D01*
X157077157Y-70577265D01*
X157126440Y-70329500D01*
X157126440Y-68829500D01*
X157077157Y-68581735D01*
X156936809Y-68371691D01*
X156857571Y-68318746D01*
X156803948Y-68049163D01*
X156714000Y-67914546D01*
X156714000Y-67380710D01*
X156869773Y-67224937D01*
X156956193Y-67167193D01*
X157184948Y-66824837D01*
X157223251Y-66632273D01*
X157321365Y-66612757D01*
X157531409Y-66472409D01*
X157671757Y-66262365D01*
X157676932Y-66236349D01*
X158165275Y-66562650D01*
X158602402Y-66649600D01*
X158897598Y-66649600D01*
X159334725Y-66562650D01*
X159830430Y-66231430D01*
X160020000Y-65947719D01*
X160209570Y-66231430D01*
X160705275Y-66562650D01*
X161142402Y-66649600D01*
X161437598Y-66649600D01*
X161874725Y-66562650D01*
X162370430Y-66231430D01*
X162560000Y-65947719D01*
X162749570Y-66231430D01*
X162795001Y-66261786D01*
X162795001Y-66649935D01*
X162851306Y-66933000D01*
X160110661Y-66933000D01*
X160023500Y-66915663D01*
X159936339Y-66933000D01*
X159936335Y-66933000D01*
X159678190Y-66984348D01*
X159385451Y-67179951D01*
X159336076Y-67253846D01*
X159330456Y-67259466D01*
X159171664Y-67291052D01*
X158829308Y-67519807D01*
X158600553Y-67862163D01*
X158540501Y-68164065D01*
X158540501Y-68259541D01*
X158467691Y-68308191D01*
X158327343Y-68518235D01*
X158278060Y-68766000D01*
X158278060Y-70266000D01*
X158327343Y-70513765D01*
X158467691Y-70723809D01*
X158501582Y-70746454D01*
X158457042Y-70764903D01*
X158224403Y-70997542D01*
X158098500Y-71301499D01*
X158098500Y-71882250D01*
X158305250Y-72089000D01*
X159448500Y-72089000D01*
X159448500Y-72069000D01*
X159702500Y-72069000D01*
X159702500Y-72089000D01*
X160845750Y-72089000D01*
X161052500Y-71882250D01*
X161052500Y-71301499D01*
X160926597Y-70997542D01*
X160693958Y-70764903D01*
X160649418Y-70746454D01*
X160683309Y-70723809D01*
X160823657Y-70513765D01*
X160872940Y-70266000D01*
X160872940Y-68766000D01*
X160860409Y-68703000D01*
X161719591Y-68703000D01*
X161707060Y-68766000D01*
X161707060Y-70266000D01*
X161756343Y-70513765D01*
X161896691Y-70723809D01*
X161930582Y-70746454D01*
X161886042Y-70764903D01*
X161653403Y-70997542D01*
X161527500Y-71301499D01*
X161527500Y-71882250D01*
X161734250Y-72089000D01*
X162877500Y-72089000D01*
X162877500Y-72069000D01*
X163131500Y-72069000D01*
X163131500Y-72089000D01*
X164274750Y-72089000D01*
X164481500Y-71882250D01*
X164481500Y-71301499D01*
X164355597Y-70997542D01*
X164122958Y-70764903D01*
X164078418Y-70746454D01*
X164112309Y-70723809D01*
X164252657Y-70513765D01*
X164301940Y-70266000D01*
X164301940Y-69802750D01*
X164813000Y-69802750D01*
X164813000Y-70258500D01*
X164938903Y-70562458D01*
X165171542Y-70795097D01*
X165475499Y-70921000D01*
X166056250Y-70921000D01*
X166263000Y-70714250D01*
X166263000Y-69596000D01*
X165019750Y-69596000D01*
X164813000Y-69802750D01*
X164301940Y-69802750D01*
X164301940Y-69582271D01*
X164517434Y-69366777D01*
X164688447Y-69110837D01*
X164720033Y-68952046D01*
X164813000Y-68859079D01*
X164813000Y-69135250D01*
X165019750Y-69342000D01*
X166263000Y-69342000D01*
X166263000Y-69322000D01*
X166517000Y-69322000D01*
X166517000Y-69342000D01*
X166537000Y-69342000D01*
X166537000Y-69596000D01*
X166517000Y-69596000D01*
X166517000Y-70714250D01*
X166723750Y-70921000D01*
X167304501Y-70921000D01*
X167608458Y-70795097D01*
X167783831Y-70619724D01*
X167855000Y-70667277D01*
X167855001Y-74066061D01*
X167855000Y-74066066D01*
X167855000Y-74681066D01*
X167834724Y-74783000D01*
X167915052Y-75186836D01*
X167963731Y-75259690D01*
X166226422Y-76997000D01*
X166132578Y-76997000D01*
X165787425Y-76651847D01*
X165738049Y-76577951D01*
X165461167Y-76392943D01*
X165545571Y-76357982D01*
X165892982Y-76010571D01*
X166081000Y-75556657D01*
X166081000Y-75065343D01*
X165892982Y-74611429D01*
X165545571Y-74264018D01*
X165091657Y-74076000D01*
X164600343Y-74076000D01*
X164146429Y-74264018D01*
X163799018Y-74611429D01*
X163770615Y-74680000D01*
X156195579Y-74680000D01*
X155372079Y-73856500D01*
X155495250Y-73856500D01*
X155702000Y-73649750D01*
X155702000Y-72406500D01*
X155956000Y-72406500D01*
X155956000Y-73649750D01*
X156162750Y-73856500D01*
X156643500Y-73856500D01*
X156947458Y-73730597D01*
X157180097Y-73497958D01*
X157306000Y-73194001D01*
X157306000Y-72613250D01*
X157242500Y-72549750D01*
X158098500Y-72549750D01*
X158098500Y-73130501D01*
X158224403Y-73434458D01*
X158457042Y-73667097D01*
X158761000Y-73793000D01*
X159241750Y-73793000D01*
X159448500Y-73586250D01*
X159448500Y-72343000D01*
X159702500Y-72343000D01*
X159702500Y-73586250D01*
X159909250Y-73793000D01*
X160390000Y-73793000D01*
X160693958Y-73667097D01*
X160926597Y-73434458D01*
X161052500Y-73130501D01*
X161052500Y-72549750D01*
X161527500Y-72549750D01*
X161527500Y-73130501D01*
X161653403Y-73434458D01*
X161886042Y-73667097D01*
X162190000Y-73793000D01*
X162670750Y-73793000D01*
X162877500Y-73586250D01*
X162877500Y-72343000D01*
X163131500Y-72343000D01*
X163131500Y-73586250D01*
X163338250Y-73793000D01*
X163819000Y-73793000D01*
X164122958Y-73667097D01*
X164355597Y-73434458D01*
X164481500Y-73130501D01*
X164481500Y-72549750D01*
X164274750Y-72343000D01*
X163131500Y-72343000D01*
X162877500Y-72343000D01*
X161734250Y-72343000D01*
X161527500Y-72549750D01*
X161052500Y-72549750D01*
X160845750Y-72343000D01*
X159702500Y-72343000D01*
X159448500Y-72343000D01*
X158305250Y-72343000D01*
X158098500Y-72549750D01*
X157242500Y-72549750D01*
X157099250Y-72406500D01*
X155956000Y-72406500D01*
X155702000Y-72406500D01*
X154558750Y-72406500D01*
X154352000Y-72613250D01*
X154352000Y-72836422D01*
X152350825Y-70835247D01*
X152301449Y-70761351D01*
X152008710Y-70565748D01*
X151750565Y-70514400D01*
X151750561Y-70514400D01*
X151663400Y-70497063D01*
X151576239Y-70514400D01*
X149464561Y-70514400D01*
X149377400Y-70497063D01*
X149290239Y-70514400D01*
X149290235Y-70514400D01*
X149063119Y-70559576D01*
X149032090Y-70565748D01*
X148813245Y-70711976D01*
X148813244Y-70711977D01*
X148739351Y-70761351D01*
X148689977Y-70835244D01*
X145841448Y-73683774D01*
X145841445Y-73683776D01*
X145206444Y-74318777D01*
X145132552Y-74368151D01*
X145083178Y-74442044D01*
X145083176Y-74442046D01*
X144936948Y-74660891D01*
X144868263Y-75006200D01*
X144885601Y-75093365D01*
X144885600Y-83656621D01*
X144108622Y-84433600D01*
X128890579Y-84433600D01*
X128865419Y-84408440D01*
X130012200Y-84408440D01*
X130259965Y-84359157D01*
X130470009Y-84218809D01*
X130585477Y-84046000D01*
X130614135Y-84046000D01*
X130916037Y-83985948D01*
X131090409Y-83869437D01*
X131215010Y-83844652D01*
X131507749Y-83649049D01*
X131557125Y-83575153D01*
X132517156Y-82615123D01*
X132591049Y-82565749D01*
X132698609Y-82404776D01*
X132786652Y-82273010D01*
X132789317Y-82259610D01*
X132838000Y-82014865D01*
X132838000Y-82014861D01*
X132855337Y-81927700D01*
X132838000Y-81840539D01*
X132838000Y-77818859D01*
X133876500Y-77818859D01*
X133876500Y-78645141D01*
X134192704Y-79408526D01*
X134776974Y-79992796D01*
X135540359Y-80309000D01*
X136366641Y-80309000D01*
X137130026Y-79992796D01*
X137714296Y-79408526D01*
X138030500Y-78645141D01*
X138030500Y-77818859D01*
X137714296Y-77055474D01*
X137130026Y-76471204D01*
X136366641Y-76155000D01*
X135540359Y-76155000D01*
X134776974Y-76471204D01*
X134192704Y-77055474D01*
X133876500Y-77818859D01*
X132838000Y-77818859D01*
X132838000Y-74598078D01*
X134422156Y-73013923D01*
X134496049Y-72964549D01*
X134553665Y-72878322D01*
X134658449Y-72721502D01*
X134721980Y-72874881D01*
X135278119Y-73431020D01*
X136004750Y-73732000D01*
X136791250Y-73732000D01*
X137517881Y-73431020D01*
X138053000Y-72895901D01*
X138053001Y-75477835D01*
X138035663Y-75565000D01*
X138104348Y-75910309D01*
X138250576Y-76129154D01*
X138250578Y-76129156D01*
X138299952Y-76203049D01*
X138373845Y-76252423D01*
X139399200Y-77277779D01*
X139399201Y-80664835D01*
X139381863Y-80752000D01*
X139450548Y-81097309D01*
X139596776Y-81316154D01*
X139596778Y-81316156D01*
X139646152Y-81390049D01*
X139720045Y-81439423D01*
X140611167Y-82330545D01*
X140642752Y-82489336D01*
X140813766Y-82745276D01*
X141145760Y-83077270D01*
X141145760Y-83761000D01*
X141195043Y-84008765D01*
X141335391Y-84218809D01*
X141545435Y-84359157D01*
X141793200Y-84408440D01*
X143093200Y-84408440D01*
X143340965Y-84359157D01*
X143551009Y-84218809D01*
X143691357Y-84008765D01*
X143740640Y-83761000D01*
X143740640Y-82261000D01*
X143691357Y-82013235D01*
X143551009Y-81803191D01*
X143340965Y-81662843D01*
X143331700Y-81661000D01*
X143340965Y-81659157D01*
X143551009Y-81518809D01*
X143691357Y-81308765D01*
X143740640Y-81061000D01*
X143740640Y-79561000D01*
X143691357Y-79313235D01*
X143551009Y-79103191D01*
X143478200Y-79054541D01*
X143478200Y-75430510D01*
X143551934Y-75356776D01*
X147598776Y-71309935D01*
X147685193Y-71252193D01*
X147913948Y-70909837D01*
X147974000Y-70607935D01*
X147974000Y-70607934D01*
X147994276Y-70506001D01*
X147974000Y-70404066D01*
X147974000Y-63855934D01*
X147994276Y-63754000D01*
X147974000Y-63652065D01*
X147974000Y-62277710D01*
X148256711Y-61995000D01*
X154130290Y-61995000D01*
X154692701Y-62557411D01*
X154692701Y-62557411D01*
G37*
X154692701Y-62557411D02*
X154682041Y-62611000D01*
X154798350Y-63195725D01*
X155124651Y-63684068D01*
X155098635Y-63689243D01*
X154888591Y-63829591D01*
X154748243Y-64039635D01*
X154698960Y-64287400D01*
X154698960Y-66014600D01*
X154748243Y-66262365D01*
X154850595Y-66415544D01*
X154773724Y-66802000D01*
X154854052Y-67205836D01*
X154944001Y-67340453D01*
X154944000Y-67914547D01*
X154854053Y-68049163D01*
X154800430Y-68318745D01*
X154721191Y-68371691D01*
X154580843Y-68581735D01*
X154531560Y-68829500D01*
X154531560Y-70329500D01*
X154580843Y-70577265D01*
X154721191Y-70787309D01*
X154755082Y-70809954D01*
X154710542Y-70828403D01*
X154477903Y-71061042D01*
X154352000Y-71364999D01*
X154352000Y-71945750D01*
X154558750Y-72152500D01*
X155702000Y-72152500D01*
X155702000Y-72132500D01*
X155956000Y-72132500D01*
X155956000Y-72152500D01*
X157099250Y-72152500D01*
X157306000Y-71945750D01*
X157306000Y-71364999D01*
X157180097Y-71061042D01*
X156947458Y-70828403D01*
X156902918Y-70809954D01*
X156936809Y-70787309D01*
X157077157Y-70577265D01*
X157126440Y-70329500D01*
X157126440Y-68829500D01*
X157077157Y-68581735D01*
X156936809Y-68371691D01*
X156857571Y-68318746D01*
X156803948Y-68049163D01*
X156714000Y-67914546D01*
X156714000Y-67380710D01*
X156869773Y-67224937D01*
X156956193Y-67167193D01*
X157184948Y-66824837D01*
X157223251Y-66632273D01*
X157321365Y-66612757D01*
X157531409Y-66472409D01*
X157671757Y-66262365D01*
X157676932Y-66236349D01*
X158165275Y-66562650D01*
X158602402Y-66649600D01*
X158897598Y-66649600D01*
X159334725Y-66562650D01*
X159830430Y-66231430D01*
X160020000Y-65947719D01*
X160209570Y-66231430D01*
X160705275Y-66562650D01*
X161142402Y-66649600D01*
X161437598Y-66649600D01*
X161874725Y-66562650D01*
X162370430Y-66231430D01*
X162560000Y-65947719D01*
X162749570Y-66231430D01*
X162795001Y-66261786D01*
X162795001Y-66649935D01*
X162851306Y-66933000D01*
X160110661Y-66933000D01*
X160023500Y-66915663D01*
X159936339Y-66933000D01*
X159936335Y-66933000D01*
X159678190Y-66984348D01*
X159385451Y-67179951D01*
X159336076Y-67253846D01*
X159330456Y-67259466D01*
X159171664Y-67291052D01*
X158829308Y-67519807D01*
X158600553Y-67862163D01*
X158540501Y-68164065D01*
X158540501Y-68259541D01*
X158467691Y-68308191D01*
X158327343Y-68518235D01*
X158278060Y-68766000D01*
X158278060Y-70266000D01*
X158327343Y-70513765D01*
X158467691Y-70723809D01*
X158501582Y-70746454D01*
X158457042Y-70764903D01*
X158224403Y-70997542D01*
X158098500Y-71301499D01*
X158098500Y-71882250D01*
X158305250Y-72089000D01*
X159448500Y-72089000D01*
X159448500Y-72069000D01*
X159702500Y-72069000D01*
X159702500Y-72089000D01*
X160845750Y-72089000D01*
X161052500Y-71882250D01*
X161052500Y-71301499D01*
X160926597Y-70997542D01*
X160693958Y-70764903D01*
X160649418Y-70746454D01*
X160683309Y-70723809D01*
X160823657Y-70513765D01*
X160872940Y-70266000D01*
X160872940Y-68766000D01*
X160860409Y-68703000D01*
X161719591Y-68703000D01*
X161707060Y-68766000D01*
X161707060Y-70266000D01*
X161756343Y-70513765D01*
X161896691Y-70723809D01*
X161930582Y-70746454D01*
X161886042Y-70764903D01*
X161653403Y-70997542D01*
X161527500Y-71301499D01*
X161527500Y-71882250D01*
X161734250Y-72089000D01*
X162877500Y-72089000D01*
X162877500Y-72069000D01*
X163131500Y-72069000D01*
X163131500Y-72089000D01*
X164274750Y-72089000D01*
X164481500Y-71882250D01*
X164481500Y-71301499D01*
X164355597Y-70997542D01*
X164122958Y-70764903D01*
X164078418Y-70746454D01*
X164112309Y-70723809D01*
X164252657Y-70513765D01*
X164301940Y-70266000D01*
X164301940Y-69802750D01*
X164813000Y-69802750D01*
X164813000Y-70258500D01*
X164938903Y-70562458D01*
X165171542Y-70795097D01*
X165475499Y-70921000D01*
X166056250Y-70921000D01*
X166263000Y-70714250D01*
X166263000Y-69596000D01*
X165019750Y-69596000D01*
X164813000Y-69802750D01*
X164301940Y-69802750D01*
X164301940Y-69582271D01*
X164517434Y-69366777D01*
X164688447Y-69110837D01*
X164720033Y-68952046D01*
X164813000Y-68859079D01*
X164813000Y-69135250D01*
X165019750Y-69342000D01*
X166263000Y-69342000D01*
X166263000Y-69322000D01*
X166517000Y-69322000D01*
X166517000Y-69342000D01*
X166537000Y-69342000D01*
X166537000Y-69596000D01*
X166517000Y-69596000D01*
X166517000Y-70714250D01*
X166723750Y-70921000D01*
X167304501Y-70921000D01*
X167608458Y-70795097D01*
X167783831Y-70619724D01*
X167855000Y-70667277D01*
X167855001Y-74066061D01*
X167855000Y-74066066D01*
X167855000Y-74681066D01*
X167834724Y-74783000D01*
X167915052Y-75186836D01*
X167963731Y-75259690D01*
X166226422Y-76997000D01*
X166132578Y-76997000D01*
X165787425Y-76651847D01*
X165738049Y-76577951D01*
X165461167Y-76392943D01*
X165545571Y-76357982D01*
X165892982Y-76010571D01*
X166081000Y-75556657D01*
X166081000Y-75065343D01*
X165892982Y-74611429D01*
X165545571Y-74264018D01*
X165091657Y-74076000D01*
X164600343Y-74076000D01*
X164146429Y-74264018D01*
X163799018Y-74611429D01*
X163770615Y-74680000D01*
X156195579Y-74680000D01*
X155372079Y-73856500D01*
X155495250Y-73856500D01*
X155702000Y-73649750D01*
X155702000Y-72406500D01*
X155956000Y-72406500D01*
X155956000Y-73649750D01*
X156162750Y-73856500D01*
X156643500Y-73856500D01*
X156947458Y-73730597D01*
X157180097Y-73497958D01*
X157306000Y-73194001D01*
X157306000Y-72613250D01*
X157242500Y-72549750D01*
X158098500Y-72549750D01*
X158098500Y-73130501D01*
X158224403Y-73434458D01*
X158457042Y-73667097D01*
X158761000Y-73793000D01*
X159241750Y-73793000D01*
X159448500Y-73586250D01*
X159448500Y-72343000D01*
X159702500Y-72343000D01*
X159702500Y-73586250D01*
X159909250Y-73793000D01*
X160390000Y-73793000D01*
X160693958Y-73667097D01*
X160926597Y-73434458D01*
X161052500Y-73130501D01*
X161052500Y-72549750D01*
X161527500Y-72549750D01*
X161527500Y-73130501D01*
X161653403Y-73434458D01*
X161886042Y-73667097D01*
X162190000Y-73793000D01*
X162670750Y-73793000D01*
X162877500Y-73586250D01*
X162877500Y-72343000D01*
X163131500Y-72343000D01*
X163131500Y-73586250D01*
X163338250Y-73793000D01*
X163819000Y-73793000D01*
X164122958Y-73667097D01*
X164355597Y-73434458D01*
X164481500Y-73130501D01*
X164481500Y-72549750D01*
X164274750Y-72343000D01*
X163131500Y-72343000D01*
X162877500Y-72343000D01*
X161734250Y-72343000D01*
X161527500Y-72549750D01*
X161052500Y-72549750D01*
X160845750Y-72343000D01*
X159702500Y-72343000D01*
X159448500Y-72343000D01*
X158305250Y-72343000D01*
X158098500Y-72549750D01*
X157242500Y-72549750D01*
X157099250Y-72406500D01*
X155956000Y-72406500D01*
X155702000Y-72406500D01*
X154558750Y-72406500D01*
X154352000Y-72613250D01*
X154352000Y-72836422D01*
X152350825Y-70835247D01*
X152301449Y-70761351D01*
X152008710Y-70565748D01*
X151750565Y-70514400D01*
X151750561Y-70514400D01*
X151663400Y-70497063D01*
X151576239Y-70514400D01*
X149464561Y-70514400D01*
X149377400Y-70497063D01*
X149290239Y-70514400D01*
X149290235Y-70514400D01*
X149063119Y-70559576D01*
X149032090Y-70565748D01*
X148813245Y-70711976D01*
X148813244Y-70711977D01*
X148739351Y-70761351D01*
X148689977Y-70835244D01*
X145841448Y-73683774D01*
X145841445Y-73683776D01*
X145206444Y-74318777D01*
X145132552Y-74368151D01*
X145083178Y-74442044D01*
X145083176Y-74442046D01*
X144936948Y-74660891D01*
X144868263Y-75006200D01*
X144885601Y-75093365D01*
X144885600Y-83656621D01*
X144108622Y-84433600D01*
X128890579Y-84433600D01*
X128865419Y-84408440D01*
X130012200Y-84408440D01*
X130259965Y-84359157D01*
X130470009Y-84218809D01*
X130585477Y-84046000D01*
X130614135Y-84046000D01*
X130916037Y-83985948D01*
X131090409Y-83869437D01*
X131215010Y-83844652D01*
X131507749Y-83649049D01*
X131557125Y-83575153D01*
X132517156Y-82615123D01*
X132591049Y-82565749D01*
X132698609Y-82404776D01*
X132786652Y-82273010D01*
X132789317Y-82259610D01*
X132838000Y-82014865D01*
X132838000Y-82014861D01*
X132855337Y-81927700D01*
X132838000Y-81840539D01*
X132838000Y-77818859D01*
X133876500Y-77818859D01*
X133876500Y-78645141D01*
X134192704Y-79408526D01*
X134776974Y-79992796D01*
X135540359Y-80309000D01*
X136366641Y-80309000D01*
X137130026Y-79992796D01*
X137714296Y-79408526D01*
X138030500Y-78645141D01*
X138030500Y-77818859D01*
X137714296Y-77055474D01*
X137130026Y-76471204D01*
X136366641Y-76155000D01*
X135540359Y-76155000D01*
X134776974Y-76471204D01*
X134192704Y-77055474D01*
X133876500Y-77818859D01*
X132838000Y-77818859D01*
X132838000Y-74598078D01*
X134422156Y-73013923D01*
X134496049Y-72964549D01*
X134553665Y-72878322D01*
X134658449Y-72721502D01*
X134721980Y-72874881D01*
X135278119Y-73431020D01*
X136004750Y-73732000D01*
X136791250Y-73732000D01*
X137517881Y-73431020D01*
X138053000Y-72895901D01*
X138053001Y-75477835D01*
X138035663Y-75565000D01*
X138104348Y-75910309D01*
X138250576Y-76129154D01*
X138250578Y-76129156D01*
X138299952Y-76203049D01*
X138373845Y-76252423D01*
X139399200Y-77277779D01*
X139399201Y-80664835D01*
X139381863Y-80752000D01*
X139450548Y-81097309D01*
X139596776Y-81316154D01*
X139596778Y-81316156D01*
X139646152Y-81390049D01*
X139720045Y-81439423D01*
X140611167Y-82330545D01*
X140642752Y-82489336D01*
X140813766Y-82745276D01*
X141145760Y-83077270D01*
X141145760Y-83761000D01*
X141195043Y-84008765D01*
X141335391Y-84218809D01*
X141545435Y-84359157D01*
X141793200Y-84408440D01*
X143093200Y-84408440D01*
X143340965Y-84359157D01*
X143551009Y-84218809D01*
X143691357Y-84008765D01*
X143740640Y-83761000D01*
X143740640Y-82261000D01*
X143691357Y-82013235D01*
X143551009Y-81803191D01*
X143340965Y-81662843D01*
X143331700Y-81661000D01*
X143340965Y-81659157D01*
X143551009Y-81518809D01*
X143691357Y-81308765D01*
X143740640Y-81061000D01*
X143740640Y-79561000D01*
X143691357Y-79313235D01*
X143551009Y-79103191D01*
X143478200Y-79054541D01*
X143478200Y-75430510D01*
X143551934Y-75356776D01*
X147598776Y-71309935D01*
X147685193Y-71252193D01*
X147913948Y-70909837D01*
X147974000Y-70607935D01*
X147974000Y-70607934D01*
X147994276Y-70506001D01*
X147974000Y-70404066D01*
X147974000Y-63855934D01*
X147994276Y-63754000D01*
X147974000Y-63652065D01*
X147974000Y-62277710D01*
X148256711Y-61995000D01*
X154130290Y-61995000D01*
X154692701Y-62557411D01*
G36*
X173324018Y-69406571D02*
X173671429Y-69753982D01*
X174125343Y-69942000D01*
X174616657Y-69942000D01*
X175070571Y-69753982D01*
X175082680Y-69741873D01*
X175702808Y-70362000D01*
X175232553Y-70362000D01*
X175070571Y-70200018D01*
X174616657Y-70012000D01*
X174125343Y-70012000D01*
X173671429Y-70200018D01*
X173324018Y-70547429D01*
X173136000Y-71001343D01*
X173136000Y-71492657D01*
X173324018Y-71946571D01*
X173671429Y-72293982D01*
X174125343Y-72482000D01*
X174616657Y-72482000D01*
X174685400Y-72453526D01*
X174685400Y-72615186D01*
X174533849Y-72841999D01*
X174485401Y-73085563D01*
X174485401Y-73085566D01*
X174469044Y-73167799D01*
X174485401Y-73250032D01*
X174485401Y-73714368D01*
X174469044Y-73796601D01*
X174485401Y-73878834D01*
X174485401Y-73878838D01*
X174499717Y-73950808D01*
X174533849Y-74122401D01*
X174628475Y-74264018D01*
X174654401Y-74302819D01*
X174654401Y-75723287D01*
X174652500Y-75722500D01*
X174196750Y-75722500D01*
X173990000Y-75929250D01*
X173990000Y-77172500D01*
X174010000Y-77172500D01*
X174010000Y-77426500D01*
X173990000Y-77426500D01*
X173990000Y-77446500D01*
X173736000Y-77446500D01*
X173736000Y-77426500D01*
X172617750Y-77426500D01*
X172411000Y-77633250D01*
X172411000Y-78214001D01*
X172536903Y-78517958D01*
X172712276Y-78693331D01*
X172664723Y-78764500D01*
X170873434Y-78764500D01*
X170771500Y-78744224D01*
X170669566Y-78764500D01*
X170669565Y-78764500D01*
X170616778Y-78775000D01*
X170577579Y-78775000D01*
X169956001Y-78153423D01*
X169956001Y-76245301D01*
X169990571Y-76230982D01*
X170243500Y-75978053D01*
X170496429Y-76230982D01*
X170950343Y-76419000D01*
X171441657Y-76419000D01*
X171523742Y-76384999D01*
X172411000Y-76384999D01*
X172411000Y-76965750D01*
X172617750Y-77172500D01*
X173736000Y-77172500D01*
X173736000Y-75929250D01*
X173529250Y-75722500D01*
X173073500Y-75722500D01*
X172769542Y-75848403D01*
X172536903Y-76081042D01*
X172411000Y-76384999D01*
X171523742Y-76384999D01*
X171895571Y-76230982D01*
X172242982Y-75883571D01*
X172431000Y-75429657D01*
X172431000Y-74938343D01*
X172242982Y-74484429D01*
X172081000Y-74322447D01*
X172081000Y-70546576D01*
X173293846Y-69333730D01*
X173324018Y-69406571D01*
X173324018Y-69406571D01*
G37*
X173324018Y-69406571D02*
X173671429Y-69753982D01*
X174125343Y-69942000D01*
X174616657Y-69942000D01*
X175070571Y-69753982D01*
X175082680Y-69741873D01*
X175702808Y-70362000D01*
X175232553Y-70362000D01*
X175070571Y-70200018D01*
X174616657Y-70012000D01*
X174125343Y-70012000D01*
X173671429Y-70200018D01*
X173324018Y-70547429D01*
X173136000Y-71001343D01*
X173136000Y-71492657D01*
X173324018Y-71946571D01*
X173671429Y-72293982D01*
X174125343Y-72482000D01*
X174616657Y-72482000D01*
X174685400Y-72453526D01*
X174685400Y-72615186D01*
X174533849Y-72841999D01*
X174485401Y-73085563D01*
X174485401Y-73085566D01*
X174469044Y-73167799D01*
X174485401Y-73250032D01*
X174485401Y-73714368D01*
X174469044Y-73796601D01*
X174485401Y-73878834D01*
X174485401Y-73878838D01*
X174499717Y-73950808D01*
X174533849Y-74122401D01*
X174628475Y-74264018D01*
X174654401Y-74302819D01*
X174654401Y-75723287D01*
X174652500Y-75722500D01*
X174196750Y-75722500D01*
X173990000Y-75929250D01*
X173990000Y-77172500D01*
X174010000Y-77172500D01*
X174010000Y-77426500D01*
X173990000Y-77426500D01*
X173990000Y-77446500D01*
X173736000Y-77446500D01*
X173736000Y-77426500D01*
X172617750Y-77426500D01*
X172411000Y-77633250D01*
X172411000Y-78214001D01*
X172536903Y-78517958D01*
X172712276Y-78693331D01*
X172664723Y-78764500D01*
X170873434Y-78764500D01*
X170771500Y-78744224D01*
X170669566Y-78764500D01*
X170669565Y-78764500D01*
X170616778Y-78775000D01*
X170577579Y-78775000D01*
X169956001Y-78153423D01*
X169956001Y-76245301D01*
X169990571Y-76230982D01*
X170243500Y-75978053D01*
X170496429Y-76230982D01*
X170950343Y-76419000D01*
X171441657Y-76419000D01*
X171523742Y-76384999D01*
X172411000Y-76384999D01*
X172411000Y-76965750D01*
X172617750Y-77172500D01*
X173736000Y-77172500D01*
X173736000Y-75929250D01*
X173529250Y-75722500D01*
X173073500Y-75722500D01*
X172769542Y-75848403D01*
X172536903Y-76081042D01*
X172411000Y-76384999D01*
X171523742Y-76384999D01*
X171895571Y-76230982D01*
X172242982Y-75883571D01*
X172431000Y-75429657D01*
X172431000Y-74938343D01*
X172242982Y-74484429D01*
X172081000Y-74322447D01*
X172081000Y-70546576D01*
X173293846Y-69333730D01*
X173324018Y-69406571D01*
G36*
X121384559Y-63062205D02*
X121067568Y-63868173D01*
X121083137Y-64734097D01*
X121384559Y-65461795D01*
X121741698Y-65592697D01*
X123072395Y-64262000D01*
X123058253Y-64247858D01*
X123237858Y-64068253D01*
X123252000Y-64082395D01*
X123266143Y-64068253D01*
X123445748Y-64247858D01*
X123431605Y-64262000D01*
X123445748Y-64276143D01*
X123266143Y-64455748D01*
X123252000Y-64441605D01*
X121921303Y-65772302D01*
X122052205Y-66129441D01*
X122858173Y-66446432D01*
X123576912Y-66433509D01*
X120023855Y-69986567D01*
X119949962Y-70035941D01*
X119900588Y-70109834D01*
X119900586Y-70109836D01*
X119754358Y-70328681D01*
X119685673Y-70673990D01*
X119703011Y-70761155D01*
X119703010Y-76694469D01*
X118579378Y-75570837D01*
X118530002Y-75496941D01*
X118237263Y-75301338D01*
X117979118Y-75249990D01*
X117979114Y-75249990D01*
X117891953Y-75232653D01*
X117804792Y-75249990D01*
X106017140Y-75249990D01*
X106181748Y-75003636D01*
X106241800Y-74701734D01*
X106262076Y-74599801D01*
X106252377Y-74551040D01*
X107306800Y-74551040D01*
X107554565Y-74501757D01*
X107764609Y-74361409D01*
X107904957Y-74151365D01*
X107954240Y-73903600D01*
X107954240Y-73081213D01*
X108010773Y-72996605D01*
X108285553Y-72721825D01*
X108359449Y-72672449D01*
X108459972Y-72522006D01*
X108590353Y-72391625D01*
X108664249Y-72342249D01*
X108764772Y-72191806D01*
X110710107Y-70246472D01*
X110827461Y-70168058D01*
X110876837Y-70094162D01*
X114454983Y-66516017D01*
X114383823Y-66708921D01*
X114408627Y-67339781D01*
X114602326Y-67807411D01*
X114844245Y-67855399D01*
X114636607Y-68063037D01*
X114395000Y-68646326D01*
X114395000Y-69277674D01*
X114636607Y-69860963D01*
X115083037Y-70307393D01*
X115666326Y-70549000D01*
X116297674Y-70549000D01*
X116880963Y-70307393D01*
X117252000Y-69936356D01*
X117623037Y-70307393D01*
X118206326Y-70549000D01*
X118837674Y-70549000D01*
X119420963Y-70307393D01*
X119867393Y-69860963D01*
X120109000Y-69277674D01*
X120109000Y-68646326D01*
X119867393Y-68063037D01*
X119766356Y-67962000D01*
X119867393Y-67860963D01*
X120109000Y-67277674D01*
X120109000Y-66646326D01*
X119867393Y-66063037D01*
X119420963Y-65616607D01*
X118837674Y-65375000D01*
X118206326Y-65375000D01*
X117623037Y-65616607D01*
X117176607Y-66063037D01*
X117170161Y-66078600D01*
X117065722Y-66057883D01*
X116161605Y-66962000D01*
X116175748Y-66976143D01*
X115996143Y-67155748D01*
X115982000Y-67141605D01*
X115967858Y-67155748D01*
X115788253Y-66976143D01*
X115802395Y-66962000D01*
X115788253Y-66947858D01*
X115967858Y-66768253D01*
X115982000Y-66782395D01*
X116886117Y-65878278D01*
X116827411Y-65582326D01*
X116235079Y-65363823D01*
X115604219Y-65388627D01*
X115566925Y-65404075D01*
X117921990Y-63049010D01*
X121420559Y-63049010D01*
X121384559Y-63062205D01*
X121384559Y-63062205D01*
G37*
X121384559Y-63062205D02*
X121067568Y-63868173D01*
X121083137Y-64734097D01*
X121384559Y-65461795D01*
X121741698Y-65592697D01*
X123072395Y-64262000D01*
X123058253Y-64247858D01*
X123237858Y-64068253D01*
X123252000Y-64082395D01*
X123266143Y-64068253D01*
X123445748Y-64247858D01*
X123431605Y-64262000D01*
X123445748Y-64276143D01*
X123266143Y-64455748D01*
X123252000Y-64441605D01*
X121921303Y-65772302D01*
X122052205Y-66129441D01*
X122858173Y-66446432D01*
X123576912Y-66433509D01*
X120023855Y-69986567D01*
X119949962Y-70035941D01*
X119900588Y-70109834D01*
X119900586Y-70109836D01*
X119754358Y-70328681D01*
X119685673Y-70673990D01*
X119703011Y-70761155D01*
X119703010Y-76694469D01*
X118579378Y-75570837D01*
X118530002Y-75496941D01*
X118237263Y-75301338D01*
X117979118Y-75249990D01*
X117979114Y-75249990D01*
X117891953Y-75232653D01*
X117804792Y-75249990D01*
X106017140Y-75249990D01*
X106181748Y-75003636D01*
X106241800Y-74701734D01*
X106262076Y-74599801D01*
X106252377Y-74551040D01*
X107306800Y-74551040D01*
X107554565Y-74501757D01*
X107764609Y-74361409D01*
X107904957Y-74151365D01*
X107954240Y-73903600D01*
X107954240Y-73081213D01*
X108010773Y-72996605D01*
X108285553Y-72721825D01*
X108359449Y-72672449D01*
X108459972Y-72522006D01*
X108590353Y-72391625D01*
X108664249Y-72342249D01*
X108764772Y-72191806D01*
X110710107Y-70246472D01*
X110827461Y-70168058D01*
X110876837Y-70094162D01*
X114454983Y-66516017D01*
X114383823Y-66708921D01*
X114408627Y-67339781D01*
X114602326Y-67807411D01*
X114844245Y-67855399D01*
X114636607Y-68063037D01*
X114395000Y-68646326D01*
X114395000Y-69277674D01*
X114636607Y-69860963D01*
X115083037Y-70307393D01*
X115666326Y-70549000D01*
X116297674Y-70549000D01*
X116880963Y-70307393D01*
X117252000Y-69936356D01*
X117623037Y-70307393D01*
X118206326Y-70549000D01*
X118837674Y-70549000D01*
X119420963Y-70307393D01*
X119867393Y-69860963D01*
X120109000Y-69277674D01*
X120109000Y-68646326D01*
X119867393Y-68063037D01*
X119766356Y-67962000D01*
X119867393Y-67860963D01*
X120109000Y-67277674D01*
X120109000Y-66646326D01*
X119867393Y-66063037D01*
X119420963Y-65616607D01*
X118837674Y-65375000D01*
X118206326Y-65375000D01*
X117623037Y-65616607D01*
X117176607Y-66063037D01*
X117170161Y-66078600D01*
X117065722Y-66057883D01*
X116161605Y-66962000D01*
X116175748Y-66976143D01*
X115996143Y-67155748D01*
X115982000Y-67141605D01*
X115967858Y-67155748D01*
X115788253Y-66976143D01*
X115802395Y-66962000D01*
X115788253Y-66947858D01*
X115967858Y-66768253D01*
X115982000Y-66782395D01*
X116886117Y-65878278D01*
X116827411Y-65582326D01*
X116235079Y-65363823D01*
X115604219Y-65388627D01*
X115566925Y-65404075D01*
X117921990Y-63049010D01*
X121420559Y-63049010D01*
X121384559Y-63062205D01*
G36*
X167855001Y-67942061D02*
X167855000Y-67942066D01*
X167855000Y-68270723D01*
X167783831Y-68318276D01*
X167608458Y-68142903D01*
X167304501Y-68017000D01*
X166724079Y-68017000D01*
X166934156Y-67806923D01*
X167008049Y-67757549D01*
X167059392Y-67680710D01*
X167203652Y-67464810D01*
X167221516Y-67375000D01*
X167255000Y-67206665D01*
X167255000Y-67206661D01*
X167272337Y-67119500D01*
X167255000Y-67032339D01*
X167255000Y-67022954D01*
X167344948Y-66888337D01*
X167405000Y-66586435D01*
X167405000Y-66261785D01*
X167450430Y-66231430D01*
X167781650Y-65735725D01*
X167855000Y-65366968D01*
X167855001Y-67942061D01*
X167855001Y-67942061D01*
G37*
X167855001Y-67942061D02*
X167855000Y-67942066D01*
X167855000Y-68270723D01*
X167783831Y-68318276D01*
X167608458Y-68142903D01*
X167304501Y-68017000D01*
X166724079Y-68017000D01*
X166934156Y-67806923D01*
X167008049Y-67757549D01*
X167059392Y-67680710D01*
X167203652Y-67464810D01*
X167221516Y-67375000D01*
X167255000Y-67206665D01*
X167255000Y-67206661D01*
X167272337Y-67119500D01*
X167255000Y-67032339D01*
X167255000Y-67022954D01*
X167344948Y-66888337D01*
X167405000Y-66586435D01*
X167405000Y-66261785D01*
X167450430Y-66231430D01*
X167781650Y-65735725D01*
X167855000Y-65366968D01*
X167855001Y-67942061D01*
G36*
X135318282Y-64972830D02*
X135211816Y-65309211D01*
X136398000Y-66495395D01*
X137584184Y-65309211D01*
X137477718Y-64972830D01*
X137002245Y-64789000D01*
X140865056Y-64789000D01*
X140358119Y-64998980D01*
X139801980Y-65555119D01*
X139501000Y-66281750D01*
X139501000Y-67068250D01*
X139621031Y-67358031D01*
X139331250Y-67238000D01*
X138544750Y-67238000D01*
X138253267Y-67358736D01*
X138383791Y-67021137D01*
X138365092Y-66234860D01*
X138100170Y-65595282D01*
X137763789Y-65488816D01*
X136577605Y-66675000D01*
X136591748Y-66689143D01*
X136412143Y-66868748D01*
X136398000Y-66854605D01*
X136383858Y-66868748D01*
X136204253Y-66689143D01*
X136218395Y-66675000D01*
X135032211Y-65488816D01*
X134743000Y-65580352D01*
X134743000Y-65034961D01*
X134760337Y-64947800D01*
X134743000Y-64860639D01*
X134743000Y-64860635D01*
X134728751Y-64789000D01*
X135762087Y-64789000D01*
X135318282Y-64972830D01*
X135318282Y-64972830D01*
G37*
X135318282Y-64972830D02*
X135211816Y-65309211D01*
X136398000Y-66495395D01*
X137584184Y-65309211D01*
X137477718Y-64972830D01*
X137002245Y-64789000D01*
X140865056Y-64789000D01*
X140358119Y-64998980D01*
X139801980Y-65555119D01*
X139501000Y-66281750D01*
X139501000Y-67068250D01*
X139621031Y-67358031D01*
X139331250Y-67238000D01*
X138544750Y-67238000D01*
X138253267Y-67358736D01*
X138383791Y-67021137D01*
X138365092Y-66234860D01*
X138100170Y-65595282D01*
X137763789Y-65488816D01*
X136577605Y-66675000D01*
X136591748Y-66689143D01*
X136412143Y-66868748D01*
X136398000Y-66854605D01*
X136383858Y-66868748D01*
X136204253Y-66689143D01*
X136218395Y-66675000D01*
X135032211Y-65488816D01*
X134743000Y-65580352D01*
X134743000Y-65034961D01*
X134760337Y-64947800D01*
X134743000Y-64860639D01*
X134743000Y-64860635D01*
X134728751Y-64789000D01*
X135762087Y-64789000D01*
X135318282Y-64972830D01*
G36*
X167637419Y-64168709D02*
X167723836Y-64226451D01*
X167855000Y-64357615D01*
X167855000Y-64935032D01*
X167781650Y-64566275D01*
X167450430Y-64070570D01*
X167325346Y-63986991D01*
X167442901Y-63877593D01*
X167637419Y-64168709D01*
X167637419Y-64168709D01*
G37*
X167637419Y-64168709D02*
X167723836Y-64226451D01*
X167855000Y-64357615D01*
X167855000Y-64935032D01*
X167781650Y-64566275D01*
X167450430Y-64070570D01*
X167325346Y-63986991D01*
X167442901Y-63877593D01*
X167637419Y-64168709D01*
G36*
X158877000Y-62484000D02*
X161163000Y-62484000D01*
X161163000Y-62464000D01*
X161417000Y-62464000D01*
X161417000Y-62484000D01*
X163703000Y-62484000D01*
X163703000Y-62464000D01*
X163957000Y-62464000D01*
X163957000Y-62484000D01*
X166243000Y-62484000D01*
X166243000Y-62464000D01*
X166497000Y-62464000D01*
X166497000Y-62484000D01*
X166517000Y-62484000D01*
X166517000Y-62738000D01*
X166497000Y-62738000D01*
X166497000Y-62758000D01*
X166243000Y-62758000D01*
X166243000Y-62738000D01*
X163957000Y-62738000D01*
X163957000Y-62758000D01*
X163703000Y-62758000D01*
X163703000Y-62738000D01*
X161417000Y-62738000D01*
X161417000Y-62758000D01*
X161163000Y-62758000D01*
X161163000Y-62738000D01*
X158877000Y-62738000D01*
X158877000Y-62758000D01*
X158623000Y-62758000D01*
X158623000Y-62738000D01*
X158603000Y-62738000D01*
X158603000Y-62484000D01*
X158623000Y-62484000D01*
X158623000Y-62464000D01*
X158877000Y-62464000D01*
X158877000Y-62484000D01*
X158877000Y-62484000D01*
G37*
X158877000Y-62484000D02*
X161163000Y-62484000D01*
X161163000Y-62464000D01*
X161417000Y-62464000D01*
X161417000Y-62484000D01*
X163703000Y-62484000D01*
X163703000Y-62464000D01*
X163957000Y-62464000D01*
X163957000Y-62484000D01*
X166243000Y-62484000D01*
X166243000Y-62464000D01*
X166497000Y-62464000D01*
X166497000Y-62484000D01*
X166517000Y-62484000D01*
X166517000Y-62738000D01*
X166497000Y-62738000D01*
X166497000Y-62758000D01*
X166243000Y-62758000D01*
X166243000Y-62738000D01*
X163957000Y-62738000D01*
X163957000Y-62758000D01*
X163703000Y-62758000D01*
X163703000Y-62738000D01*
X161417000Y-62738000D01*
X161417000Y-62758000D01*
X161163000Y-62758000D01*
X161163000Y-62738000D01*
X158877000Y-62738000D01*
X158877000Y-62758000D01*
X158623000Y-62758000D01*
X158623000Y-62738000D01*
X158603000Y-62738000D01*
X158603000Y-62484000D01*
X158623000Y-62484000D01*
X158623000Y-62464000D01*
X158877000Y-62464000D01*
X158877000Y-62484000D01*
G04 #@! TD*
M02*
