M48
;DRILL file {KiCad 5.0.0-fee4fd1~66~ubuntu18.04.1} date Thu Oct 11 22:40:27 2018
;FORMAT={-:-/ absolute / inch / decimal}
FMAT,2
INCH,TZ
T1C0.0157
T2C0.0315
T3C0.0319
T4C0.0320
T5C0.0350
T6C0.0354
T7C0.0354
T8C0.0394
T9C0.0400
T10C0.0432
T11C0.0512
T12C0.0550
T13C0.0866
T14C0.0906
T15C0.1220
T16C0.1260
%
G90
G05
M72
T1
X3.143Y-4.322
X3.993Y-3.99
X6.49Y-2.965
X6.495Y-3.155
X6.54Y-3.08
X6.545Y-3.235
X6.56Y-3.43
X6.567Y-3.181
X6.585Y-2.955
X6.615Y-3.215
X6.665Y-2.96
X6.715Y-3.04
X6.715Y-3.15
X6.74Y-2.96
X6.865Y-2.705
X6.865Y-2.805
X6.926Y-2.857
T2
X5.6221Y-3.504
X5.815Y-3.504
T3
X4.5662Y-2.6363
X4.5662Y-2.715
X4.6662Y-2.6363
X4.6662Y-2.715
T4
X6.94Y-2.3
X6.94Y-2.5
X7.24Y-2.3
X7.24Y-2.5
T5
X3.72Y-4.12
X3.82Y-4.12
X3.92Y-4.12
X4.22Y-3.62
X4.22Y-3.72
X4.22Y-3.82
T6
X3.695Y-3.22
X3.695Y-3.42
X3.945Y-3.22
X3.945Y-3.42
T7
X3.81Y-2.3
X3.91Y-2.3
X4.11Y-2.3
X4.21Y-2.3
T8
X3.775Y-2.595
X3.875Y-2.595
X4.81Y-3.62
X4.81Y-3.72
X4.81Y-3.82
X4.81Y-3.92
X3.3Y-2.63
X3.3Y-2.73
X3.3Y-2.83
X3.3Y-2.93
X4.81Y-3.18
X4.81Y-3.28
X4.81Y-3.38
T9
X6.15Y-2.465
X6.15Y-2.565
X6.25Y-2.465
X6.25Y-2.565
X6.35Y-2.465
X6.35Y-2.565
X6.45Y-2.465
X6.45Y-2.565
X6.55Y-2.465
X6.55Y-2.565
X5.965Y-4.1687
X5.965Y-4.2687
X6.065Y-4.1687
X6.065Y-4.2687
X6.165Y-4.1687
X6.165Y-4.2687
X6.265Y-4.1687
X6.265Y-4.2687
X6.365Y-4.1687
X6.365Y-4.2687
X6.465Y-4.1687
X6.465Y-4.2687
X6.565Y-4.1687
X6.565Y-4.2687
X6.665Y-4.1687
X6.665Y-4.2687
X6.765Y-4.1687
X6.765Y-4.2687
X6.865Y-4.1687
X6.865Y-4.2687
X3.21Y-3.44
X3.21Y-3.54
X3.21Y-3.64
X3.21Y-3.74
X3.21Y-3.84
X3.21Y-3.94
X3.21Y-4.04
X3.31Y-3.44
X3.31Y-3.54
X3.31Y-3.64
X3.31Y-3.74
X3.31Y-3.84
X3.31Y-3.94
X3.31Y-4.04
X7.465Y-2.835
X7.465Y-2.935
X7.465Y-3.035
X7.465Y-3.135
X7.465Y-3.235
X7.465Y-3.335
X7.465Y-3.435
X7.565Y-2.835
X7.565Y-2.935
X7.565Y-3.035
X7.565Y-3.135
X7.565Y-3.235
X7.565Y-3.335
X7.565Y-3.435
T10
X4.465Y-3.19
X4.465Y-3.29
X4.465Y-3.39
X4.465Y-3.49
X4.465Y-3.59
X4.465Y-3.69
X4.465Y-3.79
X4.465Y-3.89
X4.465Y-3.99
X4.465Y-4.09
X4.465Y-4.19
X4.465Y-4.29
T11
X5.07Y-2.725
X5.17Y-2.625
X5.27Y-2.225
X5.27Y-2.725
X5.37Y-2.625
X5.37Y-2.825
X5.47Y-2.225
X5.47Y-2.725
X5.57Y-2.625
X5.67Y-2.725
T12
X3.52Y-3.4575
X3.52Y-3.9825
X4.12Y-3.4575
X4.12Y-3.9825
T13
X7.0475Y-3.2006
X3.445Y-3.22
X5.3525Y-3.1981
X5.3525Y-3.8706
X4.195Y-3.22
X7.045Y-3.8706
X4.195Y-4.22
X3.445Y-4.22
T14
X4.38Y-2.53
X4.8524Y-2.53
T15
X7.605Y-4.235
T16
X3.215Y-2.285
X4.865Y-4.243
X7.605Y-2.285
T0
M30
