G04 #@! TF.GenerationSoftware,KiCad,Pcbnew,5.0.0-fee4fd1~66~ubuntu18.04.1*
G04 #@! TF.CreationDate,2018-10-11T22:40:23+02:00*
G04 #@! TF.ProjectId,midi-v2-circuit,6D6964692D76322D636972637569742E,rev?*
G04 #@! TF.SameCoordinates,Original*
G04 #@! TF.FileFunction,Copper,L2,Bot,Signal*
G04 #@! TF.FilePolarity,Positive*
%FSLAX46Y46*%
G04 Gerber Fmt 4.6, Leading zero omitted, Abs format (unit mm)*
G04 Created by KiCad (PCBNEW 5.0.0-fee4fd1~66~ubuntu18.04.1) date Thu Oct 11 22:40:23 2018*
%MOMM*%
%LPD*%
G01*
G04 APERTURE LIST*
G04 #@! TA.AperFunction,ComponentPad*
%ADD10C,2.500000*%
G04 #@! TD*
G04 #@! TA.AperFunction,ComponentPad*
%ADD11C,1.778000*%
G04 #@! TD*
G04 #@! TA.AperFunction,ComponentPad*
%ADD12C,2.286000*%
G04 #@! TD*
G04 #@! TA.AperFunction,ComponentPad*
%ADD13C,4.000000*%
G04 #@! TD*
G04 #@! TA.AperFunction,ComponentPad*
%ADD14C,2.400000*%
G04 #@! TD*
G04 #@! TA.AperFunction,ComponentPad*
%ADD15C,1.397000*%
G04 #@! TD*
G04 #@! TA.AperFunction,SMDPad,CuDef*
%ADD16R,1.250000X1.500000*%
G04 #@! TD*
G04 #@! TA.AperFunction,SMDPad,CuDef*
%ADD17R,1.500000X1.250000*%
G04 #@! TD*
G04 #@! TA.AperFunction,ComponentPad*
%ADD18R,1.727200X1.727200*%
G04 #@! TD*
G04 #@! TA.AperFunction,ComponentPad*
%ADD19O,1.727200X1.727200*%
G04 #@! TD*
G04 #@! TA.AperFunction,ComponentPad*
%ADD20O,1.998980X1.998980*%
G04 #@! TD*
G04 #@! TA.AperFunction,ComponentPad*
%ADD21R,1.998980X1.998980*%
G04 #@! TD*
G04 #@! TA.AperFunction,ComponentPad*
%ADD22R,1.700000X1.700000*%
G04 #@! TD*
G04 #@! TA.AperFunction,ComponentPad*
%ADD23O,1.700000X1.700000*%
G04 #@! TD*
G04 #@! TA.AperFunction,ComponentPad*
%ADD24C,1.500000*%
G04 #@! TD*
G04 #@! TA.AperFunction,SMDPad,CuDef*
%ADD25R,1.300000X1.500000*%
G04 #@! TD*
G04 #@! TA.AperFunction,SMDPad,CuDef*
%ADD26R,1.500000X1.300000*%
G04 #@! TD*
G04 #@! TA.AperFunction,ComponentPad*
%ADD27R,1.800000X1.800000*%
G04 #@! TD*
G04 #@! TA.AperFunction,ComponentPad*
%ADD28C,1.800000*%
G04 #@! TD*
G04 #@! TA.AperFunction,ComponentPad*
%ADD29C,1.520000*%
G04 #@! TD*
G04 #@! TA.AperFunction,ComponentPad*
%ADD30C,2.700000*%
G04 #@! TD*
G04 #@! TA.AperFunction,ComponentPad*
%ADD31C,2.300000*%
G04 #@! TD*
G04 #@! TA.AperFunction,ViaPad*
%ADD32C,2.000000*%
G04 #@! TD*
G04 #@! TA.AperFunction,ViaPad*
%ADD33C,1.200000*%
G04 #@! TD*
G04 #@! TA.AperFunction,Conductor*
%ADD34C,0.300000*%
G04 #@! TD*
G04 #@! TA.AperFunction,Conductor*
%ADD35C,0.500000*%
G04 #@! TD*
G04 #@! TA.AperFunction,Conductor*
%ADD36C,0.800000*%
G04 #@! TD*
G04 #@! TA.AperFunction,Conductor*
%ADD37C,0.400000*%
G04 #@! TD*
G04 #@! TA.AperFunction,Conductor*
%ADD38C,0.200000*%
G04 #@! TD*
G04 #@! TA.AperFunction,Conductor*
%ADD39C,0.254000*%
G04 #@! TD*
G04 APERTURE END LIST*
D10*
G04 #@! TO.P,REF\002A\002A,1*
G04 #@! TO.N,N/C*
X179006500Y-81295500D03*
G04 #@! TD*
G04 #@! TO.P,REF\002A\002A,1*
G04 #@! TO.N,N/C*
X178943000Y-98313500D03*
G04 #@! TD*
D11*
G04 #@! TO.P,RV1,B1A*
G04 #@! TO.N,Net-(RV1-PadB1A)*
X100203000Y-81788000D03*
G04 #@! TO.P,RV1,B1B*
G04 #@! TO.N,Net-(RV1-PadB1B)*
X93853000Y-81788000D03*
G04 #@! TO.P,RV1,B2A*
G04 #@! TO.N,Net-(RV1-PadB2A)*
X100203000Y-86868000D03*
G04 #@! TO.P,RV1,B2B*
G04 #@! TO.N,Net-(RV1-PadB2B)*
X93853000Y-86868000D03*
G04 #@! TO.P,RV1,H1*
G04 #@! TO.N,+5V*
X99568000Y-104648000D03*
G04 #@! TO.P,RV1,H2*
G04 #@! TO.N,joystick-pot-2*
X97028000Y-104648000D03*
G04 #@! TO.P,RV1,H3*
G04 #@! TO.N,GND*
X94488000Y-104648000D03*
D12*
G04 #@! TO.P,RV1,MOUN*
G04 #@! TO.N,N/C*
X104648000Y-87820500D03*
X104648000Y-101155500D03*
X89408000Y-101155500D03*
X89408000Y-87820500D03*
D11*
G04 #@! TO.P,RV1,V1*
G04 #@! TO.N,+5V*
X107188000Y-91948000D03*
G04 #@! TO.P,RV1,V2*
G04 #@! TO.N,joystick-pot-1*
X107188000Y-94488000D03*
G04 #@! TO.P,RV1,V3*
G04 #@! TO.N,GND*
X107188000Y-97028000D03*
G04 #@! TD*
D13*
G04 #@! TO.P,REF\002A\002A,1*
G04 #@! TO.N,N/C*
X193167000Y-107569000D03*
G04 #@! TD*
D14*
G04 #@! TO.P,REF\002A\002A,1*
G04 #@! TO.N,N/C*
X87503000Y-81788000D03*
G04 #@! TD*
G04 #@! TO.P,REF\002A\002A,1*
G04 #@! TO.N,N/C*
X106553000Y-81788000D03*
G04 #@! TD*
G04 #@! TO.P,REF\002A\002A,1*
G04 #@! TO.N,N/C*
X87503000Y-107188000D03*
G04 #@! TD*
D15*
G04 #@! TO.P,SW2,1*
G04 #@! TO.N,GND*
X183896000Y-58420000D03*
G04 #@! TO.P,SW2,2*
G04 #@! TO.N,RST*
X183896000Y-63500000D03*
G04 #@! TO.P,SW2,1*
G04 #@! TO.N,GND*
X176276000Y-58420000D03*
G04 #@! TO.P,SW2,2*
G04 #@! TO.N,RST*
X176276000Y-63500000D03*
G04 #@! TD*
D13*
G04 #@! TO.P,REF\002A\002A,1*
G04 #@! TO.N,N/C*
X123571000Y-107772200D03*
G04 #@! TD*
G04 #@! TO.P,REF\002A\002A,1*
G04 #@! TO.N,N/C*
X81661000Y-58039000D03*
G04 #@! TD*
G04 #@! TO.P,REF\002A\002A,1*
G04 #@! TO.N,N/C*
X193167000Y-58039000D03*
G04 #@! TD*
D16*
G04 #@! TO.P,C6,1*
G04 #@! TO.N,+5V*
X173863000Y-79799500D03*
G04 #@! TO.P,C6,2*
G04 #@! TO.N,GND*
X173863000Y-77299500D03*
G04 #@! TD*
D17*
G04 #@! TO.P,C10,2*
G04 #@! TO.N,button-3*
X108768200Y-104419400D03*
G04 #@! TO.P,C10,1*
G04 #@! TO.N,GND*
X106268200Y-104419400D03*
G04 #@! TD*
G04 #@! TO.P,C9,1*
G04 #@! TO.N,GND*
X98673600Y-107950000D03*
G04 #@! TO.P,C9,2*
G04 #@! TO.N,button-2*
X101173600Y-107950000D03*
G04 #@! TD*
G04 #@! TO.P,C11,2*
G04 #@! TO.N,button-4*
X84206400Y-107848400D03*
G04 #@! TO.P,C11,1*
G04 #@! TO.N,GND*
X81706400Y-107848400D03*
G04 #@! TD*
G04 #@! TO.P,C8,1*
G04 #@! TO.N,GND*
X95972000Y-107975400D03*
G04 #@! TO.P,C8,2*
G04 #@! TO.N,button-1*
X93472000Y-107975400D03*
G04 #@! TD*
D18*
G04 #@! TO.P,CON1,1*
G04 #@! TO.N,joystick-pot-2*
X84074000Y-87376000D03*
D19*
G04 #@! TO.P,CON1,2*
G04 #@! TO.N,joystick-pot-1*
X81534000Y-87376000D03*
G04 #@! TO.P,CON1,3*
G04 #@! TO.N,knob-pot-4*
X84074000Y-89916000D03*
G04 #@! TO.P,CON1,4*
G04 #@! TO.N,knob-pot-3*
X81534000Y-89916000D03*
G04 #@! TO.P,CON1,5*
G04 #@! TO.N,knob-pot-2*
X84074000Y-92456000D03*
G04 #@! TO.P,CON1,6*
G04 #@! TO.N,knob-pot-1*
X81534000Y-92456000D03*
G04 #@! TO.P,CON1,7*
G04 #@! TO.N,slide-pot-2*
X84074000Y-94996000D03*
G04 #@! TO.P,CON1,8*
G04 #@! TO.N,slide-pot-1*
X81534000Y-94996000D03*
G04 #@! TO.P,CON1,9*
G04 #@! TO.N,button-3*
X84074000Y-97536000D03*
G04 #@! TO.P,CON1,10*
G04 #@! TO.N,button-4*
X81534000Y-97536000D03*
G04 #@! TO.P,CON1,11*
G04 #@! TO.N,button-1*
X84074000Y-100076000D03*
G04 #@! TO.P,CON1,12*
G04 #@! TO.N,button-2*
X81534000Y-100076000D03*
G04 #@! TO.P,CON1,13*
G04 #@! TO.N,+5V*
X84074000Y-102616000D03*
G04 #@! TO.P,CON1,14*
G04 #@! TO.N,GND*
X81534000Y-102616000D03*
G04 #@! TD*
D20*
G04 #@! TO.P,J1,4*
G04 #@! TO.N,Net-(J1-Pad4)*
X113411000Y-88646000D03*
D21*
G04 #@! TO.P,J1,1*
G04 #@! TO.N,+5V*
X113411000Y-81026000D03*
D20*
G04 #@! TO.P,J1,2*
G04 #@! TO.N,GND*
X113411000Y-83566000D03*
G04 #@! TO.P,J1,3*
G04 #@! TO.N,Net-(J1-Pad3)*
X113411000Y-86106000D03*
G04 #@! TO.P,J1,5*
G04 #@! TO.N,Net-(J1-Pad5)*
X113411000Y-91186000D03*
G04 #@! TO.P,J1,6*
G04 #@! TO.N,Net-(J1-Pad6)*
X113411000Y-93726000D03*
G04 #@! TO.P,J1,7*
G04 #@! TO.N,Net-(J1-Pad7)*
X113411000Y-96266000D03*
G04 #@! TO.P,J1,8*
G04 #@! TO.N,Net-(J1-Pad8)*
X113411000Y-98806000D03*
G04 #@! TO.P,J1,9*
G04 #@! TO.N,button-3*
X113411000Y-101346000D03*
G04 #@! TO.P,J1,10*
G04 #@! TO.N,button-4*
X113411000Y-103886000D03*
G04 #@! TO.P,J1,11*
G04 #@! TO.N,button-1*
X113411000Y-106426000D03*
G04 #@! TO.P,J1,12*
G04 #@! TO.N,button-2*
X113411000Y-108966000D03*
G04 #@! TD*
D16*
G04 #@! TO.P,C4,1*
G04 #@! TO.N,+5V*
X157734000Y-77236000D03*
G04 #@! TO.P,C4,2*
G04 #@! TO.N,GND*
X157734000Y-79736000D03*
G04 #@! TD*
D22*
G04 #@! TO.P,J7,1*
G04 #@! TO.N,+5V*
X122174000Y-99568000D03*
D23*
G04 #@! TO.P,J7,2*
G04 #@! TO.N,GND*
X122174000Y-97028000D03*
G04 #@! TO.P,J7,3*
G04 #@! TO.N,Net-(J6-Pad3)*
X122174000Y-94488000D03*
G04 #@! TO.P,J7,4*
G04 #@! TO.N,Net-(J6-Pad2)*
X122174000Y-91948000D03*
G04 #@! TD*
D17*
G04 #@! TO.P,C1,1*
G04 #@! TO.N,Net-(C1-Pad1)*
X136660920Y-87201033D03*
G04 #@! TO.P,C1,2*
G04 #@! TO.N,GND*
X134160920Y-87201033D03*
G04 #@! TD*
G04 #@! TO.P,C2,1*
G04 #@! TO.N,Net-(C2-Pad1)*
X136660920Y-90503033D03*
G04 #@! TO.P,C2,2*
G04 #@! TO.N,GND*
X134160920Y-90503033D03*
G04 #@! TD*
D24*
G04 #@! TO.P,Y1,1*
G04 #@! TO.N,Net-(C1-Pad1)*
X147701000Y-89001600D03*
G04 #@! TO.P,Y1,2*
G04 #@! TO.N,Net-(C2-Pad1)*
X142801000Y-89001600D03*
G04 #@! TD*
D25*
G04 #@! TO.P,R5,1*
G04 #@! TO.N,+5V*
X142443200Y-80311000D03*
G04 #@! TO.P,R5,2*
G04 #@! TO.N,midi-raw-signal-power*
X142443200Y-83011000D03*
G04 #@! TD*
G04 #@! TO.P,R4,1*
G04 #@! TO.N,midi-raw-signal-data*
X129362200Y-83011000D03*
G04 #@! TO.P,R4,2*
G04 #@! TO.N,midi-data-pin*
X129362200Y-80311000D03*
G04 #@! TD*
D26*
G04 #@! TO.P,R8,1*
G04 #@! TO.N,+5V*
X106582200Y-65354200D03*
G04 #@! TO.P,R8,2*
G04 #@! TO.N,Net-(D1-Pad2)*
X103882200Y-65354200D03*
G04 #@! TD*
G04 #@! TO.P,R9,1*
G04 #@! TO.N,midi-raw-signal-data*
X106582200Y-69164200D03*
G04 #@! TO.P,R9,2*
G04 #@! TO.N,Net-(D2-Pad2)*
X103882200Y-69164200D03*
G04 #@! TD*
D22*
G04 #@! TO.P,J8,1*
G04 #@! TO.N,midi-raw-signal-power*
X122174000Y-85852000D03*
D23*
G04 #@! TO.P,J8,2*
G04 #@! TO.N,GND*
X122174000Y-83312000D03*
G04 #@! TO.P,J8,3*
G04 #@! TO.N,midi-raw-signal-data*
X122174000Y-80772000D03*
G04 #@! TD*
D22*
G04 #@! TO.P,J9,1*
G04 #@! TO.N,VCC*
X98425000Y-65913000D03*
D23*
G04 #@! TO.P,J9,2*
G04 #@! TO.N,+5V*
X95885000Y-65913000D03*
G04 #@! TD*
D27*
G04 #@! TO.P,D1,1*
G04 #@! TO.N,GND*
X106934000Y-58420000D03*
D28*
G04 #@! TO.P,D1,2*
G04 #@! TO.N,Net-(D1-Pad2)*
X104394000Y-58420000D03*
G04 #@! TD*
D27*
G04 #@! TO.P,D2,1*
G04 #@! TO.N,GND*
X99314000Y-58420000D03*
D28*
G04 #@! TO.P,D2,2*
G04 #@! TO.N,Net-(D2-Pad2)*
X96774000Y-58420000D03*
G04 #@! TD*
D29*
G04 #@! TO.P,J6,2*
G04 #@! TO.N,Net-(J6-Pad2)*
X118522000Y-68962000D03*
G04 #@! TO.P,J6,1*
G04 #@! TO.N,VCC*
X115982000Y-68962000D03*
G04 #@! TO.P,J6,4*
G04 #@! TO.N,GND*
X115982000Y-66962000D03*
G04 #@! TO.P,J6,3*
G04 #@! TO.N,Net-(J6-Pad3)*
X118522000Y-66962000D03*
D30*
G04 #@! TO.P,J6,5*
G04 #@! TO.N,GND*
X123252000Y-64262000D03*
X111252000Y-64262000D03*
G04 #@! TD*
D31*
G04 #@! TO.P,J3,8*
G04 #@! TO.N,Net-(J3-Pad8)*
X136398000Y-71755000D03*
G04 #@! TO.P,J3,3*
G04 #@! TO.N,Net-(J3-Pad3)*
X141478000Y-66675000D03*
G04 #@! TO.P,J3,2*
G04 #@! TO.N,GND*
X136398000Y-66675000D03*
G04 #@! TO.P,J3,5*
G04 #@! TO.N,midi-raw-signal-power*
X138938000Y-69215000D03*
D32*
G04 #@! TD*
G04 #@! TO.N,*
G04 #@! TO.C,J3*
X133858000Y-56515000D03*
D31*
G04 #@! TO.P,J3,7*
G04 #@! TO.N,Net-(J3-Pad7)*
X144018000Y-69215000D03*
G04 #@! TO.P,J3,1*
G04 #@! TO.N,Net-(J3-Pad1)*
X131318000Y-66675000D03*
G04 #@! TO.P,J3,4*
G04 #@! TO.N,midi-raw-signal-data*
X133858000Y-69215000D03*
G04 #@! TO.P,J3,6*
G04 #@! TO.N,Net-(J3-Pad6)*
X128778000Y-69215000D03*
D32*
G04 #@! TD*
G04 #@! TO.N,*
G04 #@! TO.C,J3*
X138938000Y-56515000D03*
D18*
G04 #@! TO.P,CON2,1*
G04 #@! TO.N,MOSI*
X156210000Y-65151000D03*
D19*
G04 #@! TO.P,CON2,2*
G04 #@! TO.N,+5V*
X156210000Y-62611000D03*
G04 #@! TO.P,CON2,3*
G04 #@! TO.N,Net-(CON2-Pad3)*
X158750000Y-65151000D03*
G04 #@! TO.P,CON2,4*
G04 #@! TO.N,GND*
X158750000Y-62611000D03*
G04 #@! TO.P,CON2,5*
G04 #@! TO.N,RST*
X161290000Y-65151000D03*
G04 #@! TO.P,CON2,6*
G04 #@! TO.N,GND*
X161290000Y-62611000D03*
G04 #@! TO.P,CON2,7*
G04 #@! TO.N,SCK*
X163830000Y-65151000D03*
G04 #@! TO.P,CON2,8*
G04 #@! TO.N,GND*
X163830000Y-62611000D03*
G04 #@! TO.P,CON2,9*
G04 #@! TO.N,MISO*
X166370000Y-65151000D03*
G04 #@! TO.P,CON2,10*
G04 #@! TO.N,GND*
X166370000Y-62611000D03*
G04 #@! TD*
D26*
G04 #@! TO.P,R1,1*
G04 #@! TO.N,+5V*
X181639200Y-67767200D03*
G04 #@! TO.P,R1,2*
G04 #@! TO.N,RST*
X178939200Y-67767200D03*
G04 #@! TD*
D17*
G04 #@! TO.P,C5,1*
G04 #@! TO.N,+5V*
X168890000Y-69469000D03*
G04 #@! TO.P,C5,2*
G04 #@! TO.N,GND*
X166390000Y-69469000D03*
G04 #@! TD*
D26*
G04 #@! TO.P,R2,1*
G04 #@! TO.N,+5V*
X91473000Y-66675000D03*
G04 #@! TO.P,R2,2*
G04 #@! TO.N,SDA*
X88773000Y-66675000D03*
G04 #@! TD*
G04 #@! TO.P,R3,2*
G04 #@! TO.N,SCL*
X88773000Y-70866000D03*
G04 #@! TO.P,R3,1*
G04 #@! TO.N,+5V*
X91473000Y-70866000D03*
G04 #@! TD*
D22*
G04 #@! TO.P,J2,1*
G04 #@! TO.N,SDA*
X83820000Y-66802000D03*
D23*
G04 #@! TO.P,J2,2*
G04 #@! TO.N,SCL*
X83820000Y-69342000D03*
G04 #@! TO.P,J2,3*
G04 #@! TO.N,+5V*
X83820000Y-71882000D03*
G04 #@! TO.P,J2,4*
G04 #@! TO.N,GND*
X83820000Y-74422000D03*
G04 #@! TD*
D17*
G04 #@! TO.P,C3,1*
G04 #@! TO.N,Net-(C3-Pad1)*
X168656000Y-90043000D03*
G04 #@! TO.P,C3,2*
G04 #@! TO.N,GND*
X171156000Y-90043000D03*
G04 #@! TD*
G04 #@! TO.P,C7,1*
G04 #@! TO.N,Net-(C7-Pad1)*
X168676000Y-94361000D03*
G04 #@! TO.P,C7,2*
G04 #@! TO.N,GND*
X171176000Y-94361000D03*
G04 #@! TD*
D18*
G04 #@! TO.P,CON3,1*
G04 #@! TO.N,joystick-pot-2*
X192151000Y-87249000D03*
D19*
G04 #@! TO.P,CON3,2*
G04 #@! TO.N,joystick-pot-1*
X189611000Y-87249000D03*
G04 #@! TO.P,CON3,3*
G04 #@! TO.N,knob-pot-4*
X192151000Y-84709000D03*
G04 #@! TO.P,CON3,4*
G04 #@! TO.N,knob-pot-3*
X189611000Y-84709000D03*
G04 #@! TO.P,CON3,5*
G04 #@! TO.N,knob-pot-2*
X192151000Y-82169000D03*
G04 #@! TO.P,CON3,6*
G04 #@! TO.N,knob-pot-1*
X189611000Y-82169000D03*
G04 #@! TO.P,CON3,7*
G04 #@! TO.N,slide-pot-2*
X192151000Y-79629000D03*
G04 #@! TO.P,CON3,8*
G04 #@! TO.N,slide-pot-1*
X189611000Y-79629000D03*
G04 #@! TO.P,CON3,9*
G04 #@! TO.N,button-3*
X192151000Y-77089000D03*
G04 #@! TO.P,CON3,10*
G04 #@! TO.N,button-4*
X189611000Y-77089000D03*
G04 #@! TO.P,CON3,11*
G04 #@! TO.N,button-1*
X192151000Y-74549000D03*
G04 #@! TO.P,CON3,12*
G04 #@! TO.N,button-2*
X189611000Y-74549000D03*
G04 #@! TO.P,CON3,13*
G04 #@! TO.N,+5V*
X192151000Y-72009000D03*
G04 #@! TO.P,CON3,14*
G04 #@! TO.N,GND*
X189611000Y-72009000D03*
G04 #@! TD*
D18*
G04 #@! TO.P,J4,1*
G04 #@! TO.N,note-13*
X174371000Y-105886000D03*
D19*
G04 #@! TO.P,J4,2*
G04 #@! TO.N,note-12*
X174371000Y-108426000D03*
G04 #@! TO.P,J4,3*
G04 #@! TO.N,note-11*
X171831000Y-105886000D03*
G04 #@! TO.P,J4,4*
G04 #@! TO.N,note-10*
X171831000Y-108426000D03*
G04 #@! TO.P,J4,5*
G04 #@! TO.N,note-9*
X169291000Y-105886000D03*
G04 #@! TO.P,J4,6*
G04 #@! TO.N,note-8*
X169291000Y-108426000D03*
G04 #@! TO.P,J4,7*
G04 #@! TO.N,note-7*
X166751000Y-105886000D03*
G04 #@! TO.P,J4,8*
G04 #@! TO.N,note-6*
X166751000Y-108426000D03*
G04 #@! TO.P,J4,9*
G04 #@! TO.N,note-5*
X164211000Y-105886000D03*
G04 #@! TO.P,J4,10*
G04 #@! TO.N,note-4*
X164211000Y-108426000D03*
G04 #@! TO.P,J4,11*
G04 #@! TO.N,note-3*
X161671000Y-105886000D03*
G04 #@! TO.P,J4,12*
G04 #@! TO.N,note-2*
X161671000Y-108426000D03*
G04 #@! TO.P,J4,13*
G04 #@! TO.N,note-1*
X159131000Y-105886000D03*
G04 #@! TO.P,J4,14*
G04 #@! TO.N,SCK*
X159131000Y-108426000D03*
G04 #@! TO.P,J4,15*
G04 #@! TO.N,MISO*
X156591000Y-105886000D03*
G04 #@! TO.P,J4,16*
G04 #@! TO.N,MOSI*
X156591000Y-108426000D03*
G04 #@! TO.P,J4,17*
G04 #@! TO.N,octave-1*
X154051000Y-105886000D03*
G04 #@! TO.P,J4,18*
G04 #@! TO.N,N/C*
X154051000Y-108426000D03*
G04 #@! TO.P,J4,19*
X151511000Y-105886000D03*
G04 #@! TO.P,J4,20*
X151511000Y-108426000D03*
G04 #@! TD*
D10*
G04 #@! TO.P,REF\002A\002A,1*
G04 #@! TO.N,N/C*
X135953500Y-81232000D03*
G04 #@! TD*
G04 #@! TO.P,REF\002A\002A,1*
G04 #@! TO.N,N/C*
X135953500Y-98313500D03*
G04 #@! TD*
D26*
G04 #@! TO.P,R6,1*
G04 #@! TO.N,Net-(J1-Pad8)*
X98378000Y-99822000D03*
G04 #@! TO.P,R6,2*
G04 #@! TO.N,slide-pot-1*
X95678000Y-99822000D03*
G04 #@! TD*
G04 #@! TO.P,R7,1*
G04 #@! TO.N,Net-(J1-Pad7)*
X98378000Y-97536000D03*
G04 #@! TO.P,R7,2*
G04 #@! TO.N,slide-pot-2*
X95678000Y-97536000D03*
G04 #@! TD*
G04 #@! TO.P,R10,1*
G04 #@! TO.N,Net-(J1-Pad6)*
X98378000Y-95250000D03*
G04 #@! TO.P,R10,2*
G04 #@! TO.N,knob-pot-1*
X95678000Y-95250000D03*
G04 #@! TD*
G04 #@! TO.P,R11,1*
G04 #@! TO.N,Net-(J1-Pad5)*
X98378000Y-92964000D03*
G04 #@! TO.P,R11,2*
G04 #@! TO.N,knob-pot-2*
X95678000Y-92964000D03*
G04 #@! TD*
G04 #@! TO.P,R12,1*
G04 #@! TO.N,Net-(J1-Pad4)*
X98378000Y-90678000D03*
G04 #@! TO.P,R12,2*
G04 #@! TO.N,knob-pot-3*
X95678000Y-90678000D03*
G04 #@! TD*
G04 #@! TO.P,R13,1*
G04 #@! TO.N,Net-(J1-Pad3)*
X98378000Y-88392000D03*
G04 #@! TO.P,R13,2*
G04 #@! TO.N,knob-pot-4*
X95678000Y-88392000D03*
G04 #@! TD*
D14*
G04 #@! TO.P,REF\002A\002A,1*
G04 #@! TO.N,N/C*
X106553000Y-107188000D03*
G04 #@! TD*
D25*
G04 #@! TO.P,L1,1*
G04 #@! TO.N,Net-(C7-Pad1)*
X162814000Y-90852000D03*
G04 #@! TO.P,L1,2*
G04 #@! TO.N,+5V*
X162814000Y-93552000D03*
G04 #@! TD*
D26*
G04 #@! TO.P,R14,1*
G04 #@! TO.N,octave-1*
X148924000Y-100101400D03*
G04 #@! TO.P,R14,2*
G04 #@! TO.N,GND*
X146224000Y-100101400D03*
G04 #@! TD*
D25*
G04 #@! TO.P,R15,1*
G04 #@! TO.N,MOSI*
X155829000Y-69579500D03*
G04 #@! TO.P,R15,2*
G04 #@! TO.N,GND*
X155829000Y-72279500D03*
G04 #@! TD*
G04 #@! TO.P,R16,2*
G04 #@! TO.N,GND*
X163004500Y-72216000D03*
G04 #@! TO.P,R16,1*
G04 #@! TO.N,MISO*
X163004500Y-69516000D03*
G04 #@! TD*
G04 #@! TO.P,R17,1*
G04 #@! TO.N,SCK*
X159575500Y-69516000D03*
G04 #@! TO.P,R17,2*
G04 #@! TO.N,GND*
X159575500Y-72216000D03*
G04 #@! TD*
D33*
G04 #@! TO.N,GND*
X164973000Y-80137000D03*
X170561000Y-77216000D03*
X167259000Y-75057000D03*
X101422200Y-101346000D03*
G04 #@! TO.N,Net-(C3-Pad1)*
X168021000Y-81661000D03*
G04 #@! TO.N,+5V*
X166116000Y-78232000D03*
X170561000Y-80010000D03*
X169291000Y-75184000D03*
G04 #@! TO.N,Net-(C7-Pad1)*
X166624000Y-87122000D03*
G04 #@! TO.N,MOSI*
X174371000Y-68707000D03*
G04 #@! TO.N,SCK*
X171196000Y-75184000D03*
G04 #@! TO.N,MISO*
X174371000Y-71247000D03*
G04 #@! TO.N,SDA*
X166243000Y-82169000D03*
G04 #@! TO.N,SCL*
X166801800Y-80797400D03*
G04 #@! TO.N,octave-1*
X175920400Y-72567800D03*
G04 #@! TO.N,midi-data-pin*
X164846000Y-75311000D03*
G04 #@! TO.N,button-1*
X79832200Y-109778800D03*
G04 #@! TD*
D34*
G04 #@! TO.N,*
X154311600Y-108686600D02*
X154051000Y-108426000D01*
X155092400Y-108686600D02*
X154311600Y-108686600D01*
D35*
G04 #@! TO.N,Net-(C1-Pad1)*
X146951001Y-88251601D02*
X147701000Y-89001600D01*
X145700991Y-87001591D02*
X146951001Y-88251601D01*
X138110362Y-87001591D02*
X145700991Y-87001591D01*
X137910920Y-87201033D02*
X138110362Y-87001591D01*
X136660920Y-87201033D02*
X137910920Y-87201033D01*
G04 #@! TO.N,GND*
X106934000Y-59944000D02*
X111252000Y-64262000D01*
X118682000Y-64262000D02*
X123252000Y-64262000D01*
X105537000Y-57023000D02*
X102111000Y-57023000D01*
X102111000Y-57023000D02*
X100714000Y-58420000D01*
X161290000Y-62611000D02*
X158750000Y-62611000D01*
X163830000Y-62611000D02*
X161290000Y-62611000D01*
X166370000Y-62611000D02*
X163830000Y-62611000D01*
X166390000Y-69469000D02*
X166390000Y-68344000D01*
X166390000Y-68344000D02*
X167683601Y-67050399D01*
X167683601Y-67050399D02*
X167683601Y-63924601D01*
X167683601Y-63924601D02*
X167233599Y-63474599D01*
X167233599Y-63474599D02*
X166370000Y-62611000D01*
X171156000Y-90043000D02*
X171156000Y-94341000D01*
X171156000Y-94341000D02*
X171176000Y-94361000D01*
X164973000Y-80137000D02*
X158135000Y-80137000D01*
X158135000Y-80137000D02*
X157734000Y-79736000D01*
X167259000Y-75057000D02*
X166390000Y-74188000D01*
X166390000Y-74188000D02*
X166390000Y-69469000D01*
X159512000Y-72279500D02*
X159575500Y-72216000D01*
X155829000Y-72279500D02*
X159512000Y-72279500D01*
X159575500Y-72216000D02*
X163004500Y-72216000D01*
X163643000Y-72216000D02*
X166390000Y-69469000D01*
X163004500Y-72216000D02*
X163643000Y-72216000D01*
D36*
X122174000Y-97028000D02*
X121158000Y-98044000D01*
X99314000Y-58420000D02*
X100714000Y-58420000D01*
X106934000Y-58420000D02*
X106934000Y-59944000D01*
X106934000Y-58420000D02*
X105981500Y-57467500D01*
D35*
X105981500Y-57467500D02*
X105537000Y-57023000D01*
D36*
X115982000Y-66962000D02*
X116840500Y-66103500D01*
D35*
X116840500Y-66103500D02*
X118682000Y-64262000D01*
X170644500Y-77299500D02*
X170561000Y-77216000D01*
X173863000Y-77299500D02*
X170644500Y-77299500D01*
D37*
X138633500Y-103632000D02*
X122491500Y-103632000D01*
X122491500Y-103632000D02*
X119570500Y-100711000D01*
X119570500Y-100711000D02*
X119570500Y-99631500D01*
X119570500Y-99631500D02*
X121158000Y-98044000D01*
D36*
X134160920Y-87201033D02*
X134160920Y-90503033D01*
D35*
X141443400Y-103632000D02*
X138633500Y-103632000D01*
X144974000Y-100101400D02*
X141443400Y-103632000D01*
X146224000Y-100101400D02*
X144974000Y-100101400D01*
X98648200Y-107975400D02*
X98673600Y-107950000D01*
X95972000Y-107975400D02*
X98648200Y-107975400D01*
X95972000Y-109100400D02*
X95166600Y-109905800D01*
X95972000Y-107975400D02*
X95972000Y-109100400D01*
X81534000Y-105486200D02*
X81534000Y-102616000D01*
X95376999Y-103759001D02*
X94488000Y-104648000D01*
X95927001Y-103208999D02*
X95376999Y-103759001D01*
X101498400Y-101422200D02*
X101422200Y-101346000D01*
X101498400Y-103208999D02*
X101498400Y-101422200D01*
X101498400Y-103208999D02*
X95927001Y-103208999D01*
D37*
X81706400Y-102788400D02*
X81534000Y-102616000D01*
X81706400Y-107848400D02*
X81706400Y-102788400D01*
X82738800Y-109905800D02*
X86410800Y-109905800D01*
X81706400Y-108873400D02*
X82738800Y-109905800D01*
X81706400Y-107848400D02*
X81706400Y-108873400D01*
D35*
X95166600Y-109905800D02*
X86410800Y-109905800D01*
X86410800Y-109905800D02*
X85953600Y-109905800D01*
D37*
X103907799Y-103208999D02*
X101498400Y-103208999D01*
X105118200Y-104419400D02*
X103907799Y-103208999D01*
X106268200Y-104419400D02*
X105118200Y-104419400D01*
D35*
G04 #@! TO.N,Net-(C2-Pad1)*
X141299567Y-90503033D02*
X142801000Y-89001600D01*
X136660920Y-90503033D02*
X141299567Y-90503033D01*
G04 #@! TO.N,Net-(C3-Pad1)*
X168021000Y-81661000D02*
X168656000Y-82296000D01*
D36*
X168656000Y-90043000D02*
X168656000Y-88836500D01*
D35*
X168656000Y-82296000D02*
X168656000Y-88836500D01*
G04 #@! TO.N,+5V*
X166116000Y-78232000D02*
X166243000Y-78232000D01*
X166243000Y-78232000D02*
X169291000Y-75184000D01*
D36*
X168890000Y-74168000D02*
X168890000Y-74783000D01*
X168890000Y-69469000D02*
X168890000Y-74168000D01*
D35*
X168890000Y-74168000D02*
X169071001Y-74349001D01*
X177419000Y-61976000D02*
X175641000Y-61976000D01*
D36*
X168890000Y-74783000D02*
X169291000Y-75184000D01*
X168890000Y-63928905D02*
X168890000Y-68044000D01*
X168383611Y-63422516D02*
X168890000Y-63928905D01*
X168890000Y-68044000D02*
X168890000Y-69469000D01*
X167132000Y-60452000D02*
X168383611Y-61703611D01*
X156210000Y-62611000D02*
X158369000Y-60452000D01*
X158369000Y-60452000D02*
X167132000Y-60452000D01*
X154559000Y-60960000D02*
X156210000Y-62611000D01*
X147828000Y-60960000D02*
X154559000Y-60960000D01*
X146939000Y-61849000D02*
X147828000Y-60960000D01*
D35*
X147193000Y-61595000D02*
X147828000Y-60960000D01*
D36*
X146939000Y-63754000D02*
X146939000Y-61849000D01*
X146939000Y-61849000D02*
X147193000Y-61595000D01*
X117161905Y-61214000D02*
X131504094Y-61214000D01*
X131504094Y-61214000D02*
X134044094Y-63754000D01*
X134044094Y-63754000D02*
X146939000Y-63754000D01*
D35*
X91473000Y-65525000D02*
X90210000Y-64262000D01*
X166116000Y-78232000D02*
X165100000Y-77216000D01*
D36*
X122174000Y-99568000D02*
X123634500Y-99568000D01*
D35*
X130556000Y-99568000D02*
X123634500Y-99568000D01*
D36*
X91473000Y-70866000D02*
X91473000Y-69786500D01*
X91473000Y-66675000D02*
X91473000Y-67881500D01*
D35*
X91473000Y-69786500D02*
X91473000Y-67881500D01*
D36*
X91473000Y-66675000D02*
X91473000Y-65525000D01*
X192151000Y-72009000D02*
X192151000Y-70612000D01*
D35*
X192151000Y-70612000D02*
X192151000Y-68961000D01*
D36*
X158984000Y-77236000D02*
X159004000Y-77216000D01*
X157734000Y-77236000D02*
X158984000Y-77236000D01*
D35*
X165100000Y-77216000D02*
X159004000Y-77216000D01*
D36*
X162814000Y-93552000D02*
X162814000Y-95059500D01*
X170771500Y-79799500D02*
X170561000Y-80010000D01*
X173863000Y-79799500D02*
X170771500Y-79799500D01*
X173863000Y-81349500D02*
X173101000Y-82111500D01*
X173863000Y-79799500D02*
X173863000Y-81349500D01*
X171804402Y-96367600D02*
X162814000Y-96367600D01*
X173101000Y-82111500D02*
X173101000Y-95071002D01*
X173101000Y-95071002D02*
X171804402Y-96367600D01*
X162814000Y-96367600D02*
X162814000Y-93552000D01*
X162814000Y-96367600D02*
X142824200Y-96367600D01*
D35*
X177419000Y-61976000D02*
X183311800Y-61976000D01*
X185166000Y-61976000D02*
X183311800Y-61976000D01*
X183311800Y-61976000D02*
X182626000Y-61976000D01*
D36*
X80594200Y-64262000D02*
X82550000Y-64262000D01*
X79298800Y-65557400D02*
X80594200Y-64262000D01*
X79298800Y-69418200D02*
X79298800Y-65557400D01*
X83820000Y-71882000D02*
X81762600Y-71882000D01*
X81762600Y-71882000D02*
X79298800Y-69418200D01*
X82550000Y-64262000D02*
X90210000Y-64262000D01*
X90510000Y-64262000D02*
X91473000Y-65225000D01*
X91473000Y-65225000D02*
X91473000Y-66675000D01*
X90210000Y-64262000D02*
X90510000Y-64262000D01*
X91473000Y-70866000D02*
X91473000Y-66675000D01*
X146939000Y-70506000D02*
X146939000Y-69723000D01*
X142748000Y-74697000D02*
X146939000Y-70506000D01*
X146939000Y-69723000D02*
X146939000Y-63754000D01*
X142443200Y-75001800D02*
X142443200Y-80311000D01*
X142748000Y-74697000D02*
X142443200Y-75001800D01*
X192151000Y-72009000D02*
X192151000Y-68961000D01*
X168510611Y-61976000D02*
X168383611Y-62103000D01*
X185166000Y-61976000D02*
X168510611Y-61976000D01*
X168383611Y-61703611D02*
X168383611Y-62103000D01*
X168383611Y-62103000D02*
X168383611Y-63422516D01*
X181639200Y-67767200D02*
X190855600Y-67767200D01*
X190855600Y-67767200D02*
X190906400Y-67716400D01*
X192151000Y-68961000D02*
X190906400Y-67716400D01*
X190906400Y-67716400D02*
X185166000Y-61976000D01*
X142824200Y-96367600D02*
X142824200Y-96393000D01*
X142824200Y-96393000D02*
X137769600Y-101447600D01*
X132435600Y-101447600D02*
X130556000Y-99568000D01*
X137769600Y-101447600D02*
X132435600Y-101447600D01*
X130556000Y-99568000D02*
X122174000Y-99568000D01*
D35*
X116535200Y-61840705D02*
X116535200Y-62560200D01*
X112533399Y-66562001D02*
X109040001Y-66562001D01*
X107832200Y-65354200D02*
X106582200Y-65354200D01*
X109040001Y-66562001D02*
X107832200Y-65354200D01*
X116535200Y-62560200D02*
X112533399Y-66562001D01*
D36*
X117161905Y-61214000D02*
X116535200Y-61840705D01*
D35*
X105182201Y-70254201D02*
X104646602Y-70789800D01*
X105182201Y-67904199D02*
X105182201Y-70254201D01*
X106582200Y-65354200D02*
X106582200Y-66504200D01*
X106582200Y-66504200D02*
X105182201Y-67904199D01*
X95885000Y-67115081D02*
X95885000Y-65913000D01*
X99559719Y-70789800D02*
X95885000Y-67115081D01*
X104646602Y-70789800D02*
X99559719Y-70789800D01*
X169961001Y-79410001D02*
X170561000Y-80010000D01*
X169071001Y-74349001D02*
X169071001Y-78520001D01*
X169071001Y-78520001D02*
X169961001Y-79410001D01*
G04 #@! TO.N,Net-(C7-Pad1)*
X162687000Y-88929000D02*
X162687000Y-90725000D01*
X162687000Y-90725000D02*
X162814000Y-90852000D01*
X164817000Y-88929000D02*
X166624000Y-87122000D01*
X162687000Y-88929000D02*
X164817000Y-88929000D01*
X164937000Y-88929000D02*
X166751000Y-90743000D01*
X166751000Y-90743000D02*
X166751000Y-93686000D01*
X166751000Y-93686000D02*
X167426000Y-94361000D01*
D36*
X168676000Y-94361000D02*
X167426000Y-94361000D01*
X162814000Y-90852000D02*
X162814000Y-89302000D01*
D35*
X162687000Y-88929000D02*
X162941000Y-88929000D01*
X162941000Y-88929000D02*
X164937000Y-88929000D01*
D36*
G04 #@! TO.N,knob-pot-4*
X84074000Y-89916000D02*
X85153500Y-89916000D01*
D35*
X85444962Y-89916000D02*
X85153500Y-89916000D01*
X95578000Y-88392000D02*
X95678000Y-88392000D01*
X94054000Y-89916000D02*
X95578000Y-88392000D01*
X85153500Y-89916000D02*
X94054000Y-89916000D01*
D36*
G04 #@! TO.N,slide-pot-1*
X81534000Y-94996000D02*
X82232500Y-95694500D01*
D34*
X82804000Y-96266000D02*
X82232500Y-95694500D01*
D37*
X82804000Y-96266000D02*
X84836000Y-96266000D01*
X81534000Y-94996000D02*
X82804000Y-96266000D01*
D35*
X94428000Y-99822000D02*
X95678000Y-99822000D01*
X90872000Y-96266000D02*
X94428000Y-99822000D01*
X84836000Y-96266000D02*
X90872000Y-96266000D01*
G04 #@! TO.N,knob-pot-3*
X95678000Y-90678000D02*
X95578000Y-90678000D01*
D36*
X81534000Y-89916000D02*
X82359500Y-90741500D01*
D37*
X82804000Y-91186000D02*
X82359500Y-90741500D01*
X84836000Y-91186000D02*
X82804000Y-91186000D01*
D35*
X94428000Y-90678000D02*
X95678000Y-90678000D01*
X93920000Y-91186000D02*
X94428000Y-90678000D01*
X84836000Y-91186000D02*
X93920000Y-91186000D01*
D36*
G04 #@! TO.N,slide-pot-2*
X84074000Y-94996000D02*
X85153500Y-94996000D01*
D35*
X94428000Y-97536000D02*
X95678000Y-97536000D01*
X93687789Y-97536000D02*
X94428000Y-97536000D01*
X91147789Y-94996000D02*
X93687789Y-97536000D01*
X85153500Y-94996000D02*
X91147789Y-94996000D01*
D36*
G04 #@! TO.N,knob-pot-2*
X84455000Y-92456000D02*
X84874990Y-92875990D01*
X84074000Y-92456000D02*
X84455000Y-92456000D01*
D35*
X95678000Y-92964000D02*
X84874990Y-92875990D01*
D36*
G04 #@! TO.N,knob-pot-1*
X81534000Y-92456000D02*
X82359500Y-93281500D01*
D37*
X82804000Y-93726000D02*
X82359500Y-93281500D01*
X84836000Y-93726000D02*
X82804000Y-93726000D01*
D35*
X94428000Y-95250000D02*
X95678000Y-95250000D01*
X92533173Y-95250000D02*
X94428000Y-95250000D01*
X91009173Y-93726000D02*
X92533173Y-95250000D01*
X84836000Y-93726000D02*
X91009173Y-93726000D01*
D36*
G04 #@! TO.N,MOSI*
X156210000Y-66421000D02*
X155829000Y-66802000D01*
X156210000Y-65151000D02*
X156210000Y-66421000D01*
X155829000Y-69579500D02*
X155829000Y-68453000D01*
D35*
X155829000Y-68453000D02*
X155829000Y-66802000D01*
X157861000Y-103060500D02*
X157861000Y-105029000D01*
D37*
X156591000Y-108426000D02*
X157861000Y-107156000D01*
D35*
X157861000Y-103060500D02*
X157861000Y-102997000D01*
X175219528Y-68707000D02*
X174371000Y-68707000D01*
X179082610Y-72490224D02*
X175299386Y-68707000D01*
X177139420Y-75655164D02*
X179082610Y-73711974D01*
X179082610Y-73711974D02*
X179082610Y-72490224D01*
X177139420Y-81688748D02*
X177139420Y-75655164D01*
X157861000Y-103060500D02*
X157861000Y-101600000D01*
X157861000Y-101600000D02*
X160543370Y-98917630D01*
X175666220Y-96112067D02*
X175666220Y-83161948D01*
X160543370Y-98917630D02*
X172860657Y-98917630D01*
X175299386Y-68707000D02*
X175219528Y-68707000D01*
X172860657Y-98917630D02*
X175666220Y-96112067D01*
X175666220Y-83161948D02*
X177139420Y-81688748D01*
D34*
X157861000Y-107156000D02*
X157861000Y-105029000D01*
D36*
G04 #@! TO.N,RST*
X177263828Y-63500000D02*
X177673000Y-63500000D01*
X176276000Y-63500000D02*
X177263828Y-63500000D01*
X183896000Y-63500000D02*
X182626000Y-63500000D01*
D35*
X177673000Y-63500000D02*
X182626000Y-63500000D01*
D36*
X176276000Y-65104000D02*
X178939200Y-67767200D01*
X176276000Y-63500000D02*
X176276000Y-65104000D01*
D35*
G04 #@! TO.N,SCK*
X159575500Y-68266000D02*
X160023500Y-67818000D01*
X160023500Y-67818000D02*
X163258500Y-67818000D01*
X163258500Y-67818000D02*
X163830000Y-67246500D01*
D36*
X163830000Y-65151000D02*
X163830000Y-66548000D01*
D35*
X163830000Y-67246500D02*
X163830000Y-66548000D01*
D36*
X159575500Y-69516000D02*
X159575500Y-68266000D01*
D35*
X160401000Y-103378000D02*
X160401000Y-105156000D01*
D37*
X160401000Y-107156000D02*
X159131000Y-108426000D01*
D35*
X160401000Y-103378000D02*
X160401000Y-103149400D01*
X160401000Y-103378000D02*
X160401000Y-100380800D01*
X173192031Y-99717640D02*
X176466230Y-96443441D01*
X160401000Y-100380800D02*
X161064160Y-99717640D01*
X161064160Y-99717640D02*
X173192031Y-99717640D01*
X176466230Y-87091772D02*
X176466230Y-87376000D01*
X181889400Y-81668602D02*
X176466230Y-87091772D01*
X181889400Y-76047600D02*
X181889400Y-81668602D01*
X179882620Y-74040820D02*
X181889400Y-76047600D01*
X175059170Y-67335400D02*
X179882620Y-72158850D01*
X176466230Y-96443441D02*
X176466230Y-87376000D01*
X171196000Y-70179998D02*
X174040598Y-67335400D01*
X179882620Y-72158850D02*
X179882620Y-74040820D01*
X171196000Y-75184000D02*
X171196000Y-70179998D01*
X174040598Y-67335400D02*
X175059170Y-67335400D01*
D34*
X160401000Y-105156000D02*
X160401000Y-107156000D01*
D35*
G04 #@! TO.N,MISO*
X164539000Y-67881500D02*
X165608000Y-67881500D01*
X165608000Y-67881500D02*
X166370000Y-67119500D01*
D36*
X166370000Y-65151000D02*
X166370000Y-66484500D01*
D35*
X166370000Y-67119500D02*
X166370000Y-66484500D01*
D36*
X163004500Y-69416000D02*
X163713500Y-68707000D01*
X163004500Y-69516000D02*
X163004500Y-69416000D01*
D35*
X163713500Y-68707000D02*
X164539000Y-67881500D01*
X160200380Y-98117620D02*
X156591000Y-101727000D01*
X156591000Y-102664686D02*
X156591000Y-105886000D01*
X172529283Y-98117620D02*
X160200380Y-98117620D01*
X174866210Y-95780693D02*
X172529283Y-98117620D01*
X174866210Y-82830574D02*
X174866210Y-95780693D01*
X176708002Y-71247000D02*
X178282600Y-72821598D01*
X178282600Y-72821598D02*
X178282600Y-73380600D01*
X178282600Y-73380600D02*
X176339410Y-75323790D01*
X174371000Y-71247000D02*
X176708002Y-71247000D01*
X176339410Y-75323790D02*
X176339410Y-81357374D01*
X156591000Y-101727000D02*
X156591000Y-102664686D01*
X176339410Y-81357374D02*
X174866210Y-82830574D01*
D36*
G04 #@! TO.N,SDA*
X84772500Y-66802000D02*
X84899500Y-66675000D01*
X83820000Y-66802000D02*
X84772500Y-66802000D01*
X88773000Y-66675000D02*
X87503000Y-66675000D01*
D35*
X87503000Y-66675000D02*
X84899500Y-66675000D01*
D37*
X84455000Y-70612000D02*
X83185000Y-70612000D01*
D36*
X83820000Y-66802000D02*
X82470000Y-66802000D01*
D37*
X83185000Y-70612000D02*
X82169000Y-69596000D01*
D35*
X82169000Y-67103000D02*
X82470000Y-66802000D01*
X82169000Y-69596000D02*
X82169000Y-67103000D01*
X85902800Y-70612000D02*
X84455000Y-70612000D01*
X166243000Y-82169000D02*
X153009600Y-95402400D01*
X153009600Y-95402400D02*
X132814432Y-95402400D01*
X132814432Y-95402400D02*
X125069600Y-87657568D01*
X125069600Y-87657568D02*
X125069600Y-78765400D01*
X125069600Y-78765400D02*
X121234200Y-74930000D01*
X90220800Y-74930000D02*
X85902800Y-70612000D01*
X121234200Y-74930000D02*
X90220800Y-74930000D01*
D36*
G04 #@! TO.N,SCL*
X85022081Y-69342000D02*
X85344000Y-69342000D01*
X83820000Y-69342000D02*
X85022081Y-69342000D01*
D35*
X87149000Y-69342000D02*
X85344000Y-69342000D01*
D36*
X88773000Y-70866000D02*
X88673000Y-70866000D01*
X88673000Y-70866000D02*
X87911000Y-70104000D01*
D35*
X87911000Y-70104000D02*
X87149000Y-69342000D01*
D36*
X88873000Y-70866000D02*
X89635000Y-71628000D01*
X88773000Y-70866000D02*
X88873000Y-70866000D01*
D35*
X92098800Y-74091800D02*
X89635000Y-71628000D01*
X121527384Y-74091800D02*
X92098800Y-74091800D01*
X162814000Y-83883500D02*
X152107900Y-94589600D01*
X152107900Y-94589600D02*
X133133016Y-94589600D01*
X162814000Y-83850002D02*
X162814000Y-83883500D01*
X133133016Y-94589600D02*
X125869610Y-87326194D01*
X125869610Y-87326194D02*
X125869610Y-78434026D01*
X125869610Y-78434026D02*
X121527384Y-74091800D01*
D37*
X162814000Y-83850002D02*
X165866602Y-80797400D01*
X165866602Y-80797400D02*
X166801800Y-80797400D01*
D35*
G04 #@! TO.N,octave-1*
X154051000Y-103886000D02*
X154051000Y-105886000D01*
X174822393Y-81743007D02*
X175539400Y-81026000D01*
X174813009Y-81743007D02*
X174822393Y-81743007D01*
X154051000Y-103124000D02*
X159857390Y-97317610D01*
X154051000Y-103886000D02*
X154051000Y-103124000D01*
X159857390Y-97317610D02*
X172197909Y-97317610D01*
X175539400Y-81026000D02*
X175539400Y-74015600D01*
X174066200Y-82489816D02*
X174813009Y-81743007D01*
X172197909Y-97317610D02*
X174066200Y-95449319D01*
X174066200Y-95449319D02*
X174066200Y-82489816D01*
D37*
X175320401Y-73796601D02*
X175539400Y-74015600D01*
X175320401Y-73167799D02*
X175320401Y-73796601D01*
X175920400Y-72567800D02*
X175320401Y-73167799D01*
D35*
X151028400Y-100101400D02*
X148924000Y-100101400D01*
X154051000Y-103124000D02*
X151028400Y-100101400D01*
G04 #@! TO.N,midi-data-pin*
X145770600Y-83997800D02*
X154203400Y-75565000D01*
X145770600Y-84023200D02*
X145770600Y-83997800D01*
X129362200Y-80311000D02*
X127689600Y-80311000D01*
X127076200Y-80924400D02*
X127076200Y-83870800D01*
X164592000Y-75565000D02*
X164846000Y-75311000D01*
X127076200Y-83870800D02*
X128524000Y-85318600D01*
X154203400Y-75565000D02*
X164592000Y-75565000D01*
X127689600Y-80311000D02*
X127076200Y-80924400D01*
X128524000Y-85318600D02*
X144475200Y-85318600D01*
X144475200Y-85318600D02*
X145770600Y-84023200D01*
G04 #@! TO.N,button-1*
X93347000Y-107975400D02*
X86537800Y-101166200D01*
X93472000Y-107975400D02*
X93347000Y-107975400D01*
X86537800Y-101166200D02*
X86510400Y-101166200D01*
X85420200Y-100076000D02*
X84074000Y-100076000D01*
X86510400Y-101166200D02*
X85420200Y-100076000D01*
D37*
X80609210Y-110555810D02*
X80432199Y-110378799D01*
X80432199Y-110378799D02*
X79832200Y-109778800D01*
X113892438Y-110555810D02*
X80609210Y-110555810D01*
X114810491Y-109637757D02*
X113892438Y-110555810D01*
X114810491Y-107825491D02*
X114810491Y-109637757D01*
X113411000Y-106426000D02*
X114810491Y-107825491D01*
D35*
G04 #@! TO.N,Net-(D1-Pad2)*
X103856800Y-58957200D02*
X104394000Y-58420000D01*
X103882200Y-58931800D02*
X104394000Y-58420000D01*
X103882200Y-65354200D02*
X103882200Y-58931800D01*
D36*
G04 #@! TO.N,Net-(D2-Pad2)*
X97673999Y-59319999D02*
X97673999Y-59637499D01*
X96774000Y-58420000D02*
X97673999Y-59319999D01*
D35*
X96774000Y-58420000D02*
X101803200Y-63449200D01*
X101803200Y-65935200D02*
X103882200Y-68014200D01*
X103882200Y-68014200D02*
X103882200Y-69164200D01*
X101803200Y-63449200D02*
X101803200Y-65935200D01*
D36*
G04 #@! TO.N,midi-raw-signal-power*
X138938000Y-69215000D02*
X138938000Y-70841345D01*
X142443200Y-83011000D02*
X142443200Y-82911000D01*
X142443200Y-82911000D02*
X141617700Y-82085500D01*
D35*
X140284200Y-76911200D02*
X140284200Y-80752000D01*
X138938000Y-70841345D02*
X138938000Y-75565000D01*
X140284200Y-80752000D02*
X141617700Y-82085500D01*
X138938000Y-75565000D02*
X140284200Y-76911200D01*
D36*
G04 #@! TO.N,midi-raw-signal-data*
X129362200Y-83011000D02*
X130512200Y-83011000D01*
X133858000Y-69215000D02*
X133858000Y-70841345D01*
X133858000Y-69215000D02*
X133858000Y-67691000D01*
D35*
X131953000Y-81927700D02*
X130869700Y-83011000D01*
X130869700Y-83011000D02*
X130512200Y-83011000D01*
X131953000Y-74231500D02*
X131953000Y-81927700D01*
X133858000Y-70841345D02*
X133858000Y-72326500D01*
X133858000Y-72326500D02*
X131953000Y-74231500D01*
X133858000Y-64947800D02*
X133858000Y-69215000D01*
X131074210Y-62164010D02*
X133858000Y-64947800D01*
X117555411Y-62164010D02*
X131074210Y-62164010D01*
X117555411Y-62809989D02*
X117555411Y-62164010D01*
X106582200Y-69164200D02*
X111201200Y-69164200D01*
X111201200Y-69164200D02*
X117555411Y-62809989D01*
X133731000Y-69215000D02*
X133858000Y-69215000D01*
G04 #@! TO.N,button-2*
X102423600Y-107950000D02*
X104125400Y-109651800D01*
X101173600Y-107950000D02*
X102423600Y-107950000D01*
X104125400Y-109651800D02*
X111226600Y-109651800D01*
X111912400Y-108966000D02*
X113411000Y-108966000D01*
X111226600Y-109651800D02*
X111912400Y-108966000D01*
D36*
G04 #@! TO.N,button-3*
X113411000Y-101346000D02*
X112077500Y-101346000D01*
D37*
X96828001Y-100972001D02*
X94342601Y-100972001D01*
X97127999Y-100672003D02*
X96828001Y-100972001D01*
X97127999Y-87341999D02*
X97127999Y-100672003D01*
X114181248Y-100847000D02*
X115310491Y-99717757D01*
X90906600Y-97536000D02*
X84074000Y-97536000D01*
X94342601Y-100972001D02*
X90906600Y-97536000D01*
X115310491Y-99717757D02*
X115310491Y-79306509D01*
X115310491Y-79306509D02*
X115130491Y-79126509D01*
X105343489Y-79126509D02*
X97127999Y-87341999D01*
X115130491Y-79126509D02*
X105343489Y-79126509D01*
X111997508Y-101346000D02*
X113411000Y-101346000D01*
X110816600Y-101346000D02*
X111997508Y-101346000D01*
X108768200Y-103394400D02*
X110816600Y-101346000D01*
X108768200Y-104419400D02*
X108768200Y-103394400D01*
D38*
G04 #@! TO.N,button-4*
X101041200Y-106476800D02*
X95377000Y-106476800D01*
X94398602Y-109143800D02*
X86110852Y-109143800D01*
X94622001Y-107231799D02*
X94622001Y-108920401D01*
X82797601Y-98799601D02*
X82397599Y-98399599D01*
X95377000Y-106476800D02*
X94622001Y-107231799D01*
X82397599Y-98399599D02*
X81534000Y-97536000D01*
X94622001Y-108920401D02*
X94398602Y-109143800D01*
D37*
X84206400Y-108873400D02*
X84476800Y-109143800D01*
X84476800Y-109143800D02*
X86110852Y-109143800D01*
X84206400Y-107848400D02*
X84206400Y-108873400D01*
X82797601Y-105414601D02*
X82797601Y-104190800D01*
X84206400Y-107848400D02*
X84206400Y-106823400D01*
X84206400Y-106823400D02*
X82797601Y-105414601D01*
D38*
X82797601Y-104190800D02*
X82797601Y-98799601D01*
D37*
X102073599Y-105444401D02*
X101041200Y-106476800D01*
X111852599Y-105444401D02*
X102073599Y-105444401D01*
X113411000Y-103886000D02*
X111852599Y-105444401D01*
D35*
G04 #@! TO.N,Net-(J1-Pad4)*
X111997508Y-88646000D02*
X113411000Y-88646000D01*
X106328142Y-88646000D02*
X111997508Y-88646000D01*
X104296142Y-90678000D02*
X106328142Y-88646000D01*
X98378000Y-90678000D02*
X104296142Y-90678000D01*
G04 #@! TO.N,Net-(J1-Pad3)*
X103886000Y-86106000D02*
X101600000Y-88392000D01*
X101600000Y-88392000D02*
X98378000Y-88392000D01*
D36*
X113411000Y-86106000D02*
X112077500Y-86106000D01*
D35*
X112077500Y-86106000D02*
X103886000Y-86106000D01*
G04 #@! TO.N,Net-(J1-Pad5)*
X103632000Y-92964000D02*
X98378000Y-92964000D01*
X106172000Y-90424000D02*
X103632000Y-92964000D01*
D36*
X113411000Y-91186000D02*
X111760000Y-91186000D01*
D35*
X106172000Y-90398600D02*
X107124590Y-89446010D01*
X106172000Y-90424000D02*
X106172000Y-90398600D01*
X110020010Y-89446010D02*
X111760000Y-91186000D01*
X107124590Y-89446010D02*
X110020010Y-89446010D01*
G04 #@! TO.N,Net-(J1-Pad6)*
X105918000Y-93218000D02*
X103886000Y-95250000D01*
X111887000Y-93726000D02*
X108458000Y-93726000D01*
D36*
X113411000Y-93726000D02*
X111887000Y-93726000D01*
D35*
X108458000Y-93726000D02*
X107950000Y-93218000D01*
D34*
X107950000Y-93218000D02*
X107696000Y-93218000D01*
X107696000Y-93218000D02*
X106045000Y-93218000D01*
D35*
X106045000Y-93218000D02*
X105918000Y-93218000D01*
X103886000Y-95250000D02*
X98378000Y-95250000D01*
G04 #@! TO.N,Net-(J1-Pad7)*
X105029000Y-95758000D02*
X103251000Y-97536000D01*
X103251000Y-97536000D02*
X98378000Y-97536000D01*
X106172000Y-95758000D02*
X105029000Y-95758000D01*
D34*
X107823000Y-95758000D02*
X106172000Y-95758000D01*
D35*
X111489508Y-95758000D02*
X107823000Y-95758000D01*
X111997508Y-96266000D02*
X111489508Y-95758000D01*
D36*
X113411000Y-96266000D02*
X111997508Y-96266000D01*
D35*
G04 #@! TO.N,Net-(J1-Pad8)*
X111997508Y-98806000D02*
X111558509Y-98367001D01*
X103308999Y-98367001D02*
X101727000Y-99949000D01*
X111558509Y-98367001D02*
X103308999Y-98367001D01*
X101727000Y-99949000D02*
X98505000Y-99949000D01*
X98505000Y-99949000D02*
X98378000Y-99822000D01*
D36*
X113411000Y-98806000D02*
X112141000Y-98806000D01*
D35*
X112141000Y-98806000D02*
X111997508Y-98806000D01*
G04 #@! TD*
D39*
G04 #@! TO.N,GND*
G36*
X196902000Y-111304000D02*
X118440200Y-111304000D01*
X118440200Y-107209875D01*
X120744000Y-107209875D01*
X120744000Y-108334525D01*
X121174385Y-109373567D01*
X121969633Y-110168815D01*
X123008675Y-110599200D01*
X124133325Y-110599200D01*
X125172367Y-110168815D01*
X125967615Y-109373567D01*
X126398000Y-108334525D01*
X126398000Y-107209875D01*
X125967615Y-106170833D01*
X125172367Y-105375585D01*
X124133325Y-104945200D01*
X123008675Y-104945200D01*
X121969633Y-105375585D01*
X121174385Y-106170833D01*
X120744000Y-107209875D01*
X118440200Y-107209875D01*
X118440200Y-91948000D01*
X120464146Y-91948000D01*
X120594301Y-92602333D01*
X120964951Y-93157049D01*
X121056170Y-93218000D01*
X120964951Y-93278951D01*
X120594301Y-93833667D01*
X120464146Y-94488000D01*
X120594301Y-95142333D01*
X120964951Y-95697049D01*
X121088687Y-95779727D01*
X120746519Y-96147855D01*
X120542271Y-96640976D01*
X120709245Y-96901000D01*
X122047000Y-96901000D01*
X122047000Y-96881000D01*
X122301000Y-96881000D01*
X122301000Y-96901000D01*
X123638755Y-96901000D01*
X123805729Y-96640976D01*
X123601481Y-96147855D01*
X123259313Y-95779727D01*
X123383049Y-95697049D01*
X123753699Y-95142333D01*
X123883854Y-94488000D01*
X123753699Y-93833667D01*
X123383049Y-93278951D01*
X123291830Y-93218000D01*
X123383049Y-93157049D01*
X123753699Y-92602333D01*
X123883854Y-91948000D01*
X123753699Y-91293667D01*
X123383049Y-90738951D01*
X122828333Y-90368301D01*
X122339168Y-90271000D01*
X122008832Y-90271000D01*
X121519667Y-90368301D01*
X120964951Y-90738951D01*
X120594301Y-91293667D01*
X120464146Y-91948000D01*
X118440200Y-91948000D01*
X118440200Y-85002000D01*
X120480799Y-85002000D01*
X120480799Y-86702000D01*
X120544984Y-87024679D01*
X120727767Y-87298233D01*
X121001321Y-87481016D01*
X121324000Y-87545201D01*
X123024000Y-87545201D01*
X123346679Y-87481016D01*
X123620233Y-87298233D01*
X123803016Y-87024679D01*
X123867201Y-86702000D01*
X123867201Y-85002000D01*
X123803016Y-84679321D01*
X123620233Y-84405767D01*
X123486179Y-84316195D01*
X123601481Y-84192145D01*
X123805729Y-83699024D01*
X123638755Y-83439000D01*
X122301000Y-83439000D01*
X122301000Y-83459000D01*
X122047000Y-83459000D01*
X122047000Y-83439000D01*
X120709245Y-83439000D01*
X120542271Y-83699024D01*
X120746519Y-84192145D01*
X120861821Y-84316195D01*
X120727767Y-84405767D01*
X120544984Y-84679321D01*
X120480799Y-85002000D01*
X118440200Y-85002000D01*
X118440200Y-80772000D01*
X120464146Y-80772000D01*
X120594301Y-81426333D01*
X120964951Y-81981049D01*
X121088687Y-82063727D01*
X120746519Y-82431855D01*
X120542271Y-82924976D01*
X120709245Y-83185000D01*
X122047000Y-83185000D01*
X122047000Y-83165000D01*
X122301000Y-83165000D01*
X122301000Y-83185000D01*
X123638755Y-83185000D01*
X123805729Y-82924976D01*
X123601481Y-82431855D01*
X123259313Y-82063727D01*
X123383049Y-81981049D01*
X123753699Y-81426333D01*
X123883854Y-80772000D01*
X123753699Y-80117667D01*
X123383049Y-79562951D01*
X122828333Y-79192301D01*
X122339168Y-79095000D01*
X122008832Y-79095000D01*
X121519667Y-79192301D01*
X120964951Y-79562951D01*
X120594301Y-80117667D01*
X120464146Y-80772000D01*
X118440200Y-80772000D01*
X118440200Y-77089000D01*
X118430533Y-77040399D01*
X118403003Y-76999197D01*
X118361801Y-76971667D01*
X118313200Y-76962000D01*
X77926000Y-76962000D01*
X77926000Y-74809024D01*
X82188271Y-74809024D01*
X82392519Y-75302145D01*
X82837996Y-75781421D01*
X83432975Y-76053738D01*
X83693000Y-75887443D01*
X83693000Y-74549000D01*
X83947000Y-74549000D01*
X83947000Y-75887443D01*
X84207025Y-76053738D01*
X84802004Y-75781421D01*
X85247481Y-75302145D01*
X85451729Y-74809024D01*
X85284755Y-74549000D01*
X83947000Y-74549000D01*
X83693000Y-74549000D01*
X82355245Y-74549000D01*
X82188271Y-74809024D01*
X77926000Y-74809024D01*
X77926000Y-65557400D01*
X78243524Y-65557400D01*
X78263801Y-65659339D01*
X78263800Y-69316265D01*
X78243524Y-69418200D01*
X78283254Y-69617934D01*
X78323852Y-69822036D01*
X78552607Y-70164393D01*
X78639027Y-70222137D01*
X80958665Y-72541776D01*
X81016407Y-72628193D01*
X81358763Y-72856948D01*
X81660665Y-72917000D01*
X81660670Y-72917000D01*
X81762599Y-72937275D01*
X81864529Y-72917000D01*
X82725571Y-72917000D01*
X82749375Y-72952625D01*
X82883063Y-73041952D01*
X82837996Y-73062579D01*
X82392519Y-73541855D01*
X82188271Y-74034976D01*
X82355245Y-74295000D01*
X83693000Y-74295000D01*
X83693000Y-74275000D01*
X83947000Y-74275000D01*
X83947000Y-74295000D01*
X85284755Y-74295000D01*
X85451729Y-74034976D01*
X85247481Y-73541855D01*
X84802004Y-73062579D01*
X84756937Y-73041952D01*
X84890625Y-72952625D01*
X85218839Y-72461418D01*
X85334092Y-71882000D01*
X85257511Y-71497000D01*
X85536222Y-71497000D01*
X89533377Y-75494156D01*
X89582751Y-75568049D01*
X89656644Y-75617423D01*
X89656645Y-75617424D01*
X89708639Y-75652165D01*
X89875490Y-75763652D01*
X90133635Y-75815000D01*
X90133639Y-75815000D01*
X90220799Y-75832337D01*
X90307959Y-75815000D01*
X120867622Y-75815000D01*
X124184601Y-79131980D01*
X124184600Y-87570407D01*
X124167263Y-87657568D01*
X124184600Y-87744729D01*
X124184600Y-87744732D01*
X124235948Y-88002877D01*
X124431551Y-88295617D01*
X124505447Y-88344993D01*
X132127009Y-95966556D01*
X132176383Y-96040449D01*
X132250276Y-96089823D01*
X132250277Y-96089824D01*
X132343834Y-96152337D01*
X132469122Y-96236052D01*
X132727267Y-96287400D01*
X132727271Y-96287400D01*
X132814431Y-96304737D01*
X132901591Y-96287400D01*
X135417475Y-96287400D01*
X134776974Y-96552704D01*
X134192704Y-97136974D01*
X133876500Y-97900359D01*
X133876500Y-98726641D01*
X134192704Y-99490026D01*
X134776974Y-100074296D01*
X135540359Y-100390500D01*
X136366641Y-100390500D01*
X137130026Y-100074296D01*
X137714296Y-99490026D01*
X138030500Y-98726641D01*
X138030500Y-97900359D01*
X137714296Y-97136974D01*
X137130026Y-96552704D01*
X136489525Y-96287400D01*
X141466089Y-96287400D01*
X137340890Y-100412600D01*
X132864311Y-100412600D01*
X131359937Y-98908227D01*
X131302193Y-98821807D01*
X130959837Y-98593052D01*
X130657935Y-98533000D01*
X130657934Y-98533000D01*
X130556000Y-98512724D01*
X130454066Y-98533000D01*
X123830402Y-98533000D01*
X123803016Y-98395321D01*
X123620233Y-98121767D01*
X123486179Y-98032195D01*
X123601481Y-97908145D01*
X123805729Y-97415024D01*
X123638755Y-97155000D01*
X122301000Y-97155000D01*
X122301000Y-97175000D01*
X122047000Y-97175000D01*
X122047000Y-97155000D01*
X120709245Y-97155000D01*
X120542271Y-97415024D01*
X120746519Y-97908145D01*
X120861821Y-98032195D01*
X120727767Y-98121767D01*
X120544984Y-98395321D01*
X120480799Y-98718000D01*
X120480799Y-100418000D01*
X120544984Y-100740679D01*
X120727767Y-101014233D01*
X121001321Y-101197016D01*
X121324000Y-101261201D01*
X123024000Y-101261201D01*
X123346679Y-101197016D01*
X123620233Y-101014233D01*
X123803016Y-100740679D01*
X123830402Y-100603000D01*
X130127290Y-100603000D01*
X131631665Y-102107376D01*
X131689407Y-102193793D01*
X132031763Y-102422548D01*
X132298786Y-102475662D01*
X132435600Y-102502876D01*
X132537534Y-102482600D01*
X137667666Y-102482600D01*
X137769600Y-102502876D01*
X137871534Y-102482600D01*
X137871535Y-102482600D01*
X138173437Y-102422548D01*
X138515793Y-102193793D01*
X138573537Y-102107373D01*
X140245760Y-100435150D01*
X144647000Y-100435150D01*
X144647000Y-100915900D01*
X144772903Y-101219858D01*
X145005542Y-101452497D01*
X145309499Y-101578400D01*
X145890250Y-101578400D01*
X146097000Y-101371650D01*
X146097000Y-100228400D01*
X144853750Y-100228400D01*
X144647000Y-100435150D01*
X140245760Y-100435150D01*
X141394010Y-99286900D01*
X144647000Y-99286900D01*
X144647000Y-99767650D01*
X144853750Y-99974400D01*
X146097000Y-99974400D01*
X146097000Y-98831150D01*
X145890250Y-98624400D01*
X145309499Y-98624400D01*
X145005542Y-98750303D01*
X144772903Y-98982942D01*
X144647000Y-99286900D01*
X141394010Y-99286900D01*
X143278311Y-97402600D01*
X158520821Y-97402600D01*
X154051000Y-101872422D01*
X151715825Y-99537247D01*
X151666449Y-99463351D01*
X151373710Y-99267748D01*
X151115565Y-99216400D01*
X151115561Y-99216400D01*
X151028400Y-99199063D01*
X150941239Y-99216400D01*
X150274696Y-99216400D01*
X150272157Y-99203635D01*
X150131809Y-98993591D01*
X149921765Y-98853243D01*
X149674000Y-98803960D01*
X148174000Y-98803960D01*
X147926235Y-98853243D01*
X147716191Y-98993591D01*
X147693546Y-99027482D01*
X147675097Y-98982942D01*
X147442458Y-98750303D01*
X147138501Y-98624400D01*
X146557750Y-98624400D01*
X146351000Y-98831150D01*
X146351000Y-99974400D01*
X146371000Y-99974400D01*
X146371000Y-100228400D01*
X146351000Y-100228400D01*
X146351000Y-101371650D01*
X146557750Y-101578400D01*
X147138501Y-101578400D01*
X147442458Y-101452497D01*
X147675097Y-101219858D01*
X147693546Y-101175318D01*
X147716191Y-101209209D01*
X147926235Y-101349557D01*
X148174000Y-101398840D01*
X149674000Y-101398840D01*
X149921765Y-101349557D01*
X150131809Y-101209209D01*
X150272157Y-100999165D01*
X150274696Y-100986400D01*
X150661822Y-100986400D01*
X153166000Y-103490579D01*
X153166000Y-104674987D01*
X152970570Y-104805570D01*
X152781000Y-105089281D01*
X152591430Y-104805570D01*
X152095725Y-104474350D01*
X151658598Y-104387400D01*
X151363402Y-104387400D01*
X150926275Y-104474350D01*
X150430570Y-104805570D01*
X150099350Y-105301275D01*
X149983041Y-105886000D01*
X150099350Y-106470725D01*
X150430570Y-106966430D01*
X150714281Y-107156000D01*
X150430570Y-107345570D01*
X150099350Y-107841275D01*
X149983041Y-108426000D01*
X150099350Y-109010725D01*
X150430570Y-109506430D01*
X150926275Y-109837650D01*
X151363402Y-109924600D01*
X151658598Y-109924600D01*
X152095725Y-109837650D01*
X152591430Y-109506430D01*
X152781000Y-109222719D01*
X152970570Y-109506430D01*
X153466275Y-109837650D01*
X153903402Y-109924600D01*
X154198598Y-109924600D01*
X154635725Y-109837650D01*
X155131430Y-109506430D01*
X155154703Y-109471600D01*
X155169716Y-109471600D01*
X155398692Y-109426054D01*
X155438909Y-109399182D01*
X155510570Y-109506430D01*
X156006275Y-109837650D01*
X156443402Y-109924600D01*
X156738598Y-109924600D01*
X157175725Y-109837650D01*
X157671430Y-109506430D01*
X157861000Y-109222719D01*
X158050570Y-109506430D01*
X158546275Y-109837650D01*
X158983402Y-109924600D01*
X159278598Y-109924600D01*
X159715725Y-109837650D01*
X160211430Y-109506430D01*
X160401000Y-109222719D01*
X160590570Y-109506430D01*
X161086275Y-109837650D01*
X161523402Y-109924600D01*
X161818598Y-109924600D01*
X162255725Y-109837650D01*
X162751430Y-109506430D01*
X162941000Y-109222719D01*
X163130570Y-109506430D01*
X163626275Y-109837650D01*
X164063402Y-109924600D01*
X164358598Y-109924600D01*
X164795725Y-109837650D01*
X165291430Y-109506430D01*
X165481000Y-109222719D01*
X165670570Y-109506430D01*
X166166275Y-109837650D01*
X166603402Y-109924600D01*
X166898598Y-109924600D01*
X167335725Y-109837650D01*
X167831430Y-109506430D01*
X168021000Y-109222719D01*
X168210570Y-109506430D01*
X168706275Y-109837650D01*
X169143402Y-109924600D01*
X169438598Y-109924600D01*
X169875725Y-109837650D01*
X170371430Y-109506430D01*
X170561000Y-109222719D01*
X170750570Y-109506430D01*
X171246275Y-109837650D01*
X171683402Y-109924600D01*
X171978598Y-109924600D01*
X172415725Y-109837650D01*
X172911430Y-109506430D01*
X173101000Y-109222719D01*
X173290570Y-109506430D01*
X173786275Y-109837650D01*
X174223402Y-109924600D01*
X174518598Y-109924600D01*
X174955725Y-109837650D01*
X175451430Y-109506430D01*
X175782650Y-109010725D01*
X175898959Y-108426000D01*
X175782650Y-107841275D01*
X175456349Y-107352932D01*
X175482365Y-107347757D01*
X175692409Y-107207409D01*
X175826536Y-107006675D01*
X190340000Y-107006675D01*
X190340000Y-108131325D01*
X190770385Y-109170367D01*
X191565633Y-109965615D01*
X192604675Y-110396000D01*
X193729325Y-110396000D01*
X194768367Y-109965615D01*
X195563615Y-109170367D01*
X195994000Y-108131325D01*
X195994000Y-107006675D01*
X195563615Y-105967633D01*
X194768367Y-105172385D01*
X193729325Y-104742000D01*
X192604675Y-104742000D01*
X191565633Y-105172385D01*
X190770385Y-105967633D01*
X190340000Y-107006675D01*
X175826536Y-107006675D01*
X175832757Y-106997365D01*
X175882040Y-106749600D01*
X175882040Y-105022400D01*
X175832757Y-104774635D01*
X175692409Y-104564591D01*
X175482365Y-104424243D01*
X175234600Y-104374960D01*
X173507400Y-104374960D01*
X173259635Y-104424243D01*
X173049591Y-104564591D01*
X172909243Y-104774635D01*
X172904068Y-104800651D01*
X172415725Y-104474350D01*
X171978598Y-104387400D01*
X171683402Y-104387400D01*
X171246275Y-104474350D01*
X170750570Y-104805570D01*
X170561000Y-105089281D01*
X170371430Y-104805570D01*
X169875725Y-104474350D01*
X169438598Y-104387400D01*
X169143402Y-104387400D01*
X168706275Y-104474350D01*
X168210570Y-104805570D01*
X168021000Y-105089281D01*
X167831430Y-104805570D01*
X167335725Y-104474350D01*
X166898598Y-104387400D01*
X166603402Y-104387400D01*
X166166275Y-104474350D01*
X165670570Y-104805570D01*
X165481000Y-105089281D01*
X165291430Y-104805570D01*
X164795725Y-104474350D01*
X164358598Y-104387400D01*
X164063402Y-104387400D01*
X163626275Y-104474350D01*
X163130570Y-104805570D01*
X162941000Y-105089281D01*
X162751430Y-104805570D01*
X162255725Y-104474350D01*
X161818598Y-104387400D01*
X161523402Y-104387400D01*
X161286000Y-104434622D01*
X161286000Y-100747378D01*
X161430739Y-100602640D01*
X173104870Y-100602640D01*
X173192031Y-100619977D01*
X173279192Y-100602640D01*
X173279196Y-100602640D01*
X173537341Y-100551292D01*
X173830080Y-100355689D01*
X173879456Y-100281793D01*
X176260890Y-97900359D01*
X176866000Y-97900359D01*
X176866000Y-98726641D01*
X177182204Y-99490026D01*
X177766474Y-100074296D01*
X178529859Y-100390500D01*
X179356141Y-100390500D01*
X180119526Y-100074296D01*
X180703796Y-99490026D01*
X181020000Y-98726641D01*
X181020000Y-97900359D01*
X180703796Y-97136974D01*
X180119526Y-96552704D01*
X179356141Y-96236500D01*
X178529859Y-96236500D01*
X177766474Y-96552704D01*
X177182204Y-97136974D01*
X176866000Y-97900359D01*
X176260890Y-97900359D01*
X177030386Y-97130864D01*
X177104279Y-97081490D01*
X177189851Y-96953424D01*
X177299882Y-96788751D01*
X177303326Y-96771436D01*
X177351230Y-96530606D01*
X177351230Y-96530602D01*
X177368567Y-96443441D01*
X177351230Y-96356280D01*
X177351230Y-87458350D01*
X182453556Y-82356025D01*
X182527449Y-82306651D01*
X182592808Y-82208836D01*
X182723052Y-82013912D01*
X182724564Y-82006309D01*
X182774400Y-81755767D01*
X182774400Y-81755763D01*
X182791737Y-81668602D01*
X182774400Y-81581441D01*
X182774400Y-76134759D01*
X182791737Y-76047599D01*
X182774400Y-75960439D01*
X182774400Y-75960435D01*
X182723052Y-75702290D01*
X182607392Y-75529193D01*
X182576824Y-75483445D01*
X182576823Y-75483444D01*
X182527449Y-75409551D01*
X182453556Y-75360177D01*
X180767620Y-73674242D01*
X180767620Y-72246009D01*
X180784957Y-72158849D01*
X180767620Y-72071689D01*
X180767620Y-72071685D01*
X180716272Y-71813540D01*
X180599698Y-71639076D01*
X180586848Y-71619843D01*
X187965799Y-71619843D01*
X188132595Y-71882000D01*
X189484000Y-71882000D01*
X189484000Y-70529918D01*
X189221841Y-70363791D01*
X188621870Y-70637950D01*
X188172485Y-71120839D01*
X187965799Y-71619843D01*
X180586848Y-71619843D01*
X180570044Y-71594695D01*
X180570043Y-71594694D01*
X180520669Y-71520801D01*
X180446776Y-71471427D01*
X178002939Y-69027591D01*
X178189200Y-69064640D01*
X179689200Y-69064640D01*
X179936965Y-69015357D01*
X180147009Y-68875009D01*
X180287357Y-68664965D01*
X180289200Y-68655700D01*
X180291043Y-68664965D01*
X180431391Y-68875009D01*
X180641435Y-69015357D01*
X180889200Y-69064640D01*
X182389200Y-69064640D01*
X182636965Y-69015357D01*
X182847009Y-68875009D01*
X182895659Y-68802200D01*
X190528490Y-68802200D01*
X191116001Y-69389712D01*
X191116000Y-70898214D01*
X191070570Y-70928570D01*
X190986991Y-71053654D01*
X190600130Y-70637950D01*
X190000159Y-70363791D01*
X189738000Y-70529918D01*
X189738000Y-71882000D01*
X189758000Y-71882000D01*
X189758000Y-72136000D01*
X189738000Y-72136000D01*
X189738000Y-72156000D01*
X189484000Y-72156000D01*
X189484000Y-72136000D01*
X188132595Y-72136000D01*
X187965799Y-72398157D01*
X188172485Y-72897161D01*
X188621870Y-73380050D01*
X188646325Y-73391225D01*
X188530570Y-73468570D01*
X188199350Y-73964275D01*
X188083041Y-74549000D01*
X188199350Y-75133725D01*
X188530570Y-75629430D01*
X188814281Y-75819000D01*
X188530570Y-76008570D01*
X188199350Y-76504275D01*
X188083041Y-77089000D01*
X188199350Y-77673725D01*
X188530570Y-78169430D01*
X188814281Y-78359000D01*
X188530570Y-78548570D01*
X188199350Y-79044275D01*
X188083041Y-79629000D01*
X188199350Y-80213725D01*
X188530570Y-80709430D01*
X188814281Y-80899000D01*
X188530570Y-81088570D01*
X188199350Y-81584275D01*
X188083041Y-82169000D01*
X188199350Y-82753725D01*
X188530570Y-83249430D01*
X188814281Y-83439000D01*
X188530570Y-83628570D01*
X188199350Y-84124275D01*
X188083041Y-84709000D01*
X188199350Y-85293725D01*
X188530570Y-85789430D01*
X188814281Y-85979000D01*
X188530570Y-86168570D01*
X188199350Y-86664275D01*
X188083041Y-87249000D01*
X188199350Y-87833725D01*
X188530570Y-88329430D01*
X189026275Y-88660650D01*
X189463402Y-88747600D01*
X189758598Y-88747600D01*
X190195725Y-88660650D01*
X190684068Y-88334349D01*
X190689243Y-88360365D01*
X190829591Y-88570409D01*
X191039635Y-88710757D01*
X191287400Y-88760040D01*
X193014600Y-88760040D01*
X193262365Y-88710757D01*
X193472409Y-88570409D01*
X193612757Y-88360365D01*
X193662040Y-88112600D01*
X193662040Y-86385400D01*
X193612757Y-86137635D01*
X193472409Y-85927591D01*
X193262365Y-85787243D01*
X193236349Y-85782068D01*
X193562650Y-85293725D01*
X193678959Y-84709000D01*
X193562650Y-84124275D01*
X193231430Y-83628570D01*
X192947719Y-83439000D01*
X193231430Y-83249430D01*
X193562650Y-82753725D01*
X193678959Y-82169000D01*
X193562650Y-81584275D01*
X193231430Y-81088570D01*
X192947719Y-80899000D01*
X193231430Y-80709430D01*
X193562650Y-80213725D01*
X193678959Y-79629000D01*
X193562650Y-79044275D01*
X193231430Y-78548570D01*
X192947719Y-78359000D01*
X193231430Y-78169430D01*
X193562650Y-77673725D01*
X193678959Y-77089000D01*
X193562650Y-76504275D01*
X193231430Y-76008570D01*
X192947719Y-75819000D01*
X193231430Y-75629430D01*
X193562650Y-75133725D01*
X193678959Y-74549000D01*
X193562650Y-73964275D01*
X193231430Y-73468570D01*
X192947719Y-73279000D01*
X193231430Y-73089430D01*
X193562650Y-72593725D01*
X193678959Y-72009000D01*
X193562650Y-71424275D01*
X193231430Y-70928570D01*
X193186000Y-70898215D01*
X193186000Y-69062934D01*
X193206276Y-68960999D01*
X193125948Y-68557163D01*
X193091377Y-68505424D01*
X192897193Y-68214807D01*
X192810776Y-68157065D01*
X191710336Y-67056626D01*
X191710334Y-67056623D01*
X191710331Y-67056620D01*
X191652592Y-66970208D01*
X191566180Y-66912469D01*
X185969937Y-61316227D01*
X185912193Y-61229807D01*
X185569837Y-61001052D01*
X185267935Y-60941000D01*
X185267934Y-60941000D01*
X185166000Y-60920724D01*
X185064066Y-60941000D01*
X169105233Y-60941000D01*
X169043387Y-60899676D01*
X167935937Y-59792227D01*
X167878193Y-59705807D01*
X167535837Y-59477052D01*
X167446064Y-59459195D01*
X175416411Y-59459195D01*
X175467566Y-59748780D01*
X176037606Y-59957007D01*
X176643940Y-59931239D01*
X177084434Y-59748780D01*
X177135589Y-59459195D01*
X183036411Y-59459195D01*
X183087566Y-59748780D01*
X183657606Y-59957007D01*
X184263940Y-59931239D01*
X184704434Y-59748780D01*
X184755589Y-59459195D01*
X183896000Y-58599605D01*
X183036411Y-59459195D01*
X177135589Y-59459195D01*
X176276000Y-58599605D01*
X175416411Y-59459195D01*
X167446064Y-59459195D01*
X167233935Y-59417000D01*
X167233934Y-59417000D01*
X167132000Y-59396724D01*
X167030066Y-59417000D01*
X158470934Y-59417000D01*
X158368999Y-59396724D01*
X158267065Y-59417000D01*
X157965163Y-59477052D01*
X157622807Y-59705807D01*
X157565065Y-59792224D01*
X156244890Y-61112400D01*
X156175111Y-61112400D01*
X155362937Y-60300227D01*
X155305193Y-60213807D01*
X154962837Y-59985052D01*
X154660935Y-59925000D01*
X154660934Y-59925000D01*
X154559000Y-59904724D01*
X154457066Y-59925000D01*
X147929934Y-59925000D01*
X147828000Y-59904724D01*
X147726065Y-59925000D01*
X147424163Y-59985052D01*
X147081807Y-60213807D01*
X147024065Y-60300224D01*
X146279225Y-61045065D01*
X146192808Y-61102807D01*
X146135066Y-61189224D01*
X145964052Y-61445164D01*
X145883724Y-61849000D01*
X145904001Y-61950939D01*
X145904001Y-62719000D01*
X134472805Y-62719000D01*
X132308031Y-60554227D01*
X132250287Y-60467807D01*
X131907931Y-60239052D01*
X131606029Y-60179000D01*
X131606028Y-60179000D01*
X131504094Y-60158724D01*
X131402160Y-60179000D01*
X117263839Y-60179000D01*
X117161905Y-60158724D01*
X117059970Y-60179000D01*
X116758068Y-60239052D01*
X116415712Y-60467807D01*
X116357968Y-60554227D01*
X115731266Y-61180929D01*
X115560252Y-61436869D01*
X115479924Y-61840705D01*
X115560252Y-62244541D01*
X115575885Y-62267937D01*
X113432044Y-64411778D01*
X113420863Y-63789903D01*
X113119441Y-63062205D01*
X112762302Y-62931303D01*
X111431605Y-64262000D01*
X111445748Y-64276143D01*
X111266143Y-64455748D01*
X111252000Y-64441605D01*
X111237858Y-64455748D01*
X111058253Y-64276143D01*
X111072395Y-64262000D01*
X109741698Y-62931303D01*
X109384559Y-63062205D01*
X109067568Y-63868173D01*
X109083137Y-64734097D01*
X109384559Y-65461795D01*
X109741696Y-65592696D01*
X109657391Y-65677001D01*
X109406580Y-65677001D01*
X108519625Y-64790047D01*
X108470249Y-64716151D01*
X108177510Y-64520548D01*
X107933454Y-64472002D01*
X107930357Y-64456435D01*
X107790009Y-64246391D01*
X107579965Y-64106043D01*
X107332200Y-64056760D01*
X105832200Y-64056760D01*
X105584435Y-64106043D01*
X105374391Y-64246391D01*
X105234043Y-64456435D01*
X105232200Y-64465700D01*
X105230357Y-64456435D01*
X105090009Y-64246391D01*
X104879965Y-64106043D01*
X104767200Y-64083613D01*
X104767200Y-62751698D01*
X109921303Y-62751698D01*
X111252000Y-64082395D01*
X112582697Y-62751698D01*
X112451795Y-62394559D01*
X111645827Y-62077568D01*
X110779903Y-62093137D01*
X110052205Y-62394559D01*
X109921303Y-62751698D01*
X104767200Y-62751698D01*
X104767200Y-60134707D01*
X105372267Y-59884080D01*
X105400396Y-59855951D01*
X105565542Y-60021097D01*
X105869499Y-60147000D01*
X106600250Y-60147000D01*
X106807000Y-59940250D01*
X106807000Y-58547000D01*
X107061000Y-58547000D01*
X107061000Y-59940250D01*
X107267750Y-60147000D01*
X107998501Y-60147000D01*
X108302458Y-60021097D01*
X108535097Y-59788458D01*
X108661000Y-59484500D01*
X108661000Y-58753750D01*
X108454250Y-58547000D01*
X107061000Y-58547000D01*
X106807000Y-58547000D01*
X106787000Y-58547000D01*
X106787000Y-58293000D01*
X106807000Y-58293000D01*
X106807000Y-56899750D01*
X107061000Y-56899750D01*
X107061000Y-58293000D01*
X108454250Y-58293000D01*
X108565644Y-58181606D01*
X174738993Y-58181606D01*
X174764761Y-58787940D01*
X174947220Y-59228434D01*
X175236805Y-59279589D01*
X176096395Y-58420000D01*
X176455605Y-58420000D01*
X177315195Y-59279589D01*
X177604780Y-59228434D01*
X177813007Y-58658394D01*
X177792745Y-58181606D01*
X182358993Y-58181606D01*
X182384761Y-58787940D01*
X182567220Y-59228434D01*
X182856805Y-59279589D01*
X183716395Y-58420000D01*
X184075605Y-58420000D01*
X184935195Y-59279589D01*
X185224780Y-59228434D01*
X185433007Y-58658394D01*
X185407239Y-58052060D01*
X185224780Y-57611566D01*
X184935195Y-57560411D01*
X184075605Y-58420000D01*
X183716395Y-58420000D01*
X182856805Y-57560411D01*
X182567220Y-57611566D01*
X182358993Y-58181606D01*
X177792745Y-58181606D01*
X177787239Y-58052060D01*
X177604780Y-57611566D01*
X177315195Y-57560411D01*
X176455605Y-58420000D01*
X176096395Y-58420000D01*
X175236805Y-57560411D01*
X174947220Y-57611566D01*
X174738993Y-58181606D01*
X108565644Y-58181606D01*
X108661000Y-58086250D01*
X108661000Y-57355500D01*
X108535097Y-57051542D01*
X108302458Y-56818903D01*
X107998501Y-56693000D01*
X107267750Y-56693000D01*
X107061000Y-56899750D01*
X106807000Y-56899750D01*
X106600250Y-56693000D01*
X105869499Y-56693000D01*
X105565542Y-56818903D01*
X105400396Y-56984049D01*
X105372267Y-56955920D01*
X104737522Y-56693000D01*
X104050478Y-56693000D01*
X103415733Y-56955920D01*
X102929920Y-57441733D01*
X102667000Y-58076478D01*
X102667000Y-58763522D01*
X102929920Y-59398267D01*
X102997201Y-59465548D01*
X102997200Y-64083613D01*
X102884435Y-64106043D01*
X102688200Y-64237164D01*
X102688200Y-63536361D01*
X102705537Y-63449200D01*
X102688200Y-63362039D01*
X102688200Y-63362035D01*
X102636852Y-63103890D01*
X102567541Y-63000159D01*
X102490624Y-62885045D01*
X102490623Y-62885044D01*
X102441249Y-62811151D01*
X102367356Y-62761777D01*
X99752578Y-60147000D01*
X100378501Y-60147000D01*
X100682458Y-60021097D01*
X100915097Y-59788458D01*
X101041000Y-59484500D01*
X101041000Y-58753750D01*
X100834250Y-58547000D01*
X99441000Y-58547000D01*
X99441000Y-58567000D01*
X99187000Y-58567000D01*
X99187000Y-58547000D01*
X99167000Y-58547000D01*
X99167000Y-58293000D01*
X99187000Y-58293000D01*
X99187000Y-56899750D01*
X99441000Y-56899750D01*
X99441000Y-58293000D01*
X100834250Y-58293000D01*
X101041000Y-58086250D01*
X101041000Y-57355500D01*
X100915097Y-57051542D01*
X100682458Y-56818903D01*
X100378501Y-56693000D01*
X99647750Y-56693000D01*
X99441000Y-56899750D01*
X99187000Y-56899750D01*
X98980250Y-56693000D01*
X98249499Y-56693000D01*
X97945542Y-56818903D01*
X97780396Y-56984049D01*
X97752267Y-56955920D01*
X97117522Y-56693000D01*
X96430478Y-56693000D01*
X95795733Y-56955920D01*
X95309920Y-57441733D01*
X95047000Y-58076478D01*
X95047000Y-58763522D01*
X95309920Y-59398267D01*
X95795733Y-59884080D01*
X96430478Y-60147000D01*
X96769654Y-60147000D01*
X96927807Y-60383692D01*
X97270163Y-60612447D01*
X97673999Y-60692775D01*
X97775089Y-60672667D01*
X100918200Y-63815779D01*
X100918201Y-65848035D01*
X100900863Y-65935200D01*
X100969548Y-66280509D01*
X101115776Y-66499354D01*
X101115778Y-66499356D01*
X101165152Y-66573249D01*
X101239045Y-66622623D01*
X102673759Y-68057337D01*
X102534043Y-68266435D01*
X102484760Y-68514200D01*
X102484760Y-69814200D01*
X102502781Y-69904800D01*
X99926298Y-69904800D01*
X97627698Y-67606201D01*
X99275000Y-67606201D01*
X99597679Y-67542016D01*
X99871233Y-67359233D01*
X100054016Y-67085679D01*
X100118201Y-66763000D01*
X100118201Y-65063000D01*
X100054016Y-64740321D01*
X99871233Y-64466767D01*
X99597679Y-64283984D01*
X99275000Y-64219799D01*
X97575000Y-64219799D01*
X97252321Y-64283984D01*
X96978767Y-64466767D01*
X96904785Y-64577489D01*
X96539333Y-64333301D01*
X96050168Y-64236000D01*
X95719832Y-64236000D01*
X95230667Y-64333301D01*
X94675951Y-64703951D01*
X94305301Y-65258667D01*
X94175146Y-65913000D01*
X94305301Y-66567333D01*
X94675951Y-67122049D01*
X95031274Y-67359468D01*
X95051348Y-67460390D01*
X95246951Y-67753130D01*
X95320847Y-67802506D01*
X98872296Y-71353956D01*
X98921670Y-71427849D01*
X98995563Y-71477223D01*
X98995564Y-71477224D01*
X99060782Y-71520801D01*
X99214409Y-71623452D01*
X99472554Y-71674800D01*
X99472558Y-71674800D01*
X99559718Y-71692137D01*
X99646878Y-71674800D01*
X104559441Y-71674800D01*
X104646602Y-71692137D01*
X104733763Y-71674800D01*
X104733767Y-71674800D01*
X104991912Y-71623452D01*
X105284651Y-71427849D01*
X105334027Y-71353953D01*
X105746354Y-70941626D01*
X105820250Y-70892250D01*
X106015853Y-70599511D01*
X106043277Y-70461640D01*
X107332200Y-70461640D01*
X107579965Y-70412357D01*
X107790009Y-70272009D01*
X107930357Y-70061965D01*
X107932896Y-70049200D01*
X111114039Y-70049200D01*
X111201200Y-70066537D01*
X111288361Y-70049200D01*
X111288365Y-70049200D01*
X111546510Y-69997852D01*
X111839249Y-69802249D01*
X111888625Y-69728353D01*
X112932461Y-68684517D01*
X114587000Y-68684517D01*
X114587000Y-69239483D01*
X114799376Y-69752204D01*
X115191796Y-70144624D01*
X115704517Y-70357000D01*
X116259483Y-70357000D01*
X116772204Y-70144624D01*
X117164624Y-69752204D01*
X117252000Y-69541260D01*
X117339376Y-69752204D01*
X117731796Y-70144624D01*
X118244517Y-70357000D01*
X118799483Y-70357000D01*
X119312204Y-70144624D01*
X119704624Y-69752204D01*
X119917000Y-69239483D01*
X119917000Y-68859941D01*
X126993000Y-68859941D01*
X126993000Y-69570059D01*
X127264750Y-70226121D01*
X127766879Y-70728250D01*
X128422941Y-71000000D01*
X129133059Y-71000000D01*
X129789121Y-70728250D01*
X130291250Y-70226121D01*
X130563000Y-69570059D01*
X130563000Y-68859941D01*
X130291250Y-68203879D01*
X129789121Y-67701750D01*
X129133059Y-67430000D01*
X128422941Y-67430000D01*
X127766879Y-67701750D01*
X127264750Y-68203879D01*
X126993000Y-68859941D01*
X119917000Y-68859941D01*
X119917000Y-68684517D01*
X119704624Y-68171796D01*
X119494828Y-67962000D01*
X119704624Y-67752204D01*
X119917000Y-67239483D01*
X119917000Y-66684517D01*
X119704624Y-66171796D01*
X119312204Y-65779376D01*
X119295126Y-65772302D01*
X121921303Y-65772302D01*
X122052205Y-66129441D01*
X122858173Y-66446432D01*
X123724097Y-66430863D01*
X124451795Y-66129441D01*
X124582697Y-65772302D01*
X123252000Y-64441605D01*
X121921303Y-65772302D01*
X119295126Y-65772302D01*
X118799483Y-65567000D01*
X118244517Y-65567000D01*
X117731796Y-65779376D01*
X117371313Y-66139859D01*
X117361674Y-66116589D01*
X117065722Y-66057883D01*
X116161605Y-66962000D01*
X117065722Y-67866117D01*
X117361674Y-67807411D01*
X117370542Y-67783370D01*
X117549172Y-67962000D01*
X117339376Y-68171796D01*
X117252000Y-68382740D01*
X117164624Y-68171796D01*
X116772204Y-67779376D01*
X116511985Y-67671590D01*
X115982000Y-67141605D01*
X115452015Y-67671590D01*
X115191796Y-67779376D01*
X114799376Y-68171796D01*
X114587000Y-68684517D01*
X112932461Y-68684517D01*
X114403655Y-67213323D01*
X114408627Y-67339781D01*
X114602326Y-67807411D01*
X114898278Y-67866117D01*
X115802395Y-66962000D01*
X115788253Y-66947858D01*
X115967858Y-66768253D01*
X115982000Y-66782395D01*
X116886117Y-65878278D01*
X116827411Y-65582326D01*
X116248284Y-65368694D01*
X118119567Y-63497412D01*
X118193460Y-63448038D01*
X118258859Y-63350163D01*
X118354702Y-63206724D01*
X118389063Y-63155299D01*
X118410205Y-63049010D01*
X121420559Y-63049010D01*
X121384559Y-63062205D01*
X121067568Y-63868173D01*
X121083137Y-64734097D01*
X121384559Y-65461795D01*
X121741698Y-65592697D01*
X123072395Y-64262000D01*
X123058253Y-64247858D01*
X123237858Y-64068253D01*
X123252000Y-64082395D01*
X123266143Y-64068253D01*
X123445748Y-64247858D01*
X123431605Y-64262000D01*
X124762302Y-65592697D01*
X125119441Y-65461795D01*
X125436432Y-64655827D01*
X125420863Y-63789903D01*
X125119441Y-63062205D01*
X125083441Y-63049010D01*
X130707632Y-63049010D01*
X132973000Y-65314379D01*
X132973000Y-66006094D01*
X132831250Y-65663879D01*
X132329121Y-65161750D01*
X131673059Y-64890000D01*
X130962941Y-64890000D01*
X130306879Y-65161750D01*
X129804750Y-65663879D01*
X129533000Y-66319941D01*
X129533000Y-67030059D01*
X129804750Y-67686121D01*
X130306879Y-68188250D01*
X130962941Y-68460000D01*
X131673059Y-68460000D01*
X132329121Y-68188250D01*
X132823001Y-67694370D01*
X132823001Y-67725628D01*
X132344750Y-68203879D01*
X132073000Y-68859941D01*
X132073000Y-69570059D01*
X132344750Y-70226121D01*
X132823001Y-70704372D01*
X132823001Y-70943280D01*
X132883053Y-71245182D01*
X132973000Y-71379798D01*
X132973001Y-71959920D01*
X131388847Y-73544075D01*
X131314951Y-73593451D01*
X131119348Y-73886191D01*
X131068000Y-74144336D01*
X131068000Y-74144339D01*
X131050663Y-74231500D01*
X131068000Y-74318661D01*
X131068001Y-81561120D01*
X130646653Y-81982468D01*
X130614135Y-81976000D01*
X130585477Y-81976000D01*
X130470009Y-81803191D01*
X130259965Y-81662843D01*
X130250700Y-81661000D01*
X130259965Y-81659157D01*
X130470009Y-81518809D01*
X130610357Y-81308765D01*
X130659640Y-81061000D01*
X130659640Y-79561000D01*
X130610357Y-79313235D01*
X130470009Y-79103191D01*
X130259965Y-78962843D01*
X130012200Y-78913560D01*
X128712200Y-78913560D01*
X128464435Y-78962843D01*
X128254391Y-79103191D01*
X128114043Y-79313235D01*
X128091613Y-79426000D01*
X127776761Y-79426000D01*
X127689600Y-79408663D01*
X127602439Y-79426000D01*
X127602435Y-79426000D01*
X127344290Y-79477348D01*
X127125445Y-79623576D01*
X127125444Y-79623577D01*
X127051551Y-79672951D01*
X127002177Y-79746844D01*
X126754610Y-79994412D01*
X126754610Y-78521187D01*
X126771947Y-78434026D01*
X126754610Y-78346865D01*
X126754610Y-78346861D01*
X126703262Y-78088716D01*
X126598379Y-77931748D01*
X126557034Y-77869871D01*
X126557033Y-77869870D01*
X126507659Y-77795977D01*
X126433766Y-77746603D01*
X122214809Y-73527647D01*
X122165433Y-73453751D01*
X121872694Y-73258148D01*
X121614549Y-73206800D01*
X121614545Y-73206800D01*
X121527384Y-73189463D01*
X121440223Y-73206800D01*
X92465379Y-73206800D01*
X91422018Y-72163440D01*
X92223000Y-72163440D01*
X92470765Y-72114157D01*
X92680809Y-71973809D01*
X92821157Y-71763765D01*
X92870440Y-71516000D01*
X92870440Y-70216000D01*
X92821157Y-69968235D01*
X92680809Y-69758191D01*
X92508000Y-69642723D01*
X92508000Y-67898277D01*
X92680809Y-67782809D01*
X92821157Y-67572765D01*
X92870440Y-67325000D01*
X92870440Y-66025000D01*
X92821157Y-65777235D01*
X92680809Y-65567191D01*
X92508000Y-65451723D01*
X92508000Y-65326934D01*
X92528276Y-65225000D01*
X92485151Y-65008193D01*
X92447948Y-64821163D01*
X92219193Y-64478807D01*
X92132776Y-64421065D01*
X91313937Y-63602227D01*
X91256193Y-63515807D01*
X90913837Y-63287052D01*
X90611935Y-63227000D01*
X90611934Y-63227000D01*
X90510000Y-63206724D01*
X90408066Y-63227000D01*
X80696134Y-63227000D01*
X80594199Y-63206724D01*
X80492265Y-63227000D01*
X80190363Y-63287052D01*
X79848007Y-63515807D01*
X79790265Y-63602224D01*
X78639025Y-64753465D01*
X78552608Y-64811207D01*
X78494866Y-64897624D01*
X78323852Y-65153564D01*
X78243524Y-65557400D01*
X77926000Y-65557400D01*
X77926000Y-57476675D01*
X78834000Y-57476675D01*
X78834000Y-58601325D01*
X79264385Y-59640367D01*
X80059633Y-60435615D01*
X81098675Y-60866000D01*
X82223325Y-60866000D01*
X83262367Y-60435615D01*
X84057615Y-59640367D01*
X84488000Y-58601325D01*
X84488000Y-57476675D01*
X84057615Y-56437633D01*
X83809760Y-56189778D01*
X132223000Y-56189778D01*
X132223000Y-56840222D01*
X132471914Y-57441153D01*
X132931847Y-57901086D01*
X133532778Y-58150000D01*
X134183222Y-58150000D01*
X134784153Y-57901086D01*
X135244086Y-57441153D01*
X135493000Y-56840222D01*
X135493000Y-56189778D01*
X137303000Y-56189778D01*
X137303000Y-56840222D01*
X137551914Y-57441153D01*
X138011847Y-57901086D01*
X138612778Y-58150000D01*
X139263222Y-58150000D01*
X139864153Y-57901086D01*
X140324086Y-57441153D01*
X140349082Y-57380805D01*
X175416411Y-57380805D01*
X176276000Y-58240395D01*
X177135589Y-57380805D01*
X183036411Y-57380805D01*
X183896000Y-58240395D01*
X184659719Y-57476675D01*
X190340000Y-57476675D01*
X190340000Y-58601325D01*
X190770385Y-59640367D01*
X191565633Y-60435615D01*
X192604675Y-60866000D01*
X193729325Y-60866000D01*
X194768367Y-60435615D01*
X195563615Y-59640367D01*
X195994000Y-58601325D01*
X195994000Y-57476675D01*
X195563615Y-56437633D01*
X194768367Y-55642385D01*
X193729325Y-55212000D01*
X192604675Y-55212000D01*
X191565633Y-55642385D01*
X190770385Y-56437633D01*
X190340000Y-57476675D01*
X184659719Y-57476675D01*
X184755589Y-57380805D01*
X184704434Y-57091220D01*
X184134394Y-56882993D01*
X183528060Y-56908761D01*
X183087566Y-57091220D01*
X183036411Y-57380805D01*
X177135589Y-57380805D01*
X177084434Y-57091220D01*
X176514394Y-56882993D01*
X175908060Y-56908761D01*
X175467566Y-57091220D01*
X175416411Y-57380805D01*
X140349082Y-57380805D01*
X140573000Y-56840222D01*
X140573000Y-56189778D01*
X140324086Y-55588847D01*
X139864153Y-55128914D01*
X139263222Y-54880000D01*
X138612778Y-54880000D01*
X138011847Y-55128914D01*
X137551914Y-55588847D01*
X137303000Y-56189778D01*
X135493000Y-56189778D01*
X135244086Y-55588847D01*
X134784153Y-55128914D01*
X134183222Y-54880000D01*
X133532778Y-54880000D01*
X132931847Y-55128914D01*
X132471914Y-55588847D01*
X132223000Y-56189778D01*
X83809760Y-56189778D01*
X83262367Y-55642385D01*
X82223325Y-55212000D01*
X81098675Y-55212000D01*
X80059633Y-55642385D01*
X79264385Y-56437633D01*
X78834000Y-57476675D01*
X77926000Y-57476675D01*
X77926000Y-54304000D01*
X196902001Y-54304000D01*
X196902000Y-111304000D01*
X196902000Y-111304000D01*
G37*
X196902000Y-111304000D02*
X118440200Y-111304000D01*
X118440200Y-107209875D01*
X120744000Y-107209875D01*
X120744000Y-108334525D01*
X121174385Y-109373567D01*
X121969633Y-110168815D01*
X123008675Y-110599200D01*
X124133325Y-110599200D01*
X125172367Y-110168815D01*
X125967615Y-109373567D01*
X126398000Y-108334525D01*
X126398000Y-107209875D01*
X125967615Y-106170833D01*
X125172367Y-105375585D01*
X124133325Y-104945200D01*
X123008675Y-104945200D01*
X121969633Y-105375585D01*
X121174385Y-106170833D01*
X120744000Y-107209875D01*
X118440200Y-107209875D01*
X118440200Y-91948000D01*
X120464146Y-91948000D01*
X120594301Y-92602333D01*
X120964951Y-93157049D01*
X121056170Y-93218000D01*
X120964951Y-93278951D01*
X120594301Y-93833667D01*
X120464146Y-94488000D01*
X120594301Y-95142333D01*
X120964951Y-95697049D01*
X121088687Y-95779727D01*
X120746519Y-96147855D01*
X120542271Y-96640976D01*
X120709245Y-96901000D01*
X122047000Y-96901000D01*
X122047000Y-96881000D01*
X122301000Y-96881000D01*
X122301000Y-96901000D01*
X123638755Y-96901000D01*
X123805729Y-96640976D01*
X123601481Y-96147855D01*
X123259313Y-95779727D01*
X123383049Y-95697049D01*
X123753699Y-95142333D01*
X123883854Y-94488000D01*
X123753699Y-93833667D01*
X123383049Y-93278951D01*
X123291830Y-93218000D01*
X123383049Y-93157049D01*
X123753699Y-92602333D01*
X123883854Y-91948000D01*
X123753699Y-91293667D01*
X123383049Y-90738951D01*
X122828333Y-90368301D01*
X122339168Y-90271000D01*
X122008832Y-90271000D01*
X121519667Y-90368301D01*
X120964951Y-90738951D01*
X120594301Y-91293667D01*
X120464146Y-91948000D01*
X118440200Y-91948000D01*
X118440200Y-85002000D01*
X120480799Y-85002000D01*
X120480799Y-86702000D01*
X120544984Y-87024679D01*
X120727767Y-87298233D01*
X121001321Y-87481016D01*
X121324000Y-87545201D01*
X123024000Y-87545201D01*
X123346679Y-87481016D01*
X123620233Y-87298233D01*
X123803016Y-87024679D01*
X123867201Y-86702000D01*
X123867201Y-85002000D01*
X123803016Y-84679321D01*
X123620233Y-84405767D01*
X123486179Y-84316195D01*
X123601481Y-84192145D01*
X123805729Y-83699024D01*
X123638755Y-83439000D01*
X122301000Y-83439000D01*
X122301000Y-83459000D01*
X122047000Y-83459000D01*
X122047000Y-83439000D01*
X120709245Y-83439000D01*
X120542271Y-83699024D01*
X120746519Y-84192145D01*
X120861821Y-84316195D01*
X120727767Y-84405767D01*
X120544984Y-84679321D01*
X120480799Y-85002000D01*
X118440200Y-85002000D01*
X118440200Y-80772000D01*
X120464146Y-80772000D01*
X120594301Y-81426333D01*
X120964951Y-81981049D01*
X121088687Y-82063727D01*
X120746519Y-82431855D01*
X120542271Y-82924976D01*
X120709245Y-83185000D01*
X122047000Y-83185000D01*
X122047000Y-83165000D01*
X122301000Y-83165000D01*
X122301000Y-83185000D01*
X123638755Y-83185000D01*
X123805729Y-82924976D01*
X123601481Y-82431855D01*
X123259313Y-82063727D01*
X123383049Y-81981049D01*
X123753699Y-81426333D01*
X123883854Y-80772000D01*
X123753699Y-80117667D01*
X123383049Y-79562951D01*
X122828333Y-79192301D01*
X122339168Y-79095000D01*
X122008832Y-79095000D01*
X121519667Y-79192301D01*
X120964951Y-79562951D01*
X120594301Y-80117667D01*
X120464146Y-80772000D01*
X118440200Y-80772000D01*
X118440200Y-77089000D01*
X118430533Y-77040399D01*
X118403003Y-76999197D01*
X118361801Y-76971667D01*
X118313200Y-76962000D01*
X77926000Y-76962000D01*
X77926000Y-74809024D01*
X82188271Y-74809024D01*
X82392519Y-75302145D01*
X82837996Y-75781421D01*
X83432975Y-76053738D01*
X83693000Y-75887443D01*
X83693000Y-74549000D01*
X83947000Y-74549000D01*
X83947000Y-75887443D01*
X84207025Y-76053738D01*
X84802004Y-75781421D01*
X85247481Y-75302145D01*
X85451729Y-74809024D01*
X85284755Y-74549000D01*
X83947000Y-74549000D01*
X83693000Y-74549000D01*
X82355245Y-74549000D01*
X82188271Y-74809024D01*
X77926000Y-74809024D01*
X77926000Y-65557400D01*
X78243524Y-65557400D01*
X78263801Y-65659339D01*
X78263800Y-69316265D01*
X78243524Y-69418200D01*
X78283254Y-69617934D01*
X78323852Y-69822036D01*
X78552607Y-70164393D01*
X78639027Y-70222137D01*
X80958665Y-72541776D01*
X81016407Y-72628193D01*
X81358763Y-72856948D01*
X81660665Y-72917000D01*
X81660670Y-72917000D01*
X81762599Y-72937275D01*
X81864529Y-72917000D01*
X82725571Y-72917000D01*
X82749375Y-72952625D01*
X82883063Y-73041952D01*
X82837996Y-73062579D01*
X82392519Y-73541855D01*
X82188271Y-74034976D01*
X82355245Y-74295000D01*
X83693000Y-74295000D01*
X83693000Y-74275000D01*
X83947000Y-74275000D01*
X83947000Y-74295000D01*
X85284755Y-74295000D01*
X85451729Y-74034976D01*
X85247481Y-73541855D01*
X84802004Y-73062579D01*
X84756937Y-73041952D01*
X84890625Y-72952625D01*
X85218839Y-72461418D01*
X85334092Y-71882000D01*
X85257511Y-71497000D01*
X85536222Y-71497000D01*
X89533377Y-75494156D01*
X89582751Y-75568049D01*
X89656644Y-75617423D01*
X89656645Y-75617424D01*
X89708639Y-75652165D01*
X89875490Y-75763652D01*
X90133635Y-75815000D01*
X90133639Y-75815000D01*
X90220799Y-75832337D01*
X90307959Y-75815000D01*
X120867622Y-75815000D01*
X124184601Y-79131980D01*
X124184600Y-87570407D01*
X124167263Y-87657568D01*
X124184600Y-87744729D01*
X124184600Y-87744732D01*
X124235948Y-88002877D01*
X124431551Y-88295617D01*
X124505447Y-88344993D01*
X132127009Y-95966556D01*
X132176383Y-96040449D01*
X132250276Y-96089823D01*
X132250277Y-96089824D01*
X132343834Y-96152337D01*
X132469122Y-96236052D01*
X132727267Y-96287400D01*
X132727271Y-96287400D01*
X132814431Y-96304737D01*
X132901591Y-96287400D01*
X135417475Y-96287400D01*
X134776974Y-96552704D01*
X134192704Y-97136974D01*
X133876500Y-97900359D01*
X133876500Y-98726641D01*
X134192704Y-99490026D01*
X134776974Y-100074296D01*
X135540359Y-100390500D01*
X136366641Y-100390500D01*
X137130026Y-100074296D01*
X137714296Y-99490026D01*
X138030500Y-98726641D01*
X138030500Y-97900359D01*
X137714296Y-97136974D01*
X137130026Y-96552704D01*
X136489525Y-96287400D01*
X141466089Y-96287400D01*
X137340890Y-100412600D01*
X132864311Y-100412600D01*
X131359937Y-98908227D01*
X131302193Y-98821807D01*
X130959837Y-98593052D01*
X130657935Y-98533000D01*
X130657934Y-98533000D01*
X130556000Y-98512724D01*
X130454066Y-98533000D01*
X123830402Y-98533000D01*
X123803016Y-98395321D01*
X123620233Y-98121767D01*
X123486179Y-98032195D01*
X123601481Y-97908145D01*
X123805729Y-97415024D01*
X123638755Y-97155000D01*
X122301000Y-97155000D01*
X122301000Y-97175000D01*
X122047000Y-97175000D01*
X122047000Y-97155000D01*
X120709245Y-97155000D01*
X120542271Y-97415024D01*
X120746519Y-97908145D01*
X120861821Y-98032195D01*
X120727767Y-98121767D01*
X120544984Y-98395321D01*
X120480799Y-98718000D01*
X120480799Y-100418000D01*
X120544984Y-100740679D01*
X120727767Y-101014233D01*
X121001321Y-101197016D01*
X121324000Y-101261201D01*
X123024000Y-101261201D01*
X123346679Y-101197016D01*
X123620233Y-101014233D01*
X123803016Y-100740679D01*
X123830402Y-100603000D01*
X130127290Y-100603000D01*
X131631665Y-102107376D01*
X131689407Y-102193793D01*
X132031763Y-102422548D01*
X132298786Y-102475662D01*
X132435600Y-102502876D01*
X132537534Y-102482600D01*
X137667666Y-102482600D01*
X137769600Y-102502876D01*
X137871534Y-102482600D01*
X137871535Y-102482600D01*
X138173437Y-102422548D01*
X138515793Y-102193793D01*
X138573537Y-102107373D01*
X140245760Y-100435150D01*
X144647000Y-100435150D01*
X144647000Y-100915900D01*
X144772903Y-101219858D01*
X145005542Y-101452497D01*
X145309499Y-101578400D01*
X145890250Y-101578400D01*
X146097000Y-101371650D01*
X146097000Y-100228400D01*
X144853750Y-100228400D01*
X144647000Y-100435150D01*
X140245760Y-100435150D01*
X141394010Y-99286900D01*
X144647000Y-99286900D01*
X144647000Y-99767650D01*
X144853750Y-99974400D01*
X146097000Y-99974400D01*
X146097000Y-98831150D01*
X145890250Y-98624400D01*
X145309499Y-98624400D01*
X145005542Y-98750303D01*
X144772903Y-98982942D01*
X144647000Y-99286900D01*
X141394010Y-99286900D01*
X143278311Y-97402600D01*
X158520821Y-97402600D01*
X154051000Y-101872422D01*
X151715825Y-99537247D01*
X151666449Y-99463351D01*
X151373710Y-99267748D01*
X151115565Y-99216400D01*
X151115561Y-99216400D01*
X151028400Y-99199063D01*
X150941239Y-99216400D01*
X150274696Y-99216400D01*
X150272157Y-99203635D01*
X150131809Y-98993591D01*
X149921765Y-98853243D01*
X149674000Y-98803960D01*
X148174000Y-98803960D01*
X147926235Y-98853243D01*
X147716191Y-98993591D01*
X147693546Y-99027482D01*
X147675097Y-98982942D01*
X147442458Y-98750303D01*
X147138501Y-98624400D01*
X146557750Y-98624400D01*
X146351000Y-98831150D01*
X146351000Y-99974400D01*
X146371000Y-99974400D01*
X146371000Y-100228400D01*
X146351000Y-100228400D01*
X146351000Y-101371650D01*
X146557750Y-101578400D01*
X147138501Y-101578400D01*
X147442458Y-101452497D01*
X147675097Y-101219858D01*
X147693546Y-101175318D01*
X147716191Y-101209209D01*
X147926235Y-101349557D01*
X148174000Y-101398840D01*
X149674000Y-101398840D01*
X149921765Y-101349557D01*
X150131809Y-101209209D01*
X150272157Y-100999165D01*
X150274696Y-100986400D01*
X150661822Y-100986400D01*
X153166000Y-103490579D01*
X153166000Y-104674987D01*
X152970570Y-104805570D01*
X152781000Y-105089281D01*
X152591430Y-104805570D01*
X152095725Y-104474350D01*
X151658598Y-104387400D01*
X151363402Y-104387400D01*
X150926275Y-104474350D01*
X150430570Y-104805570D01*
X150099350Y-105301275D01*
X149983041Y-105886000D01*
X150099350Y-106470725D01*
X150430570Y-106966430D01*
X150714281Y-107156000D01*
X150430570Y-107345570D01*
X150099350Y-107841275D01*
X149983041Y-108426000D01*
X150099350Y-109010725D01*
X150430570Y-109506430D01*
X150926275Y-109837650D01*
X151363402Y-109924600D01*
X151658598Y-109924600D01*
X152095725Y-109837650D01*
X152591430Y-109506430D01*
X152781000Y-109222719D01*
X152970570Y-109506430D01*
X153466275Y-109837650D01*
X153903402Y-109924600D01*
X154198598Y-109924600D01*
X154635725Y-109837650D01*
X155131430Y-109506430D01*
X155154703Y-109471600D01*
X155169716Y-109471600D01*
X155398692Y-109426054D01*
X155438909Y-109399182D01*
X155510570Y-109506430D01*
X156006275Y-109837650D01*
X156443402Y-109924600D01*
X156738598Y-109924600D01*
X157175725Y-109837650D01*
X157671430Y-109506430D01*
X157861000Y-109222719D01*
X158050570Y-109506430D01*
X158546275Y-109837650D01*
X158983402Y-109924600D01*
X159278598Y-109924600D01*
X159715725Y-109837650D01*
X160211430Y-109506430D01*
X160401000Y-109222719D01*
X160590570Y-109506430D01*
X161086275Y-109837650D01*
X161523402Y-109924600D01*
X161818598Y-109924600D01*
X162255725Y-109837650D01*
X162751430Y-109506430D01*
X162941000Y-109222719D01*
X163130570Y-109506430D01*
X163626275Y-109837650D01*
X164063402Y-109924600D01*
X164358598Y-109924600D01*
X164795725Y-109837650D01*
X165291430Y-109506430D01*
X165481000Y-109222719D01*
X165670570Y-109506430D01*
X166166275Y-109837650D01*
X166603402Y-109924600D01*
X166898598Y-109924600D01*
X167335725Y-109837650D01*
X167831430Y-109506430D01*
X168021000Y-109222719D01*
X168210570Y-109506430D01*
X168706275Y-109837650D01*
X169143402Y-109924600D01*
X169438598Y-109924600D01*
X169875725Y-109837650D01*
X170371430Y-109506430D01*
X170561000Y-109222719D01*
X170750570Y-109506430D01*
X171246275Y-109837650D01*
X171683402Y-109924600D01*
X171978598Y-109924600D01*
X172415725Y-109837650D01*
X172911430Y-109506430D01*
X173101000Y-109222719D01*
X173290570Y-109506430D01*
X173786275Y-109837650D01*
X174223402Y-109924600D01*
X174518598Y-109924600D01*
X174955725Y-109837650D01*
X175451430Y-109506430D01*
X175782650Y-109010725D01*
X175898959Y-108426000D01*
X175782650Y-107841275D01*
X175456349Y-107352932D01*
X175482365Y-107347757D01*
X175692409Y-107207409D01*
X175826536Y-107006675D01*
X190340000Y-107006675D01*
X190340000Y-108131325D01*
X190770385Y-109170367D01*
X191565633Y-109965615D01*
X192604675Y-110396000D01*
X193729325Y-110396000D01*
X194768367Y-109965615D01*
X195563615Y-109170367D01*
X195994000Y-108131325D01*
X195994000Y-107006675D01*
X195563615Y-105967633D01*
X194768367Y-105172385D01*
X193729325Y-104742000D01*
X192604675Y-104742000D01*
X191565633Y-105172385D01*
X190770385Y-105967633D01*
X190340000Y-107006675D01*
X175826536Y-107006675D01*
X175832757Y-106997365D01*
X175882040Y-106749600D01*
X175882040Y-105022400D01*
X175832757Y-104774635D01*
X175692409Y-104564591D01*
X175482365Y-104424243D01*
X175234600Y-104374960D01*
X173507400Y-104374960D01*
X173259635Y-104424243D01*
X173049591Y-104564591D01*
X172909243Y-104774635D01*
X172904068Y-104800651D01*
X172415725Y-104474350D01*
X171978598Y-104387400D01*
X171683402Y-104387400D01*
X171246275Y-104474350D01*
X170750570Y-104805570D01*
X170561000Y-105089281D01*
X170371430Y-104805570D01*
X169875725Y-104474350D01*
X169438598Y-104387400D01*
X169143402Y-104387400D01*
X168706275Y-104474350D01*
X168210570Y-104805570D01*
X168021000Y-105089281D01*
X167831430Y-104805570D01*
X167335725Y-104474350D01*
X166898598Y-104387400D01*
X166603402Y-104387400D01*
X166166275Y-104474350D01*
X165670570Y-104805570D01*
X165481000Y-105089281D01*
X165291430Y-104805570D01*
X164795725Y-104474350D01*
X164358598Y-104387400D01*
X164063402Y-104387400D01*
X163626275Y-104474350D01*
X163130570Y-104805570D01*
X162941000Y-105089281D01*
X162751430Y-104805570D01*
X162255725Y-104474350D01*
X161818598Y-104387400D01*
X161523402Y-104387400D01*
X161286000Y-104434622D01*
X161286000Y-100747378D01*
X161430739Y-100602640D01*
X173104870Y-100602640D01*
X173192031Y-100619977D01*
X173279192Y-100602640D01*
X173279196Y-100602640D01*
X173537341Y-100551292D01*
X173830080Y-100355689D01*
X173879456Y-100281793D01*
X176260890Y-97900359D01*
X176866000Y-97900359D01*
X176866000Y-98726641D01*
X177182204Y-99490026D01*
X177766474Y-100074296D01*
X178529859Y-100390500D01*
X179356141Y-100390500D01*
X180119526Y-100074296D01*
X180703796Y-99490026D01*
X181020000Y-98726641D01*
X181020000Y-97900359D01*
X180703796Y-97136974D01*
X180119526Y-96552704D01*
X179356141Y-96236500D01*
X178529859Y-96236500D01*
X177766474Y-96552704D01*
X177182204Y-97136974D01*
X176866000Y-97900359D01*
X176260890Y-97900359D01*
X177030386Y-97130864D01*
X177104279Y-97081490D01*
X177189851Y-96953424D01*
X177299882Y-96788751D01*
X177303326Y-96771436D01*
X177351230Y-96530606D01*
X177351230Y-96530602D01*
X177368567Y-96443441D01*
X177351230Y-96356280D01*
X177351230Y-87458350D01*
X182453556Y-82356025D01*
X182527449Y-82306651D01*
X182592808Y-82208836D01*
X182723052Y-82013912D01*
X182724564Y-82006309D01*
X182774400Y-81755767D01*
X182774400Y-81755763D01*
X182791737Y-81668602D01*
X182774400Y-81581441D01*
X182774400Y-76134759D01*
X182791737Y-76047599D01*
X182774400Y-75960439D01*
X182774400Y-75960435D01*
X182723052Y-75702290D01*
X182607392Y-75529193D01*
X182576824Y-75483445D01*
X182576823Y-75483444D01*
X182527449Y-75409551D01*
X182453556Y-75360177D01*
X180767620Y-73674242D01*
X180767620Y-72246009D01*
X180784957Y-72158849D01*
X180767620Y-72071689D01*
X180767620Y-72071685D01*
X180716272Y-71813540D01*
X180599698Y-71639076D01*
X180586848Y-71619843D01*
X187965799Y-71619843D01*
X188132595Y-71882000D01*
X189484000Y-71882000D01*
X189484000Y-70529918D01*
X189221841Y-70363791D01*
X188621870Y-70637950D01*
X188172485Y-71120839D01*
X187965799Y-71619843D01*
X180586848Y-71619843D01*
X180570044Y-71594695D01*
X180570043Y-71594694D01*
X180520669Y-71520801D01*
X180446776Y-71471427D01*
X178002939Y-69027591D01*
X178189200Y-69064640D01*
X179689200Y-69064640D01*
X179936965Y-69015357D01*
X180147009Y-68875009D01*
X180287357Y-68664965D01*
X180289200Y-68655700D01*
X180291043Y-68664965D01*
X180431391Y-68875009D01*
X180641435Y-69015357D01*
X180889200Y-69064640D01*
X182389200Y-69064640D01*
X182636965Y-69015357D01*
X182847009Y-68875009D01*
X182895659Y-68802200D01*
X190528490Y-68802200D01*
X191116001Y-69389712D01*
X191116000Y-70898214D01*
X191070570Y-70928570D01*
X190986991Y-71053654D01*
X190600130Y-70637950D01*
X190000159Y-70363791D01*
X189738000Y-70529918D01*
X189738000Y-71882000D01*
X189758000Y-71882000D01*
X189758000Y-72136000D01*
X189738000Y-72136000D01*
X189738000Y-72156000D01*
X189484000Y-72156000D01*
X189484000Y-72136000D01*
X188132595Y-72136000D01*
X187965799Y-72398157D01*
X188172485Y-72897161D01*
X188621870Y-73380050D01*
X188646325Y-73391225D01*
X188530570Y-73468570D01*
X188199350Y-73964275D01*
X188083041Y-74549000D01*
X188199350Y-75133725D01*
X188530570Y-75629430D01*
X188814281Y-75819000D01*
X188530570Y-76008570D01*
X188199350Y-76504275D01*
X188083041Y-77089000D01*
X188199350Y-77673725D01*
X188530570Y-78169430D01*
X188814281Y-78359000D01*
X188530570Y-78548570D01*
X188199350Y-79044275D01*
X188083041Y-79629000D01*
X188199350Y-80213725D01*
X188530570Y-80709430D01*
X188814281Y-80899000D01*
X188530570Y-81088570D01*
X188199350Y-81584275D01*
X188083041Y-82169000D01*
X188199350Y-82753725D01*
X188530570Y-83249430D01*
X188814281Y-83439000D01*
X188530570Y-83628570D01*
X188199350Y-84124275D01*
X188083041Y-84709000D01*
X188199350Y-85293725D01*
X188530570Y-85789430D01*
X188814281Y-85979000D01*
X188530570Y-86168570D01*
X188199350Y-86664275D01*
X188083041Y-87249000D01*
X188199350Y-87833725D01*
X188530570Y-88329430D01*
X189026275Y-88660650D01*
X189463402Y-88747600D01*
X189758598Y-88747600D01*
X190195725Y-88660650D01*
X190684068Y-88334349D01*
X190689243Y-88360365D01*
X190829591Y-88570409D01*
X191039635Y-88710757D01*
X191287400Y-88760040D01*
X193014600Y-88760040D01*
X193262365Y-88710757D01*
X193472409Y-88570409D01*
X193612757Y-88360365D01*
X193662040Y-88112600D01*
X193662040Y-86385400D01*
X193612757Y-86137635D01*
X193472409Y-85927591D01*
X193262365Y-85787243D01*
X193236349Y-85782068D01*
X193562650Y-85293725D01*
X193678959Y-84709000D01*
X193562650Y-84124275D01*
X193231430Y-83628570D01*
X192947719Y-83439000D01*
X193231430Y-83249430D01*
X193562650Y-82753725D01*
X193678959Y-82169000D01*
X193562650Y-81584275D01*
X193231430Y-81088570D01*
X192947719Y-80899000D01*
X193231430Y-80709430D01*
X193562650Y-80213725D01*
X193678959Y-79629000D01*
X193562650Y-79044275D01*
X193231430Y-78548570D01*
X192947719Y-78359000D01*
X193231430Y-78169430D01*
X193562650Y-77673725D01*
X193678959Y-77089000D01*
X193562650Y-76504275D01*
X193231430Y-76008570D01*
X192947719Y-75819000D01*
X193231430Y-75629430D01*
X193562650Y-75133725D01*
X193678959Y-74549000D01*
X193562650Y-73964275D01*
X193231430Y-73468570D01*
X192947719Y-73279000D01*
X193231430Y-73089430D01*
X193562650Y-72593725D01*
X193678959Y-72009000D01*
X193562650Y-71424275D01*
X193231430Y-70928570D01*
X193186000Y-70898215D01*
X193186000Y-69062934D01*
X193206276Y-68960999D01*
X193125948Y-68557163D01*
X193091377Y-68505424D01*
X192897193Y-68214807D01*
X192810776Y-68157065D01*
X191710336Y-67056626D01*
X191710334Y-67056623D01*
X191710331Y-67056620D01*
X191652592Y-66970208D01*
X191566180Y-66912469D01*
X185969937Y-61316227D01*
X185912193Y-61229807D01*
X185569837Y-61001052D01*
X185267935Y-60941000D01*
X185267934Y-60941000D01*
X185166000Y-60920724D01*
X185064066Y-60941000D01*
X169105233Y-60941000D01*
X169043387Y-60899676D01*
X167935937Y-59792227D01*
X167878193Y-59705807D01*
X167535837Y-59477052D01*
X167446064Y-59459195D01*
X175416411Y-59459195D01*
X175467566Y-59748780D01*
X176037606Y-59957007D01*
X176643940Y-59931239D01*
X177084434Y-59748780D01*
X177135589Y-59459195D01*
X183036411Y-59459195D01*
X183087566Y-59748780D01*
X183657606Y-59957007D01*
X184263940Y-59931239D01*
X184704434Y-59748780D01*
X184755589Y-59459195D01*
X183896000Y-58599605D01*
X183036411Y-59459195D01*
X177135589Y-59459195D01*
X176276000Y-58599605D01*
X175416411Y-59459195D01*
X167446064Y-59459195D01*
X167233935Y-59417000D01*
X167233934Y-59417000D01*
X167132000Y-59396724D01*
X167030066Y-59417000D01*
X158470934Y-59417000D01*
X158368999Y-59396724D01*
X158267065Y-59417000D01*
X157965163Y-59477052D01*
X157622807Y-59705807D01*
X157565065Y-59792224D01*
X156244890Y-61112400D01*
X156175111Y-61112400D01*
X155362937Y-60300227D01*
X155305193Y-60213807D01*
X154962837Y-59985052D01*
X154660935Y-59925000D01*
X154660934Y-59925000D01*
X154559000Y-59904724D01*
X154457066Y-59925000D01*
X147929934Y-59925000D01*
X147828000Y-59904724D01*
X147726065Y-59925000D01*
X147424163Y-59985052D01*
X147081807Y-60213807D01*
X147024065Y-60300224D01*
X146279225Y-61045065D01*
X146192808Y-61102807D01*
X146135066Y-61189224D01*
X145964052Y-61445164D01*
X145883724Y-61849000D01*
X145904001Y-61950939D01*
X145904001Y-62719000D01*
X134472805Y-62719000D01*
X132308031Y-60554227D01*
X132250287Y-60467807D01*
X131907931Y-60239052D01*
X131606029Y-60179000D01*
X131606028Y-60179000D01*
X131504094Y-60158724D01*
X131402160Y-60179000D01*
X117263839Y-60179000D01*
X117161905Y-60158724D01*
X117059970Y-60179000D01*
X116758068Y-60239052D01*
X116415712Y-60467807D01*
X116357968Y-60554227D01*
X115731266Y-61180929D01*
X115560252Y-61436869D01*
X115479924Y-61840705D01*
X115560252Y-62244541D01*
X115575885Y-62267937D01*
X113432044Y-64411778D01*
X113420863Y-63789903D01*
X113119441Y-63062205D01*
X112762302Y-62931303D01*
X111431605Y-64262000D01*
X111445748Y-64276143D01*
X111266143Y-64455748D01*
X111252000Y-64441605D01*
X111237858Y-64455748D01*
X111058253Y-64276143D01*
X111072395Y-64262000D01*
X109741698Y-62931303D01*
X109384559Y-63062205D01*
X109067568Y-63868173D01*
X109083137Y-64734097D01*
X109384559Y-65461795D01*
X109741696Y-65592696D01*
X109657391Y-65677001D01*
X109406580Y-65677001D01*
X108519625Y-64790047D01*
X108470249Y-64716151D01*
X108177510Y-64520548D01*
X107933454Y-64472002D01*
X107930357Y-64456435D01*
X107790009Y-64246391D01*
X107579965Y-64106043D01*
X107332200Y-64056760D01*
X105832200Y-64056760D01*
X105584435Y-64106043D01*
X105374391Y-64246391D01*
X105234043Y-64456435D01*
X105232200Y-64465700D01*
X105230357Y-64456435D01*
X105090009Y-64246391D01*
X104879965Y-64106043D01*
X104767200Y-64083613D01*
X104767200Y-62751698D01*
X109921303Y-62751698D01*
X111252000Y-64082395D01*
X112582697Y-62751698D01*
X112451795Y-62394559D01*
X111645827Y-62077568D01*
X110779903Y-62093137D01*
X110052205Y-62394559D01*
X109921303Y-62751698D01*
X104767200Y-62751698D01*
X104767200Y-60134707D01*
X105372267Y-59884080D01*
X105400396Y-59855951D01*
X105565542Y-60021097D01*
X105869499Y-60147000D01*
X106600250Y-60147000D01*
X106807000Y-59940250D01*
X106807000Y-58547000D01*
X107061000Y-58547000D01*
X107061000Y-59940250D01*
X107267750Y-60147000D01*
X107998501Y-60147000D01*
X108302458Y-60021097D01*
X108535097Y-59788458D01*
X108661000Y-59484500D01*
X108661000Y-58753750D01*
X108454250Y-58547000D01*
X107061000Y-58547000D01*
X106807000Y-58547000D01*
X106787000Y-58547000D01*
X106787000Y-58293000D01*
X106807000Y-58293000D01*
X106807000Y-56899750D01*
X107061000Y-56899750D01*
X107061000Y-58293000D01*
X108454250Y-58293000D01*
X108565644Y-58181606D01*
X174738993Y-58181606D01*
X174764761Y-58787940D01*
X174947220Y-59228434D01*
X175236805Y-59279589D01*
X176096395Y-58420000D01*
X176455605Y-58420000D01*
X177315195Y-59279589D01*
X177604780Y-59228434D01*
X177813007Y-58658394D01*
X177792745Y-58181606D01*
X182358993Y-58181606D01*
X182384761Y-58787940D01*
X182567220Y-59228434D01*
X182856805Y-59279589D01*
X183716395Y-58420000D01*
X184075605Y-58420000D01*
X184935195Y-59279589D01*
X185224780Y-59228434D01*
X185433007Y-58658394D01*
X185407239Y-58052060D01*
X185224780Y-57611566D01*
X184935195Y-57560411D01*
X184075605Y-58420000D01*
X183716395Y-58420000D01*
X182856805Y-57560411D01*
X182567220Y-57611566D01*
X182358993Y-58181606D01*
X177792745Y-58181606D01*
X177787239Y-58052060D01*
X177604780Y-57611566D01*
X177315195Y-57560411D01*
X176455605Y-58420000D01*
X176096395Y-58420000D01*
X175236805Y-57560411D01*
X174947220Y-57611566D01*
X174738993Y-58181606D01*
X108565644Y-58181606D01*
X108661000Y-58086250D01*
X108661000Y-57355500D01*
X108535097Y-57051542D01*
X108302458Y-56818903D01*
X107998501Y-56693000D01*
X107267750Y-56693000D01*
X107061000Y-56899750D01*
X106807000Y-56899750D01*
X106600250Y-56693000D01*
X105869499Y-56693000D01*
X105565542Y-56818903D01*
X105400396Y-56984049D01*
X105372267Y-56955920D01*
X104737522Y-56693000D01*
X104050478Y-56693000D01*
X103415733Y-56955920D01*
X102929920Y-57441733D01*
X102667000Y-58076478D01*
X102667000Y-58763522D01*
X102929920Y-59398267D01*
X102997201Y-59465548D01*
X102997200Y-64083613D01*
X102884435Y-64106043D01*
X102688200Y-64237164D01*
X102688200Y-63536361D01*
X102705537Y-63449200D01*
X102688200Y-63362039D01*
X102688200Y-63362035D01*
X102636852Y-63103890D01*
X102567541Y-63000159D01*
X102490624Y-62885045D01*
X102490623Y-62885044D01*
X102441249Y-62811151D01*
X102367356Y-62761777D01*
X99752578Y-60147000D01*
X100378501Y-60147000D01*
X100682458Y-60021097D01*
X100915097Y-59788458D01*
X101041000Y-59484500D01*
X101041000Y-58753750D01*
X100834250Y-58547000D01*
X99441000Y-58547000D01*
X99441000Y-58567000D01*
X99187000Y-58567000D01*
X99187000Y-58547000D01*
X99167000Y-58547000D01*
X99167000Y-58293000D01*
X99187000Y-58293000D01*
X99187000Y-56899750D01*
X99441000Y-56899750D01*
X99441000Y-58293000D01*
X100834250Y-58293000D01*
X101041000Y-58086250D01*
X101041000Y-57355500D01*
X100915097Y-57051542D01*
X100682458Y-56818903D01*
X100378501Y-56693000D01*
X99647750Y-56693000D01*
X99441000Y-56899750D01*
X99187000Y-56899750D01*
X98980250Y-56693000D01*
X98249499Y-56693000D01*
X97945542Y-56818903D01*
X97780396Y-56984049D01*
X97752267Y-56955920D01*
X97117522Y-56693000D01*
X96430478Y-56693000D01*
X95795733Y-56955920D01*
X95309920Y-57441733D01*
X95047000Y-58076478D01*
X95047000Y-58763522D01*
X95309920Y-59398267D01*
X95795733Y-59884080D01*
X96430478Y-60147000D01*
X96769654Y-60147000D01*
X96927807Y-60383692D01*
X97270163Y-60612447D01*
X97673999Y-60692775D01*
X97775089Y-60672667D01*
X100918200Y-63815779D01*
X100918201Y-65848035D01*
X100900863Y-65935200D01*
X100969548Y-66280509D01*
X101115776Y-66499354D01*
X101115778Y-66499356D01*
X101165152Y-66573249D01*
X101239045Y-66622623D01*
X102673759Y-68057337D01*
X102534043Y-68266435D01*
X102484760Y-68514200D01*
X102484760Y-69814200D01*
X102502781Y-69904800D01*
X99926298Y-69904800D01*
X97627698Y-67606201D01*
X99275000Y-67606201D01*
X99597679Y-67542016D01*
X99871233Y-67359233D01*
X100054016Y-67085679D01*
X100118201Y-66763000D01*
X100118201Y-65063000D01*
X100054016Y-64740321D01*
X99871233Y-64466767D01*
X99597679Y-64283984D01*
X99275000Y-64219799D01*
X97575000Y-64219799D01*
X97252321Y-64283984D01*
X96978767Y-64466767D01*
X96904785Y-64577489D01*
X96539333Y-64333301D01*
X96050168Y-64236000D01*
X95719832Y-64236000D01*
X95230667Y-64333301D01*
X94675951Y-64703951D01*
X94305301Y-65258667D01*
X94175146Y-65913000D01*
X94305301Y-66567333D01*
X94675951Y-67122049D01*
X95031274Y-67359468D01*
X95051348Y-67460390D01*
X95246951Y-67753130D01*
X95320847Y-67802506D01*
X98872296Y-71353956D01*
X98921670Y-71427849D01*
X98995563Y-71477223D01*
X98995564Y-71477224D01*
X99060782Y-71520801D01*
X99214409Y-71623452D01*
X99472554Y-71674800D01*
X99472558Y-71674800D01*
X99559718Y-71692137D01*
X99646878Y-71674800D01*
X104559441Y-71674800D01*
X104646602Y-71692137D01*
X104733763Y-71674800D01*
X104733767Y-71674800D01*
X104991912Y-71623452D01*
X105284651Y-71427849D01*
X105334027Y-71353953D01*
X105746354Y-70941626D01*
X105820250Y-70892250D01*
X106015853Y-70599511D01*
X106043277Y-70461640D01*
X107332200Y-70461640D01*
X107579965Y-70412357D01*
X107790009Y-70272009D01*
X107930357Y-70061965D01*
X107932896Y-70049200D01*
X111114039Y-70049200D01*
X111201200Y-70066537D01*
X111288361Y-70049200D01*
X111288365Y-70049200D01*
X111546510Y-69997852D01*
X111839249Y-69802249D01*
X111888625Y-69728353D01*
X112932461Y-68684517D01*
X114587000Y-68684517D01*
X114587000Y-69239483D01*
X114799376Y-69752204D01*
X115191796Y-70144624D01*
X115704517Y-70357000D01*
X116259483Y-70357000D01*
X116772204Y-70144624D01*
X117164624Y-69752204D01*
X117252000Y-69541260D01*
X117339376Y-69752204D01*
X117731796Y-70144624D01*
X118244517Y-70357000D01*
X118799483Y-70357000D01*
X119312204Y-70144624D01*
X119704624Y-69752204D01*
X119917000Y-69239483D01*
X119917000Y-68859941D01*
X126993000Y-68859941D01*
X126993000Y-69570059D01*
X127264750Y-70226121D01*
X127766879Y-70728250D01*
X128422941Y-71000000D01*
X129133059Y-71000000D01*
X129789121Y-70728250D01*
X130291250Y-70226121D01*
X130563000Y-69570059D01*
X130563000Y-68859941D01*
X130291250Y-68203879D01*
X129789121Y-67701750D01*
X129133059Y-67430000D01*
X128422941Y-67430000D01*
X127766879Y-67701750D01*
X127264750Y-68203879D01*
X126993000Y-68859941D01*
X119917000Y-68859941D01*
X119917000Y-68684517D01*
X119704624Y-68171796D01*
X119494828Y-67962000D01*
X119704624Y-67752204D01*
X119917000Y-67239483D01*
X119917000Y-66684517D01*
X119704624Y-66171796D01*
X119312204Y-65779376D01*
X119295126Y-65772302D01*
X121921303Y-65772302D01*
X122052205Y-66129441D01*
X122858173Y-66446432D01*
X123724097Y-66430863D01*
X124451795Y-66129441D01*
X124582697Y-65772302D01*
X123252000Y-64441605D01*
X121921303Y-65772302D01*
X119295126Y-65772302D01*
X118799483Y-65567000D01*
X118244517Y-65567000D01*
X117731796Y-65779376D01*
X117371313Y-66139859D01*
X117361674Y-66116589D01*
X117065722Y-66057883D01*
X116161605Y-66962000D01*
X117065722Y-67866117D01*
X117361674Y-67807411D01*
X117370542Y-67783370D01*
X117549172Y-67962000D01*
X117339376Y-68171796D01*
X117252000Y-68382740D01*
X117164624Y-68171796D01*
X116772204Y-67779376D01*
X116511985Y-67671590D01*
X115982000Y-67141605D01*
X115452015Y-67671590D01*
X115191796Y-67779376D01*
X114799376Y-68171796D01*
X114587000Y-68684517D01*
X112932461Y-68684517D01*
X114403655Y-67213323D01*
X114408627Y-67339781D01*
X114602326Y-67807411D01*
X114898278Y-67866117D01*
X115802395Y-66962000D01*
X115788253Y-66947858D01*
X115967858Y-66768253D01*
X115982000Y-66782395D01*
X116886117Y-65878278D01*
X116827411Y-65582326D01*
X116248284Y-65368694D01*
X118119567Y-63497412D01*
X118193460Y-63448038D01*
X118258859Y-63350163D01*
X118354702Y-63206724D01*
X118389063Y-63155299D01*
X118410205Y-63049010D01*
X121420559Y-63049010D01*
X121384559Y-63062205D01*
X121067568Y-63868173D01*
X121083137Y-64734097D01*
X121384559Y-65461795D01*
X121741698Y-65592697D01*
X123072395Y-64262000D01*
X123058253Y-64247858D01*
X123237858Y-64068253D01*
X123252000Y-64082395D01*
X123266143Y-64068253D01*
X123445748Y-64247858D01*
X123431605Y-64262000D01*
X124762302Y-65592697D01*
X125119441Y-65461795D01*
X125436432Y-64655827D01*
X125420863Y-63789903D01*
X125119441Y-63062205D01*
X125083441Y-63049010D01*
X130707632Y-63049010D01*
X132973000Y-65314379D01*
X132973000Y-66006094D01*
X132831250Y-65663879D01*
X132329121Y-65161750D01*
X131673059Y-64890000D01*
X130962941Y-64890000D01*
X130306879Y-65161750D01*
X129804750Y-65663879D01*
X129533000Y-66319941D01*
X129533000Y-67030059D01*
X129804750Y-67686121D01*
X130306879Y-68188250D01*
X130962941Y-68460000D01*
X131673059Y-68460000D01*
X132329121Y-68188250D01*
X132823001Y-67694370D01*
X132823001Y-67725628D01*
X132344750Y-68203879D01*
X132073000Y-68859941D01*
X132073000Y-69570059D01*
X132344750Y-70226121D01*
X132823001Y-70704372D01*
X132823001Y-70943280D01*
X132883053Y-71245182D01*
X132973000Y-71379798D01*
X132973001Y-71959920D01*
X131388847Y-73544075D01*
X131314951Y-73593451D01*
X131119348Y-73886191D01*
X131068000Y-74144336D01*
X131068000Y-74144339D01*
X131050663Y-74231500D01*
X131068000Y-74318661D01*
X131068001Y-81561120D01*
X130646653Y-81982468D01*
X130614135Y-81976000D01*
X130585477Y-81976000D01*
X130470009Y-81803191D01*
X130259965Y-81662843D01*
X130250700Y-81661000D01*
X130259965Y-81659157D01*
X130470009Y-81518809D01*
X130610357Y-81308765D01*
X130659640Y-81061000D01*
X130659640Y-79561000D01*
X130610357Y-79313235D01*
X130470009Y-79103191D01*
X130259965Y-78962843D01*
X130012200Y-78913560D01*
X128712200Y-78913560D01*
X128464435Y-78962843D01*
X128254391Y-79103191D01*
X128114043Y-79313235D01*
X128091613Y-79426000D01*
X127776761Y-79426000D01*
X127689600Y-79408663D01*
X127602439Y-79426000D01*
X127602435Y-79426000D01*
X127344290Y-79477348D01*
X127125445Y-79623576D01*
X127125444Y-79623577D01*
X127051551Y-79672951D01*
X127002177Y-79746844D01*
X126754610Y-79994412D01*
X126754610Y-78521187D01*
X126771947Y-78434026D01*
X126754610Y-78346865D01*
X126754610Y-78346861D01*
X126703262Y-78088716D01*
X126598379Y-77931748D01*
X126557034Y-77869871D01*
X126557033Y-77869870D01*
X126507659Y-77795977D01*
X126433766Y-77746603D01*
X122214809Y-73527647D01*
X122165433Y-73453751D01*
X121872694Y-73258148D01*
X121614549Y-73206800D01*
X121614545Y-73206800D01*
X121527384Y-73189463D01*
X121440223Y-73206800D01*
X92465379Y-73206800D01*
X91422018Y-72163440D01*
X92223000Y-72163440D01*
X92470765Y-72114157D01*
X92680809Y-71973809D01*
X92821157Y-71763765D01*
X92870440Y-71516000D01*
X92870440Y-70216000D01*
X92821157Y-69968235D01*
X92680809Y-69758191D01*
X92508000Y-69642723D01*
X92508000Y-67898277D01*
X92680809Y-67782809D01*
X92821157Y-67572765D01*
X92870440Y-67325000D01*
X92870440Y-66025000D01*
X92821157Y-65777235D01*
X92680809Y-65567191D01*
X92508000Y-65451723D01*
X92508000Y-65326934D01*
X92528276Y-65225000D01*
X92485151Y-65008193D01*
X92447948Y-64821163D01*
X92219193Y-64478807D01*
X92132776Y-64421065D01*
X91313937Y-63602227D01*
X91256193Y-63515807D01*
X90913837Y-63287052D01*
X90611935Y-63227000D01*
X90611934Y-63227000D01*
X90510000Y-63206724D01*
X90408066Y-63227000D01*
X80696134Y-63227000D01*
X80594199Y-63206724D01*
X80492265Y-63227000D01*
X80190363Y-63287052D01*
X79848007Y-63515807D01*
X79790265Y-63602224D01*
X78639025Y-64753465D01*
X78552608Y-64811207D01*
X78494866Y-64897624D01*
X78323852Y-65153564D01*
X78243524Y-65557400D01*
X77926000Y-65557400D01*
X77926000Y-57476675D01*
X78834000Y-57476675D01*
X78834000Y-58601325D01*
X79264385Y-59640367D01*
X80059633Y-60435615D01*
X81098675Y-60866000D01*
X82223325Y-60866000D01*
X83262367Y-60435615D01*
X84057615Y-59640367D01*
X84488000Y-58601325D01*
X84488000Y-57476675D01*
X84057615Y-56437633D01*
X83809760Y-56189778D01*
X132223000Y-56189778D01*
X132223000Y-56840222D01*
X132471914Y-57441153D01*
X132931847Y-57901086D01*
X133532778Y-58150000D01*
X134183222Y-58150000D01*
X134784153Y-57901086D01*
X135244086Y-57441153D01*
X135493000Y-56840222D01*
X135493000Y-56189778D01*
X137303000Y-56189778D01*
X137303000Y-56840222D01*
X137551914Y-57441153D01*
X138011847Y-57901086D01*
X138612778Y-58150000D01*
X139263222Y-58150000D01*
X139864153Y-57901086D01*
X140324086Y-57441153D01*
X140349082Y-57380805D01*
X175416411Y-57380805D01*
X176276000Y-58240395D01*
X177135589Y-57380805D01*
X183036411Y-57380805D01*
X183896000Y-58240395D01*
X184659719Y-57476675D01*
X190340000Y-57476675D01*
X190340000Y-58601325D01*
X190770385Y-59640367D01*
X191565633Y-60435615D01*
X192604675Y-60866000D01*
X193729325Y-60866000D01*
X194768367Y-60435615D01*
X195563615Y-59640367D01*
X195994000Y-58601325D01*
X195994000Y-57476675D01*
X195563615Y-56437633D01*
X194768367Y-55642385D01*
X193729325Y-55212000D01*
X192604675Y-55212000D01*
X191565633Y-55642385D01*
X190770385Y-56437633D01*
X190340000Y-57476675D01*
X184659719Y-57476675D01*
X184755589Y-57380805D01*
X184704434Y-57091220D01*
X184134394Y-56882993D01*
X183528060Y-56908761D01*
X183087566Y-57091220D01*
X183036411Y-57380805D01*
X177135589Y-57380805D01*
X177084434Y-57091220D01*
X176514394Y-56882993D01*
X175908060Y-56908761D01*
X175467566Y-57091220D01*
X175416411Y-57380805D01*
X140349082Y-57380805D01*
X140573000Y-56840222D01*
X140573000Y-56189778D01*
X140324086Y-55588847D01*
X139864153Y-55128914D01*
X139263222Y-54880000D01*
X138612778Y-54880000D01*
X138011847Y-55128914D01*
X137551914Y-55588847D01*
X137303000Y-56189778D01*
X135493000Y-56189778D01*
X135244086Y-55588847D01*
X134784153Y-55128914D01*
X134183222Y-54880000D01*
X133532778Y-54880000D01*
X132931847Y-55128914D01*
X132471914Y-55588847D01*
X132223000Y-56189778D01*
X83809760Y-56189778D01*
X83262367Y-55642385D01*
X82223325Y-55212000D01*
X81098675Y-55212000D01*
X80059633Y-55642385D01*
X79264385Y-56437633D01*
X78834000Y-57476675D01*
X77926000Y-57476675D01*
X77926000Y-54304000D01*
X196902001Y-54304000D01*
X196902000Y-111304000D01*
G36*
X156461560Y-76486000D02*
X156461560Y-77986000D01*
X156510843Y-78233765D01*
X156583276Y-78342169D01*
X156407903Y-78517542D01*
X156282000Y-78821499D01*
X156282000Y-79402250D01*
X156488750Y-79609000D01*
X157607000Y-79609000D01*
X157607000Y-79589000D01*
X157861000Y-79589000D01*
X157861000Y-79609000D01*
X158979250Y-79609000D01*
X159186000Y-79402250D01*
X159186000Y-78821499D01*
X159060097Y-78517542D01*
X158884724Y-78342169D01*
X158926386Y-78279816D01*
X158984000Y-78291276D01*
X159085934Y-78271000D01*
X159085935Y-78271000D01*
X159387837Y-78210948D01*
X159552386Y-78101000D01*
X164733422Y-78101000D01*
X164881000Y-78248578D01*
X164881000Y-78477657D01*
X165069018Y-78931571D01*
X165416429Y-79278982D01*
X165870343Y-79467000D01*
X166361657Y-79467000D01*
X166815571Y-79278982D01*
X167162982Y-78931571D01*
X167351000Y-78477657D01*
X167351000Y-78375578D01*
X168186002Y-77540577D01*
X168186002Y-78432836D01*
X168168664Y-78520001D01*
X168237349Y-78865310D01*
X168383577Y-79084155D01*
X168383579Y-79084157D01*
X168432953Y-79158050D01*
X168506846Y-79207424D01*
X169326000Y-80026579D01*
X169326000Y-80255657D01*
X169514018Y-80709571D01*
X169861429Y-81056982D01*
X170315343Y-81245000D01*
X170806657Y-81245000D01*
X171260571Y-81056982D01*
X171483053Y-80834500D01*
X172664723Y-80834500D01*
X172764686Y-80984104D01*
X172441227Y-81307563D01*
X172354807Y-81365307D01*
X172161683Y-81654338D01*
X172126052Y-81707664D01*
X172045724Y-82111500D01*
X172066000Y-82213434D01*
X172066000Y-88591000D01*
X171489750Y-88591000D01*
X171283000Y-88797750D01*
X171283000Y-89916000D01*
X171303000Y-89916000D01*
X171303000Y-90170000D01*
X171283000Y-90170000D01*
X171283000Y-91288250D01*
X171489750Y-91495000D01*
X172066001Y-91495000D01*
X172066001Y-92909000D01*
X171509750Y-92909000D01*
X171303000Y-93115750D01*
X171303000Y-94234000D01*
X171323000Y-94234000D01*
X171323000Y-94488000D01*
X171303000Y-94488000D01*
X171303000Y-94508000D01*
X171049000Y-94508000D01*
X171049000Y-94488000D01*
X171029000Y-94488000D01*
X171029000Y-94234000D01*
X171049000Y-94234000D01*
X171049000Y-93115750D01*
X170842250Y-92909000D01*
X170261499Y-92909000D01*
X169957542Y-93034903D01*
X169782169Y-93210276D01*
X169673765Y-93137843D01*
X169426000Y-93088560D01*
X167926000Y-93088560D01*
X167678235Y-93137843D01*
X167636000Y-93166064D01*
X167636000Y-91251300D01*
X167658235Y-91266157D01*
X167906000Y-91315440D01*
X169406000Y-91315440D01*
X169653765Y-91266157D01*
X169762169Y-91193724D01*
X169937542Y-91369097D01*
X170241499Y-91495000D01*
X170822250Y-91495000D01*
X171029000Y-91288250D01*
X171029000Y-90170000D01*
X171009000Y-90170000D01*
X171009000Y-89916000D01*
X171029000Y-89916000D01*
X171029000Y-88797750D01*
X170822250Y-88591000D01*
X170241499Y-88591000D01*
X169937542Y-88716903D01*
X169762169Y-88892276D01*
X169691000Y-88844723D01*
X169691000Y-88734565D01*
X169630948Y-88432663D01*
X169541000Y-88298046D01*
X169541000Y-82383161D01*
X169558337Y-82296000D01*
X169541000Y-82208839D01*
X169541000Y-82208835D01*
X169489652Y-81950690D01*
X169474649Y-81928236D01*
X169343424Y-81731845D01*
X169343423Y-81731844D01*
X169294049Y-81657951D01*
X169256000Y-81632527D01*
X169256000Y-81415343D01*
X169067982Y-80961429D01*
X168720571Y-80614018D01*
X168266657Y-80426000D01*
X167984715Y-80426000D01*
X167848782Y-80097829D01*
X167501371Y-79750418D01*
X167047457Y-79562400D01*
X166556143Y-79562400D01*
X166102229Y-79750418D01*
X165899967Y-79952680D01*
X165866601Y-79946043D01*
X165784368Y-79962400D01*
X165784365Y-79962400D01*
X165540801Y-80010848D01*
X165264601Y-80195399D01*
X165218017Y-80265117D01*
X162462949Y-83020186D01*
X162175951Y-83211953D01*
X162059123Y-83386798D01*
X151741322Y-93704600D01*
X133499595Y-93704600D01*
X130631778Y-90836783D01*
X132583920Y-90836783D01*
X132583920Y-91292533D01*
X132709823Y-91596491D01*
X132942462Y-91829130D01*
X133246419Y-91955033D01*
X133827170Y-91955033D01*
X134033920Y-91748283D01*
X134033920Y-90630033D01*
X132790670Y-90630033D01*
X132583920Y-90836783D01*
X130631778Y-90836783D01*
X129508528Y-89713533D01*
X132583920Y-89713533D01*
X132583920Y-90169283D01*
X132790670Y-90376033D01*
X134033920Y-90376033D01*
X134033920Y-89257783D01*
X133827170Y-89051033D01*
X133246419Y-89051033D01*
X132942462Y-89176936D01*
X132709823Y-89409575D01*
X132583920Y-89713533D01*
X129508528Y-89713533D01*
X127329778Y-87534783D01*
X132583920Y-87534783D01*
X132583920Y-87990533D01*
X132709823Y-88294491D01*
X132942462Y-88527130D01*
X133246419Y-88653033D01*
X133827170Y-88653033D01*
X134033920Y-88446283D01*
X134033920Y-87328033D01*
X132790670Y-87328033D01*
X132583920Y-87534783D01*
X127329778Y-87534783D01*
X126754610Y-86959616D01*
X126754610Y-84800788D01*
X127836577Y-85882756D01*
X127885951Y-85956649D01*
X127959844Y-86006023D01*
X127959845Y-86006024D01*
X128014435Y-86042500D01*
X128178690Y-86152252D01*
X128436835Y-86203600D01*
X128436839Y-86203600D01*
X128523999Y-86220937D01*
X128611159Y-86203600D01*
X132670048Y-86203600D01*
X132583920Y-86411533D01*
X132583920Y-86867283D01*
X132790670Y-87074033D01*
X134033920Y-87074033D01*
X134033920Y-87054033D01*
X134287920Y-87054033D01*
X134287920Y-87074033D01*
X134307920Y-87074033D01*
X134307920Y-87328033D01*
X134287920Y-87328033D01*
X134287920Y-88446283D01*
X134494670Y-88653033D01*
X135075421Y-88653033D01*
X135379378Y-88527130D01*
X135554751Y-88351757D01*
X135663155Y-88424190D01*
X135910920Y-88473473D01*
X137410920Y-88473473D01*
X137658685Y-88424190D01*
X137868729Y-88283842D01*
X138001334Y-88085387D01*
X138256230Y-88034685D01*
X138477867Y-87886591D01*
X141685794Y-87886591D01*
X141464084Y-88108301D01*
X141224000Y-88687915D01*
X141224000Y-89315285D01*
X141227438Y-89323584D01*
X140932989Y-89618033D01*
X138000902Y-89618033D01*
X137868729Y-89420224D01*
X137658685Y-89279876D01*
X137410920Y-89230593D01*
X135910920Y-89230593D01*
X135663155Y-89279876D01*
X135554751Y-89352309D01*
X135379378Y-89176936D01*
X135075421Y-89051033D01*
X134494670Y-89051033D01*
X134287920Y-89257783D01*
X134287920Y-90376033D01*
X134307920Y-90376033D01*
X134307920Y-90630033D01*
X134287920Y-90630033D01*
X134287920Y-91748283D01*
X134494670Y-91955033D01*
X135075421Y-91955033D01*
X135379378Y-91829130D01*
X135554751Y-91653757D01*
X135663155Y-91726190D01*
X135910920Y-91775473D01*
X137410920Y-91775473D01*
X137658685Y-91726190D01*
X137868729Y-91585842D01*
X138000902Y-91388033D01*
X141212406Y-91388033D01*
X141299567Y-91405370D01*
X141386728Y-91388033D01*
X141386732Y-91388033D01*
X141644877Y-91336685D01*
X141937616Y-91141082D01*
X141986992Y-91067186D01*
X142479016Y-90575162D01*
X142487315Y-90578600D01*
X143114685Y-90578600D01*
X143694299Y-90338516D01*
X144137916Y-89894899D01*
X144378000Y-89315285D01*
X144378000Y-88687915D01*
X144137916Y-88108301D01*
X143916206Y-87886591D01*
X145334413Y-87886591D01*
X146127437Y-88679616D01*
X146124000Y-88687915D01*
X146124000Y-89315285D01*
X146364084Y-89894899D01*
X146807701Y-90338516D01*
X147387315Y-90578600D01*
X148014685Y-90578600D01*
X148594299Y-90338516D01*
X149037916Y-89894899D01*
X149278000Y-89315285D01*
X149278000Y-88687915D01*
X149037916Y-88108301D01*
X148594299Y-87664684D01*
X148014685Y-87424600D01*
X147387315Y-87424600D01*
X147379016Y-87428037D01*
X146388416Y-86437438D01*
X146339040Y-86363542D01*
X146046301Y-86167939D01*
X145788156Y-86116591D01*
X145788152Y-86116591D01*
X145700991Y-86099254D01*
X145613830Y-86116591D01*
X144873880Y-86116591D01*
X145113249Y-85956649D01*
X145162625Y-85882753D01*
X146334756Y-84710623D01*
X146408649Y-84661249D01*
X146509173Y-84510805D01*
X150950228Y-80069750D01*
X156282000Y-80069750D01*
X156282000Y-80650501D01*
X156407903Y-80954458D01*
X156640542Y-81187097D01*
X156944500Y-81313000D01*
X157400250Y-81313000D01*
X157607000Y-81106250D01*
X157607000Y-79863000D01*
X157861000Y-79863000D01*
X157861000Y-81106250D01*
X158067750Y-81313000D01*
X158523500Y-81313000D01*
X158827458Y-81187097D01*
X159060097Y-80954458D01*
X159186000Y-80650501D01*
X159186000Y-80069750D01*
X158979250Y-79863000D01*
X157861000Y-79863000D01*
X157607000Y-79863000D01*
X156488750Y-79863000D01*
X156282000Y-80069750D01*
X150950228Y-80069750D01*
X154569979Y-76450000D01*
X156468721Y-76450000D01*
X156461560Y-76486000D01*
X156461560Y-76486000D01*
G37*
X156461560Y-76486000D02*
X156461560Y-77986000D01*
X156510843Y-78233765D01*
X156583276Y-78342169D01*
X156407903Y-78517542D01*
X156282000Y-78821499D01*
X156282000Y-79402250D01*
X156488750Y-79609000D01*
X157607000Y-79609000D01*
X157607000Y-79589000D01*
X157861000Y-79589000D01*
X157861000Y-79609000D01*
X158979250Y-79609000D01*
X159186000Y-79402250D01*
X159186000Y-78821499D01*
X159060097Y-78517542D01*
X158884724Y-78342169D01*
X158926386Y-78279816D01*
X158984000Y-78291276D01*
X159085934Y-78271000D01*
X159085935Y-78271000D01*
X159387837Y-78210948D01*
X159552386Y-78101000D01*
X164733422Y-78101000D01*
X164881000Y-78248578D01*
X164881000Y-78477657D01*
X165069018Y-78931571D01*
X165416429Y-79278982D01*
X165870343Y-79467000D01*
X166361657Y-79467000D01*
X166815571Y-79278982D01*
X167162982Y-78931571D01*
X167351000Y-78477657D01*
X167351000Y-78375578D01*
X168186002Y-77540577D01*
X168186002Y-78432836D01*
X168168664Y-78520001D01*
X168237349Y-78865310D01*
X168383577Y-79084155D01*
X168383579Y-79084157D01*
X168432953Y-79158050D01*
X168506846Y-79207424D01*
X169326000Y-80026579D01*
X169326000Y-80255657D01*
X169514018Y-80709571D01*
X169861429Y-81056982D01*
X170315343Y-81245000D01*
X170806657Y-81245000D01*
X171260571Y-81056982D01*
X171483053Y-80834500D01*
X172664723Y-80834500D01*
X172764686Y-80984104D01*
X172441227Y-81307563D01*
X172354807Y-81365307D01*
X172161683Y-81654338D01*
X172126052Y-81707664D01*
X172045724Y-82111500D01*
X172066000Y-82213434D01*
X172066000Y-88591000D01*
X171489750Y-88591000D01*
X171283000Y-88797750D01*
X171283000Y-89916000D01*
X171303000Y-89916000D01*
X171303000Y-90170000D01*
X171283000Y-90170000D01*
X171283000Y-91288250D01*
X171489750Y-91495000D01*
X172066001Y-91495000D01*
X172066001Y-92909000D01*
X171509750Y-92909000D01*
X171303000Y-93115750D01*
X171303000Y-94234000D01*
X171323000Y-94234000D01*
X171323000Y-94488000D01*
X171303000Y-94488000D01*
X171303000Y-94508000D01*
X171049000Y-94508000D01*
X171049000Y-94488000D01*
X171029000Y-94488000D01*
X171029000Y-94234000D01*
X171049000Y-94234000D01*
X171049000Y-93115750D01*
X170842250Y-92909000D01*
X170261499Y-92909000D01*
X169957542Y-93034903D01*
X169782169Y-93210276D01*
X169673765Y-93137843D01*
X169426000Y-93088560D01*
X167926000Y-93088560D01*
X167678235Y-93137843D01*
X167636000Y-93166064D01*
X167636000Y-91251300D01*
X167658235Y-91266157D01*
X167906000Y-91315440D01*
X169406000Y-91315440D01*
X169653765Y-91266157D01*
X169762169Y-91193724D01*
X169937542Y-91369097D01*
X170241499Y-91495000D01*
X170822250Y-91495000D01*
X171029000Y-91288250D01*
X171029000Y-90170000D01*
X171009000Y-90170000D01*
X171009000Y-89916000D01*
X171029000Y-89916000D01*
X171029000Y-88797750D01*
X170822250Y-88591000D01*
X170241499Y-88591000D01*
X169937542Y-88716903D01*
X169762169Y-88892276D01*
X169691000Y-88844723D01*
X169691000Y-88734565D01*
X169630948Y-88432663D01*
X169541000Y-88298046D01*
X169541000Y-82383161D01*
X169558337Y-82296000D01*
X169541000Y-82208839D01*
X169541000Y-82208835D01*
X169489652Y-81950690D01*
X169474649Y-81928236D01*
X169343424Y-81731845D01*
X169343423Y-81731844D01*
X169294049Y-81657951D01*
X169256000Y-81632527D01*
X169256000Y-81415343D01*
X169067982Y-80961429D01*
X168720571Y-80614018D01*
X168266657Y-80426000D01*
X167984715Y-80426000D01*
X167848782Y-80097829D01*
X167501371Y-79750418D01*
X167047457Y-79562400D01*
X166556143Y-79562400D01*
X166102229Y-79750418D01*
X165899967Y-79952680D01*
X165866601Y-79946043D01*
X165784368Y-79962400D01*
X165784365Y-79962400D01*
X165540801Y-80010848D01*
X165264601Y-80195399D01*
X165218017Y-80265117D01*
X162462949Y-83020186D01*
X162175951Y-83211953D01*
X162059123Y-83386798D01*
X151741322Y-93704600D01*
X133499595Y-93704600D01*
X130631778Y-90836783D01*
X132583920Y-90836783D01*
X132583920Y-91292533D01*
X132709823Y-91596491D01*
X132942462Y-91829130D01*
X133246419Y-91955033D01*
X133827170Y-91955033D01*
X134033920Y-91748283D01*
X134033920Y-90630033D01*
X132790670Y-90630033D01*
X132583920Y-90836783D01*
X130631778Y-90836783D01*
X129508528Y-89713533D01*
X132583920Y-89713533D01*
X132583920Y-90169283D01*
X132790670Y-90376033D01*
X134033920Y-90376033D01*
X134033920Y-89257783D01*
X133827170Y-89051033D01*
X133246419Y-89051033D01*
X132942462Y-89176936D01*
X132709823Y-89409575D01*
X132583920Y-89713533D01*
X129508528Y-89713533D01*
X127329778Y-87534783D01*
X132583920Y-87534783D01*
X132583920Y-87990533D01*
X132709823Y-88294491D01*
X132942462Y-88527130D01*
X133246419Y-88653033D01*
X133827170Y-88653033D01*
X134033920Y-88446283D01*
X134033920Y-87328033D01*
X132790670Y-87328033D01*
X132583920Y-87534783D01*
X127329778Y-87534783D01*
X126754610Y-86959616D01*
X126754610Y-84800788D01*
X127836577Y-85882756D01*
X127885951Y-85956649D01*
X127959844Y-86006023D01*
X127959845Y-86006024D01*
X128014435Y-86042500D01*
X128178690Y-86152252D01*
X128436835Y-86203600D01*
X128436839Y-86203600D01*
X128523999Y-86220937D01*
X128611159Y-86203600D01*
X132670048Y-86203600D01*
X132583920Y-86411533D01*
X132583920Y-86867283D01*
X132790670Y-87074033D01*
X134033920Y-87074033D01*
X134033920Y-87054033D01*
X134287920Y-87054033D01*
X134287920Y-87074033D01*
X134307920Y-87074033D01*
X134307920Y-87328033D01*
X134287920Y-87328033D01*
X134287920Y-88446283D01*
X134494670Y-88653033D01*
X135075421Y-88653033D01*
X135379378Y-88527130D01*
X135554751Y-88351757D01*
X135663155Y-88424190D01*
X135910920Y-88473473D01*
X137410920Y-88473473D01*
X137658685Y-88424190D01*
X137868729Y-88283842D01*
X138001334Y-88085387D01*
X138256230Y-88034685D01*
X138477867Y-87886591D01*
X141685794Y-87886591D01*
X141464084Y-88108301D01*
X141224000Y-88687915D01*
X141224000Y-89315285D01*
X141227438Y-89323584D01*
X140932989Y-89618033D01*
X138000902Y-89618033D01*
X137868729Y-89420224D01*
X137658685Y-89279876D01*
X137410920Y-89230593D01*
X135910920Y-89230593D01*
X135663155Y-89279876D01*
X135554751Y-89352309D01*
X135379378Y-89176936D01*
X135075421Y-89051033D01*
X134494670Y-89051033D01*
X134287920Y-89257783D01*
X134287920Y-90376033D01*
X134307920Y-90376033D01*
X134307920Y-90630033D01*
X134287920Y-90630033D01*
X134287920Y-91748283D01*
X134494670Y-91955033D01*
X135075421Y-91955033D01*
X135379378Y-91829130D01*
X135554751Y-91653757D01*
X135663155Y-91726190D01*
X135910920Y-91775473D01*
X137410920Y-91775473D01*
X137658685Y-91726190D01*
X137868729Y-91585842D01*
X138000902Y-91388033D01*
X141212406Y-91388033D01*
X141299567Y-91405370D01*
X141386728Y-91388033D01*
X141386732Y-91388033D01*
X141644877Y-91336685D01*
X141937616Y-91141082D01*
X141986992Y-91067186D01*
X142479016Y-90575162D01*
X142487315Y-90578600D01*
X143114685Y-90578600D01*
X143694299Y-90338516D01*
X144137916Y-89894899D01*
X144378000Y-89315285D01*
X144378000Y-88687915D01*
X144137916Y-88108301D01*
X143916206Y-87886591D01*
X145334413Y-87886591D01*
X146127437Y-88679616D01*
X146124000Y-88687915D01*
X146124000Y-89315285D01*
X146364084Y-89894899D01*
X146807701Y-90338516D01*
X147387315Y-90578600D01*
X148014685Y-90578600D01*
X148594299Y-90338516D01*
X149037916Y-89894899D01*
X149278000Y-89315285D01*
X149278000Y-88687915D01*
X149037916Y-88108301D01*
X148594299Y-87664684D01*
X148014685Y-87424600D01*
X147387315Y-87424600D01*
X147379016Y-87428037D01*
X146388416Y-86437438D01*
X146339040Y-86363542D01*
X146046301Y-86167939D01*
X145788156Y-86116591D01*
X145788152Y-86116591D01*
X145700991Y-86099254D01*
X145613830Y-86116591D01*
X144873880Y-86116591D01*
X145113249Y-85956649D01*
X145162625Y-85882753D01*
X146334756Y-84710623D01*
X146408649Y-84661249D01*
X146509173Y-84510805D01*
X150950228Y-80069750D01*
X156282000Y-80069750D01*
X156282000Y-80650501D01*
X156407903Y-80954458D01*
X156640542Y-81187097D01*
X156944500Y-81313000D01*
X157400250Y-81313000D01*
X157607000Y-81106250D01*
X157607000Y-79863000D01*
X157861000Y-79863000D01*
X157861000Y-81106250D01*
X158067750Y-81313000D01*
X158523500Y-81313000D01*
X158827458Y-81187097D01*
X159060097Y-80954458D01*
X159186000Y-80650501D01*
X159186000Y-80069750D01*
X158979250Y-79863000D01*
X157861000Y-79863000D01*
X157607000Y-79863000D01*
X156488750Y-79863000D01*
X156282000Y-80069750D01*
X150950228Y-80069750D01*
X154569979Y-76450000D01*
X156468721Y-76450000D01*
X156461560Y-76486000D01*
G36*
X154692701Y-62557411D02*
X154682041Y-62611000D01*
X154798350Y-63195725D01*
X155124651Y-63684068D01*
X155098635Y-63689243D01*
X154888591Y-63829591D01*
X154748243Y-64039635D01*
X154698960Y-64287400D01*
X154698960Y-66014600D01*
X154748243Y-66262365D01*
X154850595Y-66415544D01*
X154773724Y-66802000D01*
X154854052Y-67205836D01*
X154944001Y-67340453D01*
X154944000Y-67914547D01*
X154854053Y-68049163D01*
X154800430Y-68318745D01*
X154721191Y-68371691D01*
X154580843Y-68581735D01*
X154531560Y-68829500D01*
X154531560Y-70329500D01*
X154580843Y-70577265D01*
X154721191Y-70787309D01*
X154755082Y-70809954D01*
X154710542Y-70828403D01*
X154477903Y-71061042D01*
X154352000Y-71364999D01*
X154352000Y-71945750D01*
X154558750Y-72152500D01*
X155702000Y-72152500D01*
X155702000Y-72132500D01*
X155956000Y-72132500D01*
X155956000Y-72152500D01*
X157099250Y-72152500D01*
X157306000Y-71945750D01*
X157306000Y-71364999D01*
X157180097Y-71061042D01*
X156947458Y-70828403D01*
X156902918Y-70809954D01*
X156936809Y-70787309D01*
X157077157Y-70577265D01*
X157126440Y-70329500D01*
X157126440Y-68829500D01*
X157077157Y-68581735D01*
X156936809Y-68371691D01*
X156857571Y-68318746D01*
X156803948Y-68049163D01*
X156714000Y-67914546D01*
X156714000Y-67380710D01*
X156869773Y-67224937D01*
X156956193Y-67167193D01*
X157184948Y-66824837D01*
X157223251Y-66632273D01*
X157321365Y-66612757D01*
X157531409Y-66472409D01*
X157671757Y-66262365D01*
X157676932Y-66236349D01*
X158165275Y-66562650D01*
X158602402Y-66649600D01*
X158897598Y-66649600D01*
X159334725Y-66562650D01*
X159830430Y-66231430D01*
X160020000Y-65947719D01*
X160209570Y-66231430D01*
X160705275Y-66562650D01*
X161142402Y-66649600D01*
X161437598Y-66649600D01*
X161874725Y-66562650D01*
X162370430Y-66231430D01*
X162560000Y-65947719D01*
X162749570Y-66231430D01*
X162795001Y-66261786D01*
X162795001Y-66649935D01*
X162851306Y-66933000D01*
X160110661Y-66933000D01*
X160023500Y-66915663D01*
X159936339Y-66933000D01*
X159936335Y-66933000D01*
X159678190Y-66984348D01*
X159385451Y-67179951D01*
X159336076Y-67253846D01*
X159330456Y-67259466D01*
X159171664Y-67291052D01*
X158829308Y-67519807D01*
X158600553Y-67862163D01*
X158540501Y-68164065D01*
X158540501Y-68259541D01*
X158467691Y-68308191D01*
X158327343Y-68518235D01*
X158278060Y-68766000D01*
X158278060Y-70266000D01*
X158327343Y-70513765D01*
X158467691Y-70723809D01*
X158501582Y-70746454D01*
X158457042Y-70764903D01*
X158224403Y-70997542D01*
X158098500Y-71301499D01*
X158098500Y-71882250D01*
X158305250Y-72089000D01*
X159448500Y-72089000D01*
X159448500Y-72069000D01*
X159702500Y-72069000D01*
X159702500Y-72089000D01*
X160845750Y-72089000D01*
X161052500Y-71882250D01*
X161052500Y-71301499D01*
X160926597Y-70997542D01*
X160693958Y-70764903D01*
X160649418Y-70746454D01*
X160683309Y-70723809D01*
X160823657Y-70513765D01*
X160872940Y-70266000D01*
X160872940Y-68766000D01*
X160860409Y-68703000D01*
X161719591Y-68703000D01*
X161707060Y-68766000D01*
X161707060Y-70266000D01*
X161756343Y-70513765D01*
X161896691Y-70723809D01*
X161930582Y-70746454D01*
X161886042Y-70764903D01*
X161653403Y-70997542D01*
X161527500Y-71301499D01*
X161527500Y-71882250D01*
X161734250Y-72089000D01*
X162877500Y-72089000D01*
X162877500Y-72069000D01*
X163131500Y-72069000D01*
X163131500Y-72089000D01*
X164274750Y-72089000D01*
X164481500Y-71882250D01*
X164481500Y-71301499D01*
X164355597Y-70997542D01*
X164122958Y-70764903D01*
X164078418Y-70746454D01*
X164112309Y-70723809D01*
X164252657Y-70513765D01*
X164301940Y-70266000D01*
X164301940Y-69802750D01*
X164813000Y-69802750D01*
X164813000Y-70258500D01*
X164938903Y-70562458D01*
X165171542Y-70795097D01*
X165475499Y-70921000D01*
X166056250Y-70921000D01*
X166263000Y-70714250D01*
X166263000Y-69596000D01*
X165019750Y-69596000D01*
X164813000Y-69802750D01*
X164301940Y-69802750D01*
X164301940Y-69582271D01*
X164517434Y-69366777D01*
X164688447Y-69110837D01*
X164720033Y-68952046D01*
X164813000Y-68859079D01*
X164813000Y-69135250D01*
X165019750Y-69342000D01*
X166263000Y-69342000D01*
X166263000Y-69322000D01*
X166517000Y-69322000D01*
X166517000Y-69342000D01*
X166537000Y-69342000D01*
X166537000Y-69596000D01*
X166517000Y-69596000D01*
X166517000Y-70714250D01*
X166723750Y-70921000D01*
X167304501Y-70921000D01*
X167608458Y-70795097D01*
X167783831Y-70619724D01*
X167855000Y-70667277D01*
X167855001Y-74066061D01*
X167855000Y-74066066D01*
X167855000Y-74681066D01*
X167834724Y-74783000D01*
X167915052Y-75186836D01*
X167963731Y-75259690D01*
X166226422Y-76997000D01*
X166132578Y-76997000D01*
X165787425Y-76651847D01*
X165738049Y-76577951D01*
X165461167Y-76392943D01*
X165545571Y-76357982D01*
X165892982Y-76010571D01*
X166081000Y-75556657D01*
X166081000Y-75065343D01*
X165892982Y-74611429D01*
X165545571Y-74264018D01*
X165091657Y-74076000D01*
X164600343Y-74076000D01*
X164146429Y-74264018D01*
X163799018Y-74611429D01*
X163770615Y-74680000D01*
X154290559Y-74680000D01*
X154203399Y-74662663D01*
X154116239Y-74680000D01*
X154116235Y-74680000D01*
X153858090Y-74731348D01*
X153786439Y-74779224D01*
X153639245Y-74877576D01*
X153639244Y-74877577D01*
X153565351Y-74926951D01*
X153515977Y-75000844D01*
X145206446Y-83310376D01*
X145132551Y-83359751D01*
X145032029Y-83510192D01*
X144108622Y-84433600D01*
X128890579Y-84433600D01*
X128865419Y-84408440D01*
X130012200Y-84408440D01*
X130259965Y-84359157D01*
X130470009Y-84218809D01*
X130585477Y-84046000D01*
X130614135Y-84046000D01*
X130916037Y-83985948D01*
X131090409Y-83869437D01*
X131215010Y-83844652D01*
X131507749Y-83649049D01*
X131557125Y-83575153D01*
X132517156Y-82615123D01*
X132591049Y-82565749D01*
X132698609Y-82404776D01*
X132786652Y-82273010D01*
X132789317Y-82259610D01*
X132838000Y-82014865D01*
X132838000Y-82014861D01*
X132855337Y-81927700D01*
X132838000Y-81840539D01*
X132838000Y-80818859D01*
X133876500Y-80818859D01*
X133876500Y-81645141D01*
X134192704Y-82408526D01*
X134776974Y-82992796D01*
X135540359Y-83309000D01*
X136366641Y-83309000D01*
X137130026Y-82992796D01*
X137714296Y-82408526D01*
X138030500Y-81645141D01*
X138030500Y-80818859D01*
X137714296Y-80055474D01*
X137130026Y-79471204D01*
X136366641Y-79155000D01*
X135540359Y-79155000D01*
X134776974Y-79471204D01*
X134192704Y-80055474D01*
X133876500Y-80818859D01*
X132838000Y-80818859D01*
X132838000Y-74598078D01*
X134422156Y-73013923D01*
X134496049Y-72964549D01*
X134553665Y-72878322D01*
X134691652Y-72671810D01*
X134707184Y-72593725D01*
X134741624Y-72420584D01*
X134884750Y-72766121D01*
X135386879Y-73268250D01*
X136042941Y-73540000D01*
X136753059Y-73540000D01*
X137409121Y-73268250D01*
X137911250Y-72766121D01*
X138053000Y-72423906D01*
X138053001Y-75477835D01*
X138035663Y-75565000D01*
X138104348Y-75910309D01*
X138250576Y-76129154D01*
X138250577Y-76129155D01*
X138299952Y-76203049D01*
X138373845Y-76252423D01*
X139399200Y-77277779D01*
X139399201Y-80664835D01*
X139381863Y-80752000D01*
X139450548Y-81097309D01*
X139596776Y-81316154D01*
X139596778Y-81316156D01*
X139646152Y-81390049D01*
X139720045Y-81439423D01*
X140611167Y-82330545D01*
X140642752Y-82489336D01*
X140813766Y-82745276D01*
X141145760Y-83077270D01*
X141145760Y-83761000D01*
X141195043Y-84008765D01*
X141335391Y-84218809D01*
X141545435Y-84359157D01*
X141793200Y-84408440D01*
X143093200Y-84408440D01*
X143340965Y-84359157D01*
X143551009Y-84218809D01*
X143691357Y-84008765D01*
X143740640Y-83761000D01*
X143740640Y-82261000D01*
X143691357Y-82013235D01*
X143551009Y-81803191D01*
X143340965Y-81662843D01*
X143331700Y-81661000D01*
X143340965Y-81659157D01*
X143551009Y-81518809D01*
X143691357Y-81308765D01*
X143740640Y-81061000D01*
X143740640Y-79561000D01*
X143691357Y-79313235D01*
X143551009Y-79103191D01*
X143478200Y-79054541D01*
X143478200Y-75430510D01*
X143551934Y-75356776D01*
X146295460Y-72613250D01*
X154352000Y-72613250D01*
X154352000Y-73194001D01*
X154477903Y-73497958D01*
X154710542Y-73730597D01*
X155014500Y-73856500D01*
X155495250Y-73856500D01*
X155702000Y-73649750D01*
X155702000Y-72406500D01*
X155956000Y-72406500D01*
X155956000Y-73649750D01*
X156162750Y-73856500D01*
X156643500Y-73856500D01*
X156947458Y-73730597D01*
X157180097Y-73497958D01*
X157306000Y-73194001D01*
X157306000Y-72613250D01*
X157242500Y-72549750D01*
X158098500Y-72549750D01*
X158098500Y-73130501D01*
X158224403Y-73434458D01*
X158457042Y-73667097D01*
X158761000Y-73793000D01*
X159241750Y-73793000D01*
X159448500Y-73586250D01*
X159448500Y-72343000D01*
X159702500Y-72343000D01*
X159702500Y-73586250D01*
X159909250Y-73793000D01*
X160390000Y-73793000D01*
X160693958Y-73667097D01*
X160926597Y-73434458D01*
X161052500Y-73130501D01*
X161052500Y-72549750D01*
X161527500Y-72549750D01*
X161527500Y-73130501D01*
X161653403Y-73434458D01*
X161886042Y-73667097D01*
X162190000Y-73793000D01*
X162670750Y-73793000D01*
X162877500Y-73586250D01*
X162877500Y-72343000D01*
X163131500Y-72343000D01*
X163131500Y-73586250D01*
X163338250Y-73793000D01*
X163819000Y-73793000D01*
X164122958Y-73667097D01*
X164355597Y-73434458D01*
X164481500Y-73130501D01*
X164481500Y-72549750D01*
X164274750Y-72343000D01*
X163131500Y-72343000D01*
X162877500Y-72343000D01*
X161734250Y-72343000D01*
X161527500Y-72549750D01*
X161052500Y-72549750D01*
X160845750Y-72343000D01*
X159702500Y-72343000D01*
X159448500Y-72343000D01*
X158305250Y-72343000D01*
X158098500Y-72549750D01*
X157242500Y-72549750D01*
X157099250Y-72406500D01*
X155956000Y-72406500D01*
X155702000Y-72406500D01*
X154558750Y-72406500D01*
X154352000Y-72613250D01*
X146295460Y-72613250D01*
X147598776Y-71309935D01*
X147685193Y-71252193D01*
X147913948Y-70909837D01*
X147974000Y-70607935D01*
X147974000Y-70607934D01*
X147994276Y-70506001D01*
X147974000Y-70404066D01*
X147974000Y-63855934D01*
X147994276Y-63754000D01*
X147974000Y-63652065D01*
X147974000Y-62277710D01*
X147996934Y-62254776D01*
X148256711Y-61995000D01*
X154130290Y-61995000D01*
X154692701Y-62557411D01*
X154692701Y-62557411D01*
G37*
X154692701Y-62557411D02*
X154682041Y-62611000D01*
X154798350Y-63195725D01*
X155124651Y-63684068D01*
X155098635Y-63689243D01*
X154888591Y-63829591D01*
X154748243Y-64039635D01*
X154698960Y-64287400D01*
X154698960Y-66014600D01*
X154748243Y-66262365D01*
X154850595Y-66415544D01*
X154773724Y-66802000D01*
X154854052Y-67205836D01*
X154944001Y-67340453D01*
X154944000Y-67914547D01*
X154854053Y-68049163D01*
X154800430Y-68318745D01*
X154721191Y-68371691D01*
X154580843Y-68581735D01*
X154531560Y-68829500D01*
X154531560Y-70329500D01*
X154580843Y-70577265D01*
X154721191Y-70787309D01*
X154755082Y-70809954D01*
X154710542Y-70828403D01*
X154477903Y-71061042D01*
X154352000Y-71364999D01*
X154352000Y-71945750D01*
X154558750Y-72152500D01*
X155702000Y-72152500D01*
X155702000Y-72132500D01*
X155956000Y-72132500D01*
X155956000Y-72152500D01*
X157099250Y-72152500D01*
X157306000Y-71945750D01*
X157306000Y-71364999D01*
X157180097Y-71061042D01*
X156947458Y-70828403D01*
X156902918Y-70809954D01*
X156936809Y-70787309D01*
X157077157Y-70577265D01*
X157126440Y-70329500D01*
X157126440Y-68829500D01*
X157077157Y-68581735D01*
X156936809Y-68371691D01*
X156857571Y-68318746D01*
X156803948Y-68049163D01*
X156714000Y-67914546D01*
X156714000Y-67380710D01*
X156869773Y-67224937D01*
X156956193Y-67167193D01*
X157184948Y-66824837D01*
X157223251Y-66632273D01*
X157321365Y-66612757D01*
X157531409Y-66472409D01*
X157671757Y-66262365D01*
X157676932Y-66236349D01*
X158165275Y-66562650D01*
X158602402Y-66649600D01*
X158897598Y-66649600D01*
X159334725Y-66562650D01*
X159830430Y-66231430D01*
X160020000Y-65947719D01*
X160209570Y-66231430D01*
X160705275Y-66562650D01*
X161142402Y-66649600D01*
X161437598Y-66649600D01*
X161874725Y-66562650D01*
X162370430Y-66231430D01*
X162560000Y-65947719D01*
X162749570Y-66231430D01*
X162795001Y-66261786D01*
X162795001Y-66649935D01*
X162851306Y-66933000D01*
X160110661Y-66933000D01*
X160023500Y-66915663D01*
X159936339Y-66933000D01*
X159936335Y-66933000D01*
X159678190Y-66984348D01*
X159385451Y-67179951D01*
X159336076Y-67253846D01*
X159330456Y-67259466D01*
X159171664Y-67291052D01*
X158829308Y-67519807D01*
X158600553Y-67862163D01*
X158540501Y-68164065D01*
X158540501Y-68259541D01*
X158467691Y-68308191D01*
X158327343Y-68518235D01*
X158278060Y-68766000D01*
X158278060Y-70266000D01*
X158327343Y-70513765D01*
X158467691Y-70723809D01*
X158501582Y-70746454D01*
X158457042Y-70764903D01*
X158224403Y-70997542D01*
X158098500Y-71301499D01*
X158098500Y-71882250D01*
X158305250Y-72089000D01*
X159448500Y-72089000D01*
X159448500Y-72069000D01*
X159702500Y-72069000D01*
X159702500Y-72089000D01*
X160845750Y-72089000D01*
X161052500Y-71882250D01*
X161052500Y-71301499D01*
X160926597Y-70997542D01*
X160693958Y-70764903D01*
X160649418Y-70746454D01*
X160683309Y-70723809D01*
X160823657Y-70513765D01*
X160872940Y-70266000D01*
X160872940Y-68766000D01*
X160860409Y-68703000D01*
X161719591Y-68703000D01*
X161707060Y-68766000D01*
X161707060Y-70266000D01*
X161756343Y-70513765D01*
X161896691Y-70723809D01*
X161930582Y-70746454D01*
X161886042Y-70764903D01*
X161653403Y-70997542D01*
X161527500Y-71301499D01*
X161527500Y-71882250D01*
X161734250Y-72089000D01*
X162877500Y-72089000D01*
X162877500Y-72069000D01*
X163131500Y-72069000D01*
X163131500Y-72089000D01*
X164274750Y-72089000D01*
X164481500Y-71882250D01*
X164481500Y-71301499D01*
X164355597Y-70997542D01*
X164122958Y-70764903D01*
X164078418Y-70746454D01*
X164112309Y-70723809D01*
X164252657Y-70513765D01*
X164301940Y-70266000D01*
X164301940Y-69802750D01*
X164813000Y-69802750D01*
X164813000Y-70258500D01*
X164938903Y-70562458D01*
X165171542Y-70795097D01*
X165475499Y-70921000D01*
X166056250Y-70921000D01*
X166263000Y-70714250D01*
X166263000Y-69596000D01*
X165019750Y-69596000D01*
X164813000Y-69802750D01*
X164301940Y-69802750D01*
X164301940Y-69582271D01*
X164517434Y-69366777D01*
X164688447Y-69110837D01*
X164720033Y-68952046D01*
X164813000Y-68859079D01*
X164813000Y-69135250D01*
X165019750Y-69342000D01*
X166263000Y-69342000D01*
X166263000Y-69322000D01*
X166517000Y-69322000D01*
X166517000Y-69342000D01*
X166537000Y-69342000D01*
X166537000Y-69596000D01*
X166517000Y-69596000D01*
X166517000Y-70714250D01*
X166723750Y-70921000D01*
X167304501Y-70921000D01*
X167608458Y-70795097D01*
X167783831Y-70619724D01*
X167855000Y-70667277D01*
X167855001Y-74066061D01*
X167855000Y-74066066D01*
X167855000Y-74681066D01*
X167834724Y-74783000D01*
X167915052Y-75186836D01*
X167963731Y-75259690D01*
X166226422Y-76997000D01*
X166132578Y-76997000D01*
X165787425Y-76651847D01*
X165738049Y-76577951D01*
X165461167Y-76392943D01*
X165545571Y-76357982D01*
X165892982Y-76010571D01*
X166081000Y-75556657D01*
X166081000Y-75065343D01*
X165892982Y-74611429D01*
X165545571Y-74264018D01*
X165091657Y-74076000D01*
X164600343Y-74076000D01*
X164146429Y-74264018D01*
X163799018Y-74611429D01*
X163770615Y-74680000D01*
X154290559Y-74680000D01*
X154203399Y-74662663D01*
X154116239Y-74680000D01*
X154116235Y-74680000D01*
X153858090Y-74731348D01*
X153786439Y-74779224D01*
X153639245Y-74877576D01*
X153639244Y-74877577D01*
X153565351Y-74926951D01*
X153515977Y-75000844D01*
X145206446Y-83310376D01*
X145132551Y-83359751D01*
X145032029Y-83510192D01*
X144108622Y-84433600D01*
X128890579Y-84433600D01*
X128865419Y-84408440D01*
X130012200Y-84408440D01*
X130259965Y-84359157D01*
X130470009Y-84218809D01*
X130585477Y-84046000D01*
X130614135Y-84046000D01*
X130916037Y-83985948D01*
X131090409Y-83869437D01*
X131215010Y-83844652D01*
X131507749Y-83649049D01*
X131557125Y-83575153D01*
X132517156Y-82615123D01*
X132591049Y-82565749D01*
X132698609Y-82404776D01*
X132786652Y-82273010D01*
X132789317Y-82259610D01*
X132838000Y-82014865D01*
X132838000Y-82014861D01*
X132855337Y-81927700D01*
X132838000Y-81840539D01*
X132838000Y-80818859D01*
X133876500Y-80818859D01*
X133876500Y-81645141D01*
X134192704Y-82408526D01*
X134776974Y-82992796D01*
X135540359Y-83309000D01*
X136366641Y-83309000D01*
X137130026Y-82992796D01*
X137714296Y-82408526D01*
X138030500Y-81645141D01*
X138030500Y-80818859D01*
X137714296Y-80055474D01*
X137130026Y-79471204D01*
X136366641Y-79155000D01*
X135540359Y-79155000D01*
X134776974Y-79471204D01*
X134192704Y-80055474D01*
X133876500Y-80818859D01*
X132838000Y-80818859D01*
X132838000Y-74598078D01*
X134422156Y-73013923D01*
X134496049Y-72964549D01*
X134553665Y-72878322D01*
X134691652Y-72671810D01*
X134707184Y-72593725D01*
X134741624Y-72420584D01*
X134884750Y-72766121D01*
X135386879Y-73268250D01*
X136042941Y-73540000D01*
X136753059Y-73540000D01*
X137409121Y-73268250D01*
X137911250Y-72766121D01*
X138053000Y-72423906D01*
X138053001Y-75477835D01*
X138035663Y-75565000D01*
X138104348Y-75910309D01*
X138250576Y-76129154D01*
X138250577Y-76129155D01*
X138299952Y-76203049D01*
X138373845Y-76252423D01*
X139399200Y-77277779D01*
X139399201Y-80664835D01*
X139381863Y-80752000D01*
X139450548Y-81097309D01*
X139596776Y-81316154D01*
X139596778Y-81316156D01*
X139646152Y-81390049D01*
X139720045Y-81439423D01*
X140611167Y-82330545D01*
X140642752Y-82489336D01*
X140813766Y-82745276D01*
X141145760Y-83077270D01*
X141145760Y-83761000D01*
X141195043Y-84008765D01*
X141335391Y-84218809D01*
X141545435Y-84359157D01*
X141793200Y-84408440D01*
X143093200Y-84408440D01*
X143340965Y-84359157D01*
X143551009Y-84218809D01*
X143691357Y-84008765D01*
X143740640Y-83761000D01*
X143740640Y-82261000D01*
X143691357Y-82013235D01*
X143551009Y-81803191D01*
X143340965Y-81662843D01*
X143331700Y-81661000D01*
X143340965Y-81659157D01*
X143551009Y-81518809D01*
X143691357Y-81308765D01*
X143740640Y-81061000D01*
X143740640Y-79561000D01*
X143691357Y-79313235D01*
X143551009Y-79103191D01*
X143478200Y-79054541D01*
X143478200Y-75430510D01*
X143551934Y-75356776D01*
X146295460Y-72613250D01*
X154352000Y-72613250D01*
X154352000Y-73194001D01*
X154477903Y-73497958D01*
X154710542Y-73730597D01*
X155014500Y-73856500D01*
X155495250Y-73856500D01*
X155702000Y-73649750D01*
X155702000Y-72406500D01*
X155956000Y-72406500D01*
X155956000Y-73649750D01*
X156162750Y-73856500D01*
X156643500Y-73856500D01*
X156947458Y-73730597D01*
X157180097Y-73497958D01*
X157306000Y-73194001D01*
X157306000Y-72613250D01*
X157242500Y-72549750D01*
X158098500Y-72549750D01*
X158098500Y-73130501D01*
X158224403Y-73434458D01*
X158457042Y-73667097D01*
X158761000Y-73793000D01*
X159241750Y-73793000D01*
X159448500Y-73586250D01*
X159448500Y-72343000D01*
X159702500Y-72343000D01*
X159702500Y-73586250D01*
X159909250Y-73793000D01*
X160390000Y-73793000D01*
X160693958Y-73667097D01*
X160926597Y-73434458D01*
X161052500Y-73130501D01*
X161052500Y-72549750D01*
X161527500Y-72549750D01*
X161527500Y-73130501D01*
X161653403Y-73434458D01*
X161886042Y-73667097D01*
X162190000Y-73793000D01*
X162670750Y-73793000D01*
X162877500Y-73586250D01*
X162877500Y-72343000D01*
X163131500Y-72343000D01*
X163131500Y-73586250D01*
X163338250Y-73793000D01*
X163819000Y-73793000D01*
X164122958Y-73667097D01*
X164355597Y-73434458D01*
X164481500Y-73130501D01*
X164481500Y-72549750D01*
X164274750Y-72343000D01*
X163131500Y-72343000D01*
X162877500Y-72343000D01*
X161734250Y-72343000D01*
X161527500Y-72549750D01*
X161052500Y-72549750D01*
X160845750Y-72343000D01*
X159702500Y-72343000D01*
X159448500Y-72343000D01*
X158305250Y-72343000D01*
X158098500Y-72549750D01*
X157242500Y-72549750D01*
X157099250Y-72406500D01*
X155956000Y-72406500D01*
X155702000Y-72406500D01*
X154558750Y-72406500D01*
X154352000Y-72613250D01*
X146295460Y-72613250D01*
X147598776Y-71309935D01*
X147685193Y-71252193D01*
X147913948Y-70909837D01*
X147974000Y-70607935D01*
X147974000Y-70607934D01*
X147994276Y-70506001D01*
X147974000Y-70404066D01*
X147974000Y-63855934D01*
X147994276Y-63754000D01*
X147974000Y-63652065D01*
X147974000Y-62277710D01*
X147996934Y-62254776D01*
X148256711Y-61995000D01*
X154130290Y-61995000D01*
X154692701Y-62557411D01*
G36*
X135318282Y-64972830D02*
X135211816Y-65309211D01*
X136398000Y-66495395D01*
X137584184Y-65309211D01*
X137477718Y-64972830D01*
X137002245Y-64789000D01*
X145904001Y-64789000D01*
X145904000Y-69621065D01*
X145904000Y-70077289D01*
X142088224Y-73893066D01*
X141783427Y-74197863D01*
X141697007Y-74255607D01*
X141482387Y-74576809D01*
X141468252Y-74597964D01*
X141387924Y-75001800D01*
X141408200Y-75103734D01*
X141408201Y-79054541D01*
X141335391Y-79103191D01*
X141195043Y-79313235D01*
X141169200Y-79443158D01*
X141169200Y-76998359D01*
X141186537Y-76911199D01*
X141169200Y-76824039D01*
X141169200Y-76824035D01*
X141117852Y-76565890D01*
X140996984Y-76384999D01*
X140971624Y-76347045D01*
X140971623Y-76347044D01*
X140922249Y-76273151D01*
X140848356Y-76223777D01*
X139823000Y-75198422D01*
X139823000Y-71379799D01*
X139912948Y-71245182D01*
X139973000Y-70943280D01*
X139973000Y-70704371D01*
X140451250Y-70226121D01*
X140723000Y-69570059D01*
X140723000Y-68859941D01*
X142233000Y-68859941D01*
X142233000Y-69570059D01*
X142504750Y-70226121D01*
X143006879Y-70728250D01*
X143662941Y-71000000D01*
X144373059Y-71000000D01*
X145029121Y-70728250D01*
X145531250Y-70226121D01*
X145803000Y-69570059D01*
X145803000Y-68859941D01*
X145531250Y-68203879D01*
X145029121Y-67701750D01*
X144373059Y-67430000D01*
X143662941Y-67430000D01*
X143006879Y-67701750D01*
X142504750Y-68203879D01*
X142233000Y-68859941D01*
X140723000Y-68859941D01*
X140451250Y-68203879D01*
X139949121Y-67701750D01*
X139293059Y-67430000D01*
X138582941Y-67430000D01*
X138157597Y-67606183D01*
X138383791Y-67021137D01*
X138367116Y-66319941D01*
X139693000Y-66319941D01*
X139693000Y-67030059D01*
X139964750Y-67686121D01*
X140466879Y-68188250D01*
X141122941Y-68460000D01*
X141833059Y-68460000D01*
X142489121Y-68188250D01*
X142991250Y-67686121D01*
X143263000Y-67030059D01*
X143263000Y-66319941D01*
X142991250Y-65663879D01*
X142489121Y-65161750D01*
X141833059Y-64890000D01*
X141122941Y-64890000D01*
X140466879Y-65161750D01*
X139964750Y-65663879D01*
X139693000Y-66319941D01*
X138367116Y-66319941D01*
X138365092Y-66234860D01*
X138100170Y-65595282D01*
X137763789Y-65488816D01*
X136577605Y-66675000D01*
X136591748Y-66689143D01*
X136412143Y-66868748D01*
X136398000Y-66854605D01*
X136383858Y-66868748D01*
X136204253Y-66689143D01*
X136218395Y-66675000D01*
X135032211Y-65488816D01*
X134743000Y-65580352D01*
X134743000Y-65034961D01*
X134760337Y-64947800D01*
X134743000Y-64860639D01*
X134743000Y-64860635D01*
X134728751Y-64789000D01*
X135762087Y-64789000D01*
X135318282Y-64972830D01*
X135318282Y-64972830D01*
G37*
X135318282Y-64972830D02*
X135211816Y-65309211D01*
X136398000Y-66495395D01*
X137584184Y-65309211D01*
X137477718Y-64972830D01*
X137002245Y-64789000D01*
X145904001Y-64789000D01*
X145904000Y-69621065D01*
X145904000Y-70077289D01*
X142088224Y-73893066D01*
X141783427Y-74197863D01*
X141697007Y-74255607D01*
X141482387Y-74576809D01*
X141468252Y-74597964D01*
X141387924Y-75001800D01*
X141408200Y-75103734D01*
X141408201Y-79054541D01*
X141335391Y-79103191D01*
X141195043Y-79313235D01*
X141169200Y-79443158D01*
X141169200Y-76998359D01*
X141186537Y-76911199D01*
X141169200Y-76824039D01*
X141169200Y-76824035D01*
X141117852Y-76565890D01*
X140996984Y-76384999D01*
X140971624Y-76347045D01*
X140971623Y-76347044D01*
X140922249Y-76273151D01*
X140848356Y-76223777D01*
X139823000Y-75198422D01*
X139823000Y-71379799D01*
X139912948Y-71245182D01*
X139973000Y-70943280D01*
X139973000Y-70704371D01*
X140451250Y-70226121D01*
X140723000Y-69570059D01*
X140723000Y-68859941D01*
X142233000Y-68859941D01*
X142233000Y-69570059D01*
X142504750Y-70226121D01*
X143006879Y-70728250D01*
X143662941Y-71000000D01*
X144373059Y-71000000D01*
X145029121Y-70728250D01*
X145531250Y-70226121D01*
X145803000Y-69570059D01*
X145803000Y-68859941D01*
X145531250Y-68203879D01*
X145029121Y-67701750D01*
X144373059Y-67430000D01*
X143662941Y-67430000D01*
X143006879Y-67701750D01*
X142504750Y-68203879D01*
X142233000Y-68859941D01*
X140723000Y-68859941D01*
X140451250Y-68203879D01*
X139949121Y-67701750D01*
X139293059Y-67430000D01*
X138582941Y-67430000D01*
X138157597Y-67606183D01*
X138383791Y-67021137D01*
X138367116Y-66319941D01*
X139693000Y-66319941D01*
X139693000Y-67030059D01*
X139964750Y-67686121D01*
X140466879Y-68188250D01*
X141122941Y-68460000D01*
X141833059Y-68460000D01*
X142489121Y-68188250D01*
X142991250Y-67686121D01*
X143263000Y-67030059D01*
X143263000Y-66319941D01*
X142991250Y-65663879D01*
X142489121Y-65161750D01*
X141833059Y-64890000D01*
X141122941Y-64890000D01*
X140466879Y-65161750D01*
X139964750Y-65663879D01*
X139693000Y-66319941D01*
X138367116Y-66319941D01*
X138365092Y-66234860D01*
X138100170Y-65595282D01*
X137763789Y-65488816D01*
X136577605Y-66675000D01*
X136591748Y-66689143D01*
X136412143Y-66868748D01*
X136398000Y-66854605D01*
X136383858Y-66868748D01*
X136204253Y-66689143D01*
X136218395Y-66675000D01*
X135032211Y-65488816D01*
X134743000Y-65580352D01*
X134743000Y-65034961D01*
X134760337Y-64947800D01*
X134743000Y-64860639D01*
X134743000Y-64860635D01*
X134728751Y-64789000D01*
X135762087Y-64789000D01*
X135318282Y-64972830D01*
G36*
X173324018Y-69406571D02*
X173671429Y-69753982D01*
X174125343Y-69942000D01*
X174616657Y-69942000D01*
X175070571Y-69753982D01*
X175082680Y-69741873D01*
X175702808Y-70362000D01*
X175232553Y-70362000D01*
X175070571Y-70200018D01*
X174616657Y-70012000D01*
X174125343Y-70012000D01*
X173671429Y-70200018D01*
X173324018Y-70547429D01*
X173136000Y-71001343D01*
X173136000Y-71492657D01*
X173324018Y-71946571D01*
X173671429Y-72293982D01*
X174125343Y-72482000D01*
X174616657Y-72482000D01*
X174685400Y-72453526D01*
X174685400Y-72615186D01*
X174533849Y-72841999D01*
X174485401Y-73085563D01*
X174485401Y-73085566D01*
X174469044Y-73167799D01*
X174485401Y-73250032D01*
X174485401Y-73714368D01*
X174469044Y-73796601D01*
X174485401Y-73878834D01*
X174485401Y-73878838D01*
X174499717Y-73950808D01*
X174533849Y-74122401D01*
X174628475Y-74264018D01*
X174654401Y-74302819D01*
X174654401Y-75723287D01*
X174652500Y-75722500D01*
X174196750Y-75722500D01*
X173990000Y-75929250D01*
X173990000Y-77172500D01*
X174010000Y-77172500D01*
X174010000Y-77426500D01*
X173990000Y-77426500D01*
X173990000Y-77446500D01*
X173736000Y-77446500D01*
X173736000Y-77426500D01*
X172617750Y-77426500D01*
X172411000Y-77633250D01*
X172411000Y-78214001D01*
X172536903Y-78517958D01*
X172712276Y-78693331D01*
X172664723Y-78764500D01*
X170873434Y-78764500D01*
X170771500Y-78744224D01*
X170669566Y-78764500D01*
X170669565Y-78764500D01*
X170616778Y-78775000D01*
X170577579Y-78775000D01*
X169956001Y-78153423D01*
X169956001Y-76245301D01*
X169990571Y-76230982D01*
X170243500Y-75978053D01*
X170496429Y-76230982D01*
X170950343Y-76419000D01*
X171441657Y-76419000D01*
X171523742Y-76384999D01*
X172411000Y-76384999D01*
X172411000Y-76965750D01*
X172617750Y-77172500D01*
X173736000Y-77172500D01*
X173736000Y-75929250D01*
X173529250Y-75722500D01*
X173073500Y-75722500D01*
X172769542Y-75848403D01*
X172536903Y-76081042D01*
X172411000Y-76384999D01*
X171523742Y-76384999D01*
X171895571Y-76230982D01*
X172242982Y-75883571D01*
X172431000Y-75429657D01*
X172431000Y-74938343D01*
X172242982Y-74484429D01*
X172081000Y-74322447D01*
X172081000Y-70546576D01*
X173293846Y-69333730D01*
X173324018Y-69406571D01*
X173324018Y-69406571D01*
G37*
X173324018Y-69406571D02*
X173671429Y-69753982D01*
X174125343Y-69942000D01*
X174616657Y-69942000D01*
X175070571Y-69753982D01*
X175082680Y-69741873D01*
X175702808Y-70362000D01*
X175232553Y-70362000D01*
X175070571Y-70200018D01*
X174616657Y-70012000D01*
X174125343Y-70012000D01*
X173671429Y-70200018D01*
X173324018Y-70547429D01*
X173136000Y-71001343D01*
X173136000Y-71492657D01*
X173324018Y-71946571D01*
X173671429Y-72293982D01*
X174125343Y-72482000D01*
X174616657Y-72482000D01*
X174685400Y-72453526D01*
X174685400Y-72615186D01*
X174533849Y-72841999D01*
X174485401Y-73085563D01*
X174485401Y-73085566D01*
X174469044Y-73167799D01*
X174485401Y-73250032D01*
X174485401Y-73714368D01*
X174469044Y-73796601D01*
X174485401Y-73878834D01*
X174485401Y-73878838D01*
X174499717Y-73950808D01*
X174533849Y-74122401D01*
X174628475Y-74264018D01*
X174654401Y-74302819D01*
X174654401Y-75723287D01*
X174652500Y-75722500D01*
X174196750Y-75722500D01*
X173990000Y-75929250D01*
X173990000Y-77172500D01*
X174010000Y-77172500D01*
X174010000Y-77426500D01*
X173990000Y-77426500D01*
X173990000Y-77446500D01*
X173736000Y-77446500D01*
X173736000Y-77426500D01*
X172617750Y-77426500D01*
X172411000Y-77633250D01*
X172411000Y-78214001D01*
X172536903Y-78517958D01*
X172712276Y-78693331D01*
X172664723Y-78764500D01*
X170873434Y-78764500D01*
X170771500Y-78744224D01*
X170669566Y-78764500D01*
X170669565Y-78764500D01*
X170616778Y-78775000D01*
X170577579Y-78775000D01*
X169956001Y-78153423D01*
X169956001Y-76245301D01*
X169990571Y-76230982D01*
X170243500Y-75978053D01*
X170496429Y-76230982D01*
X170950343Y-76419000D01*
X171441657Y-76419000D01*
X171523742Y-76384999D01*
X172411000Y-76384999D01*
X172411000Y-76965750D01*
X172617750Y-77172500D01*
X173736000Y-77172500D01*
X173736000Y-75929250D01*
X173529250Y-75722500D01*
X173073500Y-75722500D01*
X172769542Y-75848403D01*
X172536903Y-76081042D01*
X172411000Y-76384999D01*
X171523742Y-76384999D01*
X171895571Y-76230982D01*
X172242982Y-75883571D01*
X172431000Y-75429657D01*
X172431000Y-74938343D01*
X172242982Y-74484429D01*
X172081000Y-74322447D01*
X172081000Y-70546576D01*
X173293846Y-69333730D01*
X173324018Y-69406571D01*
G36*
X167855001Y-67942061D02*
X167855000Y-67942066D01*
X167855000Y-68270723D01*
X167783831Y-68318276D01*
X167608458Y-68142903D01*
X167304501Y-68017000D01*
X166724079Y-68017000D01*
X166934156Y-67806923D01*
X167008049Y-67757549D01*
X167059392Y-67680710D01*
X167203652Y-67464810D01*
X167221287Y-67376151D01*
X167255000Y-67206665D01*
X167255000Y-67206661D01*
X167272337Y-67119500D01*
X167255000Y-67032339D01*
X167255000Y-67022954D01*
X167344948Y-66888337D01*
X167405000Y-66586435D01*
X167405000Y-66261785D01*
X167450430Y-66231430D01*
X167781650Y-65735725D01*
X167855000Y-65366968D01*
X167855001Y-67942061D01*
X167855001Y-67942061D01*
G37*
X167855001Y-67942061D02*
X167855000Y-67942066D01*
X167855000Y-68270723D01*
X167783831Y-68318276D01*
X167608458Y-68142903D01*
X167304501Y-68017000D01*
X166724079Y-68017000D01*
X166934156Y-67806923D01*
X167008049Y-67757549D01*
X167059392Y-67680710D01*
X167203652Y-67464810D01*
X167221287Y-67376151D01*
X167255000Y-67206665D01*
X167255000Y-67206661D01*
X167272337Y-67119500D01*
X167255000Y-67032339D01*
X167255000Y-67022954D01*
X167344948Y-66888337D01*
X167405000Y-66586435D01*
X167405000Y-66261785D01*
X167450430Y-66231430D01*
X167781650Y-65735725D01*
X167855000Y-65366968D01*
X167855001Y-67942061D01*
G36*
X167637419Y-64168709D02*
X167723836Y-64226451D01*
X167855000Y-64357615D01*
X167855000Y-64935032D01*
X167781650Y-64566275D01*
X167450430Y-64070570D01*
X167325346Y-63986991D01*
X167442901Y-63877593D01*
X167637419Y-64168709D01*
X167637419Y-64168709D01*
G37*
X167637419Y-64168709D02*
X167723836Y-64226451D01*
X167855000Y-64357615D01*
X167855000Y-64935032D01*
X167781650Y-64566275D01*
X167450430Y-64070570D01*
X167325346Y-63986991D01*
X167442901Y-63877593D01*
X167637419Y-64168709D01*
G36*
X158877000Y-62484000D02*
X161163000Y-62484000D01*
X161163000Y-62464000D01*
X161417000Y-62464000D01*
X161417000Y-62484000D01*
X163703000Y-62484000D01*
X163703000Y-62464000D01*
X163957000Y-62464000D01*
X163957000Y-62484000D01*
X166243000Y-62484000D01*
X166243000Y-62464000D01*
X166497000Y-62464000D01*
X166497000Y-62484000D01*
X166517000Y-62484000D01*
X166517000Y-62738000D01*
X166497000Y-62738000D01*
X166497000Y-62758000D01*
X166243000Y-62758000D01*
X166243000Y-62738000D01*
X163957000Y-62738000D01*
X163957000Y-62758000D01*
X163703000Y-62758000D01*
X163703000Y-62738000D01*
X161417000Y-62738000D01*
X161417000Y-62758000D01*
X161163000Y-62758000D01*
X161163000Y-62738000D01*
X158877000Y-62738000D01*
X158877000Y-62758000D01*
X158623000Y-62758000D01*
X158623000Y-62738000D01*
X158603000Y-62738000D01*
X158603000Y-62484000D01*
X158623000Y-62484000D01*
X158623000Y-62464000D01*
X158877000Y-62464000D01*
X158877000Y-62484000D01*
X158877000Y-62484000D01*
G37*
X158877000Y-62484000D02*
X161163000Y-62484000D01*
X161163000Y-62464000D01*
X161417000Y-62464000D01*
X161417000Y-62484000D01*
X163703000Y-62484000D01*
X163703000Y-62464000D01*
X163957000Y-62464000D01*
X163957000Y-62484000D01*
X166243000Y-62484000D01*
X166243000Y-62464000D01*
X166497000Y-62464000D01*
X166497000Y-62484000D01*
X166517000Y-62484000D01*
X166517000Y-62738000D01*
X166497000Y-62738000D01*
X166497000Y-62758000D01*
X166243000Y-62758000D01*
X166243000Y-62738000D01*
X163957000Y-62738000D01*
X163957000Y-62758000D01*
X163703000Y-62758000D01*
X163703000Y-62738000D01*
X161417000Y-62738000D01*
X161417000Y-62758000D01*
X161163000Y-62758000D01*
X161163000Y-62738000D01*
X158877000Y-62738000D01*
X158877000Y-62758000D01*
X158623000Y-62758000D01*
X158623000Y-62738000D01*
X158603000Y-62738000D01*
X158603000Y-62484000D01*
X158623000Y-62484000D01*
X158623000Y-62464000D01*
X158877000Y-62464000D01*
X158877000Y-62484000D01*
G36*
X117703600Y-111304000D02*
X114275652Y-111304000D01*
X114494439Y-111157811D01*
X114541025Y-111088090D01*
X115342773Y-110286343D01*
X115412492Y-110239758D01*
X115597043Y-109963558D01*
X115645491Y-109719994D01*
X115645491Y-109719991D01*
X115661848Y-109637758D01*
X115645491Y-109555525D01*
X115645491Y-107907723D01*
X115661848Y-107825490D01*
X115645491Y-107743255D01*
X115645491Y-107743254D01*
X115597043Y-107499690D01*
X115412492Y-107223490D01*
X115342774Y-107176906D01*
X114996937Y-106831070D01*
X115077511Y-106426000D01*
X114950655Y-105788254D01*
X114589401Y-105247599D01*
X114452313Y-105156000D01*
X114589401Y-105064401D01*
X114950655Y-104523746D01*
X115077511Y-103886000D01*
X114950655Y-103248254D01*
X114589401Y-102707599D01*
X114452313Y-102616000D01*
X114589401Y-102524401D01*
X114950655Y-101983746D01*
X115077511Y-101346000D01*
X115041940Y-101167175D01*
X115842774Y-100366342D01*
X115912492Y-100319758D01*
X116097043Y-100043558D01*
X116145491Y-99799994D01*
X116145491Y-99799993D01*
X116161849Y-99717757D01*
X116145491Y-99635520D01*
X116145491Y-79388741D01*
X116161848Y-79306508D01*
X116145491Y-79224275D01*
X116145491Y-79224272D01*
X116097043Y-78980708D01*
X115912492Y-78704508D01*
X115842773Y-78657923D01*
X115779078Y-78594228D01*
X115732492Y-78524508D01*
X115456292Y-78339957D01*
X115212728Y-78291509D01*
X115212724Y-78291509D01*
X115130491Y-78275152D01*
X115048258Y-78291509D01*
X105425721Y-78291509D01*
X105343488Y-78275152D01*
X105261255Y-78291509D01*
X105261252Y-78291509D01*
X105017688Y-78339957D01*
X104741488Y-78524508D01*
X104694906Y-78594223D01*
X101727000Y-81562130D01*
X101727000Y-81484858D01*
X101494985Y-80924723D01*
X101066277Y-80496015D01*
X100506142Y-80264000D01*
X99899858Y-80264000D01*
X99339723Y-80496015D01*
X98911015Y-80924723D01*
X98679000Y-81484858D01*
X98679000Y-82091142D01*
X98911015Y-82651277D01*
X99339723Y-83079985D01*
X99899858Y-83312000D01*
X99977130Y-83312000D01*
X96595719Y-86693412D01*
X96525998Y-86739998D01*
X96341447Y-87016199D01*
X96325860Y-87094560D01*
X95377000Y-87094560D01*
X95377000Y-86564858D01*
X95144985Y-86004723D01*
X94716277Y-85576015D01*
X94156142Y-85344000D01*
X93549858Y-85344000D01*
X92989723Y-85576015D01*
X92561015Y-86004723D01*
X92329000Y-86564858D01*
X92329000Y-87171142D01*
X92561015Y-87731277D01*
X92989723Y-88159985D01*
X93549858Y-88392000D01*
X94156142Y-88392000D01*
X94280560Y-88340464D01*
X94280560Y-88437861D01*
X93687422Y-89031000D01*
X90711972Y-89031000D01*
X90915316Y-88827656D01*
X91186000Y-88174166D01*
X91186000Y-87466834D01*
X90915316Y-86813344D01*
X90415156Y-86313184D01*
X89761666Y-86042500D01*
X89054334Y-86042500D01*
X88400844Y-86313184D01*
X87900684Y-86813344D01*
X87630000Y-87466834D01*
X87630000Y-88174166D01*
X87900684Y-88827656D01*
X88104028Y-89031000D01*
X85691954Y-89031000D01*
X85557337Y-88941052D01*
X85255435Y-88881000D01*
X85184785Y-88881000D01*
X85159349Y-88842932D01*
X85185365Y-88837757D01*
X85395409Y-88697409D01*
X85535757Y-88487365D01*
X85585040Y-88239600D01*
X85585040Y-86512400D01*
X85535757Y-86264635D01*
X85395409Y-86054591D01*
X85185365Y-85914243D01*
X84937600Y-85864960D01*
X83210400Y-85864960D01*
X82962635Y-85914243D01*
X82752591Y-86054591D01*
X82612243Y-86264635D01*
X82607068Y-86290651D01*
X82118725Y-85964350D01*
X81681598Y-85877400D01*
X81386402Y-85877400D01*
X80949275Y-85964350D01*
X80453570Y-86295570D01*
X80122350Y-86791275D01*
X80006041Y-87376000D01*
X80122350Y-87960725D01*
X80453570Y-88456430D01*
X80737281Y-88646000D01*
X80453570Y-88835570D01*
X80122350Y-89331275D01*
X80006041Y-89916000D01*
X80122350Y-90500725D01*
X80453570Y-90996430D01*
X80737281Y-91186000D01*
X80453570Y-91375570D01*
X80122350Y-91871275D01*
X80006041Y-92456000D01*
X80122350Y-93040725D01*
X80453570Y-93536430D01*
X80737281Y-93726000D01*
X80453570Y-93915570D01*
X80122350Y-94411275D01*
X80006041Y-94996000D01*
X80122350Y-95580725D01*
X80453570Y-96076430D01*
X80737281Y-96266000D01*
X80453570Y-96455570D01*
X80122350Y-96951275D01*
X80006041Y-97536000D01*
X80122350Y-98120725D01*
X80453570Y-98616430D01*
X80737281Y-98806000D01*
X80453570Y-98995570D01*
X80122350Y-99491275D01*
X80006041Y-100076000D01*
X80122350Y-100660725D01*
X80453570Y-101156430D01*
X80755021Y-101357854D01*
X80645510Y-101409179D01*
X80251312Y-101841053D01*
X80079042Y-102256974D01*
X80200183Y-102489000D01*
X81407000Y-102489000D01*
X81407000Y-102469000D01*
X81661000Y-102469000D01*
X81661000Y-102489000D01*
X81681000Y-102489000D01*
X81681000Y-102743000D01*
X81661000Y-102743000D01*
X81661000Y-103950469D01*
X81893027Y-104070968D01*
X81978002Y-104031142D01*
X81962602Y-104108563D01*
X81962601Y-105332367D01*
X81946244Y-105414601D01*
X81962601Y-105496834D01*
X81962601Y-105496837D01*
X82011049Y-105740401D01*
X82195600Y-106016602D01*
X82265321Y-106063188D01*
X82986227Y-106784095D01*
X82957746Y-106826720D01*
X82816098Y-106685073D01*
X82582709Y-106588400D01*
X81992150Y-106588400D01*
X81833400Y-106747150D01*
X81833400Y-107721400D01*
X81853400Y-107721400D01*
X81853400Y-107975400D01*
X81833400Y-107975400D01*
X81833400Y-108949650D01*
X81992150Y-109108400D01*
X82582709Y-109108400D01*
X82816098Y-109011727D01*
X82957746Y-108870080D01*
X82998591Y-108931209D01*
X83208635Y-109071557D01*
X83402114Y-109110042D01*
X83419848Y-109199200D01*
X83491537Y-109306490D01*
X83604400Y-109475401D01*
X83674117Y-109521985D01*
X83828214Y-109676082D01*
X83858101Y-109720810D01*
X81067200Y-109720810D01*
X81067200Y-109533143D01*
X80891265Y-109108400D01*
X81420650Y-109108400D01*
X81579400Y-108949650D01*
X81579400Y-107975400D01*
X80480150Y-107975400D01*
X80321400Y-108134150D01*
X80321400Y-108599710D01*
X80343885Y-108653993D01*
X80077857Y-108543800D01*
X79586543Y-108543800D01*
X79132629Y-108731818D01*
X78785218Y-109079229D01*
X78597200Y-109533143D01*
X78597200Y-110024457D01*
X78785218Y-110478371D01*
X79132629Y-110825782D01*
X79586543Y-111013800D01*
X79886332Y-111013800D01*
X79899915Y-111027383D01*
X79899917Y-111027384D01*
X79960624Y-111088092D01*
X80007209Y-111157811D01*
X80225996Y-111304000D01*
X77926000Y-111304000D01*
X77926000Y-107097090D01*
X80321400Y-107097090D01*
X80321400Y-107562650D01*
X80480150Y-107721400D01*
X81579400Y-107721400D01*
X81579400Y-106747150D01*
X81420650Y-106588400D01*
X80830091Y-106588400D01*
X80596702Y-106685073D01*
X80418073Y-106863701D01*
X80321400Y-107097090D01*
X77926000Y-107097090D01*
X77926000Y-102975026D01*
X80079042Y-102975026D01*
X80251312Y-103390947D01*
X80645510Y-103822821D01*
X81174973Y-104070968D01*
X81407000Y-103950469D01*
X81407000Y-102743000D01*
X80200183Y-102743000D01*
X80079042Y-102975026D01*
X77926000Y-102975026D01*
X77926000Y-81422996D01*
X85668000Y-81422996D01*
X85668000Y-82153004D01*
X85947362Y-82827444D01*
X86463556Y-83343638D01*
X87137996Y-83623000D01*
X87868004Y-83623000D01*
X88542444Y-83343638D01*
X89058638Y-82827444D01*
X89338000Y-82153004D01*
X89338000Y-81484858D01*
X92329000Y-81484858D01*
X92329000Y-82091142D01*
X92561015Y-82651277D01*
X92989723Y-83079985D01*
X93549858Y-83312000D01*
X94156142Y-83312000D01*
X94716277Y-83079985D01*
X95144985Y-82651277D01*
X95377000Y-82091142D01*
X95377000Y-81484858D01*
X95144985Y-80924723D01*
X94716277Y-80496015D01*
X94156142Y-80264000D01*
X93549858Y-80264000D01*
X92989723Y-80496015D01*
X92561015Y-80924723D01*
X92329000Y-81484858D01*
X89338000Y-81484858D01*
X89338000Y-81422996D01*
X89058638Y-80748556D01*
X88542444Y-80232362D01*
X87868004Y-79953000D01*
X87137996Y-79953000D01*
X86463556Y-80232362D01*
X85947362Y-80748556D01*
X85668000Y-81422996D01*
X77926000Y-81422996D01*
X77926000Y-77698600D01*
X117703600Y-77698600D01*
X117703600Y-111304000D01*
X117703600Y-111304000D01*
G37*
X117703600Y-111304000D02*
X114275652Y-111304000D01*
X114494439Y-111157811D01*
X114541025Y-111088090D01*
X115342773Y-110286343D01*
X115412492Y-110239758D01*
X115597043Y-109963558D01*
X115645491Y-109719994D01*
X115645491Y-109719991D01*
X115661848Y-109637758D01*
X115645491Y-109555525D01*
X115645491Y-107907723D01*
X115661848Y-107825490D01*
X115645491Y-107743255D01*
X115645491Y-107743254D01*
X115597043Y-107499690D01*
X115412492Y-107223490D01*
X115342774Y-107176906D01*
X114996937Y-106831070D01*
X115077511Y-106426000D01*
X114950655Y-105788254D01*
X114589401Y-105247599D01*
X114452313Y-105156000D01*
X114589401Y-105064401D01*
X114950655Y-104523746D01*
X115077511Y-103886000D01*
X114950655Y-103248254D01*
X114589401Y-102707599D01*
X114452313Y-102616000D01*
X114589401Y-102524401D01*
X114950655Y-101983746D01*
X115077511Y-101346000D01*
X115041940Y-101167175D01*
X115842774Y-100366342D01*
X115912492Y-100319758D01*
X116097043Y-100043558D01*
X116145491Y-99799994D01*
X116145491Y-99799993D01*
X116161849Y-99717757D01*
X116145491Y-99635520D01*
X116145491Y-79388741D01*
X116161848Y-79306508D01*
X116145491Y-79224275D01*
X116145491Y-79224272D01*
X116097043Y-78980708D01*
X115912492Y-78704508D01*
X115842773Y-78657923D01*
X115779078Y-78594228D01*
X115732492Y-78524508D01*
X115456292Y-78339957D01*
X115212728Y-78291509D01*
X115212724Y-78291509D01*
X115130491Y-78275152D01*
X115048258Y-78291509D01*
X105425721Y-78291509D01*
X105343488Y-78275152D01*
X105261255Y-78291509D01*
X105261252Y-78291509D01*
X105017688Y-78339957D01*
X104741488Y-78524508D01*
X104694906Y-78594223D01*
X101727000Y-81562130D01*
X101727000Y-81484858D01*
X101494985Y-80924723D01*
X101066277Y-80496015D01*
X100506142Y-80264000D01*
X99899858Y-80264000D01*
X99339723Y-80496015D01*
X98911015Y-80924723D01*
X98679000Y-81484858D01*
X98679000Y-82091142D01*
X98911015Y-82651277D01*
X99339723Y-83079985D01*
X99899858Y-83312000D01*
X99977130Y-83312000D01*
X96595719Y-86693412D01*
X96525998Y-86739998D01*
X96341447Y-87016199D01*
X96325860Y-87094560D01*
X95377000Y-87094560D01*
X95377000Y-86564858D01*
X95144985Y-86004723D01*
X94716277Y-85576015D01*
X94156142Y-85344000D01*
X93549858Y-85344000D01*
X92989723Y-85576015D01*
X92561015Y-86004723D01*
X92329000Y-86564858D01*
X92329000Y-87171142D01*
X92561015Y-87731277D01*
X92989723Y-88159985D01*
X93549858Y-88392000D01*
X94156142Y-88392000D01*
X94280560Y-88340464D01*
X94280560Y-88437861D01*
X93687422Y-89031000D01*
X90711972Y-89031000D01*
X90915316Y-88827656D01*
X91186000Y-88174166D01*
X91186000Y-87466834D01*
X90915316Y-86813344D01*
X90415156Y-86313184D01*
X89761666Y-86042500D01*
X89054334Y-86042500D01*
X88400844Y-86313184D01*
X87900684Y-86813344D01*
X87630000Y-87466834D01*
X87630000Y-88174166D01*
X87900684Y-88827656D01*
X88104028Y-89031000D01*
X85691954Y-89031000D01*
X85557337Y-88941052D01*
X85255435Y-88881000D01*
X85184785Y-88881000D01*
X85159349Y-88842932D01*
X85185365Y-88837757D01*
X85395409Y-88697409D01*
X85535757Y-88487365D01*
X85585040Y-88239600D01*
X85585040Y-86512400D01*
X85535757Y-86264635D01*
X85395409Y-86054591D01*
X85185365Y-85914243D01*
X84937600Y-85864960D01*
X83210400Y-85864960D01*
X82962635Y-85914243D01*
X82752591Y-86054591D01*
X82612243Y-86264635D01*
X82607068Y-86290651D01*
X82118725Y-85964350D01*
X81681598Y-85877400D01*
X81386402Y-85877400D01*
X80949275Y-85964350D01*
X80453570Y-86295570D01*
X80122350Y-86791275D01*
X80006041Y-87376000D01*
X80122350Y-87960725D01*
X80453570Y-88456430D01*
X80737281Y-88646000D01*
X80453570Y-88835570D01*
X80122350Y-89331275D01*
X80006041Y-89916000D01*
X80122350Y-90500725D01*
X80453570Y-90996430D01*
X80737281Y-91186000D01*
X80453570Y-91375570D01*
X80122350Y-91871275D01*
X80006041Y-92456000D01*
X80122350Y-93040725D01*
X80453570Y-93536430D01*
X80737281Y-93726000D01*
X80453570Y-93915570D01*
X80122350Y-94411275D01*
X80006041Y-94996000D01*
X80122350Y-95580725D01*
X80453570Y-96076430D01*
X80737281Y-96266000D01*
X80453570Y-96455570D01*
X80122350Y-96951275D01*
X80006041Y-97536000D01*
X80122350Y-98120725D01*
X80453570Y-98616430D01*
X80737281Y-98806000D01*
X80453570Y-98995570D01*
X80122350Y-99491275D01*
X80006041Y-100076000D01*
X80122350Y-100660725D01*
X80453570Y-101156430D01*
X80755021Y-101357854D01*
X80645510Y-101409179D01*
X80251312Y-101841053D01*
X80079042Y-102256974D01*
X80200183Y-102489000D01*
X81407000Y-102489000D01*
X81407000Y-102469000D01*
X81661000Y-102469000D01*
X81661000Y-102489000D01*
X81681000Y-102489000D01*
X81681000Y-102743000D01*
X81661000Y-102743000D01*
X81661000Y-103950469D01*
X81893027Y-104070968D01*
X81978002Y-104031142D01*
X81962602Y-104108563D01*
X81962601Y-105332367D01*
X81946244Y-105414601D01*
X81962601Y-105496834D01*
X81962601Y-105496837D01*
X82011049Y-105740401D01*
X82195600Y-106016602D01*
X82265321Y-106063188D01*
X82986227Y-106784095D01*
X82957746Y-106826720D01*
X82816098Y-106685073D01*
X82582709Y-106588400D01*
X81992150Y-106588400D01*
X81833400Y-106747150D01*
X81833400Y-107721400D01*
X81853400Y-107721400D01*
X81853400Y-107975400D01*
X81833400Y-107975400D01*
X81833400Y-108949650D01*
X81992150Y-109108400D01*
X82582709Y-109108400D01*
X82816098Y-109011727D01*
X82957746Y-108870080D01*
X82998591Y-108931209D01*
X83208635Y-109071557D01*
X83402114Y-109110042D01*
X83419848Y-109199200D01*
X83491537Y-109306490D01*
X83604400Y-109475401D01*
X83674117Y-109521985D01*
X83828214Y-109676082D01*
X83858101Y-109720810D01*
X81067200Y-109720810D01*
X81067200Y-109533143D01*
X80891265Y-109108400D01*
X81420650Y-109108400D01*
X81579400Y-108949650D01*
X81579400Y-107975400D01*
X80480150Y-107975400D01*
X80321400Y-108134150D01*
X80321400Y-108599710D01*
X80343885Y-108653993D01*
X80077857Y-108543800D01*
X79586543Y-108543800D01*
X79132629Y-108731818D01*
X78785218Y-109079229D01*
X78597200Y-109533143D01*
X78597200Y-110024457D01*
X78785218Y-110478371D01*
X79132629Y-110825782D01*
X79586543Y-111013800D01*
X79886332Y-111013800D01*
X79899915Y-111027383D01*
X79899917Y-111027384D01*
X79960624Y-111088092D01*
X80007209Y-111157811D01*
X80225996Y-111304000D01*
X77926000Y-111304000D01*
X77926000Y-107097090D01*
X80321400Y-107097090D01*
X80321400Y-107562650D01*
X80480150Y-107721400D01*
X81579400Y-107721400D01*
X81579400Y-106747150D01*
X81420650Y-106588400D01*
X80830091Y-106588400D01*
X80596702Y-106685073D01*
X80418073Y-106863701D01*
X80321400Y-107097090D01*
X77926000Y-107097090D01*
X77926000Y-102975026D01*
X80079042Y-102975026D01*
X80251312Y-103390947D01*
X80645510Y-103822821D01*
X81174973Y-104070968D01*
X81407000Y-103950469D01*
X81407000Y-102743000D01*
X80200183Y-102743000D01*
X80079042Y-102975026D01*
X77926000Y-102975026D01*
X77926000Y-81422996D01*
X85668000Y-81422996D01*
X85668000Y-82153004D01*
X85947362Y-82827444D01*
X86463556Y-83343638D01*
X87137996Y-83623000D01*
X87868004Y-83623000D01*
X88542444Y-83343638D01*
X89058638Y-82827444D01*
X89338000Y-82153004D01*
X89338000Y-81484858D01*
X92329000Y-81484858D01*
X92329000Y-82091142D01*
X92561015Y-82651277D01*
X92989723Y-83079985D01*
X93549858Y-83312000D01*
X94156142Y-83312000D01*
X94716277Y-83079985D01*
X95144985Y-82651277D01*
X95377000Y-82091142D01*
X95377000Y-81484858D01*
X95144985Y-80924723D01*
X94716277Y-80496015D01*
X94156142Y-80264000D01*
X93549858Y-80264000D01*
X92989723Y-80496015D01*
X92561015Y-80924723D01*
X92329000Y-81484858D01*
X89338000Y-81484858D01*
X89338000Y-81422996D01*
X89058638Y-80748556D01*
X88542444Y-80232362D01*
X87868004Y-79953000D01*
X87137996Y-79953000D01*
X86463556Y-80232362D01*
X85947362Y-80748556D01*
X85668000Y-81422996D01*
X77926000Y-81422996D01*
X77926000Y-77698600D01*
X117703600Y-77698600D01*
X117703600Y-111304000D01*
G36*
X97447350Y-107823000D02*
X98546600Y-107823000D01*
X98546600Y-107803000D01*
X98800600Y-107803000D01*
X98800600Y-107823000D01*
X98820600Y-107823000D01*
X98820600Y-108077000D01*
X98800600Y-108077000D01*
X98800600Y-109051250D01*
X98959350Y-109210000D01*
X99549909Y-109210000D01*
X99783298Y-109113327D01*
X99924946Y-108971680D01*
X99965791Y-109032809D01*
X100175835Y-109173157D01*
X100423600Y-109222440D01*
X101923600Y-109222440D01*
X102171365Y-109173157D01*
X102305531Y-109083509D01*
X102942831Y-109720810D01*
X94858009Y-109720810D01*
X94928507Y-109673705D01*
X94969513Y-109612335D01*
X95090536Y-109491312D01*
X95151906Y-109450306D01*
X95295502Y-109235400D01*
X95686250Y-109235400D01*
X95845000Y-109076650D01*
X95845000Y-108102400D01*
X96099000Y-108102400D01*
X96099000Y-109076650D01*
X96257750Y-109235400D01*
X96848309Y-109235400D01*
X97081698Y-109138727D01*
X97260327Y-108960099D01*
X97328061Y-108796576D01*
X97385273Y-108934699D01*
X97563902Y-109113327D01*
X97797291Y-109210000D01*
X98387850Y-109210000D01*
X98546600Y-109051250D01*
X98546600Y-108077000D01*
X97447350Y-108077000D01*
X97310100Y-108214250D01*
X97198250Y-108102400D01*
X96099000Y-108102400D01*
X95845000Y-108102400D01*
X95825000Y-108102400D01*
X95825000Y-107848400D01*
X95845000Y-107848400D01*
X95845000Y-107828400D01*
X96099000Y-107828400D01*
X96099000Y-107848400D01*
X97198250Y-107848400D01*
X97335500Y-107711150D01*
X97447350Y-107823000D01*
X97447350Y-107823000D01*
G37*
X97447350Y-107823000D02*
X98546600Y-107823000D01*
X98546600Y-107803000D01*
X98800600Y-107803000D01*
X98800600Y-107823000D01*
X98820600Y-107823000D01*
X98820600Y-108077000D01*
X98800600Y-108077000D01*
X98800600Y-109051250D01*
X98959350Y-109210000D01*
X99549909Y-109210000D01*
X99783298Y-109113327D01*
X99924946Y-108971680D01*
X99965791Y-109032809D01*
X100175835Y-109173157D01*
X100423600Y-109222440D01*
X101923600Y-109222440D01*
X102171365Y-109173157D01*
X102305531Y-109083509D01*
X102942831Y-109720810D01*
X94858009Y-109720810D01*
X94928507Y-109673705D01*
X94969513Y-109612335D01*
X95090536Y-109491312D01*
X95151906Y-109450306D01*
X95295502Y-109235400D01*
X95686250Y-109235400D01*
X95845000Y-109076650D01*
X95845000Y-108102400D01*
X96099000Y-108102400D01*
X96099000Y-109076650D01*
X96257750Y-109235400D01*
X96848309Y-109235400D01*
X97081698Y-109138727D01*
X97260327Y-108960099D01*
X97328061Y-108796576D01*
X97385273Y-108934699D01*
X97563902Y-109113327D01*
X97797291Y-109210000D01*
X98387850Y-109210000D01*
X98546600Y-109051250D01*
X98546600Y-108077000D01*
X97447350Y-108077000D01*
X97310100Y-108214250D01*
X97198250Y-108102400D01*
X96099000Y-108102400D01*
X95845000Y-108102400D01*
X95825000Y-108102400D01*
X95825000Y-107848400D01*
X95845000Y-107848400D01*
X95845000Y-107828400D01*
X96099000Y-107828400D01*
X96099000Y-107848400D01*
X97198250Y-107848400D01*
X97335500Y-107711150D01*
X97447350Y-107823000D01*
G36*
X93694016Y-101504284D02*
X93740600Y-101574002D01*
X94016800Y-101758553D01*
X94260364Y-101807001D01*
X94260367Y-101807001D01*
X94342600Y-101823358D01*
X94424833Y-101807001D01*
X96745768Y-101807001D01*
X96828001Y-101823358D01*
X96910234Y-101807001D01*
X96910238Y-101807001D01*
X97153802Y-101758553D01*
X97430002Y-101574002D01*
X97476588Y-101504281D01*
X97660279Y-101320590D01*
X97730000Y-101274004D01*
X97833276Y-101119440D01*
X99128000Y-101119440D01*
X99375765Y-101070157D01*
X99585809Y-100929809D01*
X99649827Y-100834000D01*
X101639839Y-100834000D01*
X101727000Y-100851337D01*
X101814161Y-100834000D01*
X101814165Y-100834000D01*
X101975875Y-100801834D01*
X102870000Y-100801834D01*
X102870000Y-101509166D01*
X103140684Y-102162656D01*
X103640844Y-102662816D01*
X104294334Y-102933500D01*
X105001666Y-102933500D01*
X105655156Y-102662816D01*
X106155316Y-102162656D01*
X106426000Y-101509166D01*
X106426000Y-100801834D01*
X106155316Y-100148344D01*
X105655156Y-99648184D01*
X105001666Y-99377500D01*
X104294334Y-99377500D01*
X103640844Y-99648184D01*
X103140684Y-100148344D01*
X102870000Y-100801834D01*
X101975875Y-100801834D01*
X102072310Y-100782652D01*
X102365049Y-100587049D01*
X102414425Y-100513153D01*
X103675578Y-99252001D01*
X111191931Y-99252001D01*
X111198845Y-99258915D01*
X111394807Y-99552193D01*
X111737163Y-99780948D01*
X112039065Y-99841000D01*
X112136782Y-99841000D01*
X112232599Y-99984401D01*
X112369687Y-100076000D01*
X112232599Y-100167599D01*
X112136782Y-100311000D01*
X111975565Y-100311000D01*
X111673663Y-100371052D01*
X111464216Y-100511000D01*
X110898832Y-100511000D01*
X110816599Y-100494643D01*
X110734366Y-100511000D01*
X110734363Y-100511000D01*
X110490799Y-100559448D01*
X110214599Y-100743999D01*
X110168015Y-100813717D01*
X108235918Y-102745815D01*
X108166200Y-102792399D01*
X108119616Y-102862117D01*
X107981648Y-103068600D01*
X107963914Y-103157758D01*
X107770435Y-103196243D01*
X107560391Y-103336591D01*
X107519546Y-103397720D01*
X107377898Y-103256073D01*
X107144509Y-103159400D01*
X106553950Y-103159400D01*
X106395200Y-103318150D01*
X106395200Y-104292400D01*
X106415200Y-104292400D01*
X106415200Y-104546400D01*
X106395200Y-104546400D01*
X106395200Y-104566400D01*
X106141200Y-104566400D01*
X106141200Y-104546400D01*
X105041950Y-104546400D01*
X104978949Y-104609401D01*
X102155836Y-104609401D01*
X102073599Y-104593043D01*
X101991362Y-104609401D01*
X101747798Y-104657849D01*
X101471598Y-104842400D01*
X101425014Y-104912118D01*
X100884118Y-105453015D01*
X101092000Y-104951142D01*
X101092000Y-104344858D01*
X100859985Y-103784723D01*
X100743352Y-103668090D01*
X104883200Y-103668090D01*
X104883200Y-104133650D01*
X105041950Y-104292400D01*
X106141200Y-104292400D01*
X106141200Y-103318150D01*
X105982450Y-103159400D01*
X105391891Y-103159400D01*
X105158502Y-103256073D01*
X104979873Y-103434701D01*
X104883200Y-103668090D01*
X100743352Y-103668090D01*
X100431277Y-103356015D01*
X99871142Y-103124000D01*
X99264858Y-103124000D01*
X98704723Y-103356015D01*
X98298000Y-103762738D01*
X97891277Y-103356015D01*
X97331142Y-103124000D01*
X96724858Y-103124000D01*
X96164723Y-103356015D01*
X95736015Y-103784723D01*
X95725367Y-103810430D01*
X95560196Y-103755409D01*
X94667605Y-104648000D01*
X94681748Y-104662143D01*
X94502143Y-104841748D01*
X94488000Y-104827605D01*
X93595409Y-105720196D01*
X93680467Y-105975539D01*
X94249965Y-106183516D01*
X94647777Y-106166577D01*
X94153466Y-106660888D01*
X94092096Y-106701894D01*
X94091384Y-106702960D01*
X93326139Y-106702960D01*
X91033144Y-104409965D01*
X92952484Y-104409965D01*
X92978277Y-105015700D01*
X93160461Y-105455533D01*
X93415804Y-105540591D01*
X94308395Y-104648000D01*
X93415804Y-103755409D01*
X93160461Y-103840467D01*
X92952484Y-104409965D01*
X91033144Y-104409965D01*
X90198983Y-103575804D01*
X93595409Y-103575804D01*
X94488000Y-104468395D01*
X95380591Y-103575804D01*
X95295533Y-103320461D01*
X94726035Y-103112484D01*
X94120300Y-103138277D01*
X93680467Y-103320461D01*
X93595409Y-103575804D01*
X90198983Y-103575804D01*
X89556678Y-102933500D01*
X89761666Y-102933500D01*
X90415156Y-102662816D01*
X90915316Y-102162656D01*
X91186000Y-101509166D01*
X91186000Y-100801834D01*
X90915316Y-100148344D01*
X90415156Y-99648184D01*
X89761666Y-99377500D01*
X89054334Y-99377500D01*
X88400844Y-99648184D01*
X87900684Y-100148344D01*
X87630000Y-100801834D01*
X87630000Y-101006822D01*
X87225225Y-100602047D01*
X87175849Y-100528151D01*
X87019380Y-100423601D01*
X86107625Y-99511847D01*
X86058249Y-99437951D01*
X85765510Y-99242348D01*
X85507365Y-99191000D01*
X85507361Y-99191000D01*
X85420200Y-99173663D01*
X85333039Y-99191000D01*
X85285012Y-99191000D01*
X85154430Y-98995570D01*
X84870719Y-98806000D01*
X85154430Y-98616430D01*
X85318421Y-98371000D01*
X90560733Y-98371000D01*
X93694016Y-101504284D01*
X93694016Y-101504284D01*
G37*
X93694016Y-101504284D02*
X93740600Y-101574002D01*
X94016800Y-101758553D01*
X94260364Y-101807001D01*
X94260367Y-101807001D01*
X94342600Y-101823358D01*
X94424833Y-101807001D01*
X96745768Y-101807001D01*
X96828001Y-101823358D01*
X96910234Y-101807001D01*
X96910238Y-101807001D01*
X97153802Y-101758553D01*
X97430002Y-101574002D01*
X97476588Y-101504281D01*
X97660279Y-101320590D01*
X97730000Y-101274004D01*
X97833276Y-101119440D01*
X99128000Y-101119440D01*
X99375765Y-101070157D01*
X99585809Y-100929809D01*
X99649827Y-100834000D01*
X101639839Y-100834000D01*
X101727000Y-100851337D01*
X101814161Y-100834000D01*
X101814165Y-100834000D01*
X101975875Y-100801834D01*
X102870000Y-100801834D01*
X102870000Y-101509166D01*
X103140684Y-102162656D01*
X103640844Y-102662816D01*
X104294334Y-102933500D01*
X105001666Y-102933500D01*
X105655156Y-102662816D01*
X106155316Y-102162656D01*
X106426000Y-101509166D01*
X106426000Y-100801834D01*
X106155316Y-100148344D01*
X105655156Y-99648184D01*
X105001666Y-99377500D01*
X104294334Y-99377500D01*
X103640844Y-99648184D01*
X103140684Y-100148344D01*
X102870000Y-100801834D01*
X101975875Y-100801834D01*
X102072310Y-100782652D01*
X102365049Y-100587049D01*
X102414425Y-100513153D01*
X103675578Y-99252001D01*
X111191931Y-99252001D01*
X111198845Y-99258915D01*
X111394807Y-99552193D01*
X111737163Y-99780948D01*
X112039065Y-99841000D01*
X112136782Y-99841000D01*
X112232599Y-99984401D01*
X112369687Y-100076000D01*
X112232599Y-100167599D01*
X112136782Y-100311000D01*
X111975565Y-100311000D01*
X111673663Y-100371052D01*
X111464216Y-100511000D01*
X110898832Y-100511000D01*
X110816599Y-100494643D01*
X110734366Y-100511000D01*
X110734363Y-100511000D01*
X110490799Y-100559448D01*
X110214599Y-100743999D01*
X110168015Y-100813717D01*
X108235918Y-102745815D01*
X108166200Y-102792399D01*
X108119616Y-102862117D01*
X107981648Y-103068600D01*
X107963914Y-103157758D01*
X107770435Y-103196243D01*
X107560391Y-103336591D01*
X107519546Y-103397720D01*
X107377898Y-103256073D01*
X107144509Y-103159400D01*
X106553950Y-103159400D01*
X106395200Y-103318150D01*
X106395200Y-104292400D01*
X106415200Y-104292400D01*
X106415200Y-104546400D01*
X106395200Y-104546400D01*
X106395200Y-104566400D01*
X106141200Y-104566400D01*
X106141200Y-104546400D01*
X105041950Y-104546400D01*
X104978949Y-104609401D01*
X102155836Y-104609401D01*
X102073599Y-104593043D01*
X101991362Y-104609401D01*
X101747798Y-104657849D01*
X101471598Y-104842400D01*
X101425014Y-104912118D01*
X100884118Y-105453015D01*
X101092000Y-104951142D01*
X101092000Y-104344858D01*
X100859985Y-103784723D01*
X100743352Y-103668090D01*
X104883200Y-103668090D01*
X104883200Y-104133650D01*
X105041950Y-104292400D01*
X106141200Y-104292400D01*
X106141200Y-103318150D01*
X105982450Y-103159400D01*
X105391891Y-103159400D01*
X105158502Y-103256073D01*
X104979873Y-103434701D01*
X104883200Y-103668090D01*
X100743352Y-103668090D01*
X100431277Y-103356015D01*
X99871142Y-103124000D01*
X99264858Y-103124000D01*
X98704723Y-103356015D01*
X98298000Y-103762738D01*
X97891277Y-103356015D01*
X97331142Y-103124000D01*
X96724858Y-103124000D01*
X96164723Y-103356015D01*
X95736015Y-103784723D01*
X95725367Y-103810430D01*
X95560196Y-103755409D01*
X94667605Y-104648000D01*
X94681748Y-104662143D01*
X94502143Y-104841748D01*
X94488000Y-104827605D01*
X93595409Y-105720196D01*
X93680467Y-105975539D01*
X94249965Y-106183516D01*
X94647777Y-106166577D01*
X94153466Y-106660888D01*
X94092096Y-106701894D01*
X94091384Y-106702960D01*
X93326139Y-106702960D01*
X91033144Y-104409965D01*
X92952484Y-104409965D01*
X92978277Y-105015700D01*
X93160461Y-105455533D01*
X93415804Y-105540591D01*
X94308395Y-104648000D01*
X93415804Y-103755409D01*
X93160461Y-103840467D01*
X92952484Y-104409965D01*
X91033144Y-104409965D01*
X90198983Y-103575804D01*
X93595409Y-103575804D01*
X94488000Y-104468395D01*
X95380591Y-103575804D01*
X95295533Y-103320461D01*
X94726035Y-103112484D01*
X94120300Y-103138277D01*
X93680467Y-103320461D01*
X93595409Y-103575804D01*
X90198983Y-103575804D01*
X89556678Y-102933500D01*
X89761666Y-102933500D01*
X90415156Y-102662816D01*
X90915316Y-102162656D01*
X91186000Y-101509166D01*
X91186000Y-100801834D01*
X90915316Y-100148344D01*
X90415156Y-99648184D01*
X89761666Y-99377500D01*
X89054334Y-99377500D01*
X88400844Y-99648184D01*
X87900684Y-100148344D01*
X87630000Y-100801834D01*
X87630000Y-101006822D01*
X87225225Y-100602047D01*
X87175849Y-100528151D01*
X87019380Y-100423601D01*
X86107625Y-99511847D01*
X86058249Y-99437951D01*
X85765510Y-99242348D01*
X85507365Y-99191000D01*
X85507361Y-99191000D01*
X85420200Y-99173663D01*
X85333039Y-99191000D01*
X85285012Y-99191000D01*
X85154430Y-98995570D01*
X84870719Y-98806000D01*
X85154430Y-98616430D01*
X85318421Y-98371000D01*
X90560733Y-98371000D01*
X93694016Y-101504284D01*
G36*
X107381748Y-97013858D02*
X107367605Y-97028000D01*
X107381748Y-97042143D01*
X107202143Y-97221748D01*
X107188000Y-97207605D01*
X107173858Y-97221748D01*
X106994253Y-97042143D01*
X107008395Y-97028000D01*
X106994253Y-97013858D01*
X107173858Y-96834253D01*
X107188000Y-96848395D01*
X107202143Y-96834253D01*
X107381748Y-97013858D01*
X107381748Y-97013858D01*
G37*
X107381748Y-97013858D02*
X107367605Y-97028000D01*
X107381748Y-97042143D01*
X107202143Y-97221748D01*
X107188000Y-97207605D01*
X107173858Y-97221748D01*
X106994253Y-97042143D01*
X107008395Y-97028000D01*
X106994253Y-97013858D01*
X107173858Y-96834253D01*
X107188000Y-96848395D01*
X107202143Y-96834253D01*
X107381748Y-97013858D01*
G36*
X105513556Y-80232362D02*
X104997362Y-80748556D01*
X104718000Y-81422996D01*
X104718000Y-82153004D01*
X104997362Y-82827444D01*
X105513556Y-83343638D01*
X106187996Y-83623000D01*
X106918004Y-83623000D01*
X107592444Y-83343638D01*
X108108638Y-82827444D01*
X108388000Y-82153004D01*
X108388000Y-81422996D01*
X108108638Y-80748556D01*
X107592444Y-80232362D01*
X106938547Y-79961509D01*
X111776999Y-79961509D01*
X111764070Y-80026510D01*
X111764070Y-82025490D01*
X111813353Y-82273255D01*
X111953701Y-82483299D01*
X112108813Y-82586942D01*
X112087932Y-82606274D01*
X111821373Y-83185645D01*
X111940193Y-83439000D01*
X113284000Y-83439000D01*
X113284000Y-83419000D01*
X113538000Y-83419000D01*
X113538000Y-83439000D01*
X113558000Y-83439000D01*
X113558000Y-83693000D01*
X113538000Y-83693000D01*
X113538000Y-83713000D01*
X113284000Y-83713000D01*
X113284000Y-83693000D01*
X111940193Y-83693000D01*
X111821373Y-83946355D01*
X112087932Y-84525726D01*
X112400694Y-84815282D01*
X112232599Y-84927599D01*
X112136782Y-85071000D01*
X111975565Y-85071000D01*
X111673663Y-85131052D01*
X111539046Y-85221000D01*
X103973159Y-85221000D01*
X103885999Y-85203663D01*
X103798839Y-85221000D01*
X103798835Y-85221000D01*
X103540690Y-85272348D01*
X103540688Y-85272349D01*
X103540689Y-85272349D01*
X103321845Y-85418576D01*
X103321844Y-85418577D01*
X103247951Y-85467951D01*
X103198577Y-85541844D01*
X101727000Y-87013422D01*
X101727000Y-86564858D01*
X101494985Y-86004723D01*
X101066277Y-85576015D01*
X100506142Y-85344000D01*
X100306866Y-85344000D01*
X105689358Y-79961509D01*
X106167453Y-79961509D01*
X105513556Y-80232362D01*
X105513556Y-80232362D01*
G37*
X105513556Y-80232362D02*
X104997362Y-80748556D01*
X104718000Y-81422996D01*
X104718000Y-82153004D01*
X104997362Y-82827444D01*
X105513556Y-83343638D01*
X106187996Y-83623000D01*
X106918004Y-83623000D01*
X107592444Y-83343638D01*
X108108638Y-82827444D01*
X108388000Y-82153004D01*
X108388000Y-81422996D01*
X108108638Y-80748556D01*
X107592444Y-80232362D01*
X106938547Y-79961509D01*
X111776999Y-79961509D01*
X111764070Y-80026510D01*
X111764070Y-82025490D01*
X111813353Y-82273255D01*
X111953701Y-82483299D01*
X112108813Y-82586942D01*
X112087932Y-82606274D01*
X111821373Y-83185645D01*
X111940193Y-83439000D01*
X113284000Y-83439000D01*
X113284000Y-83419000D01*
X113538000Y-83419000D01*
X113538000Y-83439000D01*
X113558000Y-83439000D01*
X113558000Y-83693000D01*
X113538000Y-83693000D01*
X113538000Y-83713000D01*
X113284000Y-83713000D01*
X113284000Y-83693000D01*
X111940193Y-83693000D01*
X111821373Y-83946355D01*
X112087932Y-84525726D01*
X112400694Y-84815282D01*
X112232599Y-84927599D01*
X112136782Y-85071000D01*
X111975565Y-85071000D01*
X111673663Y-85131052D01*
X111539046Y-85221000D01*
X103973159Y-85221000D01*
X103885999Y-85203663D01*
X103798839Y-85221000D01*
X103798835Y-85221000D01*
X103540690Y-85272348D01*
X103540688Y-85272349D01*
X103540689Y-85272349D01*
X103321845Y-85418576D01*
X103321844Y-85418577D01*
X103247951Y-85467951D01*
X103198577Y-85541844D01*
X101727000Y-87013422D01*
X101727000Y-86564858D01*
X101494985Y-86004723D01*
X101066277Y-85576015D01*
X100506142Y-85344000D01*
X100306866Y-85344000D01*
X105689358Y-79961509D01*
X106167453Y-79961509D01*
X105513556Y-80232362D01*
G04 #@! TD*
M02*
